<svg data-name="Группа 23" xmlns="http://www.w3.org/2000/svg" width="110" height="109"><defs><filter id="a" x="27" y="27" width="54" height="54" filterUnits="userSpaceOnUse"><feFlood result="flood" flood-color="#0d0d0d"/><feComposite result="composite" operator="in" in2="SourceGraphic"/><feBlend result="blend" in2="SourceGraphic"/></filter></defs><path data-name="Прямоугольник 14" fill="#da0812" d="M59 21h16v69H59z"/><path data-name="Forma 1" d="M54 40a14 14 0 1 0 14 14 14.015 14.015 0 0 0-14-14zm0 26a12 12 0 1 1 12-12 12.013 12.013 0 0 1-12 12zm24.22-18H76.2a22.8 22.8 0 0 0-2.26-5.457l1.426-1.426a2.782 2.782 0 0 0 0-3.932l-4.552-4.555a2.848 2.848 0 0 0-3.933 0l-1.426 1.426A22.849 22.849 0 0 0 60 31.8v-2.021A2.783 2.783 0 0 0 57.219 27H50.78A2.783 2.783 0 0 0 48 29.779V31.8a22.837 22.837 0 0 0-5.457 2.26l-1.426-1.426a2.847 2.847 0 0 0-3.933 0l-4.553 4.553a2.782 2.782 0 0 0 0 3.933l1.426 1.426A22.771 22.771 0 0 0 31.8 48h-2.02A2.783 2.783 0 0 0 27 50.778v6.439A2.783 2.783 0 0 0 29.78 60h2.02a22.847 22.847 0 0 0 2.26 5.457l-1.426 1.426a2.783 2.783 0 0 0 0 3.933l4.553 4.553a2.846 2.846 0 0 0 3.933 0l1.426-1.426A22.9 22.9 0 0 0 48 76.2v2.018A2.783 2.783 0 0 0 50.781 81h6.439A2.783 2.783 0 0 0 60 78.219V76.2a22.846 22.846 0 0 0 5.457-2.26l1.426 1.426a2.847 2.847 0 0 0 3.933 0l4.553-4.553a2.782 2.782 0 0 0 0-3.933l-1.426-1.426A22.893 22.893 0 0 0 76.2 60h2.02A2.783 2.783 0 0 0 81 57.219v-6.44A2.784 2.784 0 0 0 78.219 48zm.78 9.219a.781.781 0 0 1-.78.779h-3.593l-.18.773a20.877 20.877 0 0 1-2.613 6.311l-.42.674 2.539 2.544a.78.78 0 0 1 0 1.1L69.4 73.952a.78.78 0 0 1-1.1 0l-2.539-2.539-.674.421a20.836 20.836 0 0 1-6.311 2.612l-.776.18v3.592a.781.781 0 0 1-.78.78h-6.44a.781.781 0 0 1-.78-.78v-3.592l-.773-.18a20.885 20.885 0 0 1-6.311-2.612l-.674-.421-2.542 2.539a.78.78 0 0 1-1.1 0L34.046 69.4a.78.78 0 0 1 0-1.1l2.539-2.539-.42-.674a20.834 20.834 0 0 1-2.613-6.311l-.18-.776H29.78a.781.781 0 0 1-.78-.781v-6.44a.781.781 0 0 1 .78-.779h3.592l.18-.773a20.871 20.871 0 0 1 2.613-6.311l.42-.674-2.539-2.542a.781.781 0 0 1 0-1.1l4.554-4.555a.781.781 0 0 1 1.1 0l2.539 2.539.674-.42a20.852 20.852 0 0 1 6.311-2.613l.776-.18v-3.592a.781.781 0 0 1 .78-.779h6.439a.781.781 0 0 1 .781.78v3.592l.773.18a20.889 20.889 0 0 1 6.311 2.613l.674.42 2.542-2.54a.781.781 0 0 1 1.1 0l4.553 4.555a.781.781 0 0 1 0 1.1l-2.539 2.539.42.674a20.827 20.827 0 0 1 2.613 6.311l.18.776h3.592a.781.781 0 0 1 .78.78v6.44zM54 44a10 10 0 1 0 10 10 10.011 10.011 0 0 0-10-10zm0 18a8 8 0 1 1 8-8 8.009 8.009 0 0 1-8 8z" fill-rule="evenodd" filter="url(#a)"/></svg>