<svg data-name="Группа 32" xmlns="http://www.w3.org/2000/svg" width="110" height="109"><defs><filter id="a" x="29.5" y="21" width="41.25" height="68.688" filterUnits="userSpaceOnUse"><feFlood result="flood" flood-color="#fff"/><feComposite result="composite" operator="in" in2="SourceGraphic"/><feBlend result="blend" in2="SourceGraphic"/></filter></defs><path data-name="Прямоугольник 14" fill="#da0812" d="M59 21h16v69H59z"/><path d="M50.127 28.147a13.484 13.484 0 1 0 13.484 13.485 13.5 13.5 0 0 0-13.484-13.485zm0 25.667A12.183 12.183 0 1 1 62.31 41.632a12.2 12.2 0 0 1-12.183 12.182zm20.358-9.547l-3.68-2.635L70.485 39a.652.652 0 0 0-.183-1.15l-4.314-1.369 2.685-3.644a.651.651 0 0 0 .056-.682.66.66 0 0 0-.584-.355l-4.527.032 1.429-4.3a.651.651 0 0 0-.823-.823l-4.3 1.428.031-4.527a.65.65 0 0 0-1.036-.529l-3.643 2.686-1.369-4.315a.65.65 0 0 0-.519-.445.643.643 0 0 0-.631.263l-2.635 3.682-2.635-3.68a.651.651 0 0 0-1.149.183l-1.365 4.315-3.644-2.686a.65.65 0 0 0-1.036.529l.032 4.527-4.3-1.428a.651.651 0 0 0-.823.823l1.429 4.3-4.523-.035a.681.681 0 0 0-.584.355.651.651 0 0 0 .057.682l2.686 3.644-4.314 1.369a.652.652 0 0 0-.184 1.15l3.681 2.635-3.681 2.635a.65.65 0 0 0 .183 1.148l4.314 1.369-2.686 3.644a.65.65 0 0 0 .523 1.036h.005l4.527-.032-1.429 4.3a.651.651 0 0 0 .823.823l4.3-1.428-.032 4.526a.654.654 0 0 0 .093.339l-2.911 21.21a.652.652 0 0 0 1.036.609l6.457-4.853 4.511 5.994a.652.652 0 0 0 .52.259.661.661 0 0 0 .164-.02.653.653 0 0 0 .481-.542L52.27 70.81l6.945 18.461a.649.649 0 0 0 .608.421.649.649 0 0 0 .607-.429l2.48-6.863 5.9 3.333a.65.65 0 0 0 .931-.791l-9.786-26.4-.023-3.417 4.3 1.429a.651.651 0 0 0 .823-.822l-1.429-4.3 4.527.032a.591.591 0 0 0 .585-.355.651.651 0 0 0-.057-.682l-2.691-3.642 4.314-1.37a.65.65 0 0 0 .181-1.148zM49.573 80.909l-3.952-5.251a.651.651 0 0 0-.911-.128l-5.73 4.307L41.713 59.9l3.261-2.4 1.37 4.316a.651.651 0 0 0 1.149.182l2.634-3.682 2.134 2.981zM67.9 83.723l-5.023-2.838a.652.652 0 0 0-.932.347l-2.135 5.929L52.64 68.1l.806-5.873a.642.642 0 0 0 .465-.42l1.37-4.315 3.643 2.686a.636.636 0 0 0 .29.109zM64.73 45.82a.65.65 0 0 0-.326 1.006l2.454 3.331-4.136-.029a.651.651 0 0 0-.617.856l1.295 3.925-3.926-1.3a.65.65 0 0 0-.856.621l.027 4.037c-.01.027-.013.056-.021.083l-3.309-2.438a.65.65 0 0 0-1.005.327l-1.251 3.943-2.409-3.363a.65.65 0 0 0-1.057 0l-2.403 3.357-1.251-3.943a.65.65 0 0 0-1.005-.327L41.6 58.361l.029-4.136a.65.65 0 0 0-.268-.531.643.643 0 0 0-.588-.09l-3.925 1.3 1.305-3.925a.651.651 0 0 0-.617-.856l-4.136.029 2.454-3.331a.65.65 0 0 0-.327-1.006l-3.942-1.252 3.363-2.407a.651.651 0 0 0 0-1.058l-3.363-2.408 3.942-1.251a.65.65 0 0 0 .327-1.005L33.4 33.107l4.136.028a.622.622 0 0 0 .53-.268.647.647 0 0 0 .091-.587l-1.305-3.926 3.925 1.3a.65.65 0 0 0 .856-.621L41.6 24.9l3.33 2.453a.65.65 0 0 0 1.005-.326l1.251-3.943 2.414 3.365a.673.673 0 0 0 1.057 0l2.409-3.364 1.251 3.943a.65.65 0 0 0 1.005.326L58.65 24.9l-.028 4.136a.65.65 0 0 0 .856.621l3.926-1.3L62.1 32.28a.648.648 0 0 0 .091.587.71.71 0 0 0 .531.268l4.136-.028-2.458 3.33a.65.65 0 0 0 .326 1l3.942 1.251-3.36 2.412a.651.651 0 0 0 0 1.058l3.363 2.407zm-22.3 25.189a.647.647 0 0 0-.728.562l-.273 2.122a.651.651 0 0 0 .562.728.517.517 0 0 0 .084.006.649.649 0 0 0 .644-.567l.273-2.122a.649.649 0 0 0-.559-.729zm1.292-10.043a.652.652 0 0 0-.729.562l-.885 6.889a.65.65 0 0 0 .562.728.55.55 0 0 0 .084.005.65.65 0 0 0 .644-.567l.886-6.888a.651.651 0 0 0-.559-.729zm14.469-23.814a13.414 13.414 0 0 1 1.851 5.785c.045.584.964.591.918 0a14.5 14.5 0 0 0-1.977-6.249.459.459 0 0 0-.792.464zm.044-1.571a13.816 13.816 0 0 0-6.3-4.685c-.557-.2-.8.686-.243.885a12.73 12.73 0 0 1 5.747 4.263c.361.456 1.161.005.796-.463z" fill-rule="evenodd" filter="url(#a)"/></svg>