<svg data-name="Группа 34" xmlns="http://www.w3.org/2000/svg" width="110" height="109"><defs><filter id="a" x="30.031" y="21.281" width="65.563" height="64.844" filterUnits="userSpaceOnUse"><feFlood result="flood" flood-color="#fff"/><feComposite result="composite" operator="in" in2="SourceGraphic"/><feBlend result="blend" in2="SourceGraphic"/></filter></defs><path data-name="Прямоугольник 14" fill="#da0812" d="M58 21h16v69H58z"/><path data-name="Forma 1" d="M65.61 72.748a.933.933 0 0 0-1.319 0L53.55 83.48a2.685 2.685 0 0 1-3.8 0L32.648 66.387a2.684 2.684 0 0 1 0-3.793l10.745-10.736a.932.932 0 0 0-1.319-1.317L31.33 61.277a4.548 4.548 0 0 0 0 6.428L48.436 84.8a4.552 4.552 0 0 0 6.433 0L65.61 74.065a.93.93 0 0 0 0-1.317zM92.813 23.8c-3.081-3.079-5.97-2.8-7.851-2.018-3.5 1.448-5.973 5.53-7.138 7.835a29.894 29.894 0 0 0-1.863 4.618l-15.169.165a6.323 6.323 0 0 0-4.427 1.86l-9.65 9.64a.932.932 0 0 0 1.319 1.318l9.65-9.642a4.468 4.468 0 0 1 3.128-1.315L75.46 36.1c-.1.439-.181.866-.246 1.278a3.615 3.615 0 1 0 1.806.51 17.767 17.767 0 0 1 .355-1.8 2.845 2.845 0 0 1 2.705 2.872l-.18 16.378a4.462 4.462 0 0 1-1.316 3.126l-9.606 9.6A.932.932 0 0 0 70.3 69.38l9.606-9.6a6.316 6.316 0 0 0 1.862-4.423l.15-13.788a43.083 43.083 0 0 0 5.76-2.654c4.477-2.5 7.082-5.2 7.743-8.016.565-2.415-.312-4.799-2.608-7.099zM75.162 42.757a1.755 1.755 0 0 1-.117-3.507v.109c0 1.762.509 2.661 1.072 3.116a1.748 1.748 0 0 1-.955.282zM93.6 30.475c-.527 2.249-2.882 4.6-6.813 6.8a41.136 41.136 0 0 1-4.853 2.288l.006-.582a4.712 4.712 0 0 0-4.04-4.711 28.334 28.334 0 0 1 1.585-3.813c1.784-3.529 4.039-6.063 6.187-6.953 2-.828 3.9-.3 5.819 1.614 1.838 1.833 2.528 3.582 2.109 5.357zM59.881 46.821c-1.6-1.6-3.494-2.12-5.367-.249l-3.079 3.076c-1.872 1.871-1.352 3.762.25 5.363 1.581 1.579 3.495 2.12 5.367.249l3.078-3.076c1.87-1.872 1.332-3.784-.249-5.363zm-1.248 3.866l-3.079 3.076a1.6 1.6 0 0 1-2.538-.083 1.579 1.579 0 0 1-.063-2.515l3.079-3.076a1.582 1.582 0 0 1 2.517.062 1.6 1.6 0 0 1 .084 2.536zm10.443 3.7a.922.922 0 0 0-1-.25l-22.922 7.649a.832.832 0 0 0-.4.228 1.137 1.137 0 0 0 .042 1.58 1.115 1.115 0 0 0 1.1.312l22.868-7.586a1.215 1.215 0 0 0 .4-.271 1.2 1.2 0 0 0-.088-1.662zM62 63.074c-1.6-1.6-3.495-2.12-5.367-.249L53.558 65.9c-1.872 1.871-1.352 3.763.25 5.363 1.581 1.58 3.495 2.12 5.367.249l3.079-3.076c1.871-1.87 1.33-3.782-.254-5.362zm-1.245 3.866l-3.079 3.077a1.6 1.6 0 0 1-2.538-.083 1.579 1.579 0 0 1-.062-2.515l3.079-3.076a1.582 1.582 0 0 1 2.517.062 1.6 1.6 0 0 1 .083 2.535z" fill-rule="evenodd" filter="url(#a)"/></svg>