<svg xmlns="http://www.w3.org/2000/svg" xmlns:xlink="http://www.w3.org/1999/xlink" width="31" height="31" viewBox="0 0 31 31">
    <defs>
        <path id="a" d="M409.933 1412.937c1.983.207 4.084-.325 5.712-1.539a2.9 2.9 0 0 0 .976-1.272c.089-.237 0-.474-.237-.622-1.124-.828-2.426-1.48-3.699-2.249-.325-.207-.621-.443-.947-.503a.852.852 0 0 0-.74.208c-.236.207-.384.591-.591.917-.74 1.272-1.539 2.515-2.101 3.788a.532.532 0 0 0 .118.65c.414.356.947.563 1.51.622zm-8.67-9.025c-.178.503-.237 1.124-.118 1.627a8.01 8.01 0 0 0 3.195 4.942 2.913 2.913 0 0 0 1.51.533c.236.03.444-.148.532-.415.444-1.331.68-2.781.977-4.231.089-.385.237-.74.177-1.066a.877.877 0 0 0-.414-.65c-.266-.178-.68-.178-1.036-.267-1.45-.296-2.87-.68-4.26-.829-.238.03-.474.148-.563.356zm4.084-8.67a8.399 8.399 0 0 0-3.729 4.586 3.055 3.055 0 0 0-.06 1.627c.06.237.297.385.563.385 1.39 0 2.84-.237 4.32-.355.385-.03.77 0 1.066-.148a.872.872 0 0 0 .473-.592c.09-.325-.03-.71-.059-1.095-.177-1.45-.237-2.93-.533-4.29-.059-.267-.236-.474-.473-.474-.533-.06-1.095.089-1.568.355zm5.445-1.45a2.94 2.94 0 0 0-1.54.443c-.206.118-.266.385-.177.651.444 1.332 1.095 2.634 1.687 3.995.148.355.237.74.473.976a.894.894 0 0 0 .71.267c.326-.03.652-.237 1.007-.415 1.331-.621 2.722-1.154 3.906-1.834.237-.148.355-.385.296-.592a3.136 3.136 0 0 0-.858-1.39c-1.48-1.333-3.522-2.102-5.504-2.102zm8.788 6.805a2.847 2.847 0 0 0-.917-1.331c-.178-.148-.444-.119-.68.03-1.125.828-2.16 1.863-3.285 2.84-.296.266-.622.473-.77.77a.876.876 0 0 0-.03.769c.12.296.445.562.681.828 1.006 1.095 1.924 2.22 2.96 3.167.207.177.473.236.68.088.444-.295.829-.71 1.036-1.242.828-1.865.947-4.025.325-5.919zm-9.41 1.717c-.621.177-1.006.799-.828 1.42.177.621.799 1.006 1.42.829.621-.178 1.006-.8.829-1.42-.178-.652-.8-1.007-1.42-.83zm-.592-2.19c-.266.059-.444.296-.473.562-.03.503.532.829.947.562a.592.592 0 0 0 .177-.858.528.528 0 0 0-.65-.266zm2.693 1.213c-.266.06-.444.296-.473.562-.03.355.266.622.591.651a.608.608 0 0 0 .652-.592c.03-.414-.356-.71-.77-.621zm.118 3.048c-.266.06-.443.296-.473.562-.03.355.266.622.592.651.148 0 .266-.03.355-.089a.592.592 0 0 0 .178-.858c-.119-.236-.385-.325-.652-.266zm-3.136.829c-.267.059-.444.296-.474.562 0 .148.03.266.089.355a.592.592 0 0 0 .858.177.592.592 0 0 0 .178-.858c-.089-.177-.385-.296-.651-.236zm-1.42-2.693c-.267.059-.445.296-.474.562 0 .118.03.266.089.355a.592.592 0 0 0 .858.178.592.592 0 0 0 .177-.859c-.088-.177-.384-.295-.65-.236zm13.552-2.042c1.598 6.037-1.982 12.25-8.019 13.878-6.037 1.628-12.251-1.953-13.879-8.019-1.598-6.007 1.983-12.251 8.02-13.879 6.037-1.598 12.25 1.983 13.878 8.02zm-25.863 6.954c2.19 8.227 10.653 13.11 18.88 10.92 8.226-2.22 13.109-10.683 10.92-18.91-2.19-8.226-10.654-13.11-18.88-10.92-8.197 2.19-13.11 10.683-10.92 18.91z"/>
    </defs>
    <use fill="#848b9d" xlink:href="#a" transform="translate(-395 -1388)"/>
</svg>
