<svg xmlns="http://www.w3.org/2000/svg" xmlns:xlink="http://www.w3.org/1999/xlink" width="29" height="29" viewBox="0 0 29 29">
    <defs>
        <path id="a" d="M706.561 1393.993l-2.886-2.887 2.106-2.106 2.887 2.886z"/>
        <path id="b" d="M699.895 1389.907l-3.158 3.158a.88.88 0 0 0-.19.286l-1.826 4.216a.91.91 0 0 0 .19 1.008l4.178 4.178a.917.917 0 0 0 1.008.196l4.216-1.826a.98.98 0 0 0 .286-.19l3.158-3.158z"/>
        <path id="c" d="M684.69 1410.095l2.887 2.887-3.896 3.896-2.887-2.886z"/>
        <path id="d" d="M692.347 1407.815a.903.903 0 0 1-1.288 0l-1.204-1.199a.913.913 0 0 1 0-1.293.913.913 0 0 1 1.294 0l1.198 1.198a.913.913 0 0 1 0 1.294zm3.707-.594c0-.487-.19-.946-.532-1.288l-3.785-3.785a1.813 1.813 0 0 0-1.288-.532c-.487 0-.947.19-1.288.532l-2.28 2.279-2.329-.05a.904.904 0 0 0-.666.268l-3.617 3.618a.913.913 0 0 0 0 1.293l1.187 1.187 2.587-2.587a.907.907 0 0 1 1.288 0l4.183 4.183a.913.913 0 0 1 0 1.293l-2.587 2.582 1.187 1.187a.903.903 0 0 0 1.288 0l3.611-3.612a.917.917 0 0 0 .27-.666l-.051-2.33 2.279-2.278a1.8 1.8 0 0 0 .543-1.294z"/>
    </defs>
    <use fill="#848b9d" xlink:href="#a" transform="translate(-680 -1389)"/>
    <use fill="#848b9d" xlink:href="#b" transform="translate(-680 -1389)"/>
    <use fill="#848b9d" xlink:href="#c" transform="translate(-680 -1389)"/>
    <use fill="#848b9d" xlink:href="#d" transform="translate(-680 -1389)"/>
</svg>
