<svg xmlns="http://www.w3.org/2000/svg" xmlns:xlink="http://www.w3.org/1999/xlink" width="22" height="27" viewBox="0 0 22 27">
    <defs>
        <path id="a" d="M970.223 1334.083c-.171-.341-.513-.341-.65 0-.853 2.356-2.321 4.064-3.414 5.532-2.766 3.722-1.332 7.82 3.756 7.82 5.054 0 6.523-4.098 3.757-7.82-1.127-1.468-2.562-3.176-3.45-5.532zm11.985 2.015a.511.511 0 0 1-.478.888l-5.224-1.81c-.751-.239-.888-.58-.99-1.024l-.752-3.483c-.17-.581.41-1.025.922-.513zm-8.878-8.605l-.273-2.015c-.034-.273-.205-.478-.478-.478h-3.483a.467.467 0 0 0-.478.478 16.44 16.44 0 0 0-.137 1.366h2.527l.034.649h-3.073c-.717 0-1.298.512-1.298 1.23v7.785c.615-.922 1.161-1.844 1.537-2.937l.034-.034.034.034c.649-1.468 2.595-1.468 3.244 0l.034.034v.034c.752 1.98 1.981 3.483 3.244 5.157 3.586 4.746 1.196 10.073-4.883 10.073a8.4 8.4 0 0 1-3.21-.614v1.98c0 .683.547 1.23 1.23 1.23h16.835c.682 0 1.263-.547 1.229-1.23l-.82-12.6c-.102-1.4-.648-2.493-1.639-3.381l-7.068-6.317c-.376-.273-.82-.41-1.366-.444h-1.776z"/>
    </defs>
    <use fill="#848b9d" xlink:href="#a" transform="translate(-964 -1325)"/>
</svg>
