<svg xmlns="http://www.w3.org/2000/svg" xmlns:xlink="http://www.w3.org/1999/xlink" width="31" height="27" viewBox="0 0 31 27">
    <defs>
        <path id="a" d="M702.25 1333.36v1.417h4.698v-1.416h-4.699zm-18.588 0v1.417h1.624v1.624h1.416v-1.624h1.624v-1.416h-1.624v-1.624h-1.416v1.624zm26.776 15.893l.138 2.211H680l.138-2.21zm-.795-20.418c.276 0 .518.242.518.518v18.795h-29.677v-18.795c0-.276.207-.518.518-.518h28.641zm-25.877-1.106l.345-2.038c.07-.38.242-.691.519-.691h2.902c.276 0 .449.31.518.691l.31 2.038h-4.594zm18.518 0l.311-2.038c.07-.38.242-.691.518-.691h2.902c.277 0 .45.31.519.691l.31 2.038z"/>
    </defs>
    <use fill="#848b9d" xlink:href="#a" transform="translate(-680 -1325)"/>
</svg>
