<svg xmlns="http://www.w3.org/2000/svg" xmlns:xlink="http://www.w3.org/1999/xlink" width="31" height="31" viewBox="0 0 31 31">
    <defs>
        <path id="a" d="M396.792 1330.234c.514.514 1.15.908 1.875 1.12l1.997 9.53a8.9 8.9 0 0 0-1.089 2.511l-.03.121zm25.898 11.285l-6.172 6.657c.06-.121.091-.273.121-.394a8.066 8.066 0 0 0 .273-2.39l3.358-3.63c.817.09 1.634 0 2.42-.243zm-3.055-11.194c-.575.12-1.15.363-1.695.666-.12.09-.272.181-.393.272l-13.04-4.81c-.09-.727-.363-1.393-.757-1.998zm.03 5.355c-.182.696.272 1.422.968 1.604.696.181 1.422-.273 1.604-.968.181-.696-.273-1.423-.969-1.604-.726-.182-1.452.242-1.603.968zm6.384 1.604c-.696 2.813-3.57 4.538-6.384 3.812-2.814-.696-4.538-3.57-3.812-6.384.696-2.814 3.57-4.538 6.384-3.812 2.813.696 4.508 3.57 3.812 6.384zm-25.052-14.16a4.009 4.009 0 0 1 2.905 4.871c-.575 2.148-2.754 3.42-4.871 2.874-2.149-.544-3.45-2.723-2.905-4.84a4.009 4.009 0 0 1 4.871-2.905zm-.665 2.602a1.322 1.322 0 0 0-1.604.938 1.317 1.317 0 0 0 .968 1.604 1.317 1.317 0 0 0 1.604-.969c.181-.665-.242-1.391-.968-1.573zm9.833 11.83c4.417 1.12 7.11 5.628 5.99 10.075-1.12 4.417-5.627 7.11-10.075 5.99-4.447-1.149-7.11-5.657-5.99-10.074 1.119-4.448 5.627-7.11 10.075-5.991zm-1.574 6.142c-1.028-.272-2.087.363-2.36 1.392-.272 1.028.363 2.087 1.392 2.36 1.029.272 2.088-.363 2.36-1.392.272-1.029-.363-2.088-1.392-2.36zm1.301-5.083c-3.842-.998-7.775 1.331-8.744 5.204-.998 3.842 1.332 7.745 5.204 8.744 3.843.968 7.776-1.362 8.744-5.204.968-3.843-1.361-7.776-5.204-8.744zm-.12.424c3.6.907 5.778 4.598 4.87 8.199-.907 3.6-4.598 5.779-8.199 4.87-3.6-.907-5.779-4.598-4.871-8.198.938-3.6 4.599-5.78 8.2-4.871zm-.455 1.815a.667.667 0 0 0-.816.484.667.667 0 0 0 .484.817.667.667 0 0 0 .817-.484.667.667 0 0 0-.485-.817zm-4.69 1.331a.666.666 0 0 0 0 .938.666.666 0 0 0 .939 0 .666.666 0 0 0 0-.938c-.242-.272-.666-.272-.938 0zm8.17 2.088c-.09-.363-.484-.575-.817-.454-.363.09-.575.484-.454.817.09.363.484.575.817.454.363-.091.545-.484.454-.817zm-9.38 2.632c.091.363.485.575.818.454.363-.091.574-.484.453-.817-.12-.333-.484-.575-.817-.454-.332.09-.544.454-.453.817zm3.51 3.389a.667.667 0 0 0 .817-.484.667.667 0 0 0-.484-.817.667.667 0 0 0-.817.484c-.12.363.121.726.484.817zm4.66-1.332a.666.666 0 0 0 0-.938.666.666 0 0 0-.938 0 .666.666 0 0 0 0 .938c.272.273.696.273.938 0z"/>
    </defs>
    <use fill="#848b9d" xlink:href="#a" transform="translate(-396 -1323)"/>
</svg>
