<svg xmlns="http://www.w3.org/2000/svg" viewBox="12082.65 11254.09 16.949 16.812">
    <defs>
        <style>
            .cls-1{fill:#848b9d}
        </style>
    </defs>
    <path id="Path_1741" data-name="Path 1741" class="cls-1" d="M16.6 12.453a.254.254 0 0 0 .231-.038.211.211 0 0 0 .115-.192v-1.23a.613.613 0 0 0-.307-.538l-6.457-3.8a.613.613 0 0 1-.307-.538V1.768a1.263 1.263 0 0 0-.154-.653c-.266-.654-.612-1-1.073-1.077A.288.288 0 0 0 8.455 0a.487.487 0 0 0-.231.038h-.076c-.038 0-.077.038-.115.038a1.078 1.078 0 0 0-.461.307 1.608 1.608 0 0 0-.307.461l-.115.231a1.8 1.8 0 0 0-.115.653v4.3a.571.571 0 0 1-.307.538L.307 10.454a.613.613 0 0 0-.307.538v1.23a.211.211 0 0 0 .115.192.487.487 0 0 0 .231.038l6.38-2.075a.245.245 0 0 1 .231 0 .232.232 0 0 1 .115.231v3.344a.607.607 0 0 1-.269.577l-.846.615a.692.692 0 0 0-.269.577v.846a.211.211 0 0 0 .115.192.487.487 0 0 0 .231.038l2.152-.615a1.067 1.067 0 0 1 .692 0l2.152.615a.254.254 0 0 0 .231-.038.211.211 0 0 0 .115-.192v-.807a.607.607 0 0 0-.269-.577l-.846-.615a.692.692 0 0 1-.269-.577v-3.345a.232.232 0 0 1 .115-.231.245.245 0 0 1 .231 0zm0 0" transform="translate(12082.65 11254.09)"/>
</svg>
