<svg xmlns="http://www.w3.org/2000/svg" viewBox="11999.682 11289.858 20.639 14.912">
    <defs>
        <style>
            .cls-1{fill:#848b9d}
        </style>
    </defs>
    <g id="Group_1273" data-name="Group 1273" transform="translate(11300 9375)">
        <path id="Path_1732" data-name="Path 1732" class="cls-1" d="M7.989 16.8H3.107a.3.3 0 0 0-.307.307v2.229a.3.3 0 0 0 .307.307h4.882a.3.3 0 0 0 .307-.307v-2.229a.3.3 0 0 0-.307-.307zm0 0" transform="translate(697.958 1904.515)"/>
        <path id="Path_1733" data-name="Path 1733" class="cls-1" d="M38.283 18.9h-1.768a.1.1 0 0 0-.115.115v1.768a.1.1 0 0 0 .115.115h1.768a.1.1 0 0 0 .115-.115v-1.768a.123.123 0 0 0-.115-.115zm0 0" transform="translate(677.272 1903.222)"/>
        <path id="Path_1734" data-name="Path 1734" class="cls-1" d="M30.883 18.9h-1.768a.1.1 0 0 0-.115.115v1.768a.1.1 0 0 0 .115.115h1.768a.1.1 0 0 0 .117-.115v-1.768c.038-.038-.038-.115-.115-.115zm0 0" transform="translate(681.828 1903.222)"/>
        <path id="Path_1735" data-name="Path 1735" class="cls-1" d="M23.583 18.9h-1.768a.1.1 0 0 0-.115.115v1.768a.1.1 0 0 0 .115.115h1.768a.1.1 0 0 0 .115-.115v-1.768a.123.123 0 0 0-.115-.115zm0 0" transform="translate(686.322 1903.222)"/>
        <path id="Path_1736" data-name="Path 1736" class="cls-1" d="M30.883 12.1h-1.768a.1.1 0 0 0-.115.115v1.768a.1.1 0 0 0 .115.115h1.768a.1.1 0 0 0 .117-.115v-1.768c.038-.077-.038-.115-.115-.115zm0 0" transform="translate(681.828 1907.409)"/>
        <path id="Path_1737" data-name="Path 1737" class="cls-1" d="M23.583 12.1h-1.768a.1.1 0 0 0-.115.115v1.768a.1.1 0 0 0 .115.115h1.768a.1.1 0 0 0 .115-.115v-1.768a.1.1 0 0 0-.115-.115zm0 0" transform="translate(686.322 1907.409)"/>
        <path id="Path_1738" data-name="Path 1738" class="cls-1" d="M9.23 9.1H7.654a.165.165 0 0 0-.154.154v2a.165.165 0 0 0 .154.154H9.23a.165.165 0 0 0 .154-.154v-2c.038-.077-.038-.154-.154-.154zm0 0" transform="translate(695.064 1909.256)"/>
        <path id="Path_1739" data-name="Path 1739" class="cls-1" d="M9.23 2.114h-.539V.269A.263.263 0 0 0 8.422 0a.257.257 0 0 0-.231.269v1.845h-.537a.165.165 0 0 0-.154.154v.461a.165.165 0 0 0 .154.154H9.23a.165.165 0 0 0 .154-.154v-.461c.038-.077-.038-.154-.154-.154zm0 0" transform="translate(695.064 1914.858)"/>
        <path id="Path_1740" data-name="Path 1740" class="cls-1" d="M20.6 24.338c0-.038-.038-.038-.077-.038h-3.381c-.038 0-.077 0-.077.038l-.461.577H.115c-.038 0-.077 0-.077.038a.141.141 0 0 0-.038.116s1.422 3.574 1.922 4.731c0 .038.038.077.115.077h15.181a.141.141 0 0 0 .115-.038c.846-1.345 3.305-5.342 3.305-5.342 0-.077 0-.115-.038-.154zm-6.764 2.69a.423.423 0 1 1 .423-.423.427.427 0 0 1-.423.423zm2.037 0a.423.423 0 1 1 .423-.423.427.427 0 0 1-.423.423zm0 0" transform="translate(699.682 1899.898)"/>
    </g>
</svg>
