<svg xmlns="http://www.w3.org/2000/svg" viewBox="11915 11258.334 22.715 11.684">
    <defs>
        <style>
            .cls-1{fill:#848b9d}
        </style>
    </defs>
    <path id="Path_1731" data-name="Path 1731" class="cls-1" d="M5.265 8.455A1.614 1.614 0 1 0 6.88 10.07a1.6 1.6 0 0 0-1.615-1.615zm0 2.421a.807.807 0 1 1 .807-.807.838.838 0 0 1-.807.807zM3.882 8.455H.269A.257.257 0 0 0 0 8.686v.769a.263.263 0 0 0 .269.269h2.883a2.038 2.038 0 0 1 .73-1.268zm14.336 0a1.614 1.614 0 1 0 1.614 1.614 1.6 1.6 0 0 0-1.614-1.614zm0 2.421a.807.807 0 1 1 .807-.807.838.838 0 0 1-.807.807zm4.189-2.421h-.615V4.92a2.034 2.034 0 0 0-.346-1.153L19.87 1.422A2.083 2.083 0 0 0 18.141.5h-2.46a.509.509 0 0 0-.5.5v7.455H6.649a2.13 2.13 0 0 1 .73 1.307H16.1a2.117 2.117 0 0 1 2.114-1.806 2.151 2.151 0 0 1 2.114 1.806h2.114a.263.263 0 0 0 .269-.269v-.768a.326.326 0 0 0-.307-.269zm-2.575-4.227H16.6a.263.263 0 0 1-.269-.269V2.191a.263.263 0 0 1 .269-.269h1.96a.332.332 0 0 1 .231.115l1.268 1.806c.115.154-.038.384-.231.384zM0 7.341h14.067V0H0z" transform="translate(11915 11258.334)"/>
</svg>
