<svg xmlns="http://www.w3.org/2000/svg" xmlns:xlink="http://www.w3.org/1999/xlink" width="49" height="61" viewBox="0 0 49 61">
    <defs>
        <path id="a" d="M903.087 1385.842c0-.996-.684-1.587-1.913-1.587-.498 0-.84.047-1.011.093v3.205c.202.047.467.062.824.062 1.292-.015 2.1-.669 2.1-1.773z"/>
        <path id="b" d="M910.632 1384.27c-.544 0-.902.047-1.104.094v7.078c.202.047.544.047.855.047 2.21.015 3.656-1.198 3.656-3.796.016-2.225-1.307-3.422-3.407-3.422z"/>
        <path id="c" d="M924.602 1388.953h-3.89v4.356h-2.457v-10.827h6.611v2.006h-4.153v2.474h3.889zm-17.532 4.294v-10.625c.902-.14 2.069-.218 3.313-.218 2.054 0 3.392.373 4.434 1.151 1.12.84 1.835 2.162 1.835 4.076 0 2.069-.746 3.5-1.804 4.387-1.136.949-2.878 1.4-4.994 1.4-1.275 0-2.177-.078-2.784-.171zm26.383 10.08h-32.886a2.47 2.47 0 0 1-2.473-2.473v-2.863h30.661a2.57 2.57 0 0 0 2.567-2.567v-15.618a2.57 2.57 0 0 0-2.567-2.567h-30.661v-23.614a2.47 2.47 0 0 1 2.473-2.473l22.635-.031v8.369a4.432 4.432 0 0 0 4.433 4.433l8.198-.03.094 36.945c0 1.369-1.12 2.489-2.474 2.489zm-35.717-20.705c.747-.125 1.82-.218 3.314-.218 1.509 0 2.582.296 3.313.871.685.545 1.151 1.447 1.151 2.505 0 1.057-.358 1.96-.995 2.566-.84.794-2.07 1.136-3.516 1.136a6.48 6.48 0 0 1-.84-.047v3.874h-2.427zm26.928-35.39h-24.097c-3.515 0-6.378 2.862-6.378 6.393v23.614h-.622a2.57 2.57 0 0 0-2.567 2.567v15.603a2.57 2.57 0 0 0 2.567 2.567h.622v2.862c0 3.516 2.863 6.394 6.394 6.394h32.87c3.516 0 6.378-2.863 6.378-6.394v-38.486z"/>
    </defs>
    <use fill="#a0a5b3" xlink:href="#a" transform="translate(-891 -1347)"/>
    <use fill="#a0a5b3" xlink:href="#b" transform="translate(-891 -1347)"/>
    <use fill="#a0a5b3" xlink:href="#c" transform="translate(-891 -1347)"/>
</svg>
