<svg xmlns="http://www.w3.org/2000/svg" xmlns:xlink="http://www.w3.org/1999/xlink" width="15" height="16" viewBox="0 0 15 16">
    <defs>
        <path id="a" d="M586.136 658.864v-9.143h12.565v9.143zm2.286-13.427a.279.279 0 0 1 .287-.287h.575a.279.279 0 0 1 .287.287v2.573a.279.279 0 0 1-.287.288h-.575a.279.279 0 0 1-.287-.288zm6.857 0a.279.279 0 0 1 .287-.287h.575a.279.279 0 0 1 .288.287v2.573a.279.279 0 0 1-.288.288h-.575a.279.279 0 0 1-.287-.288zm4.23 1.205a1.066 1.066 0 0 0-.808-.343h-1.136v-.862c0-.397-.137-.725-.425-1.013a1.396 1.396 0 0 0-1.013-.424h-.574c-.397 0-.726.137-1.013.424a1.396 1.396 0 0 0-.425 1.013v.862h-3.421v-.862c0-.397-.137-.725-.425-1.013a1.396 1.396 0 0 0-1.012-.424h-.575c-.397 0-.726.137-1.013.424a1.396 1.396 0 0 0-.424 1.013v.862h-1.109c-.315 0-.575.11-.807.343a1.096 1.096 0 0 0-.329.794v11.414c0 .315.11.575.342.808.233.233.493.342.808.342h12.564c.315 0 .575-.11.808-.342.233-.233.342-.493.342-.808v-11.414a1.183 1.183 0 0 0-.356-.794z"/>
    </defs>
    <use fill="#222" xlink:href="#a" transform="translate(-585 -644)"/>
</svg>
