<svg xmlns="http://www.w3.org/2000/svg" viewBox="19063 6681 48 48">
    <defs>
        <style>
            .a{fill:#222}
        </style>
    </defs>
    <path class="a" d="M19102.6 6681h-31.2l-8.4 13.4v34.6h48v-34.6zm-.8 1.6l7 11.2h-16.2v-11.2zm-14.8 0h4v11.2h-8v-11.2zm-4 12.8h.8a.8.8 0 1 0 1.6 0h3.2a.8.8 0 1 0 1.6 0h.8v2.9l-.8-.8-3.2 3.2-3.2-3.2-.8.8zm-10.8-12.8h9.2v11.2h-16.2zm10.8 44.8v-2.1l.8.8 3.2-3.2 3.2 3.2.8-.8v2.1zm9.6 0v-5.9l-2.4 2.4-3.2-3.2-3.2 3.2-2.4-2.4v5.9h-16.8v-32h16.8v6.7l2.4-2.4 3.2 3.2 3.2-3.2 2.4 2.4v-6.7h16.8v32zm0 0"/>
    <path class="a" d="M19079 6719.4h16V6705h-16zm1.6-12.8h12.8v11.2h-12.8zm0 0"/>
    <path class="a" d="M19087.8 6714.6h-4.8a.8.8 0 1 0 0 1.6h4.8a.8.8 0 1 0 0-1.6zm0 0M19091 6714.6h-.8a.8.8 0 1 0 0 1.6h.8a.8.8 0 1 0 0-1.6zm0 0M19091 6708.2h-4.8a.8.8 0 0 0 0 1.6h4.8a.8.8 0 0 0 0-1.6zm0 0M19091 6711.4h-1.6a.8.8 0 0 0 0 1.6h1.6a.8.8 0 0 0 0-1.6zm0 0M19083 6713h1.6a.8.8 0 1 0 0-1.6h-1.6a.8.8 0 1 0 0 1.6zm0 0M19083 6709.8h.8a.8.8 0 1 0 0-1.6h-.8a.8.8 0 0 0 0 1.6zm0 0M19087.6 6712.8a1 1 0 0 0 0-1.2.785.785 0 0 0-1.1 0 1.072 1.072 0 0 0-.2.6 1.421 1.421 0 0 0 .2.6 1.421 1.421 0 0 0 .6.2 1.689 1.689 0 0 0 .5-.2zm0 0M19087.8 6683.4a.8.8 0 1 1-1.6 0 .8.8 0 1 1 1.6 0zm0 0M19085.4 6685.8a.8.8 0 1 1-1.6 0 .8.8 0 1 1 1.6 0zm0 0M19085.4 6690.6a.8.8 0 1 1-1.6 0 .8.8 0 1 1 1.6 0zm0 0M19087.8 6688.2a.8.8 0 1 1-1.6 0 .8.8 0 1 1 1.6 0zm0 0M19090.2 6685.8a.8.8 0 1 1-1.6 0 .8.8 0 1 1 1.6 0zm0 0M19090.2 6690.6a.8.8 0 1 1-1.6 0 .8.8 0 1 1 1.6 0zm0 0M19087.8 6693a.8.8 0 1 1-.8-.8.86.86 0 0 1 .8.8zm0 0M19087.8 6697.8a.8.8 0 1 1-.8-.8.86.86 0 0 1 .8.8zm0 0"/>
</svg>
