<svg xmlns="http://www.w3.org/2000/svg" xmlns:xlink="http://www.w3.org/1999/xlink" width="83" height="70" viewBox="0 0 83 70">
    <defs>
        <path id="a" d="M461.114 1279.173c-1.918 0-3.19 1.605-3.19 3.19v19.139c0 1.918 1.272 3.19 3.19 3.19s3.19-1.606 3.19-3.19v-19.14c-.021-1.917-1.272-3.19-3.19-3.19z"/>
        <path id="b" d="M464.283 1314.261a3.19 3.19 0 1 1-6.38 0 3.19 3.19 0 0 1 6.38 0z"/>
        <path id="c" d="M495.243 1323.831h-68.259c-3.503 0-4.795-2.543-2.877-5.42l35.089-56.793c.959-1.918 2.877-1.918 4.148 0l35.09 56.772c1.604 2.877.312 5.441-3.19 5.441zm5.42-7.672l-34.462-55.813c-2.877-4.461-7.339-4.461-10.216 0l-34.422 55.813c-3.502 6.046-.959 10.841 6.047 10.841h66.674c7.339 0 9.882-4.753 6.38-10.841z"/>
    </defs>
    <g opacity=".2">
        <use fill="#848b9d" xlink:href="#a" transform="translate(-420 -1257)"/>
        <use fill="#848b9d" xlink:href="#b" transform="translate(-420 -1257)"/>
        <use fill="#848b9d" xlink:href="#c" transform="translate(-420 -1257)"/>
    </g>
</svg>
