<svg xmlns="http://www.w3.org/2000/svg" viewBox="19535 6683 48.1 48">
    <defs>
        <style>
            .a{fill:#222}
        </style>
    </defs>
    <path class="a" d="M19575.4 6684.2l-1.8.3.3-1.5h-28.7l-.4 1.3a10.413 10.413 0 0 1-1.2-.5l-.6-.2-7 11.2.8 2.5-.6-.3-1.2-.6v12.1a2.64 2.64 0 0 0 .7 1.9c1 1.2 1.9 2.3 2.5 3.1l.2.3h.3c.8.1 1.6.1 2.3.2l-2.3.9-3.5 10.1a3.553 3.553 0 0 0-.2 1v1.9a3.116 3.116 0 0 0 3.1 3.1h17a1.7 1.7 0 0 0 .7-.1c5.2-1.2 10-2.4 12-2.9l.5-.1.1-.4a2.354 2.354 0 0 0 .2-.8l.4 1.3 6 2.7a2.768 2.768 0 0 0 1.3.3h3.7a3.116 3.116 0 0 0 3.1-3.1v-5.9a2.663 2.663 0 0 0-.3-1.2l-4.1-8.6v-.1l-.1-.4-2.3-1.1 2.3-.3.2-.4c.1-.1.1-.2.2-.3l3.4-4.2a3.157 3.157 0 0 0 .7-1.9v-7.2zm-3.5.4l-.4 1.8 3-.4 6.2 9.9h-16.1v-11.3zm-12.9 0h4v11.2h-8v-11.2zm-4 12.8h.8a.8.8 0 1 0 1.6 0h3.2a.8.8 0 1 0 1.6 0h.8v12.5l-.8-.8-3.2 3.2-3.2-3.2-.8.8zm-11.4-11.8c.8.3 1.5.6 1.5.6l.9.3.5-1.9h7v11.2h-15.5l-.3-.8zm37.5 18.9l-3.4 4.2c-.1.1-.1.2-.2.3l-6.9.9 6.6 3.1v.1l4.1 8.5a1.268 1.268 0 0 1 .1.6v5.9a1.538 1.538 0 0 1-1.5 1.5h-3.7a1.268 1.268 0 0 1-.6-.1l-5.3-2.4-1.7-6.1-.8 2.6s-.5 1.5-.9 3c-2.2.5-6.7 1.6-11.5 2.8h-17.6l1.8-1.8a.778.778 0 0 0-1.1-1.1l-1.8 1.8v-2.3a.9.9 0 0 1 .1-.5l3.2-9.4 8.2-3.3-3.6-.2s-2.7-.2-5.4-.3c-.6-.8-1.4-1.8-2.3-2.8a1.613 1.613 0 0 1-.3-.9v-9.4a10.712 10.712 0 0 0 1.2.6l1.8 1-1.1-3.3h14.9v16.3l2.4-2.4 3.2 3.2 3.2-3.2 2.4 2.4v-16.4h16.8v6.1a1.689 1.689 0 0 1-.3 1zm0 0"/>
    <path class="a" d="M19559.8 6685.4a.8.8 0 1 1-1.6 0 .8.8 0 1 1 1.6 0zm0 0M19557.4 6687.8a.8.8 0 1 1-1.6 0 .8.8 0 1 1 1.6 0zm0 0M19557.4 6692.6a.8.8 0 1 1-1.6 0 .8.8 0 1 1 1.6 0zm0 0M19559.8 6690.2a.8.8 0 1 1-1.6 0 .8.8 0 1 1 1.6 0zm0 0M19562.2 6687.8a.8.8 0 1 1-1.6 0 .8.8 0 1 1 1.6 0zm0 0M19562.2 6692.6a.8.8 0 1 1-1.6 0 .8.8 0 1 1 1.6 0zm0 0M19559.8 6695a.8.8 0 1 1-.8-.8.86.86 0 0 1 .8.8zm0 0M19557.4 6702.2a.8.8 0 1 1-.8-.8.86.86 0 0 1 .8.8zm0 0M19559.8 6699.8a.8.8 0 1 1-.8-.8.86.86 0 0 1 .8.8zm0 0M19562.2 6702.2a.8.8 0 1 1-.8-.8.86.86 0 0 1 .8.8zm0 0M19559.8 6704.6a.8.8 0 1 1-.8-.8.86.86 0 0 1 .8.8zm0 0M19557.4 6707a.8.8 0 1 1-.8-.8.86.86 0 0 1 .8.8zm0 0M19559.8 6709.4a.8.8 0 1 1-.8-.8.86.86 0 0 1 .8.8zm0 0M19562.2 6707a.8.8 0 1 1-.8-.8.86.86 0 0 1 .8.8zm0 0"/>
</svg>
