<svg xmlns="http://www.w3.org/2000/svg" xmlns:xlink="http://www.w3.org/1999/xlink" width="24" height="30" viewBox="0 0 24 30">
    <defs>
        <path id="a" d="M1181.526 455.279l-1.452 1.583c3.08 2.024 4.883 5.763 4.267 9.634a9.663 9.663 0 0 1-3.87 6.334c-1.848 1.32-4.004 1.98-6.247 1.847l.396-.395h-.044l1.451-1.54-1.363-1.276-2.86 3.035-1.231 1.32 1.32 1.276 3.035 2.903 1.231-1.32-1.979-1.847c2.683.132 5.323-.66 7.522-2.244 2.551-1.847 4.223-4.618 4.707-7.742a11.779 11.779 0 0 0-4.883-11.568z"/>
        <path id="b" d="M1165.25 463.46a9.663 9.663 0 0 1 3.871-6.334c1.848-1.32 4.003-1.98 6.247-1.847l-.396.395h.044l-1.452 1.54 1.364 1.276 2.903-3.035 1.232-1.32-1.364-1.276-3.035-2.859-1.232 1.32 1.98 1.847c-2.728-.132-5.323.66-7.522 2.244-2.552 1.891-4.267 4.618-4.751 7.741a11.82 11.82 0 0 0 4.927 11.525l1.451-1.583a9.703 9.703 0 0 1-4.267-9.634z"/>
    </defs>
    <use fill="#006dd9" xlink:href="#a" transform="translate(-1163 -450)"/>
    <use fill="#006dd9" xlink:href="#b" transform="translate(-1163 -450)"/>
</svg>
