<svg xmlns="http://www.w3.org/2000/svg" xmlns:xlink="http://www.w3.org/1999/xlink" width="52" height="17" viewBox="0 0 52 17">
    <defs>
        <path id="a" d="M787.56 3746.075l2.591-15.197h4.134l-2.591 15.197z"/>
        <path id="b" d="M806.717 3731.256c-.815-.32-2.096-.64-3.698-.64-4.105 0-6.987 2.067-6.987 5.007-.03 2.184 2.067 3.406 3.64 4.134 1.6.757 2.154 1.223 2.154 1.893 0 1.019-1.281 1.484-2.475 1.484-1.66 0-2.533-.233-3.901-.786l-.583-.262-.582 3.407c.96.436 2.766.786 4.63.815 4.366 0 7.19-2.038 7.22-5.182.029-1.718-1.078-3.057-3.465-4.135-1.456-.698-2.33-1.164-2.33-1.892 0-.64.758-1.31 2.359-1.31 1.368-.03 2.33.262 3.086.582l.379.175.553-3.29"/>
        <path id="c" d="M812.248 3740.689c.35-.874 1.66-4.25 1.66-4.25-.03.028.35-.874.553-1.456l.291 1.31s.786 3.639.96 4.396zm5.095-9.782h-3.202c-.99 0-1.747.262-2.184 1.252l-6.143 13.916h4.338s.699-1.863.874-2.271h5.298c.117.524.495 2.27.495 2.27h3.843l-3.319-15.167"/>
        <path id="d" d="M784.095 3730.878l-4.076 10.364-.436-2.096c-.728-2.417-3.086-5.066-5.707-6.376l3.698 13.305h4.396l6.521-15.198h-4.396"/>
        <path id="e" d="M776.264 3730.878h-6.667l-.059.32c5.212 1.252 8.647 4.309 10.074 7.948l-1.456-6.987c-.262-.961-.99-1.252-1.892-1.281"/>
    </defs>
    <use fill="#0058a0" xlink:href="#a" transform="translate(-769 -3730)"/>
    <use fill="#0058a0" xlink:href="#b" transform="translate(-769 -3730)"/>
    <use fill="#0058a0" xlink:href="#c" transform="translate(-769 -3730)"/>
    <use fill="#0058a0" xlink:href="#d" transform="translate(-769 -3730)"/>
    <use fill="#faa61a" xlink:href="#e" transform="translate(-769 -3730)"/>
</svg>
