<svg xmlns="http://www.w3.org/2000/svg" xmlns:xlink="http://www.w3.org/1999/xlink" width="40" height="24" viewBox="0 0 40 24">
    <defs>
        <path id="a" d="M716.91 3746.882c2.116 1.917 4.92 3.118 8.009 3.118 6.58 0 11.928-5.378 11.928-11.986 0-6.636-5.349-12.014-11.928-12.014-3.09 0-5.893 1.173-8.01 3.118a12.05 12.05 0 0 0-3.919 8.896c0 3.49 1.517 6.665 3.92 8.868z"/>
        <path id="b" d="M735.617 3744.851v-.143h.029l.057.143h.086l-.057-.143c.028 0 .057-.057.057-.086 0-.028-.029-.057-.057-.086-.029-.028-.057-.028-.086-.028h-.143v.343h.086zm-.028-.143v-.057h.028v.057zm.028-.057v-.057h.086c.029 0 .029.028.029.028l-.029.029h-.086zm-.257.028a.287.287 0 0 1 .572 0 .287.287 0 0 1-.286.286c-.172 0-.315-.114-.286-.286zm.257.4c.2 0 .372-.2.372-.4 0-.228-.171-.4-.372-.4-.2 0-.371.2-.371.4s.171.4.371.4z"/>
        <path id="c" d="M720.771 3736.727c-.057-.429-.114-.858-.2-1.259h-7.294c.085-.429.2-.858.343-1.258h6.608a9.676 9.676 0 0 0-.515-1.259h-5.578c.2-.429.429-.858.686-1.259h4.205a10.118 10.118 0 0 0-.915-1.258h-2.403c.372-.458.772-.887 1.201-1.259a11.543 11.543 0 0 0-7.98-3.175c-6.58 0-11.929 5.378-11.929 11.986 0 6.636 5.35 11.985 11.928 11.985a11.77 11.77 0 0 0 8.01-3.118c.43-.4.83-.83 1.201-1.258h-2.402c-.344-.4-.63-.83-.916-1.259h4.205c.258-.4.487-.83.687-1.259h-5.578c-.2-.4-.372-.83-.515-1.258h6.608c.143-.4.257-.83.343-1.259.086-.429.143-.83.2-1.258.057-.43.057-.83.057-1.26 0-.485 0-.914-.057-1.315z"/>
        <path id="d" d="M735.617 3740.932v-.143h.029l.057.143h.086l-.057-.143c.028 0 .057-.057.057-.086 0-.028-.029-.057-.057-.086-.029-.028-.057-.028-.086-.028h-.143v.343zm-.028-.143v-.057h.028v.057zm.028-.057v-.057h.086c.029 0 .029.028.029.028l-.029.029h-.086zm-.257.057a.287.287 0 0 1 .572 0 .287.287 0 0 1-.286.286c-.172 0-.315-.143-.286-.286zm.257.4c.2 0 .372-.2.372-.4 0-.229-.171-.4-.372-.4-.2 0-.371.2-.371.4s.171.372.371.4z"/>
        <path id="e" d="M712.876 3741.447c-.4.114-.686.172-.973.172-.6 0-.972-.372-.972-1.087 0-.143 0-.286.028-.458l.086-.486.057-.4.573-3.376h1.23l-.143.772h.772l-.172 1.259h-.772l-.343 2.03c-.029.086-.029.172-.029.2 0 .258.143.373.43.373.142 0 .257-.029.4-.057l-.172 1.058z"/>
        <path id="f" d="M716.08 3738.472v-.257c0-.4-.229-.63-.6-.63-.401 0-.716.315-.83.887zm.772 2.946a4.08 4.08 0 0 1-1.316.2c-1.373 0-2.202-.772-2.202-2.202 0-1.688.972-2.946 2.26-2.946 1.058 0 1.744.686 1.744 1.802 0 .372-.057.715-.171 1.23h-2.575v.143c0 .572.372.858 1.145.858.457 0 .886-.086 1.344-.315l-.229 1.23z"/>
        <path id="g" d="M703.007 3741.504h-1.316l.744-4.663-1.66 4.663h-.857l-.115-4.634-.8 4.634h-1.23l1-6.064h1.86l.057 3.776 1.259-3.776h2.03z"/>
        <path id="h" d="M707.126 3741.504h-1.115l.028-.515c-.286.372-.658.601-1.344.601-.63 0-1.144-.544-1.144-1.344 0-.23.057-.458.085-.658.2-.773.973-1.259 2.146-1.259.143 0 .372 0 .572.029.029-.172.057-.23.057-.315 0-.315-.257-.43-.858-.43-.372 0-.772.058-1.058.144l-.172.057-.086.029.172-1.116c.6-.172 1.03-.257 1.516-.257 1.116 0 1.688.515 1.688 1.458 0 .258.028.43-.058.973l-.257 1.745-.057.315-.029.257-.028.172-.058.114zm-1.03-2.202c-.142-.03-.171-.03-.257-.03-.744 0-1.116.287-1.116.745 0 .314.172.515.458.515.658.028.887-.487.916-1.23z"/>
        <path id="i" d="M723.088 3736.613c.372 0 .687.085 1.144.314l.2-1.316c-.114-.057-.142-.057-.314-.114l-.515-.114a3.521 3.521 0 0 0-.572-.058c-.63 0-1.03 0-1.402.258-.2.114-.457.314-.772.658l-.143-.057-1.316.944.057-.544h-1.373l-.8 4.949h1.287l.486-2.66s.171-.372.257-.487c.23-.314.458-.314.715-.314h.086c-.028.286-.057.6-.057.943 0 1.631.915 2.632 2.317 2.632.372 0 .658-.057 1.144-.171l.23-1.374c-.43.2-.773.315-1.088.315-.744 0-1.201-.572-1.201-1.487 0-1.373.658-2.317 1.63-2.317z"/>
        <path id="j" d="M732.442 3740.36c-.429 0-.658-.315-.658-.973 0-.972.43-1.659 1.001-1.659.458 0 .687.344.687.973 0 .972-.43 1.659-1.03 1.659zm1.573-4.92l-.286 1.745c-.314-.458-.686-.687-1.172-.687-.687 0-1.316.4-1.688 1.116l-.83-.486.058-.544h-1.374l-.8 4.949h1.287l.429-2.66s.343-.372.429-.487c.2-.257.4-.286.572-.315a4.6 4.6 0 0 0-.229 1.46c0 1.23.63 2.059 1.573 2.059.487 0 .83-.172 1.202-.544l-.057.487h1.23l.972-6.093h-1.316z"/>
        <path id="k" d="M727.522 3741.504h-1.116l.029-.515c-.286.372-.658.601-1.344.601-.63 0-1.202-.544-1.202-1.344 0-1.173.887-1.888 2.289-1.888.143 0 .371 0 .572.028.028-.171.057-.229.057-.314 0-.315-.258-.43-.858-.43-.372 0-.773.058-1.059.143l-.171.058-.086.028.171-1.115c.601-.172 1.03-.258 1.517-.258 1.115 0 1.687.515 1.687 1.46 0 .257.029.428-.057.972l-.257 1.745-.058.314-.028.258-.029.171-.057.086zm-1.03-2.202c-.143-.03-.171-.03-.257-.03-.744 0-1.116.287-1.116.745 0 .314.172.515.458.515.63.028.887-.487.915-1.23z"/>
        <path id="l" d="M709.815 3737.642c.258 0 .601.029.973.086l.171-1.144a8.647 8.647 0 0 0-1.144-.086c-1.459 0-1.916.773-1.916 1.688 0 .6.286 1.03.972 1.344.515.258.601.286.601.515 0 .315-.257.487-.772.487a3.33 3.33 0 0 1-1.145-.2l-.143 1.144h.029l.229.057c.086.028.2.028.343.057.315.029.572.057.744.057 1.43 0 2.03-.572 2.03-1.659 0-.686-.314-1.087-.972-1.373-.543-.257-.6-.286-.6-.515-.03-.286.2-.458.6-.458z"/>
        <path id="m" d="M724.805 3735.24l-.2 1.315c-.458-.228-.802-.314-1.145-.314-.973 0-1.63.944-1.63 2.288 0 .916.457 1.488 1.201 1.488.315 0 .658-.086 1.087-.315l-.229 1.373a3.582 3.582 0 0 1-1.144.172c-1.402 0-2.26-1.001-2.26-2.632 0-2.174 1.202-3.69 2.918-3.69.229 0 .429.028.572.057l.543.143c.143.057.172.057.287.115z"/>
        <path id="n" d="M720.657 3736.155h-.143c-.43 0-.658.229-1.059.8l.115-.743h-1.173l-.801 4.949h1.287c.458-3.032.572-3.547 1.202-3.547h.085c.115-.6.286-1.03.487-1.43z"/>
        <path id="o" d="M713.19 3741.075c-.343.115-.629.172-.915.172-.658 0-1.03-.372-1.03-1.087 0-.143 0-.286.03-.458l.085-.486.057-.4.572-3.376h1.288l-.144.744h.658l-.171 1.201h-.658l-.372 2.06c-.029.085-.029.171-.029.2 0 .257.143.372.43.372.142 0 .257-.029.343-.058z"/>
        <path id="p" d="M708.242 3737.757c0 .63.315 1.058.973 1.373.514.257.6.315.6.543 0 .315-.229.458-.744.458a3.33 3.33 0 0 1-1.144-.2l-.171 1.144h.057l.229.057c.086.029.2.029.343.058.315.028.543.028.715.028 1.373 0 2.002-.515 2.002-1.659 0-.687-.257-1.087-.915-1.373-.543-.258-.6-.315-.6-.544 0-.257.228-.4.629-.4.257 0 .6.029.915.086l.172-1.144a8 8 0 0 0-1.144-.086c-1.43-.029-1.946.743-1.917 1.659z"/>
        <path id="q" d="M732.785 3739.96c.601 0 1.03-.687 1.03-1.66 0-.629-.229-.972-.686-.972-.601 0-1.001.686-1.001 1.659-.03.658.2.972.657.972zm1.888 1.172h-1.23l.058-.486c-.344.372-.716.544-1.202.544-.944 0-1.573-.83-1.573-2.06 0-1.66.972-3.032 2.117-3.032.515 0 .886.2 1.23.686l.286-1.745h1.287l-.973 6.093z"/>
        <path id="r" d="M716.423 3738.1v-.257c0-.4-.229-.63-.6-.63-.401 0-.716.315-.83.887zm.715 2.918a4.08 4.08 0 0 1-1.316.2c-1.458 0-2.202-.772-2.202-2.203 0-1.687.972-2.946 2.26-2.946 1.058 0 1.745.687 1.745 1.802 0 .372-.058.715-.172 1.23h-2.575v.143c0 .572.372.858 1.145.858a2.89 2.89 0 0 0 1.344-.314l-.229 1.23z"/>
        <path id="s" d="M703.322 3741.132h-1.287l.743-4.662-1.659 4.662h-.887l-.114-4.634-.772 4.634h-1.202l1.001-6.093h1.86l.057 3.776 1.259-3.776h2.002z"/>
        <path id="t" d="M707.441 3741.132h-1.058l.028-.515c-.314.4-.772.601-1.344.601-.715 0-1.173-.543-1.173-1.344 0-1.202.83-1.917 2.26-1.917.143 0 .343 0 .515.029.028-.172.057-.23.057-.315 0-.315-.229-.458-.83-.458a4.17 4.17 0 0 0-1.087.143l-.171.058-.115.028.172-1.115c.658-.2 1.058-.258 1.545-.258 1.115 0 1.687.515 1.687 1.459 0 .257-.028.43-.114.973l-.258 1.745-.028.343-.029.257-.028.172-.029.114zm-.944-2.202c-.143-.029-.2-.029-.286-.029-.744 0-1.116.258-1.116.744 0 .314.172.515.458.515.544 0 .944-.487.944-1.23z"/>
        <path id="u" d="M727.837 3741.132h-1.087l.028-.515c-.314.4-.772.601-1.344.601-.715 0-1.173-.543-1.173-1.344 0-1.202.83-1.917 2.26-1.917.143 0 .343 0 .515.029.028-.172.057-.23.057-.315 0-.315-.229-.458-.83-.458-.371 0-.772.058-1.087.143l-.171.058-.115.028.172-1.115c.658-.2 1.058-.258 1.545-.258 1.115 0 1.687.515 1.687 1.459 0 .257-.028.43-.114.973l-.258 1.745-.028.343-.029.257-.028.172v.114zm-.944-2.202c-.143-.029-.2-.029-.286-.029-.744 0-1.116.258-1.116.744 0 .314.172.515.458.515.543 0 .915-.487.944-1.23z"/>
        <path id="v" d="M731.298 3736.155h-.143c-.43 0-.658.229-1.058.8l.114-.743h-1.173l-.8 4.949h1.286c.458-3.032.573-3.547 1.202-3.547h.086c.114-.6.286-1.03.486-1.43v-.029z"/>
    </defs>
    <use fill="#fcb131" xlink:href="#a" transform="translate(-697 -3726)"/>
    <use fill="#fcb131" xlink:href="#b" transform="translate(-697 -3726)"/>
    <use fill="#ed1c2e" xlink:href="#c" transform="translate(-697 -3726)"/>
    <use fill="#fff" xlink:href="#d" transform="translate(-697 -3726)"/>
    <use fill="#003473" xlink:href="#e" transform="translate(-697 -3726)"/>
    <use fill="#003473" xlink:href="#f" transform="translate(-697 -3726)"/>
    <use fill="#003473" xlink:href="#g" transform="translate(-697 -3726)"/>
    <use fill="#003473" xlink:href="#h" transform="translate(-697 -3726)"/>
    <use fill="#003473" xlink:href="#i" transform="translate(-697 -3726)"/>
    <use fill="#003473" xlink:href="#j" transform="translate(-697 -3726)"/>
    <use fill="#003473" xlink:href="#k" transform="translate(-697 -3726)"/>
    <use fill="#003473" xlink:href="#l" transform="translate(-697 -3726)"/>
    <use fill="#fff" xlink:href="#m" transform="translate(-697 -3726)"/>
    <use fill="#fff" xlink:href="#n" transform="translate(-697 -3726)"/>
    <use fill="#fff" xlink:href="#o" transform="translate(-697 -3726)"/>
    <use fill="#fff" xlink:href="#p" transform="translate(-697 -3726)"/>
    <use fill="#fff" xlink:href="#q" transform="translate(-697 -3726)"/>
    <use fill="#fff" xlink:href="#r" transform="translate(-697 -3726)"/>
    <use fill="#fff" xlink:href="#s" transform="translate(-697 -3726)"/>
    <use fill="#fff" xlink:href="#t" transform="translate(-697 -3726)"/>
    <use fill="#fff" xlink:href="#u" transform="translate(-697 -3726)"/>
    <use fill="#fff" xlink:href="#v" transform="translate(-697 -3726)"/>
</svg>
