<svg xmlns="http://www.w3.org/2000/svg" xmlns:xlink="http://www.w3.org/1999/xlink" width="200" height="12" viewBox="0 0 200 12">
    <defs>
        <path id="a" d="M195.1 135.2v8.2h-.8v-6.6l-3.2 5.5h-.4l-3.2-5.5v6.5h-.9v-8.2h.7l3.6 6.1 3.5-6.1h.7z"/>
        <path id="b" d="M203.8 143.4h.8v-6.2h-.8zm-2.4-1c-.2.2-.7.4-1.3.4h-1.6v-2.7h1.6c.6 0 1 .1 1.3.3.3.2.4.5.4 1 0 .4-.1.8-.4 1zm-1.1-3h-1.8v-2.2h-.8v6.2h2.4c.8 0 1.5-.1 1.9-.5.5-.3.7-.8.7-1.5s-.2-1.2-.6-1.5c-.4-.3-1-.5-1.8-.5z"/>
        <path id="c" d="M213.7 142.4c.3-.2.6-.5.8-.8.2-.4.3-.8.3-1.3s-.1-.9-.3-1.3c-.2-.4-.5-.6-.8-.8-.3-.2-.7-.3-1.2-.3s-.8.1-1.2.3c-.3.2-.6.5-.8.8-.2.4-.3.8-.3 1.3s.1.9.3 1.3c.2.4.5.6.8.8.3.2.7.3 1.2.3s.9-.1 1.2-.3zm-2.7.6c-.5-.3-.9-.6-1.1-1.1-.3-.5-.4-1-.4-1.6 0-.6.1-1.1.4-1.6.3-.5.6-.8 1.1-1.1.5-.3 1-.4 1.6-.4.6 0 1.1.1 1.6.4.5.3.9.6 1.1 1.1.3.5.4 1 .4 1.6 0 .6-.1 1.1-.4 1.6-.3.5-.6.9-1.1 1.1-.5.3-1 .4-1.6.4-.6 0-1.2-.1-1.6-.4z"/>
        <path id="d" d="M221.8 142.4c.3-.2.6-.5.8-.8.2-.4.3-.8.3-1.2 0-.5-.1-.9-.3-1.2-.2-.3-.5-.6-.8-.8-.3-.2-.7-.3-1.2-.3s-.8.1-1.2.3c-.3.2-.6.5-.8.8-.2.3-.3.7-.3 1.2s.1.9.3 1.2c.2.4.5.6.8.8.3.2.7.3 1.2.3s.8-.1 1.2-.3zm.5-4.7c.4.3.8.6 1 1.1.2.5.4 1 .4 1.6 0 .6-.1 1.1-.4 1.6-.3.5-.6.8-1.1 1.1-.5.3-1 .4-1.6.4-1 0-1.8-.4-2.4-1.1-.6-.7-.8-1.7-.8-3s.3-2.3.8-3c.5-.7 1.3-1.2 2.4-1.4l2.8-.6.1.8-2.6.6c-.9.2-1.5.5-1.9 1-.4.5-.6 1.2-.7 2.2.3-.5.6-.8 1-1.1.4-.3 1-.4 1.5-.4.5-.1 1 0 1.5.2z"/>
        <path id="e" d="M230.1 142.4c.3-.2.4-.6.4-1 0-.9-.6-1.3-1.7-1.3h-1.6v2.7h1.6c.6-.1 1-.2 1.3-.4zm.7-2.5c.4.3.6.8.6 1.5s-.2 1.2-.6 1.5c-.4.3-1 .5-1.9.5h-2.4V138h-1.9v-.7h2.8v2.2h1.6c.8-.1 1.4 0 1.8.4z"/>
        <path id="f" d="M234.3 138.4c-.4.4-.6.9-.7 1.5h4.4c-.1-.6-.3-1.1-.7-1.5-.4-.4-.9-.6-1.5-.6-.6.1-1.1.3-1.5.6zm4.5 2.1h-5.2c0 .6.3 1.2.7 1.6.4.4 1 .6 1.7.6.4 0 .7-.1 1.1-.2.3-.1.6-.3.8-.6l.5.5c-.3.3-.6.6-1 .8-.4.2-.9.3-1.4.3-.6 0-1.2-.1-1.7-.4-.5-.3-.9-.6-1.1-1.1-.3-.5-.4-1-.4-1.6 0-.6.1-1.1.4-1.6.3-.5.6-.8 1.1-1.1.5-.3 1-.4 1.5-.4.6 0 1.1.1 1.5.4.5.3.8.6 1.1 1.1.3.5.4 1 .4 1.6z"/>
        <path id="g" d="M241.9 141.5c-.1.6-.3 1-.6 1.2h3.8V138h-3l-.1 1.4c.1.8 0 1.5-.1 2.1zm5.1 1.1v2.2h-.8v-1.5h-5.5v1.5h-.8v-2.2h.4c.4 0 .7-.3.8-.9.1-.6.2-1.4.3-2.5l.1-2.1h4.5v5.4h1z"/>
        <path id="h" d="M248.8 137.2h.8v4.9l4.1-4.9h.7v6.2h-.8v-4.9l-4.1 4.9h-.8v-6.2z"/>
        <path id="i" d="M257 137.2h.8v2.7h3.9v-2.7h.8v6.2h-.8v-2.7h-3.9v2.7h-.8z"/>
        <path id="j" d="M267.2 140.7h1.9v-2.8h-1.8c-1.2 0-1.8.5-1.8 1.4 0 .9.6 1.4 1.7 1.4zm2.7-3.5v6.2h-.8v-2H267l-1.4 2h-.9l1.5-2.2c-.5-.1-.8-.4-1.1-.7-.3-.3-.4-.7-.4-1.2 0-.7.2-1.2.7-1.6.5-.4 1.1-.5 1.9-.5h2.6z"/>
        <path id="k" d="M273.4 138.4c-.4.4-.6.9-.7 1.5h4.4c-.1-.6-.3-1.1-.7-1.5-.4-.4-.9-.6-1.5-.6-.6.1-1.1.3-1.5.6zm4.5 2.1h-5.2c0 .6.3 1.2.7 1.6.4.4 1 .6 1.7.6.4 0 .7-.1 1.1-.2.3-.1.6-.3.8-.6l.5.5c-.3.3-.6.6-1 .8-.4.2-.9.3-1.4.3-.6 0-1.2-.1-1.7-.4-.5-.3-.9-.6-1.1-1.1-.3-.5-.4-1-.4-1.6 0-.6.1-1.1.4-1.6.3-.5.6-.8 1.1-1.1.5-.3 1-.4 1.5-.4s1.1.1 1.5.4c.5.3.8.6 1.1 1.1.3.5.4 1 .4 1.6z"/>
        <path id="l" d="M286.8 137.2v6.2h-.8v-4.9l-2.5 4.1h-.4l-2.5-4.1v4.9h-.8v-6.2h.8l2.6 4.4 2.7-4.4h.9z"/>
        <path id="m" d="M289 143.2c-.1-.1-.2-.3-.2-.5s.1-.3.2-.5c.1-.1.3-.2.4-.2.2 0 .3.1.4.2.1.1.2.3.2.5s-.1.3-.2.5c-.1.1-.3.2-.4.2-.1 0-.3 0-.4-.2z"/>
        <path id="n" d="M298.8 142.7H296v-3.1h2.8c1.4 0 2.1.5 2.1 1.5s-.7 1.6-2.1 1.6zm-2.8-6.8h2.5c.7 0 1.2.1 1.5.4.3.2.5.6.5 1.1 0 .5-.2.8-.5 1.1-.4.3-.9.4-1.5.4H296zm3.9 3.2c.4-.1.8-.4 1-.7.3-.4.4-.7.4-1.2 0-.7-.2-1.2-.7-1.6-.5-.3-1.2-.5-2.1-.5h-3.4v8.2h3.6c1 0 1.7-.2 2.2-.6.5-.3.8-.9.8-1.6 0-.5-.1-1-.4-1.3-.3-.3-.7-.5-1.4-.7z"/>
        <path id="o" d="M309.9 143.4h.8v-6.2h-.8zm-2.3-1c-.3.2-.8.4-1.3.4h-1.6v-2.7h1.6c.6 0 1 .1 1.3.3.3.2.4.5.4 1 0 .4-.1.8-.4 1zm-1.2-3h-1.8v-2.2h-.8v6.2h2.4c.8 0 1.5-.1 1.9-.5.5-.3.7-.8.7-1.5s-.2-1.2-.6-1.5c-.4-.3-1-.5-1.8-.5z"/>
        <path id="p" d="M320.1 142.5c-.3.1-.7.2-1.1.2h-2v-2.1h2c.5 0 .9.1 1.1.3.3.2.4.4.4.8s-.1.6-.4.8zm-3.1-4.8h1.9c.5 0 .8.1 1.1.3.3.2.4.5.4.8 0 .4-.1.6-.4.8-.3.2-.6.3-1.1.3H317zm4.3 4c0-.8-.4-1.3-1.3-1.6.4-.1.6-.3.8-.5.2-.3.3-.6.3-.9 0-.5-.2-.9-.6-1.2-.4-.3-1-.4-1.7-.4h-2.7v6.2h2.8c.8 0 1.4-.1 1.8-.4.4-.2.6-.7.6-1.2z"/>
        <path id="q" d="M329.5 143.4h.8v-6.2h-.8zm-2.3-1c-.3.2-.8.4-1.3.4h-1.6v-2.7h1.6c.6 0 1 .1 1.3.3.3.2.4.5.4 1 0 .4-.1.8-.4 1zm-1.2-3h-1.8v-2.2h-.8v6.2h2.4c.8 0 1.5-.1 1.9-.5.5-.3.7-.8.7-1.5s-.2-1.2-.6-1.5c-.4-.3-1-.5-1.8-.5z"/>
        <path id="r" d="M336.9 142.4c.3-.2.6-.5.8-.8.2-.4.3-.8.3-1.2 0-.5-.1-.9-.3-1.2-.2-.3-.5-.6-.8-.8-.3-.2-.7-.3-1.2-.3-.4 0-.8.1-1.2.3-.3.2-.6.5-.8.8-.2.3-.3.7-.3 1.2s.1.9.3 1.2c.2.4.5.6.8.8.3.2.7.3 1.2.3s.8-.1 1.2-.3zm.5-4.7c.4.3.8.6 1 1.1.2.5.4 1 .4 1.6 0 .6-.1 1.1-.4 1.6-.3.5-.6.8-1.1 1.1-.5.3-1 .4-1.6.4-1 0-1.8-.4-2.4-1.1-.6-.7-.8-1.7-.8-3s.3-2.3.8-3c.5-.7 1.3-1.2 2.4-1.4l2.8-.6.1.8-2.6.6c-.9.2-1.5.5-1.9 1-.4.5-.6 1.2-.7 2.2.3-.5.6-.8 1-1.1.4-.3 1-.4 1.5-.4.5-.1 1 0 1.5.2z"/>
        <path id="s" d="M340.8 137.2h.8v4.9l4.1-4.9h.7v6.2h-.8v-4.9l-4.1 4.9h-.8v-6.2z"/>
        <path id="t" d="M353.3 142.4c.3-.2.6-.5.8-.8.2-.4.3-.8.3-1.3s-.1-.9-.3-1.2c-.2-.4-.5-.6-.8-.9-.4-.2-.7-.3-1.2-.3-.4 0-.8.1-1.2.3-.3.2-.6.5-.8.9-.2.4-.3.8-.3 1.2 0 .5.1.9.3 1.3.2.4.5.6.8.8.3.2.7.3 1.2.3s.9-.1 1.2-.3zm.5-4.9c.5.3.8.6 1.1 1.1.3.5.4 1 .4 1.6 0 .6-.1 1.2-.4 1.6-.3.5-.6.8-1.1 1.1-.5.3-1 .4-1.6.4-.5 0-1-.1-1.4-.3-.4-.2-.7-.5-1-.9v3.4h-.8v-8.4h.8v1.2c.2-.4.6-.7 1-.9.4-.2.9-.3 1.4-.3.6.1 1.1.2 1.6.4z"/>
        <path id="u" d="M360.4 142.4c.3-.2.6-.5.8-.9v-1h-1.9c-1.1 0-1.6.4-1.6 1.1 0 .4.1.6.4.8.3.2.7.3 1.1.3.4.1.8 0 1.2-.3zm.9-4.6c.4.4.6 1 .6 1.8v3.8h-.8v-1c-.2.3-.5.6-.8.8-.4.2-.8.3-1.3.3-.7 0-1.2-.2-1.6-.5-.4-.3-.6-.8-.6-1.3s.2-.9.6-1.3c.4-.4 1-.5 1.8-.5h2v-.4c0-.5-.1-.9-.4-1.2-.3-.3-.7-.4-1.3-.4-.4 0-.8.1-1.1.2-.4.1-.7.3-.9.5l-.5-.6c.3-.3.7-.5 1.1-.6.4-.1.9-.2 1.4-.2.8 0 1.4.2 1.8.6z"/>
        <path id="v" d="M365.4 138.4c-.4.4-.6.9-.7 1.5h4.4c-.1-.6-.3-1.1-.7-1.5-.4-.4-.9-.6-1.5-.6-.6.1-1.1.3-1.5.6zm4.5 2.1h-5.2c0 .6.3 1.2.7 1.6.4.4 1 .6 1.7.6.4 0 .7-.1 1.1-.2.3-.1.6-.3.8-.6l.5.5c-.3.3-.6.6-1 .8-.4.2-.9.3-1.4.3-.6 0-1.2-.1-1.7-.4-.5-.3-.9-.6-1.1-1.1-.3-.5-.4-1-.4-1.6 0-.6.1-1.1.4-1.6.3-.5.6-.8 1.1-1.1.5-.3 1-.4 1.5-.4.6 0 1.1.1 1.5.4.5.3.8.6 1.1 1.1.3.5.4 1 .4 1.6z"/>
        <path id="w" d="M376.3 137.9H374v5.4h-.8v-5.4h-2.3v-.7h5.5v.7z"/>
        <path id="x" d="M378.6 138.4c-.4.4-.6.9-.7 1.5h4.4c-.1-.6-.3-1.1-.7-1.5-.4-.4-.9-.6-1.5-.6-.6.1-1.1.3-1.5.6zm4.5 2.1h-5.2c0 .6.3 1.2.7 1.6.4.4 1 .6 1.7.6.4 0 .7-.1 1.1-.2.3-.1.6-.3.8-.6l.5.5c-.3.3-.6.6-1 .8-.4.2-.9.3-1.4.3-.6 0-1.2-.1-1.7-.4-.5-.3-.9-.6-1.1-1.1-.3-.5-.4-1-.4-1.6 0-.6.1-1.1.4-1.6.3-.5.6-.8 1.1-1.1.5-.3 1-.4 1.5-.4.6 0 1.1.1 1.5.4.5.3.8.6 1.1 1.1.3.5.4 1 .4 1.6z"/>
        <path id="y" d="M384.7 143.2c-.1-.1-.2-.3-.2-.5s.1-.3.2-.5c.1-.1.3-.2.4-.2.2 0 .3.1.4.2.1.1.2.3.2.5s-.1.3-.2.5c-.1.1-.3.2-.4.2-.1 0-.3 0-.4-.2z"/>
    </defs>
    <use fill="#231f20" xlink:href="#a" transform="translate(-186 -134)"/>
    <use fill="#231f20" xlink:href="#b" transform="translate(-186 -134)"/>
    <use fill="#231f20" xlink:href="#c" transform="translate(-186 -134)"/>
    <use fill="#231f20" xlink:href="#d" transform="translate(-186 -134)"/>
    <use fill="#231f20" xlink:href="#e" transform="translate(-186 -134)"/>
    <use fill="#231f20" xlink:href="#f" transform="translate(-186 -134)"/>
    <use fill="#231f20" xlink:href="#g" transform="translate(-186 -134)"/>
    <use fill="#231f20" xlink:href="#h" transform="translate(-186 -134)"/>
    <use fill="#231f20" xlink:href="#i" transform="translate(-186 -134)"/>
    <use fill="#231f20" xlink:href="#j" transform="translate(-186 -134)"/>
    <use fill="#231f20" xlink:href="#k" transform="translate(-186 -134)"/>
    <use fill="#231f20" xlink:href="#l" transform="translate(-186 -134)"/>
    <use fill="#231f20" xlink:href="#m" transform="translate(-186 -134)"/>
    <use fill="#231f20" xlink:href="#n" transform="translate(-186 -134)"/>
    <use fill="#231f20" xlink:href="#o" transform="translate(-186 -134)"/>
    <use fill="#231f20" xlink:href="#p" transform="translate(-186 -134)"/>
    <use fill="#231f20" xlink:href="#q" transform="translate(-186 -134)"/>
    <use fill="#231f20" xlink:href="#r" transform="translate(-186 -134)"/>
    <use fill="#231f20" xlink:href="#s" transform="translate(-186 -134)"/>
    <use fill="#231f20" xlink:href="#t" transform="translate(-186 -134)"/>
    <use fill="#231f20" xlink:href="#u" transform="translate(-186 -134)"/>
    <use fill="#231f20" xlink:href="#v" transform="translate(-186 -134)"/>
    <use fill="#231f20" xlink:href="#w" transform="translate(-186 -134)"/>
    <use fill="#231f20" xlink:href="#x" transform="translate(-186 -134)"/>
    <use fill="#231f20" xlink:href="#y" transform="translate(-186 -134)"/>
</svg>
