<svg xmlns="http://www.w3.org/2000/svg" xmlns:xlink="http://www.w3.org/1999/xlink" width="75" height="75" viewBox="0 0 75 75">
    <defs>
        <path id="a" d="M962.484 1634.062l-7.551-7.551 5.51-5.51 7.551 7.55z"/>
        <path id="b" d="M945.046 1623.374l-8.262 8.261c-.22.22-.38.47-.498.747l-4.775 11.03a2.382 2.382 0 0 0 .498 2.637l10.927 10.928a2.398 2.398 0 0 0 2.637.513l11.03-4.776c.278-.117.528-.293.747-.498l8.262-8.261z"/>
        <path id="c" d="M905.27 1676.186l7.55 7.551-10.191 10.192-7.551-7.55z"/>
        <path id="d" d="M925.3 1670.22a2.387 2.387 0 0 1-1.685.702c-.6 0-1.23-.234-1.684-.703l-3.15-3.135a2.387 2.387 0 0 1 0-3.383 2.387 2.387 0 0 1 3.384 0l3.135 3.134a2.387 2.387 0 0 1 0 3.384zm9.697-1.554a4.742 4.742 0 0 0-1.392-3.369l-9.902-9.902a4.742 4.742 0 0 0-3.37-1.392 4.742 4.742 0 0 0-3.368 1.392l-5.962 5.962-6.094-.132a2.364 2.364 0 0 0-1.743.703l-9.463 9.463a2.387 2.387 0 0 0 0 3.384l3.106 3.105 6.767-6.767a2.373 2.373 0 0 1 3.37 0l10.942 10.942a2.387 2.387 0 0 1 0 3.384l-6.768 6.753 3.105 3.105a2.387 2.387 0 0 0 1.685.703c.6 0 1.23-.234 1.685-.703l9.448-9.448a2.398 2.398 0 0 0 .703-1.743l-.132-6.094 5.962-5.962a4.709 4.709 0 0 0 1.42-3.384z"/>
    </defs>
    <use fill="#848b9d" xlink:href="#a" transform="translate(-893 -1621)"/>
    <use fill="#848b9d" xlink:href="#b" transform="translate(-893 -1621)"/>
    <use fill="#848b9d" xlink:href="#c" transform="translate(-893 -1621)"/>
    <use fill="#848b9d" xlink:href="#d" transform="translate(-893 -1621)"/>
</svg>
