<svg xmlns="http://www.w3.org/2000/svg" xmlns:xlink="http://www.w3.org/1999/xlink" width="84" height="60" viewBox="0 0 84 60">
    <defs>
        <path id="a" d="M945.003 1877.524H910.24v-7.985c.964 1.369 2.88 2.322 5.05 2.322.93 0 1.817-.175 2.606-.482a4.088 4.088 0 0 1 3.012 0 7.211 7.211 0 0 0 2.607.482c.93 0 1.818-.175 2.606-.482a4.088 4.088 0 0 1 3.013 0 7.211 7.211 0 0 0 2.606.482c.931 0 1.819-.175 2.607-.482a4.088 4.088 0 0 1 3.012 0 7.211 7.211 0 0 0 2.607.482c2.169 0 4.085-.953 5.05-2.322v7.985zm-4.49 14.173l-4.097 2.114-4.983 4.983-2.016-2.026 4.984-4.984 2.114-4.096 4.151-2.147 1.993 1.993zm1.577 21.128l-3.812-3.8a1.734 1.734 0 0 0-.679-.428 1.716 1.716 0 0 0-.657-.132 1.89 1.89 0 0 0-1.347.56c-.548.536-.68 1.335-.438 2.014.098.241.23.482.438.68l3.8 3.8a5.617 5.617 0 0 1-2.453.58c-3.034 0-5.487-2.365-5.696-5.344l-.032-.395c0-.7.153-1.358.372-1.971l-11.763-11.753c-.614.22-1.282.373-1.972.373l-.394-.033c-2.969-.208-5.334-2.65-5.334-5.696 0-.876.219-1.708.58-2.453l3.8 3.8c.198.209.439.33.69.428.209.087.428.131.658.131.482 0 .964-.186 1.347-.558.548-.537.68-1.337.427-2.016a1.735 1.735 0 0 0-.427-.679l-3.8-3.811a5.777 5.777 0 0 1 2.464-.57c3.034 0 5.476 2.355 5.685 5.334l.032.383a5.69 5.69 0 0 1-.372 1.983l11.752 11.752a5.69 5.69 0 0 1 1.983-.372l.383.033c2.98.208 5.334 2.65 5.334 5.684 0 .899-.219 1.73-.57 2.476zm-25.104 2.453a2.858 2.858 0 0 1-2.037.833 2.826 2.826 0 0 1-2.016-.833 2.856 2.856 0 0 1 0-4.041l9.398-9.409 4.041 4.042zm49.54-37.754h-17.142v-9.88a4.646 4.646 0 0 0-4.644-4.644h-34.238a4.646 4.646 0 0 0-4.644 4.644v9.88h-17.142a2.716 2.716 0 0 0-2.716 2.716v16.878a2.714 2.714 0 0 0 2.727 2.717h12.19v1.423h-12.2c-.187 0-.362-.01-.548-.032v19.058c0 1.5 1.215 2.716 2.716 2.716h73.45c1.5 0 2.716-1.216 2.716-2.716v-19.047a4.457 4.457 0 0 1-.547.032h-12.267v-1.423h12.267a2.725 2.725 0 0 0 2.727-2.716v-16.89a2.7 2.7 0 0 0-2.705-2.716z"/>
    </defs>
    <use fill="#848b9d" xlink:href="#a" transform="translate(-886 -1863)"/>
</svg>
