<svg xmlns="http://www.w3.org/2000/svg" xmlns:xlink="http://www.w3.org/1999/xlink" width="49" height="80" viewBox="0 0 49 80">
    <defs>
        <path id="a" d="M504.378 1919.837h23.001a2.605 2.605 0 0 1 2.582 2.581 2.605 2.605 0 0 1-2.582 2.582h-23.001a2.605 2.605 0 0 1-2.582-2.582 2.605 2.605 0 0 1 2.582-2.581z"/>
        <path id="b" d="M504.378 1917.724v-42.247h23.236v42.247z"/>
        <path id="c" d="M504.378 1868.436h23.001a2.605 2.605 0 0 1 2.582 2.582 2.605 2.605 0 0 1-2.582 2.581h-23.001a2.605 2.605 0 0 1-2.582-2.581 2.605 2.605 0 0 1 2.582-2.582z"/>
        <path id="d" d="M515.878 1862.334c3.756 0 7.276 1.643 9.858 3.99h-19.715c2.581-2.582 6.102-3.99 9.857-3.99z"/>
        <path id="e" d="M513.062 1861.394v-8.919h6.102v8.92z"/>
        <path id="f" d="M500.239 1856.15c0-.5.5-1 1-1h.53c.5 0 1 .5 1 1v.53c0 .5-.5 1-1 1h-.53c-.5 0-1-.5-1-1z"/>
        <path id="g" d="M494.288 1856.15c0-.5.5-1 1-1h.53c.5 0 1 .5 1 1v.53c0 .5-.5 1-1 1h-.53c-.5 0-1-.5-1-1z"/>
        <path id="h" d="M487.565 1856.15c0-.5.5-1 1-1h.53c.5 0 1 .5 1 1v.53c0 .5-.5 1-1 1h-.53c-.5 0-1-.5-1-1z"/>
        <path id="i" d="M500.519 1859.646c-.15-.477.18-1.103.657-1.252l.506-.158c.477-.148 1.103.18 1.252.658l.157.506c.15.477-.18 1.103-.657 1.252l-.506.157c-.477.15-1.103-.18-1.252-.657z"/>
        <path id="j" d="M495.047 1861.961c-.148-.477.18-1.103.658-1.252l.505-.158c.478-.148 1.104.18 1.253.658l.157.506c.15.477-.18 1.103-.657 1.252l-.506.157c-.477.15-1.103-.18-1.252-.657z"/>
        <path id="k" d="M489.144 1864.255c-.15-.477.18-1.104.657-1.252l.506-.158c.477-.149 1.103.18 1.252.658l.157.505c.15.478-.18 1.104-.657 1.253l-.506.157c-.477.149-1.103-.18-1.252-.657z"/>
        <path id="l" d="M502.581 1851.906c.477.148.806.774.657 1.252l-.157.506c-.149.477-.775.806-1.252.657l-.506-.158c-.478-.148-.806-.774-.658-1.252l.158-.506c.149-.477.775-.806 1.252-.657z"/>
        <path id="m" d="M497.114 1849.528c.477.148.806.775.657 1.252l-.158.506c-.148.477-.774.806-1.252.657l-.506-.157c-.477-.15-.806-.775-.657-1.253l.158-.505c.148-.478.774-.807 1.252-.658z"/>
        <path id="n" d="M491.123 1847.264c.477.149.806.775.657 1.252l-.157.506c-.15.478-.775.806-1.253.658l-.505-.158c-.478-.149-.807-.775-.658-1.252l.158-.506c.148-.477.775-.806 1.252-.657z"/>
        <path id="o" d="M481.59 1855.91c0-.38.38-.76.759-.76.38 0 .759.38.759.76v1.012c0 .379-.38.759-.76.759-.379 0-.758-.38-.758-.76z"/>
        <path id="p" d="M485.076 1845.228c.362.114.61.59.496.952l-.304.965c-.113.362-.59.61-.951.496-.362-.114-.61-.59-.497-.951l.304-.966c.114-.362.59-.61.952-.496z"/>
        <path id="q" d="M483.587 1865.94c-.11-.363.142-.836.506-.947.363-.11.836.142.947.505l.294.968c.11.364-.142.837-.505.948-.363.11-.836-.142-.947-.506z"/>
        <path id="r" d="M505.492 1857.466v-1.674h1.18v1.674z"/>
        <path id="s" d="M506.32 1853.973l-.768 1.29 1.075.373.768-1.29z"/>
        <path id="t" d="M506.573 1857.732l-1.075.373.768 1.29 1.074-.373z"/>
    </defs>
    <use fill="#848b9d" xlink:href="#a" transform="translate(-481 -1845)"/>
    <use fill="#848b9d" xlink:href="#b" transform="translate(-481 -1845)"/>
    <use fill="#848b9d" xlink:href="#c" transform="translate(-481 -1845)"/>
    <use fill="#848b9d" xlink:href="#d" transform="translate(-481 -1845)"/>
    <use fill="#848b9d" xlink:href="#e" transform="translate(-481 -1845)"/>
    <use fill="#848b9d" xlink:href="#f" transform="translate(-481 -1845)"/>
    <use fill="#848b9d" xlink:href="#g" transform="translate(-481 -1845)"/>
    <use fill="#848b9d" xlink:href="#h" transform="translate(-481 -1845)"/>
    <use fill="#848b9d" xlink:href="#i" transform="translate(-481 -1845)"/>
    <use fill="#848b9d" xlink:href="#j" transform="translate(-481 -1845)"/>
    <use fill="#848b9d" xlink:href="#k" transform="translate(-481 -1845)"/>
    <use fill="#848b9d" xlink:href="#l" transform="translate(-481 -1845)"/>
    <use fill="#848b9d" xlink:href="#m" transform="translate(-481 -1845)"/>
    <use fill="#848b9d" xlink:href="#n" transform="translate(-481 -1845)"/>
    <use fill="#848b9d" xlink:href="#o" transform="translate(-481 -1845)"/>
    <use fill="#848b9d" xlink:href="#p" transform="translate(-481 -1845)"/>
    <use fill="#848b9d" xlink:href="#q" transform="translate(-481 -1845)"/>
    <use fill="#848b9d" xlink:href="#r" transform="translate(-481 -1845)"/>
    <use fill="#848b9d" xlink:href="#s" transform="translate(-481 -1845)"/>
    <use fill="#848b9d" xlink:href="#t" transform="translate(-481 -1845)"/>
</svg>
