<svg xmlns="http://www.w3.org/2000/svg" xmlns:xlink="http://www.w3.org/1999/xlink" width="58" height="72" viewBox="0 0 58 72">
    <defs>
        <path id="a" d="M499.826 1647.712c-.464-.929-1.393-.929-1.765 0-2.322 6.41-6.317 11.056-9.29 15.05-7.525 10.127-3.623 21.275 10.22 21.275 13.749 0 17.744-11.148 10.219-21.274-3.066-3.995-6.968-8.64-9.384-15.05zm14.865-10.684l17.744 16.166c1.301 1.207 0 2.88-1.3 2.415l-14.214-4.924c-2.044-.65-2.416-1.58-2.695-2.787l-2.044-9.476c-.464-1.58 1.115-2.787 2.509-1.394zm-6.41-7.246l-.744-5.481c-.093-.744-.557-1.301-1.3-1.301h-9.476a1.27 1.27 0 0 0-1.301 1.3c-.186 1.208-.279 2.416-.372 3.717h6.875l.093 1.765h-8.361c-1.951 0-3.53 1.393-3.53 3.344v21.182c1.672-2.508 3.158-5.016 4.18-7.99l.093-.092.093.093c1.765-3.995 7.06-3.995 8.826 0l.093.093v.093c2.043 5.388 5.388 9.476 8.825 14.028 9.755 12.913 3.252 27.406-13.285 27.406-3.344 0-6.224-.65-8.733-1.672v5.388a3.33 3.33 0 0 0 3.345 3.345h45.801c1.858 0 3.438-1.486 3.345-3.345l-2.23-34.28c-.279-3.81-1.765-6.783-4.46-9.198l-19.23-17.187c-1.022-.744-2.23-1.115-3.716-1.208h-4.831z"/>
    </defs>
    <use fill="#848b9d" xlink:href="#a" transform="translate(-485 -1623)"/>
</svg>
