<svg xmlns="http://www.w3.org/2000/svg" xmlns:xlink="http://www.w3.org/1999/xlink" width="49" height="82" viewBox="0 0 49 82">
    <defs>
        <path id="a" d="M1341.698 1689.19v1.832h-3.206v-1.832zm12.598 0v1.832h-3.207v-1.832zm-18.63-34.281zm0 0v-28.02h13.515v-2.597h-13.056c1.069-1.298 3.665-1.756 5.344-1.985 1.07-.152 1.833-.305 2.596-1.069.611-.687.84-1.527.916-2.366v-2.673c0-.076.077-.305.23-.305h2.06c.154 0 .23.153.23.305v2.596c0 .916.305 1.756.916 2.367.84.84 1.527.916 2.596 1.069 1.68.305 4.276.687 5.345 1.985h-4.963v2.596h5.42v28.097zm5.116-20.538v6.108h10.918v-6.108zm7.482 6.871v12.063h1.68v-12.063zm-5.726 0v12.063h1.604v-12.063zm18.324 28.326h9.926v-4.2h-4.123v-3.13h-4.2v-7.33h-1.832v-29.394c0-5.115-4.886-6.337-9.01-7.024h-.305v-2.29c0-2.291-1.756-4.2-4.046-4.2h-2.062c-2.29 0-4.046 1.985-4.046 4.2v2.29h-.306c-4.122.61-9.009 1.909-9.009 7.024v29.318h-1.527v7.33h-4.2v3.13H1322v4.2h9.926l1.603 13.285h2.367v8.627a2.574 2.574 0 0 0 2.596 2.596h3.206a2.574 2.574 0 0 0 2.596-2.596v-8.627h4.2v8.627a2.574 2.574 0 0 0 2.595 2.596h3.207a2.574 2.574 0 0 0 2.596-2.596v-8.627h2.367l1.603-13.285z"/>
    </defs>
    <use fill="#848b9d" xlink:href="#a" transform="translate(-1322 -1612)"/>
</svg>
