<svg xmlns="http://www.w3.org/2000/svg" xmlns:xlink="http://www.w3.org/1999/xlink" width="91" height="70" viewBox="0 0 91 70">
    <defs>
        <path id="a" d="M1351.423 1449.145c-6.234-.55-11.276 0-16.318 2.659-7.334 3.759-6.784 7.884-10.91.917l-21.451-36.028c-1.559-2.659-3.026-3.85.091-6.051 9.718-6.784 21.819-11.46 34.837-13.018 16.318-2.108 33.644 1.192 47.487 8.893 7.701 4.308 7.334 3.667 3.576 10.267l-20.627 36.853c-2.659 4.768-6.784-2.75-12.376-3.3l-4.31 7.976c-.732 1.283-.274 1.1 0 2.383.46 2.292-.732 4.767-3.024 5.776-5.684 2.567-9.81-4.859-5.96-8.618 1.01-1.008 2.384-1.375 4.401-1.558.734-1.742 4.309-5.775 4.584-7.15zm-44.737-35.294c.366 1.008 2.016 3.575 2.658 4.675l19.069 31.903c1.375-.55 4.308-3.575 11.184-5.226 3.667-.916 7.609-1.283 11.55-.825 1.101.092 2.476.459 3.485.459 1.191-1.926 2.75-3.85 4.033-5.868l12.651-18.06-13.292 24.753c.55.641 2.566 1.192 3.392 1.65 1.283.642 2.291 1.283 3.391 1.925l18.152-32.178c.825-1.558 1.834-3.117 2.567-4.767-1.192-1.192-6.234-3.483-8.25-4.4-20.078-8.984-42.538-8.068-62.523 1.283-1.925.917-6.784 3.484-8.067 4.676zm41.987 47.487c-.275-3.3-5.41-3.025-5.134.458.183 3.3 5.409 3.117 5.134-.458z"/>
        <path id="b" d="M1375.442 1410.459c-.458-1.1-.825-2.292-1.467-3.117-.642.55-2.933 4.125-3.575 5.134-1.009 1.283-10.543 14.85-10.726 15.951-.734.458-4.309 5.959-4.95 6.967l-4.768 7.06 4.95.183c2.11-2.659 4.401-6.601 6.51-9.443.458-.642.641-1.008 1.1-1.558.275-.367.275-.459.55-.825.458-.826.091-.642.642-.642l1.833-3.025c.642-.826 1.283-1.834 1.925-2.75l7.518-10.91c.916-1.375 1.191-1.375.458-3.025z"/>
    </defs>
    <use fill="#848b9d" xlink:href="#a" transform="translate(-1301 -1397)"/>
    <use fill="#848b9d" xlink:href="#b" transform="translate(-1301 -1397)"/>
</svg>
