<svg xmlns="http://www.w3.org/2000/svg" xmlns:xlink="http://www.w3.org/1999/xlink" width="76" height="76" viewBox="0 0 76 76">
    <defs>
        <path id="a" d="M513.878 1453.894c-11.486 0-20.772-9.286-20.772-20.772 0-11.485 9.286-20.771 20.772-20.771 11.485 0 20.771 9.286 20.771 20.771 0 11.486-9.286 20.772-20.771 20.772zm0-42.032c-11.73 0-21.505 9.53-21.505 21.505 0 11.73 9.53 21.504 21.505 21.504 11.73 0 21.505-9.53 21.505-21.504 0-11.975-9.775-21.505-21.505-21.505z"/>
        <path id="b" d="M513.878 1455.116a21.902 21.902 0 0 1-21.994-21.994 21.902 21.902 0 0 1 21.994-21.993 21.902 21.902 0 0 1 21.993 21.993 21.902 21.902 0 0 1-21.993 21.994zm37.878-19.55v-3.177h-1.222c0-.733 0-1.71-.245-2.444h1.222c0-.733-.244-1.71-.244-2.443l-1.222.244c-.244-.733-.244-1.71-.489-2.444l1.222-.244c-.244-.733-.489-1.71-.733-2.444l-1.222.245-.733-2.2 1.222-.488c-.244-.734-.489-1.467-.978-2.444l-1.221.489c-.245-.734-.734-1.467-.978-2.2l.978-.489c-.49-.733-.734-1.466-1.222-2.199l-.978.733c-.489-.733-.977-1.466-1.222-1.955l.978-.733c-.489-.733-.978-1.466-1.466-1.955l-.978.489a5.71 5.71 0 0 0-1.71-1.71l.977-.978c-.489-.733-1.222-1.222-1.71-1.71l-.978.977-1.71-1.711.732-.977c-.733-.49-1.222-.978-1.955-1.467l-.733.978c-.733-.489-1.466-.978-1.955-1.222l.733-.978c-.977-.733-1.71-.977-2.443-1.466l-.49.978c-.732-.49-1.465-.733-2.198-.978l.488-1.222c-.733-.244-1.466-.733-2.443-.977l-.49 1.222a707.94 707.94 0 0 0-2.199-.733l.245-1.222c-.733-.245-1.71-.49-2.444-.733l-.244 1.221c-.733-.244-1.71-.244-2.444-.488l.244-1.222c-.733-.245-1.71-.245-2.443-.245v1.222c-.733 0-1.711 0-2.444-.244V1395h-2.443v1.222c-.734 0-1.711 0-2.445.244l-.244-1.222c-.733 0-1.71.245-2.444.49l.245 1.221c-.733.244-1.71.244-2.444.489l-.244-1.222c-.733.244-1.711.489-2.444.733l.489 1.222-2.2.733-.733-.977c-.733.244-1.466.733-2.2.977l.49 1.222c-.734.244-1.467.733-2.2.977l-.489-.977c-.733.489-1.466.733-2.199 1.222l.733 1.222c-.733.244-1.466.733-1.955 1.222l-.733-.978c-.733.489-1.466 1.222-1.955 1.71l.733.978c-.733.489-1.222.978-1.955 1.466l-.733-.733c-.733.489-1.222 1.222-1.71 1.71l.977.734c-.489.733-1.222 1.466-1.71 1.955l-.978-.733-1.466 2.2.977.732c-.244.49-.733 1.222-1.222 1.955l-.977-.733c-.489.733-.978 1.466-1.222 2.444l1.222.489c-.489.733-.733 1.466-1.222 2.199l-.978-.489c-.244.733-.733 1.467-.977 2.444l1.222.489a30.378 30.378 0 0 0-.733 2.443l-1.222-.244c-.244.733-.489 1.71-.489 2.444l1.222.244c-.244.733-.244 1.71-.489 2.444l-1.222-.244c0 .733-.244 1.71-.244 2.443h1.222v2.444H476v2.444h1.222c0 .733.244 1.71.244 2.443l-1.222.245c0 .733.245 1.71.49 2.444l1.221-.245c.244.733.489 1.466.489 2.444l-1.222.244c.244.733.489 1.71.733 2.444l1.222-.489c.244.733.489 1.467.977 2.2l-1.222.488c.245.734.734 1.467.978 2.2l1.222-.489c.489.733.733 1.466 1.222 2.2l-.978.732 1.466 2.2.978-.733c.489.733.977 1.222 1.466 1.955l-.977.733c.488.733.977 1.222 1.71 1.955l.978-.733 1.71 1.71-.977.978c.489.244 1.222.733 1.955 1.222l.733-.978c.733.489 1.222.978 1.955 1.466l-.733.978 2.2 1.466.732-.977c.733.488 1.467.977 2.2 1.222l-.489.977c.733.489 1.466.733 2.2 1.222l.488-1.222c.733.244 1.466.733 2.2.977l-.734 1.222c.733.245 1.467.49 2.444.733l.244-1.221c.734.244 1.467.488 2.444.488l-.244 1.467c.733.244 1.71.244 2.443.488l.245-1.222c.733.245 1.71.245 2.444.245v1.222c.733 0 1.71.244 2.443.244v-1.222h2.444V1471c.733 0 1.71 0 2.444-.244l-.245-1.222c.734 0 1.711-.245 2.444-.489l.245 1.222c.733-.244 1.71-.244 2.443-.489l-.244-.977c.733-.245 1.71-.489 2.444-.733l.488 1.221c.733-.244 1.711-.488 2.444-.733l-.489-1.222c.733-.244 1.467-.733 2.2-.977l.488 1.222c.734-.245 1.467-.733 2.2-1.222l-.489-.977c.733-.49 1.466-.734 2.2-1.222l.733.977c.733-.489 1.466-.977 1.954-1.466l-.733-.978c.733-.488 1.222-.977 1.955-1.466l.733.978c.734-.49 1.222-1.222 1.955-1.711l-.977-.977 1.71-1.711.978.733c.489-.733 1.222-1.222 1.71-1.955l-.977-.733c.489-.733.978-1.222 1.466-1.955l.978.733 1.466-2.2-.977-.732c.488-.734.733-1.467 1.222-2.2l1.221.489c.49-.733.734-1.466.978-2.2l-1.222-.488.733-2.2 1.222.49c.244-.734.489-1.711.733-2.444l-1.466-.49c.244-.732.489-1.465.489-2.443l1.222.244c.244-.733.244-1.71.488-2.443l-1.222-.245c0-.733.245-1.71.245-2.443z"/>
    </defs>
    <use fill="#848b9d" xlink:href="#a" transform="translate(-476 -1395)"/>
    <use fill="#848b9d" xlink:href="#b" transform="translate(-476 -1395)"/>
</svg>
