<svg xmlns="http://www.w3.org/2000/svg" xmlns:xlink="http://www.w3.org/1999/xlink" width="76" height="76" viewBox="0 0 76 76">
    <defs>
        <path id="a" d="M932.758 1456.382c4.88.51 10.052-.801 14.058-3.788 1.093-.801 1.967-1.966 2.404-3.132.218-.583 0-1.165-.583-1.53-2.768-2.04-5.973-3.642-9.105-5.535-.801-.51-1.53-1.093-2.331-1.239-.656-.145-1.311.073-1.821.51-.583.51-.947 1.457-1.457 2.258-1.82 3.132-3.788 6.192-5.172 9.324-.29.583-.145 1.238.292 1.602 1.02.874 2.33 1.384 3.715 1.53zm-21.343-22.217c-.437 1.239-.583 2.768-.291 4.007.947 4.88 3.86 9.323 7.867 12.164 1.092.801 2.476 1.239 3.715 1.311.582.073 1.092-.364 1.31-1.02 1.093-3.277 1.676-6.847 2.405-10.416.218-.947.582-1.82.437-2.622a2.16 2.16 0 0 0-1.02-1.603c-.656-.437-1.676-.437-2.55-.655-3.569-.729-7.065-1.675-10.489-2.04-.583.073-1.165.365-1.384.874zm10.052-21.342c-4.297 2.477-7.648 6.629-9.178 11.29-.437 1.311-.437 2.768-.145 4.007.145.582.728.947 1.384.947 3.423 0 6.992-.583 10.634-.875.947-.072 1.894 0 2.623-.364.582-.291 1.02-.801 1.165-1.457.219-.8-.073-1.748-.146-2.695-.437-3.569-.582-7.211-1.31-10.562-.146-.655-.583-1.165-1.166-1.165-1.311-.146-2.695.218-3.86.874zm13.403-3.57c-1.384 0-2.768.438-3.788 1.093-.51.292-.655.947-.437 1.603 1.093 3.278 2.695 6.483 4.152 9.833.364.875.583 1.821 1.166 2.404.437.437 1.092.729 1.748.656.801-.073 1.602-.583 2.476-1.02 3.278-1.53 6.702-2.84 9.616-4.516.582-.364.874-.947.728-1.457a7.719 7.719 0 0 0-2.112-3.424c-3.643-3.277-8.669-5.171-13.549-5.171zm21.634 16.754c-.437-1.31-1.238-2.476-2.258-3.278-.437-.364-1.093-.291-1.675.073-2.768 2.04-5.318 4.59-8.086 6.993-.728.656-1.53 1.165-1.894 1.894-.291.583-.364 1.238-.073 1.894.292.728 1.093 1.384 1.676 2.04 2.476 2.694 4.734 5.462 7.284 7.793.51.437 1.165.583 1.675.219 1.093-.729 2.04-1.748 2.55-3.06 2.04-4.589 2.33-9.906.8-14.568zm-23.164 4.225c-1.53.437-2.476 1.967-2.04 3.496.438 1.53 1.968 2.477 3.497 2.04 1.53-.437 2.477-1.967 2.04-3.496-.437-1.603-1.967-2.477-3.497-2.04zm-1.456-5.39c-.656.145-1.093.728-1.166 1.384-.073 1.238 1.311 2.04 2.331 1.384a1.458 1.458 0 0 0 .437-2.113 1.3 1.3 0 0 0-1.602-.655zm6.628 2.986c-.655.146-1.092.729-1.165 1.384-.073.874.655 1.53 1.457 1.603.874.073 1.602-.656 1.602-1.457.073-1.02-.874-1.748-1.894-1.53zm.292 7.503c-.656.146-1.093.728-1.166 1.384-.073.874.656 1.53 1.457 1.602.364 0 .655-.072.874-.218a1.458 1.458 0 0 0 .437-2.113c-.291-.582-.947-.8-1.602-.655zm-7.722 2.04c-.655.145-1.092.728-1.165 1.383 0 .365.073.656.218.875a1.458 1.458 0 0 0 2.113.437 1.458 1.458 0 0 0 .437-2.113c-.219-.437-.947-.728-1.603-.583zm-3.496-6.63c-.656.147-1.093.73-1.165 1.385 0 .291.072.655.218.874a1.458 1.458 0 0 0 2.112.437 1.458 1.458 0 0 0 .437-2.112c-.218-.437-.946-.729-1.602-.583zm-.801-24.765c14.86-3.934 30.156 4.88 34.162 19.74 3.934 14.86-4.88 30.156-19.74 34.162-14.86 4.007-30.156-4.807-34.162-19.74-3.934-14.786 4.88-30.156 19.74-34.162zm-2.623-9.688c-20.177 5.39-32.268 26.296-26.878 46.546 5.39 20.25 26.223 32.268 46.473 26.878 20.25-5.463 32.268-26.296 26.878-46.546-5.39-20.25-26.223-32.268-46.473-26.878z"/>
    </defs>
    <use fill="#848b9d" xlink:href="#a" transform="translate(-896 -1395)"/>
</svg>
