<svg xmlns="http://www.w3.org/2000/svg" xmlns:xlink="http://www.w3.org/1999/xlink"><defs>
        <path id="a" d="M1552.04 2183.806l1.46-1.459-10.888-11h-.112l-11 11 1.46 1.46 9.54-9.542z"/>
    </defs><symbol id="arr-up" viewBox="0 0 25 15">
    
    <g opacity=".75" transform="translate(-1530 -2170)">
        <use xlink:href="#a"/>
        <use fill-opacity="0" stroke-miterlimit="50" stroke-width="2" xlink:href="#a"/>
    </g>
</symbol><symbol id="arrow-left" viewBox="0 0 14 13">
    <g transform="translate(-1189 -766)">
        <path id="a" d="M1202.783 771.75h-9.987l4.586-4.586-1.121-1.12-6.522 6.521 6.522 6.522 1.12-1.121-4.585-4.586h9.987z"/>
        <use xlink:href="#a"/>
    </g>
</symbol><symbol id="icon-cart" viewBox="0 0 34 30">
    <g transform="translate(-1223 -78)">
        <path id="a" d="M1252.507 93.003l-19.913 2.59-2.455-12.274h24.682zm3.822-10.637c-.134-.134-.274-.275-.543-.275h-25.915l-.684-3.548c0-.275-.41-.543-.684-.543h-4.091c-.403 0-.678.275-.678.684 0 .41.275.684.684.684h3.548l3.273 16.64c.409 2.18 2.455 3.816 4.634 3.816h15.681c.41 0 .684-.275.684-.684 0-.41-.275-.684-.684-.684h-15.546c-1.094 0-2.18-.543-2.73-1.502l19.913-2.73c.275 0 .543-.275.543-.543l2.73-10.906s0-.275-.135-.409z"/>
        <path id="b" d="M1235.324 106.638c-1.094 0-2.046-.952-2.046-2.045s.952-2.046 2.046-2.046c1.093 0 2.045.953 2.045 2.046s-.952 2.045-2.045 2.045zm0-5.452a3.374 3.374 0 0 0-3.408 3.407 3.374 3.374 0 0 0 3.408 3.407 3.378 3.378 0 0 0 3.407-3.407c.006-1.912-1.496-3.407-3.407-3.407z"/>
        <path id="c" d="M1248.965 106.638c-1.093 0-2.045-.952-2.045-2.045s.952-2.046 2.045-2.046 2.046.953 2.046 2.046-.959 2.045-2.046 2.045zm0-5.452a3.374 3.374 0 0 0-3.407 3.407 3.374 3.374 0 0 0 3.407 3.407 3.374 3.374 0 0 0 3.408-3.407 3.374 3.374 0 0 0-3.408-3.407z"/>
        <use xlink:href="#a"/>
        <use xlink:href="#b"/>
        <use xlink:href="#c"/>
    </g>
</symbol><symbol id="icon-cash" viewBox="0 0 21 21">
    <g transform="translate(-1141 -159)">
        <path id="a" d="M1160.981 173.118h-3.959a1.68 1.68 0 0 1-1.677-1.678v-.172a1.68 1.68 0 0 1 1.677-1.678h3.959zm-1.003 4.867c0 .667-.541 1.208-1.208 1.208h-15.755a1.208 1.208 0 0 1-1.208-1.208V164.15c0-.666.541-1.207 1.208-1.207h4.538l-1.936 1.074h-2.352c-.22 0-.4.18-.4.4 0 .22.18.4.4.4h16.713v3.966h-2.948a2.486 2.486 0 0 0-2.485 2.485v.172a2.486 2.486 0 0 0 2.485 2.485h2.948zm-5.221-18.13a.408.408 0 0 1 .549.156l2.226 3.998h-10.253zm4.013 3.08c.62 0 1.13.47 1.2 1.074h-1.513l-.604-1.074zm3.018 5.848h-1.01v-4.633a2.014 2.014 0 0 0-2.015-2.015h-1.364l-1.396-2.508a1.198 1.198 0 0 0-1.058-.627c-.204 0-.407.055-.588.149l-5.361 2.979h-5.981a2.026 2.026 0 0 0-2.015 2.022v13.835c0 1.114.901 2.015 2.015 2.015h15.748a2.014 2.014 0 0 0 2.014-2.015v-4.06h1.011z"/>
        <use xlink:href="#a"/>
    </g>
</symbol><symbol id="icon-clock" viewBox="0 0 10 10">
    <g transform="translate(-352 -1097)">
        <path id="a" d="M360.072 1103.783c-.32.54-.75.97-1.289 1.289a3.44 3.44 0 0 1-1.778.48c-.64 0-1.239-.16-1.778-.48a3.62 3.62 0 0 1-1.289-1.289 3.441 3.441 0 0 1-.48-1.778c0-.64.16-1.239.48-1.778.32-.54.75-.97 1.289-1.289a3.44 3.44 0 0 1 1.778-.48c.64 0 1.239.16 1.778.48.54.32.97.75 1.289 1.289.32.54.48 1.139.48 1.778-.01.64-.17 1.229-.48 1.778zm1.259-4.295a4.96 4.96 0 0 0-1.819-1.819 4.887 4.887 0 0 0-2.507-.669c-.91 0-1.748.22-2.517.67a4.96 4.96 0 0 0-1.819 1.818 4.89 4.89 0 0 0-.669 2.517c0 .91.22 1.748.67 2.507a4.96 4.96 0 0 0 1.818 1.819c.769.45 1.598.669 2.507.669.91 0 1.748-.22 2.508-.67a4.96 4.96 0 0 0 1.818-1.818c.45-.769.669-1.598.669-2.507.01-.91-.21-1.748-.66-2.517z"/>
        <path id="b" d="M357.624 1099.497h-.42a.203.203 0 0 0-.209.21v2.288h-1.449a.203.203 0 0 0-.21.21v.42a.203.203 0 0 0 .21.21h2.088a.203.203 0 0 0 .21-.21v-2.918c0-.06-.02-.11-.06-.15a.245.245 0 0 0-.16-.06z"/>
        <use xlink:href="#a"/>
        <use xlink:href="#b"/>
    </g>
</symbol><symbol id="icon-close" viewBox="0 0 17.440001 17.440001">
    <path d="M10.44 9.02l7 7-1.42 1.42-7-7-.3-.31-.3.31-7 7L0 16.02l7-7 .31-.3L0 1.42 1.42 0l7.3 7.31L16.02 0l1.42 1.42-7.31 7.3.31.3z"/>
</symbol><symbol id="icon-del" viewBox="0 0 14 15">
    <g transform="translate(-1189 -668)">
        <path id="a" d="M1194.623 679.962c.306 0 .557-.25.557-.556v-5.864a.558.558 0 0 0-.557-.557.558.558 0 0 0-.556.557v5.864c0 .306.25.556.556.556z"/>
        <path id="b" d="M1197.539 679.962c.306 0 .556-.25.556-.556v-5.864a.558.558 0 0 0-.556-.557.558.558 0 0 0-.557.557v5.864c0 .306.25.556.557.556z"/>
        <path id="c" d="M1190.851 670.966v-.84a.43.43 0 0 1 .428-.429h9.609c.234 0 .428.19.428.429v.84zm8.857 10.916h-7.255v-9.804h7.255zm1.174-13.298h-3.36a.554.554 0 0 0-.523-.367h-1.836a.562.562 0 0 0-.523.367h-3.36c-.852 0-1.542.69-1.542 1.542v1.402c0 .306.25.556.557.556h1.046v10.36c0 .306.25.556.556.556h8.368c.306 0 .556-.25.556-.556v-10.366h1.046c.306 0 .556-.25.556-.556v-1.396c0-.852-.69-1.542-1.54-1.542z"/>
        <use xlink:href="#a"/>
        <use xlink:href="#b"/>
        <use xlink:href="#c"/>
    </g>
</symbol><symbol id="icon-exit" viewBox="0 0 22 22">
    <g transform="translate(-1140 -213)">
        <path id="a" d="M1148.15 225.45l-2-.8c-.2-.1-.45 0-.5.2-.1.2 0 .45.2.5l2 .8c.05 0 .1.05.15.05.15 0 .3-.1.35-.25.1-.2 0-.45-.2-.5z"/>
        <path id="b" d="M1153.6 231.4h-4v-15.2c0-.15-.1-.35-.3-.4l-6.3-2h10.6zm-4.8 2.65l-8-2.55v-17.55l8 2.55zm13.15-11.3c.05-.1.05-.2 0-.3 0-.05-.05-.1-.1-.15l-4.75-4.8a.392.392 0 0 0-.55 0c-.15.15-.15.4 0 .55l4.1 4.1h-6.25v-8.75c0-.2-.2-.4-.4-.4h-13.7c-.05 0-.05 0-.1.05h-.05l-.05.05c0 .05-.05.1-.05.15-.05.05-.05.1-.05.15v18.4c0 .05 0 .1.05.15v.05c0 .05.05.05.05.1l.05.05s.05.05.1.05h.05l8.8 2.8h.1c.1 0 .15-.05.25-.1.1-.1.15-.2.15-.3v-2.4h4.4c.2 0 .4-.2.4-.4V223h6.25l-4.15 4.1c-.15.15-.15.4 0 .55.1.1.2.1.3.1.1 0 .2-.05.3-.1l4.8-4.8s.05-.05.05-.1z"/>
        <use xlink:href="#a"/>
        <use xlink:href="#b"/>
    </g>
</symbol><symbol id="icon-exp" viewBox="0 0 14 16">
    <g transform="translate(-1057 -644)">
        <path id="a" d="M1070 649.25c0-.074-.012-.16-.027-.25H1066v-3.973a1.19 1.19 0 0 0-.25-.027h-7.5a.252.252 0 0 0-.25.25v13.5c0 .137.113.25.25.25h11.5c.137 0 .25-.113.25-.25zm-2.824-3.66a1.39 1.39 0 0 0-.176-.145V648h2.555a1.738 1.738 0 0 0-.145-.176zm3.824 3.66v9.5c0 .688-.563 1.25-1.25 1.25h-11.5c-.688 0-1.25-.563-1.25-1.25v-13.5c0-.688.563-1.25 1.25-1.25h7.5c.688 0 1.648.398 2.137.887l2.23 2.23c.485.485.883 1.445.883 2.133zm-5.918 4.54l2.86 4.21h-2.196l-1.742-2.602-.785 1.172h.945V658h-4.098l2.86-4.21-2.535-3.79h2.113l1.496 2.203 1.496-2.203h2.113z"/>
        <use xlink:href="#a"/>
    </g>
</symbol><symbol id="icon-ig" viewBox="0 0 24 24">
    <g transform="translate(-38 -4591)">
        <path id="a" d="M59.6 4596.4c0 .3-.3.6-.6.6h-2.4c-.3 0-.6-.3-.6-.6v-2.4c0-.3.3-.6.6-.6H59c.3 0 .6.3.6.6zM41 4612.6c-.3 0-.6-.3-.6-.6v-10.2h2.55c-.15.3-.15.9-.15 1.2 0 3.9 3.3 7.2 7.2 7.2 3.9 0 7.2-3.3 7.2-7.2 0-.3 0-.9-.15-1.2h2.55v10.2c0 .3-.3.6-.6.6zm9-14.4c2.7 0 4.8 2.1 4.8 4.8 0 2.7-2.1 4.8-4.8 4.8-2.7 0-4.8-2.1-4.8-4.8 0-2.7 2.1-4.8 4.8-4.8zm9.6-7.2H40.4a2.37 2.37 0 0 0-2.4 2.4v19.2c0 1.35 1.05 2.4 2.4 2.4h19.2c1.35 0 2.4-1.05 2.4-2.4v-19.2c0-1.35-1.05-2.4-2.4-2.4z"/>
        <use xlink:href="#a"/>
    </g>
</symbol><symbol id="icon-list" viewBox="0 0 30 30">
    <g transform="translate(-1058 -78)">
        <path id="a" d="M1087.619 99.861a.606.606 0 0 0-.865 0l-6.054 6.053V78.61a.603.603 0 0 0-.61-.61.603.603 0 0 0-.61.61v27.304l-6.054-6.053a.606.606 0 0 0-.865 0 .606.606 0 0 0 0 .865l7.097 7.096a.63.63 0 0 0 .432.178.628.628 0 0 0 .432-.178l7.097-7.096a.606.606 0 0 0 0-.865z"/>
        <path id="b" d="M1058.61 79.22h18.326c.33 0 .61-.279.61-.61a.61.61 0 0 0-.61-.61h-18.326a.603.603 0 0 0-.61.61c0 .331.267.61.61.61z"/>
        <path id="c" d="M1058.61 86.368h18.326a.61.61 0 0 0 .61-.61c0-.331-.28-.61-.61-.61h-18.326a.603.603 0 0 0-.61.61c0 .33.267.61.61.61z"/>
        <path id="d" d="M1058.61 93.515h18.326a.61.61 0 0 0 .61-.61c0-.331-.28-.61-.61-.61h-18.326a.61.61 0 0 0 0 1.22z"/>
        <path id="e" d="M1070.565 99.429h-11.955a.61.61 0 0 0-.61.61c0 .343.267.61.61.61h11.955c.343 0 .61-.267.61-.61 0-.33-.28-.61-.61-.61z"/>
        <path id="f" d="M1070.565 106.576h-11.955a.603.603 0 0 0-.61.61c0 .33.267.61.61.61h11.955c.343 0 .61-.267.61-.61 0-.33-.28-.61-.61-.61z"/>
        <use xlink:href="#a"/>
        <use xlink:href="#b"/>
        <use xlink:href="#c"/>
        <use xlink:href="#d"/>
        <use xlink:href="#e"/>
        <use xlink:href="#f"/>
    </g>
</symbol><symbol id="icon-load" viewBox="0 0 14 14">
    <g transform="translate(-196 -143)">
        <path id="a" d="M206.524 149.92a.135.135 0 0 0-.126-.08h-2.305v-6.703a.137.137 0 0 0-.138-.137h-1.954a.137.137 0 0 0-.138.137v6.704h-2.305a.135.135 0 0 0-.125.079.136.136 0 0 0 .02.147l3.421 3.909a.137.137 0 0 0 .208-.004l3.42-3.908c.037-.037.043-.095.022-.144z"/>
        <path id="b" d="M208.704 155.748h-11.452v-2.932H196v3.558c0 .345.28.626.626.626h12.704a.627.627 0 0 0 .626-.626v-3.558h-1.252z"/>
        <use xlink:href="#a"/>
        <use xlink:href="#b"/>
    </g>
</symbol><symbol id="icon-mail" viewBox="0 0 12 9">
    <g transform="translate(-186 -3496)">
        <path id="a" d="M187.098 3498.775c.147.098.578.401 1.314.911.725.51 1.284.892 1.676 1.167.04.03.137.098.275.196.137.098.255.176.343.245.088.059.206.128.333.206.128.078.255.137.363.176.118.04.225.06.323.06h.01c.098 0 .206-.02.324-.06.117-.039.235-.098.363-.176.127-.078.245-.147.333-.206.088-.059.206-.147.343-.245.137-.098.226-.167.275-.196.392-.275 1.392-.96 2.99-2.078.313-.216.568-.48.774-.785a1.7 1.7 0 0 0 .314-.96.978.978 0 0 0-.304-.726 1.01 1.01 0 0 0-.716-.304h-9.411c-.324 0-.579.108-.755.333-.177.216-.265.5-.265.834 0 .264.118.558.353.872a3.1 3.1 0 0 0 .745.736z"/>
        <path id="b" d="M196.814 3499.46a134.57 134.57 0 0 0-3.187 2.197c-.245.176-.44.323-.588.421a3.166 3.166 0 0 1-.608.304 1.81 1.81 0 0 1-.706.157h-.01c-.215 0-.45-.049-.705-.157a3.353 3.353 0 0 1-.598-.304c-.147-.098-.353-.235-.588-.421a145.088 145.088 0 0 0-3.177-2.206 3.24 3.24 0 0 1-.647-.559v5.079c0 .284.098.52.304.725a1 1 0 0 0 .725.304h9.402c.285 0 .52-.098.726-.304a1 1 0 0 0 .304-.725v-5.07a3.96 3.96 0 0 1-.647.56z"/>
        <use xlink:href="#a"/>
        <use xlink:href="#b"/>
    </g>
</symbol><symbol id="icon-marker-full" viewBox="0 0 9 13">
    <g transform="translate(-187 -3468)">
        <path id="a" d="M192.876 3473.876a2.081 2.081 0 0 1-1.534.637 2.081 2.081 0 0 1-1.534-.637 2.081 2.081 0 0 1-.637-1.534c0-.598.208-1.105.637-1.534a2.081 2.081 0 0 1 1.534-.637c.598 0 1.105.208 1.534.637.429.429.637.936.637 1.534s-.221 1.105-.637 1.534zm1.534-4.602c-.858-.845-1.872-1.274-3.068-1.274s-2.223.429-3.068 1.274c-.845.845-1.274 1.872-1.274 3.068 0 .611.091 1.118.286 1.508l3.094 6.552c.091.182.221.338.39.442.182.104.364.156.572.156.208 0 .39-.052.572-.156.182-.104.312-.26.403-.442l3.081-6.552c.182-.39.286-.897.286-1.521-.013-1.183-.429-2.21-1.274-3.055z"/>
        <use xlink:href="#a"/>
    </g>
</symbol><symbol id="icon-marker" viewBox="0 0 23 34">
    <g transform="translate(-849 -76)">
        <path id="a" d="M864.464 91.464c-1.056 1.056-2.304 1.568-3.776 1.568s-2.72-.512-3.776-1.568c-1.056-1.056-1.568-2.304-1.568-3.776s.512-2.72 1.568-3.776c1.056-1.056 2.304-1.568 3.776-1.568s2.72.512 3.776 1.568c1.056 1.056 1.568 2.304 1.568 3.776s-.544 2.72-1.568 3.776zm3.776-11.328c-2.112-2.08-4.608-3.136-7.552-3.136s-5.472 1.056-7.552 3.136c-2.08 2.08-3.136 4.608-3.136 7.552 0 1.504.224 2.752.704 3.712l7.616 16.128c.224.448.544.832.96 1.088a2.74 2.74 0 0 0 1.408.384c.512 0 .96-.128 1.408-.384.448-.256.768-.64.992-1.088l7.584-16.128c.448-.96.704-2.208.704-3.744-.032-2.912-1.056-5.44-3.136-7.52z"/>
        <use fill-opacity="0" stroke-miterlimit="50" stroke-width="1.1" xlink:href="#a"/>
    </g>
</symbol><symbol id="icon-message" viewBox="0 0 24 23">
    <g transform="translate(-38 -4533)">
        <path id="a" d="M60.31 4546.813a2.531 2.531 0 0 1-2.525 2.523h-.31a.844.844 0 0 0-.842.842v2.97l-3.558-3.56a.833.833 0 0 0-.598-.243h-10.27a2.531 2.531 0 0 1-2.525-2.524v-9.615a2.531 2.531 0 0 1 2.524-2.524h15.58a2.531 2.531 0 0 1 2.523 2.524zM57.784 4533H42.206a4.208 4.208 0 0 0-4.206 4.206v9.607a4.208 4.208 0 0 0 4.206 4.206h9.926l4.753 4.753a.837.837 0 0 0 .917.177.843.843 0 0 0 .522-.775v-4.189a4.214 4.214 0 0 0 3.676-4.172v-9.607a4.22 4.22 0 0 0-4.215-4.206z"/>
        <path id="b" d="M56.187 4538.956H43.804a.844.844 0 0 0-.84.841c0 .463.378.841.84.841h12.383a.844.844 0 0 0 .841-.841.844.844 0 0 0-.84-.841z"/>
        <path id="c" d="M56.187 4543.667H43.804a.844.844 0 0 0-.84.84c0 .464.378.842.84.842h12.383a.844.844 0 0 0 .841-.841.844.844 0 0 0-.84-.841z"/>
        <use xlink:href="#a"/>
        <use xlink:href="#b"/>
        <use xlink:href="#c"/>
    </g>
</symbol><symbol id="icon-pdf" viewBox="0 0 49 61">
    <g transform="translate(-891 -1347)">
        <path id="a" d="M903.087 1385.842c0-.996-.684-1.587-1.913-1.587-.498 0-.84.047-1.011.093v3.205c.202.047.467.062.824.062 1.292-.015 2.1-.669 2.1-1.773z"/>
        <path id="b" d="M910.632 1384.27c-.544 0-.902.047-1.104.094v7.078c.202.047.544.047.855.047 2.21.015 3.656-1.198 3.656-3.796.016-2.225-1.307-3.422-3.407-3.422z"/>
        <path id="c" d="M924.602 1388.953h-3.89v4.356h-2.457v-10.827h6.611v2.006h-4.153v2.474h3.889zm-17.532 4.294v-10.625c.902-.14 2.069-.218 3.313-.218 2.054 0 3.392.373 4.434 1.151 1.12.84 1.835 2.162 1.835 4.076 0 2.069-.746 3.5-1.804 4.387-1.136.949-2.878 1.4-4.994 1.4-1.275 0-2.177-.078-2.784-.171zm26.383 10.08h-32.886a2.47 2.47 0 0 1-2.473-2.473v-2.863h30.661a2.57 2.57 0 0 0 2.567-2.567v-15.618a2.57 2.57 0 0 0-2.567-2.567h-30.661v-23.614a2.47 2.47 0 0 1 2.473-2.473l22.635-.031v8.369a4.432 4.432 0 0 0 4.433 4.433l8.198-.03.094 36.945c0 1.369-1.12 2.489-2.474 2.489zm-35.717-20.705c.747-.125 1.82-.218 3.314-.218 1.509 0 2.582.296 3.313.871.685.545 1.151 1.447 1.151 2.505 0 1.057-.358 1.96-.995 2.566-.84.794-2.07 1.136-3.516 1.136a6.48 6.48 0 0 1-.84-.047v3.874h-2.427zm26.928-35.39h-24.097c-3.515 0-6.378 2.862-6.378 6.393v23.614h-.622a2.57 2.57 0 0 0-2.567 2.567v15.603a2.57 2.57 0 0 0 2.567 2.567h.622v2.862c0 3.516 2.863 6.394 6.394 6.394h32.87c3.516 0 6.378-2.863 6.378-6.394v-38.486z"/>
        <use xlink:href="#a"/>
        <use xlink:href="#b"/>
        <use xlink:href="#c"/>
    </g>
</symbol><symbol id="icon-phone" viewBox="0 0 12 12">
    <g transform="translate(-187 -3432)">
        <path id="a" d="M198.987 3441.304c-.04-.104-.249-.248-.654-.458-.105-.065-.262-.144-.458-.261-.197-.105-.38-.21-.537-.301-.157-.092-.314-.184-.458-.262-.026-.013-.092-.066-.21-.144a3.114 3.114 0 0 0-.3-.183.541.541 0 0 0-.249-.066c-.118 0-.262.079-.432.249-.17.157-.327.34-.47.523a3.548 3.548 0 0 1-.459.524c-.157.157-.288.248-.392.248a.646.646 0 0 1-.197-.039.7.7 0 0 1-.17-.078 1.979 1.979 0 0 0-.21-.118c-.09-.066-.156-.092-.156-.105a8.833 8.833 0 0 1-2.002-1.479c-.563-.562-1.047-1.23-1.48-2.002 0-.013-.038-.065-.104-.157a.92.92 0 0 1-.118-.21c-.026-.038-.039-.104-.078-.17a.646.646 0 0 1-.04-.196c0-.104.079-.235.25-.392.156-.157.34-.314.523-.458.196-.144.366-.301.523-.471.157-.17.249-.314.249-.432a.64.64 0 0 0-.066-.249 3.114 3.114 0 0 0-.183-.3 2.619 2.619 0 0 0-.144-.21c-.078-.144-.17-.288-.262-.458a15.42 15.42 0 0 1-.3-.537 8.007 8.007 0 0 0-.262-.458c-.197-.392-.354-.615-.458-.654-.013.013-.079 0-.157 0a2.4 2.4 0 0 0-.602.092 2.877 2.877 0 0 0-.59.183c-.287.118-.588.47-.902 1.047-.288.523-.432 1.047-.432 1.57 0 .157.013.301.026.445.026.144.053.314.105.497s.091.314.118.406c.039.078.104.235.183.471.091.222.13.366.157.419.196.562.432 1.06.707 1.492.444.732 1.06 1.478 1.832 2.25.772.773 1.53 1.388 2.25 1.832.432.275.93.51 1.492.707.053.013.197.066.419.157.222.092.38.144.471.17.092.026.223.079.406.131.183.052.34.092.497.105.144.026.288.026.445.026.523 0 1.047-.144 1.583-.432.576-.314.916-.615 1.034-.903.066-.144.118-.34.183-.589.053-.248.092-.445.092-.602a.347.347 0 0 0-.013-.17z"/>
        <use xlink:href="#a"/>
    </g>
</symbol><symbol id="icon-photo" viewBox="0 0 15 12">
    <g transform="translate(-674 -800)">
        <path id="a" d="M687.5 804.275a.537.537 0 0 0-.525-.525.537.537 0 0 0-.525.525c0 .281.244.525.525.525a.537.537 0 0 0 .525-.525zm-2.25 2.475a3.761 3.761 0 0 0-3.75-3.75 3.761 3.761 0 0 0-3.75 3.75 3.761 3.761 0 0 0 3.75 3.75 3.761 3.761 0 0 0 3.75-3.75zm3.75-3v6.75c0 .825-.675 1.5-1.5 1.5h-12c-.825 0-1.5-.675-1.5-1.5v-6.75c0-.825.675-1.5 1.5-1.5h1.8a.645.645 0 0 0 .581-.431l.469-1.388c.094-.244.356-.431.6-.431h5.1c.244 0 .506.188.581.431l.469 1.388c.094.244.356.431.6.431h1.8c.825 0 1.5.675 1.5 1.5zm-5.25 3a2.257 2.257 0 0 1-2.25 2.25 2.257 2.257 0 0 1-2.25-2.25 2.257 2.257 0 0 1 2.25-2.25 2.257 2.257 0 0 1 2.25 2.25z"/>
        <use xlink:href="#a"/>
    </g>
</symbol><symbol id="icon-plane" viewBox="0 0 12 13">
    <g transform="translate(-1149 -808)">
        <path id="a" d="M1158.385 820.296c.037.061.086.1.15.112a.18.18 0 0 0 .167-.056l.673-.672a.488.488 0 0 0 .13-.467l-1.42-5.568a.448.448 0 0 1 .131-.467l2.336-2.336c.124-.123.217-.268.28-.43.21-.485.213-.87 0-1.158a.531.531 0 0 0-.093-.13.829.829 0 0 0-.15-.113.193.193 0 0 0-.056-.037 1.547 1.547 0 0 0-.093-.037.74.74 0 0 0-.411-.075 1.705 1.705 0 0 0-.411.075l-.187.074c-.15.075-.287.176-.411.3l-2.336 2.335a.448.448 0 0 1-.467.13l-5.567-1.42a.487.487 0 0 0-.468.131l-.672.673a.18.18 0 0 0-.056.168.223.223 0 0 0 .112.15l4.577 2.335c.075.023.115.073.122.14a.213.213 0 0 1-.066.178l-1.812 1.812a.524.524 0 0 1-.467.168l-.803-.13a.524.524 0 0 0-.467.168l-.449.448a.18.18 0 0 0-.056.168.223.223 0 0 0 .112.15l1.495.822a.9.9 0 0 1 .374.373l.822 1.495c.037.06.086.1.15.112a.18.18 0 0 0 .167-.056l.449-.448a.524.524 0 0 0 .168-.467l-.13-.804a.524.524 0 0 1 .167-.467l1.813-1.812c.063-.063.123-.087.186-.075.063.012.108.056.131.13z"/>
        <use xlink:href="#a"/>
    </g>
</symbol><symbol id="icon-planet" viewBox="0 0 16 16">
    <g transform="translate(-28 -703)">
        <path id="a" d="M39.13 717.493l-.463.232.232-.348c.58-.696.927-1.507 1.275-2.55v-.117h1.855l-.116.232c-.58 1.044-1.623 1.971-2.783 2.55zm-2.55.58h-.116v-3.479h2.898v.116c-.695 1.855-1.623 3.015-2.782 3.362zm-.116-6.61h3.478v.117c0 .811-.116 1.507-.232 2.203v.116h-3.246zm3.13-3.246v.116c.116.696.232 1.392.232 2.203v.116h-3.478v-2.435zm-3.13-4.29h.116c1.16.348 2.087 1.508 2.782 3.247v.116h-2.898zm2.666.58a7.714 7.714 0 0 1 2.899 2.551l.116.232H40.29v-.116c-.348-1.044-.696-1.855-1.276-2.55l-.347-.233zm3.479 3.71c.232.696.463 1.508.463 2.203v.116h-2.318v-.116c0-.811-.116-1.507-.232-2.203v-.116l2.087.116zm.463 3.363c0 .811-.231 1.507-.58 2.203v.116h-2.086v-.116c.232-.812.348-1.508.348-2.203v-.116h2.434zm-7.536-4.29h-2.898v-.116c.58-1.74 1.623-2.899 2.782-3.246h.116zm-3.478 3.246v-.116c0-.811.116-1.507.232-2.203v-.116h3.13v2.435zm3.478 3.247h-3.13v-.116c-.116-.58-.232-1.392-.348-2.087v-.116h3.478zm0 4.29h-.116c-1.16-.348-2.087-1.508-2.782-3.247v-.116h2.898zm-2.666-.58a7.714 7.714 0 0 1-2.899-2.551l-.116-.232h1.855v.116c.348 1.044.696 1.855 1.276 2.55l.347.349zm-3.479-3.71c-.232-.696-.463-1.508-.463-2.203v-.116h2.434v.116c-.116.695 0 1.391.116 2.087v.116zm-.463-3.363c0-.811.231-1.507.58-2.203v-.116h2.086v.116c-.232.812-.348 1.508-.348 2.203v.116h-2.434zm1.043-3.246c.696-1.16 1.74-1.971 2.899-2.55l.463-.233-.232.348c-.58.696-1.043 1.507-1.275 2.55v.117h-1.97zM44 711.58v-1.044c-.232-4.058-3.478-7.304-7.42-7.536h-1.16c-3.942.232-7.188 3.478-7.42 7.42v1.16c.232 3.942 3.478 7.188 7.42 7.42h1.044c4.058-.232 7.304-3.478 7.536-7.42z"/>
        <use xlink:href="#a"/>
    </g>
</symbol><symbol id="icon-plus" viewBox="0 0 32 32">
    <path d="M29 15H17V3h-2v12H3v2h12v12h2V17h12z"/>
</symbol><symbol id="icon-print" viewBox="0 0 20 20">
    <g transform="translate(-1236 -292)">
        <path id="a" d="M1242.25 308.25V307h6.25v1.25z"/>
        <path id="b" d="M1241 293.25h10v2.5h1.25v-2.5c0-.688-.562-1.25-1.25-1.25h-10c-.689 0-1.25.562-1.25 1.25v2.5h1.25z"/>
        <path id="c" d="M1242.25 305.75v-1.25h7.5v1.25z"/>
        <path id="d" d="M1253.5 300.75a1.25 1.25 0 1 1-.001-2.499 1.25 1.25 0 0 1 .001 2.499zm-2.5 10h-10v-7.5h10zm3.75-13.75h-17.5c-.688 0-1.25.562-1.25 1.25v7.5c0 .688.562 1.25 1.25 1.25h2.5v3.75c0 .693.562 1.25 1.25 1.25h10c.688 0 1.25-.562 1.25-1.25V307h2.5a1.25 1.25 0 0 0 1.25-1.25v-7.5c0-.688-.562-1.25-1.25-1.25z"/>
        <use xlink:href="#a"/>
        <use xlink:href="#b"/>
        <use xlink:href="#c"/>
        <use xlink:href="#d"/>
    </g>
</symbol><symbol id="icon-search" viewBox="0 0 20 20">
    <g transform="translate(-286 -76)">
        <path id="a" d="M287.192 84.528c0-4.048 3.294-7.33 7.33-7.33 4.048 0 7.33 3.293 7.33 7.33 0 4.036-3.288 7.336-7.33 7.336-4.036.005-7.33-3.288-7.33-7.336zm18.636 10.457l-4.863-4.862a8.497 8.497 0 0 0 2.096-5.595c0-4.702-3.831-8.528-8.533-8.528S286 79.826 286 84.528s3.826 8.528 8.528 8.528a8.48 8.48 0 0 0 5.595-2.096l4.862 4.863a.602.602 0 0 0 .422.177.58.58 0 0 0 .421-.177.589.589 0 0 0 0-.838z"/>
        <use xlink:href="#a"/>
    </g>
</symbol><symbol id="icon-settings" viewBox="0 0 21 22">
    <g transform="translate(-1141 -58)">
        <path id="a" d="M1161.316 69.914a.315.315 0 0 1-.293.293h-1.953c-.635 0-1.172.342-1.416.928a1.501 1.501 0 0 0 .341 1.66l1.417 1.416c.097.098.097.293 0 .44l-1.758 1.758c-.098.098-.294.098-.44 0l-1.416-1.416a1.501 1.501 0 0 0-1.66-.342c-.587.244-.929.781-.929 1.416v1.954a.315.315 0 0 1-.293.293h-2.637a.315.315 0 0 1-.293-.293v-1.954c0-.635-.342-1.172-.928-1.416-.195-.098-.39-.098-.586-.098-.39 0-.781.147-1.074.44l-1.417 1.416c-.097.098-.293.098-.44 0l-1.757-1.758c-.098-.098-.098-.293 0-.44l1.416-1.416a1.5 1.5 0 0 0 .342-1.66c-.244-.586-.782-.928-1.416-.928h-1.954a.315.315 0 0 1-.293-.293v-2.54c0-.146.147-.293.293-.293h1.954c.634 0 1.172-.342 1.416-.928a1.501 1.501 0 0 0-.342-1.66l-1.416-1.416c-.098-.098-.098-.294 0-.44l1.758-1.758c.098-.098.293-.098.44 0l1.367 1.367a1.5 1.5 0 0 0 1.66.342c.586-.244.928-.781.928-1.416v-1.954c0-.146.147-.293.293-.293h2.54c.146 0 .293.147.293.293v1.954c0 .635.342 1.172.928 1.416a1.5 1.5 0 0 0 1.66-.342l1.465-1.416c.098-.098.293-.098.44 0l1.758 1.758c.098.098.098.293 0 .44l-1.367 1.416a1.501 1.501 0 0 0-.342 1.66c.244.586.781.928 1.416.928h1.953c.147 0 .294.147.294.293v2.589zm-.293-3.614h-1.953a.735.735 0 0 1-.684-.489.853.853 0 0 1 .147-.83l1.416-1.416c.195-.195.293-.488.293-.782 0-.293-.098-.586-.293-.78l-1.758-1.759c-.391-.39-1.124-.39-1.514 0l-1.514 1.465c-.244.244-.537.293-.83.147-.293-.147-.489-.391-.489-.684v-1.954c0-.586-.488-1.074-1.074-1.074h-2.49c-.587 0-1.075.488-1.075 1.074v1.954a.735.735 0 0 1-.489.684c-.293.146-.586.048-.83-.147l-1.416-1.416c-.39-.39-1.123-.39-1.514 0l-1.758 1.758c-.196.195-.293.488-.293.781 0 .293.097.586.293.782l1.416 1.416c.244.244.293.537.146.83a.735.735 0 0 1-.683.489h-1.954a1.028 1.028 0 0 0-1.123 1.025v2.54c0 .586.488 1.074 1.074 1.074h1.954c.293 0 .586.196.684.489.146.293.097.586-.098.78l-1.416 1.417c-.196.196-.293.489-.293.782 0 .293.097.586.293.781l1.758 1.758c.39.39 1.123.39 1.514 0l1.416-1.416c.244-.244.537-.293.83-.147.293.147.489.391.489.684v1.954c0 .586.488 1.074 1.074 1.074h2.54c.586 0 1.074-.488 1.074-1.074v-1.954c0-.293.195-.586.488-.684.293-.146.586-.048.83.147l1.417 1.416c.39.39 1.123.39 1.514 0l1.758-1.758c.195-.195.293-.488.293-.781 0-.293-.098-.538-.293-.782l-1.416-1.416c-.244-.244-.293-.537-.147-.83a.735.735 0 0 1 .684-.489h1.953c.586 0 1.075-.488 1.075-1.074v-2.49c.049-.587-.44-1.075-1.026-1.075z"/>
        <path id="b" d="M1151.549 71.379a2.73 2.73 0 0 1-2.735-2.735 2.73 2.73 0 0 1 2.735-2.735 2.73 2.73 0 0 1 2.735 2.735 2.73 2.73 0 0 1-2.735 2.735zm0-6.251a3.502 3.502 0 0 0-3.516 3.516 3.502 3.502 0 0 0 3.516 3.516 3.502 3.502 0 0 0 3.516-3.516 3.502 3.502 0 0 0-3.516-3.516z"/>
        <use xlink:href="#a"/>
        <use xlink:href="#b"/>
    </g>
</symbol><symbol id="icon-upd" viewBox="0 0 24 30">
    <g transform="translate(-1163 -450)">
        <path id="a" d="M1181.526 455.279l-1.452 1.583c3.08 2.024 4.883 5.763 4.267 9.634a9.663 9.663 0 0 1-3.87 6.334c-1.848 1.32-4.004 1.98-6.247 1.847l.396-.395h-.044l1.451-1.54-1.363-1.276-2.86 3.035-1.231 1.32 1.32 1.276 3.035 2.903 1.231-1.32-1.979-1.847c2.683.132 5.323-.66 7.522-2.244 2.551-1.847 4.223-4.618 4.707-7.742a11.779 11.779 0 0 0-4.883-11.568z"/>
        <path id="b" d="M1165.25 463.46a9.663 9.663 0 0 1 3.871-6.334c1.848-1.32 4.003-1.98 6.247-1.847l-.396.395h.044l-1.452 1.54 1.364 1.276 2.903-3.035 1.232-1.32-1.364-1.276-3.035-2.859-1.232 1.32 1.98 1.847c-2.728-.132-5.323.66-7.522 2.244-2.552 1.891-4.267 4.618-4.751 7.741a11.82 11.82 0 0 0 4.927 11.525l1.451-1.583a9.703 9.703 0 0 1-4.267-9.634z"/>
        <use xlink:href="#a"/>
        <use xlink:href="#b"/>
    </g>
</symbol><symbol id="icon-user" viewBox="0 0 26 27">
    <g transform="translate(-161 -16)">
        <path id="a" d="M180.818 38.875l-.511.34c-.057.058-.17.115-.227.171-.228.114-.455.284-.682.398-.057 0-.114.057-.17.057a7.898 7.898 0 0 1-1.592.682h-.056c-.285.113-.569.17-.853.227-.284.057-.568.114-.909.17-.284.057-.568.057-.852.114h-.17c-.285 0-.569.057-.853.057-.284 0-.568 0-.852-.057h-.17c-.285 0-.569-.057-.853-.114h-.057c-.625-.113-1.193-.227-1.761-.454h-.057l-.852-.341a5.195 5.195 0 0 1-.796-.398c-.056 0-.056-.057-.113-.057-.227-.113-.455-.284-.682-.397-.057-.057-.114-.057-.17-.114-.228-.114-.398-.284-.625-.398l-.057-.056h.057l3.58-1.932a1.917 1.917 0 0 0 1.022-1.705V33.42l-.114-.113s-.966-1.193-1.363-2.841l-.057-.17-.17-.114c-.228-.114-.342-.398-.342-.625v-1.591c0-.227.114-.398.228-.568l.284-.17v-2.614s-.114-1.08.625-1.989c.682-.739 1.761-1.136 3.352-1.136 1.534 0 2.67.397 3.352 1.136.796.852.625 1.989.625 1.989v2.613l.17.114c.171.17.228.34.228.568V29.5a.81.81 0 0 1-.511.739l-.228.056-.056.228c-.285.852-.625 1.59-1.137 2.272-.113.17-.227.341-.34.455l-.114.114v1.704c0 .739.397 1.364 1.08 1.705l3.863 1.932s.057 0 .057.056c-.114.057-.114.057-.17.114zM162.41 29.5c0-6.364 5.17-11.59 11.591-11.59 6.42 0 11.59 5.226 11.59 11.59 0 3.466-1.533 6.534-3.92 8.693-.113-.113-.284-.17-.397-.227l-3.864-1.989a1.012 1.012 0 0 1-.568-.909v-1.363c.114-.114.17-.228.284-.398a8.207 8.207 0 0 0 1.193-2.33c.568-.284.966-.852.966-1.477v-1.59c0-.399-.17-.796-.398-1.08v-2.103c0-.227.114-1.59-.852-2.67-.852-.966-2.216-1.42-4.034-1.42-1.818 0-3.182.51-4.034 1.42-.966 1.08-.852 2.443-.852 2.67v2.103c-.284.284-.398.681-.398 1.08v1.59c0 .511.227.966.625 1.307.34 1.42 1.136 2.557 1.42 2.898v1.306c0 .398-.227.739-.511.91l-3.636 1.988a1.189 1.189 0 0 0-.341.227c-2.387-2.159-3.864-5.227-3.864-8.636zm24.091 0c0-6.875-5.625-12.5-12.5-12.5s-12.5 5.625-12.5 12.5c0 3.636 1.59 6.932 4.034 9.205l.398.34.057.057.681.512c.057.056.17.113.228.17.227.17.511.341.738.455.057.056.114.056.17.113.285.17.569.284.853.455 0 0 .057 0 .057.057.966.454 1.989.738 3.011.966h.057c.341.056.682.113 1.023.113h.113c.341 0 .682.057 1.023.057.341 0 .682 0 1.023-.057h.114c.34-.057.681-.057.965-.113h.114c1.023-.17 2.046-.512 2.955-.91.056 0 .056-.056.113-.056.284-.114.568-.284.853-.455.056-.057.113-.057.227-.114.227-.17.511-.284.738-.454.057-.057.17-.114.228-.17.227-.171.397-.285.568-.455.057-.057.114-.057.114-.114l.397-.34c2.557-2.33 4.148-5.626 4.148-9.262z"/>
        <use xlink:href="#a"/>
        <use fill-opacity="0" stroke-miterlimit="50" stroke-width=".2" xlink:href="#a"/>
    </g>
</symbol></svg>