<?xml version="1.0" encoding="utf-8"?>
<!-- Generator: Adobe Illustrator 17.1.0, SVG Export Plug-In . SVG Version: 6.00 Build 0)  -->
<!DOCTYPE svg PUBLIC "-//W3C//DTD SVG 1.1//EN" "http://www.w3.org/Graphics/SVG/1.1/DTD/svg11.dtd">
<svg version="1.1" id="Layer_1" xmlns="http://www.w3.org/2000/svg" xmlns:xlink="http://www.w3.org/1999/xlink" x="0px" y="0px"
	 viewBox="0 0 69 36.4" enable-background="new 0 0 69 36.4" xml:space="preserve">
<g>
	<circle fill="#D41F0C" cx="34.5" cy="33.6" r="2.9"/>
	<path fill="#D41F0C" d="M69,30.8c-0.2-2.2-2.5-3.3-4.2-3.3c-2.5,0-5.2,0.8-7.7,1.7c-0.2,0-0.3,0-0.5,0c-1.3,0-2.3-1-2.3-2.3
		c0-1.1,0.9-2.1,2-2.3c0,0,0,0,0.1,0c2.5-0.5,5.1-1.2,7-2.5c1.3-0.9,2.6-3.1,1.7-4.9c-1-2-3.6-2.2-5.2-1.5c-2.4,0.9-4.6,2.7-6.6,4.5
		c-0.4,0.3-0.8,0.5-1.3,0.5c-1.3,0-2.3-1-2.3-2.3c0-0.8,0.4-1.5,1-1.8l0,0c2-1.3,4-2.9,5.2-4.7c0.9-1.4,1.2-3.8-0.3-5.1
		C53.9,5,51.4,5.8,50.1,7c-1.9,1.8-3.3,4.4-4.5,6.8l0,0c-0.3,0.7-1,1.2-1.8,1.2c-1.1,0-2.1-0.9-2.1-2.1c0-0.3,0.1-0.6,0.2-0.9
		c0,0,0,0,0,0c1.1-2.5,2.2-5.2,2.2-7.8c0-1.6-1-3.9-3-4.1c0,0,0,0,0,0C41.1,0,41,0,41,0c-2.1-0.2-3.6,1.8-4,3.4
		c-0.6,2.3-0.5,4.8-0.2,7.3v0c0,1.3-1,2.3-2.3,2.3c-1.3,0-2.3-1-2.3-2.3c0,0,0,0,0,0c0.3-2.5,0.4-5-0.2-7.3c-0.4-1.6-2-3.6-4-3.4
		c-0.1,0-0.2,0-0.2,0c0,0,0,0,0,0c-2,0.3-3,2.5-3,4.1c0,2.6,1.1,5.3,2.2,7.8c0,0,0,0,0,0c0.1,0.3,0.2,0.5,0.2,0.9
		c0,1.2-0.9,2.1-2.1,2.1c-0.8,0-1.5-0.5-1.8-1.2l0,0c-1.2-2.5-2.6-5-4.5-6.8c-1.3-1.2-3.8-2-5.4-0.5c-1.5,1.3-1.2,3.8-0.3,5.1
		c1.2,1.9,3.2,3.4,5.2,4.7l0,0c0.6,0.4,1,1.1,1,1.8c0,1.3-1,2.3-2.3,2.3c-0.5,0-1-0.2-1.3-0.5c-2-1.8-4.2-3.6-6.6-4.5
		C7.6,14.9,5,15.1,4,17.1c-0.9,1.8,0.3,3.9,1.7,4.9c1.9,1.3,4.5,2.1,7,2.5c0,0,0.1,0,0.1,0c1.1,0.2,2,1.1,2,2.3c0,1.3-1,2.3-2.3,2.3
		c-0.1,0-0.3,0-0.5,0c-2.5-0.9-5.2-1.8-7.7-1.7c-1.7,0-4.1,1.2-4.2,3.3c-0.1,1.9,1.5,3.3,3,3.8l0,0c0,0,0,0,0,0l0,0
		c2.5,0.9,16.2,1.7,20,1.3c1.8-0.2,3.6-0.9,4.8-2.8c0.9-1.5,1.2-3.3,2.7-4.5c1-0.9,2.4-1.5,4-1.5c2.8,0,5.2,1.9,5.9,4.5
		c0.2,0.5,0.5,1,0.8,1.5c1.2,1.9,3,2.6,4.8,2.8c3.8,0.4,17.5-0.5,20-1.3l0,0c0,0,0,0,0,0l0,0C67.5,34.1,69.1,32.6,69,30.8z
		 M50.3,30.1c-0.5,0.4-1.3,0.7-2.1,0.7l0,0c-1.5,0-2.9-0.8-3.5-1.9c-0.5-1.1-1.2-2.1-2-2.9c-2-2.3-5-3.8-8.3-3.8
		c-2.5,0-4.8,0.8-6.7,2.3c-1.4,1-2.6,2.5-3.6,4.4c-0.6,1.1-2,1.9-3.5,1.9c-0.8,0-1.5-0.2-2.1-0.7c-0.8-0.7-0.5-2.7,1-5.3v0
		c2.7-4.8,7.2-7.6,13.4-8.3c0.4,0,0.8-0.1,1.3-0.1c0.5,0,0.9,0,1.3,0.1c6.2,0.7,10.7,3.5,13.4,8.3C50.7,27.4,51.1,29.5,50.3,30.1z"
		/>
</g>
</svg>
