<?xml version="1.0" encoding="utf-8"?>
<!-- Generator: Adobe Illustrator 17.1.0, SVG Export Plug-In . SVG Version: 6.00 Build 0)  -->
<!DOCTYPE svg PUBLIC "-//W3C//DTD SVG 1.1//EN" "http://www.w3.org/Graphics/SVG/1.1/DTD/svg11.dtd">
<svg version="1.1" id="Capa_1" xmlns="http://www.w3.org/2000/svg" xmlns:xlink="http://www.w3.org/1999/xlink" x="0px" y="0px"
	 viewBox="0 0 57.5 57.5" enable-background="new 0 0 57.5 57.5" xml:space="preserve"  fill="#fff">
<g enable-background="new    ">
	<path d="M7,13.3c0.3,0,0.5,0.1,0.6,0.4c0.5,1.3,1,2.8,1.5,4.4l0.4,1c0.7,1.9,1.4,4.5,2.2,7.6l1.5,6.2c0.7,2.9,1.2,4.9,1.5,6.1
		c0.9,2.7,1.9,5.5,2.9,8.2l0.3-0.8l0.1-0.3c0.4-1.2,0.7-2.5,1-3.9c0.2-1,0.7-2.8,1.3-5.6s1.1-4.8,1.4-6.2c0.3-1.4,0.8-3.1,1.4-5.3
		c0.6-2.2,1.2-4.2,1.9-6c0.1-0.3,0.3-0.4,0.7-0.4h0.2c0.2,0.1,0.3,0.1,0.4,0.3c0.1,0.1,0.1,0.3,0.1,0.4c-0.4,1.7-1,4.2-1.9,7.4
		c-0.9,3.2-1.4,5.1-1.5,5.7c-0.2,0.8-0.6,2.4-1.2,4.8c-0.5,2.4-1,4.2-1.4,5.4c-0.2,0.9-0.7,2.1-1.3,3.8c-0.3,1-0.6,1.8-0.9,2.7v0.1
		c0,0.1,0,0.2,0,0.2c-0.1,0.5-0.4,0.7-0.8,0.7h-0.1c-0.1,0-0.1,0.1-0.1,0.1c-0.2,0.1-0.3,0.2-0.5,0.2c-0.1,0-0.3-0.1-0.4-0.2
		l-0.1-0.1L16,50.1c-0.2,0-0.3-0.1-0.4-0.3c-0.3-0.5-1-1.4-2-2.7c-1-1.2-1.7-2.2-2-3C9.4,39.9,8,37,7.2,35.2
		c-0.5-1.2-1.1-2.8-1.6-4.8l-0.2-0.7C4,26.4,3.1,23.5,2.5,21c-0.1-0.4-0.1-0.8-0.2-1.3c-0.1-0.5-0.2-1-0.2-1.5C2,17.3,2,16.5,2.2,16
		c0.1-0.1,0.1-0.2,0.3-0.4c0.1-0.1,0.1-0.1,0.2-0.2c0.3-0.7,0.8-1.3,1.5-1.7C5.3,13.1,6.2,12.9,7,13.3z M3.5,19.5l0.1,0.3l0.2-0.4
		L4.6,18l0.6-0.9l0.6-0.9C6,15.9,6,15.7,6.1,15.6c0.1-0.2,0.2-0.3,0.4-0.3c-0.2-0.3-0.4-0.5-0.5-0.7l-0.1-0.2l-0.2,0.2l-1.1,0.7
		c-0.4,0.3-0.8,0.5-1,0.7v0.1C3.4,17.1,3.3,18.2,3.5,19.5z M8.6,21.1H8.5c-0.3,0-0.8,0.1-1.4,0.2l-0.8,0.1c-0.4,0.1-0.6,0.1-0.7,0.1
		c-0.3,0-0.5,0.1-0.6,0.1c-0.2,0-0.4,0-0.5,0c-0.2-0.1-0.4-0.1-0.5-0.2c0.2,0.9,0.7,2.2,1.3,4l0.2,0.6c0.2-0.4,0.8-1,1.6-2
		c0.7-0.9,1.2-1.5,1.5-2c0.1-0.2,0.2-0.4,0.2-0.6L8.6,21.1z M8.3,19.9c-0.1-0.5-0.3-1-0.4-1.5c-0.3-0.8-0.6-1.6-0.9-2.2
		c-0.1,0.1-0.2,0.3-0.3,0.5l-0.6,0.9c-0.2,0.4-0.4,0.7-0.6,0.9c-0.4,0.6-0.7,1.1-0.9,1.4c-0.1,0.2-0.1,0.3-0.2,0.4
		c0.1,0,0.1,0,0.2,0h0.2c0.1,0,0.3,0,0.5-0.1c0.1,0,0.4-0.1,0.7-0.1l0.8-0.1C7.5,20,8,19.9,8.3,19.9z M9.9,27.1L9,23
		c-0.2,0.4-0.6,0.9-1.2,1.5c-0.8,1-1.3,1.6-1.5,2c-0.3,0.4-0.4,0.7-0.5,0.9l0.1,0.2h0.2c0.2,0,0.8-0.1,1.6-0.4
		C8.6,27.1,9.2,27,9.7,27C9.8,27,9.9,27,9.9,27.1z M7.9,32.7c0.2-0.4,0.5-0.9,0.9-1.5c0.5-0.7,0.8-1.2,1-1.6
		c0.2-0.4,0.2-0.8,0.2-1.2c0-0.1-0.1-0.2-0.1-0.2c-0.1-0.1-0.2-0.1-0.3-0.1c-0.3,0-0.8,0.1-1.5,0.2c-0.9,0.2-1.5,0.4-1.8,0.4
		l0.2,0.6C6.9,30.5,7.3,31.6,7.9,32.7z M11.9,34.5c-0.4-1.4-0.8-2.8-1.2-4.2c-0.2,0.4-0.5,0.9-1,1.6c-0.8,1.1-1.2,1.9-1.1,2.5
		l0.2,0.4h0.2c0.2,0,0.6,0,1.2-0.1c0.7-0.1,1.3-0.2,1.5-0.2C11.8,34.5,11.9,34.5,11.9,34.5z M9.3,35.9l1.7,3.4c0-0.1,0-0.2,0-0.3
		l0.3-1.3c0.2-0.6,0.3-1,0.3-1.3c0.1-0.4,0.1-0.6,0.1-0.7c0-0.1,0-0.1,0-0.2c-0.1,0-0.1,0-0.2,0c-0.2,0-0.6,0-1.2,0.1
		C9.9,35.8,9.5,35.9,9.3,35.9z M11.6,40.5l1.4,2.7l0.4,0.7c0-0.1,0-0.2,0.1-0.3c0-0.1,0-0.3,0-0.3c0.1-1.1,0-1.8-0.4-2.2
		c-0.1-0.1-0.3-0.2-0.7-0.2C12.1,40.7,11.8,40.6,11.6,40.5z M12.2,39.5c0.1,0,0.2,0.1,0.5,0.1c0.4,0.1,0.7,0.1,0.9,0.3l-0.1-0.6
		l-0.7-2.1l-0.2,0.9c-0.2,0.6-0.3,1-0.3,1.2V39.5z M16.1,47.7l-1.4-4.5c-0.1,1.3-0.1,2.1,0.1,2.4l0.7,1.1L16.1,47.7z"/>
	<path d="M42.4,20.7c-0.8-0.2-1.5-0.3-2.3-0.4c0,1,0,1.9,0.1,2.7C41,35.1,41.3,44,41.3,49.4c0,0.4-0.2,0.6-0.6,0.6h-0.1
		c0.1,0.1,0.1,0.2,0.1,0.2c0,0.2,0,0.3-0.1,0.4c-0.1,0.1-0.2,0.2-0.4,0.2c-1.4,0.2-2.5,0.2-3.4,0.2c-1.6-0.1-2.8-0.4-3.5-1
		c-0.4-0.3-0.7-0.9-0.9-1.8c-0.2-0.6-0.3-1.4-0.3-2.4c-0.1-0.7-0.1-2.1-0.1-4.2v-4.2C32,37.6,32,37.5,32,37.4c0-0.2,0-0.4,0.2-0.5
		V22c0-0.1,0-1-0.1-2.5c0-1.5,0-2.8,0-3.8c0-1.5,0-2.7,0.1-3.7c0-0.5,0.1-1,0.2-1.3c0.1-0.5,0.3-0.8,0.4-1c0.2-0.2,0.7-0.4,1.3-0.5
		c0.4-0.1,1-0.1,1.7-0.1h2.9c0.1,0,0.3,0,0.4,0.1c0.3,0,0.5,0.1,0.6,0.4c0.4,1.8,0.5,4.1,0.5,7.1l1.1-1.3c0.4-0.5,0.9-1.1,1.6-2
		c0.7-0.8,1.3-1.6,1.8-2.2c0.5-0.7,0.9-1.3,1.2-2c0.2-0.4,0.4-0.4,0.8-0.3C46.8,9,46.9,9.2,47,9.3L47.3,9l0.3-0.3l0.1-0.1l0,0
		c0,0,0,0,0,0c0.1,0,0.1,0,0.1,0c0.1,0,0.2,0,0.2,0c0.2,0,0.3,0.1,0.4,0.3c0.1,0.1,0.1,0.2,0.1,0.2v0.2l0,0c0,0.1,0,0.1-0.1,0.2
		c0,0.1-0.1,0.2-0.2,0.3c-0.1,0.2-0.3,0.4-0.5,0.7l-0.7,0.9L45.6,13l-1.7,2l-1.5,1.9c-0.6,0.7-1.1,1.4-1.5,2.1h0l1.8,0.6l7,1.8
		c0.8,0.2,2.1,0.7,4,1.3c0.1,0,0.2,0.1,0.4,0.1c0.3,0.1,0.4,0.1,0.5,0.1c0.2,0.1,0.4,0.2,0.5,0.2l0.2,0.2c0.1,0.2,0.2,0.4,0.1,0.6
		c-0.1,0.2-0.2,0.3-0.3,0.3l-0.2,0.1c-0.3,0.1-0.8,0-1.4-0.2c-0.1,0-0.2-0.1-0.4-0.1c-0.1-0.1-0.3-0.1-0.4-0.1c-0.1,0-0.2,0-0.2,0
		C49.9,23.2,46.5,22.2,42.4,20.7z M33.5,14.9c0.4,0,0.8,0,1.2,0L34,13.5l-0.7-1.2c-0.1,0.7-0.1,1.6-0.1,2.7
		C33.3,14.9,33.4,14.9,33.5,14.9z M35.4,19.2c0.2-0.4,0.6-1,1.1-1.8l1.1-1.7l-0.9,0.1c-1.3,0.2-2.3,0.3-3.1,0.2
		c-0.1,0-0.2,0-0.3-0.1c0,0.9,0,2,0,3.3C33.8,19.3,34.6,19.3,35.4,19.2z M33.3,21.4c0-0.1,0-0.1,0-0.1v0.3
		C33.3,21.5,33.3,21.5,33.3,21.4z M33.3,21.8V22v0.9h0.9L34,22.8L33.4,22C33.3,21.9,33.3,21.8,33.3,21.8z M35.1,25.2L35.1,25.2
		l0-0.2c0-0.1,0-0.1,0-0.2c0.1-0.3,0.2-0.6,0.3-0.8c0,0,0,0,0,0h-2.2v0.4c0.3,0.1,0.7,0.2,1.3,0.5L35.1,25.2z M36.3,24.8
		c0,0.1-0.1,0.1-0.1,0.3c0,0,0,0.1,0,0.1c0,0.1,0,0.1,0,0.1c0,0.1-0.1,0.2-0.1,0.3c-0.1,0.4-0.3,0.6-0.6,0.7
		c-0.1,0.1-0.2,0.1-0.3,0.1c0,0-0.1,0-0.1,0H35c-0.1,0-0.1-0.1-0.2-0.1l-0.7-0.3c-0.4-0.2-0.6-0.3-0.9-0.4v0.9h0.1h4.2
		c-0.1-0.1-0.2-0.1-0.2-0.2c-0.1-0.1-0.2-0.3-0.3-0.4c-0.3-0.5-0.5-0.8-0.6-0.9C36.4,24.9,36.4,24.8,36.3,24.8z M33.7,32.4
		c0.4,0.1,0.9,0.2,1.5,0.3c0.5,0.1,1,0.1,1.4,0.1s0.9,0,1.6,0c0.7,0,1.2,0,1.5,0l-0.3-5.1c-0.1,0.1-0.2,0.2-0.4,0.2h-5.6h-0.1v2.8h0
		c0.3,0,1.1,0,2.6,0c-0.6-0.2-1-0.8-1.3-1.9c0-0.2,0-0.3,0.1-0.4c0.1-0.1,0.2-0.2,0.4-0.3c0.1,0,0.2,0,0.3,0l0.2-0.1
		c1-0.2,1.7-0.1,2.1,0.5c0.4,0.5,0.3,1-0.1,1.6c-0.2,0.3-0.5,0.4-0.8,0.5c0.9,0,1.7,0.1,2.4,0.2c0.2,0.1,0.3,0.1,0.4,0.3
		s0.1,0.3,0.1,0.4c0,0.2-0.1,0.3-0.2,0.4C39.2,32,39,32,38.9,32c-0.7-0.2-1.6-0.2-2.7-0.2c-1.1,0-2.1,0-2.9,0v0.7
		C33.4,32.3,33.5,32.3,33.7,32.4z M33.4,34.7c1.3,0.3,3.4,0.4,6.4,0.2l-0.1-1c-0.2,0-0.7,0-1.4,0c-0.7,0-1.3,0-1.7,0s-0.9,0-1.5-0.1
		s-1.2-0.2-1.7-0.3c-0.1,0-0.1,0-0.1,0v1.3H33.4z M35.2,36.1c-0.7-0.1-1.4-0.1-2-0.3v0.9c0.2,0,0.3,0.1,0.5,0.1c0.1,0,0.1,0,0.2,0.1
		s0.1,0.1,0.2,0.1l0.1,0c0.1,0,0.2-0.2,0.5-0.5C34.9,36.4,35.1,36.2,35.2,36.1z M34,38.1c-0.1,0-0.1,0-0.2,0c-0.1,0-0.1-0.1-0.2-0.1
		l-0.2,0c0,0-0.1-0.1-0.1-0.1v0.2C33.5,38.1,33.7,38.1,34,38.1z M35.2,39.9c0.8-0.1,1.4-0.1,2,0c0.8,0.1,1.3,0.4,1.5,0.9
		c0.2,0.5,0,1.1-0.7,1.5c-0.1,0.1-0.3,0.2-0.5,0.3c1,0,1.9,0,2.6,0l-0.1-3c-0.8-0.2-1.9-0.3-3.3-0.3c-2,0-3.1-0.1-3.4-0.1v2.6v0.9
		h1.1c-0.1-0.4-0.1-0.8-0.2-1.4c-0.1-0.7-0.1-1.1-0.2-1.3c0-0.2,0-0.3,0.1-0.4c0.1-0.1,0.2-0.2,0.4-0.2
		C34.9,39.4,35.1,39.5,35.2,39.9z M35.5,44.6c-0.2-0.1-0.3-0.2-0.4-0.3c-0.1-0.1-0.2-0.3-0.2-0.4c-0.6,0-1.1,0-1.6,0
		c0,0.8,0,1.4,0.1,2c0.2,0.1,0.5,0.1,0.7,0.2c0-0.2,0-0.4,0.2-0.5L35.5,44.6z M34.3,48.2h0.9H36c0.1,0,0.4,0,0.8,0s0.7,0,0.9-0.1
		c0.2,0,0.4-0.1,0.7-0.1s0.5-0.1,0.8-0.2c0.2-0.1,0.5-0.2,0.7-0.3c0.1-0.1,0.2-0.1,0.4,0V47c-0.1,0-0.2,0-0.2,0c-0.4,0-0.7,0-1.1,0
		s-0.8,0.1-1.2,0.1s-0.8,0.1-1.1,0.1c-1.2,0.1-2.3,0-3.1-0.1c0.1,0.4,0.1,0.7,0.2,1c0,0.1,0.1,0.3,0.1,0.4
		C33.8,48.3,34,48.2,34.3,48.2z M35.7,14.2c0-0.1,0.1-0.7,0.3-1.9c0.1-0.4,0.1-0.7,0.2-0.9c0.1-0.4,0.3-0.6,0.5-0.8
		c0.4-0.2,0.7-0.1,1.1,0.2c0.2,0.2,0.4,0.6,0.7,1.1c0.1,0.2,0.1,0.4,0.2,0.5l0,0l0.2,0.3c-0.1-0.9-0.2-1.8-0.3-2.6h-2.7
		c-0.7,0-1.2,0.1-1.6,0.1c-0.4,0.1-0.6,0.1-0.7,0.2c0,0,0,0,0,0.1c0.2,0.3,0.7,1.1,1.4,2.3L35.7,14.2z M34.2,49.3
		c0.5,0.4,1.5,0.6,2.7,0.7c0.8,0,1.9,0,3.2-0.2h0.2c-0.1-0.1-0.1-0.2-0.1-0.3v-0.9c-0.3,0.1-0.6,0.3-1,0.4c-0.4,0.1-0.7,0.2-0.9,0.2
		s-0.6,0.1-1.1,0.1c-0.5,0-0.8,0-0.9,0h-1.1H34.2L34.2,49.3z M36.2,37c-0.1,0.1-0.1,0.1-0.3,0.1c-0.1,0-0.2,0.1-0.3,0.2
		c-0.4,0.5-0.8,0.8-1.2,0.9c0.5,0,1.2,0,2,0c-0.1-0.1-0.1-0.2-0.1-0.3c0-0.1,0-0.3,0-0.7C36.2,37.2,36.2,37,36.2,37z M35.3,22.5
		L35.3,22.5c0,0.1,0,0.2,0,0.2c0,0.1,0,0.1,0,0.2c2.1,0,3.3,0,3.8,0C39,22.1,39,21.1,39,20c-0.1,0.1-0.2,0.1-0.4,0.1
		c-0.5,0-1.3,0.1-2.5,0.2v0c-0.1,0.2-0.3,0.3-0.4,0.3l0.2,0.2c0.3,0.3,0.5,0.5,0.6,0.7c0.1,0.1,0.2,0.2,0.2,0.3
		c0.1,0.1,0.1,0.2,0.1,0.2c0.1,0.2,0,0.4-0.2,0.6c-0.2,0.2-0.4,0.2-0.7,0.1C35.7,22.8,35.5,22.7,35.3,22.5L35.3,22.5z M37.5,41.2
		c-0.1-0.1-0.3-0.1-0.5-0.2c-0.5-0.1-1-0.1-1.7,0v0.3c0.1,0.4,0.1,0.7,0.1,0.9c0.8-0.2,1.4-0.5,1.8-0.8
		C37.4,41.3,37.5,41.3,37.5,41.2z M36.6,45.2l-1.2,0.9c0.3,0,0.7,0,1.1,0c0.1,0,0.7-0.1,1.7-0.2l-0.8-0.4
		C37,45.5,36.8,45.4,36.6,45.2z M36.7,29.1c-0.1-0.1-0.4-0.1-0.7,0c0.1,0.3,0.2,0.4,0.3,0.4c0.1,0,0.2,0,0.3-0.2
		C36.7,29.3,36.7,29.2,36.7,29.1z M36.5,43.9l0.1-0.1l-0.2,0L36.5,43.9z M36.8,14.6c1.1-0.2,1.9-0.3,2.2-0.3c0-0.2,0-0.5,0-0.7
		c-0.1,0.1-0.1,0.1-0.2,0.1c-0.3,0.2-0.6,0.1-0.8-0.2l-0.3-0.4l0-0.1l-0.1-0.2c-0.1-0.1-0.1-0.3-0.2-0.4c-0.1-0.1-0.1-0.3-0.2-0.4
		c0,0.1,0,0.3,0,0.4c-0.2,1.2-0.3,1.9-0.3,2C36.8,14.5,36.8,14.6,36.8,14.6z M37.3,18.8L37.3,18.8c-0.1-0.1-0.2-0.1-0.3-0.2
		l-0.2,0.4c0.2,0,0.4-0.1,0.6-0.1L37.3,18.8L37.3,18.8z M39.1,36.3c0.2-0.2,0.4-0.3,0.7-0.2c0,0,0,0,0,0V36
		c-1.3,0.1-2.2,0.1-2.8,0.2c0.1,0.1,0.2,0.2,0.2,0.3c0.1,0.1,0.1,0.3,0.1,0.4c0.2-0.4,0.5-0.6,0.8-0.7c0.3-0.1,0.5-0.1,0.7,0
		C39,36.2,39.1,36.3,39.1,36.3z M37.9,25v-0.2c0-0.3,0-0.6,0-0.8h-0.7c0.1,0.1,0.2,0.2,0.2,0.3C37.6,24.5,37.7,24.7,37.9,25z
		 M37.6,44.5l0.2,0.1c1.1,0.5,1.8,0.9,2.3,1.2l0.1,0.1c0-0.7,0-1.4,0-2.1c-0.7,0-1.5,0-2.5,0c0,0,0,0.1,0,0.1
		C37.8,44.1,37.8,44.3,37.6,44.5z M38.5,37.4c-0.1,0.1-0.1,0.2-0.3,0.4c-0.1,0.2-0.3,0.4-0.4,0.5c0.2,0,0.4,0,0.6,0v-0.1v-0.7
		C38.5,37.4,38.5,37.4,38.5,37.4z M39,18l0,0.2c-0.1,0.2-0.1,0.4-0.2,0.6c-0.1,0.1-0.1,0.1-0.1,0.2c0.1,0,0.3,0,0.4,0.1V18z
		 M38.7,26.6H39c0.1,0,0.2,0,0.3,0.1L39.1,24h-0.1c0,0.2,0,0.5,0,0.8c0,0.5-0.1,0.9-0.1,1.1C38.9,26.3,38.8,26.5,38.7,26.6z
		 M38.8,15.8c0.1,0,0.2,0.1,0.2,0.1v-0.4h-0.1c0,0.1,0,0.1,0,0.1L38.8,15.8z M39.9,38.5L39.9,38.5L39.9,38.5L39.9,38.5z"/>
</g>
</svg>
