<svg width="130" height="122" fill="none" xmlns="http://www.w3.org/2000/svg"><path fill-rule="evenodd" clip-rule="evenodd" d="M47.91 80.872c.358-.04.755-.118 1.153-.237l-1.154.237zm50.097-42.115l.24-.118-.24.118zm-60.722 4.741v.04-.04zm25.069 2.924c.04.079.08.158.12.276l-.12-.276zm-13.967 33.74c-.04.039-.08.039-.08.039l.08-.04zm38.2-2.016c-.04 0-.08-.04-.16-.04l.16.04zM81.096 50.65c.08 0 .159-.04.239-.04l-.24.04zm23.278-17.225s0-.04 0 0zM67.726 54.007h-.04.04zm13.25-44.762c-.04-.04-.08-.04-.159-.08l.16.08zm-25.506 70.6c.04 0 .08 0 .159-.04l-.16.04zm2.427-54.362c1.035.75 2.308 1.303 2.945.197.358-.672.756-1.896.636-2.647-.119-.79-.398-1.501-.557-2.529-.08-.79-.159-1.738-.12-2.686.08-1.146.399-2.252 1.115-2.963.677-.672 1.433-1.343 2.11-1.976-.518.79-1.155 1.66-1.672 2.45l-.12.237c-.398 1.027-.358 3.398-.278 4.346.16 1.699.597 2.37.637 3.398.716-1.502 1.83-3.003 3.541-3.24.478-.08.796-.198 1.035-.356.796-.513.716-1.54 1.273-2.923.597-1.462 2.109-3.872.239-5.018-.597-.355-.438-.513-1.114-.592h.238c.2 0 1.154.434 1.313.474 2.07.948.955 4.701.597 6.4-.437 1.975-.955 3.003-2.626 3.477-.239.079-.517.118-.836.158-1.034.158-2.029 1.896-2.347 2.726-.319.79-.319 1.817-.12 2.805.637.671.876 2.252 1.433 3.437.995 2.015 2.188 3.714 2.586 3.911.398.198 4.775-5.017 5.73-5.689.04 0 .518-.316.995-.592.398-.514.756-1.028 1.114-1.502.756-1.066 1.393-1.936 1.552-2.291.319-.75.756-3.556 1.114-4.741.677-2.331 1.393-4.03 2.666-6.124.677-1.106 1.075-1.778.757-3.16-.16-.633-.359-.988-.916-1.344.04.04.08.04.16.08.517.276.755.592.954 1.184.518 1.423.2 2.252-.358 3.517-.12.276-.238.592-.358.869.16-.158.358-.316.557-.514 2.03-1.936 1.87-2.765 2.229-5.491.477 3.16.875 3.753-1.672 6.123-.676.633-1.114 1.107-1.432 1.502a4.572 4.572 0 0 0-.597 1.027c-.12.435-.199.87-.318 1.343-.319 1.62-.717 4.702-1.234 6.084-.398 1.107-2.785 4.267-4.377 6.282-.477.593-.875 1.106-1.154 1.422-1.154 1.344-.875 1.028-2.189 1.936-.477.316-1.273 1.067-1.99 1.897 2.906-2.292 7.8-3.161 8.795-6.835.517-1.936.756-3.516 2.785-4.583 2.348-1.225 4.258-.711 6.645-.514 2.03.158 2.547-.71 4.02-1.857 1.273-1.027.716-.592 1.71-1.382-.954.948-1.95 1.896-2.864 2.884-2.15 2.291-4.656.276-8.038 1.817-2.666 1.225-2.15 3.2-3.025 5.136-1.273 2.884-4.536 4.978-7.122 6.558-2.388 1.462-1.83 1.739-.836 4.267.16.356.279.75.358 1.146.319.593-.159.909.518 1.857 1.352 1.896 1.114 1.343 1.591 3.714.08-.04.2-.119.319-.158 1.99-.988 5.411-1.66 8.316-1.818h.239c2.387-.079 5.133-.908 6.924-2.568 1.193-1.106.716-.948 2.347-1.817.915-.474 2.229-1.146 3.422-1.146l.12-.118c1.074-1.265 1.313-1.541 2.825-2.173l.239-.119c-1.592.87-1.791 1.067-2.706 2.45.12.04.239.04.358.079 1.353-.158 4.855-1.462 5.929-2.37 1.631-1.423 1.592-3.478 2.348-5.018l.199-.395c-.398 1.185-.239.553-.438 2.133-.159 1.304-.597 2.924-1.433 3.911-1.154 1.343-5.65 3.99-7.242 3.2.04.04.04 0 .04.04-.278-.04-.716.079-1.194.237-.716.711-1.472 1.343-2.427 1.857.318.04.637.118.995.237.636.158 1.392.434 2.188.711 1.433.474 2.985.87 4.06.237.437-.237.676-.474 1.034-.79-.438 1.067-.955 2.094-2.15 2.528-1.949.712-5.49-1.817-7.32-1.264-.916.277-1.234.356-1.712.277-.716.513-1.71 1.106-2.387 1.383-.796.316.835-.554-.955.71-.717.514-1.632.83-2.467 1.107-1.194.395-1.712.553-2.189.83.12-.04.199-.04.318-.04.08 0 .16 0 .24-.04-1.394.356-1.91 1.225-3.065 1.818-1.393.711-.756.434-1.671 1.62-.637.79-.836.671-1.114 1.58-.677 2.173-.08 4.899-.915 6.953-.717 1.818-.478 2.094-.319 3.99.239 2.608-1.273 1.897.716 4.228.558.632.637 1.067 1.194 1.501.438.316 3.462 1.383 4.138 1.778 2.07 1.146.836 1.027 2.507 2.133.757.475 3.184 1.62 3.82 1.936-.04 0-.08-.04-.159-.04-3.581-.829-5.133-1.777-7.401-3.239-1.512-.948-2.865-1.106-3.382-1.58-.438-.356-3.064-2.687-3.263-3.2-.756-1.739-.239-1.936-.319-3.003l-.119-.276c-.279-1.107-.279-3.003.12-4.11.477-1.382 1.193-2.449 1.392-4.029.597-4.07 1.273-6.005-.278-1.462-.16.514-.557.198-.876.87-.08.157-.159 1.145-.239 1.343-.198.553-.04 1.224-.278 1.936-.2.632-.756 1.343-.995 2.093-.517 1.66-.12 3.24.478 4.78.278.712 1.71 4.465 2.188 4.979 0 0 2.11 1.975 2.189 2.015.398.316 2.586.592 3.024.83 1.034.592 1.99.632 2.825.948.915.316.836.71 1.552 1.264.637.474 2.07 1.106 2.586 1.896-.835-.632-2.148-1.066-3.143-1.462-.677-.276-.995-1.066-1.592-1.264-1.75-.553-4.258-.079-6.247-1.303l-2.149-1.857c-1.512-1.225-3.143-6.006-3.502-7.902-.437-2.489.319-3.635 1.035-5.689.08-.948-.12-1.738-.597-3.082-.239-.671-.278-.79-.278-.79-.916-2.41-2.945-7.743-2.348-9.008.398-.79.557-.592.796-1.777.159-.79.159-1.423.08-2.015-.438 2.173-1.632 1.659-1.553 4.78 0 .672.359 4.306 1.154 5.097.08.079.2.158.319.118h-.04c-.796.04-1.592-1.738-1.99-3.24-.119.435.16.91 0 1.423-.278.83.597 1.857.995 2.568 1.353 2.568 2.11 2.607 2.547 5.215.04.395-.677 5.136-.915 5.57-.04.593-.12 1.146-.16 1.739 0 .276-.04.553-.04.79.677 1.264 1.354 2.647 1.592 3.516.398 1.58-.199 2.963.438 4.267.239.474 2.587 3.556 3.223 3.753.796.277.955-.04 2.388.514-1.592-.04-1.473.316-2.507.355-1.99.08-4.497-3.2-4.934-4.82-.16-.671-.12-3.595-.478-3.674-.16-.04-.358.395-.676 1.66-.16.632.159.987-.2 1.975-.397 1.067-.835 3.24-2.267 3.081h.04c1.153-.276.914-1.975.875-3.279 0-.316 0-.632.04-.869.119-.592-.16-.513.04-.908.198-.356.278-.554.119-.751-.12-.119-.677.079-.876.079-.278-.04-.318.316-.597.672-.358.395-.557-.08-1.074.948-.915 1.857-.836 1.817-1.233 2.33-.956 1.265-4.656 2.687-6.367 2.924h-.16.04c1.274-.434 4.616-2.528 5.213-3.635.597-1.145 1.114-2.725 1.632-4.108a68.684 68.684 0 0 1-2.985 2.41c-2.865 2.252-6.605 5.136-10.266 6.123a5.61 5.61 0 0 1-1.114.237c3.183-.75 6.406-3.24 9.072-5.65-1.034.593-2.387 1.226-3.422 1.858-1.552.908-3.62 2.33-5.173 3.081-.04 0-.04.04-.08.04l.24-.158c1.75-1.344 3.54-3.042 5.292-4.465 2.706-2.172 4.098-2.33 5.65-5.728.915-1.976.438-1.62.677-3.516.278-2.331 1.552-2.647 1.83-4.267.517-2.845-1.83-5.531-.955-9.403.557-2.331 2.109-4.03 1.353-6.242v-.04.04l.12.237c1.273 2.765-1.354 5.017-.04 9.008.278.908.636 1.935.875 3.042-.08-1.186 0-2.292.12-3.477.198 1.66.397 3.16 1.074 4.701.477 1.106 1.353 2.015 1.83 3.2 1.234-3.12-.915-4.464-1.99-7.506-.318-.909-1.114-3.714-.915-4.662.12-.553.398-1.304.557-2.015.16-.75.08-1.501.478-1.975-.12-1.146-1.91-3.319-3.581-4.583-2.666-.356-3.343-.316-5.611 1.778-.16.118-.279.276-.438.434-1.432 1.423-3.143 3.398-5.053 3.635-1.313.158-2.786-.395-4.02-.83 2.945 0 4.14-.513 5.572-1.699.636-.553 1.313-1.224 2.188-2.093 1.751-1.7 2.746-2.529 3.86-2.608-.279-.118-.597-.276-1.114-.514-1.035-.474-2.467-1.145-3.94-1.738a236.283 236.283 0 0 1-4.018-1.343c-.757-.158-1.473-.237-2.11-.198-2.666.198-4.416 1.383-6.207 3.24-.915.948-.995 1.699-2.189 2.529-.238.157-.477.316-.557.592v-.04c.04-.078.04-.118.12-.197.636-.83.557-.237 1.512-1.778.835-1.422 2.427-3.24 3.82-4.07.716-.394 1.353-.71 2.03-.908-.717-.04-1.394 0-2.07.08-2.427.276-4.536 1.145-7.919.394-.04 0-.08 0-.08-.04-.278.12-.477.317-1.63.87-1.075.514-1.751.83-2.746 1.343-1.552.79-3.184.435-4.457-.71-.04-.04-.16-.159-.16-.238.04.237 1.314.474 1.433.474 2.308.198 2.547-.395 4.457-1.264.16-.08.279-.119.438-.198.597-.276 1.034-.513 1.353-.632-1.83-.513-4.576-1.422-5.054-1.857-.358-.276-.438-.513-.756-.908l-.915-.909 1.114.711c.279.198.517.514.836.672.636.316 4.536.592 5.969.908 1.67.395 2.785.475 3.939.356 1.074-.119 2.149-.356 3.78-.632 3.422-.553 5.69.316 7.84 1.54.596.159 1.233.317 1.87.514.318.08 1.352.474 2.546.949a24.22 24.22 0 0 1-1.432-1.423c-2.746-2.963-2.547-3.081-6.805-3.595-2.07-.237-4.695-1.343-5.372-3.28-.12-.078-.199-.118-.318-.197-1.353-.908-2.786-2.33-4.974-2.647-1.075-.158-2.189-.276-3.263-.434.676-.119 1.313-.277 1.95-.395 2.188-.435 3.979.553 5.61 1.857.279.237.557.513.796.75 0-.395.08-.83.279-1.304-2.706-2.133-2.587-2.252-4.377-5.373 1.631 1.936 2.03 2.726 4.257 3.912 2.15 1.106 1.353.869 1.473 2.923.12 1.62 2.825 2.41 4.098 2.568a62.79 62.79 0 0 1 1.91.237c1.154.198 1.95.395 2.627.79-.518-1.659-.637-1.975-2.348-3.832-.279-.276-.478-.553-.677-.75-.238-.238-2.427-.159-3.461-.198-.398 0-.518-.316-.558-.356-.04-.04.2.08.518.119.278.04.596-.04.955 0 .318 0 1.95.158 2.148-.119.04-.04-.04-.355-.119-.434-.08-.08-.199-.158-.398-.277-.438-.197-1.114 0-2.586-.237 2.666-.434 3.223-.75 5.133 1.304 1.233 1.343 1.95 2.094 2.546 3.872.359 1.106.558 1.857.796 2.528.398.395.836.87 1.353 1.462.16.158.279.316.438.474 1.433 0 2.07-.83 4.695-.04 1.711.514 2.945 1.146 3.86 2.331-.398-1.856-.238-3.081-1.233-5.096-.398-.79-1.87-3.793-2.507-4.306-.836-.672-3.343-1.423-5.133-2.292l-.24-.118c-3.74-.514-5.172-1.265-8.475-3.951-1.75-1.422-2.149-1.817-3.541-3.516l-.04-.08c-.796-.987-.995-.987-2.228-1.264l.795-.118c1.672-.08 3.462 1.462 4.656 2.489 1.194 1.027 2.348 2.015 3.66 2.884.399.277.837.514 1.274.75a53.6 53.6 0 0 1 1.552.91c-1.83-1.858-3.62-4.584-3.82-6.678-.12-1.224-.438-1.382-1.114-2.449l.477.553c.836.909.995 1.343 1.115 1.818.119.434.238.908.915 1.896.318.434.915 1.146 1.671 1.896 1.194 1.225 2.587 2.568 3.303 3.082.517.395 1.313.75 2.109 1.067-1.234-1.186-2.229-2.568-2.746-4.188a37.52 37.52 0 0 1-.676-2.49c-.2-.75-.398-1.5-.637-2.251-.557-1.778-1.91-6.4-3.98-6.914-1.074-.277-2.108.079-2.944-.672.756.435 1.274.119 2.11.04 4.217-.553 5.371 3.872 6.366 7.072.239.75.438 1.54.637 2.33.238-.987.756-2.054 1.034-3.397.08-.395.16-.711.2-.988.158-.71.238-1.224.039-2.252.597.751.875 1.067 1.074 2.015.398 1.66-.795 3.793-1.114 5.452 0 .08-.04.158-.04.198-.199.988-.358 1.304-.238 2.094.278.592.676 1.304 1.153 2.054.2.435.597 1.027 1.035 1.58zm8.595 38.836c.04.158.08.316.08.474.358 1.857-.796 1.817-1.035 2.765-.199.83.557 2.647.319 3.872-.16-.909-1.115-2.41-.916-3.872.16-1.224 1.393-2.41 1.552-3.24zm16.554-16.12c-.24.04-.478.04-.717.04-2.626.119-4.735 1.462-7.003 2.45-4.536 1.975-4.417 2.804-3.82 5.768.796-2.45.995-3.28 3.183-4.386 1.552-.79 2.388-1.027 3.94-2.015 2.069-1.303 2.984-1.303 4.417-1.856zm-20.294-6.36c-1.234-1.7-.717-3.556-2.905-4.346-1.87-.672-2.03.237-3.82-.119-.04 0-.08 0-.12-.04.757.87.916 1.068 1.712 1.976.477.198.795.395.875.474 1.353.119 4.178 1.857 3.064 1.107-.04-.08 1.194.948 1.194.948zm-1.95 29.789c1.353-1.304.398-2.766 2.07-4.623.158-.355-.16-1.027 0-1.699.158-.592.874-1.185.755-1.461-.398-1.067.358-1.462 0-2.884.04.869-.676 1.659-.955 2.41-.517 1.303-.756 1.58-.915 3.16-.16 1.264-.239 4.07-.955 5.097zm8.595-25.72a7.536 7.536 0 0 1-.955 2.529c-.16 1.027.517 4.03 1.074 6.4.04-.277.04-.593.04-.948 0-2.292 1.154-4.741.239-7.033-.16-.355-.279-.671-.398-.948zm-.995 2.529c-.04.039-.04.079-.08.118.08-.079.08-.079.08-.118zm-6.367-22.678c-.477 1.106-1.114 1.54-1.79 1.54.12.08.239.159.318.238 1.035.83 2.985 4.78 3.462 6.045.756 2.133.517 3.2.716 5.175.08.672-.119.988.637 2.766.04.118.12.237.16.355.039-.197.039-.434.039-.869 0-1.106.637-1.225.279-2.291-.2-.633 0-.277.318-1.028-.637-2.41-1.313-3.555-2.507-5.847-.876-1.58-1.671-3.99-1.632-6.084zm33.943 15.448c.04 0 .08.04.12.04-.04 0-.08 0-.12-.04zM41.105 27.418l.08.08-.08-.08zm1.75 16.04s-.158.988.797 2.213c.955 1.225 1.87 1.225 1.87 1.225s.199-.87-.756-2.094c-.955-1.225-1.91-1.343-1.91-1.343zm3.542 0s-.597.514-.676 1.778c-.08 1.265.477 1.739.477 1.739s.597-.395.637-1.66c.12-1.303-.438-1.856-.438-1.856zm-.875 4.11s-.557-.475-1.711-.356c-1.154.118-1.512.71-1.512.71s.477.475 1.591.317c1.194-.118 1.632-.672 1.632-.672zm9.192-39.824s-.478.75-.16 2.133c.359 1.383 1.115 1.738 1.115 1.738s.477-.632.159-2.054c-.318-1.383-1.114-1.817-1.114-1.817zM42.418 6.44s.04.908 1.154 1.817c1.114.948 1.91.75 1.91.75s.04-.79-1.074-1.738c-1.114-.908-1.99-.83-1.99-.83zm.04 3.753s.477.75 1.91 1.027c1.432.277 2.03-.276 2.03-.276s-.399-.712-1.791-.988c-1.393-.277-2.15.237-2.15.237zm3.382-5.017s-.517.75-.199 2.133c.319 1.422 1.075 1.778 1.075 1.778s.517-.632.199-2.015c-.319-1.422-1.075-1.896-1.075-1.896zm-.199 7.427s.279-.87 1.592-1.462c1.313-.592 2.07-.197 2.07-.197s-.2.79-1.513 1.382c-1.313.593-2.149.277-2.149.277zm3.184 3.635s-.398-.83.119-2.134c.517-1.343 1.353-1.58 1.353-1.58s.398.711-.12 2.054c-.517 1.344-1.352 1.66-1.352 1.66zm-4.974-1.383s.756-.119 1.75.592c.995.751.995 1.462.995 1.462s-.676.158-1.671-.592c-.955-.711-1.074-1.462-1.074-1.462zm16.155-3.595s-.915.158-1.71 1.343c-.797 1.185-.518 1.975-.518 1.975s.796-.079 1.631-1.264c.796-1.185.597-2.054.597-2.054zm-6.725-4.307s-.756.04-1.552.949c-.795.908-.636 1.58-.636 1.58s.676.04 1.472-.87c.796-.947.716-1.659.716-1.659zm31.277 8.692s-.717.237-1.234 1.343c-.477 1.107-.159 1.7-.159 1.7s.676-.159 1.154-1.265c.517-1.106.239-1.778.239-1.778zm-1.87 1.462s-.757 0-1.592.83c-.836.869-.756 1.54-.756 1.54s.676.08 1.512-.79c.875-.869.835-1.58.835-1.58zm-17.39-1.936s-.915-.118-1.99.83c-1.113.948-1.074 1.777-1.074 1.777s.796.159 1.91-.79c1.075-.948 1.154-1.817 1.154-1.817zm.398-3.832s.319.869 1.632 1.422c1.313.553 2.069.158 2.069.158s-.239-.79-1.552-1.343c-1.353-.553-2.149-.237-2.149-.237zm.398-2.963s0 .908 1.035 1.896c1.034.988 1.87.87 1.87.87s.08-.791-.955-1.818c-1.074-.988-1.95-.948-1.95-.948zm4.059-.316s-.676.632-.637 2.054c0 1.422.677 1.936.677 1.936s.636-.514.597-1.936c0-1.422-.637-2.054-.637-2.054zm11.142-2.884s-.677.632-.637 2.054c0 1.422.677 1.936.677 1.936s.636-.514.596-1.936c0-1.462-.636-2.054-.636-2.054zm5.133 1.185s-.876.197-1.632 1.422c-.716 1.225-.398 2.015-.398 2.015s.796-.119 1.552-1.343c.677-1.265.478-2.094.478-2.094zm6.008 11.497s-.716.553-.835 1.975c-.12 1.422.517 1.975.517 1.975s.677-.474.796-1.896c.12-1.383-.478-2.054-.478-2.054zm3.383 3.002s-.876-.276-2.11.435c-1.233.71-1.352 1.54-1.352 1.54s.756.277 2.03-.434c1.193-.711 1.432-1.54 1.432-1.54zm-6.208-1.738s-.438.71-.08 2.015c.359 1.303 1.115 1.58 1.115 1.58s.438-.632.08-1.896c-.359-1.304-1.115-1.7-1.115-1.7zM23.915 29.433s-.16.988.796 2.213c.955 1.224 1.87 1.224 1.87 1.224s.199-.869-.756-2.093c-.915-1.225-1.91-1.344-1.91-1.344zm3.581 0s-.597.514-.676 1.778c-.08 1.264.477 1.739.477 1.739s.597-.396.637-1.66c.08-1.304-.438-1.857-.438-1.857zm-.875 4.11s-.557-.475-1.711-.356c-1.154.118-1.512.71-1.512.71s.477.475 1.591.317c1.194-.119 1.632-.672 1.632-.672zm1.432-8.772s.398.91 1.87 1.462c1.473.553 2.269.04 2.269.04s-.279-.83-1.751-1.383c-1.512-.553-2.388-.119-2.388-.119zm3.024-1.936s-.238.751.359 1.857c.596 1.107 1.352 1.186 1.352 1.186s.279-.672-.358-1.739c-.596-1.106-1.353-1.303-1.353-1.303zm1.473 3.951s-.716-.118-1.632.593c-.915.711-.875 1.383-.875 1.383s.637.158 1.552-.553c.875-.712.955-1.423.955-1.423zm5.053-9.363s.597.79.358 2.33c-.278 1.542-1.074 1.976-1.074 1.976s-.597-.671-.318-2.212c.238-1.541 1.034-2.094 1.034-2.094zm-3.143 1.62s.796.158 1.432 1.224c.637 1.067.398 1.739.398 1.739s-.716-.08-1.353-1.185c-.676-1.028-.477-1.778-.477-1.778zm2.706 3.24s.278-.672 1.353-1.107c1.074-.434 1.631-.079 1.631-.079s-.199.632-1.273 1.027c-1.035.435-1.711.158-1.711.158zm-.12 8.177s.717.712.637 2.252c-.04 1.58-.796 2.094-.796 2.094s-.676-.592-.637-2.133c.08-1.54.796-2.213.796-2.213zm-2.944 2.055s.796.079 1.591 1.027c.796.988.597 1.699.597 1.699s-.716 0-1.512-.988c-.756-.987-.676-1.738-.676-1.738zm3.263 2.844s.159-.71 1.193-1.264c.995-.553 1.632-.276 1.632-.276s-.12.632-1.114 1.185c-1.035.553-1.712.355-1.712.355zm56.902-10.667s-.716.356-1.87-.118c-1.154-.435-1.353-1.146-1.353-1.146s.597-.355 1.75.08c1.155.473 1.473 1.184 1.473 1.184zm-11.778-3.91s-.16.75-1.234 1.382c-1.074.632-1.75.355-1.75.355s.119-.671 1.193-1.303c1.074-.632 1.79-.435 1.79-.435zm-8.715-7.823s-.16.75-1.234 1.382c-1.074.632-1.75.356-1.75.356s.12-.672 1.194-1.304c1.074-.632 1.79-.434 1.79-.434zm4.735-2.569s.16.751 1.234 1.383 1.75.356 1.75.356-.119-.672-1.193-1.304c-1.074-.671-1.79-.434-1.79-.434zM60.046 34.57s.756-.12 1.75.592c.995.75.995 1.462.995 1.462s-.676.158-1.67-.593c-.995-.711-1.075-1.462-1.075-1.462zm24.273-2.648s.756-.118 1.75.593c.996.75.996 1.462.996 1.462s-.677.158-1.672-.593c-.995-.711-1.074-1.462-1.074-1.462zm-51.411 6.282s.716.711.636 2.252c-.04 1.58-.795 2.094-.795 2.094s-.677-.593-.637-2.133c.08-1.541.796-2.213.796-2.213zm-2.905 2.608s0-.712.796-1.541c.835-.79 1.472-.711 1.472-.711s.08.632-.756 1.461c-.796.79-1.512.79-1.512.79zm12.813-18.134s.995-.04 2.109 1.106c1.114 1.145.955 2.015.955 2.015s-.875.079-1.99-1.028c-1.114-1.145-1.074-2.094-1.074-2.094zm-1.393 1.935s.717-.276 1.83.237c1.115.514 1.274 1.225 1.274 1.225s-.637.316-1.75-.237c-1.075-.474-1.354-1.225-1.354-1.225zm22.323-14.025s-.875.277-1.432 1.62c-.597 1.304-.199 2.054-.199 2.054s.796-.197 1.393-1.501c.557-1.343.238-2.173.238-2.173zm43.612 21.927s-.159.75-1.233 1.383c-1.075.632-1.751.355-1.751.355s.119-.671 1.194-1.303c1.034-.633 1.79-.435 1.79-.435zm-6.128 4.346s-.159.75-1.233 1.383c-1.075.632-1.75.355-1.75.355s.118-.671 1.193-1.304c1.074-.632 1.79-.434 1.79-.434zm.319 3.832s.358.672-.04 1.857c-.398 1.146-1.074 1.383-1.074 1.383s-.359-.593.039-1.739c.398-1.145 1.075-1.501 1.075-1.501zm6.048-4.622s-.716.355-1.87-.119c-1.154-.434-1.353-1.146-1.353-1.146s.597-.355 1.751.119c1.154.434 1.472 1.146 1.472 1.146zm-8.078 8.889s-.557-.198-.955-1.027c-.397-.83-.119-1.304-.119-1.304s.517.118.915.988c.358.79.16 1.343.16 1.343zM71.267 25.048s.319.87 1.632 1.422c1.313.553 2.069.158 2.069.158s-.239-.79-1.552-1.343c-1.313-.593-2.149-.237-2.149-.237zm.398-3.003s0 .909 1.035 1.897c1.034.987 1.87.869 1.87.869s.08-.79-.955-1.817c-1.075-.988-1.95-.949-1.95-.949zm4.059-.316s-.677.632-.637 2.055c0 1.422.677 1.936.677 1.936s.636-.514.597-1.936c0-1.423-.637-2.055-.637-2.055zm.835-8.652s.916 0 1.87 1.067c.956 1.066.797 1.896.797 1.896s-.796.04-1.791-1.027c-.955-1.027-.876-1.936-.876-1.936zm-1.472 2.766s.756-.475 2.149-.119 1.711 1.146 1.711 1.146-.637.474-2.07.118c-1.352-.395-1.79-1.145-1.79-1.145zm.319 3.595s.198-.87 1.432-1.62c1.234-.75 2.03-.435 2.03-.435s-.12.79-1.353 1.541c-1.234.75-2.11.514-2.11.514zM58.653 8.968s.239.87-.557 2.094c-.796 1.225-1.631 1.264-1.631 1.264s-.24-.75.517-1.975c.796-1.185 1.671-1.383 1.671-1.383zM107.2 37.295s-.517.593-1.751.672c-1.233.079-1.711-.474-1.711-.474s.398-.553 1.632-.632c1.273-.08 1.83.434 1.83.434zm-1.114 2.015s-.597.237-1.512-.237c-.915-.434-1.035-1.027-1.035-1.027s.518-.237 1.433.197c.955.475 1.114 1.067 1.114 1.067zm-.159 1.62s-.677.395-1.87.04c-1.194-.356-1.433-1.028-1.433-1.028s.557-.395 1.751-.04c1.194.356 1.552 1.028 1.552 1.028zm-1.194 2.291s-.835-.039-1.751-1.027c-.915-1.027-.756-1.778-.756-1.778s.756-.04 1.672.988c.875.988.835 1.817.835 1.817zm-20.89-13.195s-.916.237-2.229-.593c-1.273-.83-1.353-1.698-1.353-1.698s.836-.277 2.11.553c1.312.83 1.471 1.738 1.471 1.738zm-.16 1.027s-.716.514-2.069.277c-1.393-.237-1.75-.948-1.75-.948s.596-.514 1.989-.277c1.353.276 1.83.948 1.83.948zm.16 2.529s-1.035.434-2.667-.277c-1.631-.711-1.87-1.699-1.87-1.699s.876-.474 2.547.237c1.591.711 1.99 1.739 1.99 1.739zm-2.667 1.738s-.796-.04-1.591-.948c-.836-.909-.677-1.62-.677-1.62s.717-.04 1.512.909c.796.908.756 1.659.756 1.659zm7.481-25.64s-.358.79-1.71 1.185c-1.314.395-1.99-.04-1.99-.04s.278-.711 1.591-1.106c1.353-.435 2.11-.04 2.11-.04zm.08 2.567s-.597.475-1.83.277c-1.234-.198-1.553-.83-1.553-.83s.518-.474 1.751-.276c1.194.197 1.632.83 1.632.83zm0 1.7s-.796.513-2.268.078c-1.473-.395-1.79-1.225-1.79-1.225s.675-.513 2.148-.079c1.472.435 1.91 1.225 1.91 1.225zm-2.03 2.014s-.795.08-1.71-.711c-.956-.79-.916-1.501-.916-1.501s.677-.119 1.632.671c.955.751.994 1.541.994 1.541zM50.854 4.188s-.875.592-1.114 2.212c-.239 1.62.438 2.331.438 2.331s.795-.474 1.034-2.094c.279-1.62-.358-2.45-.358-2.45zm20.095 11.378s.477.75 1.91 1.027c1.432.277 2.03-.276 2.03-.276s-.399-.711-1.791-.988c-1.433-.277-2.15.237-2.15.237zM47.71 4.86s-.517.751-.199 2.134c.319 1.422 1.075 1.778 1.075 1.778s.517-.632.199-2.015C48.467 5.295 47.71 4.86 47.71 4.86zm3.74 5.334s.677.237 1.672-.237c.995-.514 1.154-1.146 1.154-1.146s-.597-.276-1.592.237c-1.034.474-1.233 1.146-1.233 1.146zm13.57 3.437s.477.75 1.91 1.027c1.432.277 2.03-.276 2.03-.276s-.399-.711-1.791-.988c-1.433-.276-2.15.237-2.15.237zm.915 9.008s.478.75 1.91 1.027c1.433.277 2.03-.276 2.03-.276s-.398-.712-1.791-.988c-1.393-.277-2.149.237-2.149.237zm24.353 1.54s-.08 1.028 1.034 2.253c1.114 1.224 2.07 1.145 2.07 1.145s.159-.908-.956-2.172c-1.154-1.186-2.148-1.225-2.148-1.225zm1.552 13.038s-.08 1.027 1.034 2.252c1.114 1.225 2.07 1.146 2.07 1.146s.159-.909-.956-2.173c-1.114-1.185-2.148-1.225-2.148-1.225zm-7.163-9.6s-.637.474-1.83.276c-1.234-.197-1.552-.83-1.552-.83s.517-.473 1.75-.236c1.194.158 1.632.79 1.632.79zm-61 9.126s.119-.908 1.273-1.738 1.99-.593 1.99-.593-.04.79-1.195 1.66c-1.193.83-2.069.671-2.069.671zm2.665 1.66s-.398-.83.12-2.134c.517-1.343 1.352-1.58 1.352-1.58s.398.711-.119 2.054c-.517 1.304-1.353 1.66-1.353 1.66zm-3.9-.712s.717-.355 1.87.119c1.155.434 1.354 1.146 1.354 1.146s-.597.355-1.751-.08c-1.194-.473-1.472-1.185-1.472-1.185zm25.189-.079s.716.712.636 2.252c-.04 1.58-.795 2.094-.795 2.094s-.677-.592-.637-2.133c.08-1.58.796-2.213.796-2.213zm-3.144 2.213s0-.711.796-1.541c.836-.79 1.472-.711 1.472-.711s.08.632-.756 1.462c-.796.83-1.512.79-1.512.79zm-4.655-21.927s-.995.119-2.189-.909c-1.194-1.027-1.154-1.935-1.154-1.935s.876-.159 2.07.869c1.193 1.027 1.273 1.975 1.273 1.975zm.437-3.635s.597.435.677 1.58c.12 1.146-.398 1.58-.398 1.58s-.557-.355-.677-1.5c-.08-1.146.398-1.66.398-1.66zm-1.313-1.738s.716.553.836 1.936-.478 1.936-.478 1.936-.676-.435-.795-1.818c-.12-1.382.437-2.054.437-2.054zm51.134 10.35s-.716.316-1.87-.198c-1.154-.513-1.314-1.185-1.314-1.185s.637-.316 1.751.158c1.194.514 1.433 1.225 1.433 1.225zm-5.293-1.501s.756.118 1.433 1.145c.676 1.028.438 1.7.438 1.7s-.717-.08-1.393-1.107c-.677-.988-.478-1.738-.478-1.738zm-47.272 22.48s.835.513 1.154 2.054c.318 1.54-.319 2.212-.319 2.212s-.796-.395-1.114-1.935c-.278-1.541.279-2.331.279-2.331zm-2.865 2.212s0-.711.796-1.54c.835-.79 1.472-.712 1.472-.712s.08.632-.756 1.462c-.796.83-1.512.79-1.512.79zm2.507-2.766s-.557-.474-1.711-.355c-1.154.118-1.513.711-1.513.711s.478.474 1.592.316c1.194-.118 1.632-.672 1.632-.672zm65.974-7.743s-.756-.356-1.193-1.66c-.398-1.303.04-1.935.04-1.935s.716.276 1.114 1.58c.437 1.304.039 2.015.039 2.015zM66.85 24.021s-.199.75-1.313 1.303c-1.114.554-1.75.237-1.75.237s.159-.671 1.233-1.224c1.114-.593 1.83-.316 1.83-.316zm1.035 1.699s-.438.75-1.75 1.066c-1.354.316-1.95-.197-1.95-.197s.318-.711 1.67-1.027c1.314-.277 2.03.158 2.03.158zm.04 2.765s-.637.435-1.87.198c-1.234-.237-1.513-.909-1.513-.909s.558-.435 1.751-.198c1.234.238 1.632.91 1.632.91zm20.134-12.247s-.199.75-1.313 1.303c-1.114.554-1.75.238-1.75.238s.159-.672 1.233-1.225c1.114-.553 1.83-.316 1.83-.316zm1.075 1.738s-.438.75-1.751 1.067c-1.353.316-1.95-.198-1.95-.198s.318-.71 1.671-1.027c1.314-.316 2.03.158 2.03.158zm.04 2.726s-.637.435-1.87.198c-1.234-.237-1.513-.91-1.513-.91s.557-.434 1.751-.197c1.234.277 1.632.91 1.632.91zM73.336 8.218s.2.75-.517 1.777c-.676 1.028-1.393 1.067-1.393 1.067s-.199-.671.478-1.699c.676-.987 1.432-1.145 1.432-1.145zm-1.392 3.595s.756.474 2.188.079c1.393-.395 1.711-1.146 1.711-1.146s-.676-.474-2.069-.079c-1.432.395-1.83 1.146-1.83 1.146zm-11.62 13.67s-.994.118-2.188-.91c-1.194-1.026-1.154-1.935-1.154-1.935s.875-.158 2.07.87c1.193 1.026 1.272 1.975 1.272 1.975zm-.238-3.872s.597.434.676 1.58c.12 1.146-.398 1.58-.398 1.58s-.557-.355-.676-1.5c-.08-1.107.398-1.66.398-1.66zm-.756 1.54s-.836-.355-1.274-1.659c-.477-1.303-.04-2.015-.04-2.015s.757.277 1.234 1.58c.478 1.304.08 2.095.08 2.095zm23.994-2.567s.517.553.438 1.817c-.08 1.225-.716 1.62-.716 1.62s-.518-.474-.398-1.7c.08-1.224.676-1.737.676-1.737zm3.303 21.057s.756-.118 1.75.593c.996.75.996 1.462.996 1.462s-.677.158-1.672-.593c-.955-.711-1.074-1.462-1.074-1.462zm1.512-1.738s.836.197 1.552 1.383c.676 1.185.398 1.935.398 1.935s-.756-.118-1.473-1.303c-.716-1.225-.477-2.015-.477-2.015zm1.91-.948s.676.355 1.034 1.54c.319 1.186-.119 1.739-.119 1.739s-.636-.277-.995-1.462c-.318-1.185.08-1.817.08-1.817zm4.695-2.766s.717.277 1.154 1.422c.438 1.146.08 1.778.08 1.778s-.676-.197-1.114-1.343c-.438-1.185-.12-1.857-.12-1.857zm2.15-.355s.516.553.437 1.777c-.08 1.225-.677 1.62-.677 1.62s-.517-.474-.437-1.699c.08-1.224.676-1.698.676-1.698zm3.859-1.818s.756.158 1.393 1.225c.636 1.067.398 1.738.398 1.738s-.677-.079-1.353-1.145c-.597-1.107-.438-1.818-.438-1.818zm-44.447-3.318s-.836.553-1.075 2.093c-.239 1.541.358 2.213.358 2.213s.756-.435 1.035-1.975c.239-1.541-.319-2.332-.319-2.332zm2.467 2.568s-.796-.08-1.751.71c-.955.83-.916 1.541-.916 1.541s.717.119 1.672-.671c.915-.83.995-1.58.995-1.58zm-3.622 2.172s.16-.71-.517-1.659c-.676-.948-1.353-.948-1.353-.948s-.159.632.478 1.54c.676.988 1.392 1.067 1.392 1.067zm-7.799-6.005s.756-.118 1.751.593c.995.75.995 1.462.995 1.462s-.676.158-1.671-.593c-.955-.711-1.075-1.462-1.075-1.462zm-3.979-3.081s.597.513.597 1.738-.557 1.66-.557 1.66-.557-.435-.557-1.66c-.04-1.185.517-1.738.517-1.738zm-9.55-4.11s.597.514.597 1.74c0 1.224-.557 1.659-.557 1.659s-.557-.435-.557-1.66c0-1.225.517-1.738.517-1.738zm-4.297 8.179s.437.672.119 1.857-.955 1.462-.955 1.462-.438-.553-.12-1.739c.319-1.185.956-1.58.956-1.58zm-2.706-3.793s.796.04 1.552.988c.795.948.636 1.66.636 1.66s-.716 0-1.472-.949c-.796-.948-.716-1.699-.716-1.699zm23.278-10.746s.279.553-.08 1.501c-.358.949-.915 1.107-.915 1.107s-.278-.474.08-1.423c.318-.908.915-1.185.915-1.185zm.438 1.739s.199.434-.08 1.145c-.279.711-.716.83-.716.83s-.239-.356.04-1.067c.318-.75.756-.909.756-.909zm-4.974.395s.517.276.756 1.224c.239.949-.12 1.383-.12 1.383s-.477-.237-.716-1.146c-.199-.987.08-1.462.08-1.462zm58.096 14.973s-.716-.356-1.075-1.501c-.358-1.186.08-1.778.08-1.778s.637.276.995 1.422c.358 1.225 0 1.857 0 1.857zm-5.61 5.057s-.598-.514-.638-1.738c-.04-1.225.558-1.66.558-1.66s.557.395.596 1.62c.04 1.225-.517 1.778-.517 1.778zm3.62-5.57s-.756-.12-1.512-1.107c-.716-.988-.517-1.699-.517-1.699s.716.04 1.432 1.027c.717 1.028.597 1.778.597 1.778zM99.44 36.94s-.597-.514-.637-1.739c-.04-1.224.557-1.659.557-1.659s.557.395.597 1.62c.04 1.225-.517 1.778-.517 1.778zM84.319 25.838s.756-.118 1.75.593c.996.75.996 1.461.996 1.461s-.677.159-1.672-.592c-.995-.711-1.074-1.462-1.074-1.462zm-3.183-5.65s.358-.671 1.552-.987c1.193-.316 1.75.118 1.75.118s-.278.632-1.472.948c-1.194.317-1.83-.078-1.83-.078zM70.47 16.476s0 .908 1.035 1.896c1.034.988 1.87.87 1.87.87s.08-.79-.955-1.818c-1.034-.948-1.95-.948-1.95-.948zm-4.735-.593s-.358.83.2 2.133c.556 1.304 1.392 1.541 1.392 1.541s.398-.71-.16-2.015c-.636-1.343-1.432-1.659-1.432-1.659zm-11.38-3.319s-.637.633-.557 2.094c.08 1.423.756 1.897.756 1.897s.596-.553.517-1.976c-.04-1.422-.716-2.014-.716-2.014zM43.77 16.791s.557.237.876 1.145c.318.91.04 1.383.04 1.383s-.518-.158-.836-1.066c-.319-.949-.08-1.462-.08-1.462zM74.928 8.06s.318.869 1.632 1.422c1.313.553 2.069.158 2.069.158s-.24-.79-1.552-1.343c-1.313-.593-2.149-.237-2.149-.237zm.398-3.003s0 .909 1.035 1.896c1.034.988 1.87.87 1.87.87s.08-.79-.955-1.818c-1.075-.988-1.95-.948-1.95-.948zm4.059-.316s-.677.632-.637 2.054c0 1.423.676 1.936.676 1.936s.637-.513.597-1.936c0-1.422-.636-2.054-.636-2.054zM81.97 0s-.676.632-.636 2.054c0 1.423.676 1.936.676 1.936s.637-.513.597-1.936C82.608.593 81.97 0 81.97 0zM67.805 3.2s-.676.632-.636 2.055c0 1.422.676 1.935.676 1.935s.637-.513.597-1.935c0-1.462-.637-2.055-.637-2.055zM48.745 0s-.676.632-.637 2.054c0 1.423.677 1.936.677 1.936s.637-.513.597-1.936C49.382.593 48.745 0 48.745 0zM38.399 6.993s-.278.869.438 2.133 1.552 1.383 1.552 1.383.318-.75-.398-2.015c-.716-1.304-1.592-1.501-1.592-1.501zm-7.8 10.944s.36.83 1.712 1.343c1.353.513 2.07.04 2.07.04s-.24-.751-1.632-1.265c-1.353-.474-2.15-.119-2.15-.119zm3.383-2.569s-.278.87.438 2.134c.716 1.264 1.552 1.383 1.552 1.383s.318-.75-.398-2.015c-.716-1.264-1.592-1.502-1.592-1.502zm-3.024 7.27s.876.197 2.07-.632c1.193-.83 1.233-1.66 1.233-1.66s-.796-.236-1.99.593c-1.194.83-1.313 1.699-1.313 1.699zm-8.873 4.306s.04.909 1.114 1.857c1.114.948 1.91.75 1.91.75s.04-.79-1.075-1.737c-1.034-.949-1.95-.87-1.95-.87zm-.558 4.662s.358.83 1.711 1.343c1.353.514 2.07.04 2.07.04s-.24-.75-1.632-1.264c-1.313-.514-2.149-.119-2.149-.119zm6.367 5.768s.637.474 1.87.198c1.234-.237 1.552-.909 1.552-.909s-.557-.434-1.79-.197c-1.194.276-1.632.908-1.632.908zm3.064-2.884s.796.158 1.83-.553c1.035-.711 1.075-1.422 1.075-1.422s-.677-.198-1.711.514c-1.075.71-1.194 1.461-1.194 1.461zm-.278-2.054s.795.158 1.83-.553c1.035-.711 1.074-1.422 1.074-1.422s-.676-.198-1.71.513c-1.075.711-1.194 1.462-1.194 1.462zm9.47 2.45s.796.157 1.83-.554c1.035-.71 1.075-1.422 1.075-1.422s-.677-.198-1.711.514c-1.035.671-1.194 1.461-1.194 1.461zm-2.945 5.886s.756-.276 1.274-1.422c.517-1.146.159-1.778.159-1.778s-.677.197-1.194 1.343c-.557 1.146-.239 1.857-.239 1.857zm-5.81.909s-.278.75.28 1.857c.556 1.106 1.273 1.264 1.273 1.264s.278-.632-.279-1.778c-.517-1.106-1.273-1.343-1.273-1.343zm-1.71.237s-.279.75.278 1.857c.557 1.106 1.274 1.264 1.274 1.264s.278-.632-.279-1.778c-.557-1.106-1.273-1.343-1.273-1.343zm-3.303-.158s.239.75 1.353 1.303c1.114.554 1.79.237 1.79.237s-.159-.671-1.273-1.224c-1.114-.593-1.87-.316-1.87-.316zm.477 2.568s.24.75 1.353 1.303c1.115.554 1.791.237 1.791.237s-.16-.671-1.273-1.224c-1.154-.553-1.87-.316-1.87-.316zm3.94 3.95s.756-.276 1.273-1.422c.517-1.145.16-1.778.16-1.778s-.677.198-1.194 1.344c-.557 1.145-.24 1.857-.24 1.857zm4.059-6.597s.756-.277 1.273-1.423c.517-1.145.16-1.777.16-1.777s-.677.197-1.195 1.343c-.557 1.146-.238 1.857-.238 1.857zm5.133 3.12s.597-.513.636-1.777c.04-1.264-.517-1.699-.517-1.699s-.557.435-.597 1.66c-.04 1.264.478 1.817.478 1.817zm8.674 7.27s.796.158 1.83-.553c1.035-.711 1.075-1.422 1.075-1.422s-.676-.198-1.71.514c-1.075.71-1.195 1.461-1.195 1.461zm7.402-2.015s-.08-.79-1.075-1.54c-.994-.751-1.71-.554-1.71-.554s0 .712 1.034 1.462c.955.75 1.75.632 1.75.632zm.955-2.37s-.358-.711-1.552-1.106c-1.194-.395-1.79.04-1.79.04s.238.67 1.471 1.026c1.194.395 1.87.04 1.87.04zm2.745 0s-.04-.553-.756-1.106-1.233-.395-1.233-.395 0 .513.716 1.027c.716.553 1.273.474 1.273.474zm1.99-2.726s-.04-.553-.756-1.106-1.234-.395-1.234-.395 0 .513.717 1.027c.716.553 1.273.474 1.273.474zm-2.945.908s.358-.71-.119-1.856c-.438-1.146-1.154-1.344-1.154-1.344s-.358.593.12 1.739c.437 1.185 1.153 1.462 1.153 1.462zm-7.162-.632s-.04-.553-.756-1.106-1.234-.395-1.234-.395 0 .514.717 1.027c.716.553 1.273.474 1.273.474zm2.467-2.647s-.239-.513-1.114-.79c-.836-.276-1.274.04-1.274.04s.2.474 1.035.75c.836.237 1.353 0 1.353 0zm.597-.553s.318-.355.278-1.106c-.04-.75-.437-.988-.437-.988s-.319.277-.279 1.028c.08.75.438 1.066.438 1.066zm-4.735-1.066s.318-.672-.12-1.7c-.438-1.066-1.074-1.224-1.074-1.224s-.318.553.12 1.62c.397 1.027 1.074 1.304 1.074 1.304zm-9.272 6.992s.716-.237 1.234-1.303c.517-1.067.238-1.62.238-1.62s-.636.158-1.154 1.225c-.557 1.027-.318 1.698-.318 1.698zM53.042 4.188s0 .75.836 1.58c.876.83 1.552.711 1.552.711s.08-.671-.796-1.501c-.835-.79-1.592-.79-1.592-.79zm7.163.079s-.716-.277-1.79.197C57.3 4.938 57.14 5.65 57.14 5.65s.597.316 1.711-.198c1.114-.474 1.353-1.185 1.353-1.185zm2.149 1.067s-.876-.356-2.268.237c-1.393.632-1.592 1.5-1.592 1.5s.756.396 2.149-.236c1.392-.632 1.71-1.501 1.71-1.501zm1.034 3.318s-.915-.276-2.228.553c-1.313.79-1.393 1.66-1.393 1.66s.796.276 2.11-.514c1.313-.79 1.511-1.699 1.511-1.699zm-.238-3.516s-.279.909.477 2.212c.756 1.304 1.632 1.423 1.632 1.423s.318-.79-.438-2.094c-.756-1.304-1.671-1.541-1.671-1.541zm8.794-2.212s-.955.079-1.91 1.264-.756 2.054-.756 2.054.875 0 1.83-1.185c.955-1.225.836-2.133.836-2.133zm1.353 2.291s-.955.079-1.91 1.264c-.955 1.186-.757 2.055-.757 2.055s.876 0 1.831-1.186c.955-1.224.836-2.133.836-2.133zM76.759.79s-.24.909.557 2.213c.795 1.303 1.71 1.382 1.71 1.382s.28-.79-.517-2.094c-.835-1.303-1.75-1.5-1.75-1.5zm2.268.395s-.24.909.557 2.213c.795 1.303 1.71 1.382 1.71 1.382s.28-.79-.516-2.093c-.836-1.304-1.751-1.502-1.751-1.502zm7.321.316s-.955.04-1.95 1.225c-.994 1.185-.795 2.015-.795 2.015s.875 0 1.83-1.146c1.035-1.146.915-2.094.915-2.094zm3.343 4.07s-1.075.04-2.149 1.343c-1.074 1.304-.875 2.252-.875 2.252s.955 0 2.029-1.264c1.074-1.304.995-2.331.995-2.331zm-1.273-3.754s-.836.435-1.234 1.936c-.398 1.462.16 2.173.16 2.173s.795-.355 1.193-1.817c.358-1.462-.12-2.292-.12-2.292zm4.456 3.2s-.955-.118-2.109.91c-1.154.987-1.074 1.896-1.074 1.896s.835.158 1.99-.83c1.153-1.067 1.193-1.976 1.193-1.976zm0 3.675s-.875-.356-2.268.276c-1.393.632-1.552 1.502-1.552 1.502s.756.355 2.149-.277c1.353-.632 1.671-1.501 1.671-1.501zm-.955 5.017s-.875-.355-2.268.277c-1.393.632-1.552 1.501-1.552 1.501s.756.356 2.149-.277c1.353-.592 1.671-1.5 1.671-1.5zm.557 1.62s-.955-.079-2.069.988c-1.114 1.027-.995 1.936-.995 1.936s.836.118 1.95-.949c1.114-1.027 1.114-1.975 1.114-1.975zm3.303-2.884s-.597.158-1.035 1.027c-.437.87-.199 1.383-.199 1.383s.518-.119.955-.988c.478-.869.279-1.422.279-1.422zm-.318 4.464s-.836.237-1.433 1.462c-.597 1.225-.278 1.896-.278 1.896s.756-.157 1.353-1.382c.636-1.186.358-1.976.358-1.976zm3.342.712s-.875-.04-1.83.869c-.995.948-.915 1.699-.915 1.699s.756.118 1.75-.83c.995-.909.995-1.739.995-1.739zm-1.194 7.585s-.238-.83-1.432-1.462-1.91-.276-1.91-.276.16.75 1.353 1.382c1.194.593 1.99.356 1.99.356zm-13.011 3.358s-.2.83.517 1.976c.756 1.145 1.512 1.185 1.512 1.185s.239-.711-.478-1.857c-.756-1.106-1.552-1.304-1.552-1.304zm5.57.83s-.716.237-1.193 1.343c-.478 1.106-.16 1.699-.16 1.699s.677-.158 1.154-1.264c.438-1.107.2-1.778.2-1.778zm-1.67.988s-.08-.83-1.155-1.66c-1.074-.83-1.83-.593-1.83-.593s.04.751 1.114 1.58c1.034.83 1.87.672 1.87.672zm-1.792 8.296s-.08-.83-1.154-1.66c-1.074-.829-1.83-.592-1.83-.592s.04.75 1.114 1.58c1.035.79 1.87.672 1.87.672zm3.582-2.291s-.239-.83-1.512-1.462c-1.274-.632-1.99-.277-1.99-.277s.16.79 1.433 1.383c1.233.632 2.069.356 2.069.356zm1.154-7.507s-.478-.711-1.791-.948c-1.353-.237-1.91.277-1.91.277s.358.671 1.711.908c1.313.237 1.99-.237 1.99-.237zm16.991 2.726s-.478-.71-1.791-.948c-1.353-.237-1.91.277-1.91.277s.358.671 1.711.908c1.313.237 1.99-.237 1.99-.237zM91.323 49.74s-.28-.908-1.632-1.54c-1.353-.633-2.11-.238-2.11-.238s.2.83 1.553 1.462 2.188.316 2.188.316zm-8.238-6.993s-.199.83.518 1.976c.756 1.145 1.512 1.185 1.512 1.185s.239-.711-.478-1.857c-.756-1.146-1.552-1.304-1.552-1.304zm2.746-.079s-.318-.79-1.592-1.264c-1.273-.474-1.95-.079-1.95-.079s.24.711 1.513 1.225c1.273.474 2.029.118 2.029.118zm-33.027 12.01s.477-.71.199-2.014c-.279-1.304-.995-1.66-.995-1.66s-.478.593-.199 1.897c.279 1.304.995 1.778.995 1.778zm1.472-1.066s.478-.711.199-2.015c-.279-1.304-.995-1.66-.995-1.66s-.477.593-.199 1.897c.319 1.304.995 1.778.995 1.778zm.517-21.097s.16-.711-.517-1.66c-.676-.948-1.353-.948-1.353-.948s-.159.633.478 1.541c.716.948 1.392 1.067 1.392 1.067zm-2.029-3.042s.318-.672-.12-1.699c-.437-1.067-1.074-1.225-1.074-1.225s-.318.553.12 1.62c.398 1.027 1.074 1.304 1.074 1.304zm-14.365 1.896s.319-.671-.12-1.699c-.437-1.066-1.074-1.224-1.074-1.224s-.318.553.12 1.62c.438 1.066 1.074 1.303 1.074 1.303zm-2.666-1.146s.318-.671-.12-1.698c-.437-1.067-1.074-1.225-1.074-1.225s-.318.553.12 1.62c.437 1.027 1.074 1.303 1.074 1.303zm-2.586-2.33s-.717.039-1.433.948c-.716.908-.557 1.54-.557 1.54s.637 0 1.353-.908c.716-.87.637-1.58.637-1.58zm-6.248 1.54s.2-.71-.398-1.659c-.597-.988-1.273-1.067-1.273-1.067s-.239.593.358 1.58c.637.988 1.313 1.146 1.313 1.146zm3.104 20.9s.796.04 1.711-.83c.915-.869.836-1.58.836-1.58s-.716-.08-1.632.75c-.875.91-.915 1.66-.915 1.66zm-2.945-1.185s.796.04 1.712-.83c.915-.87.835-1.58.835-1.58s-.716-.08-1.631.75c-.916.87-.916 1.66-.916 1.66zm15.599 1.54s.796.04 1.71-.83c.916-.868.837-1.58.837-1.58s-.717-.078-1.632.751c-.915.87-.915 1.66-.915 1.66zM41.94 43.3s.477-.632.238-1.856c-.238-1.225-.915-1.541-.915-1.541s-.477.553-.199 1.778c.239 1.185.876 1.62.876 1.62zm10.146-7.19s-.358-.711-1.551-1.106c-1.194-.395-1.791.04-1.791.04s.239.671 1.472 1.027c1.194.395 1.87.04 1.87.04zm-3.82-1.422s-.358-.711-1.551-1.106c-1.194-.356-1.791.04-1.791.04s.239.67 1.472 1.026c1.194.395 1.87.04 1.87.04zm-.994-3.674s.08-.79-.756-1.7c-.836-.947-1.592-.868-1.592-.868s-.12.71.716 1.62c.876.908 1.632.948 1.632.948zm-5.73-9.6s.358.71-.08 1.856c-.438 1.146-1.114 1.343-1.114 1.343s-.358-.592.08-1.738c.397-1.146 1.114-1.462 1.114-1.462zm1.114-9.246s.597.435.676 1.58c.12 1.146-.398 1.581-.398 1.581s-.557-.356-.676-1.501c-.04-1.106.398-1.66.398-1.66zm-1.273-1.698s.716.553.835 1.935c.12 1.383-.477 1.936-.477 1.936s-.677-.434-.796-1.817c-.12-1.422.438-2.054.438-2.054zm-3.98-.198s.756-.119 1.751.593c.995.75.995 1.461.995 1.461s-.676.159-1.671-.592c-.955-.711-1.075-1.462-1.075-1.462zm6.765 2.41s.756-.119 1.75.593c.996.75.996 1.461.996 1.461s-.677.158-1.672-.592c-.995-.711-1.074-1.462-1.074-1.462zM53.28 1.936s0 .75.836 1.58c.875.83 1.552.711 1.552.711s.08-.671-.796-1.501c-.836-.79-1.592-.79-1.592-.79zm5.81-.395s-.955.079-1.91 1.264-.756 2.054-.756 2.054.875 0 1.83-1.185c.955-1.225.836-2.133.836-2.133zm-13.29.592s0 .751.835 1.58c.875.83 1.552.712 1.552.712s.08-.672-.796-1.501c-.875-.83-1.592-.79-1.592-.79zm6.485-.71s0 .75-.835 1.58c-.876.83-1.552.71-1.552.71s-.08-.67.796-1.5c.835-.79 1.591-.79 1.591-.79zM64.74 4.425s-.199.671.359 1.66c.557.987 1.233 1.066 1.233 1.066s.239-.593-.318-1.58c-.557-.988-1.274-1.146-1.274-1.146zm13.33 7.23s-.198.671.359 1.66c.557.987 1.233 1.066 1.233 1.066s.239-.593-.318-1.58c-.597-.949-1.273-1.146-1.273-1.146zm15.082 3.516s-.478.553-.358 1.66c.119 1.145.676 1.5.676 1.5s.478-.434.358-1.58c-.159-1.145-.676-1.58-.676-1.58zm7.481 12.88s-.16.75-1.234 1.382c-1.074.632-1.75.356-1.75.356s.119-.672 1.193-1.304 1.791-.434 1.791-.434zm-3.86-1.423s.517.553.438 1.778c-.08 1.225-.677 1.62-.677 1.62s-.517-.474-.438-1.699c.08-1.225.677-1.699.677-1.699zm3.064-1.936s.915.198 1.671 1.423c.756 1.224.438 2.015.438 2.015s-.836-.119-1.592-1.344c-.756-1.225-.517-2.094-.517-2.094zm-.995 3.477s-.597-.514-.637-1.738c-.04-1.225.557-1.66.557-1.66s.557.395.597 1.62c.04 1.225-.517 1.778-.517 1.778zm-9.43 4.543s.159-.75 1.233-1.382c1.074-.632 1.75-.356 1.75-.356s-.119.672-1.193 1.304c-1.075.632-1.79.434-1.79.434zm5.65.83s-.518-.553-.438-1.778c.08-1.224.677-1.62.677-1.62s.517.475.437 1.7c-.08 1.224-.676 1.698-.676 1.698zM91.8 36.94s-.756-.158-1.393-1.225c-.637-1.067-.398-1.738-.398-1.738s.677.079 1.353 1.145c.637 1.067.438 1.818.438 1.818zm.159-2.805s.756.237 1.233 1.343c.518 1.106.16 1.738.16 1.738s-.677-.158-1.194-1.264c-.478-1.106-.199-1.817-.199-1.817zm2.149-3.437s-.677.395-1.87 0c-1.194-.396-1.433-1.067-1.433-1.067s.597-.395 1.75 0c1.234.355 1.553 1.067 1.553 1.067zm3.501 2.805s-.517-.553-.437-1.778c.08-1.225.676-1.62.676-1.62s.517.474.438 1.699c-.08 1.225-.677 1.699-.677 1.699zm-2.467 2.686s-.756-.158-1.392-1.225c-.637-1.066-.398-1.738-.398-1.738s.676.08 1.353 1.146c.636 1.106.437 1.817.437 1.817zm1.353-3.99s.597.513.637 1.738c.04 1.225-.557 1.66-.557 1.66s-.557-.396-.597-1.62c-.04-1.265.517-1.778.517-1.778zm7.76-1.146s-.637-.553-.717-1.896c-.039-1.343.557-1.857.557-1.857s.597.434.677 1.778c.08 1.383-.517 1.975-.517 1.975zm-1.234-3.635s-.716-.355-1.074-1.5c-.358-1.186.079-1.779.079-1.779s.637.277.995 1.422c.358 1.186 0 1.857 0 1.857zm3.382 2.529s-.716-.356-1.074-1.501c-.358-1.186.08-1.778.08-1.778s.636.276.994 1.422c.359 1.185 0 1.857 0 1.857zm-9.63 14.025s-.516.316-1.392.04c-.875-.277-1.074-.751-1.074-.751s.437-.316 1.313-.04c.875.277 1.154.751 1.154.751zm-.914 1.699s-.637 0-1.314-.75c-.676-.751-.557-1.344-.557-1.344s.557-.04 1.234.711c.676.79.637 1.383.637 1.383zm-14.763.711s-.756-.553-.915-2.054c-.16-1.462.477-2.094.477-2.094s.716.434.876 1.936c.119 1.54-.438 2.212-.438 2.212zm-2.348-2.844s-.318.632.12 1.698c.437 1.067 1.074 1.225 1.074 1.225s.318-.553-.12-1.62c-.437-1.027-1.074-1.303-1.074-1.303zm12.455-5.255s-.796.593-2.388.316c-1.591-.276-2.029-1.106-2.029-1.106s.677-.593 2.268-.316c1.592.276 2.149 1.106 2.149 1.106zm-19.538-12.01s-.278.632.16 1.659c.437 1.027 1.074 1.185 1.074 1.185s.278-.553-.12-1.58c-.477-1.027-1.114-1.264-1.114-1.264zm-1.95.987s0 .79.876 1.62c.875.83 1.591.75 1.591.75s.04-.67-.835-1.54c-.876-.87-1.632-.83-1.632-.83zm-1.074 2.055s.278.632 1.353.987c1.034.356 1.591 0 1.591 0s-.198-.592-1.273-.948c-1.034-.355-1.671-.04-1.671-.04zm6.367-8.929s.358-.435 1.273-.474c.915-.04 1.233.355 1.233.355s-.278.396-1.193.475c-.915 0-1.313-.356-1.313-.356zm-3.98 3.082s.359-.83-.199-2.134c-.557-1.304-1.352-1.501-1.352-1.501s-.398.711.159 2.015c.597 1.304 1.392 1.62 1.392 1.62zm.717-2.924s.239-.514-.12-1.343c-.358-.83-.835-.948-.835-.948s-.24.434.12 1.264c.357.83.835 1.027.835 1.027zm-6.486-7.902s.238-.513-.12-1.343-.835-.948-.835-.948-.24.435.119 1.264c.318.83.836 1.027.836 1.027zm25.785 20.9s.159-.75 1.233-1.383c1.075-.632 1.751-.355 1.751-.355s-.12.671-1.194 1.304c-1.074.632-1.79.434-1.79.434zm9.59.04s-.757-.119-1.513-1.107c-.716-.987-.517-1.698-.517-1.698s.716.04 1.433 1.027c.716 1.027.597 1.778.597 1.778zM95.62 28.01s-.756-.119-1.512-1.106c-.717-.988-.518-1.699-.518-1.699s.717.04 1.433 1.027c.756 1.027.597 1.778.597 1.778zm3.86-5.966s-.597.474-1.83.277c-1.234-.198-1.553-.83-1.553-.83s.518-.474 1.751-.276c1.154.237 1.632.83 1.632.83zm1.552-1.185s-.597.474-1.83.277c-1.234-.198-1.553-.83-1.553-.83s.517-.474 1.751-.277c1.194.237 1.632.83 1.632.83zM95.819 8.14s-.597.474-1.83.276c-1.234-.197-1.553-.83-1.553-.83s.518-.474 1.751-.276c1.194.237 1.632.83 1.632.83zm.716-2.687s-.398.672-1.631.87c-1.234.236-1.751-.238-1.751-.238s.318-.632 1.552-.83c1.193-.237 1.83.198 1.83.198zm-6.287-4.188s.477.632.278 1.818c-.198 1.224-.835 1.54-.835 1.54s-.478-.513-.239-1.738c.16-1.185.796-1.62.796-1.62zM83.762.158s.477.632.278 1.817c-.199 1.225-.835 1.541-.835 1.541s-.478-.513-.239-1.738c.199-1.225.796-1.62.796-1.62zm-2.467 22.4s.12.752-.597 1.74c-.756.987-1.472.987-1.472.987s-.16-.672.557-1.66c.756-.948 1.512-1.066 1.512-1.066zm1.95 16.397s.795-.08 1.71.79c.916.83.836 1.54.836 1.54s-.676.12-1.591-.71c-.916-.87-.956-1.62-.956-1.62zm14.245 6.44s-.358-.435-.239-1.383c.12-.909.597-1.186.597-1.186s.358.395.239 1.304c-.12.909-.597 1.264-.597 1.264zm-6.048-6.954s.676.356 1.034 1.54c.319 1.186-.12 1.74-.12 1.74s-.636-.277-.994-1.463c-.318-1.145.08-1.817.08-1.817zm7.839-5.294s-.12.514-.836.948c-.716.435-1.194.237-1.194.237s.08-.474.796-.869c.716-.434 1.234-.316 1.234-.316zm3.422-4.504s-.12.514-.836.948c-.716.435-1.194.237-1.194.237s.08-.474.796-.869c.716-.434 1.234-.316 1.234-.316zm-25.387 6.321s-.16-.316 0-.83c.159-.552.477-.631.477-.631s.16.276 0 .79c-.16.513-.477.671-.477.671zm1.273.395s-.398-.316-.478-1.145c-.08-.83.279-1.146.279-1.146s.398.277.477 1.106c.08.79-.278 1.185-.278 1.185zm7.879 1.423s-.637-.237-1.035-1.225c-.398-.988-.08-1.501-.08-1.501s.597.158.995 1.145c.358.988.12 1.58.12 1.58zm-10.306-21.69s-.478-.198-.796-.948c-.319-.79-.08-1.185-.08-1.185s.438.118.756.908c.319.75.12 1.225.12 1.225zM74.809 8.02s-.478-.197-.796-.948c-.319-.79-.08-1.185-.08-1.185s.438.118.756.908c.358.751.12 1.225.12 1.225zM84 7.902s.636-.237 1.034-1.225c.398-.988.08-1.501.08-1.501s-.597.158-.995 1.145c-.358.988-.12 1.58-.12 1.58zm8.475-3.477s.637-.237 1.035-1.225c.398-.988.08-1.501.08-1.501s-.597.158-.995 1.146c-.359.987-.12 1.58-.12 1.58zM58.176 19.2s.875-.316 1.432-1.7c.557-1.382.12-2.133.12-2.133s-.796.238-1.393 1.62c-.517 1.383-.16 2.213-.16 2.213zM36.409 42.668s.398-.355.438-1.224c.04-.87-.358-1.186-.358-1.186s-.398.277-.438 1.146c0 .87.358 1.264.358 1.264zm-.079 5.453s.398-.356.438-1.225c.04-.87-.358-1.185-.358-1.185s-.398.276-.438 1.145c0 .87.358 1.264.358 1.264zm-3.382-.435s.398-.356.437-1.225c.04-.869-.358-1.185-.358-1.185s-.398.276-.438 1.146c0 .869.359 1.264.359 1.264zm12.932 2.568s.398-.356.438-1.225c.04-.869-.358-1.185-.358-1.185s-.398.276-.438 1.146c0 .869.358 1.264.358 1.264zm10.187 2.054s.12-.671-.478-1.501c-.636-.87-1.233-.87-1.233-.87s-.16.593.437 1.423c.637.87 1.274.948 1.274.948zm1.353-2.291s.04-.672-.677-1.462c-.716-.79-1.353-.711-1.353-.711s-.08.593.637 1.383c.756.79 1.393.79 1.393.79zm4.337-2.924s.04-.671-.676-1.462c-.717-.79-1.353-.71-1.353-.71s-.08.592.636 1.382c.717.79 1.393.79 1.393.79zm-1.433-7.506s.04-.672-.676-1.462c-.716-.79-1.353-.711-1.353-.711s-.08.593.637 1.383c.716.79 1.392.79 1.392.79zM56.504 28.8s-.636-.237-1.591.198c-.955.434-1.114 1.027-1.114 1.027s.557.276 1.512-.158c.955-.435 1.193-1.067 1.193-1.067zm.2 2.134s-.04.671.676 1.422c.716.75 1.353.711 1.353.711s.08-.593-.637-1.343c-.716-.79-1.393-.79-1.393-.79zm-7.84-5.373s-.04.671.677 1.422c.716.75 1.353.711 1.353.711s.08-.593-.637-1.343c-.716-.79-1.393-.79-1.393-.79zm3.343-6.164s-.318.593.04 1.58c.358.988.955 1.186.955 1.186s.318-.514-.04-1.501c-.358-.988-.955-1.265-.955-1.265zm-5.093.435s-.04.672.676 1.422c.716.75 1.353.711 1.353.711s.08-.592-.637-1.343c-.716-.79-1.392-.79-1.392-.79zm1.75-7.823s-.636.237-1.034 1.225c-.398.988-.08 1.501-.08 1.501s.557-.158.955-1.145c.398-.988.16-1.58.16-1.58zm5.293-2.212s-.637.237-1.035 1.225c-.398.987-.08 1.501-.08 1.501s.558-.158.956-1.146c.437-.988.159-1.58.159-1.58zm2.586-3.556s-.597.593-.517 1.897c.08 1.303.716 1.738.716 1.738s.557-.474.478-1.817c-.08-1.304-.677-1.818-.677-1.818zm-15.4-.869s-.596.593-.517 1.896c.08 1.304.717 1.739.717 1.739s.557-.474.477-1.818c-.08-1.303-.676-1.817-.676-1.817zm3.144-1.304s-.278.356-.12 1.067c.16.711.518.87.518.87s.239-.317.12-1.028c-.12-.672-.518-.909-.518-.909zm38.36 4.307s-.279.355-.12 1.066c.16.711.517.87.517.87s.24-.317.12-1.028c-.12-.671-.517-.908-.517-.908zM86.03 3.99s-.279.356-.12 1.067c.16.711.518.87.518.87s.239-.317.12-1.028c-.12-.672-.518-.909-.518-.909zm3.66 21.295s-.317.474-.119 1.304c.2.869.637 1.066.637 1.066s.319-.395.12-1.264c-.2-.79-.637-1.106-.637-1.106zm-7.24 18.964s-.478.197-.716.987c-.28.79 0 1.146 0 1.146s.437-.158.676-.948c.278-.75.04-1.185.04-1.185zm3.143-.474s-.199.395.08 1.066c.278.672.676.751.676.751s.2-.356-.08-1.027c-.238-.632-.676-.79-.676-.79zm2.11-5.057s-.637.197-1.035 1.145c-.438.949-.12 1.502-.12 1.502s.557-.158.995-1.107c.398-.948.16-1.54.16-1.54zm2.864 9.047s-.278-.395-1.034-.553c-.756-.119-1.075.158-1.075.158s.2.395.955.513c.796.158 1.154-.118 1.154-.118zm-3.223 2.647s.398-.395.398-1.264c-.04-.909-.438-1.186-.438-1.186s-.398.316-.358 1.225c0 .87.398 1.225.398 1.225zM97.61 15.487s-.835.237-1.432 1.462-.279 1.896-.279 1.896.756-.158 1.353-1.383c.637-1.185.358-1.975.358-1.975zm-.955-.988s-.716 0-1.512.79c-.795.83-.716 1.462-.716 1.462s.637.08 1.433-.75c.795-.79.795-1.502.795-1.502zM86.308 42.234s-.278.592.12 1.501c.398.909.955 1.067.955 1.067s.278-.514-.12-1.422c-.397-.949-.955-1.146-.955-1.146zm-33.584 8.652s.398-.553.16-1.62c-.24-1.066-.797-1.304-.797-1.304s-.397.474-.159 1.541c.24 1.027.796 1.383.796 1.383zm-4.576.198s.677-.119 1.273-1.028c.597-.908.359-1.5.359-1.5s-.597.078-1.194.987c-.597.908-.438 1.54-.438 1.54zm4.775-10.668s-.08.554.438 1.265c.557.71 1.074.71 1.074.71s.12-.473-.438-1.184c-.517-.712-1.074-.79-1.074-.79zm25.308-3.2s-.716.316-1.87-.197c-1.154-.474-1.314-1.185-1.314-1.185s.637-.317 1.751.158c1.194.553 1.433 1.224 1.433 1.224zm-2.03 2.252s-.756-.276-1.233-1.462c-.478-1.185-.12-1.856-.12-1.856s.717.197 1.194 1.382c.478 1.225.16 1.936.16 1.936zm-2.506-.553s-.279-.513 0-1.383c.278-.869.795-1.027.795-1.027s.279.435 0 1.304c-.278.87-.795 1.106-.795 1.106zm-.2 1.857s-.795-.04-1.591-.948c-.836-.909-.677-1.62-.677-1.62s.717-.04 1.513.909c.795.908.756 1.659.756 1.659zm-1.87.474s-.477-.197-.796-.948c-.318-.79-.08-1.185-.08-1.185s.439.118.757.908c.358.751.12 1.225.12 1.225zm10.625-6.795s-.478.434-.478 1.422.478 1.343.478 1.343.438-.355.438-1.343-.438-1.422-.438-1.422zM64.9 29.275s.398.593 1.473.75c1.114.159 1.552-.276 1.552-.276s-.319-.553-1.393-.71c-1.114-.159-1.632.236-1.632.236zM82.528 4.267s-.358.474-.159 1.422c.2.948.716 1.185.716 1.185s.359-.434.16-1.343c-.2-.948-.717-1.264-.717-1.264zm-2.944 4.78s-.04.435.437.988c.478.553.876.514.876.514s.08-.396-.398-.949c-.478-.553-.915-.553-.915-.553zM48.108 44.881s.319.593 1.353.869c1.035.277 1.512-.118 1.512-.118s-.238-.554-1.273-.83c-.995-.277-1.592.079-1.592.079zm3.025-1.62s-.12.356.159.909c.278.553.636.632.636.632s.16-.316-.159-.87c-.239-.553-.636-.671-.636-.671zm20.85-31.211s.12.513-.398 1.185c-.477.672-.994.711-.994.711s-.12-.474.358-1.146c.557-.671 1.035-.75 1.035-.75zm-4.097 18.37s0 .632.716 1.304c.716.671 1.313.592 1.313.592s.04-.553-.676-1.224c-.756-.672-1.353-.672-1.353-.672zm-.756 1.66s.239.513 1.074.79c.836.276 1.234 0 1.234 0s-.16-.475-.995-.751c-.836-.316-1.313-.04-1.313-.04zm6.685 15.881s-.2-.79.557-1.896c.756-1.067 1.512-1.106 1.512-1.106s.199.711-.517 1.778c-.716 1.106-1.552 1.224-1.552 1.224zm-.04-3.871s-.477.395-.557 1.422c-.04.988.398 1.383.398 1.383s.477-.316.517-1.343c.04-1.028-.358-1.462-.358-1.462zm2.984 2.33s-.437-.118-1.074.238c-.637.355-.676.79-.676.79s.398.158.994-.237c.677-.356.757-.79.757-.79zM62.514 7.705s-.756-.593-2.268-.356c-1.512.237-1.91 1.028-1.91 1.028s.636.592 2.149.316c1.512-.237 2.029-.988 2.029-.988zm24.273 17.818s-.16.514.318 1.264c.438.75.955.79.955.79s.16-.474-.278-1.185c-.478-.75-.995-.869-.995-.869zm-11.739 5.452s.16.514-.238 1.264c-.398.751-.876.83-.876.83s-.199-.435.2-1.185c.437-.75.914-.909.914-.909zm1.473-.434s.08.513-.398 1.185c-.517.671-.995.671-.995.671s-.12-.474.398-1.145c.477-.633.995-.712.995-.712zM63.15 19.912s-.438.316-.557 1.225c-.08.869.278 1.224.278 1.224s.438-.276.517-1.145c.08-.909-.238-1.304-.238-1.304zm30.997-7.19s-.557.079-1.074.83c-.517.75-.318 1.224-.318 1.224s.517-.04.995-.79c.517-.75.397-1.264.397-1.264zm-5.73 14.183s-.159-.316 0-.83c.16-.553.478-.632.478-.632s.16.277 0 .79c-.16.514-.477.672-.477.672zm8.237 14.065s-.159-.316 0-.83c.16-.553.478-.632.478-.632s.16.276 0 .79-.478.672-.478.672zM76.002 9.956s-.198.672.359 1.66c.557.987 1.233 1.066 1.233 1.066s.239-.593-.318-1.58c-.597-.988-1.274-1.146-1.274-1.146zm20.613.158s-.597.474-1.83.276c-1.234-.197-1.553-.83-1.553-.83s.518-.473 1.751-.276c1.194.198 1.632.83 1.632.83zm-1.791 1.462s-.756.83-2.547.83c-1.79 0-2.427-.83-2.427-.83s.637-.79 2.427-.79c1.751 0 2.547.79 2.547.79zM44.368 26.628s.199.356.835.553c.637.198.955-.04.955-.04s-.159-.355-.755-.513c-.677-.197-1.035 0-1.035 0zm-8.834-1.857s.279.553 1.234.83c.955.277 1.432-.04 1.432-.04s-.199-.513-1.194-.79c-.915-.316-1.472 0-1.472 0zm40.588 10.43s.278.553 1.233.83c.955.277 1.433-.04 1.433-.04s-.2-.513-1.194-.79c-.915-.316-1.472 0-1.472 0zM91.68 28.17s.398.75 1.711 1.106c1.314.356 1.95-.118 1.95-.118s-.318-.711-1.631-1.067c-1.313-.355-2.03.079-2.03.079zm7.76 10.944s-.12.513-.836.948c-.716.434-1.194.237-1.194.237s.08-.474.796-.87c.756-.434 1.234-.315 1.234-.315z" fill="#3D3D3D"/><path d="M8.754 119.867v-.751h-1.79v1.304h-.279c-.557-.079-1.194-.395-1.194-1.107 0-1.106 1.552-1.817 2.666-1.935l-.358-1.581c-3.342.751-4.218 2.647-4.218 3.635 0 1.264.995 2.37 3.383 2.41.835 0 1.591-.119 1.79-.198v-1.777zm3.86-2.805c.875 0 1.154.355 1.154.75 0 .553-.597.988-.955 1.185.239.356 1.79 2.647 1.99 2.964l1.512-1.107c-.2-.276-1.473-1.501-1.711-1.778.636-.434 1.074-.948 1.074-1.619 0-.751-.637-1.225-1.87-1.383-.756-.079-1.87-.119-2.985-.119.04.158.04 1.936.04 2.173v3.595h1.83c0-.118-.04-2.172-.04-2.489v-2.172h-.039zm6.964 1.343c0-.988.04-2.292.04-2.45h-1.91c0 .198.04 2.292.04 2.41v.869c0 .198 0 2.094-.04 2.489h1.91c0-.197-.04-1.659-.04-2.449v-.869zm2.347-2.45c0 .158.04 2.213.04 2.331v1.067c0 .198 0 1.936-.04 2.37.637 0 3.502.079 3.701.079v-1.501c-.637.04-1.632.04-1.83.04v-1.502c0-1.027.04-2.686.04-2.884h-1.91zm5.253 5.926c2.507-.276 3.422-1.422 3.422-2.33 0-.751-.716-1.107-1.154-1.304-.517-.277-.796-.395-.796-.593 0-.316.517-.474 1.552-.474l-.239-1.343c-2.069.197-3.303 1.146-3.303 2.054 0 .672.597 1.106 1.115 1.383.676.356.796.474.796.632 0 .395-.876.593-1.672.593l.279 1.382zm9.43-3.16c0 .158 0 2.607-.04 3.042h.797c2.705 0 3.939-.948 3.939-1.857 0-.79-.716-1.146-1.273-1.264v-.04c.875-.395 1.034-.908 1.034-1.185 0-.474-.239-1.146-1.95-1.343-.716-.079-1.352-.079-2.546-.079.04.158.04 1.62.04 1.857v.869zm1.712.474c.557-.04 1.114.237 1.114.751 0 .474-.677.829-1.114.829v-1.58zm0-2.331c.318-.04.915.079.915.593 0 .592-.557.908-.915.908v-1.501zm5.451 5.097c.199-.396.477-1.028.557-1.146l2.467-.119.756 1.265 1.632-.949c-.358-.474-2.547-3.911-3.542-5.373h-.08c-.795 1.225-3.063 5.057-3.302 5.452l1.512.87zm1.035-2.331c.199-.475.517-1.067.676-1.462.16.316.478.908.677 1.383l-1.353.079zm7.56-2.568c.876 0 1.154.355 1.154.75 0 .553-.597.988-.955 1.185.239.356 1.79 2.647 1.99 2.964l1.512-1.107c-.2-.276-1.473-1.501-1.711-1.778.636-.434 1.074-.948 1.074-1.619 0-.751-.637-1.225-1.87-1.383-.756-.079-1.87-.119-2.985-.119.04.158.04 1.936.04 2.173v3.595h1.83c0-.118-.04-2.172-.04-2.489v-2.172h-.039zm5.014 4.819c2.507-.276 3.422-1.422 3.422-2.33 0-.751-.716-1.107-1.154-1.304-.517-.277-.796-.395-.796-.593 0-.316.517-.474 1.552-.474l-.239-1.343c-2.069.197-3.302 1.146-3.302 2.054 0 .672.596 1.106 1.114 1.383.676.356.796.474.796.632 0 .395-.876.593-1.672.593l.279 1.382zm11.221-4.819c.876 0 1.154.355 1.154.75 0 .553-.597.988-.955 1.185.239.356 1.79 2.647 1.99 2.964l1.512-1.107c-.2-.276-1.473-1.501-1.711-1.778.636-.434 1.074-.948 1.074-1.619 0-.751-.637-1.225-1.87-1.383-.756-.079-1.87-.119-2.984-.119.04.158.04 1.936.04 2.173v3.595h1.83c0-.118-.04-2.172-.04-2.489v-2.172h-.04zm8.754 3.358c-.398.039-1.631 0-1.83 0v-.948c.199 0 1.273.039 1.472.039l-.04-1.304c-.358.04-1.313.079-1.472.079v-1.066c.16 0 1.433-.04 1.751-.04l-.04-1.343c-.318.039-3.064.118-3.501.118 0 .237.04 2.213.04 2.331v1.107c0 .197 0 1.935-.04 2.37.437 0 3.382.079 3.66.079v-1.422zm1.91 1.461c2.507-.276 3.422-1.422 3.422-2.33 0-.751-.716-1.107-1.153-1.304-.518-.277-.796-.395-.796-.593 0-.316.517-.474 1.552-.474l-.24-1.343c-2.068.197-3.302 1.146-3.302 2.054 0 .672.597 1.106 1.114 1.383.677.356.796.474.796.632 0 .395-.875.593-1.671.593l.278 1.382zm7.959-.158c0-.158-.04-1.264-.04-2.133v-2.252c.12 0 1.631.04 1.79.04v-1.423c-.397.04-2.188.079-2.347.079h-.677c-.08 0-2.029-.039-2.387-.079v1.423c.239 0 1.432-.04 1.79-.04v2.134c0 .869 0 2.054-.04 2.251h1.91zm5.491.119c2.746 0 3.581-1.936 3.581-3.161 0-1.777-1.233-2.844-3.183-2.844-2.427 0-3.541 1.699-3.541 3.239-.04 1.304.954 2.766 3.143 2.766zm.08-1.264c-.677 0-1.234-.553-1.234-1.66 0-.987.517-1.856 1.472-1.856.796 0 1.274.592 1.274 1.659-.04 1.225-.637 1.857-1.512 1.857zm7.003-3.516c.875 0 1.154.355 1.154.75 0 .553-.597.988-.955 1.185.239.356 1.791 2.647 1.99 2.964l1.512-1.107c-.199-.276-1.473-1.501-1.711-1.778.636-.434 1.074-.948 1.074-1.619 0-.751-.637-1.225-1.87-1.383-.756-.079-1.87-.119-2.985-.119.04.158.04 1.936.04 2.173v3.595h1.83c0-.118-.04-2.172-.04-2.489v-2.172h-.039zm14.007 4.701V118.8c.119.079 3.064 2.41 4.058 3.042l.08-.04c.04-1.145.239-4.701.358-5.886l-1.671-.04v2.963a642.594 642.594 0 0 1-4.059-3.042l-.079.04c-.08 1.067-.279 5.254-.319 5.807l1.632.119zm6.406.118c2.507-.276 3.422-1.422 3.422-2.33 0-.751-.716-1.107-1.154-1.304-.517-.277-.796-.395-.796-.593 0-.316.518-.474 1.552-.474l-.238-1.343c-2.07.197-3.303 1.146-3.303 2.054 0 .672.597 1.106 1.114 1.383.677.356.796.474.796.632 0 .395-.876.593-1.671.593l.278 1.382zm-14.603.08c.199-.396.477-1.028.557-1.146l2.467-.119.756 1.265 1.631-.949c-.358-.474-2.546-3.911-3.541-5.373h-.08c-.796 1.225-3.064 5.057-3.303 5.452l1.513.87zm1.074-2.331c.199-.475.517-1.067.676-1.462.16.316.478.908.677 1.383l-1.353.079zm-74.968-.396l.597-.632 1.79 1.739-.596.632-1.79-1.739zm1.154-1.145l.637-.632 1.79 1.738-.596.632-1.83-1.738zm29.247 1.145l.597-.632 1.79 1.739-.596.632-1.79-1.739zm1.154-1.145l.637-.632 1.79 1.738-.596.632-1.83-1.738zm-58.176-9.364V90.67c1.433 0 2.706-.079 3.82-.237v.316c-.676.119-1.233.475-1.71 1.107-.478.632-.677 1.936-.677 3.91v8.139c0 1.778.239 2.964.716 3.556.478.593 1.035.988 1.671 1.146v.316a35.934 35.934 0 0 0-3.82-.198zM3.78 90.67v18.055c-.835 0-2.109.079-3.78.198v-.316c.875-.237 1.512-.711 1.83-1.501.359-.751.518-2.134.518-4.109v-7.665c0-1.501-.16-2.568-.518-3.279-.358-.671-.955-1.146-1.83-1.343v-.316c1.393.158 2.666.237 3.78.276zm11.261 9.403c.597.988 1.114 1.857 1.552 2.568.478.711.876 1.343 1.273 1.897.399.553.717.987 1.035 1.343.319.355.597.671.876.948.198.198.358.356.557.474.159.119.318.237.477.316.16.079.319.158.438.198.159.039.318.039.438.039.198 0 .358-.039.596-.079.2-.039.438-.118.677-.197l.199.553c-.319.118-.637.237-.915.355a3.247 3.247 0 0 1-.756.237 4.897 4.897 0 0 1-.637.158c-.199.04-.358.04-.517.04-.16 0-.319 0-.438-.04-.12-.039-.279-.079-.398-.158-.12-.079-.279-.158-.398-.276-.12-.119-.279-.237-.438-.356a11.275 11.275 0 0 1-.875-.948c-.318-.395-.716-.869-1.114-1.462-.438-.592-.876-1.303-1.393-2.094a162.89 162.89 0 0 1-1.711-2.805v-.079l.517-.71a231.284 231.284 0 0 1 2.07-2.885 31.88 31.88 0 0 1 1.79-2.252 10.345 10.345 0 0 1 1.592-1.462c.517-.355.995-.513 1.512-.513.199 0 .398.04.557.079.16.04.279.118.398.237.12.079.16.197.239.316.04.118.08.276.08.395 0 .237-.04.435-.16.672-.12.237-.239.395-.438.553h-.04a1.32 1.32 0 0 0-.556-.395 1.412 1.412 0 0 0-.558-.119c-.358 0-.756.158-1.193.435-.438.276-.876.671-1.353 1.185a21.562 21.562 0 0 0-1.433 1.699l-1.552 2.133zm-3.382-4.899c0-.197 0-.395-.04-.553-.04-.158-.08-.276-.159-.355a.77.77 0 0 0-.358-.198 2.088 2.088 0 0 0-.557-.079c-.319 0-.677.04-1.154.118l-.08-.553c.677-.158 1.234-.316 1.711-.395a7.126 7.126 0 0 1 1.154-.118c.319 0 .557.04.717.118.159.08.318.198.397.356.08.158.12.356.16.593 0 .237.04.474.04.79v.513c0 .277 0 .632-.04 1.028 0 .434-.04.908-.04 1.461s-.04 1.146-.04 1.818c0 .671-.04 1.343-.08 2.094-.04.711-.04 1.461-.08 2.251-.039.791-.039 1.541-.079 2.371-.04.79-.04 1.58-.08 2.37l-1.63.198h-.12c.04-1.304.12-2.568.16-3.753.039-1.186.079-2.331.118-3.437.04-1.107.04-2.213.08-3.28v-3.358zm27.138 9.522c0 .118-.04.197-.04.316v.316c0 .513.08.948.2 1.303.119.356.318.672.596.87.239.237.557.395.915.513.358.119.756.158 1.234.158a4.53 4.53 0 0 0 1.273-.197 3.47 3.47 0 0 0 1.075-.553c.318-.237.557-.553.756-.949.199-.355.278-.79.278-1.303 0-.316-.04-.593-.12-.869-.079-.238-.198-.514-.357-.712-.16-.197-.319-.434-.518-.592-.199-.198-.437-.356-.676-.514a12.547 12.547 0 0 0-.756-.474c-.279-.158-.517-.316-.796-.434-.278-.159-.597-.317-.875-.475-.279-.158-.557-.355-.836-.513-.239-.198-.517-.395-.716-.593a4.722 4.722 0 0 1-.597-.711 5.805 5.805 0 0 1-.398-.87c-.08-.315-.16-.67-.16-1.066 0-.474.08-.908.2-1.343.12-.435.278-.79.517-1.146.239-.355.477-.672.796-.948a4.787 4.787 0 0 1 1.034-.711c.359-.198.757-.316 1.194-.435.438-.079.836-.158 1.273-.158.2 0 .398 0 .637.04s.478.079.677.118c.238.04.437.119.676.198.2.079.398.158.557.237.16.079.279.197.398.316.08.118.16.237.16.356v1.185c0 .237 0 .513-.04.83 0 .315-.04.632-.04.948l-.677-.04c0-.158.04-.316.04-.474a3.7 3.7 0 0 0-.199-1.185 2.19 2.19 0 0 0-.557-.87c-.239-.237-.557-.394-.875-.513-.358-.119-.717-.158-1.154-.158-.438 0-.836.079-1.194.198a2.42 2.42 0 0 0-.955.592c-.279.237-.478.553-.637.87-.159.355-.239.71-.239 1.145 0 .316.04.632.12.909.08.276.199.513.358.75.16.237.358.435.557.632.199.198.438.356.677.514.238.158.517.316.795.474.279.158.557.316.836.435.279.158.597.316.875.474.279.158.558.316.836.513.279.198.517.395.716.593.239.198.398.435.597.711.16.237.279.553.398.83.08.316.16.671.16 1.027 0 .632-.08 1.185-.24 1.659a4.29 4.29 0 0 1-.676 1.265 4.32 4.32 0 0 1-.995.908 6.36 6.36 0 0 1-1.154.593 4.477 4.477 0 0 1-1.194.316c-.397.079-.795.079-1.114.079-.437 0-.875-.04-1.273-.079a13.995 13.995 0 0 1-1.035-.237 1.738 1.738 0 0 1-.716-.356c-.159-.118-.239-.276-.239-.395 0-.316 0-.75.04-1.303.04-.554.04-1.265.08-2.015h.517zm42.697-9.522c0-.197 0-.395-.04-.553a.5.5 0 0 0-.16-.355.628.628 0 0 0-.318-.198 1.857 1.857 0 0 0-.557-.079c-.159 0-.318 0-.557.04-.238 0-.438.039-.676.079l-.08-.554c.677-.158 1.273-.316 1.751-.395a7.558 7.558 0 0 1 1.194-.118c.318 0 .517.04.716.118.16.08.279.198.358.356.08.158.12.356.12.593v1.224c0 .277 0 .672-.04 1.107 0 .474-.04 1.027-.04 1.62 0 .631-.04 1.264-.04 1.975 0 .671-.04 1.382-.08 2.133a38 38 0 0 0-.079 2.134c-.04.671-.08 1.343-.12 1.935-.04.633-.079 1.146-.119 1.62.438-.079.876-.118 1.234-.158.398-.039.756-.039 1.074-.039.478 0 .915 0 1.313.039.398.04.836.04 1.194.04.279 0 .517-.04.756-.119.239-.079.398-.237.557-.434.16-.198.279-.474.398-.83.12-.356.16-.79.239-1.343l.597.039c0 .79-.04 1.462-.16 1.976a4.022 4.022 0 0 1-.397 1.224c-.16.316-.398.514-.637.632-.239.119-.517.158-.836.158-.238 0-.517 0-.796-.079-.278-.039-.596-.079-.955-.158-.358-.039-.716-.118-1.114-.158a13.183 13.183 0 0 0-1.313-.079c-.438 0-.875.04-1.353.079-.477.04-.995.158-1.512.277h-.12c.08-.632.16-1.304.2-2.015.08-.711.12-1.462.159-2.252.04-.79.08-1.58.08-2.37.04-.83.04-1.62.08-2.45 0-.83 0-1.62.039-2.41 0-.75.04-1.501.04-2.252zm11.38 0c0-.197 0-.395-.04-.553-.04-.158-.08-.276-.159-.355a.628.628 0 0 0-.318-.198 1.857 1.857 0 0 0-.557-.079c-.16 0-.319 0-.557.04-.2 0-.438.039-.677.079l-.08-.554c.677-.158 1.274-.316 1.751-.395a7.557 7.557 0 0 1 1.194-.118c.319 0 .518.04.716.118.16.08.28.198.359.356.08.158.119.356.119.593s.04.474.04.79v.79c0 .434-.04.987-.04 1.66-.04.67-.04 1.461-.08 2.33s-.04 1.817-.08 2.805a75.73 75.73 0 0 0-.079 3.082c-.04 1.066-.08 2.094-.08 3.16l-1.63.198h-.12c.04-1.304.12-2.529.159-3.714.04-1.185.08-2.291.12-3.397.04-1.107.04-2.213.079-3.28-.04-1.106-.04-2.212-.04-3.358zm7.043-.513c.16.513.358 1.185.557 1.936.199.75.438 1.62.637 2.647.239 1.027.478 2.172.756 3.516.239 1.303.517 2.805.796 4.464h.04c.437-.83.835-1.62 1.233-2.449.398-.791.796-1.62 1.154-2.371.358-.75.677-1.501.995-2.212a21.58 21.58 0 0 0 .756-1.976c.199-.632.398-1.185.517-1.698a5.8 5.8 0 0 0 .16-1.344c0-.948-.319-1.699-.955-2.252l.039-.118c.08 0 .16-.04.279-.04h.278c.239 0 .478.04.677.08.239.039.438.157.597.276a1.6 1.6 0 0 1 .438.553c.119.237.159.513.159.83 0 .316-.08.71-.199 1.224a84.31 84.31 0 0 1-.597 1.818 45.056 45.056 0 0 1-.995 2.33c-.398.87-.796 1.779-1.273 2.727-.478.987-.995 2.015-1.552 3.081a90.318 90.318 0 0 1-1.791 3.279l-1.114.079-.159-.039c-.716-3.595-1.313-6.558-1.83-8.81-.518-2.252-.916-3.872-1.314-4.82-.08-.237-.199-.435-.278-.632a1.753 1.753 0 0 0-.319-.435.95.95 0 0 0-.437-.237 2.425 2.425 0 0 0-.597-.079c-.16 0-.319 0-.517.04-.2 0-.398.039-.637.079l-.08-.593c.717-.158 1.313-.316 1.79-.395.478-.08.876-.158 1.195-.158.238 0 .437.04.597.079.159.079.278.158.397.316.12.158.2.316.279.514.16.237.239.513.318.79zm11.819.513c0-.197 0-.395-.04-.553-.04-.158-.08-.276-.159-.355a.633.633 0 0 0-.319-.198 1.853 1.853 0 0 0-.557-.079c-.159 0-.318 0-.557.04-.199 0-.438.039-.676.079l-.08-.554c.676-.158 1.273-.316 1.751-.395a7.547 7.547 0 0 1 1.194-.118c.318 0 .517.04.716.118.159.08.278.198.358.356.08.158.119.356.119.593s.04.474.04.79v.79c0 .434-.04.987-.04 1.66-.039.67-.039 1.461-.079 2.33s-.04 1.817-.08 2.805c-.04.988-.079 2.015-.079 3.082-.04 1.066-.08 2.094-.08 3.16l-1.631.198h-.12c.04-1.304.12-2.529.159-3.714.04-1.185.08-2.291.12-3.397.04-1.107.04-2.213.079-3.28-.079-1.106-.039-2.212-.039-3.358zm-82.091 13.907c-.915 0-1.79-.158-2.547-.474a5.416 5.416 0 0 1-1.99-1.422c-.556-.633-.994-1.423-1.313-2.331-.318-.949-.477-2.015-.477-3.279 0-.791.08-1.541.199-2.292.12-.75.318-1.462.597-2.133.239-.672.597-1.265.955-1.818a6.609 6.609 0 0 1 1.353-1.422 6.54 6.54 0 0 1 1.71-.948c.637-.237 1.314-.316 2.07-.316.915 0 1.75.158 2.547.474.756.316 1.432.79 1.99 1.422.556.632.994 1.422 1.312 2.37.319.949.478 2.015.478 3.28 0 .79-.08 1.541-.199 2.291a8.543 8.543 0 0 1-.597 2.094 7.195 7.195 0 0 1-.955 1.817 6.59 6.59 0 0 1-1.353 1.423 6.541 6.541 0 0 1-1.71.948c-.598.237-1.314.316-2.07.316zm.318-.869c.518 0 1.035-.079 1.433-.277.438-.158.835-.434 1.154-.711.358-.316.636-.711.875-1.146a7.39 7.39 0 0 0 .637-1.501c.159-.553.278-1.146.358-1.778.08-.632.12-1.304.12-2.015 0-1.224-.12-2.33-.359-3.24a7.408 7.408 0 0 0-.995-2.251c-.437-.593-.915-1.027-1.472-1.344a3.99 3.99 0 0 0-1.79-.434c-.518 0-1.035.079-1.433.276a3.235 3.235 0 0 0-1.154.751 3.665 3.665 0 0 0-.875 1.146 7.428 7.428 0 0 0-.637 1.501 11.72 11.72 0 0 0-.358 1.778c-.08.632-.12 1.304-.12 1.975 0 1.225.12 2.331.358 3.24.24.909.597 1.659.995 2.291.438.593.916 1.028 1.473 1.344.557.237 1.154.395 1.79.395zm88.099-3.2c-.159.474-.318.869-.437 1.224-.12.356-.239.633-.319.909-.079.237-.159.474-.238.672-.08.197-.12.355-.199.513-.08.158-.159.316-.239.395a1.23 1.23 0 0 1-.279.198c-.119.039-.238.079-.358.079h-.995l-.079-.079a203.547 203.547 0 0 0 1.552-3.398 120.81 120.81 0 0 1 1.432-3.121c-.079-.158-.159-.276-.159-.395 0-.197.159-.276.438-.276.835-1.818 1.591-3.438 2.228-4.86.677-1.383 1.234-2.568 1.751-3.516a.863.863 0 0 1 .159-.198l.239-.118c.079-.04.199-.04.278-.08h.279c.119 0 .279 0 .398.04s.278.08.398.119c.278 1.58.557 3.002.796 4.267.238 1.264.477 2.37.676 3.358.199.988.398 1.857.597 2.568.199.75.358 1.383.517 1.896.159.514.319.948.518 1.304.159.356.358.593.517.79.199.198.358.316.597.395.199.079.437.119.676.119.159 0 .319 0 .478-.04.159-.039.358-.079.517-.158l.199.553c-.517.237-1.035.474-1.512.593-.478.118-.915.197-1.273.197-.199 0-.398-.039-.597-.118-.199-.079-.358-.198-.557-.395a7.881 7.881 0 0 1-.518-.751 9.162 9.162 0 0 1-.477-1.185c-.159-.474-.319-1.067-.517-1.738-.16-.672-.359-1.423-.558-2.331-.835 0-1.671.039-2.506.039-.836.04-1.672.079-2.587.119-.159.474-.358.908-.477 1.303-.12.435-.239.791-.359 1.107zm5.77-3.358c-.079-.435-.199-.949-.318-1.502a22.39 22.39 0 0 1-.318-1.738c-.12-.593-.239-1.264-.359-1.936l-.358-2.015h-.039c-.677 1.343-1.234 2.647-1.751 3.872a123.17 123.17 0 0 0-1.393 3.398c.796 0 1.552-.04 2.308-.04.716-.039 1.472-.039 2.228-.039zm-49.421 5.294c1.273-1.699 1.87-4.228 1.87-7.625 0-3.003-.637-5.334-1.87-7.033 2.347 1.422 3.541 3.793 3.541 7.23.04 3.319-1.154 5.808-3.541 7.428zM60.523 92.251c-1.273 1.935-1.91 4.424-1.91 7.467 0 2.726.597 5.136 1.83 7.151-2.347-1.541-3.5-3.951-3.5-7.31 0-3.476 1.193-5.886 3.58-7.308zm12.893 7.348c0-5.492-1.99-8.218-6.009-8.218-3.939 0-5.889 2.805-5.889 8.416 0 5.294 1.99 7.941 5.969 7.941 3.98 0 5.929-2.726 5.929-8.139zm1.631 0c0 2.094-.318 3.872-.955 5.334-.636 1.422-1.512 2.489-2.666 3.2-1.114.711-2.467 1.066-3.939 1.066-2.387 0-4.258-.869-5.57-2.568-1.314-1.698-1.99-4.029-1.99-7.032 0-3.121.676-5.492 1.99-7.15 1.352-1.62 3.183-2.45 5.49-2.45 2.348 0 4.218.83 5.571 2.45 1.393 1.619 2.07 3.99 2.07 7.15zM43.93 113.98h3.144v.751H43.93v-.751zm61.956 0h3.144v.751h-3.144v-.751z" fill="#3D3D3D"/></svg>