<?xml version="1.0" standalone="no"?>
<!DOCTYPE svg PUBLIC "-//W3C//DTD SVG 1.1//EN" "http://www.w3.org/Graphics/SVG/1.1/DTD/svg11.dtd">
<svg xmlns="http://www.w3.org/2000/svg">
<metadata>Copyright (C) 2017 by original authors @ fontello.com</metadata>
<defs>
<font id="modcellicons" horiz-adv-x="1000" >
<font-face font-family="modcellicons" font-weight="400" font-stretch="normal" units-per-em="1000" ascent="850" descent="-150" />
<missing-glyph horiz-adv-x="1000" />
<glyph glyph-name="tv" unicode="&#xe800;" d="M778-150h-554c-123 0-224 100-224 223v554c0 123 101 223 224 223h554c123 0 224-100 224-223v-554c0-123-101-223-224-223l0 0z m188 777c0 103-84 187-188 187h-554c-104 0-188-84-188-187v-554c0-103 84-187 188-187h554c104 0 188 84 188 187v554l0 0z m-327-349c3-2 7-3 14-3 2 0 5 0 7 0 2 1 4 1 6 1v-31c-4 0-8-1-12-1-4 0-8 0-12 0-6 0-12 0-18 1-5 1-10 2-14 5-5 2-8 6-10 10-3 5-4 11-4 18v86h-25v27h25v44c35 0 40-10 40-37v-7h0 30v-27h-30v-72c0-7 1-11 3-14l0 0z m141-33h-49l-49 146h42l31-106 32 106h42l-49-146 0 0z m-279 151c-1-12-3-25-6-37-9 12-22 22-38 30 21 20 36 41 44 58 2-15 2-33 0-51l0 0z m-67 2c-35 12-80 19-127 28 68-2 131 17 175 73 2-2 4-5 5-7 2-4 4-7 5-11 1-1 1-3 2-4-1-24-25-52-60-79l0 0z m-202 46c-8 2-16 4-24 6 14 13 30 25 47 34 53 30 118 45 167 40 23-2 42-9 54-20-51-64-139-79-244-60l0 0z m-56-119c-5 14-9 26-9 35-1 10 1 21 3 31 5 15 12 29 22 42 62-14 158-27 221-51-84-58-209-101-237-57l0 0z m262 47c28-15 44-33 39-56-21-70-207-153-273-44l-1 0c-1 2-2 4-3 6 68-18 170 35 238 94l0 0z m26-93c-12-23-26-44-42-61-4-4-8-8-12-12-16-15-35-27-54-33-17-5-34-4-51 2-17 7-33 18-49 32-3 3-6 6-9 9 74-32 178 15 217 63l0 0z" horiz-adv-x="1002" />

<glyph glyph-name="modcell" unicode="&#xe801;" d="M778 850h-555c-122 0-223-100-223-223v-554c0-123 101-223 223-223h555c123 0 224 100 224 223v554c0 123-101 223-224 223z m188-777c0-103-84-187-188-187h-555c-103 0-187 84-187 187v554c0 103 84 187 187 187h555c104 0 188-84 188-187v-554z m-601 404c-11 3-21 6-31 9 17 17 38 32 62 45 69 39 156 59 221 53 29-3 54-12 71-27-68-84-185-105-323-80l0 0z m-74-157c-7 19-12 35-12 46-1 14 1 28 4 42 6 19 16 38 29 55 82-18 209-35 293-67-112-77-277-134-314-76l0 0z m430 95c-2-17-5-33-9-50-10 16-28 29-50 40 28 27 49 54 59 77 3-21 3-44 0-67l0 0z m-88 1c-47 16-107 26-169 37 90-2 174 23 232 97 2-3 4-6 6-9 3-5 5-9 7-14 1-2 2-4 3-6-2-31-34-69-79-105l0 0z m90-282c0-5-3-10-8-12-11-3-38-7-100-7-62 0-89 4-101 7-4 2-8 7-8 12 1 22 9 50 76 65-15 10-25 28-25 47 0 32 26 58 58 58 32 0 58-26 58-58 0-19-10-37-25-47 66-15 74-43 75-65l0 0z m-34 174c-2-7-5-14-10-21-13 21-37 35-64 35-42 0-76-34-76-76 0-13 3-27 10-38-16-6-28-13-38-22-70-14-143-2-184 65l0 0c-2 2-3 5-5 7 90-23 226 47 315 124 37-19 59-43 52-74l0 0z m-201-173c0-7 3-14 7-19-11 0-22 3-33 7-23 8-45 23-65 42-4 3-8 7-12 11 34-14 73-16 111-10-5-10-7-20-8-31l0 0z" horiz-adv-x="1002" />

<glyph glyph-name="fill-1" unicode="&#xe802;" d="M959 657h-3v-1l-2-2c-3-3-7-8-12-15a289 289 0 0 1-25-36c-8-11-15-22-23-33a1088 1088 0 0 1-23-35 1426 1426 0 0 1-36-62 1052 1052 0 0 1-27-53l-2-3c-1-1-2-3-2-4l-2-6a10 10 0 0 1-3-5 8 8 0 0 0-2-3 13 13 0 0 1-1-6c0-1-1-1-1-1v-3h2v1l1 2 3 4a70 70 0 0 0 4 8l3 6c1 2 2 3 2 5l2 2c6 13 15 28 25 46 10 18 24 41 41 68a8882 8882 0 0 0 24 38c7 12 13 22 20 30l24 37c3 4 5 7 7 10 1 2 3 4 3 6 2 1 3 3 3 4v1z m-46-42h-1c-1 0-3-2-8-8a30 30 0 0 1-5-6c-1-3-3-6-7-10a38 38 0 0 1-4-6 78 78 0 0 1-5-8c-1-2-3-5-5-8-2-3-4-6-5-10-14-19-24-36-32-51-4-8-6-12-6-14v-1h3l8 13c3 4 7 9 12 17l20 33 12 17c2 4 5 8 8 14 3 4 4 8 6 10 2 3 3 5 5 7 1 1 2 3 2 4 0 2 0 3 1 4 0 1 1 1 1 2v1z m-80-127h-1c-2 0-4-2-6-6-3-4-4-7-2-9 0-1 0-1 1-1 2 0 3 2 6 7 3 5 4 8 2 9z m-223 57h2c1 1 2 3 4 6 1 2 4 8 9 18 1 4 3 7 4 11 1 3 2 6 3 7v5h-1c-1 0-2-1-4-3-1-2-4-8-8-18-4-8-6-14-7-18-2-3-2-6-2-6v-2z m29 58c1 5 1 8 0 8h-1c-3 0-4-2-5-6-2-5-3-8-1-9h1c2 0 4 2 6 7z m7 24l1 1c2 5 4 11 6 20 3 9 6 20 8 35 2 15 3 26 3 35 0 8 0 15-1 20v6c0 0 0 1-1 2 0 1 0 1-1 2v1h-1v-1h-1v-13c0-4-1-11-1-19 0-8-2-19-4-32-2-11-3-20-5-28-2-8-4-14-5-20a10 10 0 0 1-2-4 9 9 0 0 0-1-4c-1-4-2-8-2-9v-5l1-1 1 1 5 13z m-278 159c0 1 0 1-1 0l-6-2c-3-2-6-3-8-4l-1-1-5-2-14-8c-2-1-3-2-4-2a28 28 0 0 0-4-2l-16-10c-1 0-2-1-3-2l-15-11c-5-2-8-5-10-7a9 9 0 0 0-2-1 8 8 0 0 1-3-1 144 144 0 0 1-16-12l-9-7-8-7a971 971 0 0 1-33-25c-9-8-17-14-24-20-6-5-12-10-16-15-5-5-9-9-13-12-3-2-6-5-8-7-1-2-3-3-5-5-1 0-1-1-1-2 0 0 0-1-1-1l0-1 1 0c1 0 2 1 3 2 2 1 7 5 14 11l30 25c13 11 32 26 57 46l9 7 9 6c4 4 9 7 15 11a22 22 0 0 0 6 4l8 7 13 8 3 1 3 3 15 9c3 3 5 5 6 5l16 10 5 3c4 2 7 4 8 4 3 2 4 3 5 3l0 1c1 0 1 0 1 1l-1 0z m-177-141c1 0 1 0 2 1a7 7 0 0 0 3 2 10 10 0 0 1 4 2c2 2 6 5 10 8 5 4 11 8 17 13l38 31c4 3 7 5 10 7 3 2 5 4 6 5 6 5 9 8 9 9 1 0 2 0 2 1l-1 0c0 1-1 1-1 1 0 0 0 0-1-1a8 8 0 0 1-3-1c-1 0-4-2-8-5a108 108 0 0 0-6-4c-3-2-6-5-10-7-1-1-3-2-5-3a26 26 0 0 1-5-4l-3-3c-3-2-5-3-7-5a86 86 0 0 1-7-5c-16-13-29-24-39-34-3-2-5-4-5-5a5 5 0 0 1-1-2l0-1 1 0z m105 82c1 0 3 0 7 2 4 3 5 5 6 6l-1 1-1 1c-3 0-5-1-7-3-5-3-6-6-5-7l1 0z m292-666h-1l-3-3a82 82 0 0 1-7-8l-17-18c-1-2-3-4-6-7-2-2-4-5-7-10l-17-20-19-20a41 41 0 0 0-5-4 44 44 0 0 1-4-4c-1-1-3-4-6-7l-6-5c-2-3-4-5-5-6a50 50 0 0 0-4-4 42 42 0 0 1-5-4 142 142 0 0 1-9-10c-2-2-3-4-4-4v-2c0 0 1-1 1-1l2 1c1 0 6 4 14 12 1 1 3 2 4 3 2 1 3 2 5 4l6 6 5 6a9 9 0 0 0 3 1 10 10 0 0 1 2 2l12 12 17 20c3 3 6 6 8 8 3 3 5 6 7 8l4 4c4 6 8 10 9 12l4 4c1 1 2 3 4 5 1 2 2 4 4 5l2 4c2 1 3 4 5 7 4 4 6 6 6 8a8 8 0 0 0 2 4l-1 1z m-88-81v-1h2c0 0 1 0 2 1 1 0 2 1 5 4 1 1 3 3 4 4 2 2 3 3 5 5 2 1 5 3 7 7a11 11 0 0 1 6 7l2 1c5 6 9 11 12 15 4 4 7 8 9 12 2 2 2 4 2 6v1h-1c0-1 0-1-1-1-1-1-1-1-2-1 0 0-1-1-3-3-1-1-4-4-7-7-4-4-9-9-15-16l-8-9c-1-2-2-3-3-4a18 18 0 0 0-3-3c-1-3-3-5-4-6a40 40 0 0 0-4-5c-1-1-2-3-3-5-1 0-2-1-2-2z m-9-10v-2h1c2 0 3 1 5 3 2 1 2 3 2 5v2h-2c-1 0-2-1-4-2-3-4-3-6-2-6z m61 154c-5-2-10-4-15-5a292 292 0 0 1-74-47c-19-16-38-37-57-62-18-25-31-57-38-94 18 15 37 33 58 54 18 18 39 40 63 66 24 27 49 58 77 93-5-1-10-3-14-5z m224 63c1 0 1-1 2-1 0 0 2-1 4-2 1 0 3 0 4 0 1-1 3-1 5-1 6-2 12-3 20-3 5-2 10-3 13-4 4-1 7-2 10-2 2 0 3 0 3-1 1 0 2 0 3 0 2-1 5-2 7-2 1 0 1 1 1 2v1l-7 3a222 222 0 0 1-29 10 187 187 0 0 1-10 1 62 62 0 0 1-8 1 26 26 0 0 1-9 1h-2c-3 0-5-1-7-2v-2z m72-17c0-1 1-3 4-3h3c2 0 3 0 3 1h1v-1c-1-1-1-1 0-1l1-2c2-2 5-4 8-5 2-1 3-2 5-4l1-1 2-1h1c1-1 2-1 4-1h1v1a9 9 0 0 1-1 3c-1 0-2 1-4 3a25 25 0 0 1-6 4c-4 3-7 5-9 5h-3c0 2-2 4-5 5-1 0-1 1-2 1-1 0-2-1-4-3v-1z m234 584a1950 1950 0 0 1-63-78 1522 1522 0 0 1-68-96l-11 2c12 19 27 41 43 65a2878 2878 0 0 0 51 70 1738 1738 0 0 0 67 85c-63-66-118-134-164-202-46-69-84-131-113-187-4-7-8-13-12-21a499 499 0 0 1-11-24 6245 6245 0 0 0-43-75 3020 3020 0 0 0-52-88l-4-8c0 1 2 1 4 1h5c2 0 3 1 5 1 4 0 9 1 14 1 4 0 9 1 14 1 35 0 67-5 96-14 29-9 51-23 68-44 2-6 4-13 5-21 2-6 2-13 2-21a70 70 0 0 0-6-25c-13 10-30 19-49 28-16 7-36 14-60 20-24 7-51 12-82 15l7 8c9 0 20-1 31-2 10-2 22-4 35-6 12-3 26-6 40-10-20 9-42 16-68 22-26 6-56 7-90 4a1657 1657 0 0 0-128-167c-46-53-94-96-145-128-10 0-20 2-29 5a90 90 0 0 0-23 11c-8 5-13 12-17 21 3 21 9 42 17 63 8 19 19 40 34 62 15 23 34 45 59 68a367 367 0 0 0 73 50 509 509 0 0 0 85 36 1756 1756 0 0 1 61 91c21 33 41 68 61 105-34-40-66-71-93-94-28-23-51-41-69-53-22-14-41-24-57-30-21 3-37 8-51 16-14 8-25 17-34 27a109 109 0 0 0-18 26c-5 9-8 17-10 24a101 101 0 0 0-6 24c25 31 50 63 76 98a1329 1329 0 0 1 71 106 903 903 0 0 1 55 108c16 36 26 71 31 104 5 38 1 64-13 76-14 13-34 16-61 11-26-6-56-18-91-37-13-7-88-55-126-83-31-22-57-41-78-58a127 127 0 0 0-13-9c-2-2-4-4-6-7a46 46 0 0 0-8-6c-9-7-17-14-26-21-8-8-16-15-22-21-33-31-60-59-81-84-21-25-34-41-39-49 0-1 0-1 0-1-1 0-1 0-1-1 17 9 37 23 61 42a1132 1132 0 0 1 66 60 1423 1423 0 0 1 75 78l0-10c-26-35-50-64-71-88-21-24-39-43-55-58-16-15-30-27-42-34-12-8-21-13-29-17-2-1-6-2-12-3-6-1-12 0-17 4-4 4-6 8-6 12-1 7 0 14 2 21 2 7 4 13 6 18 4 7 7 13 11 19-6-3-11-7-15-12-10-9-16-20-19-31-1 0-3 2-4 5 0 2 0 5-1 8a44 44 0 0 0 2 24 136 136 0 0 0 10 20 726 726 0 0 0 56 69 1007 1007 0 0 0 56 56c4 4 15 14 33 30 18 16 41 34 68 56 28 21 60 43 95 65 21 14 86 51 149 68a262 262 0 0 0 122 5c22-5 40-16 54-30 11-14 20-33 26-58 6-25 3-60-8-104-7-27-16-55-29-84a919 919 0 0 0-46-89c-17-30-36-60-57-91-21-30-42-60-64-88-9-11-11-20-8-28 3-8 8-15 14-21 7-7 17-13 29-18 30 16 60 36 90 61a1039 1039 0 0 1 85 80 1200 1200 0 0 1 76 87 4270 4270 0 0 1 63 81 2287 2287 0 0 0 81 120c27 37 52 70 75 97 25 32 50 61 75 88 13 2 25 2 36 0 10-1 19-3 27-4a161 161 0 0 0 23-8c1-2 3-3 5-4a10 10 0 0 1 5-3 11 11 0 0 0 4-3 2092 2092 0 0 1-66-72z m206-520h-2c-3-2-6-6-12-13-4-6-6-10-6-12-1-1 0-2 0-2v-1h-1c-2 0-4-2-6-4-2-4-2-6 0-6 0 0 1-1 2-1 0 0 2 1 4 4 2 1 2 3 2 4a10 10 0 0 0-1 3h2c0 0 1 0 2 1 1 1 2 2 3 3l5 7c5 10 8 15 8 15v2z m-35-46a90 90 0 0 1-10-12c-3-5-7-11-11-17-4-6-7-12-10-17-2-5-5-9-7-13-2-5-3-7-1-7v-1h1l1 1c1 0 1 1 1 1 0 1 1 2 2 3 4 4 11 14 19 28a655 655 0 0 1 20 32c2 5 3 7 3 8v1h-2c-1 0-3-2-6-7z m-194 55h1c1 0 3 2 7 6 3 5 11 16 23 36 12 19 19 31 23 37 3 6 4 10 4 12 1 1 1 1 0 1v1c-1 0-1 0-1-1-2-1-4-4-9-9-4-6-12-18-24-36-11-20-18-32-21-37-2-5-3-8-3-9v-1z m22 10h1c1 0 2 1 4 3 1 1 5 7 11 16 6 9 9 14 10 17 1 3 2 5 2 6v2h1c2 0 3 0 3 2 2 1 2 2 0 5h-2c-1 0-2-1-3-3-1-1-1-3 1-4h-2c-1 0-3-2-5-5-2-2-6-8-10-16-7-10-10-16-11-18-1-2-1-4 0-5z m280 63c-5-8-10-14-14-18-4-6-10-14-16-23-6-9-13-19-21-30-7-11-14-22-22-33-8-11-16-23-24-35-8-12-15-24-22-36-7-12-14-24-21-34-3-5-5-9-7-13-3-4-5-8-7-12-2-4-3-7-4-11-1-3 1-4 6-1 1 1 4 4 8 9l18 17c7 7 14 15 22 23 7 9 16 18 24 27a4329 4329 0 0 1 64 71l28-1-141-176c-14-8-26-11-36-9-11 2-19 6-25 12-2 0-3 1-3 2a9 9 0 0 1-2 2c-9 10-12 24-10 40 1 17 6 35 15 56a1600 1600 0 0 0-42-45 456 456 0 0 0-39-36c-12-10-24-18-35-24-11-5-21-8-29-6a60 60 0 0 0-14 3 131 131 0 0 0-10 5c-14 9-22 21-23 37-1 16 0 30 2 44 2 6 3 11 5 16l6 14c1 4 3 8 4 13 3 5 6 11 9 16 4 5 6 11 9 15a1125 1125 0 0 0 32 54c10 15 15 24 18 28 4 7 9 15 14 22 4 7 9 15 14 23 7 13 15 24 22 36 8 11 15 22 22 33 1 0 2 0 3-1 3-2 6-3 8-4 3-1 6-5 9-11 2-7 0-17-6-33 3 4 6 7 9 11 2 3 4 6 6 10 2 4 3 8 3 12 6-4 11-9 15-14 5-6 9-13 12-21-6-9-12-17-17-24-6-8-10-14-14-18-8-11-19-28-34-49a35391 35391 0 0 1-49-72c-6-9-12-18-17-27a446 446 0 0 0-15-27c-9-13-14-24-16-31-1-7-1-13 0-17 2-4 5-7 10-8 15 8 33 21 52 40a974 974 0 0 1 61 64 1421 1421 0 0 1 62 77 2527 2527 0 0 1 57 79c7 9 12 18 18 25 5 7 10 14 14 20 4 7 7 14 11 19 2-1 5-2 10-4 5-1 11-4 17-8 5-4 11-9 18-15 6-7 11-15 16-24-7-9-13-17-18-24z m-349-33c-1-1-1-2-1-2 0 0-1-1-1-2l-5-6v-1h-1c-2 0-3 0-4-1-1-1-2-3-1-3 0-1 0-2 0-3a9 9 0 0 1-3 0c-1-1-3-2-7-6-6-4-8-8-8-10l1-1c2 0 6 2 10 7 6 4 8 8 8 9v1l1-1c1 0 2 1 4 2 1 1 1 2 1 4v1h1c0-1 2 1 6 5 1 1 2 2 3 3l4 4c2 2 4 4 5 6l2 3 5 4c1 3 3 5 4 8a59 59 0 0 1 3 7 11 11 0 0 1 3 4c0 1 1 2 1 4 1 3 1 5 0 6h-1l-3-4c-1-1-2-3-4-6l-1-2a38 38 0 0 1-5-6l-4-7-3-3-3-4c-1-1-2-3-4-4v-3l-3-3z m-128 83h1l1 1c1 0 3 3 6 9l8 11 3 4c3 4 6 8 9 12 3 4 7 8 10 13 4 4 8 8 11 12 4 3 7 7 9 10 3 2 6 5 11 8 0 1 0 2 2 2 3 3 5 5 5 6a5 5 0 0 1 1 2h-1v2a5 5 0 0 1-3-1c0 0-2-2-6-4-1-2-3-3-5-5-2-1-5-3-8-6-4-3-8-7-11-11-3-3-7-7-10-11-4-4-8-9-11-13-3-4-6-8-9-12l-2-5c0-1-1-1-1-2 0 0-1-1-1-1l-1-3a13 13 0 0 0-2-3 12 12 0 0 1-1-3c-2-1-3-3-3-4 0-2 0-3-1-4l-1-2v-2z m50 87l-5-2a44 44 0 0 0-7-6c-2-2-5-5-9-11-2-2-5-4-7-6l-1-1c0-1-1-3-2-4a12 12 0 0 1-3-4 7 7 0 0 0-2-3 15 15 0 0 0-3-6l1-1h1l6 3a15 15 0 0 0 2 4l3 3 11 11c1 3 3 5 5 5a19 19 0 0 0 3 5c2 2 4 5 6 7 1 2 2 3 2 5l-1 1z m-42-46c-1 0-1 0-2-1-1-2-1-4 1-6h1c2 0 3 1 4 3 0 1 1 2 1 3 0 1-1 1-1 1-1 0-1 1-1 1 0 0-1 1-2 1 0-1 0-2-1-2z m101 6a9 9 0 0 0-3-1 9 9 0 0 1-4-1l-16 17c5 4 9 8 14 11 5 3 10 5 16 7a60 60 0 0 0 24 2c0-1 1-1 2-1 8-2 17-6 24-10 8-5 15-9 21-13 7-5 13-10 19-15 0-2 0-4-1-5a25 25 0 0 1 0-6c-2-6-4-14-7-24a136 136 0 0 0-13-32c-2-5-5-11-8-18-3-7-7-13-11-21-4-7-10-15-16-23a17 17 0 0 0-3-4l-4-4a133 133 0 0 0-16-17c-5-6-12-11-20-15-4-4-8-8-13-11a409 409 0 0 0-17-12c-13-7-26-12-37-15-15-3-29-3-41-1-12 3-21 6-29 12-8 5-14 11-19 17-4 7-8 13-10 18a199 199 0 0 0-4 14v2c-2 9-3 17-3 23 0 4 0 6 1 9 2 37 12 71 28 102 16 31 34 58 55 81 21 23 41 41 61 55 19 14 34 21 43 24 3-1 6-3 9-5 4-1 7-4 10-6 3-3 6-6 10-9-13-1-24-5-33-14a119 119 0 0 1-14-14c11 6 21 10 29 12 8 1 15 1 21 0 6-1 11-3 15-6 4-2 6-5 8-7l1-1 1-3c3-6 5-13 5-22-1-10-4-21-9-32l-23 10a13 13 0 0 1 2 6c0 10-3 16-9 17a10 10 0 0 1-8-1c-12-7-23-15-33-23-6-5-11-9-17-14-31-27-54-54-70-79-15-25-25-48-30-68v-1c-1-4-1-9-3-15a96 96 0 0 1-1-18c0-7 0-13 1-18 2-6 4-10 7-13 4-4 10-4 18 0a125 125 0 0 1 25 16c15 13 30 30 44 50 14 19 25 38 34 56 3 6 6 13 9 21a133 133 0 0 1 7 25 10 10 0 0 1-1 8c-3 5-9 6-18 3z" horiz-adv-x="1379" />

<glyph glyph-name="modcell2" unicode="&#xe803;" d="M778 850h-554c-123 0-224-100-224-223v-554c0-123 101-223 224-223h554c123 0 224 100 224 223v554c0 123-101 223-224 223z m-291-358c2-4 4-7 5-11 1-1 2-3 2-4-1-24-25-52-60-79-35 12-80 19-127 28 68-2 131 17 175 73 2-2 4-5 5-7z m-232-8c53 30 118 45 167 40 23-2 42-9 54-20-52-64-139-79-244-60-8 2-16 4-24 6 14 13 30 25 47 34z m-79-159c-5 14-9 26-9 35-1 10 1 21 3 31 5 15 12 29 22 42 62-14 158-27 221-51-84-58-209-101-237-57z m246-107c-4-4-8-8-12-12-16-15-35-27-54-33-17-5-34-4-51 2-17 7-33 18-49 32-3 3-6 6-9 9 74-32 178 15 217 63-12-23-26-44-42-61z m55 98c-21-70-207-153-273-44l-1 0c-1 2-2 4-3 6 68-18 170 35 238 94 28-15 44-33 39-56z m24 80c-1-12-3-25-6-37-9 12-22 22-38 30 21 20 36 41 44 58 2-15 2-33 0-51z m165-32h-30v-72c0-7 1-11 3-14 3-2 7-3 14-3 2 0 5 0 7 0 2 1 4 1 6 1v-31c-4 0-8-1-12-1-4 0-8 0-12 0-6 0-12 0-18 1-5 1-10 2-14 5-5 2-8 6-11 10-2 5-3 11-3 18v86h-25v27h25v44c35 0 40-10 40-37v-7h0 30v-27z m114-119h-49l-49 146h42l31-106 32 106h42l-49-146z" horiz-adv-x="1002" />

<glyph glyph-name="modcell3" unicode="&#xe804;" d="M778 850h-555c-122 0-223-100-223-223v-554c0-123 101-223 223-223h555c123 0 224 100 224 223v554c0 123-101 223-224 223z m-57-435c-2-17-5-33-9-50-10 16-28 29-50 40 28 27 49 54 59 77 3-21 3-44 0-67z m-19 126c3-5 5-9 7-14 1-2 2-4 3-6-2-31-34-69-79-105-47 16-107 26-169 37 90-2 174 23 232 97 2-3 4-6 6-9z m-306-10c69 39 156 59 221 53 29-3 54-12 71-27-68-84-185-105-323-80-11 3-21 6-31 9 17 17 38 32 62 45z m-105-211c-7 19-12 35-12 46-1 14 1 28 4 42 6 19 16 38 29 55 82-18 209-35 293-67-112-77-277-134-314-76z m36-69l0 0c-2 2-3 5-5 8 90-24 226 46 315 123 37-19 59-43 52-74-2-7-5-14-10-21-13 21-37 35-64 35-42 0-76-34-76-76 0-13 3-27 10-38-16-6-28-13-38-22-70-14-143-2-184 65z m168-135c-11 0-22 3-33 7-23 8-45 23-65 42-4 3-8 7-12 11 34-14 73-16 111-10-5-10-7-20-8-31 0-7 3-14 7-19z m220 6c-11-3-38-7-100-7-62 0-89 4-101 7-4 2-8 7-8 12 1 22 9 50 76 65-15 10-25 28-25 47 0 32 26 58 58 58 32 0 58-26 58-58 0-19-10-37-25-47 66-15 74-43 75-65 0-5-3-10-8-12z" horiz-adv-x="1002" />

<glyph glyph-name="kids" unicode="&#xe805;" d="M778 850h-555c-122 0-223-100-223-223v-554c0-123 101-223 223-223h555c123 0 224 100 224 223v554c0 123-101 223-224 223z m-238-272c18 3 26-7 28-14 13 13 31 21 49 21 19 0 36-8 49-21 3 7 10 17 28 14 24-4 55-47 54-56-1-1-1-3-3-4-9-5-36 3-36 4-6 1-17 7-26 12 1-6 2-12 2-18 0-37-30-68-68-68-38 0-68 31-68 68 0 6 1 12 2 18-9-5-20-11-26-12 0-1-27-9-36-4-2 1-2 3-2 4-2 9 29 52 53 56z m-155 7c37 0 68-31 68-69 0-37-31-68-68-68-38 0-68 31-68 68 0 38 30 69 68 69z m373-138l-61-63c-3-4-5-9-4-14l36-155c0-1 0-2-1-2 0-1-1-1-2-1h-26c-8 0-15-7-15-15v-64c0-10-8-18-18-18h-18c-9 0-17 8-17 18v64c0 8-7 15-15 15s-15-7-15-15v-64c0-10-8-18-17-18h-18c-10 0-18 8-18 18v64c0 8-7 15-15 15h-26c-1 0-2 0-2 1 0 0-1 1-1 2l36 155c1 5-1 10-4 14l-25 26c-6 6-16 6-22 0l-33-34c-3-3-4-7-4-11v-232c0-10-8-18-18-18h-18c-10 0-17 8-17 18v64c0 8-7 15-15 15-8 0-15-7-15-15v-64c0-10-8-18-18-18h-18c-9 0-17 8-17 18v232c0 4-2 8-4 11l-69 71c-7 7-7 18 0 24l13 13c7 7 18 6 25 0l68-70c2-3 6-4 10-4h50c4 0 8 1 10 4l68 70c10 0 16 0 25 0l68-70c3-3 7-4 11-4h50c4 0 7 1 10 4l68 70c6 6 18 7 24 0l13-13c7-6 8-17 1-24z" horiz-adv-x="1002" />

<glyph glyph-name="in" unicode="&#xe806;" d="M506 850c-280 0-506-224-506-500 0-276 226-500 506-500 279 0 505 224 505 500 0 276-226 500-505 500z m-127-723h-93v303h93v-303z m-52 330h-1c-35 0-57 26-57 55 0 30 23 54 58 54 36 0 57-25 58-55 0-29-22-54-58-54z m438-330h-120v154c0 41-14 68-51 68-29 0-45-19-53-37-2-6-3-15-3-24v-161h-103c0 0 2 277 0 303h103v-51c14 20 46 49 101 49 68 0 126-43 126-136v-165z" horiz-adv-x="1011" />

<glyph glyph-name="ins" unicode="&#xe807;" d="M519 258c-52 0-94 42-94 93 0 51 42 92 94 92 52 0 94-41 94-92 0-51-42-93-94-93l0 0z m164 199h-49c-9 0-16 6-16 15v48c0 9 7 16 16 16h49c8 0 15-7 15-16v-48c0-9-7-15-15-15l0 0z m18-303h-366c-8 0-10 8-10 16v221h56c-8 0-11-30-11-43 0-81 67-145 149-145 82 0 148 63 148 144 0 14-2 44-11 44h56v-221c0-8-2-16-11-16l0 0z m-195 696c-280 0-506-224-506-500 0-276 226-500 506-500 279 0 505 224 505 500 0 276-226 500-505 500z m259-683c0-31-29-53-61-53h-372c-32 0-60 22-60 53v369c0 31 28 52 60 52h372c32 0 61-21 61-52v-369z" horiz-adv-x="1011" />

<glyph glyph-name="ok" unicode="&#xe808;" d="M506 850c-280 0-506-224-506-500 0-276 226-500 506-500 279 0 505 224 505 500 0 276-226 500-505 500z m5-250c70-2 130-62 130-133 0-73-60-133-134-133-79 1-136 65-134 136 1 73 63 131 138 130z m125-333c-21-13-45-22-70-28-2-1-4-1-7-2 5-5 10-10 15-15 19-18 38-36 57-55 16-15 16-39 2-54-15-16-39-17-56-2-21 19-43 38-65 58-2 2-4 3-6 6-15-14-30-27-44-40-10-8-19-17-29-25-15-14-39-13-54 2-15 15-15 40 0 54 23 22 45 44 68 66 2 1 3 3 4 4-18 6-37 13-55 20-7 3-13 7-20 10-14 9-21 27-17 44 4 16 19 28 35 28 5 1 10-1 13-3 20-9 40-18 62-21 46-8 89-2 130 19 19 10 39 4 49-14 11-17 6-40-12-52z m-130 147c-29 0-53 24-53 53 0 30 24 53 54 53 30 0 53-24 53-53 0-29-24-53-54-53l0 0z" horiz-adv-x="1011" />

<glyph glyph-name="tw" unicode="&#xe809;" d="M506 850c-280 0-506-224-506-500 0-276 226-500 506-500 279 0 505 224 505 500 0 276-226 500-505 500z m192-394c0-5 0-9 0-13 0-138-103-296-291-296-58 0-112 18-157 47 8-1 16-2 24-2 48 0 93 17 128 45-45 1-83 31-96 72 6-1 13-2 19-2 10 0 20 1 28 4-47 9-81 51-81 102v1c13-8 29-13 46-13-28 18-46 50-46 86 0 19 4 37 13 52 51-62 126-104 211-108-2 8-3 16-3 24 0 57 46 103 102 103 30 0 56-12 75-32 23 4 45 13 65 25-8-24-24-45-45-58 21 3 41 8 59 17-14-21-31-39-51-54z" horiz-adv-x="1011" />

<glyph glyph-name="fb" unicode="&#xe80a;" d="M500 850c-276 0-500-224-500-500s224-500 500-500c276 0 500 224 500 500s-224 500-500 500z m118-460l-4-41h-79c0-119 0-265 0-265h-105c0 0 0 145 0 265h-53v41 64h52v48c0 43 21 111 111 111l82 0v-91c0 0-50 0-59 0-10 0-24-5-24-25v-43h84l-5-64z" horiz-adv-x="1000" />

<glyph glyph-name="gp" unicode="&#xe80b;" d="M506 850c-280 0-506-224-506-500 0-276 226-500 506-500 279 0 505 224 505 500 0 276-226 500-505 500z m-98-675c-95 0-171 77-171 171s76 170 171 170c44 0 84-16 114-44-35-33-34-35-48-49-18 15-37 25-66 25-57 0-100-45-100-100s43-104 100-104c55 0 77 24 92 63h-91v66h162c12-79-23-198-163-198z m361 158h-53v-65h-40v65h-67v40h67v53h40v-53h53v-40z" horiz-adv-x="1011" />

<glyph glyph-name="infinite" unicode="&#xe80c;" d="M1588 850c-292 0-485-239-656-450-145-180-283-350-451-350-174 0-281 179-281 308 0 119 118 292 302 292 178 0 271-143 276-150a100 100 0 0 1 170 104c-6 10-153 246-446 246-296 0-502-259-502-492 0-240 198-508 481-508 264 0 438 216 607 424 156 193 304 376 500 376 117 0 194-40 235-121 36-71 36-151 36-179 0-16-9-96-48-167-44-82-107-120-198-120-183 0-282 119-320 164-9 11-16 20-25 28a100 100 0 0 1-142-11 100 100 0 0 1 7-137c2-2 4-5 6-8 49-59 197-237 474-237 337 0 446 329 446 489 0 103-19 193-57 268-53 105-168 231-414 231z" horiz-adv-x="2059" />

<glyph glyph-name="sim-1" unicode="&#xe80d;" d="M556 850h-451c-58 0-105-47-105-105v-790c0-58 47-105 105-105h555c58 0 105 47 105 105v686l-209 209z m-366-856c0-22-18-39-40-39s-39 17-39 39v39c0 22 18 39 39 39s40-17 40-39v-39z m0 163c0-21-18-39-40-39s-39 18-39 39v39c0 22 18 40 39 40s40-18 40-40v-39z m0 164c0-22-18-40-40-40s-39 18-39 40v39c0 22 18 39 39 39s40-17 40-39v-39z m130-373h-52c-22 0-39 18-39 39 0 22 17 40 39 40h52c22 0 40-18 40-40 0-21-18-39-40-39z m0 379h-52c-22 0-39 18-39 39 0 22 17 40 39 40h52c22 0 40-18 40-40 0-21-18-39-40-39z m177-379h-53c-21 0-39 18-39 39 0 22 18 40 39 40h53c21 0 39-18 39-40 0-21-18-39-39-39z m0 379h-53c-21 0-39 18-39 39 0 22 18 40 39 40h53c21 0 39-18 39-40 0-21-18-39-39-39z m157-333c0-22-18-39-40-39s-39 17-39 39v39c0 22 18 39 39 39s40-17 40-39v-39z m0 163c0-21-18-39-40-39s-39 18-39 39v39c0 22 18 40 39 40s40-18 40-40v-39z m0 164c0-22-18-40-40-40s-39 18-39 40v39c0 22 18 39 39 39s40-17 40-39v-39z" horiz-adv-x="765" />

<glyph glyph-name="preferate" unicode="&#xe814;" d="M907-69c1-20-14-45-34-50-49-13-150-31-419-31-270 0-370 18-420 31-20 5-35 30-34 50 3 63 11 154 100 227 9-10 17-19 26-28 64-64 147-109 240-127 23-22 54-36 88-36 66 0 121 51 128 116 0 5 0 9 0 14 0 70-57 128-128 128-21 0-41-5-58-14-46 11-88 35-121 68-28 28-50 63-62 102 0 1 0 1-1 1-2 8-4 16-6 24 0 0 0 0 0 1-3 16-5 33-5 50 0 70 28 133 74 179 29 28 64 50 104 62 7 3 15 5 23 6 0 0 1 1 1 1 1 0 3 0 5 0 15 3 30 5 46 5 8 0 17-1 26-2 33-3 65-13 94-29 21-11 41-26 58-43 46-46 74-109 74-179 0-1 0-1 0-2 0-85-43-161-108-206 288-63 305-223 309-318l0 0z m-96 491c-19 0-35 16-35 35 0 89-36 170-94 228-59 59-139 95-228 95-89 0-170-36-228-95-23-23-43-49-58-78-5-11-10-21-14-32-1-3-2-5-3-7-3-9-6-18-9-27 0-4-1-7-2-10-2-9-4-18-5-27-1-3-1-6-2-10-1-12-2-24-2-37 0-13 1-25 2-37 1-3 1-7 2-10 1-9 3-18 5-27 1-3 2-6 2-10 3-9 6-18 9-27 1-2 2-4 2-7 5-11 10-21 15-31 48-92 138-157 244-171 11 11 25 18 42 18 32 0 58-26 58-58 0-33-26-59-58-59-22 0-41 12-51 30-133 17-244 100-301 215-41 2-78 30-88 72-7 32-12 66-12 102s5 70 12 102c10 42 47 70 88 72 64 130 197 219 352 219 217 0 393-176 393-393 0-19-16-35-36-35l0 0z" horiz-adv-x="907" />

<glyph glyph-name="servicii" unicode="&#xe815;" d="M1185 251l-381-382c-12-12-29-19-45-19-17 0-34 7-46 19l-191 191c-25 25-25 66 0 91 26 26 66 26 91 0l146-145 335 337c25 25 66 25 91 0 25-26 25-66 0-92l0 0z m-527 90c107-23 180-58 230-99l-129-130-92 93c-27 26-62 41-99 41-37 0-72-15-99-41-26-27-41-62-40-99 0-38 14-73 40-99l106-106c-24 0-49 0-75 0-298 0-408 20-463 34-21 6-38 33-37 55 5 105 23 282 341 351-72 51-120 135-120 230 0 154 125 279 279 279s278-125 278-279c0-95-47-179-120-230l0 0z" horiz-adv-x="1204" />

<glyph glyph-name="star" unicode="&#xe816;" d="M1048 113l-117-96 39-147c5-18-4-25-20-15l-128 82-127-82c-16-10-25-4-20 15l38 146-117 96c-15 12-12 22 7 24l151 9 55 141c7 17 18 17 25 0l55-141 152-8c18-1 22-12 7-24l0 0z m-373 231c28-6 53-13 77-20-2-5-5-9-7-13l-39-100-107-7c-38-2-67-23-77-55-11-33 1-66 30-91l83-67-11-46c-33 0-68-1-107-1-296 0-425 20-480 35-21 5-38 32-37 54 5 105 42 242 359 311-72 50-120 134-120 228 0 154 125 278 278 278s277-124 277-278c0-94-47-178-119-228l0 0z" horiz-adv-x="1057" />

<glyph glyph-name="plus" unicode="&#xe817;" d="M141 151c-58 5-91 12-113 17-16 4-29 24-28 41 3 78 17 210 256 262-54 37-90 100-90 171 0 115 94 208 209 208 54 0 103-20 140-53-122-31-213-141-213-272 0-48 13-95 35-135-147-64-185-167-196-239l0 0z m443 582c-115 0-209-93-209-208 0-71 36-134 90-171-238-52-252-184-256-262 0-17 12-37 28-41 41-11 124-26 347-26h6c-2 10-4 19-4 29 0 67 55 122 122 122h22v22c0 56 39 103 90 117-31 15-69 28-116 39 54 37 90 100 90 171 0 115-94 208-210 208m412-618h-83v83c0 33-27 61-61 61-34 0-61-28-61-61v-83h-83c-34 0-61-27-61-61 0-33 27-60 61-60h83v-83c0-34 27-61 61-61 34 0 61 27 61 61v83h83c34 0 61 27 61 60 0 34-27 61-61 61l0 0z" horiz-adv-x="1057" />

<glyph glyph-name="like" unicode="&#xe818;" d="M1137 70c-15-37-38-68-65-97-45-49-99-86-157-120-6-4-11-4-17 0-38 22-74 46-108 74-37 31-70 64-94 105-14 23-24 47-29 73-6 37 0 72 23 103 21 29 50 47 87 53 33 6 64 0 93-17 16-10 28-23 37-40 6 13 15 23 25 32 16 14 36 21 57 25 32 6 62 1 91-15 34-19 56-47 65-84 7-32 3-62-8-92l0 0z m-419 262c10-2 20-4 29-6-48-12-88-38-117-78-32-45-44-96-35-154 6-33 18-65 38-97 15-25 34-49 55-72-42-1-87-2-138-2-315 0-452 21-511 35-22 6-40 34-39 56 5 107 45 247 382 318-77 52-127 137-127 234 0 157 132 284 295 284 163 0 295-127 295-284 0-97-50-182-127-234l0 0z" horiz-adv-x="1148" />

<glyph glyph-name="discount" unicode="&#xe819;" d="M700 96c-12-22-31-37-55-44-24-8-49-5-70 6-9 5-17 11-24 18-27 29-33 71-15 106 24 44 80 61 125 37 9-4 17-10 24-17 27-29 33-71 15-106l0 0z m-68 70c-15 8-33 2-41-13-7-11-5-26 4-35 3-3 5-5 8-6 8-4 16-5 24-2 8 2 14 7 18 14 8 15 2 34-13 42l0 0z m-36 216c-11-21-31-37-54-44-24-7-49-5-71 6-8 5-16 11-23 18-28 29-33 71-15 106 12 21 31 37 55 44 23 7 48 5 70-6 9-5 17-11 24-18 27-29 33-71 14-106l0 0z m-67 70c-7 4-15 5-23 2-8-2-15-7-18-15-7-11-5-25 4-35 3-2 5-4 8-6 8-4 16-5 24-2 8 2 14 8 18 15 8 14 2 33-13 41l0 0z m223-143l-359-109c-17-5-34 4-39 20-5 16 4 33 21 38l359 109c12 3 24 0 32-8 3-4 5-8 7-12 5-16-4-33-21-38l0 0z m199-193l-236-222c-49-47-123-57-184-26-15 8-29 18-41 31l-413 426c-53 55-86 156-75 231l17 120c6 39 26 78 58 108 32 30 77 51 117 54l123 11c23 2 54 0 83-7 27-6 53-16 77-29 27-13 49-29 67-47l412-427c30-31 45-70 44-113-1-42-18-81-49-110l0 0z m-60 161l-413 426c-11 11-25 22-43 31-18 9-37 16-56 21-19 4-40 6-54 5l-122-11c-20-2-46-14-63-30-17-16-28-36-31-56l-17-120c-7-48 17-120 51-155l413-427c5-5 11-10 17-13 26-14 58-9 79 11l236 222c13 13 21 29 21 47 1 19-6 36-18 49l0 0z m-616 300c-14-14-36-17-53-8-5 2-8 5-12 9-18 18-17 47 1 64 15 14 36 17 54 8 4-2 8-5 12-9 17-18 17-47-2-64l0 0z" horiz-adv-x="1000" />

<glyph glyph-name="business" unicode="&#xe81a;" d="M540 129v204h90v-204h-90l0 0z m132 128c0 55 0 105 0 105s3 23-30 23c-31 0-83 0-113 0-33 0-30-23-30-23s0-50 0-105c-268 21-462 132-499 154 0 1 0 4 0 9 0 34 0 152 0 202 0 58 67 65 67 65h518 0 518c0 0 67-7 67-65 0-50 0-168 0-202 0-5 0-8 0-9-36-22-230-133-498-154l0 0z m453-407c-40 0-522 0-540 0 0 0 0 0 0 0-17 0-500 0-540 0-40 0-45 42-45 42v455c30-16 77-40 139-64 84-33 210-71 360-82 0-45 0-85 0-91 0-25 24-24 24-24h125c0 0 24-1 24 24 0 9 0 47 0 91 149 11 275 49 360 82 61 24 108 48 138 64v-455c0 0-5-42-45-42l0 0z m-373 889c-33 29-86 56-167 56-80 0-133-27-166-56h-74c6 9 15 19 25 29 37 37 104 82 215 82 112 0 179-45 216-82 10-10 18-20 25-29h-74l0 0z" horiz-adv-x="1170" />

<glyph glyph-name="security" unicode="&#xe81b;" d="M462 850c143-55 269-94 401-115 34-5 60-34 60-65 0-560-389-820-461-820-73 0-462 260-462 820 0 31 27 60 61 65 132 21 257 59 401 115z m205-410h-137v137c0 38-31 68-68 68-38 0-69-30-69-68v-137h-137c-38 0-68-31-68-69 0-37 30-68 68-68h137v-137c0-38 31-69 69-69 37 0 68 31 68 69v137h137c38 0 69 31 69 68 0 38-31 69-69 69z" horiz-adv-x="923" />

<glyph glyph-name="mail" unicode="&#xe81c;" d="M73 22c-40 0-73 33-73 73v682c0 14 4 27 11 38l446-446c28-28 66-42 103-42 37 0 75 14 103 42l446 446c7-11 11-24 11-38v-413c-16 5-32 7-49 7-45 0-88-18-120-50l-228-228-9-8 0-2c-16-17-27-38-33-61h-608z m487 445c19 0 38 7 52 21l362 362h-828l362-362c14-14 32-21 52-21z m89-570l1 2 0 3 12 47h-589c-20 0-36-16-36-36 0-20 16-37 36-37h575c0 7 0 14 1 21z m476 220l15 15c38 38 38 100 0 138-19 19-44 28-69 28-25 0-50-9-69-28l-15-15 138-138z m-52-52l-137 138-162-161 0 0c-14-15-23-33-27-53l-26-105c-3-20 8-34 27-34 2 0 4 0 7 1l105 26c19 3 37 12 52 27l15 15 0 0 146 146z" horiz-adv-x="1168" />

<glyph glyph-name="nautati" unicode="&#xe81d;" d="M606 648c-18 0-34 7-46 19-13 13-19 29-20 46v137l202-202h-136l0 0z m-21-677c23-22 53-35 85-35 26 0 51 9 72 25v-46c0-36-29-65-65-65h-611c-37 0-66 29-66 65v325 545c0 36 29 65 66 65h409v-137c0-36 15-68 38-92 24-23 57-38 93-38h0 136v-286l-72-72-77 76c-46 47-123 47-169 0-47-47-47-122 0-169l161-161 0 0z m-487 127h193c18 0 33 14 33 32 0 18-15 33-33 33h-193c-18 0-32-15-32-33 0-18 14-32 32-32l0 0z m0 171h193c18 0 33 15 33 33 0 18-15 33-33 33h-193c-18 0-32-15-32-33 0-18 14-33 32-33l0 0z m546 172c18 0 33 15 33 33 0 18-15 32-33 32h-546c-18 0-32-14-32-32 0-18 14-33 32-33h546l0 0z m388-102l-323-322c-11-10-25-16-39-16-14 0-28 6-39 16l-161 161c-21 21-21 56 0 77 21 21 56 21 77 0l123-122 284 283c22 21 56 21 78 0 21-21 21-56 0-77l0 0z" horiz-adv-x="1048" />

<glyph glyph-name="news" unicode="&#xe81e;" d="M596 648c-17 0-33 7-46 19-12 13-18 29-18 46v137l198-202h-134l0 0z m-499-669h374c2-20 8-38 21-53 16-20 41-31 67-31 6 0 12 0 18 1l2 1 2 0 91 23c21 4 41 13 58 25v-30c0-36-29-65-65-65h-601c-35 0-64 29-64 65v325 545c0 36 29 65 64 65h403v-137c0-36 15-68 38-92s55-38 91-38h0 134v-211l-153-154h-480c-18 0-33-15-33-33 0-18 15-32 33-32h421c-11-17-18-35-22-55l-13-54h-386c-18 0-33-15-33-33 0-18 15-32 33-32l0 0z m177 647c23 16 37 42 37 72 0 48-38 87-86 87-47 0-86-39-86-87 0-30 15-56 37-72-98-22-104-77-105-110-1-7 4-15 11-17 17-4 51-11 143-11 92 0 126 7 143 11 7 2 12 10 12 17-2 33-8 88-106 110l0 0z m-177-299h257c17 0 32 14 32 32 0 18-15 33-32 33h-257c-18 0-33-15-33-33 0-18 15-32 33-32l0 0z m620-305v-1l-13-13c-13-13-29-21-46-24l-92-24c-3 0-5 0-7 0-16 0-26 13-23 31l23 94c3 17 11 33 24 46l0 0 142 144 121-123-129-130 0 0z m188 190l-13-14-122 123 14 14c17 17 39 25 60 25 22 0 44-8 61-25 34-34 34-89 0-123l0 0z" horiz-adv-x="930" />

<glyph glyph-name="music" unicode="&#xe81f;" d="M773 268c-4-34-38-65-83-73-53-9-101 16-108 56-8 40 29 80 82 89 23 5 46 2 64-6l0 246-297-52v-310c0-1 0-9 0-9-4-34-37-65-83-73-53-9-101 16-108 56s30 80 82 89c24 4 46 1 65-6v272 78c0 10 7 19 18 21l342 60c6 1 13-1 18-5 5-4 8-10 8-17v-78l0-18v-311c0 0 0-9 0-9l0 0 0 0z m-105-103c9 0 18 1 27 2 1 0 3 1 4 1v-257c0-34-27-61-61-61h-577c-34 0-61 27-61 61v878c0 34 27 61 61 61h577c34 0 61-27 61-61v-62l-104-19v30c0 4-3 8-8 8h-475c-4 0-8-4-8-8v-651c0-4 4-8 8-8h475c5 0 8 4 8 9v97c20-13 45-20 73-20l0 0 0 0z m-319-148c-29 0-53-24-53-52 0-29 24-53 53-53 29 0 52 24 52 53 0 28-23 52-52 52l0 0 0 0z" horiz-adv-x="773" />

<glyph glyph-name="like2" unicode="&#xe820;" d="M879 355c3-8 4-16 3-24-1-7-3-12-7-17-4-6-9-11-13-16-2-3-5-6-6-9-1-2-2-4-2-6 0-1 1-3 1-4 3-5 5-11 6-16 1-4 1-8 1-11-1-8-3-15-7-22-4-6-7-11-12-16-4-4-9-7-13-11-5-2-8-6-9-11-1-1-1-2-1-3 2-5 2-10 1-15 0-1-1-1-1-2 0-7-3-13-7-18-2-5-7-8-11-12-6-5-13-8-20-11-6-3-12-5-18-7-5-1-9-1-14-2-15-2-30-1-45-1-7 0-14 1-21 2-4 0-7 0-11 1-5 1-9 2-14 2-1 1-2 1-3 1-2 0-4 1-6 1-3 1-6 1-9 2-3 1-7 1-10 2-4 1-8 3-13 4-3 1-7 2-11 4-4 1-8 2-11 4-2 0-4 1-6 1-4 2-8 3-12 4-5 2-10 3-15 4-4 1-8 2-11 2-2 1-3 1-4 1-2 0-3 1-4 1-1 0-1 0-1 0-5 1-9 1-13 2-1 0-3 0-4 1-1 0-3 0-4 0-10 1-21 1-31 1-7 0-15 0-22-1-2 0-4 0-6 0-1 0-2 1-2 3 0 1 0 2 0 3-1 4-1 7-1 11-1 5-1 10-1 15-2 8-1 17-2 25-1 9-1 17-1 26 0 2-1 5-1 8 0 7 0 15-1 22 0 4 0 7 0 11-1 6 0 12-1 19-2 9-1 18-2 27-2 16-1 31-1 47 0 7 1 14 1 21 1 5 1 10 1 16 0 0 0 1 0 3 3 0 5-1 7 0 4 0 8 0 12 1 2 0 4 0 6 0 10 2 20 4 29 10 9 5 15 13 21 21 8 10 14 21 21 32 3 5 7 9 10 14 8 11 18 21 28 31 7 6 14 12 22 16 8 6 15 12 22 19 6 7 12 15 18 23 7 10 15 20 22 30 6 8 12 16 18 25 3 5 6 10 9 15 2 4 2 9 2 13 0 3 1 6 0 9 0 8 1 15 2 22 1 6 3 12 6 17 3 4 8 6 12 6 9 1 18-2 24-9 7-8 12-16 15-26 3-6 4-13 7-20 3-11 3-22 2-32 0-6-2-11-4-16-2-4-6-8-6-14-4-5-5-11-9-17-2-3-3-7-5-10-3-7-6-13-9-20-4-7-7-15-10-22-3-6-5-12-7-19-3-6-5-12-4-19 1-5 5-10 10-10 1 0 3-1 4-1 0 0 1 0 2 0 4-1 8-1 13-2 4-1 8-2 12-3 3 0 6-1 10-1 3-1 7-1 10-2 7-3 14-2 21-2 7 0 14 1 22 0 4 0 8-1 13-2 4-1 8-2 12-3 4-2 8-4 11-6 4-2 7-5 10-8 5-4 9-9 11-15 2-6 3-12 2-18-1-5-3-9-5-14-2-4-5-9-8-14-1-2-2-4-2-6 0-3 0-7 3-9 8-7 12-16 15-26l0 0z m-438-222c-2 0-4-1-6-1-2 0-4 0-5-1-3 0-5 0-8-1 0 0-1 0-2 0-7-1-14-1-21-2-7-1-14-1-20-2-7-1-14 0-20-1-8-1-16-1-24-2-3 0-5 0-8 0-7-1-13-1-20-1-10 1-19 6-23 16-2 5-4 10-5 15-2 8-2 17-3 26-1 7 0 14-1 21-2 8-1 17-2 25-1 13-1 26-1 39-1 5-1 10-1 15 0 1-1 3-1 4 0 9 0 18 0 26 0 12-1 23-1 35 0 5 0 11 0 16 0 11 0 21 0 32 1 5 1 11 2 17 1 8 2 16 7 23 3 4 7 7 12 9 6 2 13 3 19 3 11 0 21 0 31 0 7 0 14-1 21-1 2 0 3 0 5 0 5 0 11 0 16 0 5-1 11-1 16-1 3 0 6 0 9 0 6-1 11-1 16-1 5-1 10-1 16-2-1-9 0-18-1-27-2-13-1-26-1-39 0-13-1-26 0-39 1-11 1-23 1-35 0-5 0-10 1-14 0-10 0-20 1-29 0-4 0-8 0-12 1-8 1-15 1-23 1-1 0-3 1-4 0-7 1-14 1-21 0-1 0-1 0-1 1-9 1-17 2-26 0-6 1-13 2-19 0-2 0-4 1-6 0-3 0-6 1-9-3-1-5-2-8-2l0 0z m-64 102c-19-1-34-15-34-35 0-21 15-37 36-36 21 0 34 16 35 35-1 21-16 37-37 36l0 0z m245-385h-562c-33 0-60 27-60 61v878c0 34 27 61 60 61h412 72 78c33 0 59-27 60-61v-53c-1-1-1-2-2-3-6-9-10-20-12-31l0-2c-1-7-2-16-1-26 0-1 0-2 0-3 0-1-1-2-1-4-1-3-3-6-5-9-6-8-12-16-18-24-7-10-14-20-21-29l-4-6c-4-5-8-11-12-15-6-6-11-10-15-13-4-2-7-5-11-7v47 127c0 4-3 8-8 8h-28-72-363c-4 0-8-4-8-8v-651c0-4 4-8 9-8h462c5 0 8 4 8 9v26l17-6c4-1 8-3 12-4 4-1 9-3 13-4 4-1 8-2 12-3 3 0 5-1 7-1l3-1c2 0 4-1 7-1 0 0 1 0 2 0l4-1c4-1 7-2 11-2 4-1 8-1 14-2v-11-167c0-34-27-61-60-61l0 0z m-282 167c-28 0-51-24-51-52 0-29 23-53 51-53 28 0 51 24 51 53 0 28-23 52-51 52l0 0z" horiz-adv-x="882" />

<glyph glyph-name="star2" unicode="&#xe821;" d="M574 189l100-65v-214c0-33-26-60-59-60h-556c-32 0-59 27-59 61v878c0 34 27 61 59 61h556c33 0 59-27 59-61v-224l-54 142c-14 35-37 39-47 39-1 0-3 0-5 0-1 0-2 0-2 0h-458c-4 0-8-4-8-8v-651c0-4 4-8 8-8h458c5 0 8 4 8 9v101l0 0 0 0z m-238-172c-28 0-50-24-50-52 0-29 22-53 50-53s51 24 51 53c0 28-23 52-51 52l0 0z m533 447l-152-129 50-195c7-25-5-34-26-20l-167 109-166-110c-21-14-33-5-26 20l49 196-153 127c-19 16-15 31 10 32l197 13 72 188c9 24 24 24 33 0l72-188 197-11c25-2 29-16 10-32l0 0z" horiz-adv-x="881" />

<glyph glyph-name="edit" unicode="&#xe822;" d="M750 723l-163 77 23 50 163-77-23-50 0 0 0 0z m-62-333c-96-44-229-171-281-222 9-8 12-22 6-34-5-12-17-18-29-17-1 0-1 0-2 0-2 1-3 4-2 7l159 346c8-2 16 2 19 9 4 9 1 20-8 24-9 4-19 0-23-9-4-7-2-16 5-21l-159-346c-2-2-5-4-7-2 0 0 0 0-1 0-9 9-11 23-6 35 5 12 17 18 29 17 6 73 16 257-12 361 98 78 202 243 202 243l163-78c0 0-58-186-53-313l0 0 0 0z m-62-540h-566c-33 0-60 27-60 61v878c0 34 27 61 60 61h521l-26-56c-3-4-15-23-33-48h-412c-4 0-8-4-8-9v-650c0-4 4-8 8-8h466c5 0 8 4 9 8v204c34 27 70 52 102 69v-449c-1-34-27-61-61-61l0 0 0 0z m-284 167c-28 0-51-24-51-53 0-28 23-52 51-52 29 0 52 24 52 52 0 29-23 53-52 53l0 0 0 0z" horiz-adv-x="773" />

<glyph glyph-name="upload" unicode="&#xe824;" d="M517 448c-13 18-33 18-46 0l-175-292c-11-19 0-34 24-34h115v-213c0-33 27-59 59-59 32 0 59 26 59 59v213h115c24 0 35 15 24 34l-175 292z m342 402h-730c-71 0-129-58-129-129v-247c0-72 58-130 129-130h104c33 0 59 27 59 59 0 33-27 59-59 59h-45c-39 0-70 32-70 71v129c0 39 31 70 70 70h612c39 0 70-31 70-70v-130c0-38-31-70-70-70h-45c-33 0-59-26-59-59 0-32 26-59 59-59h104c71 0 129 58 129 130v247c0 71-58 129-129 129z" horiz-adv-x="988" />

<glyph glyph-name="download" unicode="&#xe825;" d="M471 252c13-18 33-18 46 0l175 292c11 19 0 34-24 34h-115v213c0 33-27 59-59 59-33 0-59-26-59-59v-213h-115c-24 0-35-15-24-34l175-292z m-342-402h730c71 0 129 58 129 129v247c0 72-58 130-129 130h-104c-33 0-59-27-59-59 0-33 26-59 59-59h45c39 0 70-32 70-70v-130c0-39-31-70-70-70h-612c-39 0-70 31-70 70v130c0 38 31 70 70 70h45c33 0 59 26 59 59 0 32-26 59-59 59h-104c-71 0-129-58-129-130v-247c0-71 58-129 129-129z" horiz-adv-x="988" />

<glyph glyph-name="setting" unicode="&#xe826;" d="M991 444c-3 14-15 25-29 26l-64 4c-7 24-17 48-29 70l42 48c10 11 11 26 3 38-35 52-80 97-134 134-11 8-27 7-38-2l-48-43c-22 12-46 22-70 29l-4 64c-1 14-11 26-25 29-31 6-63 9-95 9-31 0-63-3-94-9-14-3-25-15-26-29l-4-64c-24-7-48-17-70-29l-48 42c-11 10-26 11-38 3-52-35-97-80-134-134-8-11-7-27 3-38l42-48c-12-22-22-46-29-70l-64-4c-14-1-26-11-29-25-6-31-9-63-9-95 0-31 3-63 9-94 3-14 15-25 29-26l64-4c7-24 17-48 29-70l-42-48c-10-11-11-26-3-38 35-52 80-97 134-134 11-8 27-7 38 2l48 43c22-12 46-22 70-29l4-64c1-14 11-26 26-29 30-6 62-9 94-9 31 0 63 3 94 9 14 3 25 15 26 29l4 64c24 7 48 17 70 29l48-42c11-10 26-11 38-3 52 35 97 80 134 134 8 11 7 27-3 38l-42 48c12 22 22 46 29 70l64 4c14 1 26 12 29 26 6 30 9 62 9 94 0 31-3 63-9 94z m-580-316c-1 0-2 0-3 0 0 1-1 1-2 1-27 12-53 29-76 51-22 23-39 49-51 76 0 1 0 1-1 2 0 1 0 2 0 3-12 27-18 57-18 89v0c0 32 6 62 18 90 0 0 0 1 0 2 1 1 1 1 1 2 12 28 29 53 51 76l0 0c23 22 49 39 76 51 1 0 1 0 2 1 1 0 2 0 3 1 27 11 57 17 89 17 32 0 62-6 90-17 0-1 1-1 2-1 1 0 1-1 2-1 28-12 53-29 76-51l0 0c22-23 39-48 51-76 0-1 1-1 1-2 0-1 0-2 0-2 12-28 18-58 18-90 0-32-6-62-18-90 0 0 0-1 0-2-1-1-1-1-1-2-12-27-29-53-51-76v0c-23-22-48-39-76-51-1 0-1 0-2-1-1 0-2 0-2 0-28-12-58-18-90-18s-62 6-89 18z" horiz-adv-x="1000" />

<glyph glyph-name="edit2" unicode="&#xe827;" d="M778 850h-555c-122 0-223-100-223-223v-554c0-123 101-223 223-223h555c123 0 224 100 224 223v554c0 123-101 223-224 223z m-136-706c0-16-13-29-29-29h-265c-16 0-29 13-29 29v412c0 16 13 29 29 29h244l-12-27c-1-2-7-10-15-22h-194c-2 0-4-2-4-4v-305c0-2 2-4 4-4h219c2 0 4 2 4 4v95c16 13 33 25 48 33v-211z m0 225c-45-21-107-80-131-104 4-4 5-11 2-16-2-6-8-9-14-9 0 1 0 1 0 1-1 0-2 2-1 3l74 162c4-1 8 1 10 5 1 4 0 9-4 11-5 2-9 0-11-4-2-4-1-8 2-10l-75-163c0-1-2-1-3-1 0 0 0 0 0 0-4 5-6 11-3 17 3 5 8 8 14 8 2 34 7 121-6 169 46 37 95 114 95 114l76-36c0 0-27-88-25-147z m29 156l-76 36 11 24 76-36-11-24z" horiz-adv-x="1002" />

<glyph glyph-name="edit3" unicode="&#xe828;" d="M671 525l-76 36 11 24 76-36-11-24 0 0 0 0z m-29-156c-45-21-107-80-131-104 4-4 5-11 2-16-2-6-8-9-14-8 0 0 0 0 0 0-1 0-2 2-1 3l74 162c4-1 8 1 10 5 1 4 0 9-4 11-5 2-9 0-11-4-2-4-1-8 2-10l-75-163c0-1-2-1-3-1 0 0 0 0 0 0-4 5-6 11-3 17 3 5 8 8 14 8 2 34 7 121-6 169 46 37 95 114 95 114l76-36c0 0-27-88-25-147l0 0 0 0z m-29-254h-265c-16 0-29 13-29 29v412c0 16 13 29 29 29h244l-12-27c-1-2-7-10-15-22h-194c-2 0-4-2-4-4v-305c0-2 2-4 4-4h219c2 0 4 2 4 4v95c16 13 33 25 48 33v-211c0-16-13-29-29-29l0 0 0 0z m-133 79c-13 0-24-11-24-25 0-13 11-24 24-24 14 0 24 11 24 24 0 14-10 25-24 25l0 0 0 0z m298 656h-555c-122 0-223-100-223-223v-554c0-123 101-223 223-223h555c123 0 224 100 224 223v554c0 123-101 223-224 223z m188-777c0-103-84-187-188-187h-555c-103 0-187 84-187 187v554c0 103 84 187 187 187h555c104 0 188-84 188-187v-554z" horiz-adv-x="1002" />

<glyph glyph-name="modcell4" unicode="&#xe82a;" d="M184 621c-22 6-45 12-67 18 38 37 83 69 132 97 148 83 333 125 471 111 63-6 117-24 153-55-146-180-394-225-689-171l0 0z m-158-334c-15 39-24 73-26 97-1 31 2 60 10 89 12 42 34 81 62 118 174-40 445-75 623-142-239-164-590-287-669-162l0 0z m917 200c-4-34-10-70-19-106-23 36-60 63-107 85 59 58 104 116 126 166 5-45 6-94 0-145l0 0z m-189 5c-99 34-227 54-359 78 191-4 370 47 494 206 5-6 10-13 14-20 6-9 10-19 15-29 2-4 3-9 5-14-4-66-72-146-169-221l0 0z m193-603c1-9-7-21-16-24-25-6-82-15-215-15-132 0-190 9-214 15-10 3-17 15-17 24 2 47 19 108 161 139-33 22-54 59-54 101 0 68 56 123 124 123 69 0 124-55 124-123 0-42-21-79-53-101 141-31 158-92 160-139l0 0z m-72 372c-5-15-12-30-22-46-29 45-79 75-137 75-89 0-162-72-162-161 0-29 8-57 22-82-33-12-60-27-80-46-150-31-306-4-392 137l-1 1c-3 5-7 11-10 16 192-51 481 99 672 263 78-40 124-91 110-157l0 0z m-428-370c0-15 5-29 13-41-23 2-47 7-70 16-47 17-94 49-137 89-9 8-17 17-26 25 72-31 155-36 236-23-9-19-15-41-16-66l0 0z" horiz-adv-x="947" />

<glyph glyph-name="sim" unicode="&#xe82c;" d="M755 653l-186 185c-8 8-19 12-30 12h-437c-56 0-102-45-102-101v-798c0-56 46-101 102-101h563c56 0 102 45 102 101v673c0 11-5 21-12 29l0 0z m-571-666c0-19-15-33-34-33s-33 14-33 33v48c0 18 15 33 33 33s34-15 34-33v-48l0 0z m0 164c0-18-15-33-34-33s-33 15-33 33v48c0 19 15 33 33 33s34-14 34-33v-48l0 0z m0 164c0-18-15-33-34-33s-33 15-33 33v48c0 19 15 33 33 33s34-14 34-33v-48l0 0z m141-361h-58c-19 0-33 14-33 33 0 18 14 33 33 33h58c18 0 33-15 33-33 0-18-15-33-33-33l0 0z m0 376h-58c-19 0-33 15-33 33 0 19 14 33 33 33h58c18 0 33-14 33-33 0-18-15-33-33-33l0 0z m175-376h-58c-19 0-34 14-34 33 0 18 15 33 34 33h58c18 0 33-15 33-33 0-18-15-33-33-33l0 0z m0 376h-58c-19 0-34 15-34 33 0 19 15 33 34 33h58c18 0 33-14 33-33 0-18-15-33-33-33l0 0z m150-343c0-19-15-33-34-33-18 0-33 14-33 33v48c0 18 15 33 33 33 19 0 34-15 34-33v-48l0 0z m0 164c0-18-15-33-34-33-18 0-33 15-33 33v48c0 19 15 33 33 33 19 0 34-14 34-33v-48l0 0z m0 164c0-18-15-33-34-33-18 0-33 15-33 33v48c0 19 15 33 33 33 19 0 34-14 34-33v-48l0 0z" horiz-adv-x="767" />

<glyph glyph-name="sms" unicode="&#xe82d;" d="M1134 121c47 90 67 195 51 302-38 249-258 427-508 427l-169 0c-281-3-508-225-508-500 0-274 227-497 508-500l169 0c25 0 50 2 75 5 87 13 167 46 233 94 87-33 251-98 251-98l-102 270 0 0z m-872 77c-109 0-129 63-129 101h71c0-18 9-45 59-45 26 0 53 4 53 29 0 31-40 38-75 45-53 11-98 25-98 89 0 46 32 85 121 85 82 0 111-46 113-87h-66c-2 15-13 31-51 31-35 0-46-13-46-28 0-24 33-31 59-35 62-12 114-26 114-90 0-23-7-95-125-95l0 0z m502 8h-70v206h-1l-74-206h-47l-74 206h-1v-206h-70v288h98l70-198 71 198h98v-288l0 0z m169-8c-109 0-129 63-129 101h70c0-18 10-45 60-45 25 0 52 4 52 29 0 31-39 38-75 45-53 11-97 25-97 89 0 46 31 85 121 85 82 0 111-46 112-87h-66c-2 15-12 31-50 31-35 0-46-13-46-28 0-24 33-31 58-35 63-12 115-26 115-90 0-23-7-95-125-95l0 0z" horiz-adv-x="1236" />

<glyph glyph-name="question" unicode="&#xe82e;" d="M930 121c45 90 64 195 49 302-40 273-290 462-559 422-269-41-454-295-415-568 40-273 290-462 559-422 84 13 160 46 223 95 83-34 241-99 241-99l-98 270 0 0z m-375-85h-116v112h116v-112l0 0z m77 292c-43-28-82-51-77-118h-115v26c0 74 32 109 61 134 35 28 91 54 91 115 0 45-31 72-85 72-18 0-98-2-90-112h-142c-4 193 140 219 233 219 136 0 228-55 228-171 0-93-60-135-104-165l0 0z" horiz-adv-x="1028" />

<glyph glyph-name="plus2" unicode="&#xe82f;" d="M930 121c45 90 64 195 49 302-40 273-290 462-559 422-269-41-454-295-415-568 40-273 290-462 559-422 84 13 160 46 223 95 83-34 241-99 241-99l-98 270z m-300 172h-81v-82c0-31-25-57-56-57-31 0-56 26-56 57v82h-81c-31 0-56 26-56 57 0 31 25 57 56 57h81v82c0 31 25 57 56 57 31 0 56-26 56-57v-82h81c30 0 55-26 55-57 0-31-25-57-55-57z" horiz-adv-x="1028" />

<glyph glyph-name="ett" unicode="&#xe830;" d="M930 121c45 90 64 195 49 302-40 273-290 462-559 422-269-41-454-295-415-568 40-273 290-462 559-422 84 13 160 46 223 95 83-34 241-99 241-99l-98 270z m-374-85h-118v112h118v-112z m23 453l-41-279h-82l-41 279v175h164v-175z" horiz-adv-x="1028" />

<glyph glyph-name="time" unicode="&#xe831;" d="M1029-149c0 0-157 65-241 99-63-49-139-82-223-95-269-40-520 149-560 422-39 273 147 527 416 568 269 40 519-149 559-422 16-107-4-212-49-301l98-271 0 0z m-269 770c-71 73-166 113-267 113-101 0-196-40-268-113-147-149-147-393 0-542 72-73 167-113 268-113 101 0 196 40 267 113 148 149 148 393 0 542l0 0z m-48-493c-59-59-137-92-219-92-83 0-161 33-219 92-121 122-121 322 0 444 58 59 136 92 219 92 82 0 160-33 219-92 120-122 120-322 0-444l0 0z m-59 257h-126v128c0 19-15 35-34 35-19 0-34-16-34-35v-163c0-19 15-35 34-35h160c19 0 35 16 35 35 0 19-16 35-35 35l0 0z" horiz-adv-x="1029" />

<glyph glyph-name="planet" unicode="&#xe832;" d="M573-145c3 1 5 2 7 2 18 3 36 7 54 12 0 0 1 0 1 0 58 16 113 43 163 80 84-33 239-98 239-98l-96 264c101 189 72 429-87 589-54 53-117 92-184 116 0 0 0 0 0 0-13 5-27 9-40 13-6 1-11 2-16 3-10 3-19 5-28 6-8 2-16 3-24 4-8 1-15 2-23 2-8 1-16 1-25 1-4 0-9 1-14 1-4 0-8 0-12-1-6 0-12 0-18 0-13-1-25-2-38-4-1 0-2 0-3 0-1-1-2-1-3-1-102-15-201-62-280-140-195-196-195-512 0-708 78-77 174-123 275-139 4-1 7-1 11-2 11-1 22-3 33-3 7-1 13-1 20-1 5 0 10-1 15-1 4 0 8 0 12 1 7 0 15 0 23 1 9 0 18 1 27 2 4 1 7 1 11 1z m-387 416c-3 9-8 16-13 23-6 8-13 15-21 24-22 23-33 36-39 47-3 6-6 11-8 18-2 7-4 16-7 27-3 14-5 37-6 58 0 6 0 11 0 16 20 62 54 121 104 170 31 32 66 57 105 77 5 0 10-1 16-1 3 0 7 0 11 1 41 2 51 2 57 2 7 1 12 1 42 2 17 0 30 2 42 5 18 3 34 12 43 21 9 8 13 13 19 18 57-4 113-20 163-45-26-1-71-7-84-39-6-15 0-46 13-61s31-10 31-10c18 6 38-3 44-21 7-18-2-38-20-44-3-1-15-6-33-6-10 0-24 2-37 8-14 6-28 16-40 30l0 0c-13 17-20 82-44 83-24 0-38-19-49-38-11-19 20-26 20-54 0-28-66-47-33-76 27-24 133-54 153-51 26 5 46 2 59-12 12-15 5-34-4-41-2-1-12-10-30-19-17-9-42-9-64 5-10 6-18 11-24 13-7 3-12 5-18 6-12 4-30 7-58 17-19 8-79 56-118 22-38-34-54-81-54-108 0-11 1-22 6-34 6-18 18-34 36-46 17-12 39-20 65-25 35-6 60-13 71-20 6-4 8-6 10-9 1-2 2-6 2-13 0-8-2-21-7-38-11-33-18-61-18-87 0-10 1-19 4-28 3-14 11-28 25-38 13-10 29-14 43-13 11 0 21 1 32 4 38 10 71 29 97 49 12 10 23 20 32 30 10 10 17 19 22 28 8 14 14 26 20 36 7 11 14 21 25 32 4 4 12 9 22 16 33 27-6 50-20 56-46 24-78 56-79 58-14 13-14 35 0 49 13 14 35 14 49 0l0 0 0 0 1-1 3-3c3-3 8-7 13-11 12-9 27-21 45-29 12-6 58-26 58 0-1 56 26 36 34 32 23-12 28-35 29-54-14-85-54-167-120-233-81-81-189-126-304-126-115 0-223 45-304 126-27 27-49 56-67 88 2 5 4 10 6 15 4 11 9 23 14 32 4 9 9 16 10 16 4 5 9 10 16 17 3 3 7 8 10 14 3 6 5 15 5 23 0 7-1 14-4 20z" horiz-adv-x="1037" />

<glyph glyph-name="nelimitat" unicode="&#xe833;" d="M1220 629l108-133c55 57 170 158 294 158 177 0 287-152 287-294 0-147-110-299-295-299-166 0-248 102-411 305l-57 70c-195 240-337 414-644 414-291 0-502-212-502-505 0-277 216-495 491-495 218 0 366 157 415 217l-105 132c-53-55-164-151-291-151-172 0-287 152-287 294 0 142 105 294 301 294 181 0 269-117 404-294 17-22 34-46 54-70 178-231 350-422 638-422 301 0 511 206 511 500 0 285-210 500-489 500-216 0-370-159-422-221l0 0z" horiz-adv-x="2131" />

<glyph glyph-name="plain" unicode="&#xe834;" d="M839 7l-80 453c0 0 28 28 135 135 47 47 71 100 84 145l22 86v-1c1 9-1 15-5 20-5 4-11 6-19 5l0-1-86-21c-45-13-98-37-145-84-107-107-135-135-135-135l-453 80c0 0-49 9-71-12-21-21-49-49-49-49s-24-28 20-51c44-23 343-177 343-177l-153-197c0 0-18-30-47-26l-155 6c-11-2-21-6-30-15-20-20-20-53 0-74 4-3 8-6 12-8 0 0 0-1 0-1s119-60 134-75c14-15 75-133 75-133s0 0 0 0c2-4 5-8 8-12 21-20 54-20 74 0 9 9 13 19 15 30l-6 155c-4 29 26 47 26 47l196 153c0 0 155-299 178-343 23-44 51-20 51-20s27 28 49 49c22 22 12 71 12 71l0 0z" horiz-adv-x="1000" />

<glyph glyph-name="4g" unicode="&#xe835;" d="M1308 388l0 0h0c0 0 211 0 213 0 157 0 194-43 194-148v-369h-35c-66 0-104 20-122 109-47-58-133-130-267-130-281 0-475 202-475 495 0 301 192 505 475 505 222 0 391-139 409-337h-203c0 0-23 160-206 160-181 0-262-145-262-328 0-149 64-319 262-319 217 0 227 170 231 206h-84c-109 1-130 21-130 156l0 0z m-638-315l1-217c-172 0-197 47-199 183v34l-349 0c-104 1-123 21-123 149h1l471 623h0v0c171 0 197-25 198-159l0-464h1c105-1 142-20 142-149h-143l0 0z m-198 542l-287-393h287v393l0 0z" horiz-adv-x="1715" />

<glyph glyph-name="cart" unicode="&#xe836;" d="M948 84h-664l32 103 586 120c21 5 37 21 41 42l56 303c3 15-1 31-11 42-10 12-25 19-40 19h-673l-10 91c-3 26-26 46-52 46h-161c-29 0-52-23-52-52s23-52 52-52h114l56-509-59-190c-5-16-2-33 8-46 10-14 25-21 42-21h71c-16-14-27-34-27-57 0-40 33-73 73-73s73 33 73 73c0 23-11 43-28 57h434c-17-14-28-34-28-57 0-40 33-73 73-73 40 0 73 33 73 73 0 23-11 43-28 57h49c29 0 52 23 52 52 0 29-23 52-52 52l0 0z m-394 258l-65-13-31 280h67l29-267 0 0z m76 267h67l25-232-65-14-27 246 0 0z m217-207l-22-4-23 211h83l-38-207 0 0z m-494 207l33-301-65-14-35 315h67l0 0z" horiz-adv-x="1000" />

<glyph glyph-name="money" unicode="&#xe837;" d="M987 131h-51c-19-54-53-101-97-136l10-28c11-33-6-71-39-82l-80-29c-33-12-70 6-81 40l-14 38h-162l-22-47c-15-32-54-46-86-31l-75 37c-32 15-46 54-31 87l12 24c-62 53-101 130-104 217 0 0 0 0 0 0-92 0-167 76-167 170 0 18 15 33 33 33 18 0 32-15 32-33 0-57 46-103 102-103h0c2 160 132 292 291 292h204c3 0 6-1 8-1 4 8 19 32 58 63 47 37 95 50 110 38 15-12-5-47-15-84-7-25-8-47-9-60 67-42 116-110 132-190h41c36 0 64-29 64-65v-85c0-36-28-65-64-65l0 0z m-363 495h-166c-78 0-149-27-207-72-14 28-24 59-24 94 0 111 90 202 200 202s199-91 199-202c0-8-1-15-2-22l0 0z" horiz-adv-x="1051" />

<glyph glyph-name="star3" unicode="&#xe838;" d="M811-138l-285 181-283-182c-36-23-56-8-46 33l85 326-262 213c-33 26-25 50 18 53l336 20 122 314c16 40 41 40 57 0l123-313 337-19c42-2 50-26 17-53l-260-214 86-326c11-41-9-56-45-33z" horiz-adv-x="1051" />

<glyph glyph-name="map" unicode="&#xe839;" d="M0 482c0 203 161 368 361 368 199 0 360-165 360-368 0-272-360-632-360-632s-361 360-361 632l0 0z m361 184c-100 0-181-83-181-184 0-102 81-185 181-185 99 0 180 83 180 185 0 101-81 184-180 184l0 0z" horiz-adv-x="721" />

<glyph glyph-name="share" unicode="&#xe83a;" d="M877 156c-44 0-84-19-112-49l-315 169c7 23 12 48 12 74 0 27-5 52-13 76l313 171c27-33 69-53 115-53 84 0 153 68 153 153 0 84-69 153-153 153s-153-69-153-153c0-11 1-21 4-32l-316-172c-42 54-108 89-181 89-128 0-231-104-231-232 0-128 103-231 231-231 74 0 140 35 182 90l316-170c-3-11-5-23-5-36 0-84 69-153 153-153s153 69 153 153c0 85-69 153-153 153l0 0z" horiz-adv-x="1030" />

<glyph glyph-name="calendar" unicode="&#xe83b;" d="M925-76c-50-49-115-74-180-74-65 0-129 25-179 74-99 99-99 260 0 359 49 49 114 74 179 74 65 0 130-25 180-74 99-99 99-260 0-359l0 0z m-42 317c-37 37-85 57-138 57-52 0-101-20-137-57-76-76-76-199 0-275 36-37 85-57 137-57 53 0 101 20 138 57 76 76 76 199 0 275l0 0z m-25-250c-30-30-70-47-113-47-42 0-82 17-112 47-62 62-62 163 0 225 30 30 70 47 112 47 43 0 83-17 113-47 62-62 62-163 0-225l0 0z m-30 130h-65v65c0 10-8 18-18 18-9 0-17-8-17-18v-82c0-10 8-18 17-18h83c10 0 18 8 18 18 0 9-8 17-18 17l0 0z m-705 224v131h131v-131h-131l0 0z m189 0v131h131v-131h-131l0 0z m-189-189v131h131v-131h-131l0 0z m189 0v131h131v-131h-131l0 0z m189 189v131h131v-131h-131l0 0z m-341 315h0c-19 0-35 16-35 35v121c0 18 16 34 35 34h0c19 0 34-16 34-34v-121c0-19-15-35-34-35l0 0z m501 0c-19 0-34 16-34 35v121c0 18 15 34 34 34s35-16 35-34v-121c0-19-16-35-35-35l0 0z m93-274v147h-687v-434c0 0 0-1 1-1h395c0-22 3-44 9-66h-404c-37 0-68 30-68 67v560c0 37 31 68 68 68h28v-37c0-33 26-59 59-59h9c33 0 59 26 59 59v37h375v-37c0-33 26-59 58-59h10c33 0 59 26 59 59v37h28c37 0 68-31 68-68v-283c-22 6-44 9-67 10l0 0z" horiz-adv-x="999" />

<glyph glyph-name="youtube" unicode="&#xe83c;" d="M500 850c-276 0-500-224-500-500s224-500 500-500c276 0 500 224 500 500s-224 500-500 500z m273-488v-35c0-46-5-92-5-92s-5-39-22-57c-21-22-44-23-55-24-76-6-191-6-191-6s-142 2-186 6c-12 2-39 2-60 24-16 18-22 57-22 57s-5 46-5 92v38 5c0 46 5 93 5 93s6 39 22 56c21 23 44 23 55 24 76 6 191 6 191 6h0c0 0 115 0 191-6 11-1 34-1 55-24 17-17 22-56 22-56s5-47 5-93v-8z m-329-87l-1 123v37l67-36 81-45-147-79 0 0z" horiz-adv-x="1000" />

<glyph glyph-name="youtube2" unicode="&#xe83d;" d="M500-150c-276 0-500 224-500 500 0 276 224 500 500 500 276 0 500-224 500-500 0-276-224-500-500-500z m0 962c-254 0-461-207-461-462 0-254 207-462 461-462 255 0 462 208 462 462 0 255-207 462-462 462z m258-354c0 0-5 38-21 55-20 22-43 22-53 23-73 5-184 5-184 5h0c0 0-110 0-184-5-10-1-33-1-53-23-15-17-20-55-20-55s-6-44-6-88v-6-36c0-44 6-89 6-89s5-37 20-54c20-22 47-21 58-24 42-4 179-5 179-5s111 0 184 6c10 1 33 1 53 23 15 17 21 54 21 54s5 45 5 89v34 8c0 44-5 88-5 88z m-312-180l0 118v36l64-35 78-43-142-76z" horiz-adv-x="1000" />

<glyph glyph-name="gp2" unicode="&#xe83e;" d="M505-150c-278 0-505 224-505 500 0 276 227 500 505 500 279 0 506-224 506-500 0-276-227-500-506-500z m0 962c-257 0-466-207-466-462 0-254 209-462 466-462 258 0 467 208 467 462 0 255-209 462-467 462z m64-440h-156v-63h87c-14-38-36-61-89-61-54 0-96 46-96 100s42 96 96 96c29 0 47-10 64-24 13 14 12 15 46 48-29 26-67 41-110 41-91 0-164-73-164-163s73-165 164-165c136 0 169 115 158 191l0 0z m190 0h-52v51h-38v-51h-64v-38h64v-63h38v63h52v38l0 0z" horiz-adv-x="1011" />

<glyph glyph-name="fb2" unicode="&#xe83f;" d="M500-150c-276 0-500 224-500 500 0 276 224 500 500 500 276 0 500-224 500-500 0-276-224-500-500-500z m0 962c-254 0-461-207-461-462 0-254 207-462 461-462 255 0 462 208 462 462 0 255-207 462-462 462z m60-297c10 0 57 0 57 0v87l-78 1c-87 0-107-65-107-107v-46h-51v-61-40h51c0-116 0-254 0-254h102c0 0 0 140 0 254h75l4 40 6 61h-81v41c0 20 13 24 22 24l0 0z" horiz-adv-x="1000" />

<glyph glyph-name="tw2" unicode="&#xe840;" d="M505-150c-278 0-505 224-505 500 0 276 227 500 505 500 279 0 506-224 506-500 0-276-227-500-506-500z m0 962c-257 0-466-207-466-462 0-254 209-462 466-462 258 0 467 208 467 462 0 255-209 462-467 462z m221-269c-19-11-40-20-62-24-18 19-44 31-72 31-55 0-99-44-99-99 0-8 1-16 3-23-82 4-154 44-203 104-8-15-13-32-13-50 0-35 18-65 45-83-16 0-31 5-44 12v-1c0-48 33-89 78-98-8-2-18-3-27-3-6 0-12 0-18 2 12-40 48-69 91-70-33-26-76-42-122-42-8 0-16 0-23 1 43-28 95-45 151-45 180 0 279 152 279 284 0 4 0 9 0 13 19 14 36 32 49 52-17-8-36-14-56-16 20 12 36 32 43 55l0 0z" horiz-adv-x="1011" />

<glyph glyph-name="-12" unicode="&#xe841;" d="M505-150c-278 0-505 224-505 500 0 276 227 500 505 500 279 0 506-224 506-500 0-276-227-500-506-500z m0 962c-257 0-466-207-466-462 0-254 209-462 466-462 258 0 467 208 467 462 0 255-209 462-467 462z m137-491c-10 17-28 22-47 13-39-20-81-26-125-19-21 4-40 12-59 21-4 2-8 3-13 3-16-1-30-12-34-28-4-16 3-33 17-41 6-4 12-8 19-10 17-7 35-13 53-20-1-1-2-2-4-4-22-21-44-41-65-63-15-14-15-37-1-51 15-15 38-16 53-3 9 8 18 17 27 25 14 12 28 25 42 37 3-2 5-3 7-5 21-19 41-37 62-56 16-14 39-13 53 2 15 15 14 38-1 52-18 18-37 36-55 54-5 4-10 9-15 13 4 1 6 2 8 2 23 6 46 14 67 28 17 10 22 33 11 50l0 0z m-132 269c-71 2-131-54-133-124-1-69 54-131 130-131 71 0 128 57 129 127 0 69-58 127-126 128z m-4-178c-28 0-51 23-51 51 0 28 23 51 52 51 28-1 51-23 51-52 0-28-24-51-52-50z" horiz-adv-x="1011" />

<glyph glyph-name="inst2" unicode="&#xe842;" d="M697 579h-358c-31 0-58-20-58-51v-354c0-30 27-51 58-51h358c30 0 58 21 58 51v354c0 31-28 51-58 51z m-83-65c0 8 6 15 15 15h47c8 0 15-7 15-15v-47c0-8-7-14-15-14h-47c-9 0-15 6-15 14v47z m-96-74c50 0 90-40 90-89 0-49-40-89-90-89-50 0-90 40-90 89 0 49 40 89 90 89z m185-263c0-8-1-16-9-16h-352c-9 0-10 8-10 16v212h54c-8 0-11-28-11-41 0-78 64-140 143-140 79 0 143 62 143 139 0 13-2 42-11 42h54v-212z m-198-327c-278 0-505 224-505 500 0 276 227 500 505 500 279 0 506-224 506-500 0-276-227-500-506-500z m0 962c-257 0-466-207-466-462 0-254 209-462 466-462 258 0 467 208 467 462 0 255-209 462-467 462z" horiz-adv-x="1011" />

<glyph glyph-name="in2" unicode="&#xe843;" d="M505-150c-278 0-505 224-505 500 0 276 227 500 505 500 279 0 506-224 506-500 0-276-227-500-506-500z m0 962c-257 0-466-207-466-462 0-254 209-462 466-462 258 0 467 208 467 462 0 255-209 462-467 462z m-211-676h89v291h-89v-291l0 0z m40 421c-34 0-56-23-56-51 0-28 21-53 55-53h0c35 0 57 24 57 52-1 29-22 52-56 52l0 0z m421-262c0 89-56 130-122 130-52 0-83-28-96-48v50h-99c1-25 0-291 0-291h99v154c0 9 0 18 3 24 7 17 23 35 50 35 36 0 49-26 49-65v-148h116v159l0 0z" horiz-adv-x="1011" />

<glyph glyph-name="wifi" unicode="&#xe844;" d="M770-28c0-67-54-122-122-122-67 0-122 55-122 122 0 68 55 123 122 123 68 0 122-55 122-123z m-122 502c-128 0-257-50-354-147-37-37-37-97 0-133 37-37 96-37 133 0 61 61 141 91 221 91 81 0 160-30 221-91 37-37 97-37 133 0 37 36 37 96 1 133-98 97-227 147-355 147z m621 119c-171 171-396 257-621 257-224 0-449-86-620-257-37-37-37-96 0-133 36-37 96-37 133 0 135 135 311 202 487 202 177 0 353-67 488-202 36-37 96-37 133 0 36 36 36 96 0 133z" horiz-adv-x="1296" />

<glyph glyph-name="tv2" unicode="&#xe845;" d="M943 487c-4-34-10-70-19-106-23 36-60 63-107 85 59 58 104 116 126 166 6-45 6-94 0-145l0 0z m-189 5c-99 34-227 54-359 78 191-4 370 48 494 206 5-6 10-13 14-20 5-9 10-19 15-29 2-4 3-9 5-14-4-66-72-146-169-221l0 0z m-569 130c-23 5-46 11-68 17 38 37 83 69 132 97 148 83 333 125 471 111 64-6 117-24 153-55-146-180-394-225-688-170l0 0z m-158-335c-16 39-25 73-27 97-1 31 2 60 10 89 12 42 34 81 62 118 175-40 445-75 623-142-239-164-590-287-668-162l0 0z m738 131c78-40 124-91 110-157-60-195-583-431-771-123l-1 1c-3 5-6 11-10 16 192-51 481 99 672 263l0 0z m74-261c-34-64-74-123-120-172-10-11-21-22-32-32-47-44-99-76-154-94-48-15-96-11-143 7-47 18-94 49-137 89-9 8-17 16-26 25 208-90 502 41 612 177l0 0z m450-3c-6 7-10 19-10 38v204h86v76h-86 0v18c0 78-15 105-116 105v-123h-71v-76h71v-243c0-20 3-37 11-50 7-12 16-22 29-29 12-7 26-12 42-14 16-2 34-4 52-4 11 0 23 1 35 1 12 1 23 2 33 3v88c-6-1-11-2-17-2-6-1-13-1-19-1-20 0-33 3-40 9l0 0z m407-94l143 412h-121l-92-298-92 298h-122l143-412h141l0 0z" horiz-adv-x="1839" />

<glyph glyph-name="kids2" unicode="&#xe846;" d="M165 704c0 81 66 146 146 146 80 0 145-65 145-146 0-80-65-146-145-146-80 0-146 66-146 146z m368 4c18-11 76 7 77 7 11 4 36 16 55 28-3-13-5-26-5-39 0-80 65-146 146-146 80 0 145 66 145 146 0 13-2 26-5 39 20-12 44-24 55-28 1 0 59-18 77-7 4 3 5 6 6 9 3 19-62 110-115 118-38 7-54-15-59-29-28 28-65 44-104 44-40 0-77-16-104-44-6 14-21 36-60 29-52-8-118-99-114-118 0-3 1-6 5-9z m573-152c14 14 13 38-1 53l-28 26c-15 15-38 14-53-1l-144-148c-5-6-14-9-22-9h-106c-8 0-16 3-22 9l-145 148c-21 0-33 0-54 0l-145-148c-5-6-14-9-22-9h-106c-8 0-16 3-22 9l-144 148c-14 15-38 16-53 1l-28-26c-14-15-15-38 0-53l146-151c6-6 9-14 9-22v-496c0-20 17-37 37-37h39c20 0 37 17 37 37v137c0 17 14 31 32 31 17 0 31-14 31-31v-137c0-20 17-37 38-37h38c21 0 37 17 37 37v496c0 8 4 16 9 22l71 73c13 13 33 13 46 0l54-56c7-7 10-18 8-29l-75-331c0-2 0-3 1-5 1-1 3-2 5-2h55c18 0 32-14 32-31v-137c0-20 17-37 37-37h39c20 0 37 17 37 37v137c0 17 14 31 32 31 17 0 31-14 31-31v-137c0-20 17-37 38-37h38c21 0 37 17 37 37v137c0 17 15 31 32 31h56c1 0 3 1 4 2 1 2 2 3 1 5l-75 331c-2 11 1 22 8 29l130 134z" horiz-adv-x="1116" />

<glyph glyph-name="kids3" unicode="&#xe847;" d="M778 850h-555c-122 0-223-100-223-223v-554c0-123 101-223 223-223h555c123 0 224 100 224 223v554c0 123-101 223-224 223z m188-777c0-103-84-187-188-187h-555c-103 0-187 84-187 187v554c0 103 84 187 187 187h555c104 0 188-84 188-187v-554z m-649 443c0 38 30 69 68 69 37 0 68-31 68-69 0-37-31-68-68-68-38 0-68 31-68 68z m170 6c-2 9 29 52 53 56 18 3 26-7 28-14 13 13 31 21 49 21 19 0 36-8 49-21 3 7 10 17 28 14 24-4 55-47 54-56-1-1-1-3-3-4-9-5-36 3-36 4-6 1-17 7-26 12 1-6 2-12 2-18 0-37-30-68-68-68-38 0-68 31-68 68 0 6 1 12 2 18-9-5-20-11-26-12 0-1-27-9-36-4-2 1-2 3-2 4z m210-138c-3-4-5-9-4-14l35-155c1-1 0-2 0-2-1-1-1-1-2-1h-26c-8 0-15-7-15-15v-64c0-10-8-18-18-18h-18c-9 0-17 8-17 18v64c0 8-7 15-15 15s-15-7-15-15v-64c0-10-8-18-17-18h-18c-10 0-18 8-18 18v64c0 8-7 15-15 15h-26c-1 0-2 0-2 1 0 0-1 1-1 2l36 155c1 5-1 10-4 14l-25 26c-6 6-16 6-22 0l-33-34c-3-3-4-7-4-11v-232c0-10-8-18-18-18h-18c-10 0-17 8-17 18v64c0 8-7 15-15 15-8 0-15-7-15-15v-64c0-10-8-18-18-18h-18c-9 0-17 8-17 18v232c0 4-2 8-4 11l-69 71c-7 7-7 18 0 24l13 13c7 7 18 6 25 0l68-70c2-3 6-4 10-4h50c4 0 8 1 10 4l68 70c10 0 16 0 25 0l68-70c3-3 7-4 11-4h50c4 0 7 1 10 4l68 70c6 6 18 7 24 0l13-13c7-6 8-17 1-24l-61-63z" horiz-adv-x="1002" />
</font>
</defs>
</svg>
