<svg id="Слой_1" data-name="Слой 1" xmlns="http://www.w3.org/2000/svg" viewBox="0 0 298 86.31" fill="#ffffff" ><title>Дубровский лого финал</title><path d="M258.66,333.43c-1.23.09-2.09.14-2.7.14-1.69,0-1.47-1.32-1.47-3.58,0-.77-.06-1.84-.06-2-.24-2.42-.92-2.09-5.39-1.84l-3.18.18c-3.86.22-4.53,0-4.78,2.5,0,.12-.06,1.23-.06,2,0,2.34.22,3.65-1.47,3.94-.61.1-1.47.18-2.69.29-3,.25-3.06.14-3.06-2.94,0-3.81,0-5.72,0-9.53,0-2.45,1-2.86,1.72-3,1.34-.3,1.37-1,1.65-2.68.57-3.43,1.35-7.42,1.65-9.22a3.53,3.53,0,0,1,.06-.43L236.61,306a.85.85,0,0,1-.61-.87.91.91,0,0,1,.61-.87l3.12-1.73c1-5.48,2-11.11,3-16.47.37-2,.92-2.34,3.06-2.23l5.33.27a3.86,3.86,0,0,1,1.47.43,6.58,6.58,0,0,1,.92,2.49c1,5.21,2,10.4,2.88,15.62l3.06,1.59a1,1,0,0,1,.55.82.92.92,0,0,1-.55.82l-2.21,1.19q.67,5.12,1.35,10.23c.12,1,.56,1.41,1.59,1.59s1.53.76,1.53,2.46c0,3.55,0,5.33,0,8.88C261.72,333.1,261.66,333.22,258.66,333.43Zm-5.33-5.27v.77l-4.41.28c-4.47.29-4.84,0-4.84,2.51,0,.54,0,.81,0,1.34,0,3.78-1,4.61-4.16,4.89-2.57.23-3,.21-3.06-1.71,1.22-.11,2.14-.19,2.82-.3,2.88-.49,2.45-2.91,2.45-5.11,0-.74.06-1.66.06-2,.12-1.48-.12-1.16,3.67-1.39l3.18-.19C253.39,327,253.2,326.74,253.33,328.16Zm-2.51-11.78c-.58-4.67-1-9.53-2.39-14a.76.76,0,0,0-1.35,0c-1.24,4.33-1.65,9-2.33,13.39-.37,2.27-.49,3.55,1.9,3.46l2.39-.09C250.26,319,251.06,318.11,250.82,316.38Zm-3-12.66a27.92,27.92,0,0,1,.86,5.55c0,1.76-.8,5-1.35,8.79l-.67,0c-1.16,0-1.16,0-.8-2.22C246.46,311.82,246.94,307.72,247.81,303.72Zm9.56-1.77c-.82-4.89-1.78-9.76-2.7-14.63a3.56,3.56,0,0,1,1.41.35,6.44,6.44,0,0,1,.92,2.46q1.22,6.44,2.45,12.88Zm7.41,22.19v8.81c0,2.09-.86,3-3.06,3.19-1.23.09-2.1.15-2.7.15-1.14,0-1.41-.6-1.47-1.71l1.1-.08c3.68-.27,4.17-.42,4.17-4.32,0-3.43,0-5.14,0-8.56a4.17,4.17,0,0,0,.43.1C264.42,321.89,264.78,322.45,264.78,324.13Zm-6.37-16.47a8.2,8.2,0,0,0,2.27-1.43l1.84.92a1,1,0,0,1,.55.81.93.93,0,0,1-.55.82l-1.9,1.08,1.1,8.39-1.29-.42c-.61-.1-.67-.15-.74-.68C259.18,313.37,258.93,311.47,258.41,307.66Z" transform="translate(-233.79 -269.89)"/><path d="M290.84,287.42a8.68,8.68,0,0,1-.31,1.64c-1.57,6-3.34,12.25-4.78,18.21-1.81,7.5-2.76,17.34-12.38,17.67-1.21,0-1.63-.35-1.66-1.46,0-.61-.06-1.25-.06-1.88s.06-1.32.06-1.94a1.38,1.38,0,0,1,.37-1c.49-.42.61-.42,1.41-.44a2.05,2.05,0,0,0,2.08-2.33,288.8,288.8,0,0,1-8-28,12.45,12.45,0,0,1-.31-1.8c0-.67.2-1.07,1.23-1.1.6,0,1.35,0,2.15,0s1.68.1,2.64.17a1.62,1.62,0,0,1,1.59,1.31c1.24,5.48,2.39,11,3.68,16.45.12.51.43.68.67.68s.51-.18.68-.79c1.2-4.45,2-9.24,2.94-13.88.37-1.83.49-2.6,1-3a2,2,0,0,1,1.23-.34l2,.07a11,11,0,0,1,3.44.45A1.61,1.61,0,0,1,290.84,287.42Zm2.09,1.49c-.18-.17-.31-.28-1.1-.3l-.18.65c-1.57,6.24-3.28,12.44-4.91,18.67-1.57,7.24-2.79,17.26-12,17.91.06,1,.8,1.77,2.7,1.22,7.51-2,9.23-10,10.61-16.66,1.58-6.19,3.25-12.35,4.85-18.54C293.23,290.77,293.47,289.3,292.92,288.91Zm-14.47.35a1.63,1.63,0,0,0-2.08-1.25q1.28,5.92,2.58,11.83c.06.34.43.34.49,0,.18-.84.37-1.68.67-2.85C279.49,293.67,278.77,290.42,278.45,289.26Z" transform="translate(-233.79 -269.89)"/><path d="M311.63,299.64a9.28,9.28,0,0,1,6.63,8.59v3.51c0,2.46,0,3.77-.06,3.93-.46,5.43-5.79,7.86-10.62,8l-7.05.24c-3.07.11-3.13.06-3.13-2.6q0-16.37,0-32.75c0-1.3-.12-2.61,1.35-2.56q7.06.22,14.11.4c1.35,0,2.76-.13,2.82,1.28.06,1.26.06,2.48,0,3.74-.07,1.52-.74,1.3-4.72,1.18-5.27-.15-6.32-.49-6.32,1.81v1.45c0,1.71-.31,3,1.78,3.23.31.06,1.26.08,2.64.13A9,9,0,0,1,311.63,299.64Zm7.3,5.86a9.45,9.45,0,0,1,.43,2.67v3.56c0,2.57,0,3.56-.06,4-.53,5.91-6.35,8.83-11.72,9l-7.12.25c.06,1.67.49,1.7,3.13,1.6l4-.15c6.3-.11,13.71-3.47,13.75-10.69v-4.86a10.33,10.33,0,0,0-.55-3,9.51,9.51,0,0,0-1.47-2.56C319.06,305,318.81,305.13,318.93,305.5Zm-7.61,3.73a4.14,4.14,0,0,0-4.91-4c-1.1.16-1.69.73-1.72,1.56-.11,3.15,0,2-.06,5.09,0,4.4-.63,5.64,2.58,5.4C311.43,317,311.43,312.29,311.32,309.23Zm-4.73-3c-.53.07-.74.22-.8.59l-.06,5.08c0,4.86-.49,4.61,1.41,4.46.18,0,.46,0,.49-.06a13.08,13.08,0,0,0,.06-2.82c0-3.11-.06-1.94.06-5.06,0-.77.55-1.28,1.47-1.5A3.33,3.33,0,0,0,306.6,306.23Zm10.25-14.64c-.1,2-.68,2.15-5.89,2-5.46-.14-5.22-.41-5.22.88v1.44c0,2.19-.06,2.14.86,2.25a6.66,6.66,0,0,0,1.11.12c0-.45,0-.67,0-1.12,0-2.29,1.05-2,6.32-1.84,4,.1,4.72-.95,4.79-2.46a16.73,16.73,0,0,0-.06-2.46c-.06-1.1-.92-1.22-1.9-1.24C316.85,289.9,316.89,290.76,316.85,291.58Z" transform="translate(-233.79 -269.89)"/><path d="M345.88,298.28v3.46c-.34,3.71-3.17,6.42-6.63,7.45a9.29,9.29,0,0,1-2.58.37c-1.38,0-2.33.07-2.64.12-2.09.22-1.78,1.45-1.78,3.1,0,3.24,0,4.85,0,8.09a2.58,2.58,0,0,1-.43,1.76c-.55.48-3.58.51-5.46.43-1.46-.06-1.35-1.22-1.35-2.46q0-15.69,0-31.38c0-2.55.06-2.6,3.13-2.53l3.56.07,3.5.06c4.71.08,10.14,2.28,10.62,7.64C345.88,294.62,345.88,295.89,345.88,298.28ZM348.7,297a7.07,7.07,0,0,0-1.29-3.61c-.43-.51-.69-.39-.61.1,0,.29.1.63.12.92s.06,1.37.06,3.86v3.45c-.12,4.15-3.58,7.15-7.3,8.32a12.84,12.84,0,0,1-2.95.43h-.06c-2.89,0-3.31.23-3.31,2.7v7.67a3.25,3.25,0,0,1-.74,2.43c-.61.53-2.15.72-4.54.72.06.88.27,1.53,1.35,1.57a25.47,25.47,0,0,0,3.68-.14,2.34,2.34,0,0,0,2.21-2.57c0-3,0-4.53,0-7.55s-.29-3,1.78-3.2a30.23,30.23,0,0,0,4.85-1.06c4-1.53,7.06-4.86,7-9.32,0-.37,0-.55,0-.91A19.13,19.13,0,0,0,348.7,297Zm-9.76,3.73c.58-3.44.42-7.42-4.11-7.77-3.24-.25-2.62.94-2.58,5.17,0,2.91-.06.95.06,4.12,0,.8.62,1.34,1.72,1.49C336.35,304.09,338.6,302.78,338.94,300.75Zm-2.58-6.42a3.67,3.67,0,0,0-1.6-.43c-1.7-.14-1.35-.43-1.35,3.38v4.94c.06.41.26.56.8.62a3.5,3.5,0,0,0,1.17,0c.52-.6,0-.7-.06-3.34C335.28,296.16,334.89,294.68,336.36,294.33Z" transform="translate(-233.79 -269.89)"/><path d="M373.86,296.35q0,8.29.06,16.59a21.1,21.1,0,0,1-.68,3.91,3.17,3.17,0,0,1-.61,1.31c-4.5,5.86-14.65,6.54-19,.07a7,7,0,0,1-1-4c0-6.31.15-12.76,0-19-.07-2.93,1.6-5.5,5.16-7.59a5.26,5.26,0,0,1,2.21-.79c3.59-.51,7.54-.26,10.5,2A9.09,9.09,0,0,1,373.86,296.35Zm-8,18.67a4.11,4.11,0,0,0,.37-1.91q0-8.49,0-17a4.93,4.93,0,0,0-.31-1.76c-1-2.46-5.53-2.19-6,.38a10.26,10.26,0,0,0-.06,1.61v16.42a4.74,4.74,0,0,0,.31,2.16C361.16,317,364.72,317,365.82,315ZM377,313.08q0-7.11-.06-14.22a9.26,9.26,0,0,0-1.84-5.91c-.31-.45-.68-.25-.55.2a11.07,11.07,0,0,1,.43,3.21q0,8.29.06,16.58a11.81,11.81,0,0,1-1.47,5.72,14.19,14.19,0,0,1-12.52,5c-.49,0-.68.41-.18.51C368.71,325.91,377.25,322.15,377,313.08Zm-16-18.22a13,13,0,0,0-.06,1.51v16.41a4.69,4.69,0,0,0,.18,1.81,2,2,0,0,0,2.09,1,5.7,5.7,0,0,1-.31-2.21q0-8.2,0-16.39a10.41,10.41,0,0,1,.06-1.61,2.25,2.25,0,0,1,1-1.5C363,293.31,361.15,293.51,361,294.86Z" transform="translate(-233.79 -269.89)"/><path d="M404.62,311.42c0,.63-.08,1.63-.06,2.77a7.09,7.09,0,0,1-2.39,5.37c-4.35,4.47-12.51,2.88-18,2.84a2.36,2.36,0,0,1-1.47-.4c-.43-.4-.43-1.15-.43-2.8V289.7c0-1.2.12-2,.37-2.15.61-.5,2-.37,6.63-.36,1.59,0,2.9,0,3.87-.06a11.6,11.6,0,0,1,7.18,1.92,9.54,9.54,0,0,1,1.53,13.66c-.86,1-.86,1.36.12,2.31A8,8,0,0,1,404.62,311.42Zm.67-2.67a13.27,13.27,0,0,1,.43,2.72c0,.58-.08,1.58-.06,2.72a8,8,0,0,1-2.64,6c-4.67,4.74-12.91,3.21-18.85,3.13.12,1,.8,1.55,2.21,1.55,6,0,13.48,1.11,18-3.66,1.23-1.2,2.61-3,2.58-5,0-1.14-.18-2.72-.18-3.58a6.67,6.67,0,0,0-.8-3.48C405.62,308.56,405.23,308.55,405.29,308.75ZM390.13,294.7c-.45,2.43-.8,7.31,3.5,6.16a2.89,2.89,0,0,0,1.72-1.05,5.17,5.17,0,0,0,.55-4.62c-.38-1.34-1.54-1.95-3.19-2S390.36,293.46,390.13,294.7Zm5.71,20.15a5.69,5.69,0,0,0,.43-5.72,4.2,4.2,0,0,0-4.79-2.06c-1.64.66-1.41,1.35-1.41,4.76,0,3.71-.29,4.48,1.84,4.56Q394.73,316.51,395.84,314.85ZM392.65,294c-1.1-.05-1.4.06-1.6,1.36-.46,3.09.06,4.86,1.78,4.71-.06-.85,0-1.85,0-3.46s1.17-1.61,1.66-1.76A2.17,2.17,0,0,0,392.65,294ZM392,307.88c-.85.37-.8.25-.8,4s-.22,3.63.8,3.66a5.52,5.52,0,0,0,1,0v-4.66a2.71,2.71,0,0,1,.37-1.65,2,2,0,0,1,1-.7A2.29,2.29,0,0,0,392,307.88Zm10.74-4.61c-.49.6-.61.5.06,1.16l.61.55a7.34,7.34,0,0,0,.68-.65c1.9-2.06,2.39-5.44,1.6-8.36-.12-.55-.38-.76-.55-.7s0,.27.06.8A9.59,9.59,0,0,1,402.71,303.27Z" transform="translate(-233.79 -269.89)"/><path d="M430.82,310.55a28.6,28.6,0,0,1-.12,5.8c-2.17,8.76-14.25,8.29-19.27,2.62a5.44,5.44,0,0,1-1.29-4c0-6.63,0-13.66-.06-20,0-3.59,3-6.6,6.45-7.7a7.2,7.2,0,0,1,2.09-.38c1.76,0,3.11-.08,3.87-.05a7.06,7.06,0,0,1,1.66.23,13.73,13.73,0,0,1,5.28,3.56c1.84,1.81,1.54,5.84,1.47,7.38-.06,1.23-.52,1.51-2,1.55-1.26,0-2.53.07-3.8,0-1.7-.08-1.34-.37-1.47-3.51a3.36,3.36,0,0,0-3.38-3.23,3.22,3.22,0,0,0-2.21.88c-1.23,1.13-1.1,2.3-1.1,3.56,0,4.88,0,9.84,0,14.71a12.59,12.59,0,0,0,.12,2,3.24,3.24,0,0,0,3,2.82,3.33,3.33,0,0,0,3.56-3.22v-2.81c.12-1.12.46-1.45,1.72-1.47s2.72-.05,4.11,0C430.32,309.41,430.8,309.86,430.82,310.55Zm-12-16.18c-.86.82-.79,1.64-.8,3,0,4.89,0,9.85,0,14.72a8.61,8.61,0,0,0,.12,1.83v.05a2.18,2.18,0,0,0,1.9,2,12.13,12.13,0,0,1-.06-1.48c0-5.44,0-11,0-16.42,0-1.83.18-3.31,1.47-3.83a2.17,2.17,0,0,0-1.23-.4A2,2,0,0,0,418.86,294.37Zm13.56,17.43H432a17.53,17.53,0,0,1-.18,4.73c-1.38,5.74-7.67,8.28-13.07,7.41-.67-.11-.74.24-.12.4,5.15,1.32,12.23,0,14.36-5.53a15.52,15.52,0,0,0,.86-5.81A1.27,1.27,0,0,0,432.42,311.8ZM432,298.11c-.1,2.17-.12,2.47-5.28,2.49.06,1.23.25,1.38,1.47,1.43s2,0,3.25,0,2.22-.63,2.27-1.86c.07-1.54.06-4.9-1.35-7.1-.12-.2-.37-.56-.55-.56s-.18.16-.06.67A18.93,18.93,0,0,1,432,298.11Z" transform="translate(-233.79 -269.89)"/><path d="M455.43,323.51A3.26,3.26,0,0,1,452,321.4c-.06-.21-.49-1.23-1.35-3.14-1.47-3.25-2.33-5.14-2.58-5.62a6.07,6.07,0,0,0-1-1.64,1,1,0,0,0-1.29,0,2.92,2.92,0,0,0-.74,2.14c0-.1,0,1.62-.06,5.12,0,1.4,0,2.1,0,3.5-.12,1-.54,1.4-1.66,1.42s-2.42-.09-3.56-.14-1.36-.46-1.47-1.33a18.32,18.32,0,0,1-.06-1.87V289.68c0-1.61-.12-2.79,1.35-2.88s2.7-.11,4.11-.09,1.29,1.17,1.29,2.43v2.09a10.9,10.9,0,0,0,.31,3.65c.12.47.86.62,1.35.3a5.49,5.49,0,0,0,1.17-1.54c.34-.57.85-1.46,1.47-2.49s1.17-2,1.47-2.56c.74-1.12,1.06-2,2.15-2.11a41.8,41.8,0,0,1,6-.16.55.55,0,0,1,.49.79c-.19.42-.49,1-.8,1.51-1.94,3.49-4,6.93-6,10.39a8.54,8.54,0,0,1-.8,1.27,2.35,2.35,0,0,0-.06,2.43c.43.83,1,1.9,1.6,3.22,2.37,5.06,4.71,10.14,7.06,15.22a7.71,7.71,0,0,1,.55,1.46.78.78,0,0,1-.67.94,16.93,16.93,0,0,1-3.13,0Zm-8.53-10.73,1.17,2.48v.53c0-.05,0,1.68-.06,5.14v3.52c-.12,1-.54,1.4-1.66,1.42s-2.42-.1-3.56-.16-1.41-.4-1.47-1.34a.58.58,0,0,0-.06-.31l2.09.06c1.72-.11,2.52-.77,2.7-2.28v-3.56l.12-4.76a4.51,4.51,0,0,1,.06-.89C446.3,312.27,446.54,312,446.9,312.78ZM446,293.67c0-.58.06-1.52.06-2.46v-1.94h.68a1.41,1.41,0,0,1,1.29,1.92,21.83,21.83,0,0,1-1.53,2.59C446.29,294.09,446,294,446,293.67Zm16.81,32.71-4.29-.16c-1.53-.06-2.64-.47-3.31-1.76l2,.06c5.58.18,6.14.3,4.29-3.71q-3.5-7.61-7.06-15.24c-.61-1.33-1.22-2.39-1.66-3.23a1.59,1.59,0,0,1,.06-1.64c2.27-3.88,4.56-7.75,6.75-11.68l.12-.16,1.29,0a.58.58,0,0,1,.49.85c-.19.42-.49,1-.8,1.52-1.8,3.14-3.65,6.25-5.46,9.39-.61,1-.61,1,.67,3.71.43.85,1.47,3,2.09,4.32q3.42,7.37,6.81,14.77C465.8,325.52,465.19,326.47,462.8,326.38Z" transform="translate(-233.79 -269.89)"/><path d="M470.09,286c.89-.1,1.9-.17,2.94-.21,3-.1,3.13,0,3.13,2.7,0,4,0,8,.06,12a7.72,7.72,0,0,0,.31,3.08.71.71,0,0,0,1.35,0,6.26,6.26,0,0,0,.37-.83q2.29-7,4.54-13.95c.37-1,.61-1.75.74-2.14a1.6,1.6,0,0,1,1.53-1.23l5.82-.23c1.41,0,1.29,1.37,1.29,3.13v33.27c0,1.82.25,3.25-1.66,3.39l-2.15-.1c-3.43-.16-3.49-.15-3.49-3.18V309.54a7.13,7.13,0,0,0-.25-2.41c-.29-.67-1.22-.93-1.47-.18s-.45,1.34-.67,2c-1.43,4.11-3,8.35-4.6,12.48-.31.82-.49,1.25-.61,1.63-.67,1.74-3.43,1.19-4.91,1.13-3.25-.12-3.43-.24-3.43-3.12V288.68C468.93,287.43,468.86,286.12,470.09,286Zm13.8,23.6-.12,4.3c-1.11,3.52-2.42,7-3.74,10.4-.8,2.07-1.53,2.92-4.6,2.78-2.7-.12-3.31-.2-3.43-1.9h.37c1.35.05,5,.76,5.95-1.74l.61-1.63c1.41-3.77,2.58-6.41,3.19-8.35l1.29-3.94C483.52,309.19,483.89,309.25,483.89,309.59Zm-4.66-18.43v5l-.43,1.33-.92,3c-.18.55-.55.55-.55,0v-3.14l-.06-9C479.17,288.44,479.23,288.83,479.23,291.15Zm16-.09v32.75c0,3.38-.06,4.23-3.8,4-2.88-.15-3.37-.17-3.49-2l2.64.13c3.13-.19,2.7-2.6,2.7-4.37V287.93l.68,0C495.35,287.85,495.23,289.29,495.23,291.06Z" transform="translate(-233.79 -269.89)"/><path d="M502.58,302.9V287.59c0-1.34-.06-2.74,1.16-2.91.89-.12,1.9-.2,2.94-.25,3-.14,3.12,0,3.12,2.88,0,4.31,0,8.63.06,12.92a9,9,0,0,0,.31,3.32.69.69,0,0,0,1.35,0,6.81,6.81,0,0,0,.37-.89q2.28-7.53,4.53-15.07c.37-1.1.61-1.9.73-2.32a1.65,1.65,0,0,1,1.53-1.34l5.82-.3c1.41,0,1.29,1.48,1.29,3.39v15.86l2.45,1.42a1.11,1.11,0,0,1,.49.93,1.07,1.07,0,0,1-.49.87l-2.45,1.4V323.1c0,2,.25,3.53-1.65,3.66l-2.14-.13c-3.43-.2-3.49-.21-3.49-3.48V310a8.31,8.31,0,0,0-.25-2.61c-.29-.72-1.21-1-1.47-.19s-.45,1.45-.67,2.16c-1.43,4.42-3,9-4.59,13.44-.31.88-.49,1.34-.61,1.75-.67,1.87-3.43,1.24-4.9,1.16-3.25-.17-3.43-.29-3.43-3.38V307.27l-2.39-1.35a.94.94,0,0,1-.55-.81,1,1,0,0,1,.55-.87Zm20.52-31.79c.12-1.05-.37-1.32-1.59-1.21l-3.06.27c-1.1.09-1.16.71-1.35,1.8-.36,2.14-1.71,3.56-3.06,3.66s-2.62-1.15-2.94-3.3c-.11-.76.12-1.61-1.47-1.49l-2.14.17-1.41.11c-.67.05-1,.43-1,1a13.13,13.13,0,0,0,.43,2.84c1.18,3.81,5.1,5,8.64,4.78A9.52,9.52,0,0,0,523.1,271.12Zm-5.57,38.95c0,1.86-.07,2.79-.12,4.65-1.1,3.78-2.41,7.5-3.73,11.2-.8,2.23-1.53,3.13-4.59,2.94-2.7-.17-3.31-.26-3.43-2.09l.37,0c1.35.07,5,.88,5.94-1.81l.61-1.76c1.41-4,2.57-6.9,3.18-9L517,310C517.16,309.63,517.53,309.7,517.53,310.06Zm-4.65-19.9v5.43l-.43,1.44-.92,3.23c-.18.6-.55.6-.55,0v-3.39c0-3.87,0-5.81-.06-9.68C512.82,287.24,512.88,287.66,512.88,290.17Zm1.53-15.46c-.73.29-2-.16-2.45-2.33C514.47,272.07,514.1,272.87,514.41,274.71Zm11.15-.6a9.77,9.77,0,0,1-8.14,7.56,11.08,11.08,0,0,1-5.08-.62.25.25,0,0,1,.12-.48,13,13,0,0,0,2.27.17,9.68,9.68,0,0,0,9.19-7.86l.67-.05C525.31,272.78,525.86,273,525.55,274.11Zm6.24,34.25a1.07,1.07,0,0,1-.49.87l-2.45,1.4v14.94c0,3.67-.06,4.6-3.79,4.34-2.88-.2-3.37-.23-3.49-2.19l2.63.17c3.12-.17,2.69-2.8,2.69-4.72v-15l2-1.1a3.45,3.45,0,0,0,.67-.68l1.78,1.08A1.13,1.13,0,0,1,531.8,308.36Zm-4.9-21.79.67,0c1.41-.06,1.29,1.5,1.29,3.43v13.38l-2-1.11Z" transform="translate(-233.79 -269.89)"/><path d="M317.87,356.07l-.12-.32V355l.05-.61-.17-.2-.27-.19-.53.1-.53-.09-.24,0-.31,0L315,354l-.24.07-.32,0-.26-.05h-.26l-.29,0-1.21,0-.43,0-.22,0-.27.15-.12.26,0,.31,0,.51v.27l0,.19-.19.27-.27.15-.27-.17-.17-.24,0-.53-.07-.22v-.56l0-.39v-.46l.1-.32.22-.14.32-.07.24-.12.24-.41.14-.15.07-.26.1-.22.08-.26,0-.29.17-.51.17-1.14,0-.31,0-.32,0-.26.05-.34,0-.26v-.31l.05-.27,0-.27v-.32l0-.43,0-.43,0-.31,0-.22.09-.63,0-1.36.05-.29,0-.29,0-.51.19-.29.26-.17.29.05.26,0,.27,0,.53-.07.32,0H315l.31,0,.26.05.41-.05.42.05.29,0,.29,0,.27-.07.27.15.1.44v.72l0,.24,0,.22,0,.31,0,.85,0,.22,0,.63,0,.8,0,.26,0,.26-.05.58,0,.83,0,.27,0,.77,0,.32,0,.22,0,.29v.82l0,.31,0,.31,0,.53,0,.31.14.22.27.15.32-.05.26.17.12.34v.83l0,.54-.07.41,0,.34-.2.29-.27.15Zm-3.41-2.93.41.05,1.24-.07.29-.14.14-.26,0-.24,0-.27,0-.43,0-.41,0-.29,0-.43,0-.65-.05-.36.05-1,0-.26,0-.29,0-.26,0-2.45,0-.2v-.32l0-.26,0-.87,0-.27-.17-.2-.27-.15-.24,0h-.29l-.31,0-.53-.05-.32,0-.27,0-.24.15-.17.26,0,.29v.27l0,.27-.09,2.26-.07.24,0,.53-.19,2v.27l-.07.26,0,.26-.29,1.62-.19.53-.07.29-.12.26V353l.26.1.27,0,.22-.07.32.07.26,0Z" transform="translate(-233.79 -269.89)"/><path d="M324.31,354.08h-.53l-.27,0-.27.05-.26,0-.54,0-.27-.05-.24,0-.26,0-.55.07-.53,0-.27-.14-.15-.27,0-1.94-.05-.83,0-.29,0-.24,0-.31,0-.22,0-.27-.05-.31,0-.31,0-.48,0-.27,0-.31.05-.31,0-.29,0-.77,0-.34V346l0-.53,0-.31,0-.39.05-.68-.05-.22v-.27l0-.2,0-.31,0-.29,0-.22.12-.31.26-.12.29.07.24-.07.27.07.82-.07,1.38.05.82,0,.27,0,.24.14.17.19,0,.25-.17.24-.44.15-.39,0-.27,0-.31,0-.26,0-.29-.07-.58,0-.55.07-.29.15-.15.39,0,1,0,.56,0,.24,0,.82,0,.29,0,.24,0,.27.12.34.29.1.24,0,.27,0,.43,0,.51,0,.43,0,.49,0,.27,0,.29.14.12.29-.14.34-.26.15-.51.05-.26-.07-.58,0-.24,0-.29,0-.53,0-.29,0-.26.19-.14.24,0,.26,0,.31,0,.31V350l0,.22,0,.31-.05,1.74,0,.31.14.39.31.14.55,0,.29.05.29,0h.58l.29.05.26,0,.27,0,.27,0,.29.1.15.26,0,.26-.12.26-.27.14Z" transform="translate(-233.79 -269.89)"/><path d="M327,354.08l-.27-.08-.17-.31,0-1.6,0-.26,0-.27,0-.31,0-.26,0-.27.05-.27-.05-.27,0-.29,0-.39,0-1.06,0-.44,0-.26.05-.7,0-.39,0-.26.05-.31-.05-.29,0-.27,0-.26,0-1,0-.32,0-.29,0-.22.05-.27,0-.51.15-.32.27-.17.27.05h.26l.29,0h.55l.32.05.43-.05.39.05.31,0,.26.09.27,0,.26.1.27.15.26.1.17.15.39.44.15.22.1.26.22.49.07.31.14,1.26,0,.41-.08.29v.27l-.05.26-.26.75-.12.22-.32.44-.19.2-.22.17-.22.22-.46.26-.77.22-1.62.1-.22.12-.14.27,0,.26v1.91l0,.24,0,1.18-.14.39-.27.15Zm1.92-5.4.54-.1.27-.12.26-.07.26-.14.41-.43.12-.26.15-.2.17-.58,0-.29.05-.27,0-.82,0-.51-.05-.22-.12-.37-.19-.41-.17-.26-.39-.32-.24-.05-.31-.1-.65-.05-.39,0-.26,0-.27-.05-.26.17-.1.31v.24l0,1.29,0,.39,0,.27,0,.27,0,.26,0,.54,0,.32.05.44-.07.63.14.29.29.15.44,0Z" transform="translate(-233.79 -269.89)"/><path d="M338,354.08h-.53l-.27,0-.27.05-.26,0-.54,0-.27-.05-.24,0-.26,0-.55.07-.53,0L334,354l-.15-.27,0-1.94-.05-.83,0-.29,0-.24,0-.31,0-.22,0-.27-.05-.31,0-.31,0-.48,0-.27,0-.31.05-.31,0-.29,0-.77,0-.34V346l0-.53,0-.31,0-.39.05-.68-.05-.22v-.27l0-.2,0-.31,0-.29,0-.22.12-.31.26-.12.29.07.24-.07.27.07.82-.07,1.38.05.82,0,.27,0,.24.14.17.19,0,.25-.17.24-.44.15-.39,0-.27,0-.31,0-.26,0-.29-.07-.58,0-.55.07-.29.15-.15.39,0,1,0,.56,0,.24,0,.82,0,.29,0,.24,0,.27.12.34.29.1.24,0,.27,0,.43,0,.51,0,.43,0,.49,0,.27,0,.29.14.12.29-.14.34-.26.15-.51.05-.26-.07-.58,0-.24,0-.29,0-.53,0-.29,0-.26.19-.14.24,0,.26,0,.31,0,.31V350l0,.22,0,.31-.05,1.74,0,.31.14.39.31.14.55,0,.29.05.29,0h.58l.29.05.26,0,.27,0,.27,0,.29.1.15.26,0,.26-.12.26-.27.14Z" transform="translate(-233.79 -269.89)"/><path d="M341.13,354.08h-.51l-.22-.14-.14-.24,0-.26v-1.94l0-.22,0-.29,0-.22,0-.29,0-.58,0-.27,0-.26,0-.27,0-.27,0-.26,0-.34,0-.19,0-.26,0-.65,0-.22,0-.26-.05-.26,0-.31.05-.24-.05-.27.05-2.45,0-.26,0-.27.17-.29.27-.12.24,0,.26,0h.31l.26,0,.26.05,1.7.09.63.2.39.2.19.14.24.27.29.43.19.53,0,.24,0,.27,0,.87-.07.29-.15.54-.14.22-.15.19-.15.22-.21.24-.46.32-.12.15.15.1.24.19.22.12.19.2.22.19.41.68.1.27.07.29.05.32.07.22,0,.87-.15.83-.17.49-.17.24-.15.26-.14.17-.22.2-.2.14-.21.19-.22.15-1.09.31-1.87.09Zm2.5-1.09.26-.1.19-.14.22-.19.15-.17.12-.22.1-.31.05-.26.1-.2,0-1.41-.1-.54-.29-.49-.15-.2-.44-.32-.82-.26-.41,0-.36,0-.51.05-.24.15-.14.31.05.2-.05.31,0,.22-.05.75,0,.51,0,.72,0,.27,0,.53,0,.27,0,.27.17.34.24.09.26,0,.42,0Zm-.72-5.76.29-.12.27-.07.46-.29.17-.17.39-.78.07-.29v-.8l-.07-.22-.05-.27-.12-.27-.17-.2-.17-.17-.46-.29-.26-.07-.29-.05h-.73l-.39-.05-.34.14-.15.31,0,3.34.14.27.29.08.85,0Z" transform="translate(-233.79 -269.89)"/><path d="M352.6,354.06l-.34-.07-.15-.27,0-.24,0-.46,0-.29-.07-1.23.05-.41v-1l-.05-.27,0-.56-.12-.27-.29-.14-.49,0-.24-.05-.32.14-.26.31L350,350l-.14.26-.1.26-.1.2-.08.29-.12.24-.08.22-.12.26-.1.29-.07.24-.15.26-.07.2-.12.26-.09.31-.08.2-.12.24-.29.29-.32.07-.29,0-.24-.12,0-.24.19-.49.14-.24.41-1.11.34-.71.09-.29.78-1.77-.05-.32-.2-.24-.22-.05-.22-.19-.26-.14-.36-.41-.17-.2-.14-.22-.21-.53-.17-.8v-.44l0-.6.21-.83.24-.53.34-.46.19-.17.24-.14.22-.2.34-.15.41-.17.26-.05,2-.1.24,0,.54,0,.29,0,.27.14.17.27V343l0,.65,0,.31v.26l0,.27,0,.58,0,.29,0,.26-.05.54,0,4,.05.43,0,.58,0,.39,0,.43,0,1v.49l.05.22-.1.27-.29.17Zm-1.33-6.15.29,0,.34-.14.12-.26,0-1.35,0-.43-.05-.39,0-.27,0-.27,0-.68,0-.37v-.24l-.17-.24-.22-.17-.39,0-1,.05-.55.12-.24.1-.29.14-.56.58-.1.27-.12.56-.07.7,0,.43.1.53.24.54.17.2.48.36.24.09.29.07.22,0,.29.05.44,0Z" transform="translate(-233.79 -269.89)"/><path d="M355.74,353.93l-.14-.24.05-1.06-.05-.31V352l0-.27,0-1.07,0-.24,0-1,0-.22,0-1,0-.27,0-.53,0-.83,0-.68,0-1.81v-.51l0-.24v-.27l0-.19,0-.29.14-.27.26-.1.29-.05.29.15.14.15.07.27,0,.29.05.31,0,.46,0,.27,0,3,.12.26.29.15.27.05h.29l.26,0,.39,0,.39,0,.26,0,.27,0,.24,0,.26,0h.31l.26-.15.14-.22,0-.58,0-.39,0-.7,0-2.23,0-.58.09-.24.29-.19.27,0,.31.14.17.26v.26l0,.27v1.12l0,.26v.87l0,.22,0,.44,0,.26,0,.46,0,.27,0,.26,0,.31,0,.27v.24l0,.54,0,.26,0,.31,0,.22,0,.31V350l0,.32,0,.53,0,.65,0,.37-.05.53v.53l0,.22v.34l0,.26-.12.2-.2.14-.31,0-.31-.15-.15-.2,0-.19-.08-.54,0-.58,0-.27,0-.24v-.44l0-.37,0-2.25-.15-.27-.27-.17-.26,0-.51,0-.44-.07-1.43.05-.27,0-.27.15-.12.27,0,.22,0,.54,0,.31,0,.26v.49l0,.32,0,.46,0,.29-.05.56.05.27-.05,1.07-.15.24-.24.19h-.27Z" transform="translate(-233.79 -269.89)"/><path d="M364.16,353.93l-.14-.24.05-1.06-.05-.31V352l0-.27,0-1.07,0-.24,0-1,0-.22,0-1,0-.27,0-.53,0-.83,0-.68,0-1.81v-.51l0-.24v-.27l0-.19,0-.29.14-.27.26-.1.29-.05.29.15.14.15.07.27,0,.29,0,.31,0,.46,0,.27,0,3,.12.26.29.15.27.05h.29l.26,0,.39,0,.39,0,.26,0,.27,0,.24,0,.26,0h.31l.26-.15.14-.22,0-.58,0-.39.05-.7-.05-2.23.05-.58.08-.24.29-.19.27,0,.31.14.17.26v.26l0,.27v1.12l0,.26v.87l0,.22,0,.44,0,.26,0,.46,0,.27,0,.26,0,.31,0,.27v.24l0,.54,0,.26,0,.31,0,.22,0,.31V350l0,.32,0,.53,0,.65,0,.37,0,.53v.53l0,.22v.34l0,.26-.12.2-.2.14-.31,0-.31-.15-.15-.2,0-.19-.08-.54,0-.58,0-.27.05-.24v-.44l-.05-.37,0-2.25-.15-.27-.27-.17-.26,0-.51,0-.44-.07-1.43.05-.27,0-.27.15-.12.27,0,.22,0,.54,0,.31,0,.26v.49l0,.32,0,.46,0,.29-.05.56.05.27-.05,1.07-.15.24-.24.19h-.27Z" transform="translate(-233.79 -269.89)"/><path d="M372.85,354.11l-.26-.15-.1-.46,0-1.75,0-.27,0-.29,0-.22,0-.29,0-.56.05-.24,0-.61,0-.24,0-3.29,0-.26,0-.29,0-1.35,0-.24,0-.31,0-.2-.05-.54.12-.31.39-.07.48.07.15.27,0,.24v.2l.05,1.79,0,.36,0,.53-.05.29.15.22.29.12.31,0h.48l.94.09.75.26.26.1.44.34.19.19.15.19.46.94.08.29.07.27,0,.27,0,1.31,0,.31-.07.29,0,.27-.07.24-.05.26-.24.58-.1.17-.34.44-.41.44-.24.17-.26.12-.51.15-1.4.12-.29-.05-.26.07h-.41l-.31,0Zm1.82-1,.46,0,.26-.09.26-.05.25-.07.27-.15.2-.15.46-.68.19-.82.05-1,0-.41v-.27l-.17-.85-.12-.27-.26-.46-.22-.22-.24-.17-.37-.15-.43-.1-.75,0-.29-.08-.2.05-.29.17-.1.31,0,.22,0,.24,0,.27,0,.56,0,.24,0,.26,0,.26,0,.32,0,.22,0,.43,0,.8,0,.39,0,.31,0,.49.12.27.29.12.24,0Zm5.42.92-.31-.08-.19-.26-.05-.48,0-.27,0-.26,0-.24,0-.32,0-.22,0-.43,0-.39.05-.27-.05-1.91,0-.26,0-.56,0-.26,0-.29,0-1.19,0-.44,0-.22,0-1.31,0-.31v-.24l.05-.29,0-.26,0-.24v-.31l0-.22.1-.27.27-.15.26,0,.31.12.19.22v.24l.05.8,0,.29,0,.29v.61l-.05.56.05,1.7,0,.29,0,2.74-.07.54,0,.24,0,.31,0,.39,0,.36,0,.29.07,1,0,.27,0,.22-.12.29-.27.1Z" transform="translate(-233.79 -269.89)"/><path d="M387.23,354.08h-.53l-.27,0-.27.05-.26,0-.55,0-.27-.05-.24,0-.26,0-.54.07-.53,0-.27-.14-.15-.27,0-1.94,0-.83,0-.29,0-.24,0-.31,0-.22,0-.27-.05-.31,0-.31,0-.48,0-.27,0-.31.05-.31,0-.29,0-.77,0-.34V346l0-.53,0-.31,0-.39.05-.68-.05-.22v-.27l0-.2,0-.31,0-.29,0-.22.12-.31.26-.12.29.07.24-.07.27.07.82-.07,1.38.05.82,0,.27,0,.24.14.17.19,0,.25-.17.24-.44.15-.39,0-.27,0-.31,0-.26,0-.29-.07-.58,0-.54.07-.29.15-.15.39,0,1,0,.56,0,.24,0,.82,0,.29,0,.24,0,.27.12.34.29.1.24,0,.27,0,.43,0,.51,0,.42,0,.49,0,.27,0,.29.14.12.29-.14.34-.26.15-.51.05-.26-.07-.58,0-.24,0-.29,0-.53,0-.29,0-.26.19-.14.24,0,.26,0,.31,0,.31V350l0,.22,0,.31-.05,1.74,0,.31.14.39.31.14.54,0,.29.05.29,0h.58l.29.05.26,0,.27,0,.27,0,.29.1.15.26,0,.26-.12.26-.27.14Z" transform="translate(-233.79 -269.89)"/><path d="M398.81,356.07l-.12-.32V355l.05-.61-.17-.2-.27-.19-.53.1-.53-.09-.24,0-.31,0-.78-.07-.24.07-.32,0-.26-.05h-.26l-.29,0-1.21,0-.43,0-.22,0-.27.15-.12.26,0,.31,0,.51v.27l0,.19-.19.27-.27.15-.27-.17-.17-.24,0-.53-.07-.22v-.56l0-.39v-.46l.1-.32.22-.14.32-.07.24-.12.24-.41.14-.15.07-.26.1-.22.08-.26,0-.29.17-.51.17-1.14,0-.31,0-.32,0-.26.05-.34,0-.26v-.31l.05-.27,0-.27v-.32l0-.43,0-.43,0-.31,0-.22.09-.63,0-1.36.05-.29,0-.29,0-.51.19-.29.26-.17.29.05.26,0,.27,0,.53-.07.32,0H396l.31,0,.26.05.41-.05.42.05.29,0,.29,0,.27-.07.27.15.1.44v.72l0,.24,0,.22,0,.31,0,.85,0,.22,0,.63,0,.8,0,.26,0,.26-.05.58,0,.83,0,.27,0,.77,0,.32,0,.22,0,.29v.82l0,.31,0,.31,0,.53,0,.31.14.22.27.15.32-.05.26.17.12.34v.83l0,.54-.07.41,0,.34-.2.29-.27.15Zm-3.41-2.93.41.05,1.24-.07.29-.14.14-.26,0-.24,0-.27,0-.43,0-.41,0-.29,0-.43,0-.65-.05-.36.05-1,0-.26,0-.29,0-.26,0-2.45,0-.2v-.32l0-.26,0-.87,0-.27-.17-.2-.27-.15-.24,0h-.29l-.31,0-.53-.05-.32,0-.27,0-.24.15-.17.26,0,.29v.27l0,.27-.09,2.26-.07.24,0,.53-.19,2v.27l-.07.26,0,.26-.29,1.62-.19.53-.07.29-.12.26V353l.26.1.27,0,.22-.07.32.07.26,0Z" transform="translate(-233.79 -269.89)"/><path d="M403,354.25l-.27-.09-.26-.05-.2-.1-.41-.31-.34-.34-.15-.22-.12-.2-.19-.51-.14-.22-.15-.53-.26-2,0-.32-.05-.29v-.24l0-.24v-1.7l0-.22,0-.29,0-.29v-.26l.07-.27.1-.83.24-.82.12-.19.09-.29.15-.17.1-.29.19-.22.22-.14.19-.15.24-.15.22-.12.26-.1.24-.05.26,0,.41,0,.39,0,.31.05.22.07.22.05.24.12.44.26.17.15.36.41.24.48.15.48.1.26.07.29.27,2v.27l0,.27.05,1.65-.05.53v.56l-.07.27-.05.83-.08.51-.14.56-.31.78-.27.43-.19.26-.2.19-.43.29-.2.1-.26,0-.26.08-.29,0h-.41l-.39,0Zm1.26-1,.26-.07.17-.17.19-.15.29-.39.17-.51.12-.26,0-.27,0-.34.09-.54.07-.78,0-.31,0-.24,0-1.48,0-.22-.05-.54,0-.31-.07-1-.1-.53,0-.31-.12-.22-.08-.24-.07-.31-.12-.26-.15-.22-.39-.36-.24-.09L404,343l-.36,0-.39,0-.24.09-.22.07-.17.14-.34.39-.22.41-.22.87-.14.8,0,.6,0,.25,0,.82,0,.75,0,.41v.26l0,.27,0,1.11,0,.2,0,.53.2.89.15.48.1.26.37.39.22.12.2.15.26.09.77,0Z" transform="translate(-233.79 -269.89)"/><path d="M408.82,354l-.14-.29,0-1.91-.05-.26,0-.82,0-.27,0-1.09,0-.29,0-.24,0-.26.05-2.21,0-.27,0-.29,0-.78,0-.27,0-.27,0-.29,0-.49,0-.31,0-.65.14-.43.29-.15.27,0,.31,0,.27,0,.32.12.22.24.87,3.13.1.53.12.31.05.26.19.49,0,.27.1.29.63,2.64.07.48.1.43.14.12.66-2.95.19-.53,0-.2.1-.26.07-.27,0-.31.36-1.26.1-.24.37-1.62.2-.51.07-.31.05-.24.08-.26.17-.26.46-.19.43,0,.26.05.27.12.19.26-.05,2,.05.29,0,.53,0,.31,0,1.6,0,.31,0,.27.05.53-.05.85.05,1.33-.05.32,0,.29-.05,1.28,0,.27V353l0,.22,0,.22,0,.31-.1.24-.22.14-.27,0-.29-.15-.19-.19v-.2l0-.27,0-.27,0-.29,0-.24.05-1-.05-.43,0-.31v-.29l0-.27,0-.26,0-.29v-.29l0-.58-.05-1.09.05-1.14,0-.78,0-.26,0-.34,0-.24,0-.34,0-1.06h-.07l-.12.25,0,.24,0,.32-.08.22-.05.31-1,3.64-.12.27,0,.27-.1.22-.05.26-.51,1.87-.1.24-.05.31-.09.2-.24.29-.31.09-.26,0-.32-.12-.22-.24-.17-.51,0-.27-.07-.31-.1-.26-.14-.51-.12-.22-.07-.39-.14-.41-.05-.27-.17-.53-.08-.22-.05-.29-.1-.22-.1-.55-.29-.8-.68-2.95-.09,0,0,.56,0,.53,0,.29,0,.27v.26l0,1.16,0,.24,0,.56,0,.29,0,.27,0,.2,0,.85,0,.24,0,.27,0,4.09-.12.29-.29.15-.24,0Z" transform="translate(-233.79 -269.89)"/><path d="M418.53,353.93l-.07-.27.31-1.29.1-.24,0-.27.08-.24.34-1.65.24-.77.05-.26.26-1.12,0-.24.17-.51,0-.24.36-1.36,0-.24.12-.27.08-.54.15-.55.09-.2.05-.27,0-.27.17-.55.17-.26.31-.15.27,0,.26.05.27.12.19.24.1.29.05.31.22.78.09.53.31,1,.15.83.1.24,0,.31.29,1,0,.27.27,1.07.05.31.08.22,0,.27.26.8.07.51.1.32,0,.2.31,1.06.17.83-.08.27-.22.1h-.31l-.32-.17-.22-.22-.08-.55-.07-.27-.1-.24-.1-.6-.08-.27-.05-.29-.14-.49-.2-.31-.27-.14h-.78l-.41-.05h-.36l-.26,0h-.58l-.31.14-.17.31-.54,2.49-.1.22-.2.26-.27.19h-.34Zm3.83-4.36h.53l.22-.08.05-.27-.14-.56,0-.29-.07-.27,0-.2-.1-.24,0-.31-.07-.26-.12-.24-.07-.54-.12-.46-.05-.39-.17-.75-.07-.56-.15-.54,0-.05-.12.54-.17,1.18-.08.19-.17.87,0,.26-.09.27-.07.24-.15.49,0,.32-.07.26-.17.48,0,.32-.05.22,0,.31.24.1h.29l.26,0,.54,0Z" transform="translate(-233.79 -269.89)"/><path d="M430,354.1l-.66,0-.43-.12-.14-.34,0-1.58.08-.31.05-.24.12-.26.07-.29.08-.26.15-.2.1-.24.17-.27.1-.2.17-.22.14-.26.19-.17.14-.27.55-.6.17-.26.17-.19.17-.2.12-.2.19-.22.12-.24.17-.2.12-.26.1-.29.14-.19,0-.29,0-.22.05-.27,0-.87-.08-.27-.29-.43-.19-.14-.21-.07-.26-.14-.37-.07-.41.05-.22.07-.29.07-.22.17-.44.26-.26.07-.34-.09-.09-.38.1-.34.26-.17.19-.17.2-.12.22-.07.26-.12.31-.05.26-.07.71-.05.67.07.22.1.27.08.26.17.37.34.29.37.07.26.1.27.05.26v1.12l-.05.31-.12.48-.14.27-.07.26-.12.26-.6.9-.14.19-.15.26-.19.2-.32.43-.22.22-.1.22-.19.17-.63.89-.56,1.24-.14.56,0,.48.1.29.26.17.41,0,.44-.05h1.12l.29.05.41-.05.37,0,.31.14.14.36-.14.27-.31.19-.27-.05-.26.05-.56,0-.82.05-.26-.07-.56,0-.27.05Z" transform="translate(-233.79 -269.89)"/><path d="M437.39,354.25l-.24-.05-.22-.1-.24-.05-.22-.12-.24-.19-.49-.51-.08-.31-.14-.2-.08-.29-.27-.75L435,350v-.32l-.05-1.24.05-1,0-.26,0-.27,0-.27.05-.24v-.31l0-.27.07-.22.12-.83.22-.75.37-.75.58-.54.48-.26.26-.08.24,0,.41-.07.41.05.24.1.26.05.24.08.2.1.41.38.14.22.15.19.14.24.2.51.27,1.07.17,1.5,0,.27.05.31,0,.27,0,.31,0,1.63,0,.29-.05.29,0,.26-.15,1-.1.31,0,.31-.19.51-.14.26-.14.2-.12.24-.17.19-.15.2-.26.2-.2.12-.24.12-.26.09-.24.07-.41,0Zm.41-1,.32-.05.26-.07.17-.1.14-.19.19-.17.12-.22.14-.53.1-.27.08-.26,0-.29.05-.29v-.27l0-.26.05-.9,0-.24,0-1.45,0-.29-.07-.85-.05-.26,0-.29,0-.24-.2-1.12-.22-.49-.15-.27-.37-.44-.27-.09-.39,0h-.36l-.22.08-.17.14-.14.2-.17.2-.12.24-.14.26,0,.29-.09.26-.17,1.12v.36l0,.29,0,.26,0,1.79,0,.26.07.29,0,.22,0,.51.15,1.38.19.56.05.24.14.26.27.46.26.1.27.15Z" transform="translate(-233.79 -269.89)"/><path d="M444.47,354.25l-.24-.05-.22-.1-.24-.05-.22-.12-.24-.19-.49-.51-.08-.31-.14-.2-.08-.29-.27-.75L442,350v-.32l-.05-1.24.05-1,0-.26.05-.27,0-.27,0-.24v-.31l0-.27.07-.22.12-.83.22-.75.37-.75.58-.54.48-.26.26-.08.24,0,.41-.07.41.05.24.1.26.05.24.08.2.1.41.38.14.22.15.19.14.24.2.51.27,1.07.17,1.5,0,.27,0,.31,0,.27,0,.31,0,1.63,0,.29-.05.29,0,.26-.15,1-.1.31,0,.31-.19.51-.14.26-.14.2-.12.24-.17.19-.15.2-.26.2-.2.12-.24.12-.26.09-.24.07-.41,0Zm.41-1,.32-.05.26-.07.17-.1.14-.19.19-.17.12-.22.14-.53.1-.27.09-.26,0-.29.05-.29v-.27l0-.26.05-.9.05-.24,0-1.45,0-.29-.07-.85,0-.26,0-.29,0-.24-.2-1.12-.22-.49-.15-.27-.37-.44-.27-.09-.39,0h-.36l-.22.08-.17.14-.14.2-.17.2-.12.24-.14.26,0,.29-.08.26-.17,1.12v.36l0,.29,0,.26,0,1.79,0,.26.07.29,0,.22,0,.51.15,1.38.19.56.05.24.14.26.27.46.26.1.27.15Z" transform="translate(-233.79 -269.89)"/><path d="M450.41,354.1l-.66,0-.43-.12-.14-.34,0-1.58.08-.31.05-.24.12-.26.07-.29.08-.26.15-.2.1-.24.17-.27.1-.2.17-.22.14-.26.19-.17.14-.27.55-.6.17-.26.17-.19.17-.2.12-.2.19-.22.12-.24.17-.2.12-.26.1-.29.14-.19,0-.29,0-.22.05-.27,0-.87-.08-.27-.29-.43-.19-.14-.21-.07-.26-.14-.37-.07-.41.05-.22.07-.29.07-.22.17-.44.26-.26.07-.34-.09-.09-.38.1-.34.26-.17.19-.17.2-.12.22-.07.26-.12.31-.05.26-.07.72-.05.66.07.22.1.27.08.26.17.37.34.29.37.07.26.1.27.05.26v1.12l-.05.31-.12.48-.14.27-.07.26-.12.26-.6.9-.14.19-.15.26-.19.2-.32.43-.22.22-.1.22-.19.17-.63.89-.56,1.24-.14.56,0,.48.1.29.26.17.41,0,.44-.05h1.12l.29.05.41-.05.37,0,.31.14.14.36-.14.27-.31.19-.27-.05-.26.05-.56,0-.82.05-.26-.07-.56,0-.27.05Z" transform="translate(-233.79 -269.89)"/></svg>