<?xml version="1.0" encoding="iso-8859-1"?>
<!-- Generator: Adobe Illustrator 19.0.0, SVG Export Plug-In . SVG Version: 6.00 Build 0)  -->
<svg version="1.1" id="Layer_1" xmlns="http://www.w3.org/2000/svg" xmlns:xlink="http://www.w3.org/1999/xlink" x="0px" y="0px"
	 viewBox="0 0 512 512" style="enable-background:new 0 0 512 512;" xml:space="preserve">
<g>
	<g>
		<g>
			<path d="M54.857,110.237c-5.77,0-10.449,4.679-10.449,10.449v46.498H10.449C4.679,167.184,0,171.863,0,177.633
				c0,5.77,4.679,10.449,10.449,10.449h33.959v31.347H10.449C4.679,219.429,0,224.108,0,229.878c0,5.77,4.679,10.449,10.449,10.449
				h33.959v31.347H10.449C4.679,271.673,0,276.353,0,282.122c0,5.77,4.679,10.449,10.449,10.449h33.959v31.347H10.449
				C4.679,323.918,0,328.597,0,334.367c0,5.77,4.679,10.449,10.449,10.449h33.959v46.498c0,5.77,4.679,10.449,10.449,10.449
				c5.77,0,10.449-4.679,10.449-10.449V120.686C65.306,114.916,60.627,110.237,54.857,110.237z"/>
			<path d="M391.314,446.694H120.686c-5.77,0-10.449,4.679-10.449,10.449c0,5.77,4.679,10.449,10.449,10.449h46.498v33.959
				c0,5.77,4.679,10.449,10.449,10.449c5.77,0,10.449-4.679,10.449-10.449v-33.959h31.347v33.959c0,5.77,4.679,10.449,10.449,10.449
				c5.77,0,10.449-4.679,10.449-10.449v-33.959h31.347v33.959c0,5.77,4.679,10.449,10.449,10.449c5.77,0,10.449-4.679,10.449-10.449
				v-33.959h31.347v33.959c0,5.77,4.679,10.449,10.449,10.449c5.77,0,10.449-4.679,10.449-10.449v-33.959h46.498
				c5.77,0,10.449-4.679,10.449-10.449C401.763,451.373,397.084,446.694,391.314,446.694z"/>
			<path d="M120.686,65.306h270.629c5.77,0,10.449-4.679,10.449-10.449c0-5.77-4.679-10.449-10.449-10.449h-46.498V10.449
				c0-5.77-4.679-10.449-10.449-10.449c-5.77,0-10.449,4.679-10.449,10.449v33.959h-31.347V10.449
				c0-5.77-4.679-10.449-10.449-10.449c-5.77,0-10.449,4.679-10.449,10.449v33.959h-31.347V10.449
				c0-5.77-4.679-10.449-10.449-10.449c-5.77,0-10.449,4.679-10.449,10.449v33.959h-31.347V10.449
				c0-5.77-4.679-10.449-10.449-10.449c-5.77,0-10.449,4.679-10.449,10.449v33.959h-46.498c-5.77,0-10.449,4.679-10.449,10.449
				C110.237,60.627,114.916,65.306,120.686,65.306z"/>
			<path d="M391.314,86.204H120.686c-19.013,0-34.482,15.469-34.482,34.482v270.629c0,19.013,15.469,34.482,34.482,34.482h270.629
				c19.013,0,34.482-15.469,34.482-34.482V120.686C425.796,101.673,410.327,86.204,391.314,86.204z M404.898,391.314
				c0,7.49-6.094,13.584-13.584,13.584H120.686c-7.49,0-13.584-6.094-13.584-13.584V120.686c0-7.49,6.094-13.584,13.584-13.584
				h270.629c7.49,0,13.584,6.094,13.584,13.584V391.314z"/>
			<path d="M373.551,128H138.449c-5.77,0-10.449,4.679-10.449,10.449v235.102c0,5.77,4.679,10.449,10.449,10.449h235.102
				c5.77,0,10.449-4.679,10.449-10.449v-61.127c0-5.77-4.679-10.449-10.449-10.449c-5.77,0-10.449,4.679-10.449,10.449v50.678
				H148.898V148.898h214.204v32.914c0,5.77,4.679,10.449,10.449,10.449c5.77,0,10.449-4.679,10.449-10.449v-43.363
				C384,132.679,379.321,128,373.551,128z"/>
			<path d="M373.551,238.676c-5.77,0-10.449,4.679-10.449,10.449v1.045c0,5.77,4.679,10.449,10.449,10.449
				c5.77,0,10.449-4.679,10.449-10.449v-1.045C384,243.354,379.321,238.676,373.551,238.676z"/>
			<path d="M501.551,240.327c5.77,0,10.449-4.679,10.449-10.449c0-5.77-4.679-10.449-10.449-10.449h-33.959v-31.347h33.959
				c5.77,0,10.449-4.679,10.449-10.449c0-5.77-4.679-10.449-10.449-10.449h-33.959v-46.498c0-5.77-4.679-10.449-10.449-10.449
				c-5.77,0-10.449,4.679-10.449,10.449v270.629c0,5.77,4.679,10.449,10.449,10.449c5.77,0,10.449-4.679,10.449-10.449v-46.498
				h33.959c5.77,0,10.449-4.679,10.449-10.449c0-5.77-4.679-10.449-10.449-10.449h-33.959v-31.347h33.959
				c5.77,0,10.449-4.679,10.449-10.449c0-5.77-4.679-10.449-10.449-10.449h-33.959v-31.347H501.551z"/>
			<circle cx="186.378" cy="186.378" r="10.449"/>
			<circle cx="325.611" cy="325.611" r="10.449"/>
		</g>
	</g>
</g>
<g>
</g>
<g>
</g>
<g>
</g>
<g>
</g>
<g>
</g>
<g>
</g>
<g>
</g>
<g>
</g>
<g>
</g>
<g>
</g>
<g>
</g>
<g>
</g>
<g>
</g>
<g>
</g>
<g>
</g>
</svg>
