<svg id="Capa_1" xmlns="http://www.w3.org/2000/svg" viewBox="0 0 57.5 57.5" fill="#fff"><path d="M52.4,44.8c0.2-0.9-0.2-1.8-0.9-2.8c0-0.8,0-1.8,0.1-2.8c0-0.6,0-1.1,0-1.8c0-0.6,0-1.3,0.1-1.9c0-1.3,0.1-2.8,0.2-4.3	c0.1-3.1,0.3-6.6,0.4-10.4c0-0.9,0.1-1.9,0.1-2.9c0-0.5,0-1,0-1.5c0-0.3,0-0.5,0-0.8c-0.2,0.2-0.2,0-0.2-0.2v-0.5	c-0.1-1.2-0.5-2.4-1.2-3.4l-0.3-0.4l-0.2-0.2l-0.2-0.2L50,10.4l-0.3-0.3l-0.2-0.2l-0.2-0.2l-0.4-0.3l-0.4-0.3L48.3,9l-0.2-0.1	l-0.4-0.2l-0.5-0.2L47,8.4l-0.2-0.1l-0.5-0.1c-0.2,0-0.3-0.1-0.5-0.1h-0.3c-0.1,0-0.2,0-0.2,0h-0.4h-0.1h-0.1h-0.2	c-1.1,0-2.3,0-3.4,0c-2.3,0-4.6,0-7,0c-4.8,0-9.7,0.1-14.7,0.2c-1.2,0-2.5,0-3.8,0.1h-0.9h-0.5c-0.2,0-0.3,0-0.5,0	c-0.7,0.1-1.4,0.2-2.1,0.5c-0.4,0.2-0.8,0.4-1.2,0.6C10.1,9.7,9.9,9.8,9.7,10H9.6H9.5c-1.9,0.1-3.2,1.3-3.9,3.7l-0.2,0.6	c-0.2,0.1-0.3,0.3-0.3,0.5c0,0.2,0.1,0.3,0.2,0.4c0,1.1-0.1,2.4-0.1,4c0,1.5,0.1,3.1,0.2,4.9c0,0.2,0,0.5,0.1,0.7	c0.1,1.4,0.6,4.7,1.3,9.6c0.2,1.2,0.4,3.3,0.6,6.2c0.2,2.7,0.5,4.8,0.7,6.3c0.4,2.6,2.4,3.9,5.8,4.1c0.2,0,0.4,0,0.6,0.1	c0.4,0.1,0.6,0.1,0.7,0.1c0.5,0.1,0.9,0,1.3-0.1h0.2c1.6,0.4,3,0.5,4.3,0.5c0,0,0,0,0,0c4.2,0,9.9,0.5,14.6,0.2	c0.2,0.2,0.4,0.3,0.6,0.2c0.2,0,0.3-0.1,0.3-0.2l1.9-0.1c3.5-0.2,6.1-0.6,7.8-1.1c1.1-0.3,2-0.6,2.8-1c0.2,0,0.2,0,0.3,0	c0.2,0,0.3,0,0.4-0.1c0.1-0.1,0.2-0.2,0.3-0.4V49c1.3-0.9,2.1-2,2.4-3.3C52.5,45.4,52.5,45.1,52.4,44.8z M9.6,38	c0.1,0.6,0.2,1.3,0.3,1.9V41c-0.8-0.8-1.2-1.3-1.3-1.7c0-0.2,0.1-0.5,0.5-0.8C9.3,38.3,9.5,38.1,9.6,38z M8.9,11.6	C8.8,12,8.8,12.4,9,12.9v0.6c-0.3-0.3-0.6-0.8-1.1-1.3C8.2,11.9,8.5,11.7,8.9,11.6z M9,19.7l-0.2-0.3c-0.8-1-1.3-1.7-1.4-2	c-0.1-0.3-0.1-0.6-0.1-0.7s0.1-0.2,0.2-0.2c0.1-0.1,0.5-0.2,1.2-0.3c0.1-0.1,0.2-0.1,0.3-0.1C8.9,16.8,8.9,18,9,19.7z M6.8,14.2	c0.1-0.4,0.2-0.7,0.4-1c0.6,0.6,1,1.1,1.2,1.4c-0.2,0-0.5,0-0.8-0.1c-0.1,0-0.2,0-0.4,0s-0.3,0-0.5-0.1L6.8,14.2z M6.5,15.6h0.2	C6.6,15.7,6.6,15.7,6.5,15.6L6.5,15.6z M6.3,22.6c-0.1-1.2-0.1-2.4-0.1-3.5L6.3,18c0.1,0.3,0.6,1.1,1.5,2.1c0.6,0.8,1,1.4,0.9,1.9	c0,0.1-0.1,0.2-0.2,0.2c-0.1,0.1-0.4,0.1-0.8,0.1c-0.6,0-1,0.1-1.2,0.2L6.3,22.6z M6.7,24.5V24H6.6c0.1-0.2,0.2-0.3,0.4-0.3	c0.2-0.1,0.5-0.1,1-0.1s0.9-0.1,1.1-0.2c0,3,0,4.6,0,4.6c-0.2-0.3-0.5-0.8-1.1-1.5c-0.5-0.6-0.9-1.1-1.1-1.5	C6.8,24.8,6.8,24.7,6.7,24.5z M7.2,30.3C7.1,29,7,28,6.9,27.1L7,27.3c0.6,0.7,0.9,1.2,1.1,1.4c0.2,0.4,0.3,0.7,0.2,0.9	c0,0.1-0.2,0.2-0.6,0.4C7.5,30.1,7.4,30.2,7.2,30.3z M7.8,31.4c0-0.2,0.2-0.3,0.5-0.5c0.3-0.2,0.6-0.3,0.7-0.5	c0.1,1.7,0.1,3.3,0.2,4.8c0,0-0.3-0.5-0.8-1.4C7.9,32.9,7.6,32,7.8,31.4z M8.1,35.5c0.3,0.6,0.6,1.2,0.6,1.6c0,0.1-0.1,0.3-0.4,0.6	C8.3,36.9,8.2,36.2,8.1,35.5z M9,44.9c-0.2-0.9-0.3-2.1-0.4-3.5l0.5,0.4c0.7,0.6,1.1,1.2,1.1,1.5c0,0.1-0.1,0.2-0.2,0.3	c-0.1,0.1-0.2,0.2-0.3,0.4s-0.2,0.3-0.3,0.4C9.2,44.6,9.1,44.8,9,44.9z M10.4,44.9c0.1,0.9,0.4,1.6,0.6,2.2	c-0.3-0.3-0.6-0.5-0.9-0.8c-0.2-0.2-0.2-0.5-0.2-0.6c0-0.2,0.1-0.4,0.3-0.6C10.3,45,10.3,44.9,10.4,44.9z M9.3,47.2	c0.4,0.5,1.1,1,2.1,1.5l1.2,0.6c0.2,0.2,0.5,0.3,0.7,0.5C11.1,49.6,9.8,48.7,9.3,47.2z M12,46.6c0.3,0.6,0.7,1.2,1.2,1.7	c-0.2-0.2-0.4-0.4-0.6-0.6C12.4,47.4,12.2,47.1,12,46.6z M50.6,46.3c0,0-0.3,0.4-0.5,0.5c-0.3,0.3-0.7,0.6-1.2,0.9	c-0.4,0.3-4.1,1.4-4.1,1.4c-0.7,0.2-1.5,0.3-2.4,0.4c-0.4,0-3.1,0.3-3.4,0.3h-0.6l-1.8,0.1L35.4,50c-4.6,0.3-9,0.4-13.1,0.3	c-0.1,0-0.2,0-0.3,0c0,0-0.1,0-0.1,0c-0.4,0-0.9,0-1.3,0c-0.1-0.1-0.1-0.1-0.2-0.1c-0.3-0.1-0.8-0.2-1.6-0.3	c-0.8-0.1-1.4-0.2-1.8-0.4c-0.5-0.1-0.9-0.3-1.3-0.6c-2.3-1.4-3.9-4.5-4.7-9.3l-0.1-1.5c-0.1-1.2-0.2-2.4-0.3-3.5	c-0.1-1.2-0.1-2.5-0.2-3.9c0-1.4,0-2.6-0.1-3.4c0-0.9,0-2.2,0-4s0-3,0-3.6c0-0.5-0.1-1.8-0.2-3.9c0-0.7-0.1-1.2-0.1-1.5	c0-0.1,0-0.2,0-0.3c0.1,0.1-0.3-1.3,0-2.1c0,0,0,0,0,0c0.6-0.7,1.4-1.1,2.2-1.5c0.5-0.2,1.1-0.3,1.6-0.3c0.2,0,0.3,0,0.4,0h0.5h0.9	c1.3,0,2.5,0,3.8,0.1c5,0.1,9.9,0.1,14.7,0.2c2.4,0,4.7,0,7,0c1.1,0,2.3,0,3.4,0h0.4h0.4c0.1,0,0.2,0,0.2,0h0.2H46l0.3,0.1h0.2	l0.2,0.1l0.3,0.1l0.3,0.2l0.2,0.1l0.2,0.1l0.3,0.2l0.3,0.2l0.1,0.1l0.1,0.1l0.3,0.2l0.2,0.2l0.1,0.1l0.1,0.1l0.2,0.3	c0.5,0.7,0.8,1.6,0.9,2.4v0.3c0,0.1,0,0.2,0,0.3c0,0.3,0,0.5,0,0.8c0,0.5,0,1,0,1.5c0,1,0.1,2,0.1,2.9c0.1,3.8,0.3,7.3,0.4,10.4	c0.1,1.5,0.1,3,0.2,4.3c0,0.7,0,1.3,0.1,1.9c0,0.6,0,1.2,0,1.8c0,0.9,0,1.6,0.1,2.4c0,0,0,0-0.1-0.1c0,0.1,0,0.2,0.1,0.3	c0,0.2,0,0.3,0,0.5c0-0.1-0.1-0.1-0.1-0.2c0,0.1,0.1,0.2,0.1,0.4c0,0.3,0,0.6,0,0.8c0,0,0.1,0,0.1,0c0,0.2,0,0.3-0.1,0.5	c0,0.1,0,0.1,0,0.2c0,0.2,0,0.3,0,0.5c0,0.1,0.1,0.2,0.1,0.3C51.2,45.3,50.9,45.8,50.6,46.3z"/><path d="M40.2,26.1c-0.1-0.4-0.4-0.6-0.7-0.4c-0.1,0.1-0.2,0.2-0.3,0.3c-0.7-1.4-1.4-2.5-2.2-3.2c0-0.2-0.1-0.3-0.1-0.5	c-0.1-0.1-0.2-0.2-0.4-0.2h-0.3c-0.4-0.2-0.7-0.5-1.1-0.7s-0.6,0-0.7,0.4c0,0.1,0,0.1,0,0.2l-1.2-0.1c-1.5-0.1-2.7-0.1-3.6,0	c-1.8,0.1-3.3,0.4-4.6,1c-0.1,0-0.1-0.1-0.1-0.1c-0.4-0.2-0.6,0-0.7,0.4c0,0.1,0,0.1,0,0.1c-0.5,0.3-1,0.7-1.4,1.1	c-1,0.9-1.6,2.3-1.8,4.1v0.1v0.1c0,0.2,0,0.3,0,0.5c-0.1,1.6,0.1,3,0.6,4.2s1.2,2.2,2.1,3c0.9,0.7,1.8,1.3,2.9,1.7	c1,0.4,2.1,0.7,3.2,0.7c1.6,0.1,3.2,0,4.8-0.4s3-1,4.2-1.9c0.5-0.4,1-0.9,1.3-1.4c0.2-0.3,1.2-1.5,1.3-2.5c0-1.1,0-1.3,0-1.9	c0-0.7,0-1.5-0.1-2.4C40.6,27.6,40.5,26.8,40.2,26.1z M35.6,23.6L35.6,23.6c1.1,0.7,1.9,1.9,2.7,3.6c0.1,0.3,0.3,0.5,0.4,0.8h-1	c0-0.1,0-0.2,0-0.4c-0.5-1.6-1.3-2.8-2.2-3.8L35.6,23.6z M35,25c0.7,0.8,1.2,1.8,1.7,3c-0.2,0-0.7,0-1.3,0c-0.7,0-1.2,0-1.5,0	c0-0.1-0.1-0.2-0.1-0.3l-0.1-0.1l0.8-1.5L35,25z M32.9,23.4l1.4,0.1l-0.9,1.8l-0.6,1.1c-0.8-1.4-1.5-2.4-2-3	C31.4,23.4,32.1,23.4,32.9,23.4z M32.2,27.6l-0.1,0.2L32,28c-1.2,0-2.2,0-3.2-0.1c0.1-0.6,0.6-1.7,1.4-3.4	C30.6,25.1,31.2,26.1,32.2,27.6z M29.4,23.4L29.4,23.4c-0.8,1.9-1.3,3-1.3,3.2c-0.7-1.2-1.4-2-2-2.6C27,23.7,28.1,23.5,29.4,23.4z M23,25.8c0.5-0.5,1.1-0.9,1.7-1.2c0.7,0.5,1.6,1.6,2.7,3.3c-2-0.1-3.7-0.4-5.2-0.9C22.4,26.5,22.7,26.1,23,25.8z M21.8,28.3	c1.9,0.6,4.1,1,6.9,1.1c-0.9,0-1.8,0-2.6-0.1C24.6,29.1,23.2,28.8,21.8,28.3L21.8,28.3z M21.6,29.8l0.5,0.1c0,0.1-0.1,0.1-0.1,0.3	c0,0.3,0.1,0.5,0.2,0.7c0.1,0.1,0.1,0.1,0.1,0.1l0.1,0.1l0,0c1.7,0.3,3.9,0.3,6.6,0.1c1.3,0.1,2.6,0.1,4,0.1c1.2,0,2.6-0.1,4.1-0.3	c0.1,0,0.4-0.1,0.7-0.1c0.4,0,0.6,0,0.8-0.1h0.1h0.1c-2.5,0.8-5.4,1.2-8.7,1.2s-6.3-0.3-8.7-1C21.6,30.7,21.6,30.3,21.6,29.8z M35.7,34.3c0.2,0.2,0.3,0.4,0.3,0.6l0,0c-0.1,0-0.2,0-0.3-0.1c-0.1-0.1-0.2-0.2-0.4-0.5c-0.1-0.3-0.2-0.6-0.2-1	c0.2,0,0.5-0.1,0.7-0.1l-0.1,0.1C35.4,33.7,35.4,34,35.7,34.3z M22,32.7l2.2,0.4c-0.3,0.1-0.4,0.4-0.4,0.8c0.1,0.9,0.4,1.6,0.8,2.1	C23.4,35.2,22.5,34.1,22,32.7z M24.9,33.4c-0.1-0.1-0.1-0.2-0.1-0.3l0.2,0.1L24.9,33.4z M25.7,35.4c-0.3-0.2-0.5-0.5-0.7-1.1	c0.1,0.1,0.1,0.1,0.2,0.1c0.7,0.1,1.2,0.3,1.3,0.6l-0.1,0.3C26.2,35.5,26,35.5,25.7,35.4z M39.5,32.4c-0.2,1.3-0.9,2.3-2,3.2	c-1,0.8-2.3,1.3-3.8,1.7c-0.9,0.2-1.8,0.3-2.7,0.4c0.4,0,0.8-0.2,1.1-0.6c0.2-0.3,0.4-0.6,0.5-1s0-0.8-0.1-1.3c-0.4-0.7-1.2-1-2.4-1	c-0.1,0-0.3,0.1-0.4,0.2c-0.1,0.1-0.1,0.3-0.1,0.5c-0.1-0.1-0.3-0.1-0.4-0.1c-0.4,0.1-0.5,0.4-0.4,0.9c0.3,1.3,0.8,2,1.6,2.3	c0.1,0,0.3,0.1,0.4,0.1c-0.5,0-1,0-1.5-0.1c-1.2-0.1-2.2-0.4-3.2-0.8c0.4,0,0.7-0.1,1-0.4c0.3-0.2,0.4-0.5,0.6-0.8	c0.1-0.4,0.1-0.8,0-1.3c-0.1-0.4-0.4-0.7-0.8-0.9c2.4,0.2,4.8,0.2,7.1,0c0.1,0.9,0.3,1.6,0.7,2.2c0.4,0.5,0.9,0.7,1.4,0.7	c0.6-0.1,1-0.4,1.1-1.1c0.1-0.6-0.1-1.3-0.7-1.9c-0.1-0.1-0.1-0.1-0.2-0.1C37.5,32.9,38.5,32.6,39.5,32.4L39.5,32.4L39.5,32.4z M30.6,36.2c-0.3-0.1-0.6-0.4-0.7-1c0.1,0,0.1,0.1,0.2,0.1c0.8,0,1.3,0.1,1.5,0.4c0.1,0,0,0.1-0.1,0.3	C31.2,36.2,30.9,36.3,30.6,36.2z"/></svg>