<svg id="Capa_1" xmlns="http://www.w3.org/2000/svg" viewBox="0 0 57.5 57.5" fill="#fff"><path d="M81.7,142.1c0.2-0.9-0.2-1.8-0.9-2.8c0-0.8,0-1.8,0.1-2.8c0-0.6,0-1.1,0-1.8c0-0.6,0-1.3,0.1-1.9c0-1.3,0.1-2.8,0.2-4.3	c0.1-3.1,0.3-6.6,0.4-10.4c0-0.9,0.1-1.9,0.1-2.9c0-0.5,0-1,0-1.5c0-0.3,0-0.5,0-0.8c-0.2,0.2-0.2,0-0.2-0.2v-0.5	c-0.1-1.2-0.5-2.4-1.2-3.4l-0.3-0.4l-0.2-0.2l-0.2-0.2l-0.3-0.3l-0.3-0.3l-0.2-0.2l-0.2-0.2l-0.4-0.3l-0.4-0.3l-0.2-0.1l-0.2-0.1	L77,106l-0.5-0.2l-0.2-0.1l-0.2-0.1l-0.5-0.1c-0.2,0-0.3-0.1-0.5-0.1h-0.3c-0.1,0-0.2,0-0.2,0h-0.4h-0.1H74h-0.2c-1.1,0-2.3,0-3.4,0	c-2.3,0-4.6,0-7,0c-4.8,0-9.7,0.1-14.7,0.2c-1.2,0-2.5,0-3.8,0.1H44h-0.5c-0.2,0-0.3,0-0.5,0c-0.7,0.1-1.4,0.2-2.1,0.5	c-0.4,0.2-0.8,0.4-1.2,0.6c-0.3,0.1-0.5,0.3-0.7,0.5h-0.1h-0.1c-1.9,0.1-3.2,1.3-3.9,3.7l-0.2,0.6c-0.2,0.1-0.3,0.3-0.3,0.5	c0,0.2,0.1,0.3,0.2,0.4c0,1.1-0.1,2.4-0.1,4c0,1.5,0.1,3.1,0.2,4.9c0,0.2,0,0.5,0.1,0.7c0.1,1.4,0.6,4.7,1.3,9.6	c0.2,1.2,0.4,3.3,0.6,6.2c0.2,2.7,0.5,4.8,0.7,6.3c0.4,2.6,2.4,3.9,5.8,4.1c0.2,0,0.4,0,0.6,0.1c0.4,0.1,0.6,0.1,0.7,0.1	c0.5,0.1,0.9,0,1.3-0.1H46c1.6,0.4,3,0.5,4.3,0.5c0,0,0,0,0,0c4.2,0,9.9,0.5,14.6,0.2c0.2,0.2,0.4,0.3,0.6,0.2	c0.2,0,0.3-0.1,0.3-0.2l1.9-0.1c3.5-0.2,6.1-0.6,7.8-1.1c1.1-0.3,2-0.6,2.8-1c0.2,0,0.2,0,0.3,0c0.2,0,0.3,0,0.4-0.1	c0.1-0.1,0.2-0.2,0.3-0.4v-0.1c1.3-0.9,2.1-2,2.4-3.3C81.8,142.7,81.8,142.4,81.7,142.1z M38.9,135.3c0.1,0.6,0.2,1.3,0.3,1.9v1.1	c-0.8-0.8-1.2-1.3-1.3-1.7c0-0.2,0.1-0.5,0.5-0.8C38.6,135.6,38.8,135.4,38.9,135.3z M38.2,108.9c-0.1,0.4-0.1,0.8,0.1,1.3v0.6	c-0.3-0.3-0.6-0.8-1.1-1.3C37.5,109.2,37.8,109,38.2,108.9z M38.3,117l-0.2-0.3c-0.8-1-1.3-1.7-1.4-2c-0.1-0.3-0.1-0.6-0.1-0.7	s0.1-0.2,0.2-0.2c0.1-0.1,0.5-0.2,1.2-0.3c0.1-0.1,0.2-0.1,0.3-0.1C38.2,114.1,38.2,115.3,38.3,117z M36.1,111.5	c0.1-0.4,0.2-0.7,0.4-1c0.6,0.6,1,1.1,1.2,1.4c-0.2,0-0.5,0-0.8-0.1c-0.1,0-0.2,0-0.4,0s-0.3,0-0.5-0.1L36.1,111.5z M35.8,112.9H36	C35.9,113,35.9,113,35.8,112.9L35.8,112.9z M35.6,119.9c-0.1-1.2-0.1-2.4-0.1-3.5l0.1-1.1c0.1,0.3,0.6,1.1,1.5,2.1	c0.6,0.8,1,1.4,0.9,1.9c0,0.1-0.1,0.2-0.2,0.2c-0.1,0.1-0.4,0.1-0.8,0.1c-0.6,0-1,0.1-1.2,0.2L35.6,119.9z M36,121.8v-0.5h-0.1	c0.1-0.2,0.2-0.3,0.4-0.3c0.2-0.1,0.5-0.1,1-0.1s0.9-0.1,1.1-0.2c0,3,0,4.6,0,4.6c-0.2-0.3-0.5-0.8-1.1-1.5	c-0.5-0.6-0.9-1.1-1.1-1.5C36.1,122.1,36.1,122,36,121.8z M36.5,127.6c-0.1-1.3-0.2-2.3-0.3-3.2l0.1,0.2c0.6,0.7,0.9,1.2,1.1,1.4	c0.2,0.4,0.3,0.7,0.2,0.9c0,0.1-0.2,0.2-0.6,0.4C36.8,127.4,36.7,127.5,36.5,127.6z M37.1,128.7c0-0.2,0.2-0.3,0.5-0.5	c0.3-0.2,0.6-0.3,0.7-0.5c0.1,1.7,0.1,3.3,0.2,4.8c0,0-0.3-0.5-0.8-1.4C37.2,130.2,36.9,129.3,37.1,128.7z M37.4,132.8	c0.3,0.6,0.6,1.2,0.6,1.6c0,0.1-0.1,0.3-0.4,0.6C37.6,134.2,37.5,133.5,37.4,132.8z M38.3,142.2c-0.2-0.9-0.3-2.1-0.4-3.5l0.5,0.4	c0.7,0.6,1.1,1.2,1.1,1.5c0,0.1-0.1,0.2-0.2,0.3c-0.1,0.1-0.2,0.2-0.3,0.4s-0.2,0.3-0.3,0.4C38.5,141.9,38.4,142.1,38.3,142.2z M39.7,142.2c0.1,0.9,0.4,1.6,0.6,2.2c-0.3-0.3-0.6-0.5-0.9-0.8c-0.2-0.2-0.2-0.5-0.2-0.6c0-0.2,0.1-0.4,0.3-0.6	C39.6,142.3,39.6,142.2,39.7,142.2z M38.6,144.5c0.4,0.5,1.1,1,2.1,1.5l1.2,0.6c0.2,0.2,0.5,0.3,0.7,0.5	C40.4,146.9,39.1,146,38.6,144.5z M41.3,143.9c0.3,0.6,0.7,1.2,1.2,1.7c-0.2-0.2-0.4-0.4-0.6-0.6C41.7,144.7,41.5,144.4,41.3,143.9z M79.9,143.6c0,0-0.3,0.4-0.5,0.5c-0.3,0.3-0.7,0.6-1.2,0.9c-0.4,0.3-4.1,1.4-4.1,1.4c-0.7,0.2-1.5,0.3-2.4,0.4	c-0.4,0-3.1,0.3-3.4,0.3h-0.6l-1.8,0.1l-1.2,0.1c-4.6,0.3-9,0.4-13.1,0.3c-0.1,0-0.2,0-0.3,0c0,0-0.1,0-0.1,0c-0.4,0-0.9,0-1.3,0	c-0.1-0.1-0.1-0.1-0.2-0.1c-0.3-0.1-0.8-0.2-1.6-0.3c-0.8-0.1-1.4-0.2-1.8-0.4c-0.5-0.1-0.9-0.3-1.3-0.6c-2.3-1.4-3.9-4.5-4.7-9.3	l-0.1-1.5c-0.1-1.2-0.2-2.4-0.3-3.5c-0.1-1.2-0.1-2.5-0.2-3.9c0-1.4,0-2.6-0.1-3.4c0-0.9,0-2.2,0-4s0-3,0-3.6c0-0.5-0.1-1.8-0.2-3.9	c0-0.7-0.1-1.2-0.1-1.5c0-0.1,0-0.2,0-0.3c0.1,0.1-0.3-1.3,0-2.1c0,0,0,0,0,0c0.6-0.7,1.4-1.1,2.2-1.5c0.5-0.2,1.1-0.3,1.6-0.3	c0.2,0,0.3,0,0.4,0H44h0.9c1.3,0,2.5,0,3.8,0.1c5,0.1,9.9,0.1,14.7,0.2c2.4,0,4.7,0,7,0c1.1,0,2.3,0,3.4,0h0.4h0.4	c0.1,0,0.2,0,0.2,0H75h0.3l0.3,0.1h0.2l0.2,0.1l0.3,0.1l0.3,0.2l0.2,0.1l0.2,0.1l0.3,0.2l0.3,0.2l0.1,0.1l0.1,0.1l0.3,0.2l0.2,0.2	l0.1,0.1l0.1,0.1l0.2,0.3c0.5,0.7,0.8,1.6,0.9,2.4v0.3c0,0.1,0,0.2,0,0.3c0,0.3,0,0.5,0,0.8c0,0.5,0,1,0,1.5c0,1,0.1,2,0.1,2.9	c0.1,3.8,0.3,7.3,0.4,10.4c0.1,1.5,0.1,3,0.2,4.3c0,0.7,0,1.3,0.1,1.9c0,0.6,0,1.2,0,1.8c0,0.9,0,1.6,0.1,2.4c0,0,0,0-0.1-0.1	c0,0.1,0,0.2,0.1,0.3c0,0.2,0,0.3,0,0.5c0-0.1-0.1-0.1-0.1-0.2c0,0.1,0.1,0.2,0.1,0.4c0,0.3,0,0.6,0,0.8c0,0,0.1,0,0.1,0	c0,0.2,0,0.3-0.1,0.5c0,0.1,0,0.1,0,0.2c0,0.2,0,0.3,0,0.5c0,0.1,0.1,0.2,0.1,0.3C80.5,142.6,80.2,143.1,79.9,143.6z"/><path d="M69.5,123.4c-0.1-0.4-0.4-0.6-0.7-0.4c-0.1,0.1-0.2,0.2-0.3,0.3c-0.7-1.4-1.4-2.5-2.2-3.2c0-0.2-0.1-0.3-0.1-0.5	c-0.1-0.1-0.2-0.2-0.4-0.2h-0.3c-0.4-0.2-0.7-0.5-1.1-0.7s-0.6,0-0.7,0.4c0,0.1,0,0.1,0,0.2l-1.2-0.1c-1.5-0.1-2.7-0.1-3.6,0	c-1.8,0.1-3.3,0.4-4.6,1c-0.1,0-0.1-0.1-0.1-0.1c-0.4-0.2-0.6,0-0.7,0.4c0,0.1,0,0.1,0,0.1c-0.5,0.3-1,0.7-1.4,1.1	c-1,0.9-1.6,2.3-1.8,4.1v0.1v0.1c0,0.2,0,0.3,0,0.5c-0.1,1.6,0.1,3,0.6,4.2s1.2,2.2,2.1,3c0.9,0.7,1.8,1.3,2.9,1.7	c1,0.4,2.1,0.7,3.2,0.7c1.6,0.1,3.2,0,4.8-0.4s3-1,4.2-1.9c0.5-0.4,1-0.9,1.3-1.4c0.2-0.3,1.2-1.5,1.3-2.5c0-1.1,0-1.3,0-1.9	c0-0.7,0-1.5-0.1-2.4C69.9,124.9,69.8,124.1,69.5,123.4z M64.9,120.9L64.9,120.9c1.1,0.7,1.9,1.9,2.7,3.6c0.1,0.3,0.3,0.5,0.4,0.8	h-1c0-0.1,0-0.2,0-0.4c-0.5-1.6-1.3-2.8-2.2-3.8L64.9,120.9z M64.3,122.3c0.7,0.8,1.2,1.8,1.7,3c-0.2,0-0.7,0-1.3,0	c-0.7,0-1.2,0-1.5,0c0-0.1-0.1-0.2-0.1-0.3l-0.1-0.1l0.8-1.5L64.3,122.3z M62.2,120.7l1.4,0.1l-0.9,1.8l-0.6,1.1	c-0.8-1.4-1.5-2.4-2-3C60.7,120.7,61.4,120.7,62.2,120.7z M61.5,124.9l-0.1,0.2l-0.1,0.2c-1.2,0-2.2,0-3.2-0.1	c0.1-0.6,0.6-1.7,1.4-3.4C59.9,122.4,60.5,123.4,61.5,124.9z M58.7,120.7L58.7,120.7c-0.8,1.9-1.3,3-1.3,3.2c-0.7-1.2-1.4-2-2-2.6	C56.3,121,57.4,120.8,58.7,120.7z M52.3,123.1c0.5-0.5,1.1-0.9,1.7-1.2c0.7,0.5,1.6,1.6,2.7,3.3c-2-0.1-3.7-0.4-5.2-0.9	C51.7,123.8,52,123.4,52.3,123.1z M51.1,125.6c1.9,0.6,4.1,1,6.9,1.1c-0.9,0-1.8,0-2.6-0.1C53.9,126.4,52.5,126.1,51.1,125.6	L51.1,125.6z M50.9,127.1l0.5,0.1c0,0.1-0.1,0.1-0.1,0.3c0,0.3,0.1,0.5,0.2,0.7c0.1,0.1,0.1,0.1,0.1,0.1l0.1,0.1l0,0	c1.7,0.3,3.9,0.3,6.6,0.1c1.3,0.1,2.6,0.1,4,0.1c1.2,0,2.6-0.1,4.1-0.3c0.1,0,0.4-0.1,0.7-0.1c0.4,0,0.6,0,0.8-0.1H68h0.1	c-2.5,0.8-5.4,1.2-8.7,1.2s-6.3-0.3-8.7-1C50.9,128,50.9,127.6,50.9,127.1z M65,131.6c0.2,0.2,0.3,0.4,0.3,0.6l0,0	c-0.1,0-0.2,0-0.3-0.1c-0.1-0.1-0.2-0.2-0.4-0.5c-0.1-0.3-0.2-0.6-0.2-1c0.2,0,0.5-0.1,0.7-0.1l-0.1,0.1	C64.7,131,64.7,131.3,65,131.6z M51.3,130l2.2,0.4c-0.3,0.1-0.4,0.4-0.4,0.8c0.1,0.9,0.4,1.6,0.8,2.1	C52.7,132.5,51.8,131.4,51.3,130z M54.2,130.7c-0.1-0.1-0.1-0.2-0.1-0.3l0.2,0.1L54.2,130.7z M55,132.7c-0.3-0.2-0.5-0.5-0.7-1.1	c0.1,0.1,0.1,0.1,0.2,0.1c0.7,0.1,1.2,0.3,1.3,0.6l-0.1,0.3C55.5,132.8,55.3,132.8,55,132.7z M68.8,129.7c-0.2,1.3-0.9,2.3-2,3.2	c-1,0.8-2.3,1.3-3.8,1.7c-0.9,0.2-1.8,0.3-2.7,0.4c0.4,0,0.8-0.2,1.1-0.6c0.2-0.3,0.4-0.6,0.5-1s0-0.8-0.1-1.3c-0.4-0.7-1.2-1-2.4-1	c-0.1,0-0.3,0.1-0.4,0.2c-0.1,0.1-0.1,0.3-0.1,0.5c-0.1-0.1-0.3-0.1-0.4-0.1c-0.4,0.1-0.5,0.4-0.4,0.9c0.3,1.3,0.8,2,1.6,2.3	c0.1,0,0.3,0.1,0.4,0.1c-0.5,0-1,0-1.5-0.1c-1.2-0.1-2.2-0.4-3.2-0.8c0.4,0,0.7-0.1,1-0.4c0.3-0.2,0.4-0.5,0.6-0.8	c0.1-0.4,0.1-0.8,0-1.3c-0.1-0.4-0.4-0.7-0.8-0.9c2.4,0.2,4.8,0.2,7.1,0c0.1,0.9,0.3,1.6,0.7,2.2c0.4,0.5,0.9,0.7,1.4,0.7	c0.6-0.1,1-0.4,1.1-1.1c0.1-0.6-0.1-1.3-0.7-1.9c-0.1-0.1-0.1-0.1-0.2-0.1C66.8,130.2,67.8,129.9,68.8,129.7L68.8,129.7L68.8,129.7z M59.9,133.5c-0.3-0.1-0.6-0.4-0.7-1c0.1,0,0.1,0.1,0.2,0.1c0.8,0,1.3,0.1,1.5,0.4c0.1,0,0,0.1-0.1,0.3	C60.5,133.5,60.2,133.6,59.9,133.5z"/><path d="M51,46c0.1,0,0.2-0.4,0.2-1.2l-0.1-0.6c0-0.2,0-1,0-2.6L51,41c0.1-0.1,0.1-0.3,0.1-0.6v-0.6L51,39.6c0.1,0,0.1,0,0.1-0.1	L51,36.9l-0.1-0.5c0.1,0,0.1,0,0.1-0.1c0-0.5-0.1-1.1-0.2-1.7c0-3,0.1-5,0.2-6.1l-0.3-0.8c0.1,0,0.1,0,0.1-0.1v-0.2	c-0.1-3.9-0.1-6.6,0.1-8.1l-0.1-0.5c0.1-0.4,0.1-0.8,0.1-1.2L50.8,17c0.1-0.1,0.1-0.3,0.1-0.5s0-0.3-0.1-0.5	c0.1-0.1,0.1-0.3,0.1-0.5l-0.1-2.8c0-0.3,0-0.6,0.1-1c0-0.1-0.1-0.7-0.2-1.6c0.1,0,0.1-0.1,0.1-0.2l-0.1-0.3c0.1,0,0.1,0,0.1-0.1	V7.9c0-0.8-0.5-1.2-1.5-1.4c-0.3,0-0.6,0-0.7,0.1c-0.8-0.1-1.6-0.1-2.2-0.1l-3.3,0.1c-0.4,0-0.7,0.1-0.9,0.2c-0.1,0-0.1,0-0.2,0	h-0.3V6.7c0,0,0.1-0.1,0.1-0.2c-0.6,0-1.1,0-1.7,0c0,0.1-0.1,0.2-0.1,0.3c-0.9,0-1.3-0.1-1.5-0.2c0-0.1,0-0.1,0-0.1	c-0.4,0-0.8,0-1.2,0L37,6.7h-1.5l-0.3,0.3c0,0,0-0.1,0-0.2c-0.4,0-0.8,0-1.2,0V7h-6.3C27.6,7,26,6.9,26,7h-0.8l-0.5-0.1	c0,0-1.3-0.1-1.2,0h-1.7c-0.4,0-0.7,0-0.8-0.1c-0.1,0-2.2,0.1-2.2,0.1c-0.3,0-1.8,0-2,0s-0.3,0-0.5-0.1c0,0,0,0-0.1,0	c-0.2-0.1-0.4-0.1-0.6-0.1c-0.3,0-0.5,0-0.6,0.1c-0.2,0-0.3,0-0.5,0c-0.7,0-1.3-0.1-1.8,0l-2,0.1c-0.2-0.2-0.4-0.3-0.7-0.2	c0,0-0.2,0-0.5,0.1S8.9,6.9,8.8,7C8.5,7.1,8.2,7.1,8,7.2C7.7,7.3,7.4,7.5,7.3,7.7C7.2,7.9,7.1,8.1,7,8.5C6.9,8.8,6.9,9.1,6.9,9.6	c-0.1,0.7-0.1,1.7-0.1,2.9c0,0.4,0,1,0,1.8v1.1c0,1-0.1,1.6-0.1,1.9c-0.3,2.5-0.4,4.9-0.4,7.4c0,2.6,0.1,5.6,0.2,8.8	c0.1,3.2,0.2,5.6,0.2,7.3c0,0.8,0.1,2.3,0.2,4.5c0.1,1.2,0.2,2.1,0.2,2.8c0,0.4,0.1,0.8,0.1,1c0,0.1,0,0.2,0,0.3	c0.1,0.2,0.2,0.4,0.3,0.5c0,0,0.1,0,0.1,0.1c0.1,0.1,0.4,0.3,0.9,0.5h1.1c0.3,0,0.6,0,0.8,0v0.1c0.2,0,0.3,0,0.4,0	c0.1,0.2,0.2,0.3,0.4,0.4c0.2,0,0.3,0,0.5-0.1c0.1-0.1,0.2-0.2,0.3-0.4c0.1,0,0.2,0,0.3,0l1.2,0.1c0.1,0,0.3,0,0.6-0.1	c0.3,0,0.6,0,0.9,0c0.4,0,0.9,0.1,1.4,0.2c0-0.1,0-0.1,0-0.1c0.1,0,0.1,0,0.2,0l0,0c1.5,0.1,3.7,0.1,6.7,0.1	c0.1-0.1,0.3-0.1,0.3-0.1l0.5,0.1c2.3-0.1,6.2,0,11.5,0.2c0-0.1,0-0.1,0.1-0.1c0,0.1,0.6,0.2,1.9,0.2c3-0.1,4.7-0.2,5-0.2h0.1h0.2	c0.1,0,0.2,0,0.3,0c0.2,0.1,0.3,0.2,0.3,0.2c0.3,0,0.4,0,0.5-0.1c0.1,0,0.2,0,0.3-0.1c2.2,0,4.1,0,5.8,0.1c0.5-0.7,0.8-1.4,0.7-2.2	l-0.1-0.6c0.1-0.8,0.2-1.2,0.2-1.4L51,46z M11,48.3c0,0.1-0.1,0.1-0.3,0.1c0-0.1,0-0.1-0.1-0.1S9.2,48,8.3,47.9v-0.1	c-0.1-0.7-0.1-1.6-0.2-2.8l-0.2-3.6c0.1,0,0.3,0,0.4,0c0.2,0,0.7,0,1.3,0c0.5,0,0.9,0,1.1,0c0.1,0,0.2,0,0.2,0c0,0.1,0,0.2-0.1,0.3	c-0.1,0.2-0.3,0.4-0.6,0.7c-0.5,0.4-0.8,0.7-0.9,0.8c-0.4,0.5-0.5,0.9-0.4,1.4c0.2,0.7,0.6,1.2,1.2,1.3c0.2,0,0.4,0.1,0.6,0.1	c0.2,0,0.3,0,0.3,0l0,0c0,0.1,0.1,0.2,0.1,0.4c0,0.4,0,0.9-0.2,1.7C11.1,48.3,11,48.3,11,48.3z M9.8,8.7c0.1,0,0.2,0,0.3,0	c0.1,0.4,0.2,0.9,0.2,1.6h-0.1c-0.8,0.1-1.4,0.4-2,0.7c0-0.5,0.1-0.9,0.1-1.2c0-0.4,0.1-0.7,0.1-1C8.8,8.7,9.3,8.7,9.8,8.7z M9.3,12.5c-0.4-0.1-0.8-0.1-1-0.2l0.1-0.1c0.5-0.4,1.1-0.6,1.8-0.7c0,0.4,0,0.8,0,1.2C9.7,12.6,9.4,12.6,9.3,12.5z M10.4,14	c0,0.4,0,1,0,1.6l-0.6,0.5l-1.7,1.3L8,17.5v-0.2c0-0.3,0.1-1,0.1-2v-0.9c0-0.4,0-0.6,0-0.8c0.2,0.1,0.6,0.1,1,0.2	c0.2,0,0.4,0.1,0.7,0.1C10.1,14,10.3,14,10.4,14z M7.8,19.4c0.1-0.2,0.4-0.5,1-1c0.2-0.1,0.7-0.5,1.5-1.1c0,1.3,0,2.2,0,2.9	C10,20.1,9.5,20,8.8,19.8C8.3,19.7,7.9,19.6,7.8,19.4C7.8,19.5,7.8,19.5,7.8,19.4z M10.4,23.6l0.1,2.7c-0.2,0-0.4,0-0.6,0	c-0.1,0-0.2,0-0.4,0s-0.3,0-0.3,0c-0.3,0-0.5,0-0.6,0H8.3c0.1-0.1,0.1-0.2,0.2-0.3c0.1-0.2,0.5-0.6,1.1-1.3	C10,24.3,10.3,23.9,10.4,23.6z M8.4,27.6c0.2,0,0.5,0,0.8,0c0,0,0.1,0,0.3,0s0.3,0,0.4,0c0.3,0,0.6,0,0.7,0v1.1	c-0.1,0.1-0.2,0.2-0.3,0.3c-0.2,0.2-0.7,0.8-1.5,1.6c-0.6,0.6-1,1.1-1.3,1.4c-0.1-2-0.1-3.5-0.1-4.7C7.8,27.5,8.1,27.5,8.4,27.6z M10.6,36l-1.7,1.5c-0.4,0.4-0.8,0.7-1,0.9c0-1.1-0.1-2.5-0.1-4.1c0.2,0.1,0.6,0.2,1,0.2c0.2,0,0.5,0.1,0.9,0.1s0.6,0,0.7,0	c0.3,0,0.5,0.1,0.7,0.1v0.8C10.9,35.8,10.8,35.9,10.6,36z M11.1,37.3c0.1,1,0.1,1.9,0.1,2.9c-0.1,0-0.1,0-0.2,0c-0.3,0-0.7,0-1.3,0	s-1,0-1.2,0c-0.1,0-0.2,0-0.3,0L8.4,40c0.3-0.3,0.8-0.8,1.5-1.4L11.1,37.3z M8.3,33.2C8.3,33.1,8.3,33.1,8.3,33.2L8.3,33.2z M10.4,33.4c-0.1,0-0.3,0-0.7,0s-0.6,0-0.8-0.1c-0.2,0-0.4-0.1-0.5-0.1l0.2-0.3c0.2-0.3,0.7-0.8,1.3-1.4l0.9-0.9	c0.1,1,0.1,2,0.1,2.9C10.8,33.5,10.6,33.5,10.4,33.4z M11,44.8c-0.2,0-0.4,0-0.4,0c-0.2,0-0.3-0.2-0.3-0.4c0-0.1,0-0.1,0.1-0.2	s0.3-0.4,0.7-0.7l0.2-0.2c0,0.6,0,1.1,0,1.6C11.2,44.8,11.1,44.8,11,44.8z M7.6,20.8c0.2,0.1,0.5,0.1,0.9,0.2	c0.7,0.1,1.2,0.2,1.4,0.3c0.2,0.1,0.3,0.2,0.3,0.3c0,0.2-0.1,0.4-0.4,0.8c-0.2,0.3-0.6,0.8-1.1,1.4c-0.6,0.7-0.9,1.1-1.1,1.3	C7.5,23.6,7.6,22.2,7.6,20.8z M49.2,38.6C49.1,41.2,49,46,49,46c-0.1,1.1-0.1,1.8-0.1,2.1c0,0.3-0.1,0.4-0.2,0.4H47	c-0.5,0-1.4,0-2.5,0c0,0.1-0.1,0.1-0.3,0.1c0-0.1,0-0.1-0.1-0.1c-0.2,0-0.5,0-0.9,0.1c-0.1-0.2-2.1,0.1-2.1,0.1l0,0	c-1.2,0.1-2.2,0.1-2.8,0.2H38v-0.1c0,0,0.1-0.1,0.1-0.2c-0.6,0-1.1,0-1.7,0c0,0.1-0.1,0.2-0.1,0.3c-0.9,0-1.3-0.1-1.5-0.2	c0-0.1,0-0.1,0-0.1c-0.4,0-0.8,0-1.2,0l-0.3,0.2h-1.5l-0.2-0.1c0,0,0-0.1,0-0.2c-0.4,0-0.8,0-1.2,0v0.3h-6.3c-0.1,0-1.7-0.1-1.7,0	h-0.8l-0.4-0.2c0,0-1.3-0.1-1.2,0h-1.7c-0.4,0-0.7,0-0.8-0.1c0,0,0,0-0.1,0c0-0.1-2.8,0.2-4.9-0.1c0-0.1,0.1-0.2,0.1-0.3	c0-3.6-0.1-7.6-0.3-12.1c0.2-0.2,0.3-0.4,0.3-0.6c0.2-0.6,0-1.1-0.4-1.5C12.1,32.4,12,30.8,12,29c0.2-0.3,0.2-0.5,0.3-0.7	c0.1-0.7,0-1.2-0.4-1.6l-0.3-6.3c0-0.4,0-0.9,0-1.5c0-1.2,0.1-5,0.1-6.1c0-1.9-0.1-3.4-0.3-4.5c2.4-0.1,5.8,0.2,5.8,0.2	c0.1,0,0.3-0.1,0.5-0.1c0.4,0,1.2,0.1,2.2,0.2c0-0.1,0-0.1,0.1-0.1c1.5,0.1,3.8,0.2,6.9,0.2c0.1-0.1,0.3-0.1,0.3-0.1l0.5,0.1	c2.3-0.1,6.2,0,11.5,0.2c0-0.1,0-0.1,0.1-0.1c0,0.1,0.6,0.2,1.9,0.2c3-0.1,4.7-0.2,5-0.2h0.1h0.6C47.1,8.9,47.2,9,47.2,9	c0.3,0,0.4,0,0.5-0.1c0.1,0,0.2,0,0.3-0.1h0.1c0.4,0,0.6,0.1,0.7,0.4v1.9c0,1.4,0,3.8,0,3.8v0.7v2c0,0.2,0,0.5,0.1,0.9	c0,0.1,0,0.2-0.1,0.3l0.1,0.3l-0.1,0.6C49.6,25.8,49.2,38.6,49.2,38.6z"/><path d="M41.5,27.6L41.5,27.6c0-0.4-0.2-0.6-0.6-0.7c0,0-0.1,0-0.2,0l0,0c-0.1,0-0.2-0.1-0.3-0.1l0,0c-0.2-0.1-0.4-0.2-0.7-0.4	c0,0,0,0-0.1,0c-1-0.6-1.8-1-2.3-1.3c-0.8-0.4-1.9-0.9-3.4-1.5s-2.5-1-3-1.3c-0.3-0.1-1.5-0.7-3.5-1.6c-1.8-0.8-3.2-1.5-4.2-1.9l0,0	c-0.5-0.4-0.9-0.5-0.9-0.5c-0.3,0-0.5-0.2-0.8-0.2s-0.3,0.4-0.4,0.6c-0.1,0.5,0,0.9,0,1.4s0,0.9,0,1.4c0,1.5,0.1,3.2,0.2,5.2	c0.1,2,0.2,3.7,0.4,5.1c0.1,0.8,0.2,1.3,0.2,1.8c0,0.3,0.1,0.4,0.1,0.6c0,0.1,0.1,0.2,0.1,0.2c0,0.1,0.1,0.2,0.2,0.3l0,0	c0,0.1,0,0.1,0.1,0.2c0.3,0.5,0.6,0.9,1,1.2c0,0.1,0.1,0.1,0.1,0.1c0.1,0.1,0.2,0.2,0.3,0.2c0.4,0.2,0.8,0.2,1.5,0.2	c0.3,0,0.6,0,0.9-0.1c0.3,0,0.6,0,0.8-0.1c0.4-0.1,0.9-0.2,1.4-0.3l0,0l0.9-0.3c1.2-0.4,2-0.9,2.8-1.3c1.1-0.5,2.8-1.5,5.5-3	c0.5-0.3,1.2-0.7,1.9-1.4c0.8-0.7,1.4-1.1,1.7-1.3c0.1-0.1,0.2-0.2,0.2-0.3l0.1-0.1c0.1-0.1,0.1-0.2,0.1-0.4	C41.6,27.9,41.6,27.7,41.5,27.6z M24.1,35.1L24.1,35.1c-0.1-0.2-0.2-0.4-0.4-0.6l-0.5-0.8c0.1-0.1,0.2-0.1,0.2-0.2	c0,0.1,0.1,0.2,0.2,0.2c0.1,0,0.2,0.1,0.3,0.2l1.1,0.9l0.7,0.5C25.1,35.4,24.5,35.3,24.1,35.1z M26.5,34.6c-0.2-0.1-0.5-0.4-0.8-0.6	c-0.1-0.1-0.3-0.2-0.5-0.4l-0.5-0.4c0,0-0.1,0-0.1-0.1c0.3-0.1,0.7-0.3,1.1-0.4c0.2,0,0.5-0.1,0.8-0.1c0,0.2,0,0.5,0,0.8V34	C26.5,34.2,26.5,34.4,26.5,34.6C26.5,34.5,26.5,34.5,26.5,34.6L26.5,34.6z M28.2,34.7L28,34.8c0-0.2-0.1-0.6-0.2-1	c-0.1-0.4-0.2-0.7-0.2-0.9c0,0,0,0,0-0.1v-0.1l0,0c0.2,0,0.4,0,0.7,0.1c0.2,0.1,0.6,0.3,1,0.7c0.3,0.2,0.5,0.4,0.7,0.5	C29.3,34.2,28.8,34.4,28.2,34.7z M31.5,33.2h-0.2c-0.2,0-0.6-0.1-1.4-0.7c-0.3-0.2-0.5-0.4-0.7-0.5c0.7-0.2,1.4-0.4,2.1-0.6	c0,0.2,0,0.6,0.1,1C31.4,32.7,31.5,32.9,31.5,33.2C31.5,33.1,31.5,33.1,31.5,33.2z M32.5,32.6c0-0.1,0-0.3-0.1-0.5	c-0.1-0.3-0.1-0.5-0.1-0.7v-0.1l0,0c0,0,0.1,0,0.4,0.1c0.2,0,0.4,0.1,0.8,0.2l0.5,0.1L32.5,32.6z M34.5,30.6c0,0.1,0,0.1,0,0.2	c-0.1,0-0.4-0.1-0.7-0.2h-0.1l0.8-0.3h0.1C34.5,30.4,34.5,30.5,34.5,30.6z M35.5,31c0-0.1,0-0.1,0-0.2c0-0.3,0.1-0.3,0.1-0.3	c0.1-0.1,0.5-0.3,1.2-0.2L35.5,31z M38.4,29.1c-0.1,0.1-0.2,0.1-0.6,0.1l0.9-0.3L38.4,29.1z M34.3,29.3	C34.2,29.3,34.2,29.3,34.3,29.3c-0.8,0.2-2.1,0.5-3.9,1l-3.8,1l0,0c-0.2,0-0.4,0.1-0.6,0.1l-0.6,0.2c-0.9,0.2-1.7,0.4-2.5,0.7	c0-0.2,0-0.4-0.1-0.6c-0.1-1.4-0.3-3.1-0.4-5.1c-0.1-2-0.2-3.7-0.2-5.2c0-0.7,0-1.2,0-1.6l0.1,0.1c1.1,0.6,2.3,1.3,3.7,1.9	c1.3,0.6,2.5,1.1,3.3,1.5s2.2,0.9,3.9,1.6c1.8,0.7,2.9,1.2,3.5,1.4c0.7,0.3,1.3,0.6,1.9,0.8l0.3,0.2C37.4,28.1,35.8,28.7,34.3,29.3z"/></svg>