<svg width="200" height="50" viewBox="0 0 200 50" xmlns="http://www.w3.org/2000/svg"><title>75450506-DD76-4F0F-8ACA-D4522E26270C</title><path d="M166.692 27.286c0-.377.315-4.04 4.426-4.04 2.72 0 3.71 1.51 4.223 4.04h-8.649zm4.569-7.976c-6.12 0-9.882 4.558-9.882 10.03 0 4.728 2.748 9.97 9.882 9.97 6.472 0 8.311-4.075 9.068-6.358h-3.384c-.77 0-1.348.298-1.873.94-.21.255-1.352 1.515-3.62 1.515-4.608 0-4.67-3.586-4.76-4.81h13.961c.405-5.498-2.562-11.287-9.392-11.287zm12.877-6.896v21.918c.033 3.696.743 4.978 5.517 4.978l-.01-22.572c-.034-3.644-.759-4.324-5.507-4.324m-73.793 0v21.918c.043 3.696.74 4.978 5.517 4.978V16.738c-.045-3.644-.769-4.324-5.517-4.324m84.138 0v21.918c.044 3.696.751 4.978 5.517 4.978l-.008-22.572c-.033-3.644-.765-4.324-5.51-4.324M97.569 23.24c-3.56 0-4.688 2.982-4.688 6.102 0 3.272 1.186 6.064 4.688 6.064 3.508 0 4.707-2.792 4.707-6.064 0-3.12-1.134-6.103-4.707-6.103zm10.017 6.102c0 6.318-4.205 9.968-10.017 9.968-5.818 0-9.983-3.65-9.983-9.968 0-6.314 4.11-10.032 9.983-10.032 5.876 0 10.017 3.718 10.017 10.032zm48.069 2.211s-1.186-.048-1.636 1.206c-.645 1.787-1.833 2.648-3.83 2.648-3.132 0-4.316-2.99-4.316-6.063 0-2.92 1.227-6.098 4.421-6.098 2.003 0 3.057.897 3.51 2.067.243.637.617 1.2 1.757 1.2h3.652c-.283-4.9-4.482-7.203-8.882-7.203-6.503 0-9.641 4.737-9.641 10.262 0 6.174 4.253 9.738 9.529 9.738 4.61 0 8.37-2.327 9.091-7.757h-3.655M84.828 17.89v21.42h-5.404V20.251h-.078l-6.43 19.06H68.47l-6.438-18.875h-.07V39.31h-5.41V12.414h4.33c1.575 0 3.923.6 5.064 3.802 1.134 3.193 4.866 14.691 4.866 14.691h.082l5.804-18.493h2.976c4.584.038 5.155 1.454 5.155 5.477M128.078 35.5c-2.705 0-4.434-2.464-4.434-5.962 0-6.357 4.434-5.927 4.434-5.927s4.325-.397 4.325 5.888c0 5.592-3.087 6-4.325 6zm9.163-18.046c-.017-3.739-.61-5.04-5.034-5.04v10.12h-.06c-.793-1.365-2.753-2.77-5.368-2.77-5.704 0-8.158 4.966-8.158 9.632 0 4.363 2.103 9.914 8.215 9.914 3.551 0 4.967-1.831 5.557-2.83.452 1.737 1.627 2.395 4.848 2.395V17.454zM37.86 21.432C28.427 29.614 14.102 37.02 4.605 34.513c.174.263.323.54.51.813l.018.029c9.327 15.274 35.237 3.587 38.193-6.11.683-3.287-1.6-5.797-5.466-7.813zM11.25 43.19c.42.428.83.865 1.264 1.265 2.143 1.959 4.458 3.532 6.809 4.416 2.324.868 4.703 1.068 7.062.327 2.735-.863 5.297-2.492 7.637-4.646.545-.5 1.055-1.052 1.566-1.587 2.278-2.434 4.29-5.37 5.957-8.55-5.453 6.733-20.013 13.257-30.294 8.775zm8.295-29.28c6.558 1.174 12.88 2.203 17.792 3.888 4.801-3.75 8.148-7.723 8.357-11.017-.08-.225-.157-.452-.249-.655a15.83 15.83 0 0 0-.732-1.472 6.742 6.742 0 0 0-.707-.982c-6.124 7.868-15 10.445-24.461 10.238zm27.124-3.066c-1.076 2.467-3.288 5.32-6.212 8.205 2.33 1.112 4.16 2.47 5.299 4.222.431-1.777.738-3.538.938-5.265.277-2.524.27-4.943-.025-7.162zM34.435 19.93c-8.855-3.345-22.233-5.1-30.855-7.06-1.423 1.813-2.5 3.772-3.072 5.866a13.753 13.753 0 0 0-.49 4.397c.065 1.202.53 2.882 1.295 4.823 3.872 6.215 21.274.115 33.122-8.026zm8.78-17.035C41.432 1.35 38.79.448 35.669.126c-6.86-.684-16.002 1.436-23.32 5.557-2.436 1.377-4.664 2.979-6.54 4.78 1.093.313 2.197.617 3.326.884 14.577 2.69 26.85.493 34.082-8.451z" fill="#5B2A7A" fill-rule="evenodd"/></svg>