<?xml version="1.0" encoding="iso-8859-1"?>
<!-- Generator: Adobe Illustrator 19.0.0, SVG Export Plug-In . SVG Version: 6.00 Build 0)  -->
<svg version="1.1" id="Capa_1" xmlns="http://www.w3.org/2000/svg" xmlns:xlink="http://www.w3.org/1999/xlink" x="0px" y="0px"
	 viewBox="0 0 491.2 491.2" style="enable-background:new 0 0 491.2 491.2;" xml:space="preserve">
<g>
	<g>
		<path d="M432.6,163.2c-4.2-54.2-49-98-103.2-98c-14.6,0-29.2,2.1-41.7,8.3c-27.1-44.8-74-73-127.2-73
			C78.2,0.6,11.4,68.4,11.4,152.8c0,14.6,2.1,29.2,6.3,43.8C6.2,212.2,0,232,0,251.9c0,53.2,42.7,97,94.9,97h11.5v120.9
			c0,11.5,9.4,20.9,20.9,20.9h217.9c10.4,0,19.8-9.4,20.9-20.9V349.9h29.2c52.1,0,94.9-43.8,95.9-97
			C491,213.3,467,177.8,432.6,163.2z M324.2,449.9H148V321.7h176.2V449.9z M190.8,280v-44.8c0-25,19.8-44.8,44.8-44.8
			s44.8,20.9,44.8,44.8V280H190.8z M395.1,308.2h-29.2v-7.3c0-11.5-9.4-20.9-20.9-20.9h-24v-44.8c0-46.9-38.6-85.5-85.5-85.5
			S150,188.3,150,235.2V280h-22.9c-11.5,0-20.9,9.4-20.9,20.9v6.3H93.7c-30.2,0-54.2-25-54.2-56.3c0-14.6,5.2-28.1,14.6-38.6
			c5.2-5.2,7.3-13.6,4.2-20.9c-5.2-12.5-7.3-27.1-7.3-40.7c0-61.5,49-111.6,108.4-111.6c43.8,0,83.4,27.1,100.1,68.8
			c2.9,10.3,18.7,19.3,31.3,9.4c11.5-8.3,24-12.5,37.5-12.5c34.4,0,62.7,29.2,62.6,64.6c-0.1,17.6,2.8,23.3,15.6,27.1
			c25,6.3,42.7,29.2,42.7,55.3C449.3,283.1,425.3,308.2,395.1,308.2z"/>
		<path d="M235.6,434.3c11.5,0,20.9-9.4,20.9-20.9v-28.1c0-11.5-9.4-20.9-20.9-20.9s-20.9,9.4-20.9,20.9v28.1
			C214.7,424.9,224.1,434.3,235.6,434.3z"/>
	</g>
</g>
<g>
</g>
<g>
</g>
<g>
</g>
<g>
</g>
<g>
</g>
<g>
</g>
<g>
</g>
<g>
</g>
<g>
</g>
<g>
</g>
<g>
</g>
<g>
</g>
<g>
</g>
<g>
</g>
<g>
</g>
</svg>
