<?xml version="1.0" encoding="UTF-8" standalone="no"?>
<!DOCTYPE svg PUBLIC "-//W3C//DTD SVG 1.1//EN" "http://www.w3.org/Graphics/SVG/1.1/DTD/svg11.dtd">
<svg version="1.1" xmlns="http://www.w3.org/2000/svg" xmlns:xlink="http://www.w3.org/1999/xlink" preserveAspectRatio="xMidYMid meet" viewBox="0 0 640 640" width="640" height="640"><defs><path d="M407.44 33.4L408.9 33.55L410.34 33.76L411.75 34.02L413.15 34.34L414.52 34.71L415.88 35.14L417.2 35.62L418.5 36.14L419.78 36.72L421.03 37.34L422.25 38.01L423.44 38.73L424.6 39.49L425.72 40.29L426.82 41.14L427.88 42.02L428.9 42.94L429.89 43.9L430.84 44.9L431.75 45.93L432.62 47L433.46 48.1L434.25 49.23L434.99 50.39L435.69 51.58L436.35 52.8L436.96 54.04L437.53 55.31L438.04 56.61L438.51 57.92L438.92 59.26L439.29 60.62L439.6 61.99L439.86 63.39L440.06 64.8L440.2 66.23L440.29 67.67L440.32 69.12L440.32 442.37L440.29 443.82L440.2 445.26L440.06 446.69L439.86 448.1L439.6 449.49L439.29 450.87L438.92 452.23L438.51 453.57L438.04 454.88L437.53 456.18L436.96 457.45L436.35 458.69L435.69 459.91L434.99 461.1L434.25 462.26L433.46 463.39L432.62 464.49L431.75 465.55L430.84 466.59L429.89 467.58L428.9 468.54L427.88 469.47L426.82 470.35L425.72 471.2L424.6 472L423.44 472.76L422.25 473.47L421.03 474.14L419.78 474.77L418.5 475.34L417.2 475.87L415.88 476.35L414.52 476.77L413.15 477.15L411.75 477.47L410.34 477.73L408.9 477.94L407.44 478.09L405.97 478.18L404.48 478.21L235.52 478.21L234.07 478.18L232.63 478.09L231.2 477.95L229.79 477.74L228.39 477.49L227.02 477.18L225.66 476.81L224.32 476.4L223.01 475.93L221.71 475.42L220.44 474.85L219.2 474.24L217.98 473.58L216.79 472.88L215.63 472.13L214.5 471.34L213.4 470.51L212.33 469.64L211.3 468.73L210.3 467.78L209.34 466.79L208.42 465.76L207.54 464.7L206.69 463.61L205.89 462.48L205.13 461.32L204.41 460.13L203.74 458.92L203.12 457.67L202.54 456.39L202.02 455.09L201.54 453.76L201.11 452.41L200.74 451.04L200.42 449.64L200.16 448.22L199.95 446.79L199.8 445.33L199.71 443.86L199.68 442.37L199.68 69.12L199.71 67.67L199.8 66.23L199.94 64.8L200.14 63.39L200.4 61.99L200.71 60.62L201.08 59.26L201.49 57.92L201.96 56.61L202.47 55.31L203.04 54.04L203.65 52.8L204.31 51.58L205.01 50.39L205.76 49.23L206.54 48.1L207.38 47L208.25 45.93L209.16 44.9L210.11 43.9L211.1 42.94L212.12 42.02L213.18 41.14L214.28 40.29L215.41 39.49L216.56 38.73L217.75 38.01L218.97 37.34L220.22 36.72L221.5 36.14L222.8 35.62L224.12 35.14L225.48 34.71L226.85 34.34L228.25 34.02L229.66 33.76L231.1 33.55L232.56 33.4L234.03 33.31L235.52 33.28L404.48 33.28L405.97 33.31L407.44 33.4ZM317.32 420.01L316.02 420.22L314.74 420.5L313.49 420.86L312.27 421.3L311.08 421.81L309.94 422.38L308.83 423.02L307.76 423.72L306.73 424.48L305.76 425.3L304.83 426.18L303.96 427.1L303.14 428.08L302.38 429.1L301.67 430.17L301.04 431.28L300.46 432.43L299.96 433.61L299.52 434.83L299.16 436.08L298.87 437.36L298.67 438.67L298.54 439.99L298.5 441.34L298.54 442.69L298.67 444.02L298.87 445.33L299.16 446.61L299.52 447.86L299.96 449.08L300.46 450.26L301.04 451.41L301.67 452.52L302.38 453.59L303.14 454.61L303.96 455.59L304.83 456.51L305.76 457.39L306.73 458.21L307.76 458.97L308.83 459.67L309.94 460.31L311.08 460.88L312.27 461.39L313.49 461.82L314.74 462.19L316.02 462.47L317.32 462.68L318.65 462.81L320 462.85L321.35 462.81L322.68 462.69L323.98 462.49L325.26 462.22L326.51 461.87L327.73 461.45L328.92 460.96L330.06 460.41L331.17 459.79L332.24 459.11L333.27 458.36L334.24 457.56L335.17 456.7L336.04 455.79L336.86 454.83L337.62 453.81L338.33 452.75L338.96 451.64L339.54 450.48L340.04 449.28L340.48 448.05L340.84 446.77L341.13 445.47L341.33 444.12L341.46 442.75L341.5 441.34L341.46 439.99L341.33 438.67L341.13 437.36L340.84 436.08L340.48 434.83L340.04 433.61L339.54 432.43L338.96 431.28L338.33 430.17L337.62 429.1L336.86 428.08L336.04 427.1L335.17 426.18L334.24 425.3L333.27 424.48L332.24 423.72L331.17 423.02L330.06 422.38L328.92 421.81L327.73 421.3L326.51 420.86L325.26 420.5L323.98 420.22L322.68 420.01L321.35 419.88L320 419.84L318.65 419.88L317.32 420.01ZM217.09 404.99L423.42 404.99L423.42 98.82L217.09 98.82L217.09 404.99ZM280.3 61.45L280.03 61.46L279.77 61.48L279.51 61.52L279.25 61.56L279 61.62L278.75 61.68L278.51 61.75L278.28 61.83L278.05 61.92L277.82 62.02L277.6 62.12L277.39 62.24L277.18 62.36L276.98 62.49L276.79 62.63L276.6 62.77L276.42 62.92L276.24 63.09L276.08 63.25L275.92 63.43L275.76 63.61L275.62 63.8L275.48 63.99L275.35 64.19L275.23 64.4L275.11 64.61L275.01 64.83L274.91 65.05L274.82 65.29L274.74 65.52L274.67 65.76L274.61 66.01L274.55 66.26L274.51 66.52L274.48 66.78L274.45 67.04L274.44 67.31L274.43 67.58L274.44 67.86L274.45 68.13L274.48 68.39L274.51 68.65L274.55 68.91L274.61 69.16L274.67 69.41L274.74 69.65L274.82 69.88L274.91 70.11L275.01 70.34L275.11 70.56L275.23 70.77L275.35 70.98L275.48 71.18L275.62 71.37L275.76 71.56L275.92 71.74L276.08 71.92L276.24 72.08L276.42 72.24L276.6 72.4L276.79 72.54L276.98 72.68L277.18 72.81L277.39 72.93L277.6 73.05L277.82 73.15L278.05 73.25L278.28 73.34L278.51 73.42L278.75 73.49L279 73.55L279.25 73.61L279.51 73.65L279.77 73.68L280.03 73.71L280.3 73.72L280.58 73.73L359.94 73.73L360.21 73.72L360.48 73.71L360.74 73.68L361 73.65L361.26 73.61L361.51 73.55L361.76 73.49L362 73.42L362.23 73.34L362.47 73.25L362.69 73.15L362.91 73.05L363.12 72.93L363.33 72.81L363.53 72.68L363.72 72.54L363.91 72.4L364.09 72.24L364.27 72.08L364.43 71.92L364.6 71.74L364.75 71.56L364.89 71.37L365.03 71.18L365.16 70.98L365.28 70.77L365.4 70.56L365.5 70.34L365.6 70.11L365.69 69.88L365.77 69.65L365.84 69.41L365.9 69.16L365.96 68.91L366 68.65L366.04 68.39L366.06 68.13L366.07 67.86L366.08 67.58L366.07 67.31L366.06 67.04L366.04 66.78L366 66.52L365.96 66.26L365.9 66.01L365.84 65.76L365.77 65.52L365.69 65.29L365.6 65.05L365.5 64.83L365.4 64.61L365.28 64.4L365.16 64.19L365.03 63.99L364.89 63.8L364.75 63.61L364.6 63.43L364.43 63.25L364.27 63.09L364.09 62.92L363.91 62.77L363.72 62.63L363.53 62.49L363.33 62.36L363.12 62.24L362.91 62.12L362.69 62.02L362.47 61.92L362.23 61.83L362 61.75L361.76 61.68L361.51 61.62L361.26 61.56L361 61.52L360.74 61.48L360.48 61.46L360.21 61.45L359.94 61.44L280.58 61.44L280.3 61.45Z" id="e50rHFO9b"></path></defs><g><g><g><use xlink:href="#e50rHFO9b" opacity="1" fill="#000100" fill-opacity="1"></use><g><use xlink:href="#e50rHFO9b" opacity="1" fill-opacity="0" stroke="#000000" stroke-width="1" stroke-opacity="0"></use></g></g></g></g></svg>