<svg xmlns="http://www.w3.org/2000/svg" xmlns:xlink="http://www.w3.org/1999/xlink" width="640" height="640"><defs><path d="M407.44 33.4l1.46.15 1.44.21 1.41.26 1.4.32 1.37.37 1.36.43 1.32.48 1.3.52 1.28.58 1.25.62 1.22.67 1.19.72 1.16.76 1.12.8 1.1.85 1.06.88 1.02.92.99.96.95 1 .91 1.03.87 1.07.84 1.1.79 1.13.74 1.16.7 1.19.66 1.22.61 1.24.57 1.27.51 1.3.47 1.31.41 1.34.37 1.36.31 1.37.26 1.4.2 1.41.14 1.43.09 1.44.03 1.45v373.25l-.03 1.45-.09 1.44-.14 1.43-.2 1.41-.26 1.39-.31 1.38-.37 1.36-.41 1.34-.47 1.31-.51 1.3-.57 1.27-.61 1.24-.66 1.22-.7 1.19-.74 1.16-.79 1.13-.84 1.1-.87 1.06-.91 1.04-.95.99-.99.96-1.02.93-1.06.88-1.1.85-1.12.8-1.16.76-1.19.71-1.22.67-1.25.63-1.28.57-1.3.53-1.32.48-1.36.42-1.37.38-1.4.32-1.41.26-1.44.21-1.46.15-1.47.09-1.49.03H235.52l-1.45-.03-1.44-.09-1.43-.14-1.41-.21-1.4-.25-1.37-.31-1.36-.37-1.34-.41-1.31-.47-1.3-.51-1.27-.57-1.24-.61-1.22-.66-1.19-.7-1.16-.75-1.13-.79-1.1-.83-1.07-.87-1.03-.91-1-.95-.96-.99-.92-1.03-.88-1.06-.85-1.09-.8-1.13-.76-1.16-.72-1.19-.67-1.21-.62-1.25-.58-1.28-.52-1.3-.48-1.33-.43-1.35-.37-1.37-.32-1.4-.26-1.42-.21-1.43-.15-1.46-.09-1.47-.03-1.49V69.12l.03-1.45.09-1.44.14-1.43.2-1.41.26-1.4.31-1.37.37-1.36.41-1.34.47-1.31.51-1.3.57-1.27.61-1.24.66-1.22.7-1.19.75-1.16.78-1.13.84-1.1.87-1.07.91-1.03.95-1 .99-.96 1.02-.92 1.06-.88 1.1-.85 1.13-.8 1.15-.76 1.19-.72 1.22-.67 1.25-.62 1.28-.58 1.3-.52 1.32-.48 1.36-.43 1.37-.37 1.4-.32 1.41-.26 1.44-.21 1.46-.15 1.47-.09 1.49-.03h168.96l1.49.03 1.47.09zm-90.12 386.61l-1.3.21-1.28.28-1.25.36-1.22.44-1.19.51-1.14.57-1.11.64-1.07.7-1.03.76-.97.82-.93.88-.87.92-.82.98-.76 1.02-.71 1.07-.63 1.11-.58 1.15-.5 1.18-.44 1.22-.36 1.25-.29 1.28-.2 1.31-.13 1.32-.04 1.35.04 1.35.13 1.33.2 1.31.29 1.28.36 1.25.44 1.22.5 1.18.58 1.15.63 1.11.71 1.07.76 1.02.82.98.87.92.93.88.97.82 1.03.76 1.07.7 1.11.64 1.14.57 1.19.51 1.22.43 1.25.37 1.28.28 1.3.21 1.33.13 1.35.04 1.35-.04 1.33-.12 1.3-.2 1.28-.27 1.25-.35 1.22-.42 1.19-.49 1.14-.55 1.11-.62 1.07-.68 1.03-.75.97-.8.93-.86.87-.91.82-.96.76-1.02.71-1.06.63-1.11.58-1.16.5-1.2.44-1.23.36-1.28.29-1.3.2-1.35.13-1.37.04-1.41-.04-1.35-.13-1.32-.2-1.31-.29-1.28-.36-1.25-.44-1.22-.5-1.18-.58-1.15-.63-1.11-.71-1.07-.76-1.02-.82-.98-.87-.92-.93-.88-.97-.82-1.03-.76-1.07-.7-1.11-.64-1.14-.57-1.19-.51-1.22-.44-1.25-.36-1.28-.28-1.3-.21-1.33-.13-1.35-.04-1.35.04-1.33.13zm-100.23-15.02h206.33V98.82H217.09v306.17zM280.3 61.45l-.27.01-.26.02-.26.04-.26.04-.25.06-.25.06-.24.07-.23.08-.23.09-.23.1-.22.1-.21.12-.21.12-.2.13-.19.14-.19.14-.18.15-.18.17-.16.16-.16.18-.16.18-.14.19-.14.19-.13.2-.12.21-.12.21-.1.22-.1.22-.09.24-.08.23-.07.24-.06.25-.06.25-.04.26-.03.26-.03.26-.01.27-.01.27.01.28.01.27.03.26.03.26.04.26.06.25.06.25.07.24.08.23.09.23.1.23.1.22.12.21.12.21.13.2.14.19.14.19.16.18.16.18.16.16.18.16.18.16.19.14.19.14.2.13.21.12.21.12.22.1.23.1.23.09.23.08.24.07.25.06.25.06.26.04.26.03.26.03.27.01.28.01h79.36l.27-.01.27-.01.26-.03.26-.03.26-.04.25-.06.25-.06.24-.07.23-.08.24-.09.22-.1.22-.1.21-.12.21-.12.2-.13.19-.14.19-.14.18-.16.18-.16.16-.16.17-.18.15-.18.14-.19.14-.19.13-.2.12-.21.12-.21.1-.22.1-.23.09-.23.08-.23.07-.24.06-.25.06-.25.04-.26.04-.26.02-.26.01-.27.01-.28-.01-.27-.01-.27-.02-.26-.04-.26-.04-.26-.06-.25-.06-.25-.07-.24-.08-.23-.09-.24-.1-.22-.1-.22-.12-.21-.12-.21-.13-.2-.14-.19-.14-.19-.15-.18-.17-.18-.16-.16-.18-.17-.18-.15-.19-.14-.19-.14-.2-.13-.21-.12-.21-.12-.22-.1-.22-.1-.24-.09-.23-.08-.24-.07-.25-.06-.25-.06-.26-.04-.26-.04-.26-.02-.27-.01-.27-.01h-79.36l-.28.01z" id="a"/><path d="M371.41 261.32h25.64V241.1h-38.29l-13.47 23.41-36.71-87.46-28.68 64.05h-24.92v20.22H294l13.94-31.14 34.32 81.76 29.15-50.62z" id="b"/></defs><use xlink:href="#a" fill="#000100"/><use xlink:href="#a" fill-opacity="0" stroke="#000" stroke-opacity="0"/><g><use xlink:href="#b" fill="#8a2a76"/><use xlink:href="#b" fill-opacity="0" stroke="#000" stroke-opacity="0"/></g></svg>