<svg xmlns="http://www.w3.org/2000/svg" xmlns:xlink="http://www.w3.org/1999/xlink" width="640" height="640"><defs><path d="M407.44 33.4l1.46.15 1.44.21 1.41.26 1.4.32 1.37.37 1.36.43 1.32.48 1.3.52 1.28.58 1.25.62 1.22.67 1.19.72 1.16.76 1.12.8 1.1.85 1.06.88 1.02.92.99.96.95 1 .91 1.03.87 1.07.84 1.1.79 1.13.74 1.16.7 1.19.66 1.22.61 1.24.57 1.27.51 1.3.47 1.31.41 1.34.37 1.36.31 1.37.26 1.4.2 1.41.14 1.43.09 1.44.03 1.45v373.25l-.03 1.45-.09 1.44-.14 1.43-.2 1.41-.26 1.39-.31 1.38-.37 1.36-.41 1.34-.47 1.31-.51 1.3-.57 1.27-.61 1.24-.66 1.22-.7 1.19-.74 1.16-.79 1.13-.84 1.1-.87 1.06-.91 1.04-.95.99-.99.96-1.02.93-1.06.88-1.1.85-1.12.8-1.16.76-1.19.71-1.22.67-1.25.63-1.28.57-1.3.53-1.32.48-1.36.42-1.37.38-1.4.32-1.41.26-1.44.21-1.46.15-1.47.09-1.49.03H235.52l-1.45-.03-1.44-.09-1.43-.14-1.41-.21-1.4-.25-1.37-.31-1.36-.37-1.34-.41-1.31-.47-1.3-.51-1.27-.57-1.24-.61-1.22-.66-1.19-.7-1.16-.75-1.13-.79-1.1-.83-1.07-.87-1.03-.91-1-.95-.96-.99-.92-1.03-.88-1.06-.85-1.09-.8-1.13-.76-1.16-.72-1.19-.67-1.21-.62-1.25-.58-1.28-.52-1.3-.48-1.33-.43-1.35-.37-1.37-.32-1.4-.26-1.42-.21-1.43-.15-1.46-.09-1.47-.03-1.49V69.12l.03-1.45.09-1.44.14-1.43.2-1.41.26-1.4.31-1.37.37-1.36.41-1.34.47-1.31.51-1.3.57-1.27.61-1.24.66-1.22.7-1.19.75-1.16.78-1.13.84-1.1.87-1.07.91-1.03.95-1 .99-.96 1.02-.92 1.06-.88 1.1-.85 1.13-.8 1.15-.76 1.19-.72 1.22-.67 1.25-.62 1.28-.58 1.3-.52 1.32-.48 1.36-.43 1.37-.37 1.4-.32 1.41-.26 1.44-.21 1.46-.15 1.47-.09 1.49-.03h168.96l1.49.03 1.47.09zm-90.12 386.61l-1.3.21-1.28.28-1.25.36-1.22.44-1.19.51-1.14.57-1.11.64-1.07.7-1.03.76-.97.82-.93.88-.87.92-.82.98-.76 1.02-.71 1.07-.63 1.11-.58 1.15-.5 1.18-.44 1.22-.36 1.25-.29 1.28-.2 1.31-.13 1.32-.04 1.35.04 1.35.13 1.33.2 1.31.29 1.28.36 1.25.44 1.22.5 1.18.58 1.15.63 1.11.71 1.07.76 1.02.82.98.87.92.93.88.97.82 1.03.76 1.07.7 1.11.64 1.14.57 1.19.51 1.22.43 1.25.37 1.28.28 1.3.21 1.33.13 1.35.04 1.35-.04 1.33-.12 1.3-.2 1.28-.27 1.25-.35 1.22-.42 1.19-.49 1.14-.55 1.11-.62 1.07-.68 1.03-.75.97-.8.93-.86.87-.91.82-.96.76-1.02.71-1.06.63-1.11.58-1.16.5-1.2.44-1.23.36-1.28.29-1.3.2-1.35.13-1.37.04-1.41-.04-1.35-.13-1.32-.2-1.31-.29-1.28-.36-1.25-.44-1.22-.5-1.18-.58-1.15-.63-1.11-.71-1.07-.76-1.02-.82-.98-.87-.92-.93-.88-.97-.82-1.03-.76-1.07-.7-1.11-.64-1.14-.57-1.19-.51-1.22-.44-1.25-.36-1.28-.28-1.3-.21-1.33-.13-1.35-.04-1.35.04-1.33.13zm-100.23-15.02h206.33V98.82H217.09v306.17zM280.3 61.45l-.27.01-.26.02-.26.04-.26.04-.25.06-.25.06-.24.07-.23.08-.23.09-.23.1-.22.1-.21.12-.21.12-.2.13-.19.14-.19.14-.18.15-.18.17-.16.16-.16.18-.16.18-.14.19-.14.19-.13.2-.12.21-.12.21-.1.22-.1.22-.09.24-.08.23-.07.24-.06.25-.06.25-.04.26-.03.26-.03.26-.01.27-.01.27.01.28.01.27.03.26.03.26.04.26.06.25.06.25.07.24.08.23.09.23.1.23.1.22.12.21.12.21.13.2.14.19.14.19.16.18.16.18.16.16.18.16.18.16.19.14.19.14.2.13.21.12.21.12.22.1.23.1.23.09.23.08.24.07.25.06.25.06.26.04.26.03.26.03.27.01.28.01h79.36l.27-.01.27-.01.26-.03.26-.03.26-.04.25-.06.25-.06.24-.07.23-.08.24-.09.22-.1.22-.1.21-.12.21-.12.2-.13.19-.14.19-.14.18-.16.18-.16.16-.16.17-.18.15-.18.14-.19.14-.19.13-.2.12-.21.12-.21.1-.22.1-.23.09-.23.08-.23.07-.24.06-.25.06-.25.04-.26.04-.26.02-.26.01-.27.01-.28-.01-.27-.01-.27-.02-.26-.04-.26-.04-.26-.06-.25-.06-.25-.07-.24-.08-.23-.09-.24-.1-.22-.1-.22-.12-.21-.12-.21-.13-.2-.14-.19-.14-.19-.15-.18-.17-.18-.16-.16-.18-.17-.18-.15-.19-.14-.19-.14-.2-.13-.21-.12-.21-.12-.22-.1-.22-.1-.24-.09-.23-.08-.24-.07-.25-.06-.25-.06-.26-.04-.26-.04-.26-.02-.27-.01-.27-.01h-79.36l-.28.01z" id="a"/><path d="M331.5 163.73l2.44.24 2.41.35 2.38.44 2.35.53 2.31.62 2.28.71 2.25.79 2.2.88 2.16.97 2.11 1.04 2.07 1.12 2.03 1.2 1.97 1.27 1.92 1.35 1.87 1.42 1.81 1.48 1.75 1.56 1.69 1.62 1.63 1.68 1.57 1.74 1.49 1.81 1.43 1.86 1.36 1.92 1.29 1.97 1.21 2.02 1.13 2.07 1.06 2.12.98 2.17.89 2.21.8 2.25.72 2.29.63 2.34.54 2.36.45 2.41.35 2.43.25 2.47.15 2.49.06 2.52-.12 2.59-.33 2.69-.53 2.79-.73 2.87-.91 2.95-1.09 3.01-1.24 3.07-1.39 3.13-1.53 3.16-1.65 3.2-1.77 3.22-1.88 3.24-1.96 3.24-2.04 3.24-2.11 3.23-2.17 3.21-2.22 3.19-2.24 3.14-2.28 3.1-2.28 3.05-2.28 2.98-2.27 2.91-2.25 2.82-2.22 2.74-2.16 2.64-2.12 2.54-2.04 2.41-1.96 2.3-1.87 2.16-1.77 2.02-1.66 1.86-1.53 1.71-1.39 1.54-1.24 1.36-1.08 1.18-.92.98-.73.78-.53.57-.33.35-.11.11-.11-.11-.33-.35-.54-.57-.73-.78-.91-.98-1.08-1.18-1.25-1.36-1.39-1.54-1.53-1.71-1.65-1.86-1.77-2.02-1.87-2.16-1.97-2.3-2.04-2.41-2.11-2.54-2.17-2.64-2.21-2.74-2.25-2.82-2.27-2.91-2.29-2.98-2.28-3.05-2.27-3.1-2.25-3.14-2.21-3.19-2.17-3.21-2.11-3.23-2.05-3.24-1.96-3.24-1.87-3.24-1.77-3.22-1.66-3.2-1.52-3.16-1.4-3.13-1.24-3.07-1.08-3.01-.91-2.95-.73-2.87-.54-2.79-.33-2.69-.11-2.59.05-2.52.15-2.49.25-2.47.34-2.43.44-2.41.53-2.36.62-2.34.71-2.29.8-2.25.88-2.21.96-2.17 1.04-2.12 1.13-2.07 1.19-2.02 1.28-1.97 1.34-1.92 1.42-1.86 1.49-1.81 1.55-1.74 1.62-1.68 1.68-1.62 1.75-1.56 1.8-1.48 1.86-1.42 1.92-1.35 1.97-1.27 2.02-1.2 2.07-1.12 2.12-1.04 2.17-.97 2.21-.88 2.25-.79 2.3-.71 2.33-.62 2.37-.53 2.4-.44 2.44-.35 2.46-.24 2.5-.15 2.52-.05 2.48.05 2.46.15zm-7.57 31.14l-1.29.14-1.28.2-1.25.25-1.24.3-1.21.36-1.2.4-1.17.45-1.14.5-1.12.55-1.1.59-1.06.63-1.04.68-1 .72-.98.76-.94.79-.9.84-.88.87-.83.91-.8.94-.76.97-.72 1.01-.67 1.04-.64 1.06-.59 1.09-.54 1.12-.5 1.15-.46 1.17-.4 1.19-.35 1.22-.3 1.23-.25 1.26-.2 1.27-.14 1.29-.09 1.31-.03 1.32.03 1.32.09 1.31.14 1.29.2 1.28.25 1.25.3 1.24.35 1.21.4 1.2.46 1.17.5 1.14.54 1.12.59 1.1.64 1.06.67 1.04.72 1 .76.98.8.94.83.9.88.88.9.83.94.8.98.76 1 .72 1.04.67 1.06.64 1.1.59 1.12.54 1.14.5 1.17.46 1.2.4 1.21.35 1.24.31 1.25.25 1.28.19 1.29.14 1.31.09 1.32.03 1.32-.03 1.31-.09 1.29-.14 1.27-.19 1.26-.25 1.23-.31 1.22-.35 1.19-.4 1.17-.46 1.15-.5 1.12-.54 1.09-.59 1.07-.64 1.03-.67 1.01-.72.97-.76.94-.8.91-.83.87-.88.84-.9.79-.94.76-.98.72-1 .68-1.04.63-1.06.59-1.1.55-1.12.5-1.14.45-1.17.4-1.2.36-1.21.3-1.24.25-1.25.2-1.28.14-1.29.08-1.31.03-1.32-.03-1.32-.08-1.31-.14-1.29-.2-1.27-.25-1.26-.3-1.23-.36-1.22-.4-1.19-.45-1.17-.5-1.15-.55-1.12-.59-1.09-.63-1.06-.68-1.04-.72-1.01-.76-.97-.79-.94-.84-.91-.87-.87-.91-.84-.94-.79-.97-.76-1.01-.72-1.03-.68-1.07-.63-1.09-.59-1.12-.55-1.15-.5-1.17-.45-1.19-.4-1.22-.36-1.23-.3-1.26-.25-1.27-.2-1.29-.14-1.31-.08-1.32-.03-1.32.03-1.31.08z" id="b"/></defs><use xlink:href="#a" fill="#000100"/><use xlink:href="#a" fill-opacity="0" stroke="#000" stroke-opacity="0"/><g><use xlink:href="#b" fill="#8a2a76"/><use xlink:href="#b" fill-opacity="0" stroke="#000" stroke-opacity="0"/></g></svg>