<svg xmlns="http://www.w3.org/2000/svg" xmlns:xlink="http://www.w3.org/1999/xlink" width="640" height="640"><defs><path d="M407.44 33.4l1.46.15 1.44.21 1.41.26 1.4.32 1.37.37 1.36.43 1.32.48 1.3.52 1.28.58 1.25.62 1.22.67 1.19.72 1.16.76 1.12.8 1.1.85 1.06.88 1.02.92.99.96.95 1 .91 1.03.87 1.07.84 1.1.79 1.13.74 1.16.7 1.19.66 1.22.61 1.24.57 1.27.51 1.3.47 1.31.41 1.34.37 1.36.31 1.37.26 1.4.2 1.41.14 1.43.09 1.44.03 1.45v373.25l-.03 1.45-.09 1.44-.14 1.43-.2 1.41-.26 1.39-.31 1.38-.37 1.36-.41 1.34-.47 1.31-.51 1.3-.57 1.27-.61 1.24-.66 1.22-.7 1.19-.74 1.16-.79 1.13-.84 1.1-.87 1.06-.91 1.04-.95.99-.99.96-1.02.93-1.06.88-1.1.85-1.12.8-1.16.76-1.19.71-1.22.67-1.25.63-1.28.57-1.3.53-1.32.48-1.36.42-1.37.38-1.4.32-1.41.26-1.44.21-1.46.15-1.47.09-1.49.03H235.52l-1.45-.03-1.44-.09-1.43-.14-1.41-.21-1.4-.25-1.37-.31-1.36-.37-1.34-.41-1.31-.47-1.3-.51-1.27-.57-1.24-.61-1.22-.66-1.19-.7-1.16-.75-1.13-.79-1.1-.83-1.07-.87-1.03-.91-1-.95-.96-.99-.92-1.03-.88-1.06-.85-1.09-.8-1.13-.76-1.16-.72-1.19-.67-1.21-.62-1.25-.58-1.28-.52-1.3-.48-1.33-.43-1.35-.37-1.37-.32-1.4-.26-1.42-.21-1.43-.15-1.46-.09-1.47-.03-1.49V69.12l.03-1.45.09-1.44.14-1.43.2-1.41.26-1.4.31-1.37.37-1.36.41-1.34.47-1.31.51-1.3.57-1.27.61-1.24.66-1.22.7-1.19.75-1.16.78-1.13.84-1.1.87-1.07.91-1.03.95-1 .99-.96 1.02-.92 1.06-.88 1.1-.85 1.13-.8 1.15-.76 1.19-.72 1.22-.67 1.25-.62 1.28-.58 1.3-.52 1.32-.48 1.36-.43 1.37-.37 1.4-.32 1.41-.26 1.44-.21 1.46-.15 1.47-.09 1.49-.03h168.96l1.49.03 1.47.09zm-90.12 386.61l-1.3.21-1.28.28-1.25.36-1.22.44-1.19.51-1.14.57-1.11.64-1.07.7-1.03.76-.97.82-.93.88-.87.92-.82.98-.76 1.02-.71 1.07-.63 1.11-.58 1.15-.5 1.18-.44 1.22-.36 1.25-.29 1.28-.2 1.31-.13 1.32-.04 1.35.04 1.35.13 1.33.2 1.31.29 1.28.36 1.25.44 1.22.5 1.18.58 1.15.63 1.11.71 1.07.76 1.02.82.98.87.92.93.88.97.82 1.03.76 1.07.7 1.11.64 1.14.57 1.19.51 1.22.43 1.25.37 1.28.28 1.3.21 1.33.13 1.35.04 1.35-.04 1.33-.12 1.3-.2 1.28-.27 1.25-.35 1.22-.42 1.19-.49 1.14-.55 1.11-.62 1.07-.68 1.03-.75.97-.8.93-.86.87-.91.82-.96.76-1.02.71-1.06.63-1.11.58-1.16.5-1.2.44-1.23.36-1.28.29-1.3.2-1.35.13-1.37.04-1.41-.04-1.35-.13-1.32-.2-1.31-.29-1.28-.36-1.25-.44-1.22-.5-1.18-.58-1.15-.63-1.11-.71-1.07-.76-1.02-.82-.98-.87-.92-.93-.88-.97-.82-1.03-.76-1.07-.7-1.11-.64-1.14-.57-1.19-.51-1.22-.44-1.25-.36-1.28-.28-1.3-.21-1.33-.13-1.35-.04-1.35.04-1.33.13zm-100.23-15.02h206.33V98.82H217.09v306.17zM280.3 61.45l-.27.01-.26.02-.26.04-.26.04-.25.06-.25.06-.24.07-.23.08-.23.09-.23.1-.22.1-.21.12-.21.12-.2.13-.19.14-.19.14-.18.15-.18.17-.16.16-.16.18-.16.18-.14.19-.14.19-.13.2-.12.21-.12.21-.1.22-.1.22-.09.24-.08.23-.07.24-.06.25-.06.25-.04.26-.03.26-.03.26-.01.27-.01.27.01.28.01.27.03.26.03.26.04.26.06.25.06.25.07.24.08.23.09.23.1.23.1.22.12.21.12.21.13.2.14.19.14.19.16.18.16.18.16.16.18.16.18.16.19.14.19.14.2.13.21.12.21.12.22.1.23.1.23.09.23.08.24.07.25.06.25.06.26.04.26.03.26.03.27.01.28.01h79.36l.27-.01.27-.01.26-.03.26-.03.26-.04.25-.06.25-.06.24-.07.23-.08.24-.09.22-.1.22-.1.21-.12.21-.12.2-.13.19-.14.19-.14.18-.16.18-.16.16-.16.17-.18.15-.18.14-.19.14-.19.13-.2.12-.21.12-.21.1-.22.1-.23.09-.23.08-.23.07-.24.06-.25.06-.25.04-.26.04-.26.02-.26.01-.27.01-.28-.01-.27-.01-.27-.02-.26-.04-.26-.04-.26-.06-.25-.06-.25-.07-.24-.08-.23-.09-.24-.1-.22-.1-.22-.12-.21-.12-.21-.13-.2-.14-.19-.14-.19-.15-.18-.17-.18-.16-.16-.18-.17-.18-.15-.19-.14-.19-.14-.2-.13-.21-.12-.21-.12-.22-.1-.22-.1-.24-.09-.23-.08-.24-.07-.25-.06-.25-.06-.26-.04-.26-.04-.26-.02-.27-.01-.27-.01h-79.36l-.28.01z" id="a"/><path d="M327.43 186.73c2.1.1 4.91.3 8.19.73 6.92.94 13.73 2.6 20.33 4.95 9.37 3.35 18.25 8.01 26.39 13.85 8.66 6.2 16.42 13.65 23.04 22.11 2.52 3.18 2.4 5.88-.35 8.83l-5.41 5.81c-1.67 1.89-4.52 2.03-6.35.3-.22-.2-.42-.43-.59-.67-10.19-13.39-22.79-23.54-38.13-29.9-36.7-15.21-78.27-3.61-103.14 28.69-3.57 4.63-4.94 4.7-8.93.43-1.57-1.68-3.15-3.35-4.7-5.05-2.05-2.26-2.15-5.74-.24-8.13 5.59-7.01 17.5-20.94 35.25-29.92 0 0 15.51-7.85 31.22-10.74 2.47-.44 4.92-.79 4.92-.79 1.18-.15 3.17-.41 5.8-.57 1.74-.11 3.86-.18 6.29-.15 1.28.05 5.13.18 6.41.22z" id="b"/><path d="M379.95 256.96c1.79 2.45 1.53 5.56-.55 7.84a402.81 402.81 0 0 1-6.23 6.69c-2.3 2.44-4.43 2.27-6.27-.56-4.98-7.71-11.3-13.95-19.13-18.5-24.38-14.19-54.81-6.56-70.85 17.7-.36.61-.75 1.18-1.18 1.73-1.4 1.63-3.44 1.82-4.94.3-2.45-2.5-4.86-5.06-7.17-7.7-1.87-2.15-1.91-5.19-.19-7.59 11.73-16.2 27.05-26.53 46.46-30.11 1.39-.25 2.79-.49 4.19-.63 2.54-.32 5.1-.47 7.66-.45 24.31.66 43.62 11.29 58.2 31.28z" id="c"/><path d="M356.35 282.06c1.94 2.36 1.81 5.45-.29 7.78-2.16 2.4-4.37 4.74-6.6 7.06-1.95 2.05-4.04 1.93-5.74-.36-1.45-2.03-3.1-3.88-4.95-5.53-11.69-9.99-28.35-8.28-37.92 3.89-.43.54-.82 1.12-1.25 1.66-1.75 2.23-3.81 2.36-5.77.3-3.27-3.45-5.82-6.24-6.47-6.93-2.28-2.5-2.32-5.56-.14-8.17 9.09-10.89 20.57-16.59 34.76-16.89 13.84.35 25.33 6.16 34.37 17.19z" id="d"/></defs><use xlink:href="#a" fill="#000100"/><use xlink:href="#a" fill-opacity="0" stroke="#000" stroke-opacity="0"/><use xlink:href="#b" fill="#8a2a76"/><use xlink:href="#b" fill-opacity="0" stroke="#000" stroke-opacity="0"/><g><use xlink:href="#c" fill="#8a2a76"/><use xlink:href="#c" fill-opacity="0" stroke="#000" stroke-opacity="0"/></g><g><use xlink:href="#d" fill="#8a2a76"/><use xlink:href="#d" fill-opacity="0" stroke="#000" stroke-opacity="0"/></g></svg>