<?xml version="1.0" encoding="iso-8859-1"?>
<!-- Generator: Adobe Illustrator 19.0.0, SVG Export Plug-In . SVG Version: 6.00 Build 0)  -->
<svg version="1.1" id="Capa_1" xmlns="http://www.w3.org/2000/svg" xmlns:xlink="http://www.w3.org/1999/xlink" x="0px" y="0px"
	 viewBox="0 0 489.592 489.592" style="enable-background:new 0 0 489.592 489.592;" xml:space="preserve">
<g>
	<g>
		<path d="M282,0.296H43.7c-23.9,0-43.7,19.8-43.7,43.7v401.6c0,23.9,19.8,43.7,43.7,43.7h237.2c25,0,43.7-19.8,44.7-43.7v-401.6
			C325.7,20.096,305.9,0.296,282,0.296z M285.1,40.896v295.5H40.6v-295.5H285.1z M285.1,448.696H40.6v-70.7h244.5V448.696z"/>
		<path d="M179,393.596h-33.3c-11.4,0-20.8,9.4-20.8,20.8s9.4,20.8,20.8,20.8H179c11.4,0,19.8-9.4,20.8-20.8
			C199.8,402.896,190.4,393.596,179,393.596z"/>
		<path d="M372.5,184.496c-10.4,4.2-15.6,15.6-12.5,26c0,1,13.5,42.7,0,91.5c-3.1,10.4,3.1,21.8,13.5,25c13,3.7,22.9-5.2,25-14.6
			c17.7-60.3,1-113.4,0-115.5C394.3,186.496,382.9,181.296,372.5,184.496z"/>
		<path d="M475.5,154.296c-4.2-10.4-15.6-15.6-26-12.5c-10.4,4.2-15.6,15.6-12.5,26c0,1,27,84.3,0,176.9c-3.1,10.4,3.1,21.8,13.5,25
			c13.1,3.8,21.8-5.2,25-14.6C506.7,248.996,476.5,158.496,475.5,154.296z"/>
	</g>
</g>
<g>
</g>
<g>
</g>
<g>
</g>
<g>
</g>
<g>
</g>
<g>
</g>
<g>
</g>
<g>
</g>
<g>
</g>
<g>
</g>
<g>
</g>
<g>
</g>
<g>
</g>
<g>
</g>
<g>
</g>
</svg>
