<svg xmlns="http://www.w3.org/2000/svg" width="55" height="60" viewBox="0 0 55 60">
  <path d="M33,31a1,1,0,0,0-1,1V46H2V8H32V22a1,1,0,1,0,2,0V4.405A4.411,4.411,0,0,0,29.6,0H4.405A4.411,4.411,0,0,0,0,4.405V55.594A4.411,4.411,0,0,0,4.405,60H29.594A4.411,4.411,0,0,0,34,55.6V32A1,1,0,0,0,33,31ZM4.405,2H29.594A2.408,2.408,0,0,1,32,4.405V6H2V4.405A2.408,2.408,0,0,1,4.405,2ZM29.6,58H4.405A2.408,2.408,0,0,1,2,55.6V48H32V55.6A2.408,2.408,0,0,1,29.6,58ZM17,49a4,4,0,1,0,4,4A4,4,0,0,0,17,49Zm0,6a2,2,0,1,1,2-2A2,2,0,0,1,17,55ZM13,5h4a1,1,0,0,0,0-2H13A1,1,0,0,0,13,5Zm7,0h1a1,1,0,0,0,0-2H20A1,1,0,0,0,20,5ZM54,26H18.414L28.707,15.707a1,1,0,0,0-1.414-1.414l-12,12a1.006,1.006,0,0,0,0,1.418l12,12a1,1,0,0,0,1.414-1.416L18.414,28H54A1,1,0,0,0,54,26Z"/>
</svg>
