<svg xmlns="http://www.w3.org/2000/svg" width="44" height="54" viewBox="0 0 44 54">
  <path id="Forma_1" data-name="Forma 1" class="cls-1" d="M38,20.113V14.5C38,6.505,30.822,0,22,0S6,6.505,6,14.5a1,1,0,0,0,2,0C8,7.607,14.28,2,22,2S36,7.607,36,14.5V20H7.229A7.237,7.237,0,0,0,0,27.229V46.771A7.237,7.237,0,0,0,7.229,54H36.771A7.237,7.237,0,0,0,44,46.771V27.229A7.235,7.235,0,0,0,38,20.113Zm4,26.658A5.235,5.235,0,0,1,36.771,52H7.229A5.235,5.235,0,0,1,2,46.771V27.229A5.235,5.235,0,0,1,7.229,22H36.771A5.235,5.235,0,0,1,42,27.229V46.771ZM22,28a4,4,0,0,0-4,4v6a4,4,0,0,0,8,0V32A4,4,0,0,0,22,28Zm2,10a2,2,0,0,1-4,0V32a2,2,0,0,1,4,0v6Z"/>
</svg>
