<svg xmlns="http://www.w3.org/2000/svg" width="59.75" height="60" viewBox="0 0 59.75 60">
  <path d="M42.544,0H17.455a4.4,4.4,0,0,0-4.387,4.405V55.594A4.4,4.4,0,0,0,17.455,60H42.543A4.4,4.4,0,0,0,46.932,55.6V4.405A4.4,4.4,0,0,0,42.544,0ZM15.059,8H44.94V46H15.059V8Zm2.4-6H42.543a2.4,2.4,0,0,1,2.4,2.405V6H15.059V4.405A2.4,2.4,0,0,1,17.455,2Zm25.09,56H17.455a2.4,2.4,0,0,1-2.4-2.405V48H44.94V55.6A2.4,2.4,0,0,1,42.544,58ZM30,49a4,4,0,1,0,3.984,4A4,4,0,0,0,30,49Zm0,6a2,2,0,1,1,1.992-2A2,2,0,0,1,30,55ZM26.016,5H30a1,1,0,0,0,0-2H26.016A1,1,0,0,0,26.016,5Zm6.972,0h1a1,1,0,0,0,0-2h-1A1,1,0,0,0,32.988,5Zm23.518-.431A1,1,0,0,0,55.1,5.983a9.621,9.621,0,0,1,0,13.552,1,1,0,0,0,0,1.414,0.993,0.993,0,0,0,1.408,0A11.628,11.628,0,0,0,56.506,4.569ZM52.311,6.845A1,1,0,1,0,50.9,8.259a6.586,6.586,0,0,1,0,9.277,1,1,0,0,0,0,1.414,0.993,0.993,0,0,0,1.408,0A8.591,8.591,0,0,0,52.311,6.845ZM4.9,5.983A1,1,0,0,0,3.494,4.569a11.628,11.628,0,0,0,0,16.38,0.993,0.993,0,0,0,1.408,0,1,1,0,0,0,0-1.414A9.619,9.619,0,0,1,4.9,5.983ZM9.1,6.569a0.992,0.992,0,0,0-1.408,0,8.591,8.591,0,0,0,0,12.105,0.993,0.993,0,0,0,1.408,0,1,1,0,0,0,0-1.414,6.586,6.586,0,0,1,0-9.277A1,1,0,0,0,9.1,6.569Z" transform="translate(-0.125)"/>
</svg>
