<svg xmlns="http://www.w3.org/2000/svg" width="60" height="60" viewBox="0 0 60 60">
  <path id="Forma_1" data-name="Forma 1" class="cls-1" d="M30,0A30,30,0,1,0,60,30,30.034,30.034,0,0,0,30,0Zm0,58A28,28,0,1,1,58,30,28.032,28.032,0,0,1,30,58Zm1-31.979V15.879a1,1,0,1,0-2,0V26.021a4,4,0,0,0-2.858,2.858H19a1,1,0,0,0,0,2h7.142A3.992,3.992,0,1,0,31,26.021Zm-1,5.858a2,2,0,1,1,2-2A2,2,0,0,1,30,31.879Zm0-22a1,1,0,0,0,1-1v-1a1,1,0,1,0-2,0v1A1,1,0,0,0,30,9.879Zm0,40a1,1,0,0,0-1,1v1a1,1,0,0,0,2,0v-1A1,1,0,0,0,30,49.879Zm22-21H51a1,1,0,0,0,0,2h1A1,1,0,0,0,52,28.879Zm-43,0H8a1,1,0,0,0,0,2H9A1,1,0,1,0,9,28.879ZM44.849,13.615l-0.707.707a1,1,0,1,0,1.414,1.414l0.707-.707A1,1,0,1,0,44.849,13.615Zm-30.4,30.406-0.707.707a1,1,0,1,0,1.414,1.414l0.707-.707A1,1,0,0,0,14.444,44.021Zm31.112,0a1,1,0,0,0-1.414,1.414l0.707,0.707a1,1,0,0,0,1.414-1.414Zm-30.4-30.406a1,1,0,1,0-1.414,1.414l0.707,0.707a1,1,0,0,0,1.414-1.414Z"/>
</svg>
