<svg data-name="Группа 21" xmlns="http://www.w3.org/2000/svg" width="110" height="109"><defs><filter id="a" x="21.344" y="16.344" width="69.063" height="58.25" filterUnits="userSpaceOnUse"><feFlood result="flood" flood-color="#0d0d0d"/><feComposite result="composite" operator="in" in2="SourceGraphic"/><feBlend result="blend" in2="SourceGraphic"/></filter></defs><path data-name="Прямоугольник 14" fill="#da0812" d="M72 21h16v69H72z"/><path data-name="Forma 1" d="M86.143 16.349h-60.53a4.26 4.26 0 0 0-4.254 4.256v41.09a4.26 4.26 0 0 0 4.254 4.255h20.473l-.828 6.627h-3.431a1.012 1.012 0 0 0 0 2.023h28.1a1.012 1.012 0 0 0 0-2.023H66.5l-.829-6.627h20.472a4.26 4.26 0 0 0 4.257-4.255v-41.09a4.26 4.26 0 0 0-4.257-4.256zM47.3 72.577l.828-6.627h3.722l.365 1.461a3.78 3.78 0 0 0 7.334 0l.365-1.461h3.722l.828 6.627H47.3zm6.635-6.627h3.895l-.242.97a1.757 1.757 0 0 1-3.41 0zm34.444-4.255a2.234 2.234 0 0 1-2.231 2.232H25.613a2.234 2.234 0 0 1-2.231-2.232v-41.09a2.234 2.234 0 0 1 2.231-2.232h60.53a2.234 2.234 0 0 1 2.231 2.232v41.09zm-9.8-41.02H26.694a1.011 1.011 0 0 0-1.011 1.012v38.926a1.011 1.011 0 0 0 1.011 1.011h2.162a1.012 1.012 0 0 0 0-2.023h-1.15V22.7h50.871a1.012 1.012 0 0 0 0-2.025zm6.486 0H82.9a1.012 1.012 0 0 0 0 2.023h1.151V59.6H33.18a1.012 1.012 0 0 0 0 2.023h51.883a1.011 1.011 0 0 0 1.011-1.011V21.686a1.011 1.011 0 0 0-1.011-1.011zm-15.417 11.2a1.009 1.009 0 0 0-.75-.387l-23.78-1.081h-.056a2.1 2.1 0 0 0-.841-1.132l-2.912-1.942a1.011 1.011 0 0 0-1.122 1.683l2.913 1.942a.069.069 0 0 1 .029.039l3.709 12.987a3.193 3.193 0 0 0 .551 1.083l-1.357 2.715a2.079 2.079 0 0 0 .092 2.036 2.1 2.1 0 0 0 .519.571 3.173 3.173 0 1 0 5.711.422h9.22a3.173 3.173 0 1 0 5.8-.263 1.01 1.01 0 0 0-.678-1.761H47.9a.07.07 0 0 1-.062-.1l1.25-2.5a3.184 3.184 0 0 0 .791.1 3.27 3.27 0 0 0 .378-.023l14.21-1.672a4.245 4.245 0 0 0 3.674-3.392l1.7-8.5a1.012 1.012 0 0 0-.195-.824zm-5.12 18.936a1.151 1.151 0 1 1-1.15 1.151 1.152 1.152 0 0 1 1.147-1.15zm-15.132 0a1.151 1.151 0 1 1-1.15 1.151 1.152 1.152 0 0 1 1.147-1.15zm-2.48-13.918l-1.267-4.437 4.043.184.7 4.254h-3.479zm3.107 7.361a1.145 1.145 0 0 1-1.241-.827l-1.288-4.511h3.232l.85 5.155zm5.928-.7l-2.364.278-.81-4.918h3.175v4.64zm0-6.663H52.44l-.685-4.159 4.194.19v3.969zm5.121 6.061l-3.1.365v-4.4h3.464zm.548-6.061h-3.649v-3.874l3.982.183zm4.54 3.91a2.225 2.225 0 0 1-1.927 1.779l-1.108.131.343-3.8h3.069zm.782-3.91h-3.29l.326-3.6 3.651.166z" fill-rule="evenodd" filter="url(#a)"/></svg>