<svg data-name="Группа 33" xmlns="http://www.w3.org/2000/svg" width="110" height="109"><defs><filter id="a" x="26.281" y="22" width="64.063" height="64.813" filterUnits="userSpaceOnUse"><feFlood result="flood" flood-color="#fff"/><feComposite result="composite" operator="in" in2="SourceGraphic"/><feBlend result="blend" in2="SourceGraphic"/></filter></defs><path data-name="Прямоугольник 14" fill="#da0812" d="M59 21h16v69H59z"/><path data-name="Forma 1" d="M89.811 57.6l-1.448-2.323a1.622 1.622 0 0 1 0-1.727l1.448-2.323A3.47 3.47 0 0 0 89 46.649l-2.156-1.688a1.622 1.622 0 0 1-.591-1.623l.564-2.677a3.472 3.472 0 0 0-2.326-4.022l-2.6-.851a1.624 1.624 0 0 1-1.111-1.322l-.386-2.709a3.481 3.481 0 0 0-3.563-2.986l-2.739.09a1.626 1.626 0 0 1-1.5-.863L71.3 25.585A3.481 3.481 0 0 0 66.93 24l-2.543 1.02a1.629 1.629 0 0 1-1.7-.3l-2.04-1.827a3.482 3.482 0 0 0-4.652 0l-2.04 1.827a1.627 1.627 0 0 1-1.7.3L49.709 24a3.481 3.481 0 0 0-4.371 1.588L44.047 28a1.627 1.627 0 0 1-1.5.863l-2.739-.09a3.477 3.477 0 0 0-3.563 2.986l-.387 2.709a1.624 1.624 0 0 1-1.111 1.322l-2.6.851a3.472 3.472 0 0 0-2.326 4.022l.565 2.677a1.623 1.623 0 0 1-.591 1.623l-2.156 1.688a3.47 3.47 0 0 0-.808 4.574l1.448 2.323a1.623 1.623 0 0 1 0 1.727l-1.45 2.325a3.47 3.47 0 0 0 .808 4.574l2.156 1.689a1.622 1.622 0 0 1 .591 1.622l-.565 2.677a3.472 3.472 0 0 0 2.326 4.022l2.6.851a1.624 1.624 0 0 1 1.111 1.322l.387 2.709a3.481 3.481 0 0 0 3.563 2.985l2.739-.09a1.627 1.627 0 0 1 1.5.863l1.291 2.413a3.481 3.481 0 0 0 4.371 1.588l2.542-1.02a1.627 1.627 0 0 1 1.7.3l2.04 1.826a3.481 3.481 0 0 0 4.652 0l2.04-1.827a1.628 1.628 0 0 1 1.7-.3l2.543 1.02a3.48 3.48 0 0 0 4.376-1.59l1.291-2.413a1.625 1.625 0 0 1 1.5-.863l2.739.09a3.478 3.478 0 0 0 3.563-2.985l.386-2.709a1.625 1.625 0 0 1 1.111-1.323l2.6-.85a3.472 3.472 0 0 0 2.326-4.023l-.564-2.677a1.623 1.623 0 0 1 .591-1.623L89 62.17a3.47 3.47 0 0 0 .811-4.57zm-1.948 3.123l-2.156 1.689a3.453 3.453 0 0 0-1.259 3.454l.564 2.677a1.631 1.631 0 0 1-1.093 1.89l-2.6.85a3.457 3.457 0 0 0-2.366 2.815l-.39 2.702a1.634 1.634 0 0 1-1.674 1.4l-2.739-.09a3.462 3.462 0 0 0-3.187 1.838l-1.291 2.414a1.635 1.635 0 0 1-2.053.746l-2.543-1.02a3.467 3.467 0 0 0-3.624.638l-2.04 1.827a1.635 1.635 0 0 1-2.185 0l-2.04-1.826a3.466 3.466 0 0 0-2.318-.892 3.5 3.5 0 0 0-1.306.254l-2.543 1.02a1.636 1.636 0 0 1-2.053-.746l-1.291-2.414a3.468 3.468 0 0 0-3.187-1.838l-2.739.089a1.633 1.633 0 0 1-1.674-1.4l-.387-2.709a3.457 3.457 0 0 0-2.366-2.815l-2.6-.85a1.632 1.632 0 0 1-1.093-1.89l.564-2.677a3.454 3.454 0 0 0-1.259-3.454l-2.156-1.688a1.63 1.63 0 0 1-.379-2.149l1.448-2.323a3.453 3.453 0 0 0 0-3.675L28.4 50.249a1.63 1.63 0 0 1 .379-2.148l2.156-1.689a3.454 3.454 0 0 0 1.259-3.454l-.564-2.677a1.631 1.631 0 0 1 1.093-1.89l2.6-.85a3.457 3.457 0 0 0 2.366-2.815l.387-2.709a1.634 1.634 0 0 1 1.674-1.4l2.739.09a3.467 3.467 0 0 0 3.187-1.837l1.291-2.414a1.635 1.635 0 0 1 2.053-.746l2.543 1.02a3.467 3.467 0 0 0 3.624-.638l2.04-1.827a1.636 1.636 0 0 1 2.185 0l2.04 1.826a3.466 3.466 0 0 0 3.624.639l2.543-1.02a1.635 1.635 0 0 1 2.053.746l1.291 2.414a3.465 3.465 0 0 0 3.187 1.837l2.739-.09a1.634 1.634 0 0 1 1.674 1.4l.387 2.709a3.457 3.457 0 0 0 2.366 2.815l2.6.85a1.632 1.632 0 0 1 1.093 1.89l-.564 2.677a3.453 3.453 0 0 0 1.259 3.453l2.158 1.689a1.63 1.63 0 0 1 .379 2.149l-1.447 2.323a3.452 3.452 0 0 0 0 3.675l1.447 2.323a1.629 1.629 0 0 1-.378 2.149zm-5.907-4a.923.923 0 0 0-1.039.79 22.812 22.812 0 0 1-45.192 0 .924.924 0 0 0-1.83.248 24.659 24.659 0 0 0 48.853 0 .922.922 0 0 0-.793-1.046zm.787-5.675a24.659 24.659 0 0 0-48.847.008.922.922 0 0 0 .79 1.038.858.858 0 0 0 .126.009.923.923 0 0 0 .914-.8 22.812 22.812 0 0 1 45.187-.008.924.924 0 0 0 1.83-.255zm-16.784 2.21c-2.822 0-4.947 1.208-4.947 4.5v5.416c0 3.293 2.126 4.5 4.947 4.5 2.785 0 4.947-1.208 4.947-4.5v-5.415c.001-3.293-2.161-4.501-4.947-4.501zm2.309 9.917a2 2 0 0 1-2.309 2.159 1.969 1.969 0 0 1-2.272-2.159v-5.416a1.969 1.969 0 0 1 2.272-2.159 2 2 0 0 1 2.309 2.159v5.416zM49.761 40.817c-2.822 0-4.948 1.208-4.948 4.5v5.416c0 3.293 2.126 4.5 4.948 4.5 2.785 0 4.947-1.208 4.947-4.5v-5.415c.001-3.294-2.162-4.501-4.947-4.501zm2.309 9.917a2 2 0 0 1-2.309 2.159 1.969 1.969 0 0 1-2.272-2.159v-5.416a1.969 1.969 0 0 1 2.272-2.159 2 2 0 0 1 2.309 2.159v5.416zM64.53 39.39a1.147 1.147 0 0 0-1.1.659l-13.45 26.9a1.033 1.033 0 0 0-.147.549 1.417 1.417 0 0 0 1.429 1.354 1.387 1.387 0 0 0 1.246-.7l13.45-26.786a1.517 1.517 0 0 0 .11-.586 1.494 1.494 0 0 0-1.538-1.39z" fill-rule="evenodd" filter="url(#a)"/></svg>