<svg xmlns="http://www.w3.org/2000/svg" width="512" height="512"><circle cx="58.182" cy="221.091" r="11.636" fill="#FFF"/><circle cx="453.818" cy="221.091" r="11.636" fill="#FFF"/><path d="M151.273 314.182c-6.982 0-11.636 4.655-11.636 11.636v93.091c0 6.982 4.655 11.636 11.636 11.636 6.982 0 11.636-4.655 11.636-11.636v-93.091c0-6.982-4.654-11.636-11.636-11.636zM221.091 314.182c-6.982 0-11.636 4.655-11.636 11.636v93.091c0 6.982 4.655 11.636 11.636 11.636 6.982 0 11.636-4.655 11.636-11.636v-93.091c0-6.982-4.654-11.636-11.636-11.636zM290.909 314.182c-6.982 0-11.636 4.655-11.636 11.636v93.091c0 6.982 4.655 11.636 11.636 11.636s11.636-4.655 11.636-11.636v-93.091c0-6.982-4.654-11.636-11.636-11.636zM360.727 314.182c-6.982 0-11.636 4.655-11.636 11.636v93.091c0 6.982 4.655 11.636 11.636 11.636s11.636-4.655 11.636-11.636v-93.091c.001-6.982-4.654-11.636-11.636-11.636z" fill="#FFF"/><path d="M477.091 162.909h-38.4l-27.927-91.927c-3.491-13.964-17.455-24.436-32.582-24.436h-29.091V34.909c0-6.982-4.655-11.636-11.636-11.636h-162.91c-6.982 0-11.636 4.655-11.636 11.636v11.636h-18.618c-15.127 0-27.927 8.145-32.582 22.109l-38.4 94.255h-38.4C15.127 162.909 0 178.036 0 197.818v46.545c0 19.782 15.127 34.909 34.909 34.909h1.164l19.782 178.036c2.327 18.618 17.455 31.418 34.909 31.418h330.473c17.455 0 32.582-12.8 34.909-31.418l19.782-178.036h1.164c19.782 0 34.909-15.127 34.909-34.909v-46.545c-.001-19.782-15.128-34.909-34.91-34.909zM186.182 46.545h139.636v23.273H186.182V46.545zm303.709 197.819h-1.164c0 6.982-4.655 11.636-11.636 11.636h-384c-6.982 0-11.636 4.655-11.636 11.636s4.655 11.636 11.636 11.636h359.564l-19.782 175.709c-1.164 5.818-5.818 10.473-11.636 10.473H90.764c-5.818 0-10.473-4.655-11.636-10.473L58.182 266.473C57.018 260.655 52.364 256 46.545 256H34.909c-6.982 0-11.636-4.655-11.636-11.636v-46.545c0-6.982 4.655-11.636 11.636-11.636H384c6.982 0 11.636-4.655 11.636-11.636s-4.655-11.636-11.636-11.636H98.909L132.655 76.8c2.327-4.655 5.818-6.982 11.636-6.982h18.618v11.636c0 6.982 4.655 11.636 11.636 11.636h162.909c6.982 0 11.636-4.655 11.636-11.636V69.818h29.091c4.655 0 9.309 3.491 11.636 8.145l30.255 100.073c1.164 4.655 5.818 8.145 11.636 8.145h46.545c6.982 0 11.636 4.655 11.636 11.636v46.547z" fill="#FFF"/></svg>