<svg id="Livello_1" xmlns="http://www.w3.org/2000/svg" viewBox="0 0 90 90"><style>.st0{fill:#000;stroke:#000;stroke-miterlimit:10}</style><path class="st0" d="M80.5 37.4c-.9-3.3-6.4-5.5-11.2-6.6.7-2.7-.3-4.5-1.1-5.4l.9-1.5c2.2-.4 3.5-2.4 3.6-2.6v-.1c.3-.5.3-1.1.1-1.8 0-.1-.1-.3-.1-.4 0-.1-.1-.2-.1-.3-.1-.3.1-1 1.2-1.7 1.5-1 4.9-4.1 5.8-5.7.8-1.4 1.2-2.6 1.2-3.8 0-1.5-.6-3.4-3.4-5.1-2.8-1.7-4.9-1.2-6.2-.5-1.1.6-2 1.6-2.7 2.9-.9 1.6-2 6.1-2.1 7.7-.1 1.3-.6 1.8-.9 1.9-.1 0-.2.1-.3.1-.6.2-1.4.3-1.9 1.2-.2.3-1.4 2.4-.4 4.7l-1.2 2c-.1.1-.1.2-.1.4-2 1-3.6 3.1-4.9 5.8-4.2-.4-8.4-.7-13-.7C26.9 28 9 31.3 7.2 37.4c-3 5.3-4.8 12.9-4.8 20.8 0 8 1.8 15.7 4.9 21.1 1.2 3.1 6.5 5.2 10.9 6.4h.4l15.2-4.1c.5 3.6 1 6 1 6.1.1.4.5.7.9.7 2.7.2 5.5.3 8.2.3 16.4 0 34.2-3.1 36.6-9.1 3.1-5.5 4.9-13.2 4.9-21.2-.1-8-1.8-15.6-4.9-21zM69.7 21.5c-.1-.3-.3-.5-.5-.8-.4-.5-1-1-1.7-1.4-1.1-.6-2.3-1.1-3.1-.8 0-.9.3-1.6.5-1.9l.2-.2c.2-.2 1.7-.2 3.6.9 1.5.9 2.2 1.9 2.5 2.3.1.2.1.4 0 .4-.1.1-.6 1-1.5 1.5zm.4-15.6c.2-.4.9-1.6 2.1-2.2 1.2-.7 2.6-.5 4.3.4C78.2 5 79 6.2 79 7.5c0 1.3-.7 2.4-.9 2.8-.7 1.2-3.8 4.2-5.2 5.1-.8.5-1.3 1.1-1.7 1.7-.5-.5-1.1-.9-1.7-1.2-.7-.4-1.3-.7-2-.9.3-.6.6-1.3.7-2.2.2-1.6 1.2-5.9 1.9-6.9zM63 24.1c2.2-.7 3.8 1.7 4.4 3.4.2.7.3 1.4.2 2.1-.2 1.5-1.1 2.7-1.9 4C65 34.8 64 36 63 37.1c-.5.6-1 1.1-1.6 1.6l-.8.8-.4.4c-.1.1-.3.4-.4.4h-4.4s.3-2.1.3-2.2c.4-2.3 1-4.7 1.9-6.9.6-1.6 1.5-3.1 2.5-4.5.9-1.2 1.8-2.3 2.9-2.6zm-19.2 5.6c4.2 0 8.2.2 12.2.6-1.3 3.3-2.2 7.1-2.5 10.8 0 .3.1.5.2.7.2.2.4.3.7.3h5.8c.2 0 .4-.1.6-.2 2.9-2.4 5.5-5.4 7.3-8.6.2-.3.3-.6.4-.8 6.5 1.7 9.3 3.7 10 5.3 0 .1.1.3.1.4v.3c0 4.1-14.4 8.6-34.9 8.6-2.2 0-4.3-.1-6.4-.2.2-.2.4-.5.7-.7 2.1-2.2 4.2-4.4 6.2-6.7.2-.3.4-.6.5-.9.2-.8-.5-1.2-1.3-1-.3.1-.7.2-1 .3-.5.1-1.1.3-1.6.4l-2.1.6c-.8.2-1.6.4-2.4.7-.9.2-1.8.5-2.6.7-.9.2-1.9.5-2.7.7-.9.2-1.9.5-2.7.7-.9.2-1.8.5-2.6.7-.8.2-1.6.4-2.3.6-.7.2-1.4.4-2 .5-.5.1-1 .3-1.6.4l-.9.3-.2.1c-6.1-1.9-9.7-4-9.7-6.1v-.3c.1-.1.1-.3.1-.4 1.7-3.9 15.5-7.8 34.7-7.8zM9 78.9c0-.1-.1-.2-.1-.2-3-5.3-4.7-12.6-4.7-20.4 0-6.5 1.3-12.9 3.4-17.9 1.6 2.4 5.7 4.1 9.5 5.3-1 2.3-3.1 8.7-3.1 18.7 0 9.5 1.9 16.2 2.9 19.2-4.3-1.4-7.2-3.1-7.9-4.7zm10 4.9c-.9-2.2-3.1-9.3-3.1-19.5 0-10.4 2.5-16.9 3.2-18.5L41 40l-6.2 6.7c-.1.1-.2.3-.2.4 0 .1-2 8.8-2 19.8 0 4.8.4 9.2.8 12.7L19 83.8zm59.8-5.1s2.3-2.6 0 0c-.9 2.1-5 4.2-11 5.7-6.5 1.7-15 2.5-23.9 2.5-2.5 0-5.1-.1-7.4-.2-.4-2.3-1.8-10.4-1.8-19.4 0-8.8 1.3-16.1 1.7-18.7 2.4.1 5 .2 7.4.2 15.9 0 32.7-2.9 36.2-8.3 2.2 5 3.4 11.3 3.4 17.9 0 7.7-1.6 15-4.6 20.3z"/></svg>