<svg xmlns="http://www.w3.org/2000/svg" id="svg7280" width="662.814" height="442.263" viewBox="0 0 662.814 442.263"><defs id="defs7284"><clipPath id="clipPath7296"><path d="M 0,841.89 H 595.276 V 0 H 0 Z" id="path7294"/></clipPath><clipPath id="clipPath7310"><path d="M 0,841.89 H 595.276 V 0 H 0 Z" id="path7308"/></clipPath><clipPath id="clipPath7346"><path d="M 0,841.89 H 595.276 V 0 H 0 Z" id="path7344"/></clipPath></defs><g id="g7288" transform="matrix(1.33333 0 0 -1.33333 -65.444 953.778)"><g id="g7304" transform="translate(0 74.914)"><g id="g7306" clip-path="url(#clipPath7310)"><g id="g7312" transform="translate(545.38 438.115)"><path d="m 0,0 c 0,-24.461 0.367,-48.931 -0.16,-73.38 -0.252,-11.674 -2.388,-23.174 -10.144,-32.858 -5.072,-6.334 -11.271,-11.172 -18.63,-14.068 -16.111,-8.587 -125.619,-8.54 -218.69,-8.566 -93.07,-0.025 -200.37,-0.718 -218.663,8.506 -20.186,7.974 -28.677,24.837 -28.92,45.262 -0.601,50.444 -1.025,100.92 0.177,151.342 0.545,22.815 7.27,36.633 32.461,46.559 62,24.428 124.206,48.338 186.067,73.108 19.53,7.82 37.869,7.902 57.419,0.074 61.862,-24.77 124.047,-48.732 186.073,-73.093 C -8.077,113.093 -1.285,98.801 -0.243,74.901 0.844,49.978 0,24.971 0,0" id="path7314" fill="#1d1d1b"/></g><g id="g7316" transform="translate(545.38 438.115)"><path d="m 0,0 c 0,-24.461 0.367,-48.931 -0.16,-73.38 -0.252,-11.674 -2.388,-23.174 -10.144,-32.858 -5.072,-6.334 -11.271,-11.172 -18.63,-14.068 -16.111,-8.587 -125.619,-8.54 -218.69,-8.566 -93.07,-0.025 -200.37,-0.718 -218.663,8.506 -20.186,7.974 -28.677,24.837 -28.92,45.262 -0.601,50.444 -1.025,100.92 0.177,151.342 0.545,22.815 7.27,36.633 32.461,46.559 62,24.428 124.206,48.338 186.067,73.108 19.53,7.82 37.869,7.902 57.419,0.074 61.862,-24.77 124.047,-48.732 186.073,-73.093 C -8.077,113.093 -1.285,98.801 -0.243,74.901 0.844,49.978 0,24.971 0,0 Z" id="path7318" fill="none" stroke="#04171c" stroke-miterlimit="10"/></g><g id="g7320" transform="translate(536.666 440.076)"><path d="m 0,0 c 0,-23.145 0.355,-46.298 -0.154,-69.432 -0.243,-11.046 -2.304,-21.928 -9.787,-31.091 -4.894,-5.993 -10.875,-10.571 -17.975,-13.31 -15.544,-8.125 -121.2,-8.081 -210.997,-8.106 -89.797,-0.024 -193.322,-0.679 -210.971,8.049 -19.476,7.545 -27.669,23.5 -27.903,42.827 -0.58,47.73 -0.99,95.49 0.171,143.2 0.525,21.587 7.014,34.662 31.319,44.053 59.819,23.115 119.836,45.738 179.522,69.176 18.843,7.399 36.536,7.477 55.399,0.07 59.685,-23.438 119.683,-46.111 179.527,-69.162 C -7.792,107.009 -1.24,93.485 -0.234,70.872 0.815,47.29 0,23.627 0,0 Z" id="path7322" fill="none" stroke="#fff" stroke-miterlimit="10"/></g><g id="g7324" transform="translate(429.622 516.922)"><path d="M 0,0 C 0.036,-0.298 -0.188,-1.005 0.181,-1.094 0.715,-1.222 0.893,-0.51 1.123,-0.1 1.693,0.916 2.397,1.926 1.845,3.189 1.728,3.457 1.512,3.417 1.304,3.259 0.267,2.468 -0.025,1.365 0,0 m -124.121,-59.818 c -0.059,-1.436 0.111,-1.54 1.329,-1.293 1.361,0.276 2.578,0.837 3.615,1.736 3.044,2.639 5.309,5.948 6.826,9.574 2.448,5.853 4.583,11.852 6.554,17.886 2.779,8.508 3.687,17.388 4.7,26.232 0.047,0.41 0.097,0.77 -0.282,1.066 -1.157,0.899 -2.196,1.96 -3.522,2.627 -0.831,0.418 -1.421,0.324 -1.821,-0.69 -0.93,-2.357 -1.903,-4.702 -2.976,-6.998 -2.693,-5.765 -5.502,-11.468 -7.369,-17.591 -2.348,-7.698 -4.867,-15.341 -6.708,-23.189 -0.432,-1.84 -1.549,-3.517 -0.054,-5.413 0.441,-0.558 0.144,-1.537 0,-2.319 -0.111,-0.61 -0.219,-1.22 -0.292,-1.628 m -18.187,64.983 c 1.761,1.493 2.708,3.566 3.852,5.486 4.868,8.179 10.698,15.799 14.366,24.678 0.107,0.259 0.287,0.488 0.392,0.748 0.41,1.013 0.215,2.066 -0.666,2.544 -0.914,0.496 -1.62,-0.371 -2.155,-1.082 -0.472,-0.628 -0.845,-1.329 -1.298,-1.972 -3.295,-4.67 -6.301,-9.506 -8.191,-14.936 -1.226,-3.522 -2.748,-6.899 -4.394,-10.24 -0.807,-1.638 -1.754,-3.271 -1.99,-5.151 -0.223,-0.046 -0.273,-0.264 -0.142,-0.339 0.184,-0.105 0.226,0.104 0.226,0.264 m 61.715,1.581 c -0.188,-7.753 -0.648,-15.56 -2.036,-23.299 -0.423,-2.358 -0.62,-4.855 -0.534,-7.161 0.112,-3.01 -1.365,-5.515 -1.547,-8.383 -0.158,-2.472 -0.572,-5.059 -1.213,-7.402 -1.109,-4.058 -0.935,-8.401 -2.821,-12.255 -0.148,-0.302 -0.373,-0.668 -0.314,-0.952 0.724,-3.482 -1.273,-6.427 -1.866,-9.645 -0.128,-0.693 -0.624,-1.634 -0.071,-1.986 0.429,-0.273 1.056,0.662 1.482,1.156 5.246,6.094 9.666,12.78 13.962,19.554 0.906,1.429 1.796,2.872 2.779,4.248 1.254,1.754 2.246,3.612 3.024,5.638 4.325,11.261 11.241,20.85 19.795,29.193 3.048,2.973 6.725,5.595 11.265,6.155 2.591,0.32 8.79,-1.587 9.702,-4.837 0.336,-1.197 0.775,-2.096 -1.166,-2.155 -2.964,-0.091 -5.313,-1.564 -7.327,-3.712 -1.151,-1.228 -2.785,-1.992 -3.763,-3.393 -3.464,-4.967 -7.152,-9.763 -10.426,-14.886 -2.281,-3.569 -4.235,-7.251 -6.172,-10.978 -0.624,-1.199 -1.183,-2.419 -1.467,-3.764 -0.124,-0.588 -0.363,-1.256 -0.774,-1.66 -2.284,-2.251 -2.443,-5.181 -2.607,-8.068 -0.114,-2.02 1.649,-3.133 3.539,-2.346 1.901,0.791 3.537,1.983 4.912,3.528 2.075,2.329 3.75,4.946 5.45,7.545 1.729,2.646 3.393,5.333 5.357,7.822 0.482,0.611 0.837,1.341 1.16,2.057 2.003,4.438 3.622,9.03 5.929,13.358 1.459,2.739 1.517,6.089 2.654,9.045 0.477,1.241 0.565,2.584 2.209,3.081 1.806,0.546 3.556,0.743 5.271,-0.057 0.713,-0.332 1.378,-0.692 2.163,-0.875 1.02,-0.238 1.691,-1.039 1.782,-2.034 0.314,-3.43 0.106,-6.812 -1.2,-10.07 -1.007,-2.509 -2.012,-5.024 -2.866,-7.588 -2.566,-7.704 -4.213,-15.638 -5.736,-23.599 -0.063,-0.329 -0.365,-0.862 0.162,-0.991 0.388,-0.095 0.62,0.419 0.838,0.73 5.286,7.526 11.181,14.627 15.689,22.693 3.164,5.663 6.376,11.299 9.583,16.939 0.412,0.724 0.53,1.354 0.241,2.216 -1.868,5.58 -0.464,10.647 2.704,15.338 1.299,1.924 3.192,2.981 5.59,2.962 C 3.421,7.902 4.099,7.907 4.777,7.907 6.491,7.906 8.476,6.626 9.098,5.096 9.178,4.898 9.236,4.615 9.156,4.44 8.106,2.145 8.142,-0.533 6.545,-2.65 5.151,-4.498 4.101,-6.571 2.945,-8.575 2.506,-9.335 2.649,-9.532 3.332,-9.694 c 3.861,-0.912 6.973,-3.347 10.358,-5.196 1.968,-1.075 2.685,-3.873 1.472,-6.565 -1.105,-2.454 -1.503,-5.059 -2.408,-7.539 -1.127,-3.089 -2.541,-6.028 -4.212,-8.834 -3.486,-5.853 -6.005,-12.091 -7.817,-18.64 -0.224,-0.809 -0.353,-1.591 0.269,-2.207 0.675,-0.669 1.516,-0.601 2.368,-0.253 2.055,0.841 3.613,2.339 4.972,3.99 4.24,5.147 7.989,10.656 11.609,16.25 0.675,1.043 1.295,2.121 2.214,2.981 0.573,0.536 1.24,0.979 1.954,0.447 0.742,-0.553 0.906,-1.302 0.411,-2.232 -2.441,-4.587 -5.181,-8.977 -8.352,-13.099 -1.755,-2.282 -3.497,-4.576 -5.185,-6.908 -2.246,-3.106 -4.955,-5.753 -8.155,-7.811 -4.685,-3.012 -9.586,-2.882 -14.404,-0.294 -0.705,0.379 -1.209,1.45 -1.447,2.301 -0.291,1.042 -0.859,1.831 -1.541,2.571 -1.008,1.096 -0.886,2.276 -0.622,3.624 2.142,10.951 8.372,20.109 13.045,29.949 1.282,2.699 2.618,5.371 3.886,8.075 1.023,2.181 0.974,2.261 -1.041,3.361 -2.858,1.559 -2.867,1.564 -4.472,-1.213 -3.134,-5.421 -6.098,-10.949 -9.428,-16.248 -3.535,-5.627 -6.89,-11.369 -10.936,-16.689 -1.809,-2.379 -3.042,-5.224 -4.9,-7.655 -1.131,-1.48 -2.527,-2.705 -3.592,-4.248 -1.105,-1.6 -2.555,-2.908 -3.439,-4.741 -0.756,-1.567 -2.346,-2.564 -4.004,-3.251 -1.689,-0.699 -2.661,-0.36 -3.668,1.194 -0.657,1.014 -1.53,1.851 -2.616,2.35 -1.173,0.54 -1.533,1.455 -1.451,2.595 0.06,0.835 0.182,1.7 0.471,2.48 1.24,3.347 1.902,6.832 2.573,10.316 0.071,0.365 0.29,0.904 -0.089,1.074 -0.427,0.192 -0.611,-0.382 -0.847,-0.671 -3.254,-3.982 -6.982,-7.446 -11.375,-10.132 -1.906,-1.166 -4.071,-1.729 -6.316,-1.571 -3.84,0.271 -6.325,2.433 -7.738,5.917 -0.963,2.376 -1.329,4.884 -1.555,7.42 -0.03,0.329 -0.08,0.905 -0.209,0.932 -0.484,0.098 -0.574,-0.433 -0.772,-0.741 -3.856,-5.974 -7.546,-12.057 -11.806,-17.767 -2.37,-3.176 -5.079,-6.061 -7.709,-9.001 -2.034,-2.272 -4.981,-3.336 -7.87,-4.044 -1.536,-0.376 -2.767,1.216 -3.812,2.195 -2.422,2.266 -4.152,9.81 -2.388,12.806 0.532,0.903 0.742,1.892 0.676,2.925 -0.034,0.52 0.261,1.306 -0.448,1.461 -0.6,0.131 -1.013,-0.432 -1.443,-0.935 -3.674,-4.294 -8.116,-7.116 -14.009,-6.999 -0.565,0.011 -1.112,0.01 -1.637,0.314 -1.563,0.909 -2.859,0.698 -3.892,-0.801 -0.584,-0.846 -1.177,-1.381 -2.206,-1.067 -1.005,0.307 -1.974,0.599 -2.358,1.853 -0.498,1.627 -1.142,3.191 -0.653,4.939 0.19,0.68 -0.256,1.133 -0.601,1.665 -2.443,3.775 -4.916,7.552 -4.201,12.404 0.035,0.235 0.218,0.627 -0.169,0.693 -0.141,0.024 -0.38,-0.343 -0.526,-0.563 -0.747,-1.129 -1.528,-2.239 -2.207,-3.408 -2.421,-4.174 -5.166,-8.099 -8.777,-11.34 -4.774,-4.287 -8.29,-3.544 -10.861,2.318 -1.629,3.713 -3.383,7.443 -3.305,11.613 0.069,3.658 0.414,7.312 0.632,10.968 0.067,1.128 0.135,2.255 0.165,3.384 0.009,0.302 0.175,0.772 -0.252,0.867 -0.377,0.084 -0.524,-0.369 -0.684,-0.64 -2.116,-3.599 -4.833,-6.797 -6.871,-10.458 -2.805,-5.04 -6.213,-9.684 -9.682,-14.289 -1.516,-2.013 -3.556,-2.68 -5.814,-3.003 -1.681,-0.241 -5.036,2.342 -5.837,4.246 -1.394,3.312 -1.066,6.743 -0.822,10.18 0.39,5.516 0.861,11.021 1.827,16.473 0.039,0.219 0.211,0.594 -0.174,0.677 -0.133,0.028 -0.346,-0.228 -0.496,-0.379 -0.789,-0.795 -0.858,-1.949 -1.409,-2.86 -1.732,-2.865 -3.911,-5.391 -6.092,-7.909 -0.501,-0.58 -1.204,-1.262 -2.037,-0.653 -0.785,0.574 -0.752,1.461 -0.319,2.301 0.491,0.949 0.933,1.932 1.505,2.831 4.558,7.16 7.926,14.926 11.482,22.593 0.437,0.94 0.283,2.143 0.665,3.123 1.477,3.794 2.632,7.816 6.701,9.895 1.666,0.851 4.819,0.581 6.295,-0.596 2.21,-1.762 3.066,-3.834 2.26,-6.681 -0.66,-2.332 -1.136,-4.752 -2.23,-6.897 -2.523,-4.945 -3.52,-10.225 -4.358,-15.653 -0.968,-6.274 -1.611,-12.629 -3.436,-18.758 -0.389,-1.309 -0.301,-2.649 0.016,-4.007 0.265,-1.132 0.586,-0.787 1.066,-0.21 0.144,0.174 0.295,0.344 0.421,0.531 6.324,9.415 12.585,18.866 18.281,28.686 2.422,4.177 3.043,8.823 4.059,13.351 2.208,9.843 4.631,19.621 8.016,29.127 3.305,9.285 8.057,17.74 14.968,24.879 0.259,0.267 0.539,0.453 0.867,0.457 1.911,0.025 3.377,1.119 4.945,1.988 3.315,1.839 6.796,1.893 10.317,0.769 1.31,-0.419 2.081,-1.223 1.893,-2.904 -0.334,-2.996 -1.504,-5.712 -2.271,-8.547 -0.874,-3.234 -2.27,-6.212 -3.638,-9.13 -1.969,-4.2 -3.881,-8.5 -6.636,-12.308 -0.66,-0.913 -1.31,-1.839 -1.881,-2.808 -5.16,-8.747 -10.283,-17.514 -15.458,-26.252 -1.643,-2.775 -1.913,-5.886 -2.198,-8.948 -0.183,-1.965 -0.191,-3.949 -0.749,-5.849 -1.132,-3.852 -0.725,-7.733 -0.222,-11.589 0.35,-2.684 -0.052,-5.441 0.837,-8.063 0.125,-0.37 0.175,-0.78 0.364,-1.113 0.894,-1.567 1.716,-1.646 2.718,-0.148 4.424,6.614 8.908,13.195 12.894,20.086 0.931,1.612 1.732,3.327 2.426,5.098 1.281,3.267 3.245,6.215 5.108,9.177 1.197,1.902 2.361,3.816 3.531,5.732 2.636,4.32 6.345,7.719 10.013,11.171 3.134,2.95 6.641,4.354 10.875,4.045 0.729,-0.053 0.917,0.417 1.248,0.878 0.438,0.608 0.974,1.161 1.79,0.408 0.172,-0.159 0.197,-0.829 0.575,-0.391 0.228,0.263 0.65,1.007 0.252,1.196 -1.278,0.606 -0.575,1.539 -0.492,2.309 0.757,7.008 1.384,14.036 2.401,21.007 0.744,5.103 1.287,10.169 0.98,15.329 -0.122,2.059 1.882,3.936 4.366,4.475 2.523,0.546 4.564,-0.322 5.571,-2.418 1.511,-3.145 1.871,-6.611 2.531,-9.96 1.863,-9.445 2.277,-19.036 2.463,-28.726" id="path7326" fill="#fff"/></g><g id="g7328" transform="translate(202.906 444.087)"><path d="M 0,0 C 0.487,9.69 1.7,19.76 3.516,29.765 5.529,40.854 7.462,51.957 9.41,63.057 9.503,63.586 9.758,64.36 9.255,64.64 8.562,65.025 8.22,64.174 7.807,63.781 6.944,62.962 6.214,62.016 5.663,60.959 0.552,51.16 -5.08,41.636 -9.813,31.64 c -1.712,-3.615 -3.265,-7.306 -4.865,-10.973 -0.267,-0.613 -0.52,-1.274 -0.576,-1.93 -0.328,-3.894 -2.4,-6.87 -5.001,-9.545 -1.663,-1.711 -3.92,-2.559 -6.051,-3.414 -0.895,-0.36 -1.903,0.904 -2.123,2.006 -0.351,1.765 -0.736,3.572 -0.71,5.356 0.075,5.093 -1.047,10.123 -0.782,15.205 0.384,7.378 0.241,14.764 0.618,22.147 0.371,7.269 0.084,14.571 0.117,21.859 0.02,4.222 0.383,8.451 -0.247,12.659 -0.076,0.51 0.225,1.369 -0.385,1.453 -0.674,0.093 -0.844,-0.784 -1.073,-1.337 -1.652,-4.004 -3.631,-7.868 -4.937,-12.022 -1.823,-5.798 -4.596,-11.286 -6.019,-17.204 -1.868,-7.768 -4.189,-15.444 -5.215,-23.4 -0.605,-4.697 -0.662,-9.488 -1.87,-14.076 -1.454,-5.515 -2.428,-11.097 -3.368,-16.711 -0.445,-2.663 -2.747,-4.306 -5.162,-5.474 -1.261,-0.61 -2.811,-1.615 -3.95,-0.701 -1.116,0.895 -0.492,2.657 -0.275,4.023 1.649,10.352 3.294,20.705 5.031,31.043 1.305,7.766 4.456,14.98 6.789,22.441 1.632,5.221 4.721,9.68 6.6,14.75 3.39,9.148 7.369,18.045 12.161,26.571 1.267,2.254 2.473,4.574 3.37,7.031 0.817,2.239 2.528,3.712 4.538,4.84 1.323,0.743 2.346,-0.257 3.434,-0.77 0.975,-0.459 0.628,-1.278 0.586,-2.058 -0.203,-3.777 0.207,-7.524 0.585,-11.274 0.26,-2.568 0.833,-5.107 0.289,-7.74 -0.203,-0.981 0.233,-2.094 0.387,-3.146 0.083,-0.559 0.275,-1.116 0.264,-1.671 -0.189,-9.369 3.131,-18.465 2.051,-27.928 -0.499,-4.381 0.595,-8.776 0.608,-13.183 10e-4,-0.332 0.003,-0.794 0.377,-0.861 0.519,-0.092 0.793,0.382 0.964,0.783 0.868,2.032 2.143,3.844 3.128,5.805 2.454,4.887 5.262,9.579 7.709,14.473 4.108,8.22 8.397,16.35 13.625,23.941 1.116,1.62 2.017,3.276 4.188,3.856 3.64,0.971 6.239,-0.119 7.641,-3.624 1.372,-3.43 1.426,-7.043 1.307,-10.672 C 23.779,67.119 23.537,62.073 22.981,57.052 22.609,53.693 21.98,50.362 21.623,47.002 21.249,43.475 21.291,39.895 20.915,36.387 20.25,30.172 20.036,23.904 18.792,17.745 17.766,12.666 16.977,7.538 16.11,2.427 15.853,0.912 16.222,-0.477 17.163,-1.711 18.477,-3.435 17.986,-4.904 15.885,-5.652 10.702,-7.496 5.752,-6.7 0.898,-4.424 0.204,-4.099 -0.019,-3.695 -0.004,-3.009 0.014,-2.162 0,-1.314 0,0" id="path7330" fill="#fff"/></g><g id="g7332" transform="translate(263.458 526.411)"><path d="m 0,0 c 0.008,-1.767 -1.629,-4.207 -3.247,-4.807 -0.256,-0.094 -0.595,-0.219 -0.811,-0.128 -2.33,0.98 -5.069,1.244 -6.577,3.69 -0.087,0.142 -0.222,0.256 -0.334,0.382 -1.946,2.191 -1.946,2.191 -0.01,4.416 1.818,2.088 5.45,3.011 8.079,2.051 C -0.674,4.792 -0.016,3.521 0,0" id="path7334" fill="#fff"/></g></g></g></g></svg>