<?xml version="1.0" encoding="utf-8"?>
<!-- Generator: Adobe Illustrator 19.1.0, SVG Export Plug-In . SVG Version: 6.00 Build 0)  -->
<svg version="1.1" id="Слой_1" xmlns="http://www.w3.org/2000/svg" xmlns:xlink="http://www.w3.org/1999/xlink" x="0px" y="0px"
	 viewBox="0 0 58 80" style="enable-background:new 0 0 58 80;" xml:space="preserve">
<g>
	<g>
		<defs>
			<path id="SVGID_1_" d="M4.2,44h7.1v10.1H4.2v6.6h7.1v14.1h8V60.7h16.1v-6.6H19.3V44h10.1c3.3,0,6.3-0.4,9.1-1.2
				c2.8-0.8,5.2-2,7.3-3.6c2.1-1.6,3.7-3.7,4.9-6.2c1.2-2.5,1.8-5.4,1.8-8.7c0-3.3-0.6-6.2-1.7-8.6c-1.1-2.4-2.7-4.4-4.7-6
				c-2-1.6-4.4-2.7-7.2-3.5c-2.8-0.8-5.9-1.2-9.3-1.2H11.3V37H4.2V44L4.2,44z M19.3,37V12.1h10.3c4.6,0,8.2,1,10.8,2.9
				c2.6,1.9,4,5,4,9.3c0,4.3-1.3,7.5-4,9.5C37.8,36,34.2,37,29.6,37H19.3L19.3,37z"/>
		</defs>
		<use xlink:href="#SVGID_1_"  style="overflow:visible;fill:#000000;"/>
		<clipPath id="SVGID_2_">
			<use xlink:href="#SVGID_1_"  style="overflow:visible;"/>
		</clipPath>
	</g>
</g>
</svg>
