<svg id="Objects" xmlns="http://www.w3.org/2000/svg" viewBox="0 0 824.95 310.63"><defs><style>.cls-1{fill:#00ba96;}.cls-2{fill:none;}.cls-3,.cls-4{fill:#00e5a3;}.cls-4{fill-rule:evenodd;}.cls-5{fill:#01cc95;}.cls-6{fill:#00cd97;}.cls-7{fill:#00897c;}.cls-8{fill:#00a58d;}</style></defs><title>сова</title><path class="cls-1" d="M131.3,149.68a36.27,36.27,0,0,1-1.08-5.69c-0.35-3.56-2.12-7.66-.9-10.49s1-4.81.74-7.34c-0.62-6.28-2.62-12.24-4.11-18.31-2.11-8.61-7.3-15.15-14.38-20.26l-0.65.24-0.67-1.17c-0.87-.59-1.75-1.18-2.58-1.8l-1.18.22-0.22-1.34-0.41-.37c-1.65,1-3.18,1.93-4.79,2.73-2,1-3.8.26-5.59-.72L97,83.09c-2.65-1.19-6.27.74-7.65-2.83-0.62-1.61-1-3.31-1.48-5l0.79-.21a10.44,10.44,0,0,0,.27,1.42,24.25,24.25,0,0,0,1.31,3.63,5.16,5.16,0,0,0,1.62,1.27c0.39-.58.81-1.13,1.16-1.74a6,6,0,0,0,.38-1.15c1.77,3.09,2.45,3.52,4.88,3.07l-0.67-2.14,1.48-1c1.19,1.26,2.28,2.55,3.51,3.68,0.88,0.8,1.59.82,2-.15a8.16,8.16,0,0,1-1.45-7.27,5.41,5.41,0,0,0-.84-3.14l-0.13-.27c-0.14,0-.29,0-0.43,0a18.4,18.4,0,0,0-3.22,1.27L98.22,72l2.42-1.25-0.33-1.22,0.75-.39q-0.77-1.56-1.51-3.13l-1.12-.23A6.4,6.4,0,0,1,98.64,64c-1.43-3.11-2.75-6.26-3.9-9.48-0.06.13-.12,0.26-0.18,0.39-1.35,3.15-3.92,4.88-7,6.74-0.12-1.1-.17-1.73-0.25-2.36-0.24-1.87-.4-3.76-0.74-5.62-0.46-2.54.42-3.93,3.08-4.31a3.34,3.34,0,0,0,.13,1.45,1.87,1.87,0,0,0,1.19.63,3.7,3.7,0,0,1,2.33-1.29c-0.4-1.33-.77-2.68-1.1-4a14.94,14.94,0,0,0-1.73-.62A5.15,5.15,0,0,1,92,45.24c-0.22-1-.44-1.95-0.63-2.94s-0.41-2.08-.6-3.09l-4,6.28C85.4,41,88.23,38.42,90.36,35.41a10.25,10.25,0,0,1,.45-3c-2,.16-3.06,1.87-4.12,3.5-1.62-2.93.4-6.78-3.6-8.75v10c0,0.08.09,0.15-.07,0.23C81.56,36,80.3,34.59,78.62,33c-0.76,2.56.85,3.92,2,5.18a9.88,9.88,0,0,1,2.58,8,1.55,1.55,0,0,1-.77,1.15c-0.52-1.55-1-3.09-1.53-4.64a6.33,6.33,0,0,0-.24-1.15c-0.43-.75-1-1.43-1.45-2.14l-1.73,2.36a24,24,0,0,0-2.36-1.42A7.1,7.1,0,0,0,73.3,40a4.48,4.48,0,0,0,.07,2c1,1.62,2.15,3.12,3.21,4.59C76,47.71,73.72,47.79,75,49.33c0.5,0.6,2.05.33,3.13,0.45l0.36-.55c0.07,1,.13,2.06.22,3.42l-4.27-1.94c-0.6,2.66,1.68,3.41,2.65,5a2.86,2.86,0,0,0-1.38.41c-1.29,2-2.54.79-3.83,0.05l-0.69-.4a7.3,7.3,0,0,0,2.42-1.57c-2.47-2.62-5.7-3.83-9-4.53l0.32-2.4a15.57,15.57,0,0,0-3.25,0,18.4,18.4,0,0,0-3.22,1.27l-0.27-.65,2.42-1.25-0.33-1.22L64,43.52l-0.06-.69-5.54-1.14c0.12-2.55.33-2.63,3.15-1.42,1.37-.92,2.62-1.75,3.86-2.6a6.28,6.28,0,0,0,.79-0.59,81.21,81.21,0,0,1-17-.48c-0.54.35-1.09,0.69-1.67,1-0.06-.55-0.1-1-0.14-1.36C46.66,36.15,46,36,45.29,35.86c-3-.73-6.15-1.84-8.4-4.14a2.19,2.19,0,0,0-1.23.38c-1.29,2-2.54.79-3.83,0.05l-6.1-3.48c-0.87,2.9,1,3.68,2.63,4.91a18.89,18.89,0,0,0-2.19.81c-0.8.41-1.05,1.58-.2,1.56,2.82-.08,3.14,2.63,5.09,4a24.18,24.18,0,0,0-3.29.87A5.17,5.17,0,0,0,26.39,42l0.18,0.24c0.66,0.48,1.36,1.21,1.91,1.11,1.63-.3,3-0.56,4.38.79,0.26,0.26,1.28-.17,1.93-0.36a4.94,4.94,0,0,1,2.26-.36L35,45.69l0.18,0.67,3.42-.42a7.16,7.16,0,0,0,.68,2c1.53-.12,3.22-0.19,3.81-2.64,0.47,1,.75,1.53,1,2.09,0.57,1.27.22,1.95-1.23,2.13-4.17.53-8.26,0.89-12-1.88a3.73,3.73,0,0,0-1.74-.82A5.75,5.75,0,0,1,28.67,48c-0.08.15-.14,0.3-0.21,0.45l1.37,1.18-0.24.5L28,49.37a62.28,62.28,0,0,0-3,7.87,0.69,0.69,0,0,0,.44,0c2.2-1,4.34-2.06,6.74-2.94a26.61,26.61,0,0,0-2.5,2,12.16,12.16,0,0,0-1.33,2c0.84-.05,1.69-0.08,2.53-0.18a2.87,2.87,0,0,0,.81-0.43L32,59.59a2,2,0,0,0,.82-0.32c1.49-2.29,4-2.21,6.23-2.6,2-.35,3.46-1.26,5.17-3.77l0.47,0.21c-0.43.89-.62,2.12-1.33,2.62C40.23,58,36.94,60,33.62,62a2.85,2.85,0,0,1-2-.33c-1.86-.77-3.68-1.63-5.51-2.46l-0.39.36,0.83,2.53-2.7-.74c-0.47,1.77-.91,3.54-1.33,5.3-0.24,1-.47,2-0.7,3a8.18,8.18,0,0,1,2.12.84c0.33,0.21.05,1.37-.2,2.23a4.43,4.43,0,0,0-2.31-1.22,38.08,38.08,0,0,0-.78,12.92l7.12,7.25a46.65,46.65,0,0,1-4.94,1.55c0.95,5.7.37,11.41,0.65,17.08h0a3.66,3.66,0,0,1,1.13,1l-0.17.05-0.88.27c0,0.18,0,.36,0,0.54a65.7,65.7,0,0,0,3.47,15.85l3.33,0.39a6.94,6.94,0,0,1-2.43,2,85.92,85.92,0,0,0,5.77,11.88,162.12,162.12,0,0,0,11.52,17.2,44.07,44.07,0,0,1,2-5.36c-0.17,4,1.05,9.4,4.23,12,0-3.15,1.46-5.9,3.06-8.55,1,1.85.82,4,1.51,6,1.19,3.51,3.31,5.05,5.65,7.8,0.33,0.38.61,0.78,0.91,1.17,0.61-2.46,1.72-4.8,2.51-7.24a18.32,18.32,0,0,1,2,5.36c0.94-2.27,2.11-5.58,4.46-7.39a43.59,43.59,0,0,0,2.92,5.83,14,14,0,0,1,2.22-6.35c0.45,1.19,1.48,2.42,1.89,3.64-0.28-2.3.5-3.8,0.77-5.87a14.18,14.18,0,0,1,3.32,5.22c1-6.27,5.23-12.42,8.18-18,1.18,3.51,1.71,7.44,2.73,11.13a23.13,23.13,0,0,1,3.42-7c0.31,1.5,1.66,3.48,1.92,4.49,0-2.27,1.4-3.84,2.16-5.51,0.82,1.37,3,3.33,3.95,4.81,0.3-1.56,1.89-3.61,2.2-4.81a25.12,25.12,0,0,0,4,5.49c0.31-1.61,1.75-3.5,2-4.66a23,23,0,0,0,5,8.26c1.36-3,2.64-7.91,4.62-10.31a17,17,0,0,0,4.08,6c0.51-1.84,1.84-3.54,2.41-5.36,1.24,2.5,2.34,3.78,3.33,4.21C132.23,152.95,131.73,151.32,131.3,149.68ZM37.67,33.84a4.31,4.31,0,0,1,5.12,4.32ZM120.78,106c0.63,1.81.75,3.28,1.39,3.59a17.88,17.88,0,0,0,4.25,1.15c-0.29.17-1.33,0.61-2.33,1.09v1.39c-2-.21-3.3-0.42-5.08-0.62-0.39-.49-0.72-1.17-1.53-2.19C118.36,109.23,119.62,107.64,120.78,106Zm-7.11,4.43c0.28,0.47.59,0.94,0.86,1.42l-0.37.75-1.68-.52A4.23,4.23,0,0,0,113.68,110.46ZM110.58,101a5.73,5.73,0,0,1-3.57.42C108.22,100,109.38,100.3,110.58,101ZM97,94.69c0.92,0.5,1.83,1,2.78,1.48a7.62,7.62,0,0,0,2,.64,7.43,7.43,0,0,0,.52-1.37c0.6,0.43,1.21.94,1.85,1.38a4.67,4.67,0,0,1-.69,3c-1.85-.87-3.71-1.73-5.52-2.69a5.57,5.57,0,0,1-1.34-1.8Zm5.64,17.52,0.48-2.25c1.7,0.14,3.1,3.3,5.08.35a2.4,2.4,0,0,0,1.88,1.91,5.65,5.65,0,0,1-3.95.81c-0.59-.08-1.35,1.17-2.09,2.26a33.48,33.48,0,0,1-8.93-4.77A10.45,10.45,0,0,1,102.6,112.22ZM89.1,84.74s0.46,0,.66,0c0.09,1.75.14,3.5,0.23,5.25a8.3,8.3,0,0,0-.88.09v-5.3Zm0-13.06,5,0.35C91.9,73.51,90.47,73.16,89.06,71.69Zm0.27-6.35c2.45,0.41,3.55-1.25,5-2.51a5.78,5.78,0,0,1,1.38-.66l0.43,0.92L88.38,67.9C87.38,66.2,87.78,65.07,89.33,65.33ZM83.12,55.7l-3.26-7.17C82.22,50.11,83.8,52.11,83.12,55.7Zm-0.28,6.5-5.12-4.32A4.31,4.31,0,0,1,82.84,62.2Zm-6.94,6.59-0.15.16-0.07-.08Zm-5-5h0l0,0Zm4.29,6.55,0,0.08h0.12l1.28,0.54,0.31-.63-0.08-.09L78.62,70a7.15,7.15,0,0,0,.68,2c1.53-.12,3.22-0.19,3.81-2.64,0.47,1,.75,1.53,1,2.09,0.57,1.27.22,1.95-1.23,2.13-4.17.53-8.26,0.89-12-1.88l-0.27-.19,2.7,1.27L73.83,72l-3.57-3.77ZM73.79,86a4.34,4.34,0,0,0,.27-1.53l1.68,0.35Zm2.92-2.81,1-.58-0.84-1.54L78,80.88a6.9,6.9,0,0,0,2.2,1.07Q78.61,83,77,84Zm4.85-3.28,2.69-1.34a2.59,2.59,0,0,1-.8,1.23l-1.64,1.12Zm-12.22-9a2.28,2.28,0,0,0-2,.64l2.54,2.19-0.24.5-2.75-1.34A4.37,4.37,0,0,0,67,72.08a11.07,11.07,0,0,1,.5-2.16c0.62,0.3,1.23.61,1.85,0.9h0Zm-4.87,5.52,0.92-.59,0.33,0.5-0.58.42ZM66.27,60a3,3,0,0,1,1.94.73L66.44,61Zm-8.73-4.57,1.48-1c1.19,1.26,2.28,2.55,3.51,3.68,1,1,1.85.82,2.16-.77a7.14,7.14,0,0,1,.94-1.8,4.14,4.14,0,0,0,.56.31,12.77,12.77,0,0,0,2.23,1.8,18.9,18.9,0,0,0-2.19.81,1.31,1.31,0,0,0-.72,1.08c-1.53.9-3,1.8-4.49,2.56-2,1-3.8.26-5.59-.72l1.48-2.29c-2.65-1.19-6.27.74-7.65-2.83-0.62-1.61-1-3.31-1.48-5L48.58,51a10.42,10.42,0,0,0,.27,1.42,24.22,24.22,0,0,0,1.31,3.63,5.16,5.16,0,0,0,1.62,1.27c0.39-.58.81-1.13,1.16-1.74a6,6,0,0,0,.38-1.15c1.77,3.09,2.45,3.52,4.88,3.07Zm-1.08,15.9,0.45-.66,1.57,0.85c0,0.07,0,.15,0,0.22l-1.6.21C56.72,71.72,56.6,71.5,56.46,71.31ZM55,86.49l0.27,0-0.15.12ZM50,65.92a7.93,7.93,0,0,0-.87.09V60.7s0.43,0,.63,0C49.81,62.42,49.88,64.17,50,65.92ZM49,47.65L54,48C51.85,49.47,50.42,49.12,49,47.65Zm0.27-6.35c2.45,0.42,3.55-1.25,5-2.51a5.78,5.78,0,0,1,1.38-.66L56.09,39l-7.76,4.82C47.33,42.16,47.73,41,49.28,41.29ZM26.07,71.15c2.37,1.52,4.74,4,7.42.1,0.59,1.69.59,1.69,3.67,1.23a5.23,5.23,0,0,1-1.71,1.23,60.46,60.46,0,0,1-7.37,1.05C26.41,74.88,25.67,73.5,26.07,71.15Z" transform="translate(361.17 101.95)"/><path class="cls-2" d="M280.8,42.18a5.23,5.23,0,0,0,1.71-1.23c-3.08.46-3.08,0.46-3.67-1.23-2.68,3.9-5.05,1.42-7.42-.1-0.4,2.35.34,3.73,2,3.62A60.48,60.48,0,0,0,280.8,42.18Z" transform="translate(361.17 101.95)"/><path class="cls-2" d="M159.14,98L155.77,96l-1,1.8-1.71-.82-0.47.56,3.14,1.79-3.4,2,5.83,2.43C158.19,101.36,154.61,98.66,159.14,98Z" transform="translate(361.17 101.95)"/><path class="cls-2" d="M301.43,7.51L301,6.59a5.78,5.78,0,0,0-1.38.66c-1.46,1.26-2.55,2.93-5,2.51-1.55-.26-2,0.87-1,2.57Z" transform="translate(361.17 101.95)"/><path class="cls-2" d="M299.36,16.46l-5-.35C295.76,17.58,297.19,17.94,299.36,16.46Z" transform="translate(361.17 101.95)"/><path class="cls-2" d="M283,2.31l5.12,4.32A4.31,4.31,0,0,0,283,2.31Z" transform="translate(361.17 101.95)"/><path class="cls-2" d="M285.15-7l3.26,7.17C289.09-3.47,287.51-5.46,285.15-7Z" transform="translate(361.17 101.95)"/><path class="cls-3" d="M35.57,30a10.28,10.28,0,0,0,1.32,1.67l0.15,0A9.32,9.32,0,0,0,35.57,30Z" transform="translate(361.17 101.95)"/><path class="cls-2" d="M294.9,29.13c-0.2,0-.8,0-0.8,0v5.3s0.67-.06,1-0.09C295,32.63,295,30.88,294.9,29.13Z" transform="translate(361.17 101.95)"/><path class="cls-2" d="M461-70.61l-6.67-.46C456.22-69.12,458.12-68.64,461-70.61Z" transform="translate(361.17 101.95)"/><path class="cls-2" d="M439.22-89.48L446-83.72A5.74,5.74,0,0,0,439.22-89.48Z" transform="translate(361.17 101.95)"/><path class="cls-2" d="M438.54-38c-4.11.62-4.11,0.62-4.9-1.64-3.58,5.2-6.73,1.9-9.89-.13-0.53,3.13.46,5,2.69,4.82a80.55,80.55,0,0,0,9.82-1.41C437.1-36.48,437.79-37.4,438.54-38Z" transform="translate(361.17 101.95)"/><path class="cls-2" d="M442.06-102l4.35,9.56C447.32-97.18,445.22-99.84,442.06-102Z" transform="translate(361.17 101.95)"/><path class="cls-2" d="M463.78-82.55l-0.57-1.22a7.7,7.7,0,0,0-1.84.88c-1.94,1.68-3.41,3.9-6.68,3.35-2.07-.35-2.6,1.16-1.27,3.42Z" transform="translate(361.17 101.95)"/><path class="cls-2" d="M455.11-53.71c-0.26,0-1,0-1,0v7.07s0.87-.08,1.25-0.12C455.23-49.05,455.23-51.38,455.11-53.71Z" transform="translate(361.17 101.95)"/><path class="cls-2" d="M389.11,50.4l0,0h0.1Z" transform="translate(361.17 101.95)"/><path class="cls-2" d="M356.91,65.47c-2.63-2-5.42-1.76-6.48.63,1.27,0.6,2.54,1.66,3.8,1.64C355.14,67.73,356,66.27,356.91,65.47Z" transform="translate(361.17 101.95)"/><path class="cls-2" d="M-215.29-.7l3.9,8.57C-210.58,3.58-212.46,1.2-215.29-.7Z" transform="translate(361.17 101.95)"/><path class="cls-2" d="M-217.84,10.48l6.12,5.16A5.15,5.15,0,0,0-217.84,10.48Z" transform="translate(361.17 101.95)"/><path class="cls-2" d="M-198.31,27.4l-6-.42C-202.6,28.74-200.9,29.16-198.31,27.4Z" transform="translate(361.17 101.95)"/><path class="cls-2" d="M-195.82,16.69l-0.51-1.1a6.89,6.89,0,0,0-1.64.79c-1.74,1.5-3.05,3.5-6,3-1.85-.31-2.33,1-1.14,3.07Z" transform="translate(361.17 101.95)"/><path class="cls-2" d="M-203.79,42.54a10.91,10.91,0,0,1-1.11,0v6.34a6.79,6.79,0,0,0,1.22-.11C-203.79,46.72-203.69,44.63-203.79,42.54Z" transform="translate(361.17 101.95)"/><path class="cls-2" d="M-361.17,143.94c1.33,1,2.84,3,3.94,2.75,2.26-.43,4.3-2,6.43-3.14l-4.86-2.78Z" transform="translate(361.17 101.95)"/><path class="cls-4" d="M26.33,42.11l0.25,0.17L26.39,42Z" transform="translate(361.17 101.95)"/><path class="cls-3" d="M76.88,81.05l0.84,1.54-1,.58L77,84q1.64-1,3.26-2.08A6.9,6.9,0,0,1,78,80.88Z" transform="translate(361.17 101.95)"/><path class="cls-3" d="M56.46,71.31c0.14,0.19.26,0.41,0.39,0.63l1.6-.21c0-.07,0-0.14,0-0.22l-1.57-.85Z" transform="translate(361.17 101.95)"/><path class="cls-3" d="M66.27,60L66.44,61l1.76-.32A3,3,0,0,0,66.27,60Z" transform="translate(361.17 101.95)"/><path class="cls-3" d="M73.79,86l1.95-1.18-1.68-.35A4.34,4.34,0,0,1,73.79,86Z" transform="translate(361.17 101.95)"/><path class="cls-3" d="M64.48,76.35l0.67,0.32,0.58-.42-0.33-.5Z" transform="translate(361.17 101.95)"/><path class="cls-3" d="M55.15,86.57l0.15-.12-0.27,0Z" transform="translate(361.17 101.95)"/><path class="cls-3" d="M89.75,84.71c-0.2,0-.66,0-0.66,0V90A8.3,8.3,0,0,1,90,90C89.89,88.21,89.84,86.46,89.75,84.71Z" transform="translate(361.17 101.95)"/><path class="cls-3" d="M24.62,111.35a3.66,3.66,0,0,0-1.13-1c0.34,0.34.66,0.7,1,1.06Z" transform="translate(361.17 101.95)"/><path class="cls-3" d="M94.07,72l-5-.35C90.47,73.16,91.9,73.51,94.07,72Z" transform="translate(361.17 101.95)"/><path class="cls-3" d="M49.1,60.7V66A7.93,7.93,0,0,1,50,65.92c-0.09-1.75-.16-3.5-0.24-5.25C49.53,60.68,49.1,60.69,49.1,60.7Z" transform="translate(361.17 101.95)"/><path class="cls-3" d="M96.15,63.08l-0.43-.92a5.78,5.78,0,0,0-1.38.66c-1.46,1.26-2.55,2.93-5,2.51-1.55-.26-2,0.87-1,2.57Z" transform="translate(361.17 101.95)"/><path class="cls-3" d="M81.82,80.89l1.64-1.12a2.59,2.59,0,0,0,.8-1.23l-2.69,1.34Z" transform="translate(361.17 101.95)"/><path class="cls-3" d="M56.09,39l-0.43-.92a5.78,5.78,0,0,0-1.38.66c-1.46,1.26-2.55,2.93-5,2.51-1.55-.26-2,0.87-1,2.57Z" transform="translate(361.17 101.95)"/><path class="cls-3" d="M53.32,54.48a6,6,0,0,1-.38,1.15c-0.34.6-.77,1.16-1.16,1.74a5.16,5.16,0,0,1-1.62-1.27,24.22,24.22,0,0,1-1.31-3.63A10.42,10.42,0,0,1,48.58,51l-0.79.21c0.49,1.66.86,3.36,1.48,5,1.38,3.57,5,1.63,7.65,2.83l-1.48,2.29c1.78,1,3.6,1.72,5.59.72,1.51-.76,3-1.65,4.49-2.56a1.31,1.31,0,0,1,.72-1.08,18.9,18.9,0,0,1,2.19-.81,12.77,12.77,0,0,1-2.23-1.8,4.14,4.14,0,0,1-.56-0.31,7.14,7.14,0,0,0-.94,1.8c-0.31,1.59-1.13,1.72-2.16.77C61.3,56.95,60.21,55.66,59,54.4l-1.48,1,0.67,2.14C55.76,58,55.09,57.57,53.32,54.48Z" transform="translate(361.17 101.95)"/><path class="cls-3" d="M54,48l-5-.35C50.42,49.12,51.85,49.47,54,48Z" transform="translate(361.17 101.95)"/><path class="cls-3" d="M35.46,73.71a5.23,5.23,0,0,0,1.71-1.23c-3.08.46-3.08,0.46-3.67-1.23-2.68,3.9-5.05,1.42-7.42-.1-0.4,2.35.34,3.73,2,3.62A60.46,60.46,0,0,0,35.46,73.71Z" transform="translate(361.17 101.95)"/><path class="cls-3" d="M37.67,33.84l5.12,4.32A4.31,4.31,0,0,0,37.67,33.84Z" transform="translate(361.17 101.95)"/><path class="cls-3" d="M73.36,72.72l-2.7-1.27,0.27,0.19c3.69,2.78,7.78,2.41,12,1.88,1.46-.19,1.8-0.86,1.23-2.13-0.25-.55-0.52-1.1-1-2.09-0.59,2.44-2.28,2.52-3.81,2.64a7.15,7.15,0,0,1-.68-2l-1.78.22,0.08,0.09-0.31.63-1.28-.54H75.2l0-.08-4.93-2.09L73.83,72Z" transform="translate(361.17 101.95)"/><path class="cls-3" d="M75.91,68.79l-0.22.08,0.07,0.08Z" transform="translate(361.17 101.95)"/><path class="cls-3" d="M77.72,57.88l5.12,4.32A4.31,4.31,0,0,0,77.72,57.88Z" transform="translate(361.17 101.95)"/><path class="cls-3" d="M79.86,48.53l3.26,7.17C83.8,52.11,82.22,50.11,79.86,48.53Z" transform="translate(361.17 101.95)"/><path class="cls-3" d="M67,72.08a4.37,4.37,0,0,1-.09.76l2.75,1.34,0.24-.5-2.54-2.19a2.28,2.28,0,0,1,2-.64h0c-0.62-.29-1.23-0.6-1.85-0.9A11.07,11.07,0,0,0,67,72.08Z" transform="translate(361.17 101.95)"/><path class="cls-3" d="M70.89,63.78l0,0,0,0h0Z" transform="translate(361.17 101.95)"/><path class="cls-3" d="M100.64,70.71L98.22,72l0.27,0.65a18.4,18.4,0,0,1,3.22-1.27c0.14,0,.29,0,0.43,0l-1.08-2.19-0.75.39Z" transform="translate(361.17 101.95)"/><path class="cls-3" d="M86.74,45.49l4-6.28a20.13,20.13,0,0,1-.41-3.8C88.23,38.42,85.4,41,86.74,45.49Z" transform="translate(361.17 101.95)"/><path class="cls-3" d="M61.52,40.27c-2.82-1.21-3-1.13-3.15,1.42l5.54,1.14L64,43.52l-3.71,1.93,0.33,1.22-2.42,1.25,0.27,0.65a18.4,18.4,0,0,1,3.22-1.27,15.57,15.57,0,0,1,3.25,0l-0.32,2.4c3.32,0.7,6.55,1.9,9,4.53a7.3,7.3,0,0,1-2.42,1.57l0.69,0.4c1.28,0.74,2.53,1.91,3.83-.05a2.86,2.86,0,0,1,1.38-.41c-1-1.6-3.25-2.35-2.65-5l4.27,1.94c-0.09-1.36-.16-2.39-0.22-3.42l-0.36.55c-1.07-.12-2.62.15-3.13-0.45-1.29-1.54,1-1.62,1.56-2.72-1.05-1.48-2.23-3-3.21-4.59a4.48,4.48,0,0,1-.07-2,7.1,7.1,0,0,1,1.83.35,24,24,0,0,1,2.36,1.42l1.73-2.36c0.49,0.71,1,1.4,1.45,2.14a6.33,6.33,0,0,1,.24,1.15c0.5,1.55,1,3.09,1.53,4.64a1.55,1.55,0,0,0,.77-1.15,9.88,9.88,0,0,0-2.58-8c-1.16-1.26-2.76-2.62-2-5.18C80.3,34.59,81.56,36,83,37.34c0.16-.08.07-0.15,0.07-0.23v-10c4,2,2,5.81,3.6,8.75,1.05-1.63,2.09-3.34,4.12-3.5a9.87,9.87,0,0,1,.75-1.79c1.87-3.44,1.3-7-.25-10.35-1.07-2.32-2.18-3.78-5.22-1.45a27.77,27.77,0,0,0-9,12.29,8.51,8.51,0,0,1-7.2,5.75l-3.78.24a6.28,6.28,0,0,1-.79.59C64.14,38.52,62.89,39.35,61.52,40.27Z" transform="translate(361.17 101.95)"/><path class="cls-3" d="M49.16,36.6c-0.6-.09-1.21-0.2-1.81-0.32,0,0.37.08,0.81,0.14,1.36C48.07,37.29,48.62,36.95,49.16,36.6Z" transform="translate(361.17 101.95)"/><path class="cls-3" d="M27.78,40.78a24.18,24.18,0,0,1,3.29-.87c-2-1.35-2.27-4-5.09-4-0.85,0-.59-1.15.2-1.56a18.89,18.89,0,0,1,2.19-.81c-1.6-1.22-3.5-2-2.63-4.91l6.1,3.48c1.28,0.74,2.53,1.91,3.83-.05a2.19,2.19,0,0,1,1.23-.38A10.28,10.28,0,0,1,35.57,30a4.13,4.13,0,0,1-1.16-1.73,17.53,17.53,0,0,0-4.83-4.1c-1.62-1-3.41-2.36-4.84-1.13s-3,3.33-2.57,5.76C23,33.45,23.65,38.18,26.39,42A5.17,5.17,0,0,1,27.78,40.78Z" transform="translate(361.17 101.95)"/><path class="cls-3" d="M89.77,50.84a3.34,3.34,0,0,1-.13-1.45c-2.66.38-3.55,1.77-3.08,4.31,0.34,1.86.51,3.74,0.74,5.62,0.08,0.63.13,1.25,0.25,2.36,3.1-1.86,5.67-3.59,7-6.74,0.06-.13.12-0.26,0.18-0.39-0.52-1.44-1-2.9-1.46-4.37A3.7,3.7,0,0,0,91,51.46,1.87,1.87,0,0,1,89.77,50.84Z" transform="translate(361.17 101.95)"/><path class="cls-3" d="M107.68,84.86c-0.49-.36-1-0.73-1.41-1.12l0.22,1.34Z" transform="translate(361.17 101.95)"/><path class="cls-3" d="M42.82,49.49c1.46-.19,1.8-0.86,1.23-2.13-0.25-.55-0.52-1.1-1-2.09-0.59,2.44-2.28,2.52-3.81,2.64a7.16,7.16,0,0,1-.68-2l-3.42.42L35,45.69l2.08-2.23a4.94,4.94,0,0,0-2.26.36c-0.65.19-1.67,0.62-1.93,0.36-1.34-1.35-2.75-1.09-4.38-.79-0.55.1-1.25-.63-1.91-1.11a14.52,14.52,0,0,0,1.72,1.94,2.45,2.45,0,0,1,.85,2.57,3.73,3.73,0,0,1,1.74.82C34.56,50.38,38.65,50,42.82,49.49Z" transform="translate(361.17 101.95)"/><path class="cls-3" d="M111.57,87.58l-0.72-.52-0.59-.41,0.67,1.17Z" transform="translate(361.17 101.95)"/><path class="cls-3" d="M99.55,66c-0.3-.64-0.61-1.29-0.91-1.94a6.4,6.4,0,0,0-.22,1.71Z" transform="translate(361.17 101.95)"/><path class="cls-3" d="M102.58,82.11c-1.23-1.13-2.32-2.41-3.51-3.68l-1.48,1,0.67,2.14c-2.44.45-3.11,0-4.88-3.07A6,6,0,0,1,93,79.67c-0.34.6-.77,1.16-1.16,1.74a5.16,5.16,0,0,1-1.62-1.27,24.25,24.25,0,0,1-1.31-3.63,10.44,10.44,0,0,1-.27-1.42l-0.79.21c0.49,1.66.86,3.36,1.48,5,1.38,3.57,5,1.63,7.65,2.83l-1.48,2.29c1.78,1,3.6,1.72,5.59.72,1.61-.81,3.14-1.77,4.79-2.73a11.85,11.85,0,0,1-1.3-1.41C104.17,82.94,103.46,82.92,102.58,82.11Z" transform="translate(361.17 101.95)"/><path class="cls-3" d="M92.18,46.13c-0.07-.29-0.12-0.6-0.19-0.89a5.15,5.15,0,0,0-1.53.28A14.94,14.94,0,0,1,92.18,46.13Z" transform="translate(361.17 101.95)"/><path class="cls-3" d="M114.54,111.88c-0.28-.48-0.58-0.94-0.86-1.42a4.23,4.23,0,0,1-1.19,1.64l1.68,0.52Z" transform="translate(361.17 101.95)"/><path class="cls-3" d="M124.1,113.25v-1.39c1-.48,2-0.92,2.33-1.09a17.88,17.88,0,0,1-4.25-1.15c-0.63-.31-0.76-1.78-1.39-3.59-1.17,1.61-2.42,3.2-3.3,4.41,0.81,1,1.15,1.71,1.53,2.19C120.8,112.84,122.1,113,124.1,113.25Z" transform="translate(361.17 101.95)"/><path class="cls-3" d="M110.58,101c-1.2-.67-2.36-0.94-3.57.42A5.73,5.73,0,0,0,110.58,101Z" transform="translate(361.17 101.95)"/><path class="cls-3" d="M106.1,113a5.65,5.65,0,0,0,3.95-.81,2.4,2.4,0,0,1-1.88-1.91c-2,3-3.38-.21-5.08-0.35l-0.48,2.25a10.45,10.45,0,0,0-7.52-1.69,33.48,33.48,0,0,0,8.93,4.77C104.75,114.2,105.51,113,106.1,113Z" transform="translate(361.17 101.95)"/><path class="cls-3" d="M97.85,97.15c1.81,1,3.67,1.81,5.52,2.69a4.67,4.67,0,0,0,.69-3c-0.64-.44-1.25-0.95-1.85-1.38a7.43,7.43,0,0,1-.52,1.38,7.62,7.62,0,0,1-2-.64c-0.95-.45-1.85-1-2.78-1.48l-0.45.66A5.57,5.57,0,0,0,97.85,97.15Z" transform="translate(361.17 101.95)"/><path class="cls-3" d="M29.82,49.63l-1.37-1.18c-0.15.31-.29,0.61-0.44,0.92l1.57,0.76Z" transform="translate(361.17 101.95)"/><path class="cls-3" d="M25.72,59.58l0.39-.36c1.83,0.83,3.65,1.69,5.51,2.46a2.85,2.85,0,0,0,2,.33c3.32-2,6.61-4.05,9.78-6.28,0.71-.5.9-1.72,1.33-2.62l-0.47-.21c-1.72,2.5-3.16,3.42-5.17,3.77-2.24.39-4.74,0.31-6.23,2.6a2,2,0,0,1-.82.32l-0.32-1.76a2.87,2.87,0,0,1-.81.43c-0.84.09-1.69,0.12-2.53,0.18a12.16,12.16,0,0,1,1.33-2,26.61,26.61,0,0,1,2.5-2c-2.4.88-4.55,2-6.74,2.94a0.69,0.69,0,0,1-.44,0c-0.42,1.37-.81,2.74-1.17,4.12l2.7,0.74Z" transform="translate(361.17 101.95)"/><path class="cls-3" d="M23.94,70.52a8.18,8.18,0,0,0-2.12-.84q-0.2.92-.39,1.84a4.43,4.43,0,0,1,2.31,1.22C24,71.89,24.27,70.73,23.94,70.52Z" transform="translate(361.17 101.95)"/><path class="cls-3" d="M20.65,84.45a21.47,21.47,0,0,0,1,4,28.45,28.45,0,0,1,1.2,4.79,46.65,46.65,0,0,0,4.94-1.55Z" transform="translate(361.17 101.95)"/><path class="cls-5" d="M23.48,110.33h0a3.66,3.66,0,0,1,1.13,1l-0.17.05c2.61,3.13,3.86,6.92,4.68,11.2,0.23-3.48,1.28-5.6,2.13-9,0.18,3.06,1.32,6.08,1.26,9.29,1.12-2.75,4.25-4.37,6-6.27,0.74,2.8,2.68,5.51,3.21,8.2,0-2.2.6-4.92,0.48-7.14,1.42,2.92,2.7,7.91,4.94,10.59,0.2-3,2-5.46,2.64-8.19,1.9,4,2.83,8,4.1,12.35-0.51-4,.12-8.13,2.37-11.21,1.73,3.31,3.4,6.75,4.91,10.13a62.1,62.1,0,0,1,2.61-12.59c0.53,1.74,3,4.89,3.83,7.11,1.43-3.71,2.11-7.72,3.72-11.16,3.37,4.95,4.88,10.75,6.23,16.52,0.82-2.5,3.31-4.56,4.32-6.82,0.84,2.45,2.93,5,3.24,8,0.41-2.08,1.86-4.06,2.43-6,1.53,2.64,3.55,4.45,4,8.19,1.88-5.65.91-12,1.35-17.93,1.86,2.6,4.12,6.41,6.29,9.25,0.25-1.78,1-3,1.23-4.66,4.58,6.16,7.55,14.29,10.87,20.84,0.4-1.57,1.65-3.32,2.11-4.63,0.58,1.76,2.56,3.79,3.23,6,1-1.35,4.25-2.92,5.15-4.07,1,2.13,2.9,3.57,3.5,6a25.54,25.54,0,0,0,1.05-3.88c1.28,2.47,3.3,6.17,4.08,9.19a6,6,0,0,1,.8-0.92,36.27,36.27,0,0,1-1.08-5.69c-0.35-3.56-2.12-7.66-.9-10.49s1-4.81.74-7.34c-0.62-6.28-2.62-12.24-4.11-18.31-2.11-8.61-7.3-15.15-14.38-20.26l-0.65.24-0.67-1.17c-0.87-.59-1.75-1.18-2.58-1.8l-1.18.22-0.22-1.34-0.41-.37c-1.65,1-3.18,1.93-4.79,2.73-2,1-3.8.26-5.59-.72L97,83.09c-2.65-1.19-6.27.74-7.65-2.83-0.62-1.61-1-3.31-1.48-5l0.79-.21a10.44,10.44,0,0,0,.27,1.42,24.25,24.25,0,0,0,1.31,3.63,5.16,5.16,0,0,0,1.62,1.27c0.39-.58.81-1.13,1.16-1.74a6,6,0,0,0,.38-1.15c1.77,3.09,2.45,3.52,4.88,3.07l-0.67-2.14,1.48-1c1.19,1.26,2.28,2.55,3.51,3.68,0.88,0.8,1.59.82,2-.15a8.16,8.16,0,0,1-1.45-7.27,5.41,5.41,0,0,0-.84-3.14l-0.13-.27c-0.14,0-.29,0-0.43,0a18.4,18.4,0,0,0-3.22,1.27L98.22,72l2.42-1.25-0.33-1.22,0.75-.39q-0.77-1.56-1.51-3.13l-1.12-.23A6.4,6.4,0,0,1,98.64,64c-1.43-3.11-2.75-6.26-3.9-9.48-0.06.13-.12,0.26-0.18,0.39-1.35,3.15-3.92,4.88-7,6.74-0.12-1.1-.17-1.73-0.25-2.36-0.24-1.87-.4-3.76-0.74-5.62-0.46-2.54.42-3.93,3.08-4.31a3.34,3.34,0,0,0,.13,1.45,1.87,1.87,0,0,0,1.19.63,3.7,3.7,0,0,1,2.33-1.29c-0.4-1.33-.77-2.68-1.1-4a14.94,14.94,0,0,0-1.73-.62A5.15,5.15,0,0,1,92,45.24c-0.22-1-.44-1.95-0.63-2.94s-0.41-2.08-.6-3.09l-4,6.28C85.4,41,88.23,38.42,90.36,35.41a10.25,10.25,0,0,1,.45-3c-2,.16-3.06,1.87-4.12,3.5-1.62-2.93.4-6.78-3.6-8.75v10c0,0.08.09,0.15-.07,0.23C81.56,36,80.3,34.59,78.62,33c-0.76,2.56.85,3.92,2,5.18a9.88,9.88,0,0,1,2.58,8,1.55,1.55,0,0,1-.77,1.15c-0.52-1.55-1-3.09-1.53-4.64a6.33,6.33,0,0,0-.24-1.15c-0.43-.75-1-1.43-1.45-2.14l-1.73,2.36a24,24,0,0,0-2.36-1.42A7.1,7.1,0,0,0,73.3,40a4.48,4.48,0,0,0,.07,2c1,1.62,2.15,3.12,3.21,4.59C76,47.71,73.72,47.79,75,49.33c0.5,0.6,2.05.33,3.13,0.45l0.36-.55c0.07,1,.13,2.06.22,3.42l-4.27-1.94c-0.6,2.66,1.68,3.41,2.65,5a2.86,2.86,0,0,0-1.38.41c-1.29,2-2.54.79-3.83,0.05l-0.69-.4a7.3,7.3,0,0,0,2.42-1.57c-2.47-2.62-5.7-3.83-9-4.53l0.32-2.4a15.57,15.57,0,0,0-3.25,0,18.4,18.4,0,0,0-3.22,1.27l-0.27-.65,2.42-1.25-0.33-1.22L64,43.52l-0.06-.69-5.54-1.14c0.12-2.55.33-2.63,3.15-1.42,1.37-.92,2.62-1.75,3.86-2.6a6.28,6.28,0,0,0,.79-0.59,81.21,81.21,0,0,1-17-.48c-0.54.35-1.09,0.69-1.67,1-0.06-.55-0.1-1-0.14-1.36C46.66,36.15,46,36,45.29,35.86c-3-.73-6.15-1.84-8.4-4.14a2.19,2.19,0,0,0-1.23.38c-1.29,2-2.54.79-3.83,0.05l-6.1-3.48c-0.87,2.9,1,3.68,2.63,4.91a18.89,18.89,0,0,0-2.19.81c-0.8.41-1.05,1.58-.2,1.56,2.82-.08,3.14,2.63,5.09,4a24.18,24.18,0,0,0-3.29.87A5.17,5.17,0,0,0,26.39,42l0.18,0.24c0.66,0.48,1.36,1.21,1.91,1.11,1.63-.3,3-0.56,4.38.79,0.26,0.26,1.28-.17,1.93-0.36a4.94,4.94,0,0,1,2.26-.36L35,45.69l0.18,0.67,3.42-.42a7.16,7.16,0,0,0,.68,2c1.53-.12,3.22-0.19,3.81-2.64,0.47,1,.75,1.53,1,2.09,0.57,1.27.22,1.95-1.23,2.13-4.17.53-8.26,0.89-12-1.88a3.73,3.73,0,0,0-1.74-.82A5.75,5.75,0,0,1,28.67,48c-0.08.15-.14,0.3-0.21,0.45l1.37,1.18-0.24.5L28,49.37a62.28,62.28,0,0,0-3,7.87,0.69,0.69,0,0,0,.44,0c2.2-1,4.34-2.06,6.74-2.94a26.61,26.61,0,0,0-2.5,2,12.16,12.16,0,0,0-1.33,2c0.84-.05,1.69-0.08,2.53-0.18a2.87,2.87,0,0,0,.81-0.43L32,59.59a2,2,0,0,0,.82-0.32c1.49-2.29,4-2.21,6.23-2.6,2-.35,3.46-1.26,5.17-3.77l0.47,0.21c-0.43.89-.62,2.12-1.33,2.62C40.23,58,36.94,60,33.62,62a2.85,2.85,0,0,1-2-.33c-1.86-.77-3.68-1.63-5.51-2.46l-0.39.36,0.83,2.53-2.7-.74c-0.47,1.77-.91,3.54-1.33,5.3-0.24,1-.47,2-0.7,3a8.18,8.18,0,0,1,2.12.84c0.33,0.21.05,1.37-.2,2.23a4.43,4.43,0,0,0-2.31-1.22,38.08,38.08,0,0,0-.78,12.92l7.12,7.25a46.65,46.65,0,0,1-4.94,1.55C23.77,99,23.19,104.67,23.48,110.33Zm97.31-4.3c0.63,1.81.75,3.28,1.39,3.59a17.88,17.88,0,0,0,4.25,1.15c-0.29.17-1.33,0.61-2.33,1.09v1.39c-2-.21-3.3-0.42-5.08-0.62-0.39-.49-0.72-1.17-1.53-2.19C118.36,109.23,119.62,107.64,120.78,106Zm-7.11,4.43c0.28,0.47.59,0.94,0.86,1.42l-0.37.75-1.68-.52A4.23,4.23,0,0,0,113.68,110.46ZM110.58,101a5.73,5.73,0,0,1-3.57.42C108.22,100,109.38,100.3,110.58,101ZM97,94.69c0.92,0.5,1.83,1,2.78,1.48a7.62,7.62,0,0,0,2,.64,7.43,7.43,0,0,0,.52-1.37c0.6,0.43,1.21.94,1.85,1.38a4.67,4.67,0,0,1-.69,3c-1.85-.87-3.71-1.73-5.52-2.69a5.57,5.57,0,0,1-1.34-1.8Zm5.64,17.52,0.48-2.25c1.7,0.14,3.1,3.3,5.08.35a2.4,2.4,0,0,0,1.88,1.91,5.65,5.65,0,0,1-3.95.81c-0.59-.08-1.35,1.17-2.09,2.26a33.48,33.48,0,0,1-8.93-4.77A10.45,10.45,0,0,1,102.6,112.22ZM89.1,84.74s0.46,0,.66,0c0.09,1.75.14,3.5,0.23,5.25a8.3,8.3,0,0,0-.88.09v-5.3Zm0-13.06,5,0.35C91.9,73.51,90.47,73.16,89.06,71.69Zm0.27-6.35c2.45,0.41,3.55-1.25,5-2.51a5.78,5.78,0,0,1,1.38-.66l0.43,0.92L88.38,67.9C87.38,66.2,87.78,65.07,89.33,65.33ZM49.1,66V60.7s0.43,0,.63,0c0.09,1.75.16,3.5,0.24,5.25A7.93,7.93,0,0,0,49.1,66Zm6.05,20.56L55,86.49l0.27,0Zm3.29-14.85-1.6.21c-0.12-.22-0.25-0.43-0.39-0.62l0.45-.66,1.57,0.85C58.47,71.58,58.46,71.65,58.44,71.72Zm6.7,5-0.67-.32,0.92-.59,0.33,0.5ZM66.27,60a3,3,0,0,1,1.94.73L66.44,61Zm7.52,26a4.34,4.34,0,0,0,.27-1.53l1.68,0.35ZM77,84l-0.27-.86,1-.58-0.84-1.54L78,80.88a6.9,6.9,0,0,0,2.2,1.07Q78.61,83,77,84Zm6.48-4.25-1.64,1.12-0.26-1,2.69-1.34A2.59,2.59,0,0,1,83.45,79.77ZM83.12,55.7l-3.26-7.17C82.22,50.11,83.8,52.11,83.12,55.7Zm-0.28,6.5-5.12-4.32A4.31,4.31,0,0,1,82.84,62.2Zm-6.94,6.59-0.15.16-0.07-.08Zm-5-5h0l0,0Zm4.29,6.55,0,0.08h0.12l1.28,0.54,0.31-.63-0.08-.09L78.62,70a7.15,7.15,0,0,0,.68,2c1.53-.12,3.22-0.19,3.81-2.64,0.47,1,.75,1.53,1,2.09,0.57,1.27.22,1.95-1.23,2.13-4.17.53-8.26,0.89-12-1.88l-0.27-.19,2.7,1.27L73.83,72l-3.57-3.77Zm-5.84.52a2.28,2.28,0,0,0-2,.64l2.54,2.19-0.24.5-2.75-1.34A4.37,4.37,0,0,0,67,72.08a11.07,11.07,0,0,1,.5-2.16c0.62,0.3,1.23.61,1.85,0.9h0ZM57.54,55.41l1.48-1c1.19,1.26,2.28,2.55,3.51,3.68,1,1,1.85.82,2.16-.77a7.14,7.14,0,0,1,.94-1.8,4.14,4.14,0,0,0,.56.31,12.77,12.77,0,0,0,2.23,1.8,18.9,18.9,0,0,0-2.19.81,1.31,1.31,0,0,0-.72,1.08c-1.53.9-3,1.8-4.49,2.56-2,1-3.8.26-5.59-.72l1.48-2.29c-2.65-1.19-6.27.74-7.65-2.83-0.62-1.61-1-3.31-1.48-5L48.58,51a10.42,10.42,0,0,0,.27,1.42,24.22,24.22,0,0,0,1.31,3.63,5.16,5.16,0,0,0,1.62,1.27c0.39-.58.81-1.13,1.16-1.74a6,6,0,0,0,.38-1.15c1.77,3.09,2.45,3.52,4.88,3.07ZM49,47.65L54,48C51.85,49.47,50.42,49.12,49,47.65Zm0.27-6.35c2.45,0.42,3.55-1.25,5-2.51a5.78,5.78,0,0,1,1.38-.66L56.09,39l-7.76,4.82C47.33,42.16,47.73,41,49.28,41.29ZM37.67,33.84a4.31,4.31,0,0,1,5.12,4.32ZM26.07,71.15c2.37,1.52,4.74,4,7.42.1,0.59,1.69.59,1.69,3.67,1.23a5.23,5.23,0,0,1-1.71,1.23,60.46,60.46,0,0,1-7.37,1.05C26.41,74.88,25.67,73.5,26.07,71.15Z" transform="translate(361.17 101.95)"/><path class="cls-3" d="M35.28,29.62a11.44,11.44,0,0,0-.87-1.3A4.13,4.13,0,0,0,35.57,30C35.48,29.9,35.37,29.77,35.28,29.62Z" transform="translate(361.17 101.95)"/><path class="cls-6" d="M30.4,128.46l-3.33-.39c0.28,0.81.59,1.62,0.9,2.42A6.94,6.94,0,0,0,30.4,128.46Z" transform="translate(361.17 101.95)"/><path class="cls-7" d="M135,164.54a49.88,49.88,0,0,0-2.28-10c-1-.43-2.09-1.71-3.33-4.21-0.57,1.81-1.9,3.51-2.41,5.36a17,17,0,0,1-4.08-6c-2,2.4-3.26,7.35-4.62,10.31a23,23,0,0,1-5-8.26c-0.28,1.15-1.72,3-2,4.66a25.12,25.12,0,0,1-4-5.49c-0.32,1.19-1.91,3.25-2.2,4.81-1-1.48-3.12-3.44-3.95-4.81-0.77,1.67-2.19,3.23-2.16,5.51-0.26-1-1.61-3-1.92-4.49a23.13,23.13,0,0,0-3.42,7c-1-3.69-1.56-7.62-2.73-11.13-2.95,5.6-7.16,11.75-8.18,18a14.18,14.18,0,0,0-3.32-5.22c-0.27,2.07-1,3.57-.77,5.87-0.41-1.21-1.44-2.44-1.89-3.64a14,14,0,0,0-2.22,6.35,43.59,43.59,0,0,1-2.92-5.83c-2.35,1.81-3.53,5.12-4.46,7.39a18.32,18.32,0,0,0-2-5.36c-0.79,2.45-1.9,4.79-2.51,7.24-0.29-.39-0.58-0.79-0.91-1.17-2.34-2.75-4.46-4.29-5.65-7.8-0.7-2-.5-4.18-1.51-6C53,160.3,51.46,163,51.5,166.19c-3.17-2.6-4.39-8-4.23-12a44.07,44.07,0,0,0-2,5.36q3.36,4.38,7,8.55c0.64,0.74.81,1-.12,1.59C48.4,172.22,45.59,176,41,177.38a19,19,0,0,0-6.47,3.74c-4.64,3.94-5.35,7.45-2.57,10.68,0.14-2.16-.43-3.84,3.37-4.19,3.14-.29,4.91-1.8,5.06,2.63a1.93,1.93,0,0,0,2.45,1.56c-0.15-1.82-2.17-4.64,0-5,3.81-.55,5.08-3.93,7.91-5.34,2.1-1,3.84-3.26,6.37-2.78a4.65,4.65,0,0,1,1.14.39c-0.56,3.16-2.67,6.18-.27,10.46,0.36-2.47.25-4.35,2.3-4.17a6.19,6.19,0,0,1,1.5.36c2.41,0.86,2.64-3.81,5.2-4.71,1.3,3.37-1.28,7.2,1.06,10.44l0.06,0.09c1.37-.66.46-2.09,0.82-2.16a5.84,5.84,0,0,0,3.83-2.66c1-1.49,1.69-3.3,2.84-4.68,1.35-1.63,3.18-3.46,5.64-1.74,2.68,1.87,5.2,4,7.79,6-0.31,1,.14,1.23,1,1,3.2-3.65,1.93-6.8-1.3-9.47-1.59-1.31-2.73-2.29-.42-3.8,0.83-.54,9,2.69,9.23,3.71,1.25,4.63,3.81,8.64,6.17,12.75a49.29,49.29,0,0,1,3.26,6.54A26.28,26.28,0,0,1,108,200a8.89,8.89,0,0,0,3.28,4.83,25.77,25.77,0,0,0,5,2.84,8.91,8.91,0,0,0,1.23.45l0.58,0.16c2,0.51,4.5.68,4.71-.36a6.3,6.3,0,0,1,.69-1.94,3.74,3.74,0,0,1,.59-0.77c1.21-1.14,2.94-.77,4.56-0.66,1.24,0.14,2.21.2,2.92-.4a5.77,5.77,0,0,0,.71-1.24,8.19,8.19,0,0,0,.31-4.47c-0.1-.65-0.22-1.31-0.33-2-0.36-2.14-.73-4.28-1.12-6.42-0.71-3.95-1.44-7.92-2.18-12,4.8,2.75,6.51,1.73,6.46-3.66C135.34,171.13,135.31,167.85,135,164.54Z" transform="translate(361.17 101.95)"/><path class="cls-3" d="M23.49,110.34h0q0,0.67.09,1.33l0.88-.27C24.15,111,23.83,110.69,23.49,110.34Z" transform="translate(361.17 101.95)"/><path class="cls-1" d="M51.5,166.19c0-3.15,1.46-5.9,3.06-8.55,1,1.85.82,4,1.51,6,1.19,3.51,3.31,5.05,5.65,7.8,0.33,0.38.61,0.78,0.91,1.17,0.61-2.46,1.72-4.8,2.51-7.24a18.32,18.32,0,0,1,2,5.36c0.94-2.27,2.11-5.58,4.46-7.39a43.59,43.59,0,0,0,2.92,5.83,14,14,0,0,1,2.22-6.35c0.45,1.19,1.48,2.42,1.89,3.64-0.28-2.3.5-3.8,0.77-5.87a14.18,14.18,0,0,1,3.32,5.22c1-6.27,5.23-12.42,8.18-18,1.18,3.51,1.71,7.44,2.73,11.13a23.13,23.13,0,0,1,3.42-7c0.31,1.5,1.66,3.48,1.92,4.49,0-2.27,1.4-3.84,2.16-5.51,0.82,1.37,3,3.33,3.95,4.81,0.3-1.56,1.89-3.61,2.2-4.81a25.12,25.12,0,0,0,4,5.49c0.31-1.61,1.75-3.5,2-4.66a23,23,0,0,0,5,8.26c1.36-3,2.64-7.91,4.62-10.31a17,17,0,0,0,4.08,6c0.51-1.84,1.84-3.54,2.41-5.36,1.24,2.5,2.34,3.78,3.33,4.21-0.5-1.63-1-3.26-1.43-4.9a6,6,0,0,0-.8.92c-0.78-3-2.8-6.72-4.08-9.19a25.54,25.54,0,0,1-1.05,3.88c-0.6-2.42-2.51-3.86-3.5-6-0.91,1.15-4.16,2.72-5.15,4.07-0.67-2.19-2.66-4.22-3.23-6-0.46,1.31-1.71,3.06-2.11,4.63-3.32-6.56-6.29-14.68-10.87-20.84-0.26,1.71-1,2.88-1.23,4.66-2.17-2.84-4.43-6.65-6.29-9.25-0.44,5.94.53,12.28-1.35,17.93-0.46-3.75-2.48-5.56-4-8.19-0.57,2-2,4-2.43,6-0.31-2.95-2.39-5.5-3.24-8-1,2.26-3.5,4.32-4.32,6.82-1.35-5.77-2.86-11.58-6.23-16.52-1.61,3.44-2.29,7.45-3.72,11.16-0.81-2.22-3.3-5.37-3.83-7.11a62.1,62.1,0,0,0-2.61,12.59c-1.51-3.38-3.18-6.82-4.91-10.13-2.25,3.08-2.89,7.19-2.37,11.21-1.27-4.33-2.2-8.39-4.1-12.35-0.6,2.74-2.44,5.15-2.64,8.19-2.24-2.69-3.53-7.67-4.94-10.59,0.12,2.22-.48,4.95-0.48,7.14-0.53-2.69-2.47-5.4-3.21-8.2-1.79,1.91-4.92,3.53-6,6.27,0.05-3.22-1.09-6.23-1.26-9.29-0.86,3.4-1.9,5.52-2.13,9-0.82-4.28-2.07-8.07-4.68-11.2l-0.88.27c0,0.18,0,.36,0,0.54a65.7,65.7,0,0,0,3.47,15.85l3.33,0.39a6.94,6.94,0,0,1-2.43,2,85.92,85.92,0,0,0,5.77,11.88,162.12,162.12,0,0,0,11.52,17.2,44.07,44.07,0,0,1,2-5.36C47.11,158.17,48.33,163.59,51.5,166.19Z" transform="translate(361.17 101.95)"/><polygon class="cls-3" points="384.65 212.3 384.64 212.29 384.64 212.29 384.65 212.3"/><path class="cls-7" d="M124,205.21l-0.13.14Z" transform="translate(361.17 101.95)"/><path class="cls-7" d="M130.83,203.93l0.17-.49A0.51,0.51,0,0,0,130.83,203.93Z" transform="translate(361.17 101.95)"/><path class="cls-8" d="M111,186.29l-0.13-.41,0-.14a24.86,24.86,0,0,1,3.61,3.84l1-4.72,0.1-.48,0-.16c1.39,2.62,2.12,6.26,2.36,10.58A98.65,98.65,0,0,1,123.43,206a3.44,3.44,0,0,1,.46-0.63L123.45,201c-1.43-13.79-2.66-25.61-3-28.44,0-.21,0-0.37-0.05-0.48l0-.16c4,4.39,6.84,12.4,8.94,21.78l1.72-3.68c-0.71-3.95-1.44-7.92-2.18-12,4.8,2.75,6.51,1.73,6.46-3.66,0-3.29-.05-6.56-0.36-9.87a49.88,49.88,0,0,0-2.28-10c-1-.43-2.09-1.71-3.33-4.21-0.57,1.81-1.9,3.51-2.41,5.36a17,17,0,0,1-4.08-6c-2,2.4-3.26,7.35-4.62,10.31a23,23,0,0,1-5-8.26c-0.28,1.15-1.72,3-2,4.66a25.12,25.12,0,0,1-4-5.49c-0.32,1.19-1.91,3.25-2.2,4.81-1-1.48-3.12-3.44-3.95-4.81-0.77,1.67-2.19,3.23-2.16,5.51-0.26-1-1.61-3-1.92-4.49a23.13,23.13,0,0,0-3.42,7c-1-3.69-1.56-7.62-2.73-11.13-2.95,5.6-7.16,11.75-8.18,18a14.18,14.18,0,0,0-3.32-5.22c-0.27,2.07-1,3.57-.77,5.87-0.41-1.21-1.44-2.44-1.89-3.64a14,14,0,0,0-2.22,6.35,43.59,43.59,0,0,1-2.92-5.83c-2.35,1.81-3.53,5.12-4.46,7.39a18.32,18.32,0,0,0-2-5.36c-0.79,2.45-1.9,4.79-2.51,7.24-0.29-.39-0.58-0.79-0.91-1.17-2.34-2.75-4.46-4.29-5.65-7.8-0.7-2-.5-4.18-1.51-6C53,160.3,51.46,163,51.5,166.19c-3.17-2.6-4.39-8-4.23-12a44.07,44.07,0,0,0-2,5.36q3.36,4.38,7,8.55c0.64,0.74.81,1-.12,1.59C48.4,172.22,45.59,176,41,177.38a19,19,0,0,0-6.47,3.74c-4.64,3.94-5.35,7.45-2.57,10.68,0.14-2.16-.43-3.84,3.37-4.19,3.14-.29,4.91-1.8,5.06,2.63a1.93,1.93,0,0,0,2.45,1.56c-0.15-1.82-2.17-4.64,0-5,3.81-.55,5.08-3.93,7.91-5.34,2.1-1,3.84-3.26,6.37-2.78l0.2-1.52,0.07-.48,0-.16a25,25,0,0,1,2.88,8.84,6.19,6.19,0,0,1,1.5.36c2.41,0.86,2.64-3.81,5.2-4.71,1.3,3.37-1.28,7.2,1.06,10.44l1.75-13.59,0.07-.51c0-.12,0-0.18,0-0.18a28.1,28.1,0,0,1,2.88,9.56c1-1.49,1.69-3.3,2.84-4.68,1.35-1.63,3.18-3.46,5.64-1.74,2.68,1.87,5.2,4,7.79,6-0.31,1,.14,1.23,1,1,3.2-3.65,1.93-6.8-1.3-9.47-1.59-1.31-2.73-2.29-.42-3.8,0.83-.54,9,2.69,9.23,3.71,1.25,4.63,3.81,8.64,6.17,12.75L108.32,180l0.21-.5,0.07-.17c1.07,4.18.3,10.47-1.6,17.81A26.28,26.28,0,0,1,108,200a8.89,8.89,0,0,0,3.28,4.83l2.26-10.75Z" transform="translate(361.17 101.95)"/><path class="cls-7" d="M132.21,202.92a8.19,8.19,0,0,0,.31-4.47q-0.34,1.24-.73,2.52C131.94,201.6,132.08,202.24,132.21,202.92Z" transform="translate(361.17 101.95)"/><path class="cls-7" d="M117.57,206.84c0,0.42-.08.85-0.13,1.27l0.58,0.16Z" transform="translate(361.17 101.95)"/><path class="cls-7" d="M131.14,203l0.1,0.63a1.25,1.25,0,0,0,.26.5,5.77,5.77,0,0,0,.71-1.24c-0.13-.67-0.27-1.32-0.42-2C131.58,201.64,131.37,202.33,131.14,203Z" transform="translate(361.17 101.95)"/><path class="cls-7" d="M117.45,208.12c0-.43.09-0.85,0.13-1.27l-4.08-12.77-2.26,10.75a25.77,25.77,0,0,0,5,2.84A8.91,8.91,0,0,0,117.45,208.12Z" transform="translate(361.17 101.95)"/><path class="cls-7" d="M115.57,184.22l0,0.16-0.1.48-1,4.72a48.25,48.25,0,0,1,3.49,5.22C117.69,190.49,117,186.84,115.57,184.22Z" transform="translate(361.17 101.95)"/><path class="cls-7" d="M120.44,172.13c0,0.11,0,.27.05,0.48,0.29,2.83,1.52,14.65,3,28.44l0.45,4.31,0.13-.14,5.13-11c0-.15,0-0.29,0-0.37s0-.17,0-0.17l0.12,0.23,0.07-.15c-2.1-9.38-5-17.39-8.94-21.78Z" transform="translate(361.17 101.95)"/><path class="cls-7" d="M131.18,203.38a1.19,1.19,0,0,0,.06.27l-0.1-.63-0.14.42A0.51,0.51,0,0,1,131.18,203.38Z" transform="translate(361.17 101.95)"/><path class="cls-6" d="M129.3,193.89" transform="translate(361.17 101.95)"/><path class="cls-7" d="M130.83,203.93l-0.15.42A0.49,0.49,0,0,0,130.83,203.93Z" transform="translate(361.17 101.95)"/><path class="cls-7" d="M110.83,185.74l0,0.14,0.13,0.41,2.48,7.78,0.95-4.49A24.86,24.86,0,0,0,110.83,185.74Z" transform="translate(361.17 101.95)"/><path class="cls-7" d="M122.74,207.92a6.3,6.3,0,0,1,.69-1.94,98.65,98.65,0,0,0-5.51-11.18,83.71,83.71,0,0,1-.35,12l0.46,1.43C120,208.78,122.53,209,122.74,207.92Z" transform="translate(361.17 101.95)"/><path class="cls-7" d="M117.93,194.8a48.25,48.25,0,0,0-3.49-5.22l-0.95,4.49,4.08,12.77A83.71,83.71,0,0,0,117.93,194.8Z" transform="translate(361.17 101.95)"/><path class="cls-7" d="M131.08,190.07l-1.72,3.68,0.12,0.52a30,30,0,0,1,2.31,6.7q0.39-1.28.73-2.52c-0.1-.65-0.22-1.31-0.33-2C131.84,194.35,131.47,192.21,131.08,190.07Z" transform="translate(361.17 101.95)"/><path class="cls-7" d="M131.14,203c0.23-.69.45-1.38,0.66-2.06a30,30,0,0,0-2.31-6.7c0.48,2.21.93,4.49,1.33,6.82C130.92,201.72,131,202.37,131.14,203Z" transform="translate(361.17 101.95)"/><path class="cls-6" d="M129.37,193.75" transform="translate(361.17 101.95)"/><path class="cls-7" d="M128.58,204.55l0.56-10.21v-0.14l-5.13,11C125.23,204.07,127,204.44,128.58,204.55Z" transform="translate(361.17 101.95)"/><path class="cls-7" d="M129.15,194.21v0.14l-0.56,10.21c1.24,0.14,2.21.2,2.92-.4a4.73,4.73,0,0,0-.37-1.13c-0.11-.65-0.21-1.3-0.32-1.94-0.4-2.33-1.45-7.07-1.52-7.18Z" transform="translate(361.17 101.95)"/><path class="cls-7" d="M108.61,179.29l-0.07.17-0.21.5-4.57,10.61a49.29,49.29,0,0,1,3.26,6.54C108.91,189.77,109.68,183.47,108.61,179.29Z" transform="translate(361.17 101.95)"/><path class="cls-7" d="M69.88,177.38l-0.07.51-1.75,13.59,0.06,0.09c1.37-.66.46-2.09,0.82-2.16a5.84,5.84,0,0,0,3.83-2.66,28.1,28.1,0,0,0-2.88-9.56S69.89,177.27,69.88,177.38Z" transform="translate(361.17 101.95)"/><path class="cls-7" d="M57.41,176.73l-0.07.48-0.2,1.52a4.65,4.65,0,0,1,1.14.39c-0.56,3.16-2.67,6.18-.27,10.46,0.36-2.47.25-4.35,2.3-4.17a25,25,0,0,0-2.88-8.84Z" transform="translate(361.17 101.95)"/></svg>