<svg xmlns="http://www.w3.org/2000/svg" viewBox="0 0 186 186">
    <defs>
        <clipPath id="g">
            <path d="M0 1334h768V0H0z" />
        </clipPath>
        <linearGradient x2="1" gradientUnits="userSpaceOnUse" gradientTransform="matrix(0 -520.0401 -520.0401 0 384.5 923.768)" id="f">
            <stop offset="0" stop-color="#f8f9fa" />
            <stop offset="1" stop-color="#e2e2e2" />
        </linearGradient>
        <linearGradient x2="1" gradientUnits="userSpaceOnUse" gradientTransform="matrix(0 397.48068 397.48068 0 384.499 465.807)" id="e">
            <stop offset="0" stop-color="#fbac18" />
            <stop offset="1" stop-color="#b24e13" />
        </linearGradient>
        <linearGradient x2="1" gradientUnits="userSpaceOnUse" gradientTransform="scale(416.32126) rotate(-90 1.51 .587)" id="d">
            <stop offset="0" stop-color="#fbac18" />
            <stop offset="1" stop-color="#f36b21" />
        </linearGradient>
        <clipPath id="c">
            <path d="M0 1334h768V0H0z" />
        </clipPath>
        <linearGradient x2="1" gradientUnits="userSpaceOnUse" gradientTransform="scale(520.04468) rotate(-90 1.258 .518)" id="b">
            <stop offset="0" stop-color="#f6881f" />
            <stop offset="1" stop-color="#e3711d" />
        </linearGradient>
        <linearGradient x2="1" gradientUnits="userSpaceOnUse" gradientTransform="matrix(0 -525.31934 -525.31934 0 384.5 926.397)" id="a">
            <stop offset="0" stop-color="#f6881f" />
            <stop offset="1" stop-color="#a6410f" />
        </linearGradient>
    </defs>
    <path d="M122.873 664.771c0-144.26 117.366-261.627 261.625-261.627 144.26 0 261.627 117.367 261.627 261.627S528.758 926.397 384.498 926.397c-144.259 0-261.625-117.366-261.625-261.626" fill="url(#a)" transform="matrix(.35278 0 0 -.35278 -42.66 327.41)" />
    <path d="M125.501 664.768c0-143.041 115.955-259 258.999-259 143.039 0 258.996 115.959 258.996 259 0 143.04-115.957 258.998-258.996 258.998-143.044 0-258.999-115.958-258.999-258.998" fill="url(#b)" transform="matrix(.35278 0 0 -.35278 -42.66 327.41)" />
    <g clip-path="url(#c)" transform="matrix(.35278 0 0 -.35278 -42.66 327.41)">
        <path d="M385.419 649.578c98.849 0 188.856 17.043 256.367 44.959-14.767 129.019-124.315 229.229-257.287 229.229-132.719 0-242.102-99.832-257.202-228.493 67.702-28.35 158.411-45.695 258.122-45.695" fill="#f8981c" />
        <path d="M164.233 797.987c17.752 28.715 45.065 59.762 83.052 83.442 37.658 23.786 86.015 39.59 137.58 39.375 51.562.043 99.877-15.873 137.459-39.783 37.919-23.787 65.139-54.908 82.806-83.672 35.207-58.681 35.438-103.6 36.656-102.813-.241-.174-.352 1.991-.774 6.106C623.545 826.699 515.365 923.766 384.5 923.766c-130.457 0-238.36-96.455-256.342-221.938-.476-4.399-.607-6.734-.861-6.555 1.19-.79 1.55 44.14 36.936 102.714" fill="#ffcf34" />
    </g>
    <path d="M176.336 664.771c0-114.968 93.198-208.163 208.162-208.163 114.964 0 208.164 93.195 208.164 208.163 0 114.958-93.2 208.159-208.164 208.159-114.964 0-208.162-93.201-208.162-208.159" fill="url(#d)" transform="matrix(.35278 0 0 -.35278 -42.66 327.41)" />
    <path d="M185.539 664.764c0-109.707 89.254-198.957 198.961-198.957 109.707 0 198.958 89.25 198.958 198.957S494.207 863.727 384.5 863.727s-198.961-89.256-198.961-198.963" fill="url(#e)" transform="matrix(.35278 0 0 -.35278 -42.66 327.41)" />
    <path d="M192.554 664.771c0-105.844 86.104-191.947 191.946-191.947 105.841 0 191.944 86.103 191.944 191.947 0 105.841-86.103 191.945-191.944 191.945-105.842 0-191.946-86.104-191.946-191.945" fill="url(#f)" transform="matrix(.35278 0 0 -.35278 -42.66 327.41)" />
    <g clip-path="url(#g)" transform="matrix(.35278 0 0 -.35278 -42.66 327.41)">
        <path d="M384.498 856.71c105.842 0 191.945-86.102 191.945-191.945 0-105.842-86.103-191.947-191.945-191.947s-191.945 86.105-191.945 191.947c0 105.843 86.103 191.946 191.945 191.946" fill="#f26721" />
        <path d="M593.36 664.768c-.618.329.122-9.234-2.25-25.465-12.56-102.948-100.267-182.694-206.61-182.694-107.042 0-195.2 80.802-206.845 184.736 1.446-16.632 5.943-41.067 19.18-69.918 12.75-26.89 34.453-56.687 66.965-79.827 32.133-23.244 75.238-39.067 121.399-38.938 46.164-.13 89.268 15.69 121.405 38.929 32.519 23.14 54.229 52.928 66.984 79.825 25.24 55 18.74 93.998 19.773 93.352" fill="#c36616" />
        <path d="M385.42 679.578c68.178 0 132.12 8.129 187.405 22.318-17.344 88.132-95.186 154.815-188.327 154.815-92.98 0-170.719-66.453-188.24-154.36 55.687-14.467 120.26-22.773 189.161-22.773" fill="#f47920" />
    </g>
</svg>