<?xml version="1.0" standalone="no"?>
<!DOCTYPE svg PUBLIC "-//W3C//DTD SVG 1.1//EN" "http://www.w3.org/Graphics/SVG/1.1/DTD/svg11.dtd" >
<svg xmlns="http://www.w3.org/2000/svg" xmlns:xlink="http://www.w3.org/1999/xlink" version="1.1">
<metadata>
Created by FontForge 20170731 at Sun Oct 14 01:03:57 2007
 By ,,,
Copyright (c) ParaType, Inc., 2007. All rights reserved.
</metadata>
<defs>
<font id="PragmaticaBlack-Obl" horiz-adv-x="822" >
  <font-face 
    font-family="Pragmatica Black"
    font-weight="900"
    font-style="italic"
    font-stretch="normal"
    units-per-em="1000"
    panose-1="2 11 9 3 4 5 2 9 2 4"
    ascent="800"
    descent="-200"
    x-height="508"
    cap-height="700"
    bbox="-250 -324.073 1262 974"
    underline-thickness="50"
    underline-position="-200"
    slope="-12"
    unicode-range="U+0020-2215"
  />
<missing-glyph horiz-adv-x="233" 
 />
    <glyph glyph-name="fi" unicode="fi" horiz-adv-x="741" 
d="M730 508l-108 -508h-208l79 370h-152l-79 -370h-208l79 370h-93l29 138h93l3 15q16 77 58 119q57 58 177 58q55 0 113 -10l-27 -125q-26 6 -46 6q-34 0 -51 -17q-13 -13 -17 -36l-2 -10h360zM535 568l28 132h208l-28 -132h-208z" />
    <glyph glyph-name="fl" unicode="fl" horiz-adv-x="738" 
d="M522 508l41 192h210l-149 -700h-210l79 370h-152l-79 -370h-208l79 370h-93l29 138h93l4 15q20 79 57 117q59 60 174 60q61 0 114 -10l-27 -125q-24 6 -48 6q-30 0 -47 -17q-11 -11 -17 -36l-2 -10h152z" />
    <glyph glyph-name="afii10017.var.accented" unicode="&#x410;`" horiz-adv-x="663" 
d="M169 99l-53 -99h-226l408 700h215l110 -700h-226l-11 99h-217zM243 243h131l-22 210zM425 898h189l-140 -132h-143z" />
    <glyph glyph-name="afii10022.var.accented" unicode="&#x415;`" horiz-adv-x="737" 
d="M323 436h311l-35 -165h-311l-19 -86h371l-39 -185h-589l149 700h581l-39 -185h-363zM459 898h189l-140 -132h-143z" />
    <glyph glyph-name="afii10026.var.accented" unicode="&#x418;`" horiz-adv-x="808" 
d="M293 325l291 375h212l-149 -700h-212l81 379l-292 -379h-212l149 700h212zM490 898h189l-140 -132h-143z" />
    <glyph glyph-name="afii10032.var.accented" unicode="&#x41e;`" 
d="M455 719q166 0 253 -89q84 -86 84 -225q0 -88 -34 -179.5t-97 -148.5q-106 -96 -289 -96q-167 0 -253 80q-89 82 -89 233q0 99 40.5 191.5t111.5 148.5q105 85 273 85zM266 295q0 -55 26 -89q31 -41 94 -41q54 0 92 32q37 30 58.5 91.5t21.5 118.5q0 58 -28 92
q-29 36 -86 36q-59 0 -102 -40q-37 -34 -56.5 -91t-19.5 -109zM446 898h189l-140 -132h-143z" />
    <glyph glyph-name="afii10037.var.accented" unicode="&#x423;`" horiz-adv-x="634" 
d="M346 392l161 308h227l-335 -535q-44 -71 -79 -106q-42 -41 -84.5 -54.5t-96.5 -13.5q-80 0 -144 24l36 170q32 -14 71 -14q61 0 87 42l-134 487h239zM386 898h189l-140 -132h-143z" />
    <glyph glyph-name="afii10045.var.accented" unicode="&#x42b;`" horiz-adv-x="1063" 
d="M833 700h218l-149 -700h-218zM377 700l-51 -241h125q111 0 168 -50q63 -53 63 -154q0 -62 -23.5 -117t-65.5 -86q-70 -52 -235 -52h-346l149 700h216zM291 297l-26 -125h118q41 0 61 13q27 17 27 54q0 29 -21 44q-20 14 -55 14h-104zM597 898h189l-140 -132h-143z" />
    <glyph glyph-name="afii10047.var.accented" unicode="&#x42d;`" horiz-adv-x="762" 
d="M257 446h-217q32 132 137 205q91 64 243 64q165 0 248 -86q82 -85 82 -236q0 -88 -31.5 -172.5t-84.5 -137.5q-104 -103 -298 -103q-155 0 -237 64q-89 69 -89 181q0 10 2 32h210q0 -63 30 -92q30 -30 91 -30t96 31q46 40 55 114h-221l30 141h214q8 63 -29 99
q-31 31 -88 31q-59 0 -95 -30q-34 -26 -48 -75zM425 898h189l-140 -132h-143z" />
    <glyph glyph-name="afii10048.var.accented" unicode="&#x42e;`" horiz-adv-x="1158" 
d="M327 454h85q40 122 133 192q97 73 246 73q165 0 253 -89q84 -86 84 -232q0 -95 -37.5 -186t-114.5 -151q-103 -80 -267 -80q-167 0 -249 82q-36 36 -58 91.5t-19 121.5h-94l-59 -276h-218l149 700h218zM602 295q0 -55 26 -89q31 -41 94 -41q54 0 92 32q37 30 58.5 91
t21.5 118q0 59 -28 93q-29 36 -86 36q-59 0 -102 -40q-37 -34 -56.5 -91t-19.5 -109zM617 898h189l-140 -132h-143z" />
    <glyph glyph-name="afii10049.var.accented" unicode="&#x42f;`" horiz-adv-x="786" 
d="M456 230h-33l-177 -230h-266l227 253q-61 19 -95 62q-37 47 -37 120q0 116 75 186q83 79 249 79h375l-149 -700h-218zM519 526h-121q-55 0 -79 -25q-21 -21 -21 -52q0 -29 22 -46q19 -14 59 -14h111zM474 898h189l-140 -132h-143z" />
    <glyph glyph-name="afii10065.var.accented" unicode="&#x430;`" horiz-adv-x="622" 
d="M264 335h-197q21 79 82 128q74 58 203 58q112 0 172 -37q68 -45 68 -132q0 -29 -9 -69l-42 -199q-6 -27 -6 -43t8 -24q6 -6 16 -10l-1 -7h-220l-6 51h-3q-28 -29 -67 -48q-47 -21 -108 -21q-80 0 -121 44q-33 35 -33 90q0 70 45 113q46 44 165 58l70 8q72 9 89 20
q20 13 20 41q0 20 -15 32q-14 11 -42 11q-32 0 -49 -17q-18 -18 -19 -47zM357 210l4 17q-20 -15 -70 -24q-43 -7 -60 -20q-19 -14 -19 -36q0 -21 13 -32q12 -11 38 -11q32 0 58 26q23 23 36 80zM355 700h189l-140 -132h-143z" />
    <glyph glyph-name="afii10070.var.accented" unicode="&#x435;`" horiz-adv-x="649" 
d="M387 147h206q-33 -83 -108 -125q-71 -40 -187 -40q-134 0 -203 61q-67 60 -67 165q0 70 24.5 130t64.5 100q88 88 246 88q139 0 209 -68q55 -54 55 -147q0 -48 -16 -99h-369q-4 -16 -4 -34q0 -37 22 -55q19 -17 53 -17q27 0 47 11t27 30zM262 312h158q10 50 -14 74
q-18 16 -46 16q-34 0 -61 -25q-24 -23 -37 -65zM369 700h189l-140 -132h-143z" />
    <glyph glyph-name="afii10074.var.accented" unicode="&#x438;`" horiz-adv-x="707" 
d="M253 222l240 286h208l-108 -508h-200l55 260l10 27h-4l-240 -287h-208l108 508h200l-55 -260l-10 -26h4zM398 700h189l-140 -132h-143z" />
    <glyph glyph-name="afii10080.var.accented" unicode="&#x43e;`" horiz-adv-x="666" 
d="M364 394q-37 0 -64 -24t-43.5 -70t-16.5 -96q0 -47 18 -69q19 -21 51 -21q37 0 64 27q25 25 39 75.5t14 94.5q0 40 -16 61q-17 22 -46 22zM638 290q0 -143 -88 -227q-52 -49 -112.5 -65t-136.5 -16q-144 0 -212 67q-61 60 -61 163q0 142 94 231q88 83 246 83
q136 0 205 -67q65 -63 65 -169zM377 700h189l-140 -132h-143z" />
    <glyph glyph-name="afii10085.var.accented" unicode="&#x443;`" horiz-adv-x="576" 
d="M-10 -173l29 132q30 -8 49 -8q32 0 53 14t30 40l6 16l-127 487h206l54 -313l145 313h201l-265 -500q-59 -111 -105 -148q-58 -46 -162 -46q-59 0 -114 13zM332 700h189l-140 -132h-143z" />
    <glyph glyph-name="afii10093.var.accented" unicode="&#x44b;`" horiz-adv-x="894" 
d="M680 508h208l-108 -508h-208zM320 508l-37 -174h104q93 0 138 -40q44 -40 44 -109q0 -82 -48 -130q-55 -55 -186 -55h-329l108 508h206zM260 226l-26 -121h45q48 0 68 20q20 18 20 49q0 30 -22 42q-16 10 -49 10h-36zM491 700h189l-140 -132h-143z" />
    <glyph glyph-name="afii10095.var.accented" unicode="&#x44d;`" horiz-adv-x="641" 
d="M252 204l22 103h141q0 50 -16 69q-19 24 -61 24q-48 0 -78 -28q-26 -24 -35 -60h-181q24 98 100 154q79 59 205 59q133 0 200 -64q64 -62 64 -171q0 -140 -87 -227q-50 -50 -110 -66t-134 -16q-143 0 -206 62q-27 26 -42 68.5t-11 86.5h176v-3q0 -42 21 -63
q22 -22 69 -22q43 0 71 25q29 26 38 69h-146zM365 700h189l-140 -132h-143z" />
    <glyph glyph-name="afii10096.var.accented" unicode="&#x44e;`" horiz-adv-x="943" 
d="M284 331h61q29 88 101 140q76 55 198 55q139 0 211 -74q60 -63 60 -161q0 -64 -22.5 -125.5t-63.5 -101.5q-83 -82 -239 -82q-141 0 -208 66q-60 60 -60 151h-66l-42 -199h-208l108 508h208zM643 394q-37 0 -64 -24t-43.5 -70t-16.5 -96q0 -47 18 -69q19 -21 51 -21
q37 0 64 27q24 25 38.5 74.5t14.5 94.5q0 42 -16 62q-17 22 -46 22zM516 700h189l-140 -132h-143z" />
    <glyph glyph-name="afii10097.var.accented" unicode="&#x44f;`" horiz-adv-x="640" 
d="M333 166l-128 -166h-225l166 181q-36 8 -60 37q-29 34 -29 90q0 86 54 138q63 62 193 62h330l-108 -508h-210l35 166h-18zM400 396h-47q-44 0 -65 -16q-27 -19 -27 -53q0 -27 21 -42q19 -13 57 -13h35zM388 700h189l-140 -132h-143z" />
    <glyph glyph-name=".notdef" horiz-adv-x="233" 
 />
    <glyph glyph-name=".null" horiz-adv-x="0" 
 />
    <glyph glyph-name="nonmarkingreturn" horiz-adv-x="333" 
 />
    <glyph glyph-name="space" unicode=" " horiz-adv-x="233" 
 />
    <glyph glyph-name="exclam" unicode="!" horiz-adv-x="431" 
d="M30 0l40 191h210l-40 -191h-210zM245 270h-106l-2 264l38 182h224l-38 -182z" />
    <glyph glyph-name="quotedbl" unicode="&#x22;" horiz-adv-x="664" 
d="M382 700l-99 -197h-98l-15 197h212zM644 700l-99 -197h-98l-15 197h212z" />
    <glyph glyph-name="numbersign" unicode="#" horiz-adv-x="752" 
d="M490 0h-96l26 163h-161l-26 -163h-97l26 163h-152l18 103h152l33 187h-154l18 103h152l25 144h97l-24 -144h160l25 144h96l-23 -144h152l-18 -103h-151l-32 -187h153l-19 -103h-153zM439 266l33 187h-162l-33 -187h162z" />
    <glyph glyph-name="dollar" unicode="$" horiz-adv-x="720" 
d="M24 231h200q-11 -52 13 -79q14 -17 43 -23l32 151l-60 16q-66 17 -112 55q-58 49 -58 125q0 116 94 183q41 29 103 45t123 14l16 76h79l-17 -79q85 -5 141 -42q88 -57 71 -173h-198q9 36 -9 55q-14 14 -39 18l-27 -132l51 -14q86 -23 124 -61q53 -53 53 -132
q0 -55 -25 -107t-73 -88q-42 -31 -102 -48t-123 -13l-16 -74h-79l16 76q-48 -1 -96 16.5t-78 49.5q-61 66 -47 185zM348 453l26 123q-42 0 -65 -22q-20 -20 -20 -48q0 -26 18 -38q9 -7 41 -15zM381 265l-28 -138q30 -1 57 17q29 22 29 61q0 24 -12 37q-13 14 -46 23z" />
    <glyph glyph-name="percent" unicode="%" horiz-adv-x="850" 
d="M425 565q0 -50 -19 -101t-55 -86q-58 -56 -161 -56q-82 0 -121 38q-41 39 -41 115q0 51 19 100.5t52 83.5q59 63 157 63q86 0 127 -41q42 -42 42 -116zM241 607q-26 0 -44 -19q-15 -16 -24.5 -45.5t-9.5 -54.5q0 -28 15 -41q12 -10 31 -10q24 0 42 17q15 14 26 46t11 59
q0 24 -12 36q-10 12 -35 12zM69 0l624 713h101l-619 -713h-106zM822 222q0 -53 -19.5 -104t-53.5 -84q-26 -25 -57.5 -38t-52.5 -15.5t-52 -2.5q-82 0 -121 38q-41 41 -41 115q0 51 19 100.5t52 83.5q60 63 159 63q82 0 125 -41q42 -42 42 -115zM638 263q-26 0 -44 -19
q-15 -16 -24.5 -45.5t-9.5 -54.5q0 -28 15 -41q12 -10 31 -10q24 0 42 17q15 14 26 46t11 59q0 24 -12 36q-10 12 -35 12z" />
    <glyph glyph-name="ampersand" unicode="&#x26;" horiz-adv-x="696" 
d="M501 338h170q-37 -90 -124 -174l99 -164h-229l-26 47q-77 -64 -186 -64q-101 0 -158 46q-62 49 -62 142q0 101 69 164q51 47 132 72q-3 5 -8.5 17.5t-12 38t-6.5 47.5q0 78 54 134q67 67 177 67q90 0 148 -52q42 -39 42 -107q0 -80 -58 -134q-40 -37 -95 -57l45 -71
q19 20 29 48zM319 171l-63 116q-36 -11 -58 -34t-22 -53q0 -26 18 -41t48 -15q39 0 77 27zM356 471q36 12 58 34q20 20 20 49q0 17 -10 27q-11 13 -37 13q-30 0 -45 -17q-14 -14 -14 -40q0 -10 2.5 -19t5.5 -14t10 -16.5t10 -16.5z" />
    <glyph glyph-name="quotesingle" unicode="'" horiz-adv-x="402" 
d="M382 700l-99 -197h-98l-15 197h212z" />
    <glyph glyph-name="parenleft" unicode="(" horiz-adv-x="438" 
d="M321 761h162q-106 -189 -123 -222q-104 -207 -104 -404q0 -73 11 -158q9 -70 22 -129h-162q-22 58 -38 122q-24 98 -24 192q0 204 116 399q55 94 140 200z" />
    <glyph glyph-name="parenright" unicode=")" horiz-adv-x="438" 
d="M129 761h162q23 -66 39 -126q23 -89 23 -178q0 -118 -29.5 -212.5t-83.5 -188.5q-59 -103 -143 -208h-162q67 110 124 230q50 105 75 196.5t25 205.5q0 82 -9 155q-8 68 -21 126z" />
    <glyph glyph-name="asterisk" unicode="*" horiz-adv-x="468" 
d="M276 548l-83 -85l-61 57l78 82l-90 33l50 89l90 -34l21 102h93l-21 -102l104 34l11 -89l-104 -33l45 -82l-87 -57z" />
    <glyph glyph-name="plus" unicode="+" horiz-adv-x="671" 
d="M45 390h243v243h85v-243h243v-85h-243v-243h-85v243h-243v85z" />
    <glyph glyph-name="comma" unicode="," horiz-adv-x="411" 
d="M28 0l40 189h203l-36 -166q-22 -100 -71 -148q-62 -62 -170 -62h-6l21 98h4q50 0 78 20q33 22 45 69h-108z" />
    <glyph glyph-name="hyphen" unicode="-" horiz-adv-x="548" 
d="M40 205l39 185h399l-39 -185h-399z" />
    <glyph glyph-name="period" unicode="." horiz-adv-x="415" 
d="M30 0l42 196h203l-42 -196h-203z" />
    <glyph glyph-name="slash" unicode="/" horiz-adv-x="490" 
d="M-120 -185l555 885h85l-555 -885h-85z" />
    <glyph glyph-name="zero" unicode="0" horiz-adv-x="720" 
d="M302 -10q-142 0 -209 65q-72 70 -72 205q0 103 38 198t102 157q102 98 262 98q138 0 209 -70q67 -67 67 -187q0 -98 -34.5 -206.5t-99.5 -169.5q-95 -90 -263 -90zM314 141q50 0 84 34q39 40 65 137q23 88 23 145q0 54 -22 80q-21 25 -60 25q-49 0 -83 -37
q-38 -41 -64 -126q-24 -78 -24 -154q0 -55 23 -81q20 -23 58 -23z" />
    <glyph glyph-name="one" unicode="1" horiz-adv-x="720" 
d="M156 466l24 110h12q72 0 127 26q66 31 99 98h171l-149 -700h-222l99 466h-161z" />
    <glyph glyph-name="two" unicode="2" horiz-adv-x="720" 
d="M617 171l-36 -171h-584l2 13q18 112 94 188q52 52 157 102l86 41q71 33 104 63q41 36 41 86q0 37 -23 56q-20 18 -59 18q-53 0 -83 -34q-27 -32 -32 -83h-198q9 63 38.5 115.5t71.5 84.5q83 64 230 64q128 0 194 -52q73 -58 73 -156q0 -87 -62 -146q-47 -46 -141 -86
l-37 -16q-7 -3 -20.5 -9t-20.5 -9t-20 -8.5t-20 -8.5q-34 -16 -48 -27t-20 -25h313z" />
    <glyph glyph-name="three" unicode="3" horiz-adv-x="720" 
d="M34 260h191q-4 -20 -4 -36q0 -46 26 -68q25 -22 75 -22q57 0 88 32q23 24 23 58q0 41 -32 59q-21 13 -79 13h-38l28 131h40q62 0 90 14q42 20 42 66q0 35 -29 53q-20 13 -64 13q-54 0 -83 -32q-27 -30 -30 -72h-191q12 97 77 160q83 82 247 82q120 0 187 -41
q81 -50 81 -146q0 -75 -50 -119q-38 -34 -101 -48l-1 -5q45 -9 75 -41q33 -35 33 -92q0 -93 -59 -152q-48 -48 -111.5 -63.5t-144.5 -15.5q-44 0 -73 2t-73 15t-74 38q-70 59 -70 168q0 13 4 49z" />
    <glyph glyph-name="four" unicode="4" horiz-adv-x="720" 
d="M328 149h-330l35 164l422 387h202l-84 -393h90l-33 -158h-90l-32 -149h-212zM199 307h172l41 190z" />
    <glyph glyph-name="five" unicode="5" horiz-adv-x="720" 
d="M36 219h202v-3q0 -39 18 -57q21 -21 60 -21q54 0 88 40q35 40 35 102q0 40 -22 62q-20 20 -60 20q-59 0 -84 -43h-208l123 381h496l-33 -155h-357l-34 -105q63 49 159 49q106 0 164 -56q60 -56 60 -153q0 -58 -22 -115t-60 -95q-84 -85 -249 -85q-67 0 -119.5 13
t-93.5 55q-63 65 -63 163v3z" />
    <glyph glyph-name="six" unicode="6" horiz-adv-x="720" 
d="M690 524h-185q-5 28 -26 41q-21 14 -58 14q-66 0 -111 -45q-37 -39 -51 -96q49 45 150 45q116 0 176 -58q59 -55 59 -156q0 -128 -81 -205q-81 -79 -232 -79q-142 0 -214 72q-74 72 -74 213q0 99 37 195.5t99 155.5q98 94 252 94q113 0 179 -43q79 -53 80 -148zM356 359
q-60 0 -94 -35q-36 -36 -36 -95q0 -50 31 -78q27 -23 69 -23q63 0 97 36q35 38 35 96q0 52 -31 78q-25 21 -71 21z" />
    <glyph glyph-name="seven" unicode="7" horiz-adv-x="720" 
d="M99 529l36 171h592l-33 -154q-136 -115 -226 -270q-74 -128 -104 -276h-224q34 158 143 310q68 96 196 219h-380z" />
    <glyph glyph-name="eight" unicode="8" horiz-adv-x="720" 
d="M339 309q-55 0 -87 -26q-33 -27 -33 -71q0 -38 31 -61q25 -18 70 -18q59 0 90 23q34 25 34 71q0 45 -33 66q-26 16 -72 16zM566 357q78 -49 78 -146q0 -113 -91 -174q-77 -51 -241 -51q-140 0 -206 40q-86 52 -86 157q0 70 42 121q41 51 109 66q-72 39 -72 120
q0 102 85 164q80 59 231 59q130 0 199 -47q76 -50 76 -149q0 -68 -42 -110q-30 -32 -82 -50zM398 581q-56 0 -86 -28q-29 -27 -29 -68q0 -37 30 -56q24 -15 69 -15q51 0 81 21q34 24 34 68q0 39 -29 60q-24 18 -70 18z" />
    <glyph glyph-name="nine" unicode="9" horiz-adv-x="720" 
d="M34 176h178q4 -27 25 -41q22 -16 62 -16q63 0 98 33q38 36 51 103q-53 -38 -146 -38q-111 0 -169 54q-60 56 -60 150q0 63 24 119t63 93q84 80 236 80q140 0 211 -72q67 -68 67 -194q0 -90 -31 -197t-99 -175q-54 -54 -115.5 -72t-139.5 -18q-126 0 -187 46
q-69 53 -68 145zM492 472q0 44 -26 72q-25 26 -73 26q-55 0 -90 -35q-42 -40 -42 -101q0 -46 28 -70q25 -23 71 -23q62 0 96 35q36 36 36 96z" />
    <glyph glyph-name="colon" unicode=":" horiz-adv-x="405" 
d="M30 0l42 196h202l-42 -196h-202zM89 276l42 197h202l-42 -197h-202z" />
    <glyph glyph-name="semicolon" unicode=";" horiz-adv-x="401" 
d="M85 283l42 197h202l-42 -197h-202zM28 13l40 189h202l-36 -171q-21 -92 -68 -141q-62 -64 -173 -64h-5l21 98h4q47 0 78 20q35 25 44 69h-107z" />
    <glyph glyph-name="less" unicode="&#x3c;" horiz-adv-x="648" 
d="M132 357l456 -255l-41 -80l-506 283v104l506 283l41 -80z" />
    <glyph glyph-name="equal" unicode="=" horiz-adv-x="666" 
d="M45 462h566v-85h-566v85zM45 282h566v-85h-566v85z" />
    <glyph glyph-name="greater" unicode="&#x3e;" horiz-adv-x="648" 
d="M516 357l-456 255l41 80l506 -283v-104l-506 -283l-41 80z" />
    <glyph glyph-name="question" unicode="?" horiz-adv-x="593" 
d="M97 0l38 178h203l-38 -178h-203zM241 468h-201l2 9q21 99 79 155q79 77 228 77q114 0 175 -36q79 -46 79 -137q0 -71 -46 -117q-24 -24 -89 -53l-29 -13q-52 -23 -71 -42q-25 -24 -31 -66h-164q6 58 33 101q16 26 33.5 40.5t45.5 30.5l34 19q33 19 47 34q20 23 20 51
q0 27 -17 39q-14 10 -39 10q-36 0 -59 -23q-19 -19 -28 -67z" />
    <glyph glyph-name="at" unicode="@" horiz-adv-x="869" 
d="M491 519v22h156v-246q0 -57 35 -57q32 0 51 36q18 36 18 93q0 140 -92 226q-84 77 -218 77q-141 0 -230 -86q-93 -89 -93 -241q0 -144 93 -235q87 -84 223 -84q97 0 173 52l41 -77q-95 -59 -215 -59q-178 0 -284 97q-57 52 -89 132.5t-32 174.5q0 182 119 299
q112 111 290 111q191 0 301 -112q103 -104 103 -268q0 -130 -64 -189q-44 -41 -119 -41q-48 0 -81 17q-26 14 -38 36q-39 -53 -129 -53t-145 58q-54 58 -54 147q0 96 49 153q48 55 131 55q66 0 100 -38zM429 457q-24 0 -38 -14q-26 -25 -26 -88q0 -73 25 -97q15 -15 39 -15
t39 15q25 25 25 97q0 64 -24 88q-14 14 -40 14z" />
    <glyph glyph-name="A" unicode="A" horiz-adv-x="663" 
d="M169 99l-53 -99h-226l408 700h215l110 -700h-226l-11 99h-217zM243 243h131l-22 210z" />
    <glyph glyph-name="B" unicode="B" horiz-adv-x="768" 
d="M161 700h385q106 0 154 -45q46 -42 46 -114q0 -73 -46 -119q-39 -39 -98 -51l-1 -4q43 -13 72 -40q39 -38 39 -101q0 -60 -23 -105t-58 -70q-69 -51 -235 -51h-384zM345 542l-24 -112h110q45 0 65 16q21 17 21 47q0 29 -20 40q-14 9 -48 9h-104zM291 285l-27 -127h125
q55 0 76 17q23 19 23 54q0 32 -22 46q-16 10 -54 10h-121z" />
    <glyph glyph-name="C" unicode="C" horiz-adv-x="775" 
d="M508 258h220q-27 -107 -99 -181q-96 -97 -263 -97q-164 0 -250 84t-86 232q0 95 33.5 180.5t91.5 140.5q108 101 289 101q155 0 238 -79q70 -67 68 -192h-211q3 38 -21 64q-25 25 -76 25q-59 0 -102 -38q-38 -34 -56 -88t-18 -103q0 -70 30 -107q30 -39 92 -39
q49 0 79 29q29 26 41 68z" />
    <glyph glyph-name="D" unicode="D" horiz-adv-x="803" 
d="M161 700h301q169 0 244 -75q72 -72 72 -204q0 -80 -29 -172t-91 -151q-103 -98 -313 -98h-333zM340 516l-70 -328h62q31 0 51 1.5t50 12.5t51 31q27 27 42.5 76t15.5 93q0 61 -33 88q-33 26 -112 26h-57z" />
    <glyph glyph-name="E" unicode="E" horiz-adv-x="737" 
d="M323 436h311l-35 -165h-311l-19 -86h371l-39 -185h-589l149 700h581l-39 -185h-363z" />
    <glyph glyph-name="F" unicode="F" horiz-adv-x="689" 
d="M319 417h286l-37 -171h-286l-52 -246h-218l149 700h563l-41 -192h-345z" />
    <glyph glyph-name="G" unicode="G" horiz-adv-x="808" 
d="M459 386h306l-82 -386h-160v59q-68 -80 -199 -80q-140 0 -216 81q-78 82 -78 227q0 94 32.5 179.5t90.5 141.5q113 109 314 109q165 0 246 -81q72 -72 65 -178h-225q4 40 -22 64q-24 24 -73 24q-65 0 -111 -41q-38 -35 -57 -91t-19 -113q0 -78 36 -116q32 -34 88 -34
q40 0 75.5 19.5t51.5 61.5h-96z" />
    <glyph glyph-name="H" unicode="H" horiz-adv-x="804" 
d="M289 275l-59 -275h-218l149 700h218l-51 -241h195l51 241h218l-149 -700h-218l59 275h-195z" />
    <glyph glyph-name="I" unicode="I" horiz-adv-x="391" 
d="M161 700h218l-149 -700h-218z" />
    <glyph glyph-name="J" unicode="J" horiz-adv-x="639" 
d="M-6 276h214l-6 -22q-8 -32 -8 -49q0 -26 14 -39q12 -11 32 -11q29 0 44 15q15 14 23 51l102 479h218l-95 -445q-9 -43 -15 -66t-26 -65t-47 -69q-76 -75 -226 -75q-128 0 -187 58q-51 49 -51 139q0 33 13 94z" />
    <glyph glyph-name="K" unicode="K" horiz-adv-x="783" 
d="M330 471l269 229h264l-346 -297l210 -403h-264l-123 263l-66 -60l-44 -203h-218l149 700h218z" />
    <glyph glyph-name="L" unicode="L" horiz-adv-x="602" 
d="M572 185l-39 -185h-521l149 700h218l-110 -515h303z" />
    <glyph glyph-name="M" unicode="M" horiz-adv-x="1008" 
d="M350 0l-41 465l-5 -1l-7 -53l-87 -411h-198l149 700h296l29 -396l-5 -48h5l18 48l196 396h296l-149 -700h-198l87 411l17 53l-5 1l-239 -465h-159z" />
    <glyph glyph-name="N" unicode="N" horiz-adv-x="823" 
d="M313 392h-5l-6 -53l-72 -339h-218l149 700h218l131 -392h5l6 53l72 339h218l-149 -700h-218z" />
    <glyph glyph-name="O" unicode="O" 
d="M455 719q166 0 253 -89q84 -86 84 -225q0 -88 -34 -179.5t-97 -148.5q-106 -96 -289 -96q-167 0 -253 80q-89 82 -89 233q0 99 40.5 191.5t111.5 148.5q105 85 273 85zM266 295q0 -55 26 -89q31 -41 94 -41q54 0 92 32q37 30 58.5 91.5t21.5 118.5q0 58 -28 92
q-29 36 -86 36q-59 0 -102 -40q-37 -34 -56.5 -91t-19.5 -109z" />
    <glyph glyph-name="P" unicode="P" horiz-adv-x="742" 
d="M161 700h345q128 0 185 -55q56 -54 56 -159q0 -132 -78 -208q-29 -27 -62 -44t-72.5 -23t-62 -7.5t-61.5 -1.5h-138l-43 -202h-218zM339 511l-30 -141h104q53 0 79 19q28 21 28 63q0 35 -24 49q-16 10 -55 10h-102z" />
    <glyph glyph-name="Q" unicode="Q" 
d="M637 86l57 -71l-117 -94l-68 93q-70 -33 -155 -33q-155 0 -239 83q-85 84 -85 236q0 94 35 182t114 150q110 87 271 87q164 0 256 -90q86 -84 86 -220q0 -31 -4.5 -62.5t-18 -80.5t-47.5 -96.5t-85 -83.5zM464 308l48 -62q47 68 47 166q0 67 -32 102q-28 32 -76 32
q-62 0 -108 -45q-34 -34 -55.5 -91.5t-21.5 -121.5q0 -73 33 -108q27 -30 80 -30q25 0 46 11l-54 73z" />
    <glyph glyph-name="R" unicode="R" horiz-adv-x="772" 
d="M12 0l149 700h359q122 0 176 -50q54 -48 54 -139q0 -87 -52 -140q-38 -39 -96 -51l-1 -5q26 -8 42 -25q28 -29 28 -73q0 -17 -7 -57l-10 -57q-6 -32 -6 -49q0 -29 13 -54h-223q-14 24 -14 52q0 14 4 34l6 37q8 53 8 59q0 33 -24 48q-20 12 -61 12h-76l-51 -242h-218z
M343 530l-30 -138h122q55 0 81 29q18 20 18 50t-21 46q-18 13 -63 13h-107z" />
    <glyph glyph-name="S" unicode="S" horiz-adv-x="646" 
d="M-3 231h217q-13 -55 18 -83q24 -21 72 -21q49 0 73 17q29 20 29 58q0 37 -34 52q-14 7 -72 19l-65 14q-82 17 -121 49q-57 45 -57 127q0 58 25.5 108t68.5 83q83 64 229 64q129 0 196 -45q75 -49 75 -143q0 -10 -2 -30h-204q6 39 -21 58q-19 12 -57 12q-45 0 -69 -20
q-18 -15 -18 -39q0 -28 31 -42q11 -6 78 -21l57 -13q91 -21 130 -60q46 -46 46 -132q0 -109 -71 -179q-88 -86 -268 -86q-145 0 -214 52q-74 57 -74 163q0 25 2 38z" />
    <glyph glyph-name="T" unicode="T" horiz-adv-x="605" 
d="M228 508h-198l41 192h614l-41 -192h-198l-108 -508h-218z" />
    <glyph glyph-name="U" unicode="U" horiz-adv-x="813" 
d="M803 700l-93 -438q-30 -137 -94 -199q-85 -82 -254 -82q-157 0 -232 62q-72 59 -72 167q0 40 18 124l79 366h219l-85 -391q-10 -48 -10 -64q0 -42 26 -66q24 -22 66 -22q52 0 83 34q28 30 40 85l90 424h219z" />
    <glyph glyph-name="V" unicode="V" horiz-adv-x="685" 
d="M320 256l30 71l174 373h236l-385 -700h-224l-86 700h235l18 -373l-3 -71h5z" />
    <glyph glyph-name="W" unicode="W" horiz-adv-x="987" 
d="M512 455l-182 -455h-221l-44 700h215l5 -375l-4 -81l34 87l154 369h188l1 -377l-5 -79l32 91l163 365h214l-341 -700h-218z" />
    <glyph glyph-name="X" unicode="X" horiz-adv-x="675" 
d="M303 193l-145 -193h-268l318 362l-162 338h241l75 -202l147 202h251l-298 -349l178 -351h-265z" />
    <glyph glyph-name="Y" unicode="Y" horiz-adv-x="660" 
d="M336 416l179 284h240l-341 -455l-52 -245h-218l52 245l-146 455h230z" />
    <glyph glyph-name="Z" unicode="Z" horiz-adv-x="633" 
d="M369 508h-302l41 192h575l-33 -155l-415 -353h367l-41 -192h-616l40 189z" />
    <glyph glyph-name="bracketleft" unicode="[" horiz-adv-x="469" 
d="M204 761h295l-28 -133h-96l-137 -644h96l-29 -136h-295z" />
    <glyph glyph-name="backslash" unicode="\" horiz-adv-x="434" 
d="M364 -185h-85l-179 885h85z" />
    <glyph glyph-name="bracketright" unicode="]" horiz-adv-x="469" 
d="M439 761l-194 -913h-295l29 136h96l137 644h-96l28 133h295z" />
    <glyph glyph-name="asciicircum" unicode="^" horiz-adv-x="510" 
d="M310 627l-115 -145h-145l186 218h180l94 -218h-145z" />
    <glyph glyph-name="underscore" unicode="_" horiz-adv-x="625" 
d="M-35 -190l18 85h497l-18 -85h-497z" />
    <glyph glyph-name="grave" unicode="`" horiz-adv-x="375" 
d="M283 700l38 -132h-143l-84 132h189z" />
    <glyph glyph-name="a" unicode="a" horiz-adv-x="622" 
d="M264 335h-197q21 79 82 128q74 58 203 58q112 0 172 -37q68 -45 68 -132q0 -29 -9 -69l-42 -199q-6 -27 -6 -43t8 -24q6 -6 16 -10l-1 -7h-220l-6 51h-3q-28 -29 -67 -48q-47 -21 -108 -21q-80 0 -121 44q-33 35 -33 90q0 70 45 113q46 44 165 58l70 8q72 9 89 20
q20 13 20 41q0 20 -15 32q-14 11 -42 11q-32 0 -49 -17q-18 -18 -19 -47zM357 210l4 17q-20 -15 -70 -24q-43 -7 -60 -20q-19 -14 -19 -36q0 -21 13 -32q12 -11 38 -11q32 0 58 26q23 23 36 80z" />
    <glyph glyph-name="b" unicode="b" horiz-adv-x="696" 
d="M216 49l-10 -49h-200l149 700h210l-50 -235q56 61 154 61q86 0 137 -48q62 -57 62 -175q0 -73 -27.5 -141t-77.5 -113q-74 -67 -188 -67q-102 0 -155 67h-4zM252 208q0 -36 16 -61q20 -33 61 -33q42 0 71 32q24 26 37 68t13 81q0 41 -20 65t-53 24q-41 0 -72 -30
q-26 -24 -39.5 -65.5t-13.5 -80.5z" />
    <glyph glyph-name="c" unicode="c" horiz-adv-x="632" 
d="M394 200h196q-24 -106 -102 -164q-74 -54 -203 -54q-130 0 -194 63q-63 63 -63 172q0 141 90 228q86 84 239 84q132 0 200 -61q61 -57 52 -157h-193q8 46 -10 69q-13 17 -41 17q-36 0 -62 -26q-28 -29 -44 -78t-16 -90q0 -46 21 -70q19 -19 48 -19q32 0 52 22
q22 24 30 64z" />
    <glyph glyph-name="d" unicode="d" horiz-adv-x="701" 
d="M582 0h-200l10 45h-2q-62 -63 -162 -63q-91 0 -144 57q-56 59 -56 163q0 73 24.5 139t68.5 109q78 76 194 76q97 0 156 -61l50 235h210zM246 205q0 -37 16 -60q21 -31 60 -31q35 0 62 25q24 22 40 69.5t16 87.5q0 42 -20 67q-19 21 -51 21q-41 0 -70 -29
q-53 -53 -53 -150z" />
    <glyph glyph-name="e" unicode="e" horiz-adv-x="649" 
d="M387 147h206q-33 -83 -108 -125q-71 -40 -189 -40q-133 0 -201 61q-67 60 -67 165q0 70 24.5 130t64.5 100q88 88 246 88q139 0 209 -68q55 -54 55 -147q0 -48 -16 -99h-369q-4 -16 -4 -34q0 -37 22 -55q19 -17 53 -17q27 0 47 11t27 30zM262 312h158q10 50 -14 74
q-18 16 -46 16q-34 0 -61 -25q-24 -23 -37 -65z" />
    <glyph glyph-name="f" unicode="f" horiz-adv-x="411" 
d="M472 508l-29 -138h-118l-79 -370h-212l79 370h-93l29 138h93l2 8q24 96 72 136q59 48 167 48q65 0 128 -10l-27 -127q-26 8 -55 8q-36 0 -53 -16q-13 -12 -21 -43l-1 -4h118z" />
    <glyph glyph-name="g" unicode="g" horiz-adv-x="683" 
d="M20 -27h194q-1 -22 15 -34q14 -10 43 -10q41 0 60 19q19 17 31 70l10 46h-5q-54 -46 -132 -46q-100 0 -154 54t-54 148q0 60 22 121.5t63 102.5q76 78 205 78q102 0 147 -60h5l10 46h197l-97 -457q-15 -69 -38 -115.5t-74 -81.5q-72 -48 -212 -48q-114 0 -166 33
q-71 45 -70 134zM249 242q0 -41 17 -64q20 -28 54 -28q36 0 63 27q22 22 32 57.5t10 65.5q0 45 -22 67q-17 17 -46 17q-39 0 -67 -28q-41 -41 -41 -114z" />
    <glyph glyph-name="h" unicode="h" horiz-adv-x="675" 
d="M365 700l-50 -235q67 58 156 58q88 0 133 -45q36 -36 36 -100q0 -26 -9 -73l-65 -305h-210l59 276q6 22 6 44q0 27 -13 40q-12 13 -36 13q-35 0 -59 -24q-28 -28 -41 -89l-56 -260h-210l149 700h210z" />
    <glyph glyph-name="i" unicode="i" horiz-adv-x="339" 
d="M118 508h210l-108 -508h-210zM131 568l28 132h210l-28 -132h-210z" />
    <glyph glyph-name="j" unicode="j" horiz-adv-x="351" 
d="M139 561l30 139h212l-30 -139h-212zM128 508h211l-108 -507q-20 -99 -69 -142q-52 -47 -159 -47q-64 0 -113 10l30 142q15 -3 33 -3q33 0 50 16q16 16 23 52z" />
    <glyph glyph-name="k" unicode="k" horiz-adv-x="634" 
d="M290 350l171 158h233l-233 -204l136 -304l-229 1l-68 182l-55 -46l-29 -137h-210l149 700h210z" />
    <glyph glyph-name="l" unicode="l" horiz-adv-x="330" 
d="M155 700h210l-149 -700h-210z" />
    <glyph glyph-name="m" unicode="m" horiz-adv-x="993" 
d="M114 508h189l-14 -65h6q25 31 62 54q47 28 104 28q60 0 94 -25q34 -26 46 -71q31 40 72 65q53 31 118 31q84 0 127 -42q40 -39 40 -108q0 -33 -9 -74l-64 -301h-205l60 283q6 26 6 50q0 21 -12 33q-10 10 -31 10q-31 0 -56 -25q-30 -30 -45 -98l-54 -253h-205l59 277
q7 35 7 50q0 26 -12 38q-11 11 -29 11q-32 0 -58 -24q-28 -26 -42 -87l-57 -265h-205z" />
    <glyph glyph-name="n" unicode="n" horiz-adv-x="675" 
d="M315 508l-11 -54h4q63 69 161 69q87 0 132 -45q39 -41 39 -103q0 -23 -9 -70l-65 -305h-210l58 274q6 22 6 45q0 27 -13 41q-13 13 -36 13q-33 0 -56 -25q-28 -30 -43 -90l-56 -258h-210l108 508h201z" />
    <glyph glyph-name="o" unicode="o" horiz-adv-x="666" 
d="M364 394q-37 0 -64 -24t-43.5 -70t-16.5 -96q0 -47 18 -69q19 -21 51 -21q37 0 64 27q25 25 39 75.5t14 94.5q0 40 -16 61q-17 22 -46 22zM638 290q0 -143 -88 -227q-52 -49 -112.5 -65t-136.5 -16q-144 0 -212 67q-61 60 -61 163q0 142 94 231q88 83 246 83
q136 0 205 -67q65 -63 65 -169z" />
    <glyph glyph-name="p" unicode="p" horiz-adv-x="698" 
d="M114 508h200l-11 -51h2q60 69 160 69q98 0 151 -53q54 -54 54 -157q0 -72 -23 -145.5t-73 -121.5q-31 -29 -70 -45t-66.5 -19t-65.5 -3q-98 0 -148 55l-47 -222h-210zM255 207q0 -46 20 -69q20 -24 55 -24t64 25q27 24 40.5 70t13.5 84q0 49 -22 71q-20 20 -50 20
q-42 0 -69 -27q-25 -24 -38.5 -67t-13.5 -83z" />
    <glyph glyph-name="q" unicode="q" horiz-adv-x="696" 
d="M479 457l11 51h200l-147 -693h-210l47 222q-55 -55 -145 -55q-95 0 -149 55q-58 59 -58 166q0 153 90 243q79 79 206 79q105 0 153 -68h2zM442 295q0 45 -21 69q-18 20 -52 20q-39 0 -67 -25q-27 -24 -42 -68.5t-15 -88.5q0 -43 20 -65q21 -23 54 -23q40 0 69 28
q27 26 40.5 70.5t13.5 82.5z" />
    <glyph glyph-name="r" unicode="r" horiz-adv-x="479" 
d="M524 519l-35 -165q-38 5 -57 5q-76 0 -122 -48q-38 -40 -55 -127l-39 -184h-210l108 508h201l-15 -72q30 43 78 65q47 21 101 21q21 0 45 -3z" />
    <glyph glyph-name="s" unicode="s" horiz-adv-x="562" 
d="M-5 167h202q-9 -39 15 -59q16 -13 51 -13q32 0 48 12q19 13 19 38t-23 36q-14 7 -58 14l-48 8q-60 9 -95 29q-59 33 -59 105q0 78 64 132q71 58 203 58q112 0 163 -32q70 -41 70 -132h-175q6 33 -17 49q-16 11 -44 11t-46 -12q-20 -15 -20 -37q0 -20 23 -32q18 -8 65 -16
l58 -11q81 -16 112 -48q32 -33 32 -86q0 -82 -53 -133q-69 -67 -233 -67q-153 0 -213 60q-25 25 -33 53.5t-8 72.5z" />
    <glyph glyph-name="t" unicode="t" horiz-adv-x="424" 
d="M25 370l29 138h92l32 150h210l-32 -150h108l-29 -138h-108l-33 -152q-7 -37 -7 -44q0 -23 14 -33q12 -8 37 -8q24 0 48 7l-30 -141q-63 -14 -125 -14q-82 0 -120 25q-46 30 -46 95q0 25 10 73l42 192h-92z" />
    <glyph glyph-name="u" unicode="u" horiz-adv-x="676" 
d="M367 0l11 52h-7q-62 -66 -167 -66q-81 0 -121 39q-43 41 -43 114q0 33 9 80l62 289h210l-59 -275q-6 -27 -6 -43q0 -24 12 -39q11 -15 34 -15q39 0 63 27q24 26 39 91l56 254h210l-108 -508h-195z" />
    <glyph glyph-name="v" unicode="v" horiz-adv-x="591" 
d="M276 199l156 309h219l-294 -508h-240l-72 508h213z" />
    <glyph glyph-name="w" unicode="w" horiz-adv-x="857" 
d="M436 271l-127 -271h-196l-68 508h200l20 -276l127 276h180l8 -276l135 276h202l-278 -508h-192z" />
    <glyph glyph-name="x" unicode="x" horiz-adv-x="562" 
d="M306 373l107 136h214l-234 -246l131 -263h-212l-56 135l-114 -135h-212l243 263l-130 245h215z" />
    <glyph glyph-name="y" unicode="y" horiz-adv-x="576" 
d="M-10 -173l29 132q30 -8 52 -8q30 0 50 14q19 13 30 40l6 16l-127 487h206l54 -313l145 313h201l-265 -500q-59 -111 -105 -148q-58 -46 -162 -46q-59 0 -114 13z" />
    <glyph glyph-name="z" unicode="z" horiz-adv-x="522" 
d="M66 370l29 138h457l-30 -140l-298 -229h263l-30 -139h-492l30 140l302 230h-231z" />
    <glyph glyph-name="braceleft" unicode="{" horiz-adv-x="388" 
d="M30 253l23 108q45 3 76 32q38 36 49 128l5 39q9 70 27.5 116t62.5 78q57 41 161 41h4l-20 -95q-30 0 -52 -20q-24 -23 -36 -103l-8 -54q-6 -41 -12 -65.5t-23.5 -55t-44.5 -50.5q-40 -29 -99 -41l-2 -8q41 -10 68 -37q35 -35 35 -97q0 -29 -15 -86l-12 -47
q-14 -57 -14 -73q0 -25 14 -37t34 -12l-21 -95h-4q-77 0 -119 29q-51 35 -51 109q0 30 19 98l12 43q14 51 14 80q0 42 -24 61q-17 14 -47 14z" />
    <glyph glyph-name="bar" unicode="|" horiz-adv-x="475" 
d="M195 -224v1053h85v-1053h-85z" />
    <glyph glyph-name="braceright" unicode="}" horiz-adv-x="389" 
d="M334 361l-23 -108q-46 -1 -77 -32q-16 -16 -26.5 -41.5t-13.5 -42.5t-9 -53l-9 -60q-17 -110 -57 -151q-24 -25 -62 -38t-63 -14.5t-65 -1.5h-4l21 95q28 0 47 12q6 4 11 9t8.5 13t6 13.5t4.5 16.5l3 16.5t3 18.5t3 18l14 83q15 91 61 137q43 43 113 58l2 8
q-42 12 -68 37q-34 33 -34 88q0 32 16 94l10 40q14 56 14 77q0 27 -17 38q-10 7 -30 9l20 95h4q74 0 115 -23q54 -31 54 -101q0 -36 -16 -101l-10 -40q-17 -71 -17 -97q0 -35 19 -53q21 -19 52 -19z" />
    <glyph glyph-name="asciitilde" unicode="~" horiz-adv-x="651" 
d="M125 279l-75 46q23 55 58 90q44 44 111 44q48 0 102 -31l63 -36q40 -22 71 -22q28 0 45 17q15 13 27 40l74 -45q-24 -66 -55 -97q-38 -38 -97 -38q-53 0 -102 28l-73 41q-34 20 -69 20q-34 0 -56 -22q-15 -15 -24 -35z" />
    <glyph glyph-name="nbspace" unicode="&#xa0;" horiz-adv-x="233" 
 />
    <glyph glyph-name="exclamdown" unicode="&#xa1;" horiz-adv-x="427" 
d="M145 532h210l-40 -191h-210zM248 264l3 -264l-39 -182h-224l39 182l115 264h106z" />
    <glyph glyph-name="cent" unicode="&#xa2;" horiz-adv-x="720" 
d="M438 200h196q-17 -91 -79 -150q-72 -69 -200 -67l-25 -115h-79l25 118q-89 -3 -147 53q-57 54 -57 157q0 67 24 133.5t70 113.5q84 86 225 84l23 109h79l-23 -110q83 -5 135 -57q28 -29 41 -71t7 -87h-193q12 48 -12 72q-14 14 -41 14q-36 0 -60 -24q-27 -27 -42 -81.5
t-15 -99.5q0 -37 14 -57q15 -21 46 -21q32 0 51 17q25 22 37 69z" />
    <glyph glyph-name="sterling" unicode="&#xa3;" horiz-adv-x="720" 
d="M549 216l90 -119q-42 -52 -100 -83q-55 -29 -117 -29q-54 0 -103 22l-20 9q-54 23 -81 23q-44 0 -97 -33l-77 141q45 26 67 47q54 49 39 111h-84l15 70h57q-15 44 -15 82q0 101 69 171q83 85 242 85q119 0 183 -45q70 -51 70 -146q0 -36 -13 -78h-196q9 29 9 50
q0 30 -19 47q-18 15 -51 15q-38 0 -62 -26q-21 -23 -21 -54q0 -17 11 -57q2 -7 6 -21.5t6 -22.5h97l-15 -70h-82q-2 -36 -23 -66q-18 -26 -51 -49l1 -8q30 13 62 13q27 0 63 -12q38 -12 56 -12q48 0 84 45z" />
    <glyph glyph-name="currency" unicode="&#xa4;" horiz-adv-x="806" 
d="M32 57l100 102q-54 78 -54 174t53 173l-101 101l81 83l98 -104q81 58 180 58q101 0 180 -58l101 102l75 -84l-97 -99q52 -80 52 -172q0 -90 -50 -169l101 -107l-82 -78l-100 101q-80 -58 -179 -58t-180 57l-99 -102zM190 333q0 -81 58 -139q60 -60 141 -60t139 58
q60 60 60 141q0 83 -60 142q-58 57 -139 57t-140 -58q-59 -59 -59 -141z" />
    <glyph glyph-name="yen" unicode="&#xa5;" horiz-adv-x="720" 
d="M371 416l179 284h235l-341 -437l-6 -26h82l-14 -66h-82l-7 -33h82l-14 -66h-82l-15 -72h-210l15 72h-82l14 66h82l7 33h-82l14 66h82l6 26l-154 437h235z" />
    <glyph glyph-name="brokenbar" unicode="&#xa6;" horiz-adv-x="475" 
d="M195 176h85v-400h-85v400zM280 429h-85v400h85v-400z" />
    <glyph glyph-name="section" unicode="&#xa7;" horiz-adv-x="598" 
d="M7 27h161q-11 -39 9 -57q13 -13 43 -13q27 0 43 12q20 15 20 38q0 25 -23 36q-7 4 -59 19l-55 17q-70 22 -103 52q-40 38 -40 102q0 65 34 115q34 49 91 70q-18 33 -18 71q0 88 59 147q68 68 193 68q92 0 141 -33q55 -36 55 -106q0 -27 -8 -50h-158q5 32 -11 45
q-12 9 -35 9q-28 0 -44 -13q-16 -12 -16 -34t19 -33q9 -5 65 -21l43 -12q72 -20 103 -49q42 -39 42 -105q0 -73 -37 -124q-33 -48 -90 -71q25 -33 25 -78q0 -94 -61 -153q-66 -65 -192 -65q-109 0 -158 46q-45 42 -45 115q0 30 7 55zM219 238l140 -38q17 5 27 17
q12 14 12 34q0 18 -16 30q-12 8 -33 14l-141 42q-16 -7 -26 -20t-10 -32q0 -21 14 -32q13 -9 33 -15z" />
    <glyph glyph-name="dieresis" unicode="&#xa8;" horiz-adv-x="541" 
d="M86 581l27 129h172l-27 -129h-172zM355 581l27 129h172l-27 -129h-172z" />
    <glyph glyph-name="copyright" unicode="&#xa9;" horiz-adv-x="756" 
d="M430 305h104q-13 -54 -48 -89q-47 -46 -133 -46q-72 0 -111 35q-42 37 -42 108q0 97 59 156q57 58 151 58q73 0 111 -35q40 -38 29 -96h-102q6 22 -12 34q-11 8 -34 8q-33 0 -54 -21q-34 -34 -34 -95q0 -35 16 -49q14 -12 36 -12q29 0 44 12q14 12 20 32zM28 350
q0 145 103 248q103 102 247 102t247 -102q103 -103 103 -248t-103 -248q-102 -102 -247 -102q-144 0 -247 103t-103 247zM108 350q0 -113 78 -191q79 -79 192 -79t192 80q78 79 78 190q0 113 -81 193q-78 77 -189 77q-113 0 -192 -80q-78 -79 -78 -190z" />
    <glyph glyph-name="ordfeminine" unicode="&#xaa;" horiz-adv-x="476" 
d="M50 290l11 55h332l-11 -55h-332zM244 606h-118q15 57 63 88q41 26 114 26q69 0 105 -23q39 -24 39 -71q0 -15 -5 -38l-27 -125q-6 -25 -6 -33q0 -9 5 -15q5 -5 11 -7l-1 -5h-138l-1 31h-2q-17 -19 -41 -29q-29 -12 -68 -12q-53 0 -76 23q-18 18 -18 49q0 50 35 78
q26 20 83 30l29 5q24 4 33.5 5.5t21.5 3.5q21 3 30 12q8 8 8 21q0 14 -11 20q-9 5 -23 5q-21 0 -31 -11q-9 -11 -11 -28zM299 523l4 16q-6 -5 -16 -8q-17 -4 -23 -5l-6 -1q-26 -4 -36 -13q-9 -7 -9 -23q0 -12 6 -18q7 -7 21 -7q21 0 35 13q17 14 24 46z" />
    <glyph glyph-name="guillemotleft" unicode="&#xab;" horiz-adv-x="497" 
d="M70 356l179 139l-37 -177l-77 -53l54 -55l-38 -179l-121 140zM266 357l181 139l-38 -177l-77 -53l54 -55l-38 -180l-121 141z" />
    <glyph glyph-name="logicalnot" unicode="&#xac;" horiz-adv-x="694" 
d="M73 390h566l-48 -224h-85l30 139h-481z" />
    <glyph glyph-name="uni00AD" unicode="&#xad;" horiz-adv-x="548" 
d="M40 205l39 185h399l-39 -185h-399z" />
    <glyph glyph-name="registered" unicode="&#xae;" horiz-adv-x="756" 
d="M28 350q0 145 103 248q103 102 247 102t247 -102q103 -103 103 -248t-103 -248q-102 -102 -247 -102q-144 0 -247 103t-103 247zM108 350q0 -113 78 -191q79 -79 192 -79t192 80q78 79 78 190q0 113 -81 193q-78 77 -189 77q-113 0 -192 -80q-78 -79 -78 -190zM201 181
l72 341h178q54 0 79 -21q29 -24 29 -68q0 -39 -21 -66q-19 -24 -51 -30l-1 -2q12 -3 21 -12q13 -13 13 -36q0 -13 -4 -29l-5 -26q-5 -27 3 -51h-107q-8 15 -4 41l4 21q8 35 -6 47q-8 7 -28 7h-42l-24 -116h-106zM361 438l-14 -66h58q25 0 35 7q14 10 14 31q0 15 -11 23
q-9 5 -25 5h-57z" />
    <glyph glyph-name="macron" unicode="&#xaf;" horiz-adv-x="506" 
d="M88 590l20 96h406l-20 -96h-406z" />
    <glyph glyph-name="degree" unicode="&#xb0;" horiz-adv-x="398" 
d="M120 605q0 51 36.5 87.5t87.5 36.5t87.5 -36.5t36.5 -87.5t-36.5 -87.5t-87.5 -36.5t-87.5 36.5t-36.5 87.5zM190 605q0 -23 16 -38.5t38 -15.5t38 15.5t16 38.5t-16 38.5t-38 15.5t-38 -15.5t-16 -38.5z" />
    <glyph glyph-name="plusminus" unicode="&#xb1;" horiz-adv-x="671" 
d="M35 450h243v220h85v-220h243v-85h-243v-180h-85v180h-243v85zM35 140h571v-85h-571v85z" />
    <glyph glyph-name="twosuperior" unicode="&#xb2;" horiz-adv-x="446" 
d="M393 396l-22 -103h-351l2 8l10 40t15 34.5t29 40.5q26 26 97 59l51 24q44 20 63 39q24 22 24 56q0 22 -15 33q-13 10 -36 10q-27 0 -45 -18q-12 -13 -20 -51l-1 -5h-120l2 7q20 71 52 103q51 52 152 52q74 0 115 -31q43 -33 43 -92t-40 -95q-28 -26 -91 -53l-14 -6
q-25 -11 -50 -21q-36 -15 -41 -31h191z" />
    <glyph glyph-name="threesuperior" unicode="&#xb3;" horiz-adv-x="446" 
d="M50 445h122q-11 -44 13 -62q13 -10 39 -10q36 0 53 17q16 16 16 41q0 22 -17 33q-12 7 -42 7h-31l17 81h30q40 0 57 11q19 14 19 38q0 21 -14 31q-11 9 -36 9q-35 0 -54 -20q-15 -16 -20 -40l-1 -5h-117l2 9q11 52 50 89q52 51 153 51q73 0 110 -24q45 -29 45 -84
q0 -48 -28 -74q-27 -27 -73 -29v-2q35 -5 55 -26t20 -53q0 -73 -57 -113q-52 -36 -147 -36q-98 0 -136 36q-32 30 -32 85q0 13 4 40z" />
    <glyph glyph-name="acute" unicode="&#xb4;" horiz-adv-x="375" 
d="M232 700h189l-140 -132h-143z" />
    <glyph glyph-name="mu" unicode="&#xb5;" horiz-adv-x="686" 
d="M167 -185h-200l147 693h205l-50 -236q-10 -48 -10 -83q0 -43 18 -61q15 -15 40 -15q28 0 49 19q37 33 59 140l50 236h205l-108 -508h-193l16 77h-7q-17 -42 -44 -69q-23 -23 -54 -23q-27 0 -43 20q-20 26 -21 72h-4z" />
    <glyph glyph-name="paragraph" unicode="&#xb6;" horiz-adv-x="520" 
d="M52 -185l118 555q-56 2 -96 35q-39 34 -39 95q0 76 45 131q56 69 183 69h67l-188 -885h-90zM222 -185l188 885h90l-188 -885h-90z" />
    <glyph glyph-name="periodcentered" unicode="&#xb7;" horiz-adv-x="400" 
d="M75 271l42 196h203l-42 -196h-203z" />
    <glyph glyph-name="cedilla" unicode="&#xb8;" horiz-adv-x="333" 
d="M20 -234l39 70q31 -10 69 -10q28 0 40 6q18 8 18 28q0 17 -18 22q-14 4 -73 4h-8l37 67q36 2 57 2q59 0 88 -19q33 -22 33 -69q0 -51 -29 -80q-37 -37 -131 -37q-73 0 -122 16z" />
    <glyph glyph-name="onesuperior" unicode="&#xb9;" horiz-adv-x="449" 
d="M130 560l14 67h8q49 0 82 15q37 18 54 58h101l-89 -420h-133l59 280h-96z" />
    <glyph glyph-name="ordmasculine" unicode="&#xba;" horiz-adv-x="496" 
d="M60 290l11 55h331l-11 -55h-331zM300 637q-25 0 -40 -14q-35 -32 -35 -96q0 -25 9 -39q11 -17 32 -17q22 0 38 16q15 16 24 46.5t9 55.5q0 24 -9 36t-28 12zM466 574q0 -83 -55 -136q-51 -49 -146 -49q-91 0 -131 41q-37 37 -37 101q0 86 57 140q51 49 140 49
q86 0 129 -38q43 -39 43 -108z" />
    <glyph glyph-name="guillemotright" unicode="&#xbb;" horiz-adv-x="506" 
d="M436 356l-40 -185l-179 -140l36 177l78 54l-55 55l39 179zM240 355l-40 -185l-180 -139l37 176l78 54l-55 55l38 179z" />
    <glyph glyph-name="onequarter" unicode="&#xbc;" horiz-adv-x="857" 
d="M0 0l749 700h108l-749 -700h-108zM592 92h-196l20 97l252 231h119l-49 -233h54l-20 -95h-54l-20 -92h-126zM512 187h107l25 118zM72 560l14 67h8q49 0 82 15q37 18 54 58h101l-89 -420h-133l59 280h-96z" />
    <glyph glyph-name="onehalf" unicode="&#xbd;" horiz-adv-x="931" 
d="M72 560l14 67h8q49 0 82 15q37 18 54 58h101l-89 -420h-133l59 280h-96zM846 103l-22 -103h-351l2 8l10 40t15 34.5t29 40.5q26 26 97 59l51 24q44 20 63 39q24 23 24 56q0 22 -15 33q-13 10 -36 10q-27 0 -45 -18q-12 -13 -20 -51l-1 -5h-120l2 7q20 71 52 103
q51 52 152 52q74 0 115 -31q43 -33 43 -92t-40 -95q-28 -26 -91 -53l-14 -6q-25 -11 -50 -21q-36 -15 -41 -31h191zM0 0l749 700h108l-749 -700h-108z" />
    <glyph glyph-name="threequarters" unicode="&#xbe;" horiz-adv-x="923" 
d="M66 0l749 700h108l-749 -700h-108zM658 92h-196l20 97l252 231h119l-49 -233h54l-20 -95h-54l-20 -92h-126zM578 187h107l25 118zM32 445h122q-11 -44 13 -62q13 -10 39 -10q36 0 53 17q16 16 16 41q0 22 -17 33q-12 7 -42 7h-31l17 81h30q40 0 57 11q19 14 19 38
q0 21 -14 31q-11 9 -36 9q-35 0 -54 -20q-15 -16 -20 -40l-1 -5h-117l2 9q11 52 50 89q52 51 153 51q73 0 110 -24q45 -29 45 -84q0 -48 -28 -74q-27 -27 -73 -29v-2q35 -5 55 -26t20 -53q0 -73 -57 -113q-52 -36 -147 -36q-98 0 -136 36q-32 30 -32 85q0 13 4 40z" />
    <glyph glyph-name="questiondown" unicode="&#xbf;" horiz-adv-x="567" 
d="M431 529l-38 -178h-203l38 178h203zM295 56h202l-2 -9q-27 -118 -92 -170q-71 -57 -215 -57q-121 0 -180 36q-73 45 -73 132q0 70 48 118q33 33 91 59l28 13q47 21 67 43q25 27 31 63h164l-3 -17q-11 -57 -31 -88q-20 -33 -77 -67l-30 -18q-41 -25 -48 -32
q-24 -22 -24 -56q0 -22 14 -34q14 -13 45 -13q35 0 54 20q17 17 28 63z" />
    <glyph glyph-name="Agrave" unicode="&#xc0;" horiz-adv-x="663" 
d="M169 99l-53 -99h-226l408 700h215l110 -700h-226l-11 99h-217zM243 243h131l-22 210zM462 908l36 -142h-153l-82 142h199z" />
    <glyph glyph-name="Aacute" unicode="&#xc1;" horiz-adv-x="663" 
d="M169 99l-53 -99h-226l408 700h215l110 -700h-226l-11 99h-217zM243 243h131l-22 210zM422 898h189l-140 -132h-143z" />
    <glyph glyph-name="Acircumflex" unicode="&#xc2;" horiz-adv-x="663" 
d="M169 99l-53 -99h-226l408 700h215l110 -700h-226l-11 99h-217zM243 243h131l-22 210zM428 854l-96 -88h-160l153 132h224l97 -132h-160z" />
    <glyph glyph-name="Atilde" unicode="&#xc3;" horiz-adv-x="663" 
d="M169 99l-53 -99h-226l408 700h215l110 -700h-226l-11 99h-217zM243 243h131l-22 210zM527 901h106q-18 -57 -58 -97q-38 -38 -90 -38q-39 0 -79 21l-27 14q-32 16 -54 16q-21 0 -33 -13q-10 -11 -15 -27h-107q19 54 56 92q41 41 100 41q36 0 72 -19l24 -12q40 -20 60 -20
q17 0 30 13q10 10 15 29z" />
    <glyph glyph-name="Adieresis" unicode="&#xc4;" horiz-adv-x="663" 
d="M169 99l-53 -99h-226l408 700h215l110 -700h-226l-11 99h-217zM243 243h131l-22 210zM186 779l27 129h172l-27 -129h-172zM455 779l27 129h172l-27 -129h-172z" />
    <glyph glyph-name="Aring" unicode="&#xc5;" horiz-adv-x="663" 
d="M169 99l-53 -99h-226l408 700h215l110 -700h-226l-11 99h-217zM243 243h131l-22 210zM310 868q0 44 31 75t75 31t75 -31t31 -75t-31 -75t-75 -31t-75 31t-31 75zM372 868q0 -18 13 -31t31 -13t31 13t13 31t-13 31t-31 13t-31 -13t-13 -31z" />
    <glyph glyph-name="AE" unicode="&#xc6;" horiz-adv-x="1121" 
d="M201 99l-81 -99h-230l575 700h671l-39 -185h-363l-17 -79h311l-35 -165h-311l-19 -86h371l-39 -185h-580l21 99h-235zM302 243h165l49 232h-30z" />
    <glyph glyph-name="Ccedilla" unicode="&#xc7;" horiz-adv-x="775" 
d="M508 258h220q-27 -107 -99 -181q-96 -97 -263 -97q-164 0 -250 84t-86 232q0 95 33.5 180.5t91.5 140.5q108 101 289 101q155 0 238 -79q70 -67 68 -192h-211q3 38 -21 64q-25 25 -76 25q-59 0 -102 -38q-38 -34 -56 -88t-18 -103q0 -70 30 -107q30 -39 92 -39
q49 0 79 29q29 26 41 68zM184 -234l39 70q33 -10 69 -10q26 0 39 6q19 10 19 28q0 19 -23 23q-23 3 -62 3h-14l37 67q3 0 25 1t32 1q56 0 84 -14q37 -21 37 -66q0 -65 -53 -99q-42 -26 -117 -26q-60 0 -112 16z" />
    <glyph glyph-name="Egrave" unicode="&#xc8;" horiz-adv-x="737" 
d="M323 436h311l-35 -165h-311l-19 -86h371l-39 -185h-589l149 700h581l-39 -185h-363zM508 908l36 -142h-153l-82 142h199z" />
    <glyph glyph-name="Eacute" unicode="&#xc9;" horiz-adv-x="737" 
d="M323 436h311l-35 -165h-311l-19 -86h371l-39 -185h-589l149 700h581l-39 -185h-363zM442 898h189l-140 -132h-143z" />
    <glyph glyph-name="Ecircumflex" unicode="&#xca;" horiz-adv-x="737" 
d="M323 436h311l-35 -165h-311l-19 -86h371l-39 -185h-589l149 700h581l-39 -185h-363zM478 854l-96 -88h-160l153 132h224l97 -132h-160z" />
    <glyph glyph-name="Edieresis" unicode="&#xcb;" horiz-adv-x="737" 
d="M323 436h311l-35 -165h-311l-19 -86h371l-39 -185h-589l149 700h581l-39 -185h-363zM231 779l27 129h172l-27 -129h-172zM500 779l27 129h172l-27 -129h-172z" />
    <glyph glyph-name="Igrave" unicode="&#xcc;" horiz-adv-x="391" 
d="M161 700h218l-149 -700h-218zM335 908l36 -142h-153l-82 142h199z" />
    <glyph glyph-name="Iacute" unicode="&#xcd;" horiz-adv-x="391" 
d="M161 700h218l-149 -700h-218zM292 898h189l-140 -132h-143z" />
    <glyph glyph-name="Icircumflex" unicode="&#xce;" horiz-adv-x="391" 
d="M161 700h218l-149 -700h-218zM293 854l-96 -88h-160l153 132h224l97 -132h-160z" />
    <glyph glyph-name="Idieresis" unicode="&#xcf;" horiz-adv-x="391" 
d="M161 700h218l-149 -700h-218zM64 779l27 129h172l-27 -129h-172zM333 779l27 129h172l-27 -129h-172z" />
    <glyph glyph-name="Eth" unicode="&#xd0;" horiz-adv-x="820" 
d="M178 700h301q169 0 244 -75q72 -72 72 -204q0 -80 -29 -172t-91 -151q-103 -98 -313 -98h-333l69 324h-98l21 99h98zM357 516l-20 -93h134l-22 -104h-134l-28 -131h70q97 0 144 45q27 26 42.5 75.5t15.5 93.5q0 61 -33 88q-31 26 -112 26h-57z" />
    <glyph glyph-name="Ntilde" unicode="&#xd1;" horiz-adv-x="823" 
d="M313 392h-5l-6 -53l-72 -339h-218l149 700h218l131 -392h5l6 53l72 339h218l-149 -700h-218zM617 901h106q-18 -57 -58 -97q-38 -38 -90 -38q-39 0 -79 21l-27 14q-32 16 -54 16q-21 0 -33 -13q-10 -11 -15 -27h-107q19 54 56 92q41 41 100 41q36 0 72 -19l24 -12
q40 -20 60 -20q17 0 30 13q10 10 15 29z" />
    <glyph glyph-name="Ograve" unicode="&#xd2;" 
d="M455 719q166 0 253 -89q84 -86 84 -225q0 -88 -34 -179.5t-97 -148.5q-106 -96 -289 -96q-167 0 -253 80q-89 82 -89 233q0 99 40.5 191.5t111.5 148.5q105 85 273 85zM266 295q0 -55 26 -89q31 -41 94 -41q54 0 92 32q37 30 58.5 91.5t21.5 118.5q0 58 -28 92
q-29 36 -86 36q-59 0 -102 -40q-37 -34 -56.5 -91t-19.5 -109zM532 908l36 -142h-153l-82 142h199z" />
    <glyph glyph-name="Oacute" unicode="&#xd3;" 
d="M455 719q166 0 253 -89q84 -86 84 -225q0 -88 -34 -179.5t-97 -148.5q-106 -96 -289 -96q-167 0 -253 80q-89 82 -89 233q0 99 40.5 191.5t111.5 148.5q105 85 273 85zM266 295q0 -55 26 -89q31 -41 94 -41q54 0 92 32q37 30 58.5 91.5t21.5 118.5q0 58 -28 92
q-29 36 -86 36q-59 0 -102 -40q-37 -34 -56.5 -91t-19.5 -109zM482 898h189l-140 -132h-143z" />
    <glyph glyph-name="Ocircumflex" unicode="&#xd4;" 
d="M455 719q166 0 253 -89q84 -86 84 -225q0 -88 -34 -179.5t-97 -148.5q-106 -96 -289 -96q-167 0 -253 80q-89 82 -89 233q0 99 40.5 191.5t111.5 148.5q105 85 273 85zM266 295q0 -55 26 -89q31 -41 94 -41q54 0 92 32q37 30 58.5 91.5t21.5 118.5q0 58 -28 92
q-29 36 -86 36q-59 0 -102 -40q-37 -34 -56.5 -91t-19.5 -109zM498 854l-96 -88h-160l153 132h224l97 -132h-160z" />
    <glyph glyph-name="Otilde" unicode="&#xd5;" 
d="M455 719q166 0 253 -89q84 -86 84 -225q0 -88 -34 -179.5t-97 -148.5q-106 -96 -289 -96q-167 0 -253 80q-89 82 -89 233q0 99 40.5 191.5t111.5 148.5q105 85 273 85zM266 295q0 -55 26 -89q31 -41 94 -41q54 0 92 32q37 30 58.5 91.5t21.5 118.5q0 58 -28 92
q-29 36 -86 36q-59 0 -102 -40q-37 -34 -56.5 -91t-19.5 -109zM617 901h106q-18 -57 -58 -97q-38 -38 -90 -38q-39 0 -79 21l-27 14q-32 16 -54 16q-21 0 -33 -13q-10 -11 -15 -27h-107q19 54 56 92q41 41 100 41q36 0 72 -19l24 -12q40 -20 60 -20q17 0 30 13q10 10 15 29z
" />
    <glyph glyph-name="Odieresis" unicode="&#xd6;" 
d="M455 719q166 0 253 -89q84 -86 84 -225q0 -88 -34 -179.5t-97 -148.5q-106 -96 -289 -96q-167 0 -253 80q-89 82 -89 233q0 99 40.5 191.5t111.5 148.5q105 85 273 85zM266 295q0 -55 26 -89q31 -41 94 -41q54 0 92 32q37 30 58.5 91.5t21.5 118.5q0 58 -28 92
q-29 36 -86 36q-59 0 -102 -40q-37 -34 -56.5 -91t-19.5 -109zM266 779l27 129h172l-27 -129h-172zM535 779l27 129h172l-27 -129h-172z" />
    <glyph glyph-name="multiply" unicode="&#xd7;" horiz-adv-x="649" 
d="M75 163l182 182l-182 181l60 61l182 -182l182 182l60 -61l-182 -181l182 -183l-60 -60l-182 183l-182 -182z" />
    <glyph glyph-name="Oslash" unicode="&#xd8;" 
d="M455 719q138 0 232 -70l114 99l49 -66l-108 -95q50 -82 50 -182q0 -88 -34 -179.5t-97 -148.5q-106 -96 -289 -96q-75 0 -130.5 15t-111.5 56l-116 -101l-49 66l111 97q-46 76 -46 180q0 100 40.5 192t111.5 148q105 85 273 85zM266 295q0 -3 0.5 -7t0.5 -7l257 225
q-34 29 -80 29q-59 0 -102 -40q-37 -33 -56.5 -91t-19.5 -109zM557 426l-259 -227q34 -34 88 -34t92 32q40 33 62.5 101t16.5 128z" />
    <glyph glyph-name="Ugrave" unicode="&#xd9;" horiz-adv-x="813" 
d="M803 700l-93 -438q-30 -137 -94 -199q-85 -82 -254 -82q-157 0 -232 62q-72 59 -72 167q0 40 18 124l79 366h219l-85 -391q-10 -48 -10 -64q0 -42 26 -66q24 -22 66 -22q52 0 83 34q28 30 40 85l90 424h219zM532 908l36 -142h-153l-82 142h199z" />
    <glyph glyph-name="Uacute" unicode="&#xda;" horiz-adv-x="813" 
d="M803 700l-93 -438q-30 -137 -94 -199q-85 -82 -254 -82q-157 0 -232 62q-72 59 -72 167q0 40 18 124l79 366h219l-85 -391q-10 -48 -10 -64q0 -42 26 -66q24 -22 66 -22q52 0 83 34q28 30 40 85l90 424h219zM502 898h189l-140 -132h-143z" />
    <glyph glyph-name="Ucircumflex" unicode="&#xdb;" horiz-adv-x="813" 
d="M803 700l-93 -438q-30 -137 -94 -199q-85 -82 -254 -82q-157 0 -232 62q-72 59 -72 167q0 40 18 124l79 366h219l-85 -391q-10 -48 -10 -64q0 -42 26 -66q24 -22 66 -22q52 0 83 34q28 30 40 85l90 424h219zM508 854l-96 -88h-160l153 132h224l97 -132h-160z" />
    <glyph glyph-name="Udieresis" unicode="&#xdc;" horiz-adv-x="813" 
d="M803 700l-93 -438q-30 -137 -94 -199q-85 -82 -254 -82q-157 0 -232 62q-72 59 -72 167q0 40 18 124l79 366h219l-85 -391q-10 -48 -10 -64q0 -42 26 -66q24 -22 66 -22q52 0 83 34q28 30 40 85l90 424h219zM266 779l27 129h172l-27 -129h-172zM535 779l27 129h172
l-27 -129h-172z" />
    <glyph glyph-name="Yacute" unicode="&#xdd;" horiz-adv-x="660" 
d="M336 416l179 284h240l-341 -455l-52 -245h-218l52 245l-146 455h230zM422 898h189l-140 -132h-143z" />
    <glyph glyph-name="Thorn" unicode="&#xde;" horiz-adv-x="720" 
d="M161 700h210l-23 -112h127q135 0 194 -56q56 -54 56 -149q0 -122 -78 -195q-50 -48 -112.5 -62.5t-142.5 -14.5h-138l-24 -111h-218zM320 420l-30 -141h104q53 0 79 19q28 21 28 63q0 35 -24 49q-16 10 -55 10h-102z" />
    <glyph glyph-name="germandbls" unicode="&#xdf;" horiz-adv-x="665" 
d="M6 0l91 429q10 44 16 68t26.5 65.5t49.5 71.5q77 79 211 79q103 0 160 -41q65 -46 65 -125q0 -62 -35 -102q-30 -34 -76 -45l-1 -5q42 -11 71 -42q39 -40 39 -106q0 -115 -73 -186q-70 -68 -197 -68q-50 0 -97 10l30 143q16 -6 39 -6q45 0 70 25q32 32 32 82q0 41 -28 57
q-17 11 -66 11h-9l27 124h6q34 0 53 18q24 22 24 53q0 33 -13 46q-12 12 -36 12q-25 0 -44 -19q-16 -16 -27 -65l-103 -484h-205z" />
    <glyph glyph-name="agrave" unicode="&#xe0;" horiz-adv-x="622" 
d="M264 335h-197q21 79 82 128q74 58 203 58q112 0 172 -37q68 -45 68 -132q0 -29 -9 -69l-42 -199q-6 -27 -6 -43t8 -24q6 -6 16 -10l-1 -7h-220l-6 51h-3q-28 -29 -67 -48q-47 -21 -108 -21q-80 0 -121 44q-33 35 -33 90q0 70 45 113q46 44 165 58l70 8q72 9 89 20
q20 13 20 41q0 20 -15 32q-14 11 -42 11q-32 0 -49 -17q-18 -18 -19 -47zM357 210l4 17q-20 -15 -70 -24q-43 -7 -60 -20q-19 -14 -19 -36q0 -21 13 -32q12 -11 38 -11q32 0 58 26q23 23 36 80zM428 700l38 -132h-143l-84 132h189z" />
    <glyph glyph-name="aacute" unicode="&#xe1;" horiz-adv-x="622" 
d="M264 335h-197q21 79 82 128q74 58 203 58q112 0 172 -37q68 -45 68 -132q0 -29 -9 -69l-42 -199q-6 -27 -6 -43t8 -24q6 -6 16 -10l-1 -7h-220l-6 51h-3q-28 -29 -67 -48q-47 -21 -108 -21q-80 0 -121 44q-33 35 -33 90q0 70 45 113q46 44 165 58l70 8q72 9 89 20
q20 13 20 41q0 20 -15 32q-14 11 -42 11q-32 0 -49 -17q-18 -18 -19 -47zM357 210l4 17q-20 -15 -70 -24q-43 -7 -60 -20q-19 -14 -19 -36q0 -21 13 -32q12 -11 38 -11q32 0 58 26q23 23 36 80zM377 700h189l-140 -132h-143z" />
    <glyph glyph-name="acircumflex" unicode="&#xe2;" horiz-adv-x="622" 
d="M264 335h-197q21 79 82 128q74 58 203 58q112 0 172 -37q68 -45 68 -132q0 -29 -9 -69l-42 -199q-6 -27 -6 -43t8 -24q6 -6 16 -10l-1 -7h-220l-6 51h-3q-28 -29 -67 -48q-47 -21 -108 -21q-80 0 -121 44q-33 35 -33 90q0 70 45 113q46 44 165 58l70 8q72 9 89 20
q20 13 20 41q0 20 -15 32q-14 11 -42 11q-32 0 -49 -17q-18 -18 -19 -47zM357 210l4 17q-20 -15 -70 -24q-43 -7 -60 -20q-19 -14 -19 -36q0 -21 13 -32q12 -11 38 -11q32 0 58 26q23 23 36 80zM398 656l-96 -88h-160l153 132h224l97 -132h-160z" />
    <glyph glyph-name="atilde" unicode="&#xe3;" horiz-adv-x="622" 
d="M264 335h-197q21 79 82 128q74 58 203 58q112 0 172 -37q68 -45 68 -132q0 -29 -9 -69l-42 -199q-6 -27 -6 -43t8 -24q6 -6 16 -10l-1 -7h-220l-6 51h-3q-28 -29 -67 -48q-47 -21 -108 -21q-80 0 -121 44q-33 35 -33 90q0 70 45 113q46 44 165 58l70 8q72 9 89 20
q20 13 20 41q0 20 -15 32q-14 11 -42 11q-32 0 -49 -17q-18 -18 -19 -47zM357 210l4 17q-20 -15 -70 -24q-43 -7 -60 -20q-19 -14 -19 -36q0 -21 13 -32q12 -11 38 -11q32 0 58 26q23 23 36 80zM502 703h106q-19 -60 -58 -97q-39 -38 -94 -38q-33 0 -75 21l-27 14
q-32 16 -54 16q-21 0 -33 -13q-10 -11 -15 -27h-107q20 57 56 92q41 41 101 41q34 0 71 -19l24 -12q42 -20 60 -20q17 0 30 13q10 10 15 29z" />
    <glyph glyph-name="adieresis" unicode="&#xe4;" horiz-adv-x="622" 
d="M264 335h-197q21 79 82 128q74 58 203 58q112 0 172 -37q68 -45 68 -132q0 -29 -9 -69l-42 -199q-6 -27 -6 -43t8 -24q6 -6 16 -10l-1 -7h-220l-6 51h-3q-28 -29 -67 -48q-47 -21 -108 -21q-80 0 -121 44q-33 35 -33 90q0 70 45 113q46 44 165 58l70 8q72 9 89 20
q20 13 20 41q0 20 -15 32q-14 11 -42 11q-32 0 -49 -17q-18 -18 -19 -47zM357 210l4 17q-20 -15 -70 -24q-43 -7 -60 -20q-19 -14 -19 -36q0 -21 13 -32q12 -11 38 -11q32 0 58 26q23 23 36 80zM151 581l27 129h172l-27 -129h-172zM420 581l27 129h172l-27 -129h-172z" />
    <glyph glyph-name="aring" unicode="&#xe5;" horiz-adv-x="622" 
d="M264 335h-197q21 79 82 128q74 58 203 58q112 0 172 -37q68 -45 68 -132q0 -29 -9 -69l-42 -199q-6 -27 -6 -43t8 -24q6 -6 16 -10l-1 -7h-220l-6 51h-3q-28 -29 -67 -48q-47 -21 -108 -21q-80 0 -121 44q-33 35 -33 90q0 70 45 113q46 44 165 58l70 8q72 9 89 20
q20 13 20 41q0 20 -15 32q-14 11 -42 11q-32 0 -49 -17q-18 -18 -19 -47zM357 210l4 17q-20 -15 -70 -24q-43 -7 -60 -20q-19 -14 -19 -36q0 -21 13 -32q12 -11 38 -11q32 0 58 26q23 23 36 80zM275 670q0 44 31 75t75 31t75 -31t31 -75t-31 -75t-75 -31t-75 31t-31 75z
M337 670q0 -18 13 -31t31 -13t31 13t13 31t-13 31t-31 13t-31 -13t-13 -31z" />
    <glyph glyph-name="ae" unicode="&#xe6;" horiz-adv-x="972" 
d="M712 147h206q-30 -82 -106 -125q-71 -40 -187 -40q-92 0 -144 27q-47 24 -67 71q-38 -50 -91 -75q-49 -23 -132 -23q-105 0 -150 40q-41 37 -41 98q0 66 43 109q46 46 162 58l70 8q72 9 89 20q20 13 20 41q0 20 -15 32q-14 11 -42 11q-32 0 -49 -17q-18 -18 -19 -47h-197
q21 79 82 128q74 58 203 58q122 0 171 -67q60 72 187 72q129 0 189 -62q56 -56 56 -147q0 -45 -15 -105h-368q-3 -15 -3 -34q0 -36 21 -55q19 -17 53 -17q27 0 47 11t27 30zM585 312h156q9 51 -14 74q-15 15 -46 15q-38 0 -62 -24q-25 -23 -34 -65zM348 210l4 17
q-20 -15 -70 -24q-43 -7 -60 -20q-19 -14 -19 -36q0 -21 13 -32q12 -11 38 -11q32 0 58 26q23 23 36 80z" />
    <glyph glyph-name="ccedilla" unicode="&#xe7;" horiz-adv-x="632" 
d="M394 200h196q-24 -106 -102 -164q-74 -54 -203 -54q-130 0 -194 63q-63 63 -63 172q0 141 90 228q86 84 239 84q132 0 200 -61q61 -57 52 -157h-193q8 46 -10 69q-13 17 -41 17q-36 0 -62 -26q-28 -29 -44 -78t-16 -90q0 -46 21 -70q19 -19 48 -19q32 0 52 22
q22 24 30 64zM107 -234l39 70q31 -10 69 -10q28 0 40 6q18 8 18 28q0 17 -18 22q-14 4 -73 4h-8l37 67q36 2 57 2q60 0 88 -19q33 -22 33 -69q0 -51 -29 -80q-37 -37 -131 -37q-73 0 -122 16z" />
    <glyph glyph-name="egrave" unicode="&#xe8;" horiz-adv-x="649" 
d="M387 147h206q-33 -83 -108 -125q-71 -40 -189 -40q-133 0 -201 61q-67 60 -67 165q0 70 24.5 130t64.5 100q88 88 246 88q139 0 209 -68q55 -54 55 -147q0 -48 -16 -99h-369q-4 -16 -4 -34q0 -37 22 -55q19 -17 53 -17q27 0 47 11t27 30zM262 312h158q10 50 -14 74
q-18 16 -46 16q-34 0 -61 -25q-24 -23 -37 -65zM428 700l38 -132h-143l-84 132h189z" />
    <glyph glyph-name="eacute" unicode="&#xe9;" horiz-adv-x="649" 
d="M387 147h206q-33 -83 -108 -125q-71 -40 -189 -40q-133 0 -201 61q-67 60 -67 165q0 70 24.5 130t64.5 100q88 88 246 88q139 0 209 -68q55 -54 55 -147q0 -48 -16 -99h-369q-4 -16 -4 -34q0 -37 22 -55q19 -17 53 -17q27 0 47 11t27 30zM262 312h158q10 50 -14 74
q-18 16 -46 16q-34 0 -61 -25q-24 -23 -37 -65zM387 700h189l-140 -132h-143z" />
    <glyph glyph-name="ecircumflex" unicode="&#xea;" horiz-adv-x="649" 
d="M387 147h206q-33 -83 -108 -125q-71 -40 -189 -40q-133 0 -201 61q-67 60 -67 165q0 70 24.5 130t64.5 100q88 88 246 88q139 0 209 -68q55 -54 55 -147q0 -48 -16 -99h-369q-4 -16 -4 -34q0 -37 22 -55q19 -17 53 -17q27 0 47 11t27 30zM262 312h158q10 50 -14 74
q-18 16 -46 16q-34 0 -61 -25q-24 -23 -37 -65zM403 656l-96 -88h-160l153 132h224l97 -132h-160z" />
    <glyph glyph-name="edieresis" unicode="&#xeb;" horiz-adv-x="649" 
d="M387 147h206q-33 -83 -108 -125q-71 -40 -189 -40q-133 0 -201 61q-67 60 -67 165q0 70 24.5 130t64.5 100q88 88 246 88q139 0 209 -68q55 -54 55 -147q0 -48 -16 -99h-369q-4 -16 -4 -34q0 -37 22 -55q19 -17 53 -17q27 0 47 11t27 30zM262 312h158q10 50 -14 74
q-18 16 -46 16q-34 0 -61 -25q-24 -23 -37 -65zM161 581l27 129h172l-27 -129h-172zM430 581l27 129h172l-27 -129h-172z" />
    <glyph glyph-name="igrave" unicode="&#xec;" horiz-adv-x="339" 
d="M118 508h210l-108 -508h-210zM278 700l38 -132h-143l-84 132h189z" />
    <glyph glyph-name="iacute" unicode="&#xed;" horiz-adv-x="339" 
d="M118 508h210l-108 -508h-210zM227 700h189l-140 -132h-143z" />
    <glyph glyph-name="icircumflex" unicode="&#xee;" horiz-adv-x="339" 
d="M118 508h210l-108 -508h-210zM255 656l-96 -88h-160l153 132h224l97 -132h-160z" />
    <glyph glyph-name="idieresis" unicode="&#xef;" horiz-adv-x="339" 
d="M118 508h210l-108 -508h-210zM2 581l27 129h172l-27 -129h-172zM271 581l27 129h172l-27 -129h-172z" />
    <glyph glyph-name="eth" unicode="&#xf0;" horiz-adv-x="696" 
d="M261 719l35 96q102 -13 192 -53l106 59l40 -61l-80 -42q51 -40 83 -99q37 -69 37 -171q0 -114 -35 -213t-98 -160q-95 -92 -249 -92q-136 0 -202 64q-62 60 -62 166q0 136 89 223q86 85 232 85q70 0 118 -23q55 -25 74 -79h7q2 86 -27 141q-30 57 -86 92l-184 -95l-37 60
l145 75q-51 18 -98 27zM362 394q-41 0 -67 -31q-53 -62 -53 -160q0 -42 14 -62q19 -27 51 -27q38 0 64 27q24 25 38.5 77.5t14.5 92.5t-16 61q-17 22 -46 22z" />
    <glyph glyph-name="ntilde" unicode="&#xf1;" horiz-adv-x="675" 
d="M315 508l-11 -54h4q63 69 161 69q87 0 132 -45q39 -41 39 -103q0 -23 -9 -70l-65 -305h-210l58 274q6 22 6 45q0 27 -13 41q-13 13 -36 13q-33 0 -56 -25q-28 -30 -43 -90l-56 -258h-210l108 508h201zM522 703h106q-19 -60 -58 -97q-39 -38 -94 -38q-33 0 -75 21l-27 14
q-32 16 -54 16q-21 0 -33 -13q-10 -11 -15 -27h-107q20 57 56 92q41 41 101 41q34 0 71 -19l24 -12q43 -20 60 -20t30 13q10 10 15 29z" />
    <glyph glyph-name="ograve" unicode="&#xf2;" horiz-adv-x="666" 
d="M364 394q-37 0 -64 -24t-43.5 -70t-16.5 -96q0 -47 18 -69q19 -21 51 -21q37 0 64 27q25 25 39 75.5t14 94.5q0 40 -16 61q-17 22 -46 22zM638 290q0 -143 -88 -227q-52 -49 -112.5 -65t-136.5 -16q-144 0 -212 67q-61 60 -61 163q0 142 94 231q88 83 246 83
q136 0 205 -67q65 -63 65 -169zM428 700l38 -132h-143l-84 132h189z" />
    <glyph glyph-name="oacute" unicode="&#xf3;" horiz-adv-x="666" 
d="M364 394q-37 0 -64 -24t-43.5 -70t-16.5 -96q0 -47 18 -69q19 -21 51 -21q37 0 64 27q25 25 39 75.5t14 94.5q0 40 -16 61q-17 22 -46 22zM638 290q0 -143 -88 -227q-52 -49 -112.5 -65t-136.5 -16q-144 0 -212 67q-61 60 -61 163q0 142 94 231q88 83 246 83
q136 0 205 -67q65 -63 65 -169zM387 700h189l-140 -132h-143z" />
    <glyph glyph-name="ocircumflex" unicode="&#xf4;" horiz-adv-x="666" 
d="M364 394q-37 0 -64 -24t-43.5 -70t-16.5 -96q0 -47 18 -69q19 -21 51 -21q37 0 64 27q25 25 39 75.5t14 94.5q0 40 -16 61q-17 22 -46 22zM638 290q0 -143 -88 -227q-52 -49 -112.5 -65t-136.5 -16q-144 0 -212 67q-61 60 -61 163q0 142 94 231q88 83 246 83
q136 0 205 -67q65 -63 65 -169zM404 656l-96 -88h-160l153 132h224l97 -132h-160z" />
    <glyph glyph-name="otilde" unicode="&#xf5;" horiz-adv-x="666" 
d="M364 394q-37 0 -64 -24t-43.5 -70t-16.5 -96q0 -47 18 -69q19 -21 51 -21q37 0 64 27q25 25 39 75.5t14 94.5q0 40 -16 61q-17 22 -46 22zM638 290q0 -143 -88 -227q-52 -49 -112.5 -65t-136.5 -16q-144 0 -212 67q-61 60 -61 163q0 142 94 231q88 83 246 83
q136 0 205 -67q65 -63 65 -169zM527 703h106q-19 -60 -58 -97q-39 -38 -94 -38q-33 0 -75 21l-27 14q-32 16 -54 16q-21 0 -33 -13q-10 -11 -15 -27h-107q20 57 56 92q41 41 101 41q34 0 71 -19l24 -12q43 -20 60 -20t30 13q10 10 15 29z" />
    <glyph glyph-name="odieresis" unicode="&#xf6;" horiz-adv-x="666" 
d="M364 394q-37 0 -64 -24t-43.5 -70t-16.5 -96q0 -47 18 -69q19 -21 51 -21q37 0 64 27q25 25 39 75.5t14 94.5q0 40 -16 61q-17 22 -46 22zM638 290q0 -143 -88 -227q-52 -49 -112.5 -65t-136.5 -16q-144 0 -212 67q-61 60 -61 163q0 142 94 231q88 83 246 83
q136 0 205 -67q65 -63 65 -169zM166 581l27 129h172l-27 -129h-172zM435 581l27 129h172l-27 -129h-172z" />
    <glyph glyph-name="divide" unicode="&#xf7;" horiz-adv-x="694" 
d="M45 409h594v-89h-594v89zM265 564q0 33 22 55t55 22t55 -22t22 -55t-22 -55t-55 -22t-55 22t-22 55zM265 165q0 33 22 55t55 22t55 -22t22 -55t-22 -55t-55 -22t-55 22t-22 55z" />
    <glyph glyph-name="oslash" unicode="&#xf8;" horiz-adv-x="673" 
d="M363 396q-34 0 -61 -24q-27 -25 -42 -68t-16 -87l171 151q-15 28 -52 28zM431 298l-174 -153q17 -33 58 -33q37 0 64 27q25 25 38 70t14 89zM642 290q0 -143 -88 -227q-52 -49 -112.5 -65t-138.5 -16q-56 0 -93.5 8t-80.5 35l-80 -69l-41 55l70 63q-46 57 -46 138
q0 70 26 130.5t68 100.5q86 83 246 83q95 0 169 -41l81 72l43 -53l-71 -63q48 -64 48 -151z" />
    <glyph glyph-name="ugrave" unicode="&#xf9;" horiz-adv-x="676" 
d="M367 0l11 52h-7q-62 -66 -167 -66q-81 0 -121 39q-43 41 -43 114q0 33 9 80l62 289h210l-59 -275q-6 -27 -6 -43q0 -24 12 -39q11 -15 34 -15q39 0 63 27q24 26 39 91l56 254h210l-108 -508h-195zM443 700l38 -132h-143l-84 132h189z" />
    <glyph glyph-name="uacute" unicode="&#xfa;" horiz-adv-x="676" 
d="M367 0l11 52h-7q-62 -66 -167 -66q-81 0 -121 39q-43 41 -43 114q0 33 9 80l62 289h210l-59 -275q-6 -27 -6 -43q0 -24 12 -39q11 -15 34 -15q39 0 63 27q24 26 39 91l56 254h210l-108 -508h-195zM397 700h189l-140 -132h-143z" />
    <glyph glyph-name="ucircumflex" unicode="&#xfb;" horiz-adv-x="676" 
d="M367 0l11 52h-7q-62 -66 -167 -66q-81 0 -121 39q-43 41 -43 114q0 33 9 80l62 289h210l-59 -275q-6 -27 -6 -43q0 -24 12 -39q11 -15 34 -15q39 0 63 27q24 26 39 91l56 254h210l-108 -508h-195zM418 656l-96 -88h-160l153 132h224l97 -132h-160z" />
    <glyph glyph-name="udieresis" unicode="&#xfc;" horiz-adv-x="676" 
d="M367 0l11 52h-7q-62 -66 -167 -66q-81 0 -121 39q-43 41 -43 114q0 33 9 80l62 289h210l-59 -275q-6 -27 -6 -43q0 -24 12 -39q11 -15 34 -15q39 0 63 27q24 26 39 91l56 254h210l-108 -508h-195zM176 581l27 129h172l-27 -129h-172zM445 581l27 129h172l-27 -129h-172z
" />
    <glyph glyph-name="yacute" unicode="&#xfd;" horiz-adv-x="576" 
d="M-10 -173l29 132q30 -8 52 -8q30 0 50 14q19 13 30 40l6 16l-127 487h206l54 -313l145 313h201l-265 -500q-59 -111 -105 -148q-58 -46 -162 -46q-59 0 -114 13zM342 700h189l-140 -132h-143z" />
    <glyph glyph-name="thorn" unicode="&#xfe;" horiz-adv-x="698" 
d="M156 700h200l-53 -243h2q60 69 160 69q98 0 151 -53q54 -54 54 -157q0 -72 -23 -145.5t-73 -121.5q-31 -29 -70 -45t-66.5 -19t-65.5 -3q-98 0 -148 55l-47 -222h-210zM255 207q0 -46 20 -69q20 -24 55 -24t64 25q27 24 40.5 70t13.5 84q0 49 -22 71q-20 20 -50 20
q-42 0 -69 -27q-25 -24 -38.5 -67t-13.5 -83z" />
    <glyph glyph-name="ydieresis" unicode="&#xff;" horiz-adv-x="576" 
d="M-10 -173l29 132q30 -8 52 -8q30 0 50 14q19 13 30 40l6 16l-127 487h206l54 -313l145 313h201l-265 -500q-59 -111 -105 -148q-58 -46 -162 -46q-59 0 -114 13zM116 581l27 129h172l-27 -129h-172zM385 581l27 129h172l-27 -129h-172z" />
    <glyph glyph-name="Amacron" unicode="&#x100;" horiz-adv-x="663" 
d="M169 99l-53 -99h-226l408 700h215l110 -700h-226l-11 99h-217zM243 243h131l-22 210zM203 788l20 96h406l-20 -96h-406z" />
    <glyph glyph-name="amacron" unicode="&#x101;" horiz-adv-x="622" 
d="M264 335h-197q21 79 82 128q74 58 203 58q112 0 172 -37q68 -45 68 -132q0 -29 -9 -69l-42 -199q-6 -27 -6 -43t8 -24q6 -6 16 -10l-1 -7h-220l-6 51h-3q-28 -29 -67 -48q-47 -21 -108 -21q-80 0 -121 44q-33 35 -33 90q0 70 45 113q46 44 165 58l70 8q72 9 89 20
q20 13 20 41q0 20 -15 32q-14 11 -42 11q-32 0 -49 -17q-18 -18 -19 -47zM357 210l4 17q-20 -15 -70 -24q-43 -7 -60 -20q-19 -14 -19 -36q0 -21 13 -32q12 -11 38 -11q32 0 58 26q23 23 36 80zM188 590l20 96h406l-20 -96h-406z" />
    <glyph glyph-name="Abreve" unicode="&#x102;" horiz-adv-x="663" 
d="M169 99l-53 -99h-226l408 700h215l110 -700h-226l-11 99h-217zM243 243h131l-22 210zM495 900h122q-12 -70 -74 -108q-53 -32 -147 -32q-95 0 -138 35q-45 37 -37 105h122q-5 -32 13 -48q15 -13 53 -13q40 0 60 16q22 16 26 45z" />
    <glyph glyph-name="abreve" unicode="&#x103;" horiz-adv-x="622" 
d="M264 335h-197q21 79 82 128q74 58 203 58q112 0 172 -37q68 -45 68 -132q0 -29 -9 -69l-42 -199q-6 -27 -6 -43t8 -24q6 -6 16 -10l-1 -7h-220l-6 51h-3q-28 -29 -67 -48q-47 -21 -108 -21q-80 0 -121 44q-33 35 -33 90q0 70 45 113q46 44 165 58l70 8q72 9 89 20
q20 13 20 41q0 20 -15 32q-14 11 -42 11q-32 0 -49 -17q-18 -18 -19 -47zM357 210l4 17q-20 -15 -70 -24q-43 -7 -60 -20q-19 -14 -19 -36q0 -21 13 -32q12 -11 38 -11q32 0 58 26q23 23 36 80zM475 702h122q-12 -70 -74 -108q-53 -32 -147 -32q-95 0 -138 35
q-45 37 -37 105h122q-5 -32 13 -48q15 -13 53 -13q40 0 60 16q22 16 26 45z" />
    <glyph glyph-name="Aogonek" unicode="&#x104;" horiz-adv-x="663" 
d="M169 99l-53 -99h-226l408 700h215l110 -700q-43 -28 -71 -63q-30 -38 -30 -81q0 -22 12 -32q10 -9 31 -9q25 0 37 17q12 16 12 44h107q-7 -60 -48 -99q-43 -41 -127 -41q-70 0 -105 26q-36 27 -36 79q0 51 32 94q34 44 81 65h-121l-11 99h-217zM243 243h131l-22 210z" />
    <glyph glyph-name="aogonek" unicode="&#x105;" horiz-adv-x="626" 
d="M264 335h-197q21 79 82 128q74 58 203 58q112 0 172 -37q68 -45 68 -132q0 -29 -9 -69l-42 -199q-6 -27 -6 -43t8 -24q6 -6 16 -10l-1 -7q-49 -27 -75 -64q-26 -36 -26 -77q0 -23 12 -34q10 -10 29 -10q26 0 39 16q14 18 12 45h107q-7 -60 -48 -99q-43 -41 -126 -41
q-71 0 -104 27q-38 30 -38 86q0 52 32 92q32 41 81 59h-115l-6 51h-3q-28 -29 -67 -48q-47 -21 -108 -21q-80 0 -121 44q-33 35 -33 90q0 70 45 113q46 44 165 58l70 8q72 9 89 20q20 13 20 41q0 20 -15 32q-14 11 -42 11q-32 0 -49 -17q-18 -18 -19 -47zM357 210l4 17
q-20 -15 -70 -24q-43 -7 -60 -20q-19 -14 -19 -36q0 -21 13 -32q12 -11 38 -11q32 0 58 26q23 23 36 80z" />
    <glyph glyph-name="Cacute" unicode="&#x106;" horiz-adv-x="775" 
d="M508 258h220q-27 -107 -99 -181q-96 -97 -263 -97q-164 0 -250 84t-86 232q0 95 33.5 180.5t91.5 140.5q108 101 289 101q155 0 238 -79q70 -67 68 -192h-211q3 38 -21 64q-25 25 -76 25q-59 0 -102 -38q-38 -34 -56 -88t-18 -103q0 -70 30 -107q30 -39 92 -39
q49 0 79 29q29 26 41 68zM472 898h189l-140 -132h-143z" />
    <glyph glyph-name="cacute" unicode="&#x107;" horiz-adv-x="632" 
d="M394 200h196q-24 -106 -102 -164q-74 -54 -203 -54q-130 0 -194 63q-63 63 -63 172q0 141 90 228q86 84 239 84q132 0 200 -61q61 -57 52 -157h-193q8 46 -10 69q-13 17 -41 17q-36 0 -62 -26q-28 -29 -44 -78t-16 -90q0 -46 21 -70q19 -19 48 -19q32 0 52 22
q22 24 30 64zM392 700h189l-140 -132h-143z" />
    <glyph glyph-name="Ccircumflex" unicode="&#x108;" horiz-adv-x="775" 
d="M508 258h220q-27 -107 -99 -181q-96 -97 -263 -97q-164 0 -250 84t-86 232q0 95 33.5 180.5t91.5 140.5q108 101 289 101q155 0 238 -79q70 -67 68 -192h-211q3 38 -21 64q-25 25 -76 25q-59 0 -102 -38q-38 -34 -56 -88t-18 -103q0 -70 30 -107q30 -39 92 -39
q49 0 79 29q29 26 41 68zM498 854l-96 -88h-160l153 132h224l97 -132h-160z" />
    <glyph glyph-name="ccircumflex" unicode="&#x109;" horiz-adv-x="632" 
d="M394 200h196q-24 -106 -102 -164q-74 -54 -203 -54q-130 0 -194 63q-63 63 -63 172q0 141 90 228q86 84 239 84q132 0 200 -61q61 -57 52 -157h-193q8 46 -10 69q-13 17 -41 17q-36 0 -62 -26q-28 -29 -44 -78t-16 -90q0 -46 21 -70q19 -19 48 -19q32 0 52 22
q22 24 30 64zM393 656l-96 -88h-160l153 132h224l97 -132h-160z" />
    <glyph glyph-name="Ccaron" unicode="&#x10c;" horiz-adv-x="775" 
d="M508 258h220q-27 -107 -99 -181q-96 -97 -263 -97q-164 0 -250 84t-86 232q0 95 33.5 180.5t91.5 140.5q108 101 289 101q155 0 238 -79q70 -67 68 -192h-211q3 38 -21 64q-25 25 -76 25q-59 0 -102 -38q-38 -34 -56 -88t-18 -103q0 -70 30 -107q30 -39 92 -39
q49 0 79 29q29 26 41 68zM470 810l96 88h160l-153 -132h-224l-97 132h160z" />
    <glyph glyph-name="ccaron" unicode="&#x10d;" horiz-adv-x="632" 
d="M394 200h196q-24 -106 -102 -164q-74 -54 -203 -54q-130 0 -194 63q-63 63 -63 172q0 141 90 228q86 84 239 84q132 0 200 -61q61 -57 52 -157h-193q8 46 -10 69q-13 17 -41 17q-36 0 -62 -26q-28 -29 -44 -78t-16 -90q0 -46 21 -70q19 -19 48 -19q32 0 52 22
q22 24 30 64zM390 612l96 88h160l-153 -132h-224l-97 132h160z" />
    <glyph glyph-name="Dcaron" unicode="&#x10e;" horiz-adv-x="803" 
d="M161 700h301q169 0 244 -75q72 -72 72 -204q0 -80 -29 -172t-91 -151q-103 -98 -313 -98h-333zM340 516l-70 -328h62q31 0 51 1.5t50 12.5t51 31q27 27 42.5 76t15.5 93q0 61 -33 88q-33 26 -112 26h-57zM475 810l96 88h160l-153 -132h-224l-97 132h160z" />
    <glyph glyph-name="dcaron" unicode="&#x10f;" horiz-adv-x="814" 
d="M582 0h-200l10 45h-2q-62 -63 -162 -63q-91 0 -144 57q-56 59 -56 163q0 73 24.5 139t68.5 109q78 76 194 76q97 0 156 -61l50 235h210zM246 205q0 -37 16 -60q21 -31 60 -31q35 0 62 25q24 22 40 69.5t16 87.5q0 42 -20 67q-19 21 -51 21q-41 0 -70 -29
q-53 -53 -53 -150zM747 560l29 140h154l-24 -114q-18 -85 -64 -126q-53 -45 -126 -44l14 69q50 2 69 19q18 16 28 52l1 4h-81z" />
    <glyph glyph-name="Dcroat" unicode="&#x110;" horiz-adv-x="820" 
d="M178 700h301q169 0 244 -75q72 -72 72 -204q0 -80 -29 -172t-91 -151q-103 -98 -313 -98h-333l69 324h-98l21 99h98zM357 516l-20 -93h134l-22 -104h-134l-28 -131h70q97 0 144 45q27 26 42.5 75.5t15.5 93.5q0 61 -33 88q-31 26 -112 26h-57z" />
    <glyph glyph-name="dcroat" unicode="&#x111;" horiz-adv-x="721" 
d="M582 0h-200l10 45h-2q-62 -63 -163 -63q-88 0 -143 57q-56 59 -56 163q0 73 24.5 139t68.5 109q78 76 196 76q96 0 154 -61l21 98h-207l16 75h207l13 62h210l-13 -62h88l-16 -75h-88zM246 205q0 -37 16 -60q21 -31 60 -31q35 0 62 25q24 22 40 69.5t16 87.5q0 42 -20 67
q-19 21 -51 21q-41 0 -70 -29q-53 -53 -53 -150z" />
    <glyph glyph-name="Emacron" unicode="&#x112;" horiz-adv-x="737" 
d="M323 436h311l-35 -165h-311l-19 -86h371l-39 -185h-589l149 700h581l-39 -185h-363zM248 788l20 96h406l-20 -96h-406z" />
    <glyph glyph-name="emacron" unicode="&#x113;" horiz-adv-x="649" 
d="M387 147h206q-33 -83 -108 -125q-71 -40 -189 -40q-133 0 -201 61q-67 60 -67 165q0 70 24.5 130t64.5 100q88 88 246 88q139 0 209 -68q55 -54 55 -147q0 -48 -16 -99h-369q-4 -16 -4 -34q0 -37 22 -55q19 -17 53 -17q27 0 47 11t27 30zM262 312h158q10 50 -14 74
q-18 16 -46 16q-34 0 -61 -25q-24 -23 -37 -65zM183 590l20 96h406l-20 -96h-406z" />
    <glyph glyph-name="Edotaccent" unicode="&#x116;" horiz-adv-x="737" 
d="M323 436h311l-35 -165h-311l-19 -86h371l-39 -185h-589l149 700h581l-39 -185h-363zM368 779l27 129h172l-27 -129h-172z" />
    <glyph glyph-name="edotaccent" unicode="&#x117;" horiz-adv-x="649" 
d="M387 147h206q-33 -83 -108 -125q-71 -40 -189 -40q-133 0 -201 61q-67 60 -67 165q0 70 24.5 130t64.5 100q88 88 246 88q139 0 209 -68q55 -54 55 -147q0 -48 -16 -99h-369q-4 -16 -4 -34q0 -37 22 -55q19 -17 53 -17q27 0 47 11t27 30zM262 312h158q10 50 -14 74
q-18 16 -46 16q-34 0 -61 -25q-24 -23 -37 -65zM298 581l27 129h172l-27 -129h-172z" />
    <glyph glyph-name="Eogonek" unicode="&#x118;" horiz-adv-x="737" 
d="M323 436h311l-35 -165h-311l-19 -86h371l-39 -185q-4 -2 -14 -9t-27.5 -22t-29.5 -31q-30 -39 -30 -83q0 -21 12 -31q9 -9 29 -9q24 0 37 17q12 17 14 44h107q-7 -60 -48 -99q-44 -41 -126 -41q-72 0 -106 26q-36 27 -36 76q0 54 34 99q30 40 79 63h-484l149 700h581
l-39 -185h-363z" />
    <glyph glyph-name="eogonek" unicode="&#x119;" horiz-adv-x="649" 
d="M593 147q-30 -69 -96 -114q-13 -9 -42 -25.5t-53.5 -32.5t-41.5 -32q-40 -40 -40 -86q0 -22 13 -33q9 -9 31 -9q25 0 37 18q11 15 11 43h107q-4 -60 -44 -98q-46 -42 -134 -42q-66 0 -100 26q-38 30 -38 81q0 46 27 84q23 34 63 55q-128 -2 -198 61q-67 60 -67 165
q0 70 24.5 130t64.5 100q88 88 246 88q139 0 209 -68q55 -54 55 -147q0 -48 -16 -99h-369q-4 -16 -4 -34q0 -37 22 -55q19 -17 53 -17q27 0 47 11t27 30h206zM262 312h158q10 50 -14 74q-18 16 -46 16q-34 0 -61 -25q-24 -23 -37 -65z" />
    <glyph glyph-name="Ecaron" unicode="&#x11a;" horiz-adv-x="737" 
d="M323 436h311l-35 -165h-311l-19 -86h371l-39 -185h-589l149 700h581l-39 -185h-363zM455 810l96 88h160l-153 -132h-224l-97 132h160z" />
    <glyph glyph-name="ecaron" unicode="&#x11b;" horiz-adv-x="649" 
d="M387 147h206q-33 -83 -108 -125q-71 -40 -189 -40q-133 0 -201 61q-67 60 -67 165q0 70 24.5 130t64.5 100q88 88 246 88q139 0 209 -68q55 -54 55 -147q0 -48 -16 -99h-369q-4 -16 -4 -34q0 -37 22 -55q19 -17 53 -17q27 0 47 11t27 30zM262 312h158q10 50 -14 74
q-18 16 -46 16q-34 0 -61 -25q-24 -23 -37 -65zM390 612l96 88h160l-153 -132h-224l-97 132h160z" />
    <glyph glyph-name="Gcircumflex" unicode="&#x11c;" horiz-adv-x="808" 
d="M459 386h306l-82 -386h-160v59q-68 -80 -199 -80q-140 0 -216 81q-78 82 -78 227q0 94 32.5 179.5t90.5 141.5q113 109 314 109q165 0 246 -81q72 -72 65 -178h-225q4 40 -22 64q-24 24 -73 24q-65 0 -111 -41q-38 -35 -57 -91t-19 -113q0 -78 36 -116q32 -34 88 -34
q40 0 75.5 19.5t51.5 61.5h-96zM493 854l-96 -88h-160l153 132h224l97 -132h-160z" />
    <glyph glyph-name="gcircumflex" unicode="&#x11d;" horiz-adv-x="683" 
d="M20 -27h194q-1 -22 15 -34q14 -10 43 -10q41 0 60 19q19 17 31 70l10 46h-5q-54 -46 -132 -46q-100 0 -154 54t-54 148q0 60 22 121.5t63 102.5q76 78 205 78q102 0 147 -60h5l10 46h197l-97 -457q-15 -69 -38 -115.5t-74 -81.5q-72 -48 -212 -48q-114 0 -166 33
q-71 45 -70 134zM249 242q0 -41 17 -64q20 -28 54 -28q36 0 63 27q22 22 32 57.5t10 65.5q0 45 -22 67q-17 17 -46 17q-39 0 -67 -28q-41 -41 -41 -114zM412 656l-96 -88h-160l153 132h224l97 -132h-160z" />
    <glyph glyph-name="Gbreve" unicode="&#x11e;" horiz-adv-x="808" 
d="M459 386h306l-82 -386h-160v59q-68 -80 -199 -80q-140 0 -216 81q-78 82 -78 227q0 94 32.5 179.5t90.5 141.5q113 109 314 109q165 0 246 -81q72 -72 65 -178h-225q4 40 -22 64q-24 24 -73 24q-65 0 -111 -41q-38 -35 -57 -91t-19 -113q0 -78 36 -116q32 -34 88 -34
q40 0 75.5 19.5t51.5 61.5h-96zM575 900h122q-12 -70 -74 -108q-53 -32 -147 -32q-95 0 -138 35q-45 37 -37 105h122q-5 -32 13 -48q15 -13 53 -13q40 0 60 16q22 16 26 45z" />
    <glyph glyph-name="gbreve" unicode="&#x11f;" horiz-adv-x="683" 
d="M20 -27h194q-1 -22 15 -34q14 -10 43 -10q41 0 60 19q19 17 31 70l10 46h-5q-54 -46 -132 -46q-100 0 -154 54t-54 148q0 60 22 121.5t63 102.5q76 78 205 78q102 0 147 -60h5l10 46h197l-97 -457q-15 -69 -38 -115.5t-74 -81.5q-72 -48 -212 -48q-114 0 -166 33
q-71 45 -70 134zM249 242q0 -41 17 -64q20 -28 54 -28q36 0 63 27q22 22 32 57.5t10 65.5q0 45 -22 67q-17 17 -46 17q-39 0 -67 -28q-41 -41 -41 -114zM495 702h122q-12 -70 -74 -108q-53 -32 -147 -32q-95 0 -138 35q-45 37 -37 105h122q-5 -32 13 -48q15 -13 53 -13
q40 0 60 16q22 16 26 45z" />
    <glyph glyph-name="Gcommaaccent" unicode="&#x122;" horiz-adv-x="808" 
d="M459 386h306l-82 -386h-160v59q-68 -80 -199 -80q-140 0 -216 81q-78 82 -78 227q0 94 32.5 179.5t90.5 141.5q113 109 314 109q165 0 246 -81q72 -72 65 -178h-225q4 40 -22 64q-24 24 -73 24q-65 0 -111 -41q-38 -35 -57 -91t-19 -113q0 -78 36 -116q32 -34 88 -34
q40 0 75.5 19.5t51.5 61.5h-96zM241 -175l25 115h163l-19 -88q-20 -86 -59 -125q-53 -53 -137 -51l15 71q51 -2 77 24q17 17 25 50l1 4h-91z" />
    <glyph glyph-name="gcommaaccent" unicode="&#x123;" horiz-adv-x="683" 
d="M20 -27h194q-1 -22 15 -34q14 -10 43 -10q41 0 60 19q19 17 31 70l10 46h-5q-54 -46 -132 -46q-100 0 -154 54t-54 148q0 60 22 121.5t63 102.5q76 78 205 78q102 0 147 -60h5l10 46h197l-97 -457q-15 -69 -38 -115.5t-74 -81.5q-72 -48 -212 -48q-114 0 -166 33
q-71 45 -70 134zM249 242q0 -41 17 -64q20 -28 54 -28q36 0 63 27q22 22 32 57.5t10 65.5q0 45 -22 67q-17 17 -46 17q-39 0 -67 -28q-41 -41 -41 -114zM484 671l-25 -113h-158l18 79q21 88 57 124q46 47 129 47h9l-13 -61q-53 2 -77 -22q-17 -17 -25 -50l-1 -4h86z" />
    <glyph glyph-name="Hcircumflex" unicode="&#x124;" horiz-adv-x="804" 
d="M289 275l-59 -275h-218l149 700h218l-51 -241h195l51 241h218l-149 -700h-218l59 275h-195zM503 854l-96 -88h-160l153 132h224l97 -132h-160z" />
    <glyph glyph-name="hcircumflex" unicode="&#x125;" horiz-adv-x="675" 
d="M365 700l-50 -235q67 58 156 58q88 0 133 -45q36 -36 36 -100q0 -26 -9 -73l-65 -305h-210l59 276q6 22 6 44q0 27 -13 40q-12 13 -36 13q-35 0 -59 -24q-28 -28 -41 -89l-56 -260h-210l149 700h210zM288 826l-96 -88h-160l153 132h224l97 -132h-160z" />
    <glyph glyph-name="Imacron" unicode="&#x12a;" horiz-adv-x="391" 
d="M161 700h218l-149 -700h-218zM68 788l20 96h406l-20 -96h-406z" />
    <glyph glyph-name="imacron" unicode="&#x12b;" horiz-adv-x="339" 
d="M118 508h210l-108 -508h-210zM28 590l20 96h406l-20 -96h-406z" />
    <glyph glyph-name="Iogonek" unicode="&#x12e;" horiz-adv-x="391" 
d="M161 700h218l-149 -700q-43 -26 -71 -63q-30 -40 -30 -82q0 -21 12 -31q9 -9 29 -9q24 0 37 17q12 17 14 44h107q-6 -59 -48 -99q-44 -41 -128 -41q-67 0 -100 23q-40 27 -40 79q0 51 34 96q32 42 79 66h-113z" />
    <glyph glyph-name="iogonek" unicode="&#x12f;" horiz-adv-x="339" 
d="M118 508h210l-108 -508q-47 -32 -70 -63q-31 -39 -31 -82q0 -21 12 -31q9 -9 29 -9q24 0 37 17q12 17 14 44h107q-6 -59 -46 -99q-42 -41 -126 -41q-74 0 -108 26q-36 27 -36 76q0 54 33 98q30 41 80 64h-105zM131 568l28 132h210l-28 -132h-210z" />
    <glyph glyph-name="Idotaccent" unicode="&#x130;" horiz-adv-x="391" 
d="M161 700h218l-149 -700h-218zM193 779l27 129h172l-27 -129h-172z" />
    <glyph glyph-name="dotlessi" unicode="&#x131;" horiz-adv-x="339" 
d="M118 508h210l-108 -508h-210z" />
    <glyph glyph-name="Jcircumflex" unicode="&#x134;" horiz-adv-x="639" 
d="M-6 276h214l-6 -22q-8 -32 -8 -49q0 -26 14 -39q12 -11 32 -11q29 0 44 15q15 14 23 51l102 479h218l-95 -445q-9 -43 -15 -66t-26 -65t-47 -69q-76 -75 -226 -75q-128 0 -187 58q-51 49 -51 139q0 33 13 94zM408 854l-96 -88h-160l153 132h224l97 -132h-160z" />
    <glyph glyph-name="jcircumflex" unicode="&#x135;" horiz-adv-x="351" 
d="M128 508h211l-108 -507q-20 -99 -69 -142q-52 -47 -159 -47q-64 0 -113 10l30 142q15 -3 33 -3q33 0 50 16q16 16 23 52zM247 656l-96 -88h-160l153 132h224l97 -132h-160z" />
    <glyph glyph-name="Kcommaaccent" unicode="&#x136;" horiz-adv-x="783" 
d="M330 471l269 229h264l-346 -297l210 -403h-264l-123 263l-66 -60l-44 -203h-218l149 700h218zM236 -175l25 115h163l-19 -88q-20 -86 -59 -125q-53 -53 -137 -51l15 71q51 -2 77 24q17 17 25 50l1 4h-91z" />
    <glyph glyph-name="kcommaaccent" unicode="&#x137;" horiz-adv-x="634" 
d="M290 350l171 158h233l-233 -204l136 -304l-229 1l-68 182l-55 -46l-29 -137h-210l149 700h210zM174 -173l25 113h158l-18 -79q-21 -88 -57 -124q-46 -47 -129 -47h-9l13 61q53 -2 77 22q17 17 25 50l1 4h-86z" />
    <glyph glyph-name="Lacute" unicode="&#x139;" horiz-adv-x="602" 
d="M572 185l-39 -185h-521l149 700h218l-110 -515h303zM282 898h189l-140 -132h-143z" />
    <glyph glyph-name="lacute" unicode="&#x13a;" horiz-adv-x="330" 
d="M155 700h210l-149 -700h-210zM262 880h189l-140 -132h-143z" />
    <glyph glyph-name="Lcommaaccent" unicode="&#x13b;" horiz-adv-x="602" 
d="M572 185l-39 -185h-521l149 700h218l-110 -515h303zM176 -175l25 115h163l-19 -88q-20 -86 -59 -125q-53 -53 -137 -51l15 71q51 -2 77 24q17 17 25 50l1 4h-91z" />
    <glyph glyph-name="lcommaaccent" unicode="&#x13c;" horiz-adv-x="330" 
d="M155 700h210l-149 -700h-210zM-13 -173l25 113h158l-18 -79q-21 -88 -57 -124q-46 -47 -129 -47h-9l13 61q53 -2 77 22q17 17 25 50l1 4h-86z" />
    <glyph glyph-name="Lcaron" unicode="&#x13d;" horiz-adv-x="602" 
d="M572 185l-39 -185h-521l149 700h218l-110 -515h303zM459 560l29 140h154l-24 -114q-17 -80 -56 -120q-48 -50 -134 -50l14 69q49 0 74 25q16 16 23 46l1 4h-81z" />
    <glyph glyph-name="lcaron" unicode="&#x13e;" horiz-adv-x="454" 
d="M155 700h210l-149 -700h-210zM387 560l29 140h154l-24 -114q-18 -85 -64 -126q-53 -45 -126 -44l14 69q50 2 69 19q18 16 28 52l1 4h-81z" />
    <glyph glyph-name="Lslash" unicode="&#x141;" horiz-adv-x="619" 
d="M589 185l-39 -185h-521l45 212l-124 -87l30 142l125 89l73 344h218l-43 -204l175 134l-30 -141l-175 -134l-37 -170h303z" />
    <glyph glyph-name="lslash" unicode="&#x142;" horiz-adv-x="456" 
d="M198 700h210l-43 -203l161 98l-23 -104l-161 -101l-83 -390h-210l61 287l-160 -92l23 104l160 94z" />
    <glyph glyph-name="Nacute" unicode="&#x143;" horiz-adv-x="823" 
d="M313 392h-5l-6 -53l-72 -339h-218l149 700h218l131 -392h5l6 53l72 339h218l-149 -700h-218zM492 898h189l-140 -132h-143z" />
    <glyph glyph-name="nacute" unicode="&#x144;" horiz-adv-x="675" 
d="M315 508l-11 -54h4q63 69 161 69q87 0 132 -45q39 -41 39 -103q0 -23 -9 -70l-65 -305h-210l58 274q6 22 6 45q0 27 -13 41q-13 13 -36 13q-33 0 -56 -25q-28 -30 -43 -90l-56 -258h-210l108 508h201zM402 700h189l-140 -132h-143z" />
    <glyph glyph-name="Ncommaaccent" unicode="&#x145;" horiz-adv-x="823" 
d="M313 392h-5l-6 -53l-72 -339h-218l149 700h218l131 -392h5l6 53l72 339h218l-149 -700h-218zM231 -175l25 115h163l-19 -88q-20 -86 -59 -125q-53 -53 -137 -51l15 71q51 -2 77 24q17 17 25 50l1 4h-91z" />
    <glyph glyph-name="ncommaaccent" unicode="&#x146;" horiz-adv-x="675" 
d="M315 508l-11 -54h4q63 69 161 69q87 0 132 -45q39 -41 39 -103q0 -23 -9 -70l-65 -305h-210l58 274q6 22 6 45q0 27 -13 41q-13 13 -36 13q-33 0 -56 -25q-28 -30 -43 -90l-56 -258h-210l108 508h201zM169 -173l25 113h158l-18 -79q-21 -88 -57 -124q-46 -47 -129 -47h-9
l13 61q53 -2 77 22q17 17 25 50l1 4h-86z" />
    <glyph glyph-name="Ncaron" unicode="&#x147;" horiz-adv-x="823" 
d="M313 392h-5l-6 -53l-72 -339h-218l149 700h218l131 -392h5l6 53l72 339h218l-149 -700h-218zM495 810l96 88h160l-153 -132h-224l-97 132h160z" />
    <glyph glyph-name="ncaron" unicode="&#x148;" horiz-adv-x="675" 
d="M315 508l-11 -54h4q63 69 161 69q87 0 132 -45q39 -41 39 -103q0 -23 -9 -70l-65 -305h-210l58 274q6 22 6 45q0 27 -13 41q-13 13 -36 13q-33 0 -56 -25q-28 -30 -43 -90l-56 -258h-210l108 508h201zM395 612l96 88h160l-153 -132h-224l-97 132h160z" />
    <glyph glyph-name="Omacron" unicode="&#x14c;" 
d="M455 719q166 0 253 -89q84 -86 84 -225q0 -88 -34 -179.5t-97 -148.5q-106 -96 -289 -96q-167 0 -253 80q-89 82 -89 233q0 99 40.5 191.5t111.5 148.5q105 85 273 85zM266 295q0 -55 26 -89q31 -41 94 -41q54 0 92 32q37 30 58.5 91.5t21.5 118.5q0 58 -28 92
q-29 36 -86 36q-59 0 -102 -40q-37 -34 -56.5 -91t-19.5 -109zM288 788l20 96h406l-20 -96h-406z" />
    <glyph glyph-name="omacron" unicode="&#x14d;" horiz-adv-x="666" 
d="M364 394q-37 0 -64 -24t-43.5 -70t-16.5 -96q0 -47 18 -69q19 -21 51 -21q37 0 64 27q25 25 39 75.5t14 94.5q0 40 -16 61q-17 22 -46 22zM638 290q0 -143 -88 -227q-52 -49 -112.5 -65t-136.5 -16q-144 0 -212 67q-61 60 -61 163q0 142 94 231q88 83 246 83
q136 0 205 -67q65 -63 65 -169zM203 590l20 96h406l-20 -96h-406z" />
    <glyph glyph-name="Obreve" unicode="&#x14e;" 
d="M455 719q166 0 253 -89q84 -86 84 -225q0 -88 -34 -179.5t-97 -148.5q-106 -96 -289 -96q-167 0 -253 80q-89 82 -89 233q0 99 40.5 191.5t111.5 148.5q105 85 273 85zM266 295q0 -55 26 -89q31 -41 94 -41q54 0 92 32q37 30 58.5 91.5t21.5 118.5q0 58 -28 92
q-29 36 -86 36q-59 0 -102 -40q-37 -34 -56.5 -91t-19.5 -109zM585 900h122q-12 -70 -74 -108q-53 -32 -147 -32q-95 0 -138 35q-45 37 -37 105h122q-5 -32 13 -48q15 -13 53 -13q40 0 60 16q22 16 26 45z" />
    <glyph glyph-name="obreve" unicode="&#x14f;" horiz-adv-x="666" 
d="M364 394q-37 0 -64 -24t-43.5 -70t-16.5 -96q0 -47 18 -69q19 -21 51 -21q37 0 64 27q25 25 39 75.5t14 94.5q0 40 -16 61q-17 22 -46 22zM638 290q0 -143 -88 -227q-52 -49 -112.5 -65t-136.5 -16q-144 0 -212 67q-61 60 -61 163q0 142 94 231q88 83 246 83
q136 0 205 -67q65 -63 65 -169zM485 702h122q-12 -70 -74 -108q-53 -32 -147 -32q-95 0 -138 35q-45 37 -37 105h122q-5 -32 13 -48q15 -13 53 -13q40 0 60 16q22 16 26 45z" />
    <glyph glyph-name="Ohungarumlaut" unicode="&#x150;" 
d="M455 719q166 0 253 -89q84 -86 84 -225q0 -88 -34 -179.5t-97 -148.5q-106 -96 -289 -96q-167 0 -253 80q-89 82 -89 233q0 99 40.5 191.5t111.5 148.5q105 85 273 85zM266 295q0 -55 26 -89q31 -41 94 -41q54 0 92 32q37 30 58.5 91.5t21.5 118.5q0 58 -28 92
q-29 36 -86 36q-59 0 -102 -40q-37 -34 -56.5 -91t-19.5 -109zM362 908h187l-125 -132h-147zM595 908h188l-126 -132h-147z" />
    <glyph glyph-name="ohungarumlaut" unicode="&#x151;" horiz-adv-x="666" 
d="M364 394q-37 0 -64 -24t-43.5 -70t-16.5 -96q0 -47 18 -69q19 -21 51 -21q37 0 64 27q25 25 39 75.5t14 94.5q0 40 -16 61q-17 22 -46 22zM638 290q0 -143 -88 -227q-52 -49 -112.5 -65t-136.5 -16q-144 0 -212 67q-61 60 -61 163q0 142 94 231q88 83 246 83
q136 0 205 -67q65 -63 65 -169zM252 710h187l-125 -132h-147zM485 710h188l-126 -132h-147z" />
    <glyph glyph-name="OE" unicode="&#x152;" horiz-adv-x="1228" 
d="M509 0l10 46q-81 -65 -189 -65q-143 0 -219 78q-81 83 -81 229q0 98 34.5 187t94.5 146q101 98 273 98q143 0 214 -73l12 54h575l-39 -185h-363l-17 -79h311l-35 -165h-311l-19 -86h371l-39 -185h-583zM264 294q0 -55 26 -89q31 -41 94 -41q54 0 92 32q37 30 58.5 91.5
t21.5 118.5q0 58 -28 92q-29 36 -86 36q-59 0 -102 -40q-37 -34 -56.5 -91t-19.5 -109z" />
    <glyph glyph-name="oe" unicode="&#x153;" horiz-adv-x="1018" 
d="M759 147h206q-28 -81 -105 -125q-71 -40 -179 -40q-91 0 -136.5 18.5t-71.5 50.5q-68 -69 -186 -69q-131 0 -198 66q-61 61 -61 164q0 140 94 231q86 83 232 83q79 0 124 -22t72 -63q62 85 198 85q128 0 194 -68q54 -56 54 -149q0 -39 -13 -97h-369q-4 -16 -4 -34
q0 -37 22 -55q19 -17 53 -17q27 0 47 11t27 30zM356 394q-34 0 -63 -27q-26 -25 -41 -72t-15 -89q0 -46 15 -66q17 -26 50 -26q38 0 64 27q25 25 39 75.5t14 94.5q0 41 -16 61q-17 22 -47 22zM631 312h158q10 50 -14 74q-18 16 -46 16q-39 0 -66 -27q-23 -23 -32 -63z" />
    <glyph glyph-name="Racute" unicode="&#x154;" horiz-adv-x="772" 
d="M12 0l149 700h359q122 0 176 -50q54 -48 54 -139q0 -87 -52 -140q-38 -39 -96 -51l-1 -5q26 -8 42 -25q28 -29 28 -73q0 -17 -7 -57l-10 -57q-6 -32 -6 -49q0 -29 13 -54h-223q-14 24 -14 52q0 14 4 34l6 37q8 53 8 59q0 33 -24 48q-20 12 -61 12h-76l-51 -242h-218z
M343 530l-30 -138h122q55 0 81 29q18 20 18 50t-21 46q-18 13 -63 13h-107zM452 898h189l-140 -132h-143z" />
    <glyph glyph-name="racute" unicode="&#x155;" horiz-adv-x="479" 
d="M524 519l-35 -165q-38 5 -57 5q-76 0 -122 -48q-38 -40 -55 -127l-39 -184h-210l108 508h201l-15 -72q30 43 78 65q47 21 101 21q21 0 45 -3zM307 700h189l-140 -132h-143z" />
    <glyph glyph-name="Rcommaaccent" unicode="&#x156;" horiz-adv-x="772" 
d="M12 0l149 700h359q122 0 176 -50q54 -48 54 -139q0 -87 -52 -140q-38 -39 -96 -51l-1 -5q26 -8 42 -25q28 -29 28 -73q0 -17 -7 -57l-10 -57q-6 -32 -6 -49q0 -29 13 -54h-223q-14 24 -14 52q0 14 4 34l6 37q8 53 8 59q0 33 -24 48q-20 12 -61 12h-76l-51 -242h-218z
M343 530l-30 -138h122q55 0 81 29q18 20 18 50t-21 46q-18 13 -63 13h-107zM221 -175l25 115h163l-19 -88q-20 -86 -59 -125q-53 -53 -137 -51l15 71q51 -2 77 24q17 17 25 50l1 4h-91z" />
    <glyph glyph-name="rcommaaccent" unicode="&#x157;" horiz-adv-x="479" 
d="M524 519l-35 -165q-38 5 -57 5q-76 0 -122 -48q-38 -40 -55 -127l-39 -184h-210l108 508h201l-15 -72q30 43 78 65q47 21 101 21q21 0 45 -3zM114 -173l25 113h158l-18 -79q-21 -88 -57 -124q-46 -47 -129 -47h-9l13 61q53 -2 77 22q17 17 25 50l1 4h-86z" />
    <glyph glyph-name="Rcaron" unicode="&#x158;" horiz-adv-x="772" 
d="M12 0l149 700h359q122 0 176 -50q54 -48 54 -139q0 -87 -52 -140q-38 -39 -96 -51l-1 -5q26 -8 42 -25q28 -29 28 -73q0 -17 -7 -57l-10 -57q-6 -32 -6 -49q0 -29 13 -54h-223q-14 24 -14 52q0 14 4 34l6 37q8 53 8 59q0 33 -24 48q-20 12 -61 12h-76l-51 -242h-218z
M343 530l-30 -138h122q55 0 81 29q18 20 18 50t-21 46q-18 13 -63 13h-107zM465 810l96 88h160l-153 -132h-224l-97 132h160z" />
    <glyph glyph-name="rcaron" unicode="&#x159;" horiz-adv-x="479" 
d="M524 519l-35 -165q-38 5 -57 5q-76 0 -122 -48q-38 -40 -55 -127l-39 -184h-210l108 508h201l-15 -72q30 43 78 65q47 21 101 21q21 0 45 -3zM315 612l96 88h160l-153 -132h-224l-97 132h160z" />
    <glyph glyph-name="Sacute" unicode="&#x15a;" horiz-adv-x="646" 
d="M-3 231h217q-13 -55 18 -83q24 -21 72 -21q49 0 73 17q29 20 29 58q0 37 -34 52q-14 7 -72 19l-65 14q-82 17 -121 49q-57 45 -57 127q0 58 25.5 108t68.5 83q83 64 229 64q129 0 196 -45q75 -49 75 -143q0 -10 -2 -30h-204q6 39 -21 58q-19 12 -57 12q-45 0 -69 -20
q-18 -15 -18 -39q0 -28 31 -42q11 -6 78 -21l57 -13q91 -21 130 -60q46 -46 46 -132q0 -109 -71 -179q-88 -86 -268 -86q-145 0 -214 52q-74 57 -74 163q0 25 2 38zM392 898h189l-140 -132h-143z" />
    <glyph glyph-name="sacute" unicode="&#x15b;" horiz-adv-x="562" 
d="M-5 167h202q-9 -39 15 -59q16 -13 51 -13q32 0 48 12q19 13 19 38t-23 36q-14 7 -58 14l-48 8q-60 9 -95 29q-59 33 -59 105q0 78 64 132q71 58 203 58q112 0 163 -32q70 -41 70 -132h-175q6 33 -17 49q-16 11 -44 11t-46 -12q-20 -15 -20 -37q0 -20 23 -32q18 -8 65 -16
l58 -11q81 -16 112 -48q32 -33 32 -86q0 -82 -53 -133q-69 -67 -233 -67q-153 0 -213 60q-25 25 -33 53.5t-8 72.5zM330 700h189l-140 -132h-143z" />
    <glyph glyph-name="Scircumflex" unicode="&#x15c;" horiz-adv-x="646" 
d="M-3 231h217q-13 -55 18 -83q24 -21 72 -21q49 0 73 17q29 20 29 58q0 37 -34 52q-14 7 -72 19l-65 14q-82 17 -121 49q-57 45 -57 127q0 58 25.5 108t68.5 83q83 64 229 64q129 0 196 -45q75 -49 75 -143q0 -10 -2 -30h-204q6 39 -21 58q-19 12 -57 12q-45 0 -69 -20
q-18 -15 -18 -39q0 -28 31 -42q11 -6 78 -21l57 -13q91 -21 130 -60q46 -46 46 -132q0 -109 -71 -179q-88 -86 -268 -86q-145 0 -214 52q-74 57 -74 163q0 25 2 38zM408 854l-96 -88h-160l153 132h224l97 -132h-160z" />
    <glyph glyph-name="scircumflex" unicode="&#x15d;" horiz-adv-x="562" 
d="M-5 167h202q-9 -39 15 -59q16 -13 51 -13q32 0 48 12q19 13 19 38t-23 36q-14 7 -58 14l-48 8q-60 9 -95 29q-59 33 -59 105q0 78 64 132q71 58 203 58q112 0 163 -32q70 -41 70 -132h-175q6 33 -17 49q-16 11 -44 11t-46 -12q-20 -15 -20 -37q0 -20 23 -32q18 -8 65 -16
l58 -11q81 -16 112 -48q32 -33 32 -86q0 -82 -53 -133q-69 -67 -233 -67q-153 0 -213 60q-25 25 -33 53.5t-8 72.5zM338 656l-96 -88h-160l153 132h224l97 -132h-160z" />
    <glyph glyph-name="Scedilla" unicode="&#x15e;" horiz-adv-x="646" 
d="M-3 231h217q-13 -55 18 -83q24 -21 72 -21q49 0 73 17q29 20 29 58q0 37 -34 52q-14 7 -72 19l-65 14q-82 17 -121 49q-57 45 -57 127q0 58 25.5 108t68.5 83q83 64 229 64q129 0 196 -45q75 -49 75 -143q0 -10 -2 -30h-204q6 39 -21 58q-19 12 -57 12q-45 0 -69 -20
q-18 -15 -18 -39q0 -28 31 -42q11 -6 78 -21l57 -13q91 -21 130 -60q46 -46 46 -132q0 -109 -71 -179q-88 -86 -268 -86q-145 0 -214 52q-74 57 -74 163q0 25 2 38zM145 -234l39 70q33 -10 69 -10q26 0 39 6q19 10 19 28q0 19 -23 23q-22 3 -62 3h-14l37 67q3 0 25 1t32 1
q56 0 84 -14q37 -21 37 -66q0 -65 -53 -99q-42 -26 -117 -26q-60 0 -112 16z" />
    <glyph glyph-name="scedilla" unicode="&#x15f;" horiz-adv-x="562" 
d="M-5 167h202q-9 -39 15 -59q16 -13 51 -13q32 0 48 12q19 13 19 38t-23 36q-14 7 -58 14l-48 8q-60 9 -95 29q-59 33 -59 105q0 78 64 132q71 58 203 58q112 0 163 -32q70 -41 70 -132h-175q6 33 -17 49q-16 11 -44 11t-46 -12q-20 -15 -20 -37q0 -20 23 -32q18 -8 65 -16
l58 -11q81 -16 112 -48q32 -33 32 -86q0 -82 -53 -133q-69 -67 -233 -67q-153 0 -213 60q-25 25 -33 53.5t-8 72.5zM100 -234l39 70q31 -10 69 -10q28 0 40 6q18 8 18 28q0 17 -18 22q-14 4 -73 4h-8l37 67q36 2 57 2q59 0 88 -19q33 -22 33 -69q0 -51 -29 -80
q-37 -37 -131 -37q-73 0 -122 16z" />
    <glyph glyph-name="Scaron" unicode="&#x160;" horiz-adv-x="646" 
d="M-3 231h217q-13 -55 18 -83q24 -21 72 -21q49 0 73 17q29 20 29 58q0 37 -34 52q-14 7 -72 19l-65 14q-82 17 -121 49q-57 45 -57 127q0 58 25.5 108t68.5 83q83 64 229 64q129 0 196 -45q75 -49 75 -143q0 -10 -2 -30h-204q6 39 -21 58q-19 12 -57 12q-45 0 -69 -20
q-18 -15 -18 -39q0 -28 31 -42q11 -6 78 -21l57 -13q91 -21 130 -60q46 -46 46 -132q0 -109 -71 -179q-88 -86 -268 -86q-145 0 -214 52q-74 57 -74 163q0 25 2 38zM395 810l96 88h160l-153 -132h-224l-97 132h160z" />
    <glyph glyph-name="scaron" unicode="&#x161;" horiz-adv-x="562" 
d="M-5 167h202q-9 -39 15 -59q16 -13 51 -13q32 0 48 12q19 13 19 38t-23 36q-14 7 -58 14l-48 8q-60 9 -95 29q-59 33 -59 105q0 78 64 132q71 58 203 58q112 0 163 -32q70 -41 70 -132h-175q6 33 -17 49q-16 11 -44 11t-46 -12q-20 -15 -20 -37q0 -20 23 -32q18 -8 65 -16
l58 -11q81 -16 112 -48q32 -33 32 -86q0 -82 -53 -133q-69 -67 -233 -67q-153 0 -213 60q-25 25 -33 53.5t-8 72.5zM320 612l96 88h160l-153 -132h-224l-97 132h160z" />
    <glyph glyph-name="Tcommaaccent" unicode="&#x162;" horiz-adv-x="605" 
d="M228 508h-198l41 192h614l-41 -192h-198l-108 -508h-218zM116 -175l25 115h163l-19 -88q-20 -86 -59 -125q-53 -53 -137 -51l15 71q51 -2 77 24q17 17 25 50l1 4h-91z" />
    <glyph glyph-name="tcommaaccent" unicode="&#x163;" horiz-adv-x="424" 
d="M25 370l29 138h92l32 150h210l-32 -150h108l-29 -138h-108l-33 -152q-7 -37 -7 -44q0 -23 14 -33q12 -8 37 -8q24 0 48 7l-30 -141q-63 -14 -125 -14q-82 0 -120 25q-46 30 -46 95q0 25 10 73l42 192h-92zM114 -173l25 113h158l-18 -79q-21 -88 -57 -124
q-46 -47 -129 -47h-9l13 61q53 -2 77 22q17 17 25 50l1 4h-86z" />
    <glyph glyph-name="Tcaron" unicode="&#x164;" horiz-adv-x="605" 
d="M228 508h-198l41 192h614l-41 -192h-198l-108 -508h-218zM385 810l96 88h160l-153 -132h-224l-97 132h160z" />
    <glyph glyph-name="tcaron" unicode="&#x165;" horiz-adv-x="467" 
d="M25 370l29 138h92l32 150h210l-32 -150h108l-29 -138h-108l-33 -152q-7 -37 -7 -44q0 -23 14 -33q12 -8 37 -8q24 0 48 7l-30 -141q-63 -14 -125 -14q-82 0 -120 25q-46 30 -46 95q0 25 10 73l42 192h-92zM447 700l29 140h154l-24 -114q-18 -85 -64 -126
q-53 -45 -126 -44l14 69q50 2 69 19q18 16 28 52l1 4h-81z" />
    <glyph glyph-name="Utilde" unicode="&#x168;" horiz-adv-x="813" 
d="M803 700l-93 -438q-30 -137 -94 -199q-85 -82 -254 -82q-157 0 -232 62q-72 59 -72 167q0 40 18 124l79 366h219l-85 -391q-10 -48 -10 -64q0 -42 26 -66q24 -22 66 -22q52 0 83 34q28 30 40 85l90 424h219zM664 901h106q-18 -57 -58 -97q-38 -38 -90 -38q-39 0 -79 21
l-27 14q-32 16 -54 16q-21 0 -33 -13q-10 -11 -15 -27h-107q19 54 56 92q41 41 100 41q36 0 72 -19l24 -12q40 -20 60 -20q17 0 30 13q10 10 15 29z" />
    <glyph glyph-name="utilde" unicode="&#x169;" horiz-adv-x="676" 
d="M367 0l11 52h-7q-62 -66 -167 -66q-81 0 -121 39q-43 41 -43 114q0 33 9 80l62 289h210l-59 -275q-6 -27 -6 -43q0 -24 12 -39q11 -15 34 -15q39 0 63 27q24 26 39 91l56 254h210l-108 -508h-195zM564 703h106q-19 -60 -58 -97q-39 -38 -94 -38q-33 0 -75 21l-27 14
q-32 16 -54 16q-21 0 -33 -13q-10 -11 -15 -27h-107q20 57 56 92q41 41 101 41q34 0 71 -19l24 -12q43 -20 60 -20t30 13q10 10 15 29z" />
    <glyph glyph-name="Umacron" unicode="&#x16a;" horiz-adv-x="813" 
d="M803 700l-93 -438q-30 -137 -94 -199q-85 -82 -254 -82q-157 0 -232 62q-72 59 -72 167q0 40 18 124l79 366h219l-85 -391q-10 -48 -10 -64q0 -42 26 -66q24 -22 66 -22q52 0 83 34q28 30 40 85l90 424h219zM278 788l20 96h406l-20 -96h-406z" />
    <glyph glyph-name="umacron" unicode="&#x16b;" horiz-adv-x="676" 
d="M367 0l11 52h-7q-62 -66 -167 -66q-81 0 -121 39q-43 41 -43 114q0 33 9 80l62 289h210l-59 -275q-6 -27 -6 -43q0 -24 12 -39q11 -15 34 -15q39 0 63 27q24 26 39 91l56 254h210l-108 -508h-195zM193 590l20 96h406l-20 -96h-406z" />
    <glyph glyph-name="Ubreve" unicode="&#x16c;" horiz-adv-x="813" 
d="M803 700l-93 -438q-30 -137 -94 -199q-85 -82 -254 -82q-157 0 -232 62q-72 59 -72 167q0 40 18 124l79 366h219l-85 -391q-10 -48 -10 -64q0 -42 26 -66q24 -22 66 -22q52 0 83 34q28 30 40 85l90 424h219zM575 900h122q-12 -70 -74 -108q-53 -32 -147 -32
q-95 0 -138 35q-45 37 -37 105h122q-5 -32 13 -48q15 -13 53 -13q40 0 60 16q22 16 26 45z" />
    <glyph glyph-name="ubreve" unicode="&#x16d;" horiz-adv-x="676" 
d="M367 0l11 52h-7q-62 -66 -167 -66q-81 0 -121 39q-43 41 -43 114q0 33 9 80l62 289h210l-59 -275q-6 -27 -6 -43q0 -24 12 -39q11 -15 34 -15q39 0 63 27q24 26 39 91l56 254h210l-108 -508h-195zM490 702h122q-12 -70 -74 -108q-53 -32 -147 -32q-95 0 -138 35
q-45 37 -37 105h122q-5 -32 13 -48q15 -13 53 -13q40 0 60 16q22 16 26 45z" />
    <glyph glyph-name="Uring" unicode="&#x16e;" horiz-adv-x="813" 
d="M803 700l-93 -438q-30 -137 -94 -199q-85 -82 -254 -82q-157 0 -232 62q-72 59 -72 167q0 40 18 124l79 366h219l-85 -391q-10 -48 -10 -64q0 -42 26 -66q24 -22 66 -22q52 0 83 34q28 30 40 85l90 424h219zM390 868q0 44 31 75t75 31t75 -31t31 -75t-31 -75t-75 -31
t-75 31t-31 75zM452 868q0 -18 13 -31t31 -13t31 13t13 31t-13 31t-31 13t-31 -13t-13 -31z" />
    <glyph glyph-name="uring" unicode="&#x16f;" horiz-adv-x="676" 
d="M367 0l11 52h-7q-62 -66 -167 -66q-81 0 -121 39q-43 41 -43 114q0 33 9 80l62 289h210l-59 -275q-6 -27 -6 -43q0 -24 12 -39q11 -15 34 -15q39 0 63 27q24 26 39 91l56 254h210l-108 -508h-195zM300 670q0 44 31 75t75 31t75 -31t31 -75t-31 -75t-75 -31t-75 31t-31 75
zM362 670q0 -18 13 -31t31 -13t31 13t13 31t-13 31t-31 13t-31 -13t-13 -31z" />
    <glyph glyph-name="Uhungarumlaut" unicode="&#x170;" horiz-adv-x="813" 
d="M803 700l-93 -438q-30 -137 -94 -199q-85 -82 -254 -82q-157 0 -232 62q-72 59 -72 167q0 40 18 124l79 366h219l-85 -391q-10 -48 -10 -64q0 -42 26 -66q24 -22 66 -22q52 0 83 34q28 30 40 85l90 424h219zM352 908h187l-125 -132h-147zM585 908h188l-126 -132h-147z
" />
    <glyph glyph-name="uhungarumlaut" unicode="&#x171;" horiz-adv-x="676" 
d="M367 0l11 52h-7q-62 -66 -167 -66q-81 0 -121 39q-43 41 -43 114q0 33 9 80l62 289h210l-59 -275q-6 -27 -6 -43q0 -24 12 -39q11 -15 34 -15q39 0 63 27q24 26 39 91l56 254h210l-108 -508h-195zM262 710h187l-125 -132h-147zM495 710h188l-126 -132h-147z" />
    <glyph glyph-name="Uogonek" unicode="&#x172;" horiz-adv-x="813" 
d="M498 -124h107q-6 -60 -44 -98q-43 -42 -130 -42q-71 0 -106 26q-36 27 -36 79q0 44 29 86q23 34 56 54q-10 -1 -30 -1q-138 0 -214 63q-72 60 -72 167q0 40 18 124l79 366h219l-85 -391q-10 -48 -10 -64q0 -42 26 -66q24 -22 66 -22q52 0 83 34q28 30 40 85l90 424h219
l-93 -438q-25 -116 -69 -174q-11 -15 -23.5 -27t-28 -23.5t-22.5 -16t-26.5 -15.5t-20.5 -12q-64 -38 -87 -67q-27 -33 -27 -72q0 -21 12 -31q9 -9 29 -9q24 0 37 17q12 17 14 44z" />
    <glyph glyph-name="uogonek" unicode="&#x173;" horiz-adv-x="676" 
d="M367 0l11 52h-7q-62 -66 -167 -66q-81 0 -121 39q-43 41 -43 114q0 33 9 80l62 289h210l-59 -275q-6 -27 -6 -43q0 -24 12 -39q11 -15 34 -15q39 0 63 27q24 26 39 91l56 254h210l-108 -508q-43 -27 -70 -62q-31 -39 -31 -83q0 -21 12 -31q12 -9 30 -9q25 0 37 17
q11 15 13 44h107q-8 -65 -50 -102q-41 -38 -122 -38q-70 0 -105 25q-39 28 -39 77q0 53 34 99q32 42 79 63h-90z" />
    <glyph glyph-name="Ydieresis" unicode="&#x178;" horiz-adv-x="660" 
d="M336 416l179 284h240l-341 -455l-52 -245h-218l52 245l-146 455h230zM176 779l27 129h172l-27 -129h-172zM445 779l27 129h172l-27 -129h-172z" />
    <glyph glyph-name="Zacute" unicode="&#x179;" horiz-adv-x="633" 
d="M369 508h-302l41 192h575l-33 -155l-415 -353h367l-41 -192h-616l40 189zM407 898h189l-140 -132h-143z" />
    <glyph glyph-name="zacute" unicode="&#x17a;" horiz-adv-x="522" 
d="M66 370l29 138h457l-30 -140l-298 -229h263l-30 -139h-492l30 140l302 230h-231zM322 700h189l-140 -132h-143z" />
    <glyph glyph-name="Zdotaccent" unicode="&#x17b;" horiz-adv-x="633" 
d="M369 508h-302l41 192h575l-33 -155l-415 -353h367l-41 -192h-616l40 189zM308 779l27 129h172l-27 -129h-172z" />
    <glyph glyph-name="zdotaccent" unicode="&#x17c;" horiz-adv-x="522" 
d="M66 370l29 138h457l-30 -140l-298 -229h263l-30 -139h-492l30 140l302 230h-231zM243 581l27 129h172l-27 -129h-172z" />
    <glyph glyph-name="Zcaron" unicode="&#x17d;" horiz-adv-x="633" 
d="M369 508h-302l41 192h575l-33 -155l-415 -353h367l-41 -192h-616l40 189zM405 810l96 88h160l-153 -132h-224l-97 132h160z" />
    <glyph glyph-name="zcaron" unicode="&#x17e;" horiz-adv-x="522" 
d="M66 370l29 138h457l-30 -140l-298 -229h263l-30 -139h-492l30 140l302 230h-231zM335 612l96 88h160l-153 -132h-224l-97 132h160z" />
    <glyph glyph-name="florin" unicode="&#x192;" horiz-adv-x="720" 
d="M600 508l-29 -138h-118l-80 -378q-19 -88 -61 -130q-54 -54 -170 -54q-73 0 -120 10l26 124q15 -5 38 -5q40 0 56 16q15 15 21 47l78 370h-93l29 138h93l2 8q20 84 61 125q59 59 187 59q59 0 119 -10l-27 -127q-30 8 -55 8q-36 0 -54 -17q-14 -14 -20 -42l-1 -4h118z" />
    <glyph glyph-name="Obar" unicode="&#x19f;" 
d="M458 719q162 0 250 -89q84 -86 84 -228q0 -85 -34 -176.5t-97 -148.5q-106 -96 -287 -96q-169 0 -255 80q-89 82 -89 233q0 99 41 191.5t111 148.5q106 85 276 85zM293 430h262q3 55 -32 90q-29 29 -82 29q-59 0 -99 -37q-36 -34 -49 -82zM534 279h-266q-2 -49 24 -85
q31 -43 93 -43q56 0 93 32q44 37 56 96z" />
    <glyph glyph-name="Icaron" unicode="&#x1cf;" horiz-adv-x="391" 
d="M161 700h218l-149 -700h-218zM287 810l96 88h160l-153 -132h-224l-97 132h160z" />
    <glyph glyph-name="icaron" unicode="&#x1d0;" horiz-adv-x="339" 
d="M118 508h210l-108 -508h-210zM235 612l96 88h160l-153 -132h-224l-97 132h160z" />
    <glyph glyph-name="Gcaron" unicode="&#x1e6;" horiz-adv-x="808" 
d="M459 386h306l-82 -386h-160v59q-68 -80 -199 -80q-140 0 -216 81q-78 82 -78 227q0 94 32.5 179.5t90.5 141.5q113 109 314 109q165 0 246 -81q72 -72 65 -178h-225q4 40 -22 64q-24 24 -73 24q-65 0 -111 -41q-38 -35 -57 -91t-19 -113q0 -78 36 -116q32 -34 88 -34
q40 0 75.5 19.5t51.5 61.5h-96zM480 810l96 88h160l-153 -132h-224l-97 132h160z" />
    <glyph glyph-name="gcaron" unicode="&#x1e7;" horiz-adv-x="683" 
d="M20 -27h194q-1 -22 15 -34q14 -10 43 -10q41 0 60 19q19 17 31 70l10 46h-5q-54 -46 -132 -46q-100 0 -154 54t-54 148q0 60 22 121.5t63 102.5q76 78 205 78q102 0 147 -60h5l10 46h197l-97 -457q-15 -69 -38 -115.5t-74 -81.5q-72 -48 -212 -48q-114 0 -166 33
q-71 45 -70 134zM249 242q0 -41 17 -64q20 -28 54 -28q36 0 63 27q22 22 32 57.5t10 65.5q0 45 -22 67q-17 17 -46 17q-39 0 -67 -28q-41 -41 -41 -114zM390 612l96 88h160l-153 -132h-224l-97 132h160z" />
    <glyph glyph-name="Scommaaccent" unicode="&#x218;" horiz-adv-x="646" 
d="M-3 231h217q-13 -55 18 -83q24 -21 72 -21q49 0 73 17q29 20 29 58q0 37 -34 52q-14 7 -72 19l-65 14q-82 17 -121 49q-57 45 -57 127q0 58 25.5 108t68.5 83q83 64 229 64q129 0 196 -45q75 -49 75 -143q0 -10 -2 -30h-204q6 39 -21 58q-19 12 -57 12q-45 0 -69 -20
q-18 -15 -18 -39q0 -28 31 -42q11 -6 78 -21l57 -13q91 -21 130 -60q46 -46 46 -132q0 -109 -71 -179q-88 -86 -268 -86q-145 0 -214 52q-74 57 -74 163q0 25 2 38zM191 -175l25 115h163l-19 -88q-20 -86 -59 -125q-53 -53 -137 -51l15 71q51 -2 77 24q17 17 25 50l1 4h-91z
" />
    <glyph glyph-name="scommaaccent" unicode="&#x219;" horiz-adv-x="562" 
d="M-5 167h202q-9 -39 15 -59q16 -13 51 -13q32 0 48 12q19 13 19 38t-23 36q-14 7 -58 14l-48 8q-60 9 -95 29q-59 33 -59 105q0 78 64 132q71 58 203 58q112 0 163 -32q70 -41 70 -132h-175q6 33 -17 49q-16 11 -44 11t-46 -12q-20 -15 -20 -37q0 -20 23 -32q18 -8 65 -16
l58 -11q81 -16 112 -48q32 -33 32 -86q0 -82 -53 -133q-69 -67 -233 -67q-153 0 -213 60q-25 25 -33 53.5t-8 72.5zM154 -173l25 113h158l-18 -79q-21 -88 -57 -124q-46 -47 -129 -47h-9l13 61q53 -2 77 22q17 17 25 50l1 4h-86z" />
    <glyph glyph-name="uni021A" unicode="&#x21a;" horiz-adv-x="605" 
d="M228 508h-198l41 192h614l-41 -192h-198l-108 -508h-218zM116 -175l25 115h163l-19 -88q-20 -86 -59 -125q-53 -53 -137 -51l15 71q51 -2 77 24q17 17 25 50l1 4h-91z" />
    <glyph glyph-name="uni021B" unicode="&#x21b;" horiz-adv-x="424" 
d="M25 370l29 138h92l32 150h210l-32 -150h108l-29 -138h-108l-33 -152q-7 -37 -7 -44q0 -23 14 -33q12 -8 37 -8q24 0 48 7l-30 -141q-63 -14 -125 -14q-82 0 -120 25q-46 30 -46 95q0 25 10 73l42 192h-92zM114 -173l25 113h158l-18 -79q-21 -88 -57 -124
q-46 -47 -129 -47h-9l13 61q53 -2 77 22q17 17 25 50l1 4h-86z" />
    <glyph glyph-name="Ecedilla" unicode="&#x228;" horiz-adv-x="737" 
d="M323 436h311l-35 -165h-311l-19 -86h371l-39 -185h-589l149 700h581l-39 -185h-363zM156 -234l39 70q33 -10 69 -10q26 0 39 6q19 10 19 28q0 19 -23 23q-22 3 -62 3h-14l37 67q3 0 25 1t32 1q56 0 84 -14q37 -21 37 -66q0 -65 -53 -99q-42 -26 -117 -26q-60 0 -112 16z
" />
    <glyph glyph-name="ecedilla" unicode="&#x229;" horiz-adv-x="649" 
d="M387 147h206q-33 -83 -108 -125q-71 -40 -189 -40q-133 0 -201 61q-67 60 -67 165q0 70 24.5 130t64.5 100q88 88 246 88q139 0 209 -68q55 -54 55 -147q0 -48 -16 -99h-369q-4 -16 -4 -34q0 -37 22 -55q19 -17 53 -17q27 0 47 11t27 30zM262 312h158q10 50 -14 74
q-18 16 -46 16q-34 0 -61 -25q-24 -23 -37 -65zM141 -234l39 70q31 -10 69 -10q28 0 40 6q18 8 18 28q0 17 -18 22q-14 4 -73 4h-8l37 67q36 2 57 2q60 0 88 -19q33 -22 33 -69q0 -51 -29 -80q-37 -37 -131 -37q-73 0 -122 16z" />
    <glyph glyph-name="circumflex" unicode="&#x2c6;" horiz-adv-x="574" 
d="M358 656l-96 -88h-160l153 132h224l97 -132h-160z" />
    <glyph glyph-name="ring" unicode="&#x2da;" horiz-adv-x="312" 
d="M100 670q0 44 31 75t75 31t75 -31t31 -75t-31 -75t-75 -31t-75 31t-31 75zM162 670q0 -18 13 -31t31 -13t31 13t13 31t-13 31t-31 13t-31 -13t-13 -31z" />
    <glyph glyph-name="tilde" unicode="&#x2dc;" horiz-adv-x="536" 
d="M447 703h106q-19 -60 -58 -97q-39 -38 -94 -38q-33 0 -75 21l-27 14q-32 16 -54 16q-21 0 -33 -13q-10 -11 -15 -27h-107q20 57 56 92q41 41 101 41q34 0 71 -19l24 -12q43 -20 60 -20t30 13q10 10 15 29z" />
    <glyph glyph-name="afii10023" unicode="&#x401;" horiz-adv-x="737" 
d="M244 773l26 118h166l-26 -118h-166zM502 773l26 118h167l-26 -118h-167zM323 436h311l-35 -165h-311l-19 -86h371l-39 -185h-589l149 700h581l-39 -185h-363z" />
    <glyph glyph-name="afii10051" unicode="&#x402;" horiz-adv-x="846" 
d="M69 700h614l-39 -182h-198l-23 -105q90 8 125 8q123 0 185 -45q73 -53 73 -149q0 -110 -69 -178q-70 -69 -208 -69q-75 0 -133 19l30 143q25 -10 59 -10q45 0 66 14q28 19 28 56q0 32 -27 48q-21 12 -72 12q-49 0 -91 -7l-53 -255h-218l110 518h-198z" />
    <glyph glyph-name="afii10052" unicode="&#x403;" horiz-adv-x="593" 
d="M338 508l-108 -508h-218l149 700h497l-41 -192h-279zM422 898h189l-140 -132h-143z" />
    <glyph glyph-name="afii10053" unicode="&#x404;" horiz-adv-x="809" 
d="M784 456h-217q3 47 -26 73q-25 24 -81 24q-64 0 -106 -35q-42 -37 -62 -97h219l-30 -141h-219q-5 -32 4.5 -64t31.5 -51q33 -30 95 -30q56 0 92 32q33 28 44 74h219q-14 -59 -45.5 -109.5t-72.5 -81.5q-90 -70 -255 -70q-169 0 -253 74q-92 80 -92 234q0 89 31 172.5
t90 142.5q111 112 304 112q180 0 262 -78q67 -63 67 -171v-10z" />
    <glyph glyph-name="afii10054" unicode="&#x405;" horiz-adv-x="646" 
d="M-3 231h217q-13 -55 18 -83q24 -21 72 -21q49 0 73 17q29 20 29 58q0 37 -34 52q-14 7 -72 19l-65 14q-82 17 -121 49q-57 45 -57 127q0 58 25.5 108t68.5 83q83 64 229 64q129 0 196 -45q75 -49 75 -143q0 -10 -2 -30h-204q6 39 -21 58q-19 12 -57 12q-45 0 -69 -20
q-18 -15 -18 -39q0 -28 31 -42q11 -6 78 -21l57 -13q91 -21 130 -60q46 -46 46 -132q0 -109 -71 -179q-88 -86 -268 -86q-145 0 -214 52q-74 57 -74 163q0 25 2 38z" />
    <glyph glyph-name="afii10055" unicode="&#x406;" horiz-adv-x="391" 
d="M161 700h218l-149 -700h-218z" />
    <glyph glyph-name="afii10056" unicode="&#x407;" horiz-adv-x="393" 
d="M161 700h218l-149 -700h-218zM106 779l25 119h153l-25 -119h-153zM316 779l25 119h152l-25 -119h-152z" />
    <glyph glyph-name="afii10057" unicode="&#x408;" horiz-adv-x="639" 
d="M-6 276h214l-6 -22q-8 -32 -8 -49q0 -26 14 -39q12 -11 32 -11q29 0 44 15q15 14 23 51l102 479h218l-95 -445q-9 -43 -15 -66t-26 -65t-47 -69q-76 -75 -226 -75q-128 0 -187 58q-51 49 -51 139q0 33 13 94z" />
    <glyph glyph-name="afii10058" unicode="&#x409;" horiz-adv-x="1118" 
d="M781 700l-51 -241h124q126 0 184 -55q60 -55 60 -154q0 -63 -24.5 -115t-62.5 -81q-72 -54 -237 -54h-353l107 508h-149l-55 -237q-10 -45 -17 -70.5t-21.5 -63.5t-35.5 -65t-49 -45q-58 -37 -174 -37q-47 0 -107 11l39 180q25 -5 46 -5q49 0 77 28t53 139l81 357h565z
M695 297l-26 -125h111q48 0 71 16q24 17 24 52q0 29 -19 44q-17 13 -62 13h-99z" />
    <glyph glyph-name="afii10059" unicode="&#x40a;" horiz-adv-x="1127" 
d="M790 700l-51 -241h124q126 0 184 -55q60 -55 60 -154q0 -63 -24.5 -115t-62.5 -81q-72 -54 -237 -54h-358l63 297h-195l-63 -297h-218l149 700h218l-51 -237h195l51 237h216zM704 297l-27 -127h111q48 0 71 16q24 17 24 54q0 30 -19 44q-17 13 -62 13h-98z" />
    <glyph glyph-name="afii10060" unicode="&#x40b;" horiz-adv-x="851" 
d="M749 0h-219l28 127q9 39 9 55q0 35 -22 53q-18 15 -76 15q-43 0 -81 -11l-52 -239h-218l110 518h-198l39 182h614l-39 -182h-198l-22 -110q59 14 120 14q104 0 181 -31q76 -39 76 -127q0 -17 -13 -82z" />
    <glyph glyph-name="afii10061" unicode="&#x40c;" horiz-adv-x="733" 
d="M12 0l149 700h218l-56 -262l238 262h267l-329 -331l191 -369h-258l-139 298l-63 -298h-218zM482 898h189l-140 -132h-143z" />
    <glyph glyph-name="afii10062" unicode="&#x40e;" horiz-adv-x="634" 
d="M346 392l161 308h227l-335 -535q-44 -71 -79 -106q-42 -41 -84.5 -54.5t-96.5 -13.5q-80 0 -144 24l36 170q32 -14 71 -14q61 0 87 42l-134 487h239zM485 900h122q-12 -70 -74 -108q-53 -32 -147 -32q-95 0 -138 35q-45 37 -37 105h122q-5 -32 13 -48q15 -13 53 -13
q40 0 60 16q22 16 26 45z" />
    <glyph glyph-name="afii10145" unicode="&#x40f;" horiz-adv-x="806" 
d="M271 192h197l108 508h218l-149 -700h-226l-48 -224h-181l48 224h-226l149 700h218z" />
    <glyph glyph-name="afii10017" unicode="&#x410;" horiz-adv-x="663" 
d="M169 99l-53 -99h-226l408 700h215l110 -700h-226l-11 99h-217zM243 243h131l-22 210z" />
    <glyph glyph-name="afii10018" unicode="&#x411;" horiz-adv-x="757" 
d="M342 528l-18 -87h149q123 0 178 -51q53 -48 53 -140q0 -134 -94 -200q-71 -50 -214 -50h-384l149 700h586l-37 -172h-368zM292 291l-27 -126h115q49 0 70 19t21 53q0 28 -21 43q-16 11 -51 11h-107z" />
    <glyph glyph-name="afii10019" unicode="&#x412;" horiz-adv-x="768" 
d="M161 700h385q106 0 154 -45q46 -42 46 -114q0 -73 -46 -119q-39 -39 -98 -51l-1 -4q43 -13 72 -40q39 -38 39 -101q0 -60 -23 -105t-58 -70q-69 -51 -235 -51h-384zM345 542l-24 -112h110q45 0 65 16q21 17 21 47q0 29 -20 40q-14 9 -48 9h-104zM291 285l-27 -127h125
q55 0 76 17q23 19 23 54q0 32 -22 46q-16 10 -54 10h-121z" />
    <glyph glyph-name="afii10020" unicode="&#x413;" horiz-adv-x="593" 
d="M338 508l-108 -508h-218l149 700h497l-41 -192h-279z" />
    <glyph glyph-name="afii10021" unicode="&#x414;" horiz-adv-x="805" 
d="M677 192h98l-81 -338h-176l31 146h-441l-31 -146h-177l64 340h86q53 63 89 144q28 64 57 199l35 163h554zM535 522h-145l-14 -65q-18 -87 -41 -146q-26 -68 -76 -133h203z" />
    <glyph glyph-name="afii10022" unicode="&#x415;" horiz-adv-x="737" 
d="M323 436h311l-35 -165h-311l-19 -86h371l-39 -185h-589l149 700h581l-39 -185h-363z" />
    <glyph glyph-name="afii10024" unicode="&#x416;" horiz-adv-x="978" 
d="M310 0l63 298l-231 -298h-252l329 389l-172 311h241l115 -262l56 262h196l-56 -262l223 262h251l-315 -325l172 -375h-246l-115 298l-63 -298h-196z" />
    <glyph glyph-name="afii10025" unicode="&#x417;" horiz-adv-x="738" 
d="M4 259h210q-3 -21 -3 -30q0 -45 30 -69q29 -22 85 -22t86 17q41 22 41 66q0 34 -25 49q-22 13 -65 13h-87l30 138h68q51 0 77 18q29 19 29 56q0 34 -26 53q-22 15 -68 15q-61 0 -93 -36q-28 -29 -35 -79h-210q21 122 110 193q94 75 273 75q133 0 208 -44q81 -49 81 -139
q0 -69 -44 -115q-42 -42 -101 -50l-2 -6q46 -10 76 -40q38 -38 38 -102q0 -98 -66 -160q-29 -27 -68.5 -44.5t-87 -24t-75 -8t-68.5 -1.5q-186 0 -263 76q-60 60 -60 152q0 27 5 49z" />
    <glyph glyph-name="afii10026" unicode="&#x418;" horiz-adv-x="808" 
d="M293 325l291 375h212l-149 -700h-212l81 379l-292 -379h-212l149 700h212z" />
    <glyph glyph-name="afii10027" unicode="&#x419;" horiz-adv-x="809" 
d="M589 907h141q-13 -76 -75 -117q-55 -37 -161 -37q-86 0 -134 28q-68 42 -58 126h141q-7 -34 19 -51q16 -11 49 -11q34 0 54 15q21 16 24 47zM294 325l291 375h212l-149 -700h-212l81 379l-292 -379h-213l150 700h212z" />
    <glyph glyph-name="afii10028" unicode="&#x41a;" horiz-adv-x="733" 
d="M12 0l149 700h218l-56 -262l238 262h267l-329 -331l191 -369h-258l-139 298l-63 -298h-218z" />
    <glyph glyph-name="afii10029" unicode="&#x41b;" horiz-adv-x="801" 
d="M-80 1l39 180q25 -5 46 -5q49 0 77 28t53 139l81 357h573l-149 -700h-220l108 508h-149l-55 -237q-9 -39 -13 -54.5t-15.5 -51.5t-22.5 -55.5t-30 -43t-42 -38.5q-60 -38 -174 -38q-48 0 -107 11z" />
    <glyph glyph-name="afii10030" unicode="&#x41c;" horiz-adv-x="1008" 
d="M350 0l-41 465l-5 -1l-7 -53l-87 -411h-198l149 700h296l29 -396l-5 -48h5l18 48l196 396h296l-149 -700h-198l87 411l17 53l-5 1l-239 -465h-159z" />
    <glyph glyph-name="afii10031" unicode="&#x41d;" horiz-adv-x="804" 
d="M289 275l-59 -275h-218l149 700h218l-51 -241h195l51 241h218l-149 -700h-218l59 275h-195z" />
    <glyph glyph-name="afii10032" unicode="&#x41e;" 
d="M455 719q166 0 253 -89q84 -86 84 -225q0 -88 -34 -179.5t-97 -148.5q-106 -96 -289 -96q-167 0 -253 80q-89 82 -89 233q0 99 40.5 191.5t111.5 148.5q105 85 273 85zM266 295q0 -55 26 -89q31 -41 94 -41q54 0 92 32q37 30 58.5 91.5t21.5 118.5q0 58 -28 92
q-29 36 -86 36q-59 0 -102 -40q-37 -34 -56.5 -91t-19.5 -109z" />
    <glyph glyph-name="afii10033" unicode="&#x41f;" horiz-adv-x="794" 
d="M340 516l-110 -516h-218l149 700h621l-149 -700h-218l110 516h-185z" />
    <glyph glyph-name="afii10034" unicode="&#x420;" horiz-adv-x="742" 
d="M161 700h345q128 0 185 -55q56 -54 56 -159q0 -132 -78 -208q-29 -27 -62 -44t-72.5 -23t-62 -7.5t-61.5 -1.5h-138l-43 -202h-218zM339 511l-30 -141h104q53 0 79 19q28 21 28 63q0 35 -24 49q-16 10 -55 10h-102z" />
    <glyph glyph-name="afii10035" unicode="&#x421;" horiz-adv-x="775" 
d="M508 258h220q-27 -107 -99 -181q-96 -97 -263 -97q-164 0 -250 84t-86 232q0 95 33.5 180.5t91.5 140.5q108 101 289 101q155 0 238 -79q70 -67 68 -192h-211q3 38 -21 64q-25 25 -76 25q-59 0 -102 -38q-38 -34 -56 -88t-18 -103q0 -70 30 -107q30 -39 92 -39
q49 0 79 29q29 26 41 68z" />
    <glyph glyph-name="afii10036" unicode="&#x422;" horiz-adv-x="605" 
d="M228 508h-198l41 192h614l-41 -192h-198l-108 -508h-218z" />
    <glyph glyph-name="afii10037" unicode="&#x423;" horiz-adv-x="634" 
d="M346 392l161 308h227l-335 -535q-44 -71 -79 -106q-42 -41 -84.5 -54.5t-96.5 -13.5q-80 0 -144 24l36 170q32 -14 71 -14q61 0 87 42l-134 487h239z" />
    <glyph glyph-name="afii10038" unicode="&#x424;" horiz-adv-x="994" 
d="M307 -24l20 93h-11q-128 0 -208 57q-93 66 -93 193q0 139 93 227q104 99 327 99h14l19 89h218l-19 -89h8q137 0 215 -60q89 -69 89 -206q0 -134 -84 -216q-55 -55 -135.5 -74.5t-200.5 -19.5h-14l-20 -93h-218zM563 232h14q100 0 143 42q41 39 41 101q0 61 -45 90
q-28 17 -92 17h-7zM378 232l54 250h-11q-82 0 -127 -29q-60 -39 -60 -110q0 -59 43 -89q32 -22 90 -22h11z" />
    <glyph glyph-name="afii10039" unicode="&#x425;" horiz-adv-x="675" 
d="M303 193l-145 -193h-268l318 362l-162 338h241l75 -202l147 202h251l-298 -349l178 -351h-265z" />
    <glyph glyph-name="afii10040" unicode="&#x426;" horiz-adv-x="803" 
d="M271 192h186l108 508h218l-108 -508h99l-79 -338h-189l31 146h-525l149 700h218z" />
    <glyph glyph-name="afii10041" unicode="&#x427;" horiz-adv-x="749" 
d="M121 700h209l-32 -158q-7 -37 -7 -49q0 -39 26 -55q22 -14 73 -14q34 0 72 7l57 269h218l-149 -700h-218l58 271q-64 -8 -129 -8q-102 0 -151 27q-78 42 -78 136q0 34 11 82z" />
    <glyph glyph-name="afii10042" unicode="&#x428;" horiz-adv-x="1091" 
d="M248 178h162l111 522h199l-111 -522h162l111 522h197l-149 -700h-918l149 700h198z" />
    <glyph glyph-name="afii10043" unicode="&#x429;" horiz-adv-x="1104" 
d="M248 178h164l111 522h199l-111 -522h165l111 522h197l-108 -508h97l-76 -338h-190l31 146h-826l149 700h198z" />
    <glyph glyph-name="afii10044" unicode="&#x42a;" horiz-adv-x="819" 
d="M465 700l-51 -241h131q126 0 184 -55q60 -55 60 -154q0 -63 -24.5 -115t-62.5 -81q-72 -54 -237 -54h-365l108 508h-162l41 192h378zM379 297l-26 -125h111q48 0 71 16q24 17 24 52q0 29 -19 44q-17 13 -62 13h-99z" />
    <glyph glyph-name="afii10045" unicode="&#x42b;" horiz-adv-x="1063" 
d="M833 700h218l-149 -700h-218zM377 700l-51 -241h125q111 0 168 -50q63 -53 63 -154q0 -62 -23.5 -117t-65.5 -86q-70 -52 -235 -52h-346l149 700h216zM291 297l-26 -125h118q41 0 61 13q27 17 27 54q0 29 -21 44q-20 14 -55 14h-104z" />
    <glyph glyph-name="afii10046" unicode="&#x42c;" horiz-adv-x="731" 
d="M377 700l-51 -241h131q126 0 184 -55q60 -55 60 -154q0 -63 -24.5 -115t-62.5 -81q-72 -54 -237 -54h-365l148 700h217zM291 297l-26 -125h111q48 0 71 16q24 17 24 52q0 29 -19 44q-17 13 -62 13h-99z" />
    <glyph glyph-name="afii10047" unicode="&#x42d;" horiz-adv-x="762" 
d="M257 446h-217q32 132 137 205q91 64 243 64q165 0 248 -86q82 -85 82 -236q0 -88 -31.5 -172.5t-84.5 -137.5q-104 -103 -298 -103q-155 0 -237 64q-89 69 -89 181q0 10 2 32h210q0 -63 30 -92q30 -30 91 -30t96 31q46 40 55 114h-221l30 141h214q8 63 -29 99
q-31 31 -88 31q-59 0 -95 -30q-34 -26 -48 -75z" />
    <glyph glyph-name="afii10048" unicode="&#x42e;" horiz-adv-x="1158" 
d="M327 454h85q40 122 133 192q97 73 246 73q165 0 253 -89q84 -86 84 -232q0 -95 -37.5 -186t-114.5 -151q-103 -80 -267 -80q-167 0 -249 82q-36 36 -58 91.5t-19 121.5h-94l-59 -276h-218l149 700h218zM602 295q0 -55 26 -89q31 -41 94 -41q54 0 92 32q37 30 58.5 91
t21.5 118q0 59 -28 93q-29 36 -86 36q-59 0 -102 -40q-37 -34 -56.5 -91t-19.5 -109z" />
    <glyph glyph-name="afii10049" unicode="&#x42f;" horiz-adv-x="786" 
d="M456 230h-33l-177 -230h-266l227 253q-61 19 -95 62q-37 47 -37 120q0 116 75 186q83 79 249 79h375l-149 -700h-218zM519 526h-121q-55 0 -79 -25q-21 -21 -21 -52q0 -29 22 -46q19 -14 59 -14h111z" />
    <glyph glyph-name="afii10065" unicode="&#x430;" horiz-adv-x="622" 
d="M264 335h-197q21 79 82 128q74 58 203 58q112 0 172 -37q68 -45 68 -132q0 -29 -9 -69l-42 -199q-6 -27 -6 -43t8 -24q6 -6 16 -10l-1 -7h-220l-6 51h-3q-28 -29 -67 -48q-47 -21 -108 -21q-80 0 -121 44q-33 35 -33 90q0 70 45 113q46 44 165 58l70 8q72 9 89 20
q20 13 20 41q0 20 -15 32q-14 11 -42 11q-32 0 -49 -17q-18 -18 -19 -47zM357 210l4 17q-20 -15 -70 -24q-43 -7 -60 -20q-19 -14 -19 -36q0 -21 13 -32q12 -11 38 -11q32 0 58 26q23 23 36 80z" />
    <glyph glyph-name="afii10066" unicode="&#x431;" horiz-adv-x="657" 
d="M562 757h150q-11 -59 -50 -100q-24 -25 -61 -40.5t-58.5 -19.5t-69.5 -11l-80 -11q-104 -14 -156 -65q-48 -48 -68 -127h8q27 50 77 80q56 33 138 33q118 0 182 -60q61 -55 61 -153q0 -58 -22 -116.5t-56 -95.5q-81 -89 -244 -89q-66 0 -116.5 13t-90.5 55
q-66 68 -66 195q0 91 30 195t98 171q57 56 148 82q49 14 113 20q84 11 99 15q27 7 34 29zM425 295q0 39 -18 61q-16 19 -44 19q-32 0 -56 -24q-28 -28 -42.5 -72.5t-14.5 -86.5q0 -45 21 -66q16 -16 42 -16q33 0 56 22q27 26 41.5 75t14.5 88z" />
    <glyph glyph-name="afii10067" unicode="&#x432;" horiz-adv-x="634" 
d="M114 508h346q76 0 110 -25q40 -30 40 -91q0 -57 -36 -91q-31 -30 -82 -39l-1 -4q41 -11 65 -35q30 -29 30 -73q0 -70 -52 -112q-49 -38 -160 -38h-368zM298 403l-21 -98h58q45 0 63 19q14 16 14 39q0 22 -16 33q-12 7 -41 7h-57zM257 211l-22 -105h70q46 0 63 17
q15 15 15 42q0 25 -18 37q-13 9 -45 9h-63z" />
    <glyph glyph-name="afii10068" unicode="&#x433;" horiz-adv-x="496" 
d="M297 363l-77 -363h-214l108 508h432l-31 -145h-218z" />
    <glyph glyph-name="afii10069" unicode="&#x434;" horiz-adv-x="691" 
d="M-36 132h70q51 59 84 130q27 58 46 146l22 100h484l-80 -376h81l-68 -263h-159l28 131h-365l-28 -131h-159zM442 376h-103l-10 -41q-19 -74 -35 -111q-25 -54 -62 -92h158z" />
    <glyph glyph-name="afii10070" unicode="&#x435;" horiz-adv-x="649" 
d="M387 147h206q-33 -83 -108 -125q-71 -40 -187 -40q-134 0 -203 61q-67 60 -67 165q0 70 24.5 130t64.5 100q88 88 246 88q139 0 209 -68q55 -54 55 -147q0 -48 -16 -99h-369q-4 -16 -4 -34q0 -37 22 -55q19 -17 53 -17q27 0 47 11t27 30zM262 312h158q10 50 -14 74
q-18 16 -46 16q-34 0 -61 -25q-24 -23 -37 -65z" />
    <glyph glyph-name="afii10072" unicode="&#x436;" horiz-adv-x="838" 
d="M378 508h190l-42 -197l167 197h205l-232 -245l130 -263h-211l-80 210l-45 -210h-190l45 210l-165 -210h-215l244 270l-123 238h198l82 -197z" />
    <glyph glyph-name="afii10073" unicode="&#x437;" horiz-adv-x="592" 
d="M2 184h181q-11 -43 22 -66q21 -15 61 -15q38 0 60 14q27 18 27 48q0 24 -23 36q-21 9 -60 9h-29l21 100h33q39 0 58 12q23 13 23 41q0 24 -20 37q-17 9 -46 9q-40 0 -66 -24q-20 -20 -27 -53h-178q21 94 99 148q71 48 197 48q107 0 167 -30q75 -39 75 -114q0 -50 -31 -81
q-28 -28 -74 -37l-1 -6q37 -6 59 -30q26 -26 26 -70q0 -92 -85 -141q-67 -37 -193 -37q-140 0 -199 35q-52 30 -68 76t-9 91z" />
    <glyph glyph-name="afii10074" unicode="&#x438;" horiz-adv-x="707" 
d="M253 222l240 286h208l-108 -508h-200l55 260l10 27h-4l-240 -287h-208l108 508h200l-55 -260l-10 -26h4z" />
    <glyph glyph-name="afii10075" unicode="&#x439;" horiz-adv-x="707" 
d="M514 731h145q-17 -83 -86 -127q-59 -38 -154 -38t-141 35t-46 98q0 15 3 32h145q-4 -24 -4 -27q0 -24 14 -36q15 -12 41 -12q30 0 49 13q29 20 34 62zM253 222l240 286h208l-108 -508h-200l55 260l10 27h-4l-240 -287h-208l108 508h200l-55 -260l-10 -26h4z" />
    <glyph glyph-name="afii10076" unicode="&#x43a;" horiz-adv-x="637" 
d="M279 298h2l185 210h226l-240 -246l131 -262h-225l-93 221h-2l-47 -221h-210l108 508h210z" />
    <glyph glyph-name="afii10077" unicode="&#x43b;" horiz-adv-x="664" 
d="M-60 0l30 139q21 -3 31 -3q33 0 54 17q29 24 54 139l46 216h503l-108 -508h-210l79 370h-103l-23 -107q-19 -86 -42 -138t-67 -87q-59 -47 -156 -47q-44 0 -88 9z" />
    <glyph glyph-name="afii10078" unicode="&#x43c;" horiz-adv-x="847" 
d="M304 0l-42 300h-4l-2 -26l-58 -274h-192l108 508h263l31 -319h3l167 319h263l-108 -508h-192l58 274l10 26h-4l-169 -300h-132z" />
    <glyph glyph-name="afii10079" unicode="&#x43d;" horiz-adv-x="673" 
d="M258 199l-42 -199h-210l108 508h210l-38 -177h133l38 177h210l-108 -508h-210l42 199h-133z" />
    <glyph glyph-name="afii10080" unicode="&#x43e;" horiz-adv-x="666" 
d="M364 394q-37 0 -64 -24t-43.5 -70t-16.5 -96q0 -47 18 -69q19 -21 51 -21q37 0 64 27q25 25 39 75.5t14 94.5q0 40 -16 61q-17 22 -46 22zM638 290q0 -143 -88 -227q-52 -49 -112.5 -65t-136.5 -16q-144 0 -212 67q-61 60 -61 163q0 142 94 231q88 83 246 83
q136 0 205 -67q65 -63 65 -169z" />
    <glyph glyph-name="afii10081" unicode="&#x43f;" horiz-adv-x="670" 
d="M295 370l-79 -370h-210l108 508h550l-108 -508h-210l79 370h-130z" />
    <glyph glyph-name="afii10082" unicode="&#x440;" horiz-adv-x="698" 
d="M114 508h200l-11 -51h2q60 69 160 69q98 0 151 -53q54 -54 54 -157q0 -72 -23 -145.5t-73 -121.5q-31 -29 -70 -45t-66.5 -19t-65.5 -3q-98 0 -148 55l-47 -222h-210zM255 207q0 -46 20 -69q20 -24 55 -24t64 25q27 24 40.5 70t13.5 84q0 49 -22 71q-20 20 -50 20
q-42 0 -69 -27q-25 -24 -38.5 -67t-13.5 -83z" />
    <glyph glyph-name="afii10083" unicode="&#x441;" horiz-adv-x="632" 
d="M394 200h196q-24 -106 -102 -164q-74 -54 -203 -54q-130 0 -194 63q-63 63 -63 172q0 141 90 228q86 84 239 84q132 0 200 -61q61 -57 52 -157h-193q8 46 -10 69q-13 17 -41 17q-36 0 -62 -26q-28 -29 -44 -78t-16 -90q0 -46 21 -70q19 -19 48 -19q32 0 52 22
q22 24 30 64z" />
    <glyph glyph-name="afii10084" unicode="&#x442;" horiz-adv-x="541" 
d="M189 371h-164l29 137h542l-29 -139h-164l-79 -369h-214z" />
    <glyph glyph-name="afii10085" unicode="&#x443;" horiz-adv-x="576" 
d="M-10 -173l29 132q30 -8 49 -8q32 0 53 14t30 40l6 16l-127 487h206l54 -313l145 313h201l-265 -500q-59 -111 -105 -148q-58 -46 -162 -46q-59 0 -114 13z" />
    <glyph glyph-name="afii10086" unicode="&#x444;" horiz-adv-x="865" 
d="M235 -185l36 171h-5q-116 0 -183 62q-63 58 -63 160q0 134 91 220q96 91 268 91h5l39 181h210l-39 -181h5q121 0 191 -72q55 -57 55 -146q0 -136 -86 -224q-90 -91 -270 -91h-8l-36 -171h-210zM547 387l-57 -269h6q68 0 112 46q46 49 46 126q0 55 -36 80q-24 17 -64 17
h-7zM375 387h-4q-68 0 -113 -43q-46 -45 -46 -118q0 -57 31 -83q29 -25 71 -25h4z" />
    <glyph glyph-name="afii10087" unicode="&#x445;" horiz-adv-x="562" 
d="M306 373l107 136h214l-234 -246l131 -263h-212l-56 135l-114 -135h-212l243 263l-130 245h215z" />
    <glyph glyph-name="afii10088" unicode="&#x446;" horiz-adv-x="678" 
d="M246 139h120l78 369h210l-78 -369h82l-64 -268h-159l27 129h-456l108 508h210z" />
    <glyph glyph-name="afii10089" unicode="&#x447;" horiz-adv-x="624" 
d="M89 508h198l-28 -133q-5 -26 -5 -35q0 -19 16 -30q16 -10 47 -10q27 0 48 4l43 204h210l-108 -508h-210l39 183q-42 -7 -89 -7q-125 0 -169 44q-31 31 -31 84q0 18 8 60z" />
    <glyph glyph-name="afii10090" unicode="&#x448;" horiz-adv-x="952" 
d="M234 139h119l78 369h198l-79 -371h119l79 371h198l-108 -508h-832l108 508h198z" />
    <glyph glyph-name="afii10091" unicode="&#x449;" horiz-adv-x="967" 
d="M234 139h119l78 369h198l-78 -369h119l78 369h198l-78 -369h79l-66 -268h-160l27 129h-742l108 508h198z" />
    <glyph glyph-name="afii10092" unicode="&#x44a;" horiz-adv-x="669" 
d="M25 370l29 138h341l-37 -174h109q93 0 138 -40q44 -40 44 -109q0 -82 -48 -130q-55 -55 -186 -55h-338l79 370h-131zM335 226l-26 -121h45q48 0 68 20q20 18 20 49q0 30 -22 42q-16 10 -49 10h-36z" />
    <glyph glyph-name="afii10093" unicode="&#x44b;" horiz-adv-x="894" 
d="M680 508h208l-108 -508h-208zM320 508l-37 -174h104q93 0 138 -40q44 -40 44 -109q0 -82 -48 -130q-55 -55 -186 -55h-329l108 508h206zM260 226l-26 -121h45q48 0 68 20q20 18 20 49q0 30 -22 42q-16 10 -49 10h-36z" />
    <glyph glyph-name="afii10094" unicode="&#x44c;" horiz-adv-x="598" 
d="M324 508l-37 -174h109q93 0 138 -40q44 -40 44 -109q0 -82 -48 -130q-55 -55 -186 -55h-338l108 508h210zM264 226l-26 -121h45q48 0 68 20q20 18 20 49q0 30 -22 42q-16 10 -49 10h-36z" />
    <glyph glyph-name="afii10095" unicode="&#x44d;" horiz-adv-x="641" 
d="M252 204l22 103h141q0 50 -16 69q-19 24 -61 24q-48 0 -78 -28q-26 -24 -35 -60h-181q24 98 100 154q79 59 205 59q133 0 200 -64q64 -62 64 -171q0 -140 -87 -227q-50 -50 -110 -66t-134 -16q-143 0 -206 62q-27 26 -42 68.5t-11 86.5h176v-3q0 -42 21 -63
q22 -22 69 -22q43 0 71 25q29 26 38 69h-146z" />
    <glyph glyph-name="afii10096" unicode="&#x44e;" horiz-adv-x="943" 
d="M284 331h61q29 88 101 140q76 55 198 55q139 0 211 -74q60 -63 60 -161q0 -64 -22.5 -125.5t-63.5 -101.5q-83 -82 -239 -82q-141 0 -208 66q-60 60 -60 151h-66l-42 -199h-208l108 508h208zM643 394q-37 0 -64 -24t-43.5 -70t-16.5 -96q0 -47 18 -69q19 -21 51 -21
q37 0 64 27q24 25 38.5 74.5t14.5 94.5q0 42 -16 62q-17 22 -46 22z" />
    <glyph glyph-name="afii10097" unicode="&#x44f;" horiz-adv-x="640" 
d="M333 166l-128 -166h-225l166 181q-36 8 -60 37q-29 34 -29 90q0 86 54 138q63 62 193 62h330l-108 -508h-210l35 166h-18zM400 396h-47q-44 0 -65 -16q-27 -19 -27 -53q0 -27 21 -42q19 -13 57 -13h35z" />
    <glyph glyph-name="afii10071" unicode="&#x451;" horiz-adv-x="652" 
d="M160 581l26 125h195l-26 -125h-195zM441 581l26 125h195l-26 -125h-195zM387 147h206q-33 -83 -108 -125q-71 -40 -187 -40q-134 0 -203 61q-67 60 -67 165q0 70 24.5 130t64.5 100q88 88 246 88q139 0 209 -68q55 -54 55 -147q0 -48 -16 -99h-369q-4 -16 -4 -34
q0 -37 22 -55q19 -17 53 -17q27 0 47 11t27 30zM262 312h158q10 50 -14 74q-18 16 -46 16q-34 0 -61 -25q-24 -23 -37 -65z" />
    <glyph glyph-name="afii10099" unicode="&#x452;" horiz-adv-x="689" 
d="M385 700l-13 -63h221l-22 -100h-221l-21 -100q29 27 65 43q42 18 95 18q81 0 121 -38q44 -42 44 -120q0 -71 -32 -211q-38 -165 -109 -237q-82 -82 -230 -82h-38l27 129h8q39 0 63 23q36 33 66 173q28 129 28 176q0 28 -12 40q-11 12 -36 12q-30 0 -55 -23
q-33 -30 -45 -90l-53 -250h-210l114 537h-94l22 100h94l13 63h210z" />
    <glyph glyph-name="afii10100" unicode="&#x453;" horiz-adv-x="496" 
d="M297 363l-77 -363h-214l108 508h432l-31 -145h-218zM332 700h189l-140 -132h-143z" />
    <glyph glyph-name="afii10101" unicode="&#x454;" horiz-adv-x="649" 
d="M368 204h-144v-3q0 -46 24 -69q22 -22 68 -22q42 0 68 20q27 22 37 55h182q-25 -89 -95 -144q-76 -60 -210 -60q-141 0 -210 68q-60 60 -60 164q0 138 89 227q51 51 108.5 68t135.5 17q148 0 211 -63q54 -54 55 -138h-181q0 38 -22 57q-24 19 -64 19q-48 0 -79 -28
q-27 -24 -39 -65h148z" />
    <glyph glyph-name="afii10102" unicode="&#x455;" horiz-adv-x="562" 
d="M-5 167h202q-9 -39 15 -59q16 -13 51 -13q32 0 48 12q19 13 19 38t-23 36q-14 7 -58 14l-48 8q-60 9 -95 29q-59 33 -59 105q0 78 64 132q71 58 203 58q112 0 163 -32q70 -41 70 -132h-175q6 33 -17 49q-16 11 -44 11t-46 -12q-20 -15 -20 -37q0 -20 23 -32q18 -8 65 -16
l58 -11q81 -16 112 -48q32 -33 32 -86q0 -82 -53 -133q-69 -67 -233 -67q-153 0 -213 60q-25 25 -33 53.5t-8 72.5z" />
    <glyph glyph-name="afii10103" unicode="&#x456;" horiz-adv-x="339" 
d="M118 508h210l-108 -508h-210zM131 568l28 132h210l-28 -132h-210z" />
    <glyph glyph-name="afii10104" unicode="&#x457;" horiz-adv-x="345" 
d="M118 508h210l-108 -508h-210zM78 581l25 119h143l-25 -119h-143zM258 581l25 119h142l-25 -119h-142z" />
    <glyph glyph-name="afii10105" unicode="&#x458;" horiz-adv-x="351" 
d="M139 561l30 139h212l-30 -139h-212zM128 508h211l-108 -507q-20 -99 -69 -142q-52 -47 -159 -47q-64 0 -113 10l30 142q15 -3 33 -3q33 0 50 16q16 16 23 52z" />
    <glyph glyph-name="afii10106" unicode="&#x459;" horiz-adv-x="928" 
d="M165 508h493l-37 -174h105q93 0 138 -40q44 -40 44 -109q0 -82 -48 -130q-55 -55 -184 -55h-326l79 370h-103l-23 -107q-19 -86 -42 -138t-67 -87q-59 -47 -156 -47q-44 0 -88 9l30 139q21 -3 31 -3q33 0 54 17q29 24 54 139zM598 226l-26 -121h45q48 0 68 20
q20 18 20 49q0 30 -22 42q-16 10 -49 10h-36z" />
    <glyph glyph-name="afii10107" unicode="&#x45a;" horiz-adv-x="937" 
d="M457 508h210l-37 -174h105q93 0 138 -40q44 -40 44 -109q0 -82 -48 -130q-55 -55 -186 -55h-334l47 220h-133l-47 -220h-210l108 508h210l-37 -174h133zM606 220l-24 -115h45q48 0 68 20q19 17 19 43q0 28 -22 42q-16 10 -49 10h-37z" />
    <glyph glyph-name="afii10108" unicode="&#x45b;" horiz-adv-x="690" 
d="M385 700l-14 -65h236l-20 -95h-236l-21 -100q67 58 156 58q88 0 133 -45q36 -36 36 -100q0 -26 -9 -73l-60 -280h-210l57 266q5 21 5 42q0 29 -13 42q-12 13 -36 13q-35 0 -59 -24q-27 -26 -41 -89l-53 -250h-210l115 540h-94l20 95h94l14 65h210z" />
    <glyph glyph-name="afii10109" unicode="&#x45c;" horiz-adv-x="637" 
d="M279 298h2l185 210h226l-240 -246l131 -262h-225l-93 221h-2l-47 -221h-210l108 508h210zM377 700h189l-140 -132h-143z" />
    <glyph glyph-name="afii10110" unicode="&#x45e;" horiz-adv-x="576" 
d="M-10 -173l29 132q30 -8 49 -8q32 0 53 14t30 40l6 16l-127 487h206l54 -313l145 313h201l-265 -500q-59 -111 -105 -148q-58 -46 -162 -46q-59 0 -114 13zM430 702h122q-12 -70 -74 -108q-53 -32 -147 -32q-95 0 -138 35q-45 37 -37 105h122q-5 -32 13 -48q15 -13 53 -13
q40 0 60 16q22 16 26 45z" />
    <glyph glyph-name="afii10193" unicode="&#x45f;" horiz-adv-x="675" 
d="M246 139h135l78 369h210l-108 -508h-195l-36 -170h-155l36 170h-205l108 508h210z" />
    <glyph glyph-name="afii10146" unicode="&#x462;" horiz-adv-x="763" 
d="M162 520h-132l27 130h132l11 50h216l-11 -50h180l-27 -130h-180l-16 -79h126q121 0 183 -50t62 -141q0 -123 -78 -189q-74 -61 -246 -61h-358zM328 287l-26 -125h111q48 0 71 16q24 17 24 52q0 28 -19 44q-17 13 -62 13h-99z" />
    <glyph glyph-name="afii10194" unicode="&#x463;" horiz-adv-x="661" 
d="M177 508l41 192h210l-41 -192h150l-25 -116h-150l-13 -63h110q98 0 138 -35q44 -38 44 -109q0 -82 -48 -130q-56 -55 -186 -55h-338l83 392h-132l25 116h132zM327 219l-24 -111h50q42 0 63 16q23 18 23 48q0 24 -21 37q-18 10 -50 10h-41z" />
    <glyph glyph-name="afii10147" unicode="&#x472;" 
d="M458 719q162 0 250 -89q84 -86 84 -228q0 -85 -34 -176.5t-97 -148.5q-106 -96 -287 -96q-169 0 -255 80q-89 82 -89 233q0 99 41 191.5t111 148.5q106 85 276 85zM293 430h262q3 55 -32 90q-29 29 -82 29q-59 0 -99 -37q-36 -34 -49 -82zM534 279h-266q-2 -49 24 -85
q31 -43 93 -43q56 0 93 32q44 37 56 96z" />
    <glyph glyph-name="afii10195" unicode="&#x473;" horiz-adv-x="666" 
d="M360 402q-38 0 -63 -24q-27 -26 -38 -68h167q6 45 -15 71q-18 21 -51 21zM411 207h-173q-2 -56 18 -80q18 -21 53 -21q40 0 66 27q25 27 36 74zM638 290q0 -143 -88 -227q-52 -49 -112.5 -65t-134.5 -16q-69 0 -121 13.5t-93 53.5q-61 60 -61 163q0 142 94 231
q88 83 246 83q136 0 205 -67q65 -63 65 -169z" />
    <glyph glyph-name="afii10148" unicode="&#x474;" horiz-adv-x="734" 
d="M320 256l20 52l96 206q41 88 86 133q67 66 177 66q63 0 120 -13l-34 -161q-27 10 -55 10q-38 0 -60 -20q-22 -16 -46 -64l-240 -465h-233l-86 700h235l18 -392l-3 -52h5z" />
    <glyph glyph-name="afii10196" unicode="&#x475;" horiz-adv-x="588" 
d="M45 508h198l18 -309l77 156q36 74 66 105q54 57 158 57q46 0 86 -9l-27 -127q-18 5 -38 5q-32 0 -53 -18q-14 -12 -40 -58l-173 -310h-200z" />
    <glyph glyph-name="afii10050" unicode="&#x490;" horiz-adv-x="626" 
d="M338 508l-108 -508h-218l149 700h355l35 158h160l-63 -350h-310z" />
    <glyph glyph-name="afii10098" unicode="&#x491;" horiz-adv-x="530" 
d="M298 363l-78 -363h-214l108 508h303l28 133h135l-44 -278h-238z" />
    <glyph glyph-name="cyrEndesc" unicode="&#x4a2;" horiz-adv-x="812" 
d="M289 275l-59 -275h-218l149 700h218l-51 -241h195l51 241h218l-108 -508h97l-82 -338h-184l31 146h-121l59 275h-195z" />
    <glyph glyph-name="cyrendesc" unicode="&#x4a3;" horiz-adv-x="691" 
d="M258 199l-42 -199h-210l108 508h210l-38 -177h133l38 177h210l-78 -369h82l-69 -268h-155l27 129h-125l42 199h-133z" />
    <glyph glyph-name="cyrstraightU" unicode="&#x4ae;" horiz-adv-x="660" 
d="M341 416l179 284h235l-341 -455l-52 -245h-218l52 245l-146 455h235z" />
    <glyph glyph-name="cyrstraightu" unicode="&#x4af;" horiz-adv-x="555" 
d="M420 508h195l-284 -487l-49 -234h-210l49 234l-76 487h195l17 -343z" />
    <glyph glyph-name="cyrH" unicode="&#x4ba;" horiz-adv-x="743" 
d="M643 0h-219l30 135q11 51 11 68q0 38 -22 53q-21 15 -76 15q-30 0 -80 -8l-57 -263h-218l149 700h218l-61 -281q63 8 118 8q120 0 181 -31q76 -39 76 -125q0 -36 -11 -84z" />
    <glyph glyph-name="cyrh" unicode="&#x4bb;" horiz-adv-x="675" 
d="M365 700l-50 -235q67 58 156 58q88 0 133 -45q36 -36 36 -100q0 -26 -9 -73l-65 -305h-210l59 276q6 22 6 44q0 27 -13 40q-12 13 -36 13q-35 0 -59 -24q-28 -28 -41 -89l-56 -260h-210l149 700h210z" />
    <glyph glyph-name="cyrZhecyrbreve" unicode="&#x4c1;" horiz-adv-x="978" 
d="M310 0l63 298l-231 -298h-252l329 389l-172 311h241l115 -262l56 262h196l-56 -262l223 262h251l-315 -325l172 -375h-246l-115 298l-63 -298h-196zM657 907h141q-15 -76 -77 -117q-57 -37 -164 -37q-94 0 -139 29q-51 34 -51 96q0 17 3 29h141q-10 -34 14 -51
q16 -11 52 -11q34 0 54 15q21 16 26 47z" />
    <glyph glyph-name="cyrzhecyrbreve" unicode="&#x4c2;" horiz-adv-x="838" 
d="M378 508h190l-42 -197l167 197h205l-232 -245l130 -263h-211l-80 210l-45 -210h-190l45 210l-165 -210h-215l244 270l-123 238h198l82 -197zM583 731h145q-14 -78 -84 -124q-62 -41 -162 -41q-86 0 -131 29q-51 33 -51 100q0 20 4 36h145q-13 -42 7 -62q12 -13 44 -13
q31 0 49 13q29 20 34 62z" />
    <glyph glyph-name="cyrAcyrbreve" unicode="&#x4d0;" horiz-adv-x="663" 
d="M169 99l-53 -99h-226l408 700h215l110 -700h-226l-11 99h-217zM243 243h131l-22 210zM495 900h122q-12 -70 -74 -108q-53 -32 -147 -32q-95 0 -138 35q-45 37 -37 105h122q-5 -32 13 -48q15 -13 53 -13q40 0 60 16q22 16 26 45z" />
    <glyph glyph-name="cyracyrbreve" unicode="&#x4d1;" horiz-adv-x="622" 
d="M264 335h-197q21 79 82 128q74 58 203 58q112 0 172 -37q68 -45 68 -132q0 -29 -9 -69l-42 -199q-6 -27 -6 -43t8 -24q6 -6 16 -10l-1 -7h-220l-6 51h-3q-28 -29 -67 -48q-47 -21 -108 -21q-80 0 -121 44q-33 35 -33 90q0 70 45 113q46 44 165 58l70 8q72 9 89 20
q20 13 20 41q0 20 -15 32q-14 11 -42 11q-32 0 -49 -17q-18 -18 -19 -47zM357 210l4 17q-20 -15 -70 -24q-43 -7 -60 -20q-19 -14 -19 -36q0 -21 13 -32q12 -11 38 -11q32 0 58 26q23 23 36 80zM475 702h122q-12 -70 -74 -108q-53 -32 -147 -32q-95 0 -138 35
q-45 37 -37 105h122q-5 -32 13 -48q15 -13 53 -13q40 0 60 16q22 16 26 45z" />
    <glyph glyph-name="cyrAdieresis" unicode="&#x4d2;" horiz-adv-x="663" 
d="M169 99l-53 -99h-226l408 700h215l110 -700h-226l-11 99h-217zM243 243h131l-22 210zM186 779l27 129h172l-27 -129h-172zM455 779l27 129h172l-27 -129h-172z" />
    <glyph glyph-name="cyradieresis" unicode="&#x4d3;" horiz-adv-x="622" 
d="M264 335h-197q21 79 82 128q74 58 203 58q112 0 172 -37q68 -45 68 -132q0 -29 -9 -69l-42 -199q-6 -27 -6 -43t8 -24q6 -6 16 -10l-1 -7h-220l-6 51h-3q-28 -29 -67 -48q-47 -21 -108 -21q-80 0 -121 44q-33 35 -33 90q0 70 45 113q46 44 165 58l70 8q72 9 89 20
q20 13 20 41q0 20 -15 32q-14 11 -42 11q-32 0 -49 -17q-18 -18 -19 -47zM357 210l4 17q-20 -15 -70 -24q-43 -7 -60 -20q-19 -14 -19 -36q0 -21 13 -32q12 -11 38 -11q32 0 58 26q23 23 36 80zM161 581l27 129h172l-27 -129h-172zM430 581l27 129h172l-27 -129h-172z" />
    <glyph glyph-name="cyrAE" unicode="&#x4d4;" horiz-adv-x="1121" 
d="M201 99l-81 -99h-230l575 700h671l-39 -185h-363l-17 -79h311l-35 -165h-311l-19 -86h371l-39 -185h-580l21 99h-235zM302 243h165l49 232h-30z" />
    <glyph glyph-name="cyrae" unicode="&#x4d5;" horiz-adv-x="972" 
d="M712 147h206q-30 -82 -106 -125q-71 -40 -187 -40q-92 0 -144 27q-47 24 -67 71q-38 -50 -91 -75q-49 -23 -132 -23q-105 0 -150 40q-41 37 -41 98q0 66 43 109q46 46 162 58l70 8q72 9 89 20q20 13 20 41q0 20 -15 32q-14 11 -42 11q-32 0 -49 -17q-18 -18 -19 -47h-197
q21 79 82 128q74 58 203 58q122 0 171 -67q60 72 187 72q129 0 189 -62q56 -56 56 -147q0 -45 -15 -105h-368q-3 -15 -3 -34q0 -36 21 -55q19 -17 53 -17q27 0 47 11t27 30zM585 312h156q9 51 -14 74q-15 15 -46 15q-38 0 -62 -24q-25 -23 -34 -65zM348 210l4 17
q-20 -15 -70 -24q-43 -7 -60 -20q-19 -14 -19 -36q0 -21 13 -32q12 -11 38 -11q32 0 58 26q23 23 36 80z" />
    <glyph glyph-name="cyrIecyrbreve" unicode="&#x4d6;" horiz-adv-x="737" 
d="M323 436h311l-35 -165h-311l-19 -86h371l-39 -185h-589l149 700h581l-39 -185h-363zM545 900h122q-12 -70 -74 -108q-53 -32 -147 -32q-95 0 -138 35q-45 37 -37 105h122q-5 -32 13 -48q15 -13 53 -13q40 0 60 16q22 16 26 45z" />
    <glyph glyph-name="cyriecyrbreve" unicode="&#x4d7;" horiz-adv-x="649" 
d="M387 147h206q-33 -83 -108 -125q-71 -40 -187 -40q-134 0 -203 61q-67 60 -67 165q0 70 24.5 130t64.5 100q88 88 246 88q139 0 209 -68q55 -54 55 -147q0 -48 -16 -99h-369q-4 -16 -4 -34q0 -37 22 -55q19 -17 53 -17q27 0 47 11t27 30zM262 312h158q10 50 -14 74
q-18 16 -46 16q-34 0 -61 -25q-24 -23 -37 -65zM475 702h122q-12 -70 -74 -108q-53 -32 -147 -32q-95 0 -138 35q-45 37 -37 105h122q-5 -32 13 -48q15 -13 53 -13q40 0 60 16q22 16 26 45z" />
    <glyph glyph-name="cyrZhedieresis" unicode="&#x4dc;" horiz-adv-x="978" 
d="M310 0l63 298l-231 -298h-252l329 389l-172 311h241l115 -262l56 262h196l-56 -262l223 262h251l-315 -325l172 -375h-246l-115 298l-63 -298h-196zM346 779l27 129h172l-27 -129h-172zM615 779l27 129h172l-27 -129h-172z" />
    <glyph glyph-name="cyrzhedieresis" unicode="&#x4dd;" horiz-adv-x="838" 
d="M378 508h190l-42 -197l167 197h205l-232 -245l130 -263h-211l-80 210l-45 -210h-190l45 210l-165 -210h-215l244 270l-123 238h198l82 -197zM256 581l27 129h172l-27 -129h-172zM525 581l27 129h172l-27 -129h-172z" />
    <glyph glyph-name="cyrZedieresis" unicode="&#x4de;" horiz-adv-x="738" 
d="M4 259h210q-3 -21 -3 -30q0 -45 30 -69q29 -22 85 -22t86 17q41 22 41 66q0 34 -25 49q-22 13 -65 13h-87l30 138h68q51 0 77 18q29 19 29 56q0 34 -26 53q-22 15 -68 15q-61 0 -93 -36q-28 -29 -35 -79h-210q21 122 110 193q94 75 273 75q133 0 208 -44q81 -49 81 -139
q0 -69 -44 -115q-42 -42 -101 -50l-2 -6q46 -10 76 -40q38 -38 38 -102q0 -98 -66 -160q-29 -27 -68.5 -44.5t-87 -24t-75 -8t-68.5 -1.5q-186 0 -263 76q-60 60 -60 152q0 27 5 49zM211 779l27 129h172l-27 -129h-172zM480 779l27 129h172l-27 -129h-172z" />
    <glyph glyph-name="cyrzedieresis" unicode="&#x4df;" horiz-adv-x="592" 
d="M2 184h181q-11 -43 22 -66q21 -15 61 -15q38 0 60 14q27 18 27 48q0 24 -23 36q-21 9 -60 9h-29l21 100h33q39 0 58 12q23 13 23 41q0 24 -20 37q-17 9 -46 9q-40 0 -66 -24q-20 -20 -27 -53h-178q21 94 99 148q71 48 197 48q107 0 167 -30q75 -39 75 -114q0 -50 -31 -81
q-28 -28 -74 -37l-1 -6q37 -6 59 -30q26 -26 26 -70q0 -92 -85 -141q-67 -37 -193 -37q-140 0 -199 35q-52 30 -68 76t-9 91zM117 581l27 129h172l-27 -129h-172zM386 581l27 129h172l-27 -129h-172z" />
    <glyph glyph-name="cyrImacron" unicode="&#x4e2;" horiz-adv-x="808" 
d="M293 325l291 375h212l-149 -700h-212l81 379l-292 -379h-212l149 700h212zM278 788l20 96h406l-20 -96h-406z" />
    <glyph glyph-name="cyrimacron" unicode="&#x4e3;" horiz-adv-x="707" 
d="M253 222l240 286h208l-108 -508h-200l55 260l10 27h-4l-240 -287h-208l108 508h200l-55 -260l-10 -26h4zM208 590l20 96h406l-20 -96h-406z" />
    <glyph glyph-name="cyrIdieresis" unicode="&#x4e4;" horiz-adv-x="808" 
d="M293 325l291 375h212l-149 -700h-212l81 379l-292 -379h-212l149 700h212zM266 779l27 129h172l-27 -129h-172zM535 779l27 129h172l-27 -129h-172z" />
    <glyph glyph-name="cyridieresis" unicode="&#x4e5;" horiz-adv-x="707" 
d="M253 222l240 286h208l-108 -508h-200l55 260l10 27h-4l-240 -287h-208l108 508h200l-55 -260l-10 -26h4zM186 581l27 129h172l-27 -129h-172zM455 581l27 129h172l-27 -129h-172z" />
    <glyph glyph-name="cyrOdieresis" unicode="&#x4e6;" 
d="M455 719q166 0 253 -89q84 -86 84 -225q0 -88 -34 -179.5t-97 -148.5q-106 -96 -289 -96q-167 0 -253 80q-89 82 -89 233q0 99 40.5 191.5t111.5 148.5q105 85 273 85zM266 295q0 -55 26 -89q31 -41 94 -41q54 0 92 32q37 30 58.5 91.5t21.5 118.5q0 58 -28 92
q-29 36 -86 36q-59 0 -102 -40q-37 -34 -56.5 -91t-19.5 -109zM256 779l27 129h172l-27 -129h-172zM525 779l27 129h172l-27 -129h-172z" />
    <glyph glyph-name="cyrodieresis" unicode="&#x4e7;" horiz-adv-x="666" 
d="M364 394q-37 0 -64 -24t-43.5 -70t-16.5 -96q0 -47 18 -69q19 -21 51 -21q37 0 64 27q25 25 39 75.5t14 94.5q0 40 -16 61q-17 22 -46 22zM638 290q0 -143 -88 -227q-52 -49 -112.5 -65t-136.5 -16q-144 0 -212 67q-61 60 -61 163q0 142 94 231q88 83 246 83
q136 0 205 -67q65 -63 65 -169zM148 581l27 129h172l-27 -129h-172zM417 581l27 129h172l-27 -129h-172z" />
    <glyph glyph-name="cyrObar" unicode="&#x4e8;" 
d="M458 719q162 0 250 -89q84 -86 84 -228q0 -85 -34 -176.5t-97 -148.5q-106 -96 -287 -96q-169 0 -255 80q-89 82 -89 233q0 99 41 191.5t111 148.5q106 85 276 85zM293 430h262q3 55 -32 90q-29 29 -82 29q-59 0 -99 -37q-36 -34 -49 -82zM534 279h-266q-2 -49 24 -85
q31 -43 93 -43q56 0 93 32q44 37 56 96z" />
    <glyph glyph-name="cyrobar" unicode="&#x4e9;" horiz-adv-x="666" 
d="M360 402q-38 0 -63 -24q-27 -26 -38 -68h167q6 45 -15 71q-18 21 -51 21zM411 207h-173q-2 -56 18 -80q18 -21 53 -21q40 0 66 27q25 27 36 74zM638 290q0 -143 -88 -227q-52 -49 -112.5 -65t-134.5 -16q-69 0 -121 13.5t-93 53.5q-61 60 -61 163q0 142 94 231
q88 83 246 83q136 0 205 -67q65 -63 65 -169z" />
    <glyph glyph-name="cyrObardieresis" unicode="&#x4ea;" 
d="M458 719q162 0 250 -89q84 -86 84 -228q0 -85 -34 -176.5t-97 -148.5q-106 -96 -287 -96q-169 0 -255 80q-89 82 -89 233q0 99 41 191.5t111 148.5q106 85 276 85zM293 430h262q3 55 -32 90q-29 29 -82 29q-59 0 -99 -37q-36 -34 -49 -82zM534 279h-266q-2 -49 24 -85
q31 -43 93 -43q56 0 93 32q44 37 56 96zM266 779l27 129h172l-27 -129h-172zM535 779l27 129h172l-27 -129h-172z" />
    <glyph glyph-name="cyrobardieresis" unicode="&#x4eb;" horiz-adv-x="666" 
d="M360 402q-38 0 -63 -24q-27 -26 -38 -68h167q6 45 -15 71q-18 21 -51 21zM411 207h-173q-2 -56 18 -80q18 -21 53 -21q40 0 66 27q25 27 36 74zM638 290q0 -143 -88 -227q-52 -49 -112.5 -65t-134.5 -16q-69 0 -121 13.5t-93 53.5q-61 60 -61 163q0 142 94 231
q88 83 246 83q136 0 205 -67q65 -63 65 -169zM166 581l27 129h172l-27 -129h-172zM435 581l27 129h172l-27 -129h-172z" />
    <glyph glyph-name="cyrUmacron" unicode="&#x4ee;" horiz-adv-x="634" 
d="M346 392l161 308h227l-335 -535q-44 -71 -79 -106q-42 -41 -84.5 -54.5t-96.5 -13.5q-80 0 -144 24l36 170q32 -14 71 -14q61 0 87 42l-134 487h239zM193 788l20 96h406l-20 -96h-406z" />
    <glyph glyph-name="cyrumacron" unicode="&#x4ef;" horiz-adv-x="576" 
d="M-10 -173l29 132q30 -8 49 -8q32 0 53 14t30 40l6 16l-127 487h206l54 -313l145 313h201l-265 -500q-59 -111 -105 -148q-58 -46 -162 -46q-59 0 -114 13zM128 590l20 96h406l-20 -96h-406z" />
    <glyph glyph-name="cyrUdieresis" unicode="&#x4f0;" horiz-adv-x="634" 
d="M346 392l161 308h227l-335 -535q-44 -71 -79 -106q-42 -41 -84.5 -54.5t-96.5 -13.5q-80 0 -144 24l36 170q32 -14 71 -14q61 0 87 42l-134 487h239zM176 779l27 129h172l-27 -129h-172zM445 779l27 129h172l-27 -129h-172z" />
    <glyph glyph-name="cyrudieresis" unicode="&#x4f1;" horiz-adv-x="576" 
d="M-10 -173l29 132q30 -8 49 -8q32 0 53 14t30 40l6 16l-127 487h206l54 -313l145 313h201l-265 -500q-59 -111 -105 -148q-58 -46 -162 -46q-59 0 -114 13zM121 581l27 129h172l-27 -129h-172zM390 581l27 129h172l-27 -129h-172z" />
    <glyph glyph-name="cyrUdblacute" unicode="&#x4f2;" horiz-adv-x="634" 
d="M346 392l161 308h227l-335 -535q-44 -71 -79 -106q-42 -41 -84.5 -54.5t-96.5 -13.5q-80 0 -144 24l36 170q32 -14 71 -14q61 0 87 42l-134 487h239zM262 908h187l-125 -132h-147zM495 908h188l-126 -132h-147z" />
    <glyph glyph-name="cyrudblacute" unicode="&#x4f3;" horiz-adv-x="576" 
d="M-10 -173l29 132q30 -8 49 -8q32 0 53 14t30 40l6 16l-127 487h206l54 -313l145 313h201l-265 -500q-59 -111 -105 -148q-58 -46 -162 -46q-59 0 -114 13zM192 710h187l-125 -132h-147zM425 710h188l-126 -132h-147z" />
    <glyph glyph-name="cyrChedieresis" unicode="&#x4f4;" horiz-adv-x="749" 
d="M121 700h209l-32 -158q-7 -37 -7 -49q0 -39 26 -55q22 -14 73 -14q34 0 72 7l57 269h218l-149 -700h-218l58 271q-64 -8 -129 -8q-102 0 -151 27q-78 42 -78 136q0 34 11 82zM216 779l27 129h172l-27 -129h-172zM485 779l27 129h172l-27 -129h-172z" />
    <glyph glyph-name="cyrchedieresis" unicode="&#x4f5;" horiz-adv-x="624" 
d="M89 508h198l-28 -133q-5 -26 -5 -35q0 -19 16 -30q16 -10 47 -10q27 0 48 4l43 204h210l-108 -508h-210l39 183q-42 -7 -89 -7q-125 0 -169 44q-31 31 -31 84q0 18 8 60zM141 581l27 129h172l-27 -129h-172zM410 581l27 129h172l-27 -129h-172z" />
    <glyph glyph-name="cyrYerudieresis" unicode="&#x4f8;" horiz-adv-x="1063" 
d="M833 700h218l-149 -700h-218zM377 700l-51 -241h125q111 0 168 -50q63 -53 63 -154q0 -62 -23.5 -117t-65.5 -86q-70 -52 -235 -52h-346l149 700h216zM291 297l-26 -125h118q41 0 61 13q27 17 27 54q0 29 -21 44q-20 14 -55 14h-104zM386 779l27 129h172l-27 -129h-172z
M655 779l27 129h172l-27 -129h-172z" />
    <glyph glyph-name="cyryerudieresis" unicode="&#x4f9;" horiz-adv-x="894" 
d="M680 508h208l-108 -508h-208zM320 508l-37 -174h104q93 0 138 -40q44 -40 44 -109q0 -82 -48 -130q-55 -55 -186 -55h-329l108 508h206zM260 226l-26 -121h45q48 0 68 20q20 18 20 49q0 30 -22 42q-16 10 -49 10h-36zM276 581l27 129h172l-27 -129h-172zM545 581l27 129
h172l-27 -129h-172z" />
    <glyph glyph-name="uni2010" unicode="&#x2010;" horiz-adv-x="548" 
d="M40 205l39 185h399l-39 -185h-399z" />
    <glyph glyph-name="uni2011" unicode="&#x2011;" horiz-adv-x="548" 
d="M40 205l39 185h399l-39 -185h-399z" />
    <glyph glyph-name="figuredash" unicode="&#x2012;" horiz-adv-x="694" 
d="M58 399h566l-18 -85h-566z" />
    <glyph glyph-name="endash" unicode="&#x2013;" horiz-adv-x="694" 
d="M58 310h566l-18 -85h-566z" />
    <glyph glyph-name="emdash" unicode="&#x2014;" horiz-adv-x="788" 
d="M40 258l18 85h660l-18 -85h-660z" />
    <glyph glyph-name="afii00208" unicode="&#x2015;" horiz-adv-x="788" 
d="M40 258l18 85h660l-18 -85h-660z" />
    <glyph glyph-name="quoteleft" unicode="&#x2018;" horiz-adv-x="414" 
d="M374 661l-41 -189h-203l38 171q21 97 69 144q62 61 174 61h3l-21 -98h-4q-64 0 -94 -31q-22 -22 -29 -58h108z" />
    <glyph glyph-name="quoteright" unicode="&#x2019;" horiz-adv-x="414" 
d="M170 658l41 189h203l-37 -171q-20 -94 -73 -144q-63 -61 -168 -61h-6l21 98h4q49 0 77 19q37 25 46 70h-108z" />
    <glyph glyph-name="quotesinglbase" unicode="&#x201a;" horiz-adv-x="411" 
d="M28 13l40 189h203l-37 -171q-21 -98 -73 -146q-63 -59 -167 -59h-6l21 98h4q54 0 85 25q29 24 38 64h-108z" />
    <glyph glyph-name="quotedblleft" unicode="&#x201c;" horiz-adv-x="664" 
d="M624 661l-41 -189h-202l39 177q19 88 66 135q64 64 175 64h3l-21 -98h-2q-66 0 -96 -31q-21 -23 -28 -58h107zM373 661l-41 -189h-202l37 171q21 95 69 142q65 63 173 63h4l-21 -98h-4q-65 0 -94 -30q-21 -22 -28 -59h107z" />
    <glyph glyph-name="quotedblright" unicode="&#x201d;" horiz-adv-x="664" 
d="M170 659l41 189h202l-37 -171q-23 -107 -88 -158q-59 -47 -152 -47h-6l21 98h4q52 0 80 20q33 24 42 69h-107zM421 659l41 189h202l-37 -171q-19 -92 -71 -143q-63 -62 -169 -62h-6l21 98h4q60 0 89 27q23 22 33 62h-107z" />
    <glyph glyph-name="quotedblbase" unicode="&#x201e;" horiz-adv-x="662" 
d="M28 0l40 189h202l-36 -171q-20 -92 -68 -140q-64 -65 -172 -65h-6l21 98h4q59 0 90 29q23 22 32 60h-107zM280 0l40 189h202l-36 -171q-20 -94 -69 -142q-64 -63 -173 -63h-4l21 98h4q63 0 92 30q22 22 30 59h-107z" />
    <glyph glyph-name="dagger" unicode="&#x2020;" horiz-adv-x="625" 
d="M285 700h198l-39 -182h206l-39 -186h-206l-110 -517h-198l110 517h-207l39 186h207z" />
    <glyph glyph-name="daggerdbl" unicode="&#x2021;" horiz-adv-x="624" 
d="M284 700h198l-39 -182h206l-39 -182h-206l-30 -143h206l-39 -182h-206l-41 -196h-198l41 196h-207l39 182h207l30 143h-207l39 182h207z" />
    <glyph glyph-name="bullet" unicode="&#x2022;" horiz-adv-x="556" 
d="M80 365q0 83 58 141.5t140 58.5q83 0 140.5 -58.5t57.5 -141.5q0 -81 -57.5 -139.5t-140.5 -58.5t-140.5 58t-57.5 140z" />
    <glyph glyph-name="ellipsis" unicode="&#x2026;" horiz-adv-x="1141" 
d="M30 0l41 196h203l-42 -196h-202zM393 0l42 196h203l-42 -196h-203zM757 0l42 196h202l-41 -196h-203z" />
    <glyph glyph-name="perthousand" unicode="&#x2030;" horiz-adv-x="1290" 
d="M425 561q0 -50 -19 -101t-55 -86q-58 -56 -161 -56q-82 0 -121 38q-41 39 -41 115q0 51 19 100.5t52 83.5q59 63 157 63q86 0 127 -41q42 -42 42 -116zM241 603q-26 0 -44 -19q-15 -16 -24.5 -45.5t-9.5 -54.5q0 -28 15 -41q12 -10 31 -10q24 0 42 17q15 14 26 46t11 59
q0 24 -12 36q-10 12 -35 12zM69 -4l624 713h101l-619 -713h-106zM822 218q0 -53 -19.5 -104t-53.5 -84q-26 -25 -57.5 -38t-52.5 -15.5t-52 -2.5q-82 0 -121 38q-41 41 -41 115q0 51 19 100.5t52 83.5q60 63 159 63q82 0 125 -41q42 -42 42 -115zM638 259q-26 0 -44 -19
q-15 -16 -24.5 -45.5t-9.5 -54.5q0 -28 15 -41q12 -10 31 -10q24 0 42 17q15 14 26 46t11 59q0 24 -12 36q-10 12 -35 12zM1262 218q0 -53 -19.5 -104t-53.5 -84q-26 -25 -57.5 -38t-52.5 -15.5t-52 -2.5q-82 0 -121 38q-41 41 -41 115q0 51 19 100.5t52 83.5q60 63 159 63
q82 0 125 -41q42 -42 42 -115zM1078 259q-26 0 -44 -19q-15 -16 -24.5 -45.5t-9.5 -54.5q0 -28 15 -41q12 -10 31 -10q24 0 42 17q15 14 26 46t11 59q0 24 -12 36q-10 12 -35 12z" />
    <glyph glyph-name="guilsinglleft" unicode="&#x2039;" horiz-adv-x="299" 
d="M70 356l179 139l-37 -177l-77 -53l54 -55l-38 -179l-121 140z" />
    <glyph glyph-name="guilsinglright" unicode="&#x203a;" horiz-adv-x="310" 
d="M240 356l-40 -185l-180 -140l37 177l78 54l-55 55l39 179z" />
    <glyph glyph-name="fraction" unicode="&#x2044;" horiz-adv-x="357" 
d="M-250 0l749 700h108l-749 -700h-108z" />
    <glyph glyph-name="Euro" unicode="&#x20ac;" horiz-adv-x="720" 
d="M633 222l-41 -196q-45 -21 -82 -30q-61 -16 -138 -16q-69 0 -124 16.5t-101 64.5q-76 80 -72 193h-105l54 78h57q1 25 9 46h-91l54 78h61q41 116 135 187q102 76 261 76q73 0 129.5 -16.5t102.5 -62.5l-110 -149q-52 61 -138 61q-63 0 -107 -31q-35 -24 -53 -65h273
l-54 -78h-243q-9 -22 -9 -46h227l-54 -78h-180q9 -51 36 -76q32 -29 96 -29q52 0 112 24q57 23 95 49z" />
    <glyph glyph-name="afii61352" unicode="&#x2116;" horiz-adv-x="1254" 
d="M735 0l29 137h390l-29 -137h-390zM1040 608q89 0 138 -50q46 -46 46 -124q0 -109 -69 -171q-62 -56 -165 -56q-92 0 -140 50q-43 45 -43 117q0 101 67 169q65 65 166 65zM1035 509q-33 0 -56 -25q-38 -40 -38 -104q0 -33 14 -52q15 -22 45 -22t52 22q18 18 29.5 48
t11.5 59q0 40 -18 59q-14 15 -40 15zM313 392h-5l-6 -53l-72 -339h-218l149 700h218l131 -392h5l6 53l72 339h218l-149 -700h-218z" />
    <glyph glyph-name="minus" unicode="&#x2212;" horiz-adv-x="666" 
d="M45 390h566v-85h-566v85z" />
    <glyph glyph-name="division" unicode="&#x2215;" horiz-adv-x="452" 
d="M0 -185l367 885h85l-367 -885h-85z" />
    </font>
</defs>
</svg>
