<?xml version="1.0" encoding="utf-8"?>
<!-- Generator: Adobe Illustrator 16.0.0, SVG Export Plug-In . SVG Version: 6.00 Build 0)  -->
<!DOCTYPE svg PUBLIC "-//W3C//DTD SVG 1.1//EN" "http://www.w3.org/Graphics/SVG/1.1/DTD/svg11.dtd">
<svg version="1.1" id="Layer_1" xmlns="http://www.w3.org/2000/svg" xmlns:xlink="http://www.w3.org/1999/xlink" x="0px" y="0px"
	 width="120px" height="48px" viewBox="0 0 120 48" enable-background="new 0 0 120 48" xml:space="preserve">
<g>
	<defs>
		<rect id="SVGID_1_" width="120" height="48"/>
	</defs>
	<clipPath id="SVGID_2_">
		<use xlink:href="#SVGID_1_"  overflow="visible"/>
	</clipPath>
	<path clip-path="url(#SVGID_2_)" fill="#2b1a1a" d="M69.592,23.336v-0.044c2.709-1.152,4.145-3.411,4.145-6.512
		c0-4.962-3.446-7.93-9.314-7.93s-9.316,2.968-9.316,7.93c0,3.056,1.437,5.36,4.104,6.556v0.044c-3.077,1.196-4.76,3.766-4.76,7.265
		c0,5.36,3.693,8.505,9.972,8.505c6.277,0,9.931-3.145,9.931-8.505C74.353,27.146,72.67,24.621,69.592,23.336 M58.102,17
		c0-3.367,2.34-5.151,6.32-5.151c4.021,0,6.32,1.784,6.32,5.151c0,3.278-2.258,4.99-6.32,4.99
		C60.399,21.991,58.102,20.279,58.102,17 M64.422,36.149c-4.473,0-6.976-1.961-6.976-5.726c0-3.5,2.462-5.434,6.976-5.434
		c4.432,0,6.935,1.934,6.935,5.434C71.356,34.188,68.812,36.149,64.422,36.149 M80.289,38.619c-0.943,0-1.519-0.665-1.519-1.64
		v-1.374c0-5.891,2.176-9.214,8.618-11.65c4.76-1.816,6.196-3.588,6.196-6.733c0-3.5-2.053-5.373-5.622-5.373
		c-2.708,0-4.924,1.297-6.073,3.778c-0.246,0.487-0.739,0.753-1.271,0.753c-0.821,0-1.438-0.664-1.438-1.55
		c0-0.311,0.083-0.576,0.247-0.931c1.519-3.145,4.719-5.05,8.494-5.05c5.499,0,8.659,3.057,8.659,8.373
		c0,4.695-1.971,7.309-7.634,9.347c-5.499,1.993-7.181,4.386-7.181,8.461v0.59l13.072-0.001c0.855,0,1.455,0.6,1.455,1.522
		c0,0.877-0.6,1.478-1.455,1.478H80.289z M110.563,8.85c-5.868,0-9.397,3.677-9.397,9.702c0,6.069,3.364,9.657,8.986,9.657
		c2.954,0,5.294-1.063,6.813-3.058h0.041v2.747c0,5.714-2.093,8.251-6.648,8.251c-2.421,0-4.432-0.941-5.581-2.803
		c-0.287-0.442-0.696-0.797-1.313-0.797c-0.862,0-1.396,0.62-1.396,1.506c0,0.354,0.082,0.665,0.246,0.93
		c1.56,2.703,4.474,4.164,8.084,4.164c6.32,0,9.603-3.765,9.603-11.073V19.26C120,12.66,116.513,8.85,110.563,8.85 M110.563,25.209
		c-4.063,0-6.401-2.405-6.401-6.657c0-4.297,2.339-6.702,6.401-6.702c4.021,0,6.442,2.36,6.442,6.923
		C117.005,22.76,114.461,25.209,110.563,25.209 M40.105,9.432L25.234,0.845C24.29,0.3,23.063,0,21.78,0
		c-1.283,0-2.51,0.3-3.454,0.845L3.454,9.432C1.517,10.55,0,13.178,0,15.414v17.173c0,2.235,1.517,4.864,3.454,5.981l14.872,8.586
		C19.27,47.699,20.497,48,21.78,48c1.284,0,2.51-0.301,3.454-0.846l14.872-8.586c1.937-1.117,3.454-3.746,3.454-5.981V15.414
		C43.56,13.178,42.042,10.55,40.105,9.432 M23.734,32.848L23.734,32.848L23.734,32.848c-1.024,0.591-2.886,0.59-3.908,0L4.505,24
		l15.321-8.847l0.001-0.001c1.023-0.59,2.885-0.59,3.907,0L39.055,24L23.734,32.848z M40.56,15.414V21.4l-15.779-9.107l5.188-2.995
		c1.01-0.583,2.839-0.59,3.869-0.021l4.768,2.753C39.629,12.62,40.56,14.233,40.56,15.414 M4.954,12.03l14.872-8.587
		C20.313,3.162,21.026,3,21.78,3s1.466,0.162,1.954,0.443l5.188,2.995L3,21.405v-5.991C3,14.233,3.932,12.62,4.954,12.03 M3,32.587
		v-5.986l15.78,9.107l-5.188,2.995c-1.011,0.583-2.841,0.59-3.871,0.02l-4.767-2.752C3.932,35.381,3,33.767,3,32.587 M38.605,35.971
		l-14.872,8.586C23.246,44.839,22.534,45,21.78,45s-1.466-0.161-1.954-0.443l-5.187-2.995L40.56,26.596v5.991
		C40.56,33.767,39.629,35.381,38.605,35.971"/>
</g>
</svg>
