<svg version="1.1" id="Artwork" xmlns="http://www.w3.org/2000/svg" xmlns:xlink="http://www.w3.org/1999/xlink" x="0px" y="0px"
	 viewBox="0 0 18 18" style="enable-background:new 0 0 18 18;" xml:space="preserve">
<title>close_1</title>
<path d="M10.4,9l7.3-7.3c0.4-0.4,0.4-1,0-1.4c-0.4-0.4-1-0.4-1.4,0L9,7.6L1.7,0.3C1.3,0,0.7,0,0.3,0.3s-0.4,1,0,1.4L7.6,9l-7.3,7.3
	c-0.4,0.4-0.5,1-0.1,1.4c0.4,0.4,1,0.5,1.4,0.1c0,0,0.1-0.1,0.1-0.1L9,10.4l7.3,7.3c0.4,0.4,1,0.3,1.4-0.1c0.3-0.4,0.3-0.9,0-1.3
	L10.4,9z"/>
</svg>
