<?xml version="1.0" encoding="utf-8"?>
<!-- Generator: Adobe Illustrator 16.0.0, SVG Export Plug-In . SVG Version: 6.00 Build 0)  -->
<!DOCTYPE svg PUBLIC "-//W3C//DTD SVG 1.1//EN" "http://www.w3.org/Graphics/SVG/1.1/DTD/svg11.dtd">
<svg version="1.1" id="Layer_1" xmlns="http://www.w3.org/2000/svg" xmlns:xlink="http://www.w3.org/1999/xlink" x="0px" y="0px"
	 width="24px" height="22px" viewBox="0 0 24 22" enable-background="new 0 0 24 22" xml:space="preserve">
<rect fill="#eb5834" x="7" y="6" width="10" height="2"/>
<rect fill="#eb5834" x="11" y="12" width="2" height="2"/>
<g>
	<defs>
		<rect id="SVGID_1_" width="24" height="22"/>
	</defs>
	<clipPath id="SVGID_2_">
		<use xlink:href="#SVGID_1_"  overflow="visible"/>
	</clipPath>
	<path clip-path="url(#SVGID_2_)" fill="#eb5834" d="M21,0H3C1.346,0,0,1.346,0,3v12c0,1.654,1.346,3,3,3h8v2H7v2h10v-2h-4v-2h8
		c1.654,0,3-1.346,3-3V3C24,1.346,22.654,0,21,0 M22,15c0,0.552-0.448,1-1,1H3c-0.552,0-1-0.448-1-1V3c0-0.552,0.448-1,1-1h18
		c0.552,0,1,0.448,1,1V15z"/>
</g>
</svg>
