<?xml version="1.0" encoding="utf-8"?>
<!-- Generator: Adobe Illustrator 16.0.0, SVG Export Plug-In . SVG Version: 6.00 Build 0)  -->
<!DOCTYPE svg PUBLIC "-//W3C//DTD SVG 1.1//EN" "http://www.w3.org/Graphics/SVG/1.1/DTD/svg11.dtd">
<svg version="1.1" id="Layer_1" xmlns="http://www.w3.org/2000/svg" xmlns:xlink="http://www.w3.org/1999/xlink" x="0px" y="0px"
	 width="20.001px" height="20px" viewBox="0 0 20.001 20" enable-background="new 0 0 20.001 20" xml:space="preserve">
<g>
	<defs>
		<rect id="SVGID_1_" width="20.001" height="20"/>
	</defs>
	<clipPath id="SVGID_2_">
		<use xlink:href="#SVGID_1_"  overflow="visible"/>
	</clipPath>
	<path clip-path="url(#SVGID_2_)" fill="#eb5834" d="M10.001,6.667C8.16,6.667,6.667,8.16,6.667,10c0,1.841,1.493,3.334,3.334,3.334
		c1.841,0,3.334-1.493,3.334-3.334C13.335,8.16,11.842,6.667,10.001,6.667"/>
	<path clip-path="url(#SVGID_2_)" fill="#eb5834" d="M19.94,5.877c-0.048-1.064-0.218-1.792-0.465-2.427
		c-0.255-0.658-0.597-1.216-1.152-1.771c-0.557-0.556-1.114-0.899-1.772-1.154c-0.636-0.247-1.363-0.416-2.427-0.465
		C13.057,0.011,12.716,0,10.001,0C7.285,0,6.944,0.011,5.878,0.06C4.813,0.109,4.087,0.278,3.45,0.525
		C2.793,0.78,2.235,1.123,1.679,1.679C1.123,2.234,0.781,2.792,0.526,3.45C0.278,4.085,0.11,4.813,0.061,5.877
		C0.012,6.943,0,7.284,0,10s0.012,3.057,0.061,4.123c0.049,1.065,0.217,1.791,0.465,2.428c0.255,0.657,0.597,1.215,1.153,1.771
		c0.556,0.556,1.114,0.897,1.771,1.154c0.637,0.245,1.363,0.416,2.428,0.464C6.944,19.988,7.285,20,10.001,20
		c2.715,0,3.056-0.012,4.123-0.06c1.063-0.048,1.791-0.219,2.427-0.464c0.658-0.257,1.216-0.599,1.772-1.154
		c0.556-0.557,0.897-1.114,1.152-1.771c0.247-0.637,0.417-1.362,0.465-2.428c0.049-1.066,0.061-1.407,0.061-4.123
		S19.989,6.943,19.94,5.877 M10.001,15.135c-2.836,0-5.135-2.299-5.135-5.135s2.299-5.135,5.135-5.135S15.136,7.164,15.136,10
		S12.837,15.135,10.001,15.135 M15.339,5.862c-0.662,0-1.199-0.537-1.199-1.2s0.537-1.201,1.199-1.201s1.2,0.538,1.2,1.201
		S16.001,5.862,15.339,5.862"/>
</g>
</svg>
