<?xml version="1.0" encoding="utf-8"?>
<!-- Generator: Adobe Illustrator 16.0.0, SVG Export Plug-In . SVG Version: 6.00 Build 0)  -->
<!DOCTYPE svg PUBLIC "-//W3C//DTD SVG 1.1//EN" "http://www.w3.org/Graphics/SVG/1.1/DTD/svg11.dtd">
<svg version="1.1" id="Layer_1" xmlns="http://www.w3.org/2000/svg" xmlns:xlink="http://www.w3.org/1999/xlink" x="0px" y="0px"
	 width="24px" height="24px" viewBox="0 0 24 24" enable-background="new 0 0 24 24" xml:space="preserve">
<g>
	<defs>
		<rect id="SVGID_1_" width="24" height="24"/>
	</defs>
	<clipPath id="SVGID_2_">
		<use xlink:href="#SVGID_1_"  overflow="visible"/>
	</clipPath>
	<path clip-path="url(#SVGID_2_)" fill="#eb5834" d="M19.98,10.099C19.984,10.065,20,10.035,20,10V8c0-4.411-3.589-8-8-8S4,3.589,4,8v2
		c0,0.035,0.016,0.065,0.02,0.099C1.731,10.556,0,12.579,0,15c0,2.757,2.243,5,5,5h1c0,2.206,1.794,4,4,4h2v-2h-2
		c-1.103,0-2-0.897-2-2v-1v-2v-6c0-0.553-0.447-1-1-1H6V8c0-3.309,2.691-6,6-6c3.309,0,6,2.691,6,6v2h-1c-0.553,0-1,0.447-1,1v8
		c0,0.553,0.447,1,1,1h2c2.757,0,5-2.243,5-5C24,12.579,22.269,10.556,19.98,10.099 M6,18H5c-1.654,0-3-1.346-3-3s1.346-3,3-3h1v5
		V18z M19,18h-1v-6h1c1.654,0,3,1.346,3,3S20.654,18,19,18"/>
	<rect fill="#eb5834" x="14" y="22" clip-path="url(#SVGID_2_)" width="2" height="2"/>
</g>
</svg>
