<?xml version="1.0" encoding="utf-8"?>
<!-- Generator: Adobe Illustrator 16.0.0, SVG Export Plug-In . SVG Version: 6.00 Build 0)  -->
<!DOCTYPE svg PUBLIC "-//W3C//DTD SVG 1.1//EN" "http://www.w3.org/Graphics/SVG/1.1/DTD/svg11.dtd">
<svg version="1.1" id="Layer_1" xmlns="http://www.w3.org/2000/svg" xmlns:xlink="http://www.w3.org/1999/xlink" x="0px" y="0px"
	 width="22.148px" height="18px" viewBox="0 0 22.148 18" enable-background="new 0 0 22.148 18" xml:space="preserve">
<g>
	<defs>
		<rect id="SVGID_1_" width="22.148" height="18"/>
	</defs>
	<clipPath id="SVGID_2_">
		<use xlink:href="#SVGID_1_"  overflow="visible"/>
	</clipPath>
	<g clip-path="url(#SVGID_2_)">
		<defs>
			<rect id="SVGID_3_" width="22.149" height="18"/>
		</defs>
		<clipPath id="SVGID_4_">
			<use xlink:href="#SVGID_3_"  overflow="visible"/>
		</clipPath>
		<g clip-path="url(#SVGID_4_)">
			<g>
				<defs>
					<rect id="SVGID_5_" width="22.148" height="18"/>
				</defs>
				<clipPath id="SVGID_6_">
					<use xlink:href="#SVGID_5_"  overflow="visible"/>
				</clipPath>
				<path clip-path="url(#SVGID_6_)" fill="#eb5834" d="M22.148,2.131c-0.814,0.361-1.69,0.606-2.609,0.716
					c0.938-0.563,1.659-1.453,1.998-2.514c-0.878,0.52-1.851,0.898-2.885,1.102C17.823,0.552,16.642,0,15.335,0
					c-2.51,0-4.545,2.035-4.545,4.544c0,0.356,0.041,0.703,0.118,1.036C7.132,5.39,3.783,3.581,1.542,0.832
					C1.151,1.503,0.927,2.284,0.927,3.116c0,1.577,0.802,2.968,2.021,3.783C2.203,6.875,1.503,6.671,0.89,6.33
					c0,0.019,0,0.038,0,0.058c0,2.201,1.566,4.038,3.645,4.455c-0.382,0.104-0.783,0.16-1.197,0.16
					c-0.293,0-0.578-0.029-0.855-0.082c0.578,1.805,2.256,3.119,4.245,3.156c-1.556,1.219-3.515,1.944-5.644,1.944
					c-0.367,0-0.728-0.021-1.084-0.063C2.011,17.248,4.4,18,6.966,18c8.358,0,12.929-6.924,12.929-12.929
					c0-0.197-0.005-0.393-0.013-0.588C20.769,3.843,21.54,3.042,22.148,2.131"/>
			</g>
		</g>
	</g>
</g>
</svg>
