<?xml version="1.0" encoding="utf-8"?>
<!-- Generator: Adobe Illustrator 16.0.0, SVG Export Plug-In . SVG Version: 6.00 Build 0)  -->
<!DOCTYPE svg PUBLIC "-//W3C//DTD SVG 1.1//EN" "http://www.w3.org/Graphics/SVG/1.1/DTD/svg11.dtd">
<svg version="1.1" id="Layer_1" xmlns="http://www.w3.org/2000/svg" xmlns:xlink="http://www.w3.org/1999/xlink" x="0px" y="0px"
	 width="24px" height="22px" viewBox="0 0 24 22" enable-background="new 0 0 24 22" xml:space="preserve">
<g>
	<defs>
		<rect id="SVGID_1_" width="24" height="22"/>
	</defs>
	<clipPath id="SVGID_2_">
		<use xlink:href="#SVGID_1_"  overflow="visible"/>
	</clipPath>
	<path clip-path="url(#SVGID_2_)" fill="#eb5834" d="M4.687,22c-0.37,0-0.712-0.205-0.885-0.536c-0.183-0.349-0.144-0.772,0.099-1.082
		C4.4,19.747,4.717,18.98,4.816,18.18C1.789,16.278,0,13.295,0,10.091C0,4.526,5.383,0,12,0s12,4.526,12,10.091
		c0,5.564-5.383,10.091-12,10.091h-1.611c-1.715,1.071-3.66,1.698-5.642,1.816C4.728,21.999,4.707,22,4.687,22 M12,2
		C6.486,2,2,5.63,2,10.091c0,2.657,1.622,5.149,4.338,6.666c0.316,0.177,0.513,0.511,0.513,0.873c0,0.708-0.118,1.408-0.342,2.073
		c1.067-0.278,2.095-0.735,3.036-1.356c0.164-0.107,0.355-0.165,0.551-0.165H12c5.514,0,10-3.63,10-8.091S17.514,2,12,2 M13,9h-2v2
		h2V9z M9,9H7v2h2V9z M17,9h-2v2h2V9z"/>
</g>
</svg>
