<?xml version="1.0" encoding="utf-8"?>
<!-- Generator: Adobe Illustrator 16.0.0, SVG Export Plug-In . SVG Version: 6.00 Build 0)  -->
<!DOCTYPE svg PUBLIC "-//W3C//DTD SVG 1.1//EN" "http://www.w3.org/Graphics/SVG/1.1/DTD/svg11.dtd">
<svg version="1.1" id="Layer_1" xmlns="http://www.w3.org/2000/svg" xmlns:xlink="http://www.w3.org/1999/xlink" x="0px" y="0px"
	 width="21.999px" height="21.976px" viewBox="0 0 21.999 21.976" enable-background="new 0 0 21.999 21.976" xml:space="preserve">
<g>
	<defs>
		<rect id="SVGID_1_" y="0" width="21.999" height="21.976"/>
	</defs>
	<clipPath id="SVGID_2_">
		<use xlink:href="#SVGID_1_"  overflow="visible"/>
	</clipPath>
	<path clip-path="url(#SVGID_2_)" fill="#eb5834" d="M14.947,8.977h-2v-2h2V8.977z M19.999,7.977c0-3.309-2.69-6-6-6h-1v2h1c2.206,0,4,1.794,4,4v1
		h2V7.977z M19.3,20.538l1.992-1.993c0.456-0.455,0.707-1.061,0.707-1.704s-0.251-1.249-0.706-1.704L19.3,13.143
		c-1.488-1.487-3.911-1.489-5.4,0l-1.256,1.256c-0.134,0.132-0.334,0.165-0.484,0.071c-0.891-0.558-1.759-1.256-2.578-2.074
		c-0.815-0.815-1.513-1.683-2.076-2.58c-0.091-0.147-0.06-0.35,0.074-0.485l1.254-1.254c1.488-1.488,1.488-3.911,0-5.401L6.84,0.684
		C5.93-0.229,4.342-0.228,3.432,0.683L1.438,2.676c-2.912,2.912-1.27,9.116,3.738,14.124c3.334,3.334,7.198,5.177,10.268,5.176
		C16.986,21.976,18.326,21.512,19.3,20.538 M5.425,2.097L7.419,4.09c0.709,0.71,0.709,1.864,0,2.573L6.164,7.917
		c0,0-0.001,0-0.001,0.001c-0.799,0.8-0.943,2.017-0.352,2.959c0.642,1.025,1.434,2.012,2.356,2.932
		c0.926,0.926,1.912,1.718,2.932,2.354c0.928,0.584,2.175,0.436,2.96-0.353l1.255-1.255c0.709-0.709,1.863-0.709,2.572,0
		l1.993,1.994c0.105,0.104,0.12,0.227,0.12,0.29s-0.015,0.185-0.12,0.289l-1.993,1.994c-2.05,2.052-7.221,0.337-11.295-3.738
		C2.516,11.311,0.804,6.139,2.852,4.09l1.994-1.993c0.104-0.104,0.226-0.12,0.29-0.12C5.199,1.977,5.321,1.993,5.425,2.097"/>
</g>
</svg>
