<?xml version="1.0" encoding="utf-8"?>
<!-- Generator: Adobe Illustrator 16.0.0, SVG Export Plug-In . SVG Version: 6.00 Build 0)  -->
<!DOCTYPE svg PUBLIC "-//W3C//DTD SVG 1.1//EN" "http://www.w3.org/Graphics/SVG/1.1/DTD/svg11.dtd">
<svg version="1.1" id="Layer_1" xmlns="http://www.w3.org/2000/svg" xmlns:xlink="http://www.w3.org/1999/xlink" x="0px" y="0px" viewBox="0 0 130 50" enable-background="new 0 0 130 50" xml:space="preserve">
<g>
	<defs>
		<rect id="SVGID_1_" width="130" height="50"/>
	</defs>
	<clipPath id="SVGID_2_">
		<use xlink:href="#SVGID_1_"  overflow="visible"/>
	</clipPath>
	<path clip-path="url(#SVGID_2_)" fill="#461E1E" d="M17.98,40.957c0-1.346-0.189-10.205-2.512-10.205
		c-1.004,0-1.393,0.484-3.55,0.484c-2.156,0-2.835-0.865-2.835-0.865c0,1.039,0.975,1.299,0.975,1.299S8.39,35.705,8.39,40.957
		c0,7.461,2.233,7.836,2.233,8.626c0,0.35-0.2,0.417-0.422,0.417H8.039c-1.061,0-1.061-1.074-1.061-1.074
		c0-1.525-1.156-1.426-1.156-2.191s0.387-0.809,0.387-5.777c0-4.264-0.752-5.373-0.752-7.169c0-1.259,0.961-2.109,0.961-2.109
		c-2.282,0-3.455,5.219-3.455,9.278c0,7.461,2.233,7.836,2.233,8.626c0,0.35-0.2,0.417-0.422,0.417H2.613
		c-1.062,0-1.062-1.074-1.062-1.074c0-1.525-1.156-1.426-1.156-2.191s0.387-0.809,0.387-5.777C0.782,36.948,0,35.393,0,33.543
		c0-1.5,3.142-2.95,1.739-7.625c-0.46,0.451-0.931,0.326-0.931,0.326c-0.971-6.897,1.759-11.477,6.161-11.477
		c1.481,0,1.536,0.352,3.586,0.352c3.777,0,4.257-4.305,8.297-4.305c1.802-0.008,5.212,1.537,7.156-0.368
		c-1.647,0-7.759-0.199-7.759-6.686c0-3.598,0.424-3.76,1.047-3.76c1.76,0,1.675,3.153,2.806,3.153c0.808,0,0.093-1.468,1.134-1.468
		c1.06,0,1.057,3.367,2.158,3.367c0.591,0,0.255-1.198,1.038-1.198c1.395,0,1.939,3.828,4.73,3.828c2.819,0,2.543-4.705,3.852-4.705
		c0.613,0,0.479,0.772,0.829,0.772c0.533,0,1.162-2.143,2.029-2.143c0.792,0-0.088,1.492,0.786,1.492
		C39.666,3.098,40.061,0,41.739,0C42.281,0,42.5,0.36,42.5,1.472c0,1.463,0,8.974-7.538,8.974c3.31,3.242,6.478,1.164,6.478,4.518
		c0,3.221-2.125,4.646-3.254,4.231c0,0-0.339,1.156-1.476,1.156c-1.285,0-1.999-1.286-3.917-1.286c-1.466,0-2.397,0-2.397,4.532
		c0,3.943-4.298,4.91-4.298,4.91s0.279,0.59,1.896,0.257c0,0-2.406,5.663-2.406,12.193c0,7.461,2.234,7.836,2.234,8.626
		c0,0.35-0.2,0.417-0.423,0.417h-2.161c-1.061,0-1.061-1.074-1.061-1.074c0-1.525-1.156-1.426-1.156-2.191s0.387-0.809,0.387-5.777
		c0-4.264-0.752-5.373-0.752-7.169c0-1.259,0.961-2.109,0.961-2.109c-2.282,0-3.456,5.219-3.456,9.278
		c0,7.461,2.234,7.836,2.234,8.626c0,0.35-0.2,0.417-0.422,0.417h-2.162c-1.061,0-1.061-1.074-1.061-1.074
		c0-1.525-1.156-1.426-1.156-2.191S17.98,45.926,17.98,40.957"/>
	<path clip-path="url(#SVGID_2_)" fill="#461E1E" d="M77.471,50c5.765,0,9.265-3.532,9.265-9s-3.5-9-9.265-9h-0.022
		c-5.766,0-9.266,3.532-9.266,9s3.5,9,9.266,9H77.471z M77.453,46.07c-2.951,0-4.743-1.99-4.743-5.07c0-3.081,1.792-5.07,4.743-5.07
		h0.013c2.951,0,4.743,1.989,4.743,5.07c0,3.08-1.792,5.07-4.743,5.07H77.453z M98.078,49.554H98.1c5.479,0,8.805-3.357,8.805-8.554
		s-3.326-8.554-8.805-8.554h-0.021h-9.332v2.884l1.918,0.689v9.936l-1.918,0.69v2.908H98.078z M97.951,36.3h0.011
		c2.747,0,4.415,1.852,4.415,4.719s-1.668,4.72-4.415,4.72h-0.011L95.166,45.7v-9.438L97.951,36.3z M65.831,34.219v4.15h-3.337
		l-0.799-2.063c0,0-0.906-0.377-2.425-0.377c-2.951,0-4.743,2.375-4.743,5.07s1.792,5.07,4.743,5.07
		c2.851,0,4.656-1.677,4.656-1.677l2.763,3.041c0,0-2.344,2.565-7.425,2.565C53.5,50,50,46.468,50,41s3.5-9,9.264-9
		C63.986,32,65.831,34.219,65.831,34.219 M112.766,32.446h-5.014v3.229l1.794,0.345l5.558,7.94v1.995l-1.915,0.69v2.908h8.332
		v-2.908l-1.915-0.69V43.96l5.558-7.94l1.794-0.345v-3.229h-5.015c0,0-3.957,5.655-4.589,6.941
		C116.722,38.102,112.766,32.446,112.766,32.446 M96.889,27.554h-8.338v-2.908l1.918-0.69v-9.886l-1.918-0.69v-2.932h6.739
		l4.432,5.731l4.501-5.731h6.718v2.932l-1.917,0.69v9.886l1.917,0.69v2.908h-8.337v-2.908l1.917-0.69v-7.286l-4.655,5.545h-0.33
		l-4.564-5.526v7.267l1.918,0.69V27.554z M74.216,24.157l-1.14,3.396h-5.277v-2.908l1.615-0.689l3.989-9.936l-1.615-0.69v-2.883
		l8.304,0.001l5.414,13.508l1.615,0.69v2.908h-5.248l-1.163-3.396H74.216z M79.486,20.584l-2.056-5.998l-2.015,5.998H79.486z
		 M119.605,22.423h4.215h0.016c3.835,0,6.164-2.35,6.164-5.988c0-3.638-2.329-5.988-6.164-5.988h-0.016h-10.635v2.932l1.917,0.69
		v9.886l-1.917,0.69v2.908h8.338v-2.792l-1.918-0.815V22.423z M123.441,18.608h-3.836v-4.346h3.83h0.006
		c1.264,0,2.031,0.853,2.031,2.173C125.473,17.755,124.705,18.608,123.441,18.608h-0.006 M65.831,12.218v4.151h-3.337l-0.799-2.063
		c0,0-0.906-0.377-2.425-0.377c-2.951,0-4.743,2.375-4.743,5.071c0,2.695,1.792,5.07,4.743,5.07c2.851,0,4.656-1.677,4.656-1.677
		l2.763,3.041c0,0-2.344,2.565-7.425,2.565C53.5,28,50,24.467,50,19c0-5.468,3.5-9,9.264-9C63.986,10,65.831,12.218,65.831,12.218"
		/>
</g>
</svg>
