<svg xmlns="http://www.w3.org/2000/svg" width="877.809" height="493.745" viewBox="0 0 877.809 493.745">
  <path id="map" d="M24.778,325.919a5.72,5.72,0,1,0,5.72,5.72A5.721,5.721,0,0,0,24.778,325.919Zm0,26.071a5.72,5.72,0,1,0,5.72,5.72A5.721,5.721,0,0,0,24.778,351.99Zm0,39.1a5.72,5.72,0,1,0,5.72,5.72A5.721,5.721,0,0,0,24.778,391.095Zm12.933-78.211a5.72,5.72,0,1,0,5.72,5.72A5.721,5.721,0,0,0,37.711,312.884Zm0,13.035a5.72,5.72,0,1,0,5.72,5.72A5.722,5.722,0,0,0,37.711,325.919Zm0,13.035a5.72,5.72,0,1,0,5.72,5.72A5.722,5.722,0,0,0,37.711,338.954Zm0,13.036a5.72,5.72,0,1,0,5.72,5.72A5.722,5.722,0,0,0,37.711,351.99Zm0,13.033a5.72,5.72,0,1,0,5.72,5.72A5.722,5.722,0,0,0,37.711,365.023Zm0,13.037a5.72,5.72,0,1,0,5.72,5.72A5.722,5.722,0,0,0,37.711,378.06Zm0,104.281a5.72,5.72,0,1,0,5.72,5.72A5.722,5.722,0,0,0,37.711,482.341ZM50.642,312.884a5.72,5.72,0,1,0,5.72,5.72A5.72,5.72,0,0,0,50.642,312.884Zm0,13.035a5.72,5.72,0,1,0,5.72,5.72A5.721,5.721,0,0,0,50.642,325.919Zm0,13.035a5.72,5.72,0,1,0,5.72,5.72A5.721,5.721,0,0,0,50.642,338.954Zm0,13.036a5.72,5.72,0,1,0,5.72,5.72A5.721,5.721,0,0,0,50.642,351.99Zm0,13.033a5.72,5.72,0,1,0,5.72,5.72A5.721,5.721,0,0,0,50.642,365.023Zm0,117.318a5.72,5.72,0,1,0,5.72,5.72A5.721,5.721,0,0,0,50.642,482.341ZM63.573,312.884a5.72,5.72,0,1,0,5.72,5.72A5.721,5.721,0,0,0,63.573,312.884Zm0,13.035a5.72,5.72,0,1,0,5.72,5.72A5.722,5.722,0,0,0,63.573,325.919Zm0,13.035a5.72,5.72,0,1,0,5.72,5.72A5.722,5.722,0,0,0,63.573,338.954Zm0,13.036a5.72,5.72,0,1,0,5.72,5.72A5.722,5.722,0,0,0,63.573,351.99Zm0,13.033a5.72,5.72,0,1,0,5.72,5.72A5.722,5.722,0,0,0,63.573,365.023ZM76.5,312.884a5.72,5.72,0,1,0,5.72,5.72A5.721,5.721,0,0,0,76.5,312.884Zm0,13.035a5.72,5.72,0,1,0,5.72,5.72A5.722,5.722,0,0,0,76.5,325.919Zm0,13.035a5.72,5.72,0,1,0,5.72,5.72A5.722,5.722,0,0,0,76.5,338.954Zm0,13.036a5.72,5.72,0,1,0,5.72,5.72A5.722,5.722,0,0,0,76.5,351.99Zm12.929-39.106a5.72,5.72,0,1,0,5.72,5.72A5.72,5.72,0,0,0,89.433,312.884Zm0,13.035a5.72,5.72,0,1,0,5.72,5.72A5.721,5.721,0,0,0,89.433,325.919Zm0,13.035a5.72,5.72,0,1,0,5.72,5.72A5.721,5.721,0,0,0,89.433,338.954Zm0,13.036a5.72,5.72,0,1,0,5.72,5.72A5.721,5.721,0,0,0,89.433,351.99Zm12.933-39.106a5.72,5.72,0,1,0,5.72,5.72A5.721,5.721,0,0,0,102.366,312.884Zm0,13.035a5.72,5.72,0,1,0,5.72,5.72A5.722,5.722,0,0,0,102.366,325.919Zm0,13.035a5.72,5.72,0,1,0,5.72,5.72A5.722,5.722,0,0,0,102.366,338.954Zm0,13.036a5.72,5.72,0,1,0,5.72,5.72A5.722,5.722,0,0,0,102.366,351.99Zm0,13.033a5.72,5.72,0,1,0,5.72,5.72A5.722,5.722,0,0,0,102.366,365.023Zm0,13.037a5.72,5.72,0,1,0,5.72,5.72A5.722,5.722,0,0,0,102.366,378.06ZM115.3,312.884a5.72,5.72,0,1,0,5.72,5.72A5.72,5.72,0,0,0,115.3,312.884Zm0,13.035a5.72,5.72,0,1,0,5.72,5.72A5.721,5.721,0,0,0,115.3,325.919Zm0,13.035a5.72,5.72,0,1,0,5.72,5.72A5.721,5.721,0,0,0,115.3,338.954Zm0,13.036a5.72,5.72,0,1,0,5.72,5.72A5.721,5.721,0,0,0,115.3,351.99Zm0,13.033a5.72,5.72,0,1,0,5.72,5.72A5.721,5.721,0,0,0,115.3,365.023Zm0,13.037a5.72,5.72,0,1,0,5.72,5.72A5.721,5.721,0,0,0,115.3,378.06Zm0,13.035a5.72,5.72,0,1,0,5.72,5.72A5.72,5.72,0,0,0,115.3,391.095Zm12.931-91.246a5.72,5.72,0,1,0,5.72,5.72A5.721,5.721,0,0,0,128.226,299.849Zm0,13.035a5.72,5.72,0,1,0,5.72,5.72A5.72,5.72,0,0,0,128.226,312.884Zm0,13.035a5.72,5.72,0,1,0,5.72,5.72A5.721,5.721,0,0,0,128.226,325.919Zm0,13.035a5.72,5.72,0,1,0,5.72,5.72A5.721,5.721,0,0,0,128.226,338.954Zm0,13.036a5.72,5.72,0,1,0,5.72,5.72A5.721,5.721,0,0,0,128.226,351.99Zm0,13.033a5.72,5.72,0,1,0,5.72,5.72A5.721,5.721,0,0,0,128.226,365.023Zm0,13.037a5.72,5.72,0,1,0,5.72,5.72A5.721,5.721,0,0,0,128.226,378.06Zm0,13.035a5.72,5.72,0,1,0,5.72,5.72A5.721,5.721,0,0,0,128.226,391.095Zm0,13.035a5.72,5.72,0,1,0,5.72,5.72A5.721,5.721,0,0,0,128.226,404.13Zm0,13.035a5.72,5.72,0,1,0,5.72,5.72A5.721,5.721,0,0,0,128.226,417.165Zm0,13.036a5.72,5.72,0,1,0,5.72,5.72A5.721,5.721,0,0,0,128.226,430.2Zm12.931-143.389a5.72,5.72,0,1,0,5.72,5.72A5.721,5.721,0,0,0,141.157,286.812Zm0,13.037a5.72,5.72,0,1,0,5.72,5.72A5.721,5.721,0,0,0,141.157,299.849Zm0,13.035a5.72,5.72,0,1,0,5.72,5.72A5.72,5.72,0,0,0,141.157,312.884Zm0,13.035a5.72,5.72,0,1,0,5.72,5.72A5.721,5.721,0,0,0,141.157,325.919Zm0,13.035a5.72,5.72,0,1,0,5.72,5.72A5.721,5.721,0,0,0,141.157,338.954Zm0,13.036a5.72,5.72,0,1,0,5.72,5.72A5.721,5.721,0,0,0,141.157,351.99Zm0,13.033a5.72,5.72,0,1,0,5.72,5.72A5.721,5.721,0,0,0,141.157,365.023Zm0,13.037a5.72,5.72,0,1,0,5.72,5.72A5.721,5.721,0,0,0,141.157,378.06Zm0,13.035a5.72,5.72,0,1,0,5.72,5.72A5.721,5.721,0,0,0,141.157,391.095Zm0,13.035a5.72,5.72,0,1,0,5.72,5.72A5.721,5.721,0,0,0,141.157,404.13Zm0,13.035a5.72,5.72,0,1,0,5.72,5.72A5.721,5.721,0,0,0,141.157,417.165Zm0,13.036a5.72,5.72,0,1,0,5.72,5.72A5.721,5.721,0,0,0,141.157,430.2Zm0,13.035a5.72,5.72,0,1,0,5.72,5.72A5.721,5.721,0,0,0,141.157,443.236Zm12.931-169.459a5.72,5.72,0,1,0,5.72,5.72A5.721,5.721,0,0,0,154.088,273.777Zm0,13.035a5.72,5.72,0,1,0,5.72,5.72A5.721,5.721,0,0,0,154.088,286.812Zm0,13.037a5.72,5.72,0,1,0,5.72,5.72A5.721,5.721,0,0,0,154.088,299.849Zm0,13.035a5.72,5.72,0,1,0,5.72,5.72A5.72,5.72,0,0,0,154.088,312.884Zm0,13.035a5.72,5.72,0,1,0,5.72,5.72A5.721,5.721,0,0,0,154.088,325.919Zm0,13.035a5.72,5.72,0,1,0,5.72,5.72A5.721,5.721,0,0,0,154.088,338.954Zm0,13.036a5.72,5.72,0,1,0,5.72,5.72A5.721,5.721,0,0,0,154.088,351.99Zm0,13.033a5.72,5.72,0,1,0,5.72,5.72A5.721,5.721,0,0,0,154.088,365.023Zm0,13.037a5.72,5.72,0,1,0,5.72,5.72A5.721,5.721,0,0,0,154.088,378.06Zm0,13.035a5.72,5.72,0,1,0,5.72,5.72A5.721,5.721,0,0,0,154.088,391.095Zm0,13.035a5.72,5.72,0,1,0,5.72,5.72A5.721,5.721,0,0,0,154.088,404.13Zm0,13.035a5.72,5.72,0,1,0,5.72,5.72A5.721,5.721,0,0,0,154.088,417.165Zm0,13.036a5.72,5.72,0,1,0,5.72,5.72A5.721,5.721,0,0,0,154.088,430.2Zm0,13.035a5.72,5.72,0,1,0,5.72,5.72A5.721,5.721,0,0,0,154.088,443.236Zm0,13.035a5.72,5.72,0,1,0,5.72,5.72A5.72,5.72,0,0,0,154.088,456.271Zm0,13.035a5.72,5.72,0,1,0,5.72,5.72A5.721,5.721,0,0,0,154.088,469.306Zm12.931-195.529a5.72,5.72,0,1,0,5.72,5.72A5.721,5.721,0,0,0,167.019,273.777Zm0,26.071a5.72,5.72,0,1,0,5.72,5.72A5.721,5.721,0,0,0,167.019,299.849Zm0,13.035a5.72,5.72,0,1,0,5.72,5.72A5.72,5.72,0,0,0,167.019,312.884Zm0,13.035a5.72,5.72,0,1,0,5.72,5.72A5.721,5.721,0,0,0,167.019,325.919Zm0,13.035a5.72,5.72,0,1,0,5.72,5.72A5.721,5.721,0,0,0,167.019,338.954Zm0,13.036a5.72,5.72,0,1,0,5.72,5.72A5.721,5.721,0,0,0,167.019,351.99Zm0,13.033a5.72,5.72,0,1,0,5.72,5.72A5.721,5.721,0,0,0,167.019,365.023Zm0,13.037a5.72,5.72,0,1,0,5.72,5.72A5.721,5.721,0,0,0,167.019,378.06Zm0,13.035a5.72,5.72,0,1,0,5.72,5.72A5.721,5.721,0,0,0,167.019,391.095Zm0,13.035a5.72,5.72,0,1,0,5.72,5.72A5.721,5.721,0,0,0,167.019,404.13Zm0,13.035a5.72,5.72,0,1,0,5.72,5.72A5.721,5.721,0,0,0,167.019,417.165Zm0,13.036a5.72,5.72,0,1,0,5.72,5.72A5.721,5.721,0,0,0,167.019,430.2Zm0,13.035a5.72,5.72,0,1,0,5.72,5.72A5.721,5.721,0,0,0,167.019,443.236Zm0,13.035a5.72,5.72,0,1,0,5.72,5.72A5.72,5.72,0,0,0,167.019,456.271Zm0,13.035a5.72,5.72,0,1,0,5.72,5.72A5.721,5.721,0,0,0,167.019,469.306ZM179.95,273.777a5.72,5.72,0,1,0,5.72,5.72A5.722,5.722,0,0,0,179.95,273.777Zm0,39.106a5.72,5.72,0,1,0,5.72,5.72A5.721,5.721,0,0,0,179.95,312.884Zm0,13.035a5.72,5.72,0,1,0,5.72,5.72A5.722,5.722,0,0,0,179.95,325.919Zm0,13.035a5.72,5.72,0,1,0,5.72,5.72A5.722,5.722,0,0,0,179.95,338.954Zm0,13.036a5.72,5.72,0,1,0,5.72,5.72A5.722,5.722,0,0,0,179.95,351.99Zm0,13.033a5.72,5.72,0,1,0,5.72,5.72A5.722,5.722,0,0,0,179.95,365.023Zm0,13.037a5.72,5.72,0,1,0,5.72,5.72A5.722,5.722,0,0,0,179.95,378.06Zm0,13.035a5.72,5.72,0,1,0,5.72,5.72A5.722,5.722,0,0,0,179.95,391.095Zm0,13.035a5.72,5.72,0,1,0,5.72,5.72A5.722,5.722,0,0,0,179.95,404.13Zm0,13.035a5.72,5.72,0,1,0,5.72,5.72A5.722,5.722,0,0,0,179.95,417.165Zm0,13.036a5.72,5.72,0,1,0,5.72,5.72A5.722,5.722,0,0,0,179.95,430.2Zm0,13.035a5.72,5.72,0,1,0,5.72,5.72A5.722,5.722,0,0,0,179.95,443.236Zm0,13.035a5.72,5.72,0,1,0,5.72,5.72A5.721,5.721,0,0,0,179.95,456.271Zm0,13.035a5.72,5.72,0,1,0,5.72,5.72A5.722,5.722,0,0,0,179.95,469.306Zm0,13.035a5.72,5.72,0,1,0,5.72,5.72A5.722,5.722,0,0,0,179.95,482.341Zm0,13.036a5.72,5.72,0,1,0,5.72,5.72A5.722,5.722,0,0,0,179.95,495.377Zm12.931-208.565a5.72,5.72,0,1,0,5.719,5.72A5.721,5.721,0,0,0,192.881,286.812Zm0,13.037a5.72,5.72,0,1,0,5.719,5.72A5.721,5.721,0,0,0,192.881,299.849Zm0,13.035a5.72,5.72,0,1,0,5.719,5.72A5.72,5.72,0,0,0,192.881,312.884Zm0,13.035a5.72,5.72,0,1,0,5.719,5.72A5.721,5.721,0,0,0,192.881,325.919Zm0,13.035a5.72,5.72,0,1,0,5.719,5.72A5.721,5.721,0,0,0,192.881,338.954Zm0,13.036a5.72,5.72,0,1,0,5.719,5.72A5.721,5.721,0,0,0,192.881,351.99Zm0,13.033a5.72,5.72,0,1,0,5.719,5.72A5.721,5.721,0,0,0,192.881,365.023Zm0,13.037a5.72,5.72,0,1,0,5.719,5.72A5.721,5.721,0,0,0,192.881,378.06Zm0,13.035a5.72,5.72,0,1,0,5.719,5.72A5.721,5.721,0,0,0,192.881,391.095Zm0,13.035a5.72,5.72,0,1,0,5.719,5.72A5.721,5.721,0,0,0,192.881,404.13Zm0,13.035a5.72,5.72,0,1,0,5.719,5.72A5.721,5.721,0,0,0,192.881,417.165Zm0,13.036a5.72,5.72,0,1,0,5.719,5.72A5.721,5.721,0,0,0,192.881,430.2Zm0,13.035a5.72,5.72,0,1,0,5.719,5.72A5.721,5.721,0,0,0,192.881,443.236Zm0,13.035a5.72,5.72,0,1,0,5.719,5.72A5.72,5.72,0,0,0,192.881,456.271Zm0,13.035a5.72,5.72,0,1,0,5.719,5.72A5.721,5.721,0,0,0,192.881,469.306Zm0,13.035a5.72,5.72,0,1,0,5.719,5.72A5.721,5.721,0,0,0,192.881,482.341Zm0,13.036a5.72,5.72,0,1,0,5.719,5.72A5.721,5.721,0,0,0,192.881,495.377Zm12.931-234.635a5.72,5.72,0,1,0,5.72,5.72A5.72,5.72,0,0,0,205.812,260.742Zm0,26.07a5.72,5.72,0,1,0,5.72,5.72A5.721,5.721,0,0,0,205.812,286.812Zm0,26.071a5.72,5.72,0,1,0,5.72,5.72A5.72,5.72,0,0,0,205.812,312.884Zm0,13.035a5.72,5.72,0,1,0,5.72,5.72A5.721,5.721,0,0,0,205.812,325.919Zm0,13.035a5.72,5.72,0,1,0,5.72,5.72A5.721,5.721,0,0,0,205.812,338.954Zm0,13.036a5.72,5.72,0,1,0,5.72,5.72A5.721,5.721,0,0,0,205.812,351.99Zm0,13.033a5.72,5.72,0,1,0,5.72,5.72A5.721,5.721,0,0,0,205.812,365.023Zm0,13.037a5.72,5.72,0,1,0,5.72,5.72A5.721,5.721,0,0,0,205.812,378.06Zm0,13.035a5.72,5.72,0,1,0,5.72,5.72A5.721,5.721,0,0,0,205.812,391.095Zm0,13.035a5.72,5.72,0,1,0,5.72,5.72A5.721,5.721,0,0,0,205.812,404.13Zm0,13.035a5.72,5.72,0,1,0,5.72,5.72A5.721,5.721,0,0,0,205.812,417.165Zm0,13.036a5.72,5.72,0,1,0,5.72,5.72A5.721,5.721,0,0,0,205.812,430.2Zm0,13.035a5.72,5.72,0,1,0,5.72,5.72A5.721,5.721,0,0,0,205.812,443.236Zm0,13.035a5.72,5.72,0,1,0,5.72,5.72A5.72,5.72,0,0,0,205.812,456.271Zm0,39.106a5.72,5.72,0,1,0,5.72,5.72A5.721,5.721,0,0,0,205.812,495.377Zm12.931-234.635a5.72,5.72,0,1,0,5.72,5.72A5.72,5.72,0,0,0,218.743,260.742Zm0,13.035a5.72,5.72,0,1,0,5.72,5.72A5.721,5.721,0,0,0,218.743,273.777Zm0,13.035a5.72,5.72,0,1,0,5.72,5.72A5.721,5.721,0,0,0,218.743,286.812Zm0,13.037a5.72,5.72,0,1,0,5.72,5.72A5.721,5.721,0,0,0,218.743,299.849Zm0,13.035a5.72,5.72,0,1,0,5.72,5.72A5.72,5.72,0,0,0,218.743,312.884Zm0,13.035a5.72,5.72,0,1,0,5.72,5.72A5.721,5.721,0,0,0,218.743,325.919Zm0,13.035a5.72,5.72,0,1,0,5.72,5.72A5.721,5.721,0,0,0,218.743,338.954Zm0,39.106a5.72,5.72,0,1,0,5.72,5.72A5.721,5.721,0,0,0,218.743,378.06Zm0,13.035a5.72,5.72,0,1,0,5.72,5.72A5.721,5.721,0,0,0,218.743,391.095Zm0,13.035a5.72,5.72,0,1,0,5.72,5.72A5.721,5.721,0,0,0,218.743,404.13Zm0,13.035a5.72,5.72,0,1,0,5.72,5.72A5.721,5.721,0,0,0,218.743,417.165Zm0,13.036a5.72,5.72,0,1,0,5.72,5.72A5.721,5.721,0,0,0,218.743,430.2Zm0,13.035a5.72,5.72,0,1,0,5.72,5.72A5.721,5.721,0,0,0,218.743,443.236Zm0,13.035a5.72,5.72,0,1,0,5.72,5.72A5.72,5.72,0,0,0,218.743,456.271Zm0,26.07a5.72,5.72,0,1,0,5.72,5.72A5.721,5.721,0,0,0,218.743,482.341Zm0,13.036a5.72,5.72,0,1,0,5.72,5.72A5.721,5.721,0,0,0,218.743,495.377Zm0,13.035a5.719,5.719,0,1,0,5.72,5.72A5.72,5.72,0,0,0,218.743,508.412Zm0,13.036a5.719,5.719,0,1,0,5.72,5.72A5.721,5.721,0,0,0,218.743,521.449Zm12.931-273.741a5.72,5.72,0,1,0,5.72,5.72A5.721,5.721,0,0,0,231.674,247.707Zm0,13.035a5.72,5.72,0,1,0,5.72,5.72A5.72,5.72,0,0,0,231.674,260.742Zm0,13.035a5.72,5.72,0,1,0,5.72,5.72A5.721,5.721,0,0,0,231.674,273.777Zm0,13.035a5.72,5.72,0,1,0,5.72,5.72A5.721,5.721,0,0,0,231.674,286.812Zm0,13.037a5.72,5.72,0,1,0,5.72,5.72A5.721,5.721,0,0,0,231.674,299.849Zm0,13.035a5.72,5.72,0,1,0,5.72,5.72A5.72,5.72,0,0,0,231.674,312.884Zm0,13.035a5.72,5.72,0,1,0,5.72,5.72A5.721,5.721,0,0,0,231.674,325.919Zm0,13.035a5.72,5.72,0,1,0,5.72,5.72A5.721,5.721,0,0,0,231.674,338.954Zm0,39.106a5.72,5.72,0,1,0,5.72,5.72A5.721,5.721,0,0,0,231.674,378.06Zm0,13.035a5.72,5.72,0,1,0,5.72,5.72A5.721,5.721,0,0,0,231.674,391.095Zm0,13.035a5.72,5.72,0,1,0,5.72,5.72A5.721,5.721,0,0,0,231.674,404.13Zm0,13.035a5.72,5.72,0,1,0,5.72,5.72A5.721,5.721,0,0,0,231.674,417.165Zm0,13.036a5.72,5.72,0,1,0,5.72,5.72A5.721,5.721,0,0,0,231.674,430.2Zm0,13.035a5.72,5.72,0,1,0,5.72,5.72A5.721,5.721,0,0,0,231.674,443.236Zm0,13.035a5.72,5.72,0,1,0,5.72,5.72A5.72,5.72,0,0,0,231.674,456.271Zm0,13.035a5.72,5.72,0,1,0,5.72,5.72A5.721,5.721,0,0,0,231.674,469.306Zm0,13.035a5.72,5.72,0,1,0,5.72,5.72A5.721,5.721,0,0,0,231.674,482.341Zm0,26.071a5.719,5.719,0,1,0,5.72,5.72A5.721,5.721,0,0,0,231.674,508.412Zm0,13.036a5.719,5.719,0,1,0,5.72,5.72A5.721,5.721,0,0,0,231.674,521.449Zm0,13.035a5.72,5.72,0,1,0,5.72,5.719A5.719,5.719,0,0,0,231.674,534.484Zm0,13.033a5.72,5.72,0,1,0,5.72,5.72A5.721,5.721,0,0,0,231.674,547.517Zm0,13.036a5.72,5.72,0,1,0,5.72,5.72A5.721,5.721,0,0,0,231.674,560.553Zm12.931-312.846a5.72,5.72,0,1,0,5.72,5.72A5.722,5.722,0,0,0,244.605,247.707Zm0,13.035a5.72,5.72,0,1,0,5.72,5.72A5.721,5.721,0,0,0,244.605,260.742Zm0,39.106a5.72,5.72,0,1,0,5.72,5.72A5.722,5.722,0,0,0,244.605,299.849Zm0,13.035a5.72,5.72,0,1,0,5.72,5.72A5.721,5.721,0,0,0,244.605,312.884Zm0,26.07a5.72,5.72,0,1,0,5.72,5.72A5.722,5.722,0,0,0,244.605,338.954Zm0,13.036a5.72,5.72,0,1,0,5.72,5.72A5.722,5.722,0,0,0,244.605,351.99Zm0,13.033a5.72,5.72,0,1,0,5.72,5.72A5.722,5.722,0,0,0,244.605,365.023Zm0,13.037a5.72,5.72,0,1,0,5.72,5.72A5.722,5.722,0,0,0,244.605,378.06Zm0,13.035a5.72,5.72,0,1,0,5.72,5.72A5.722,5.722,0,0,0,244.605,391.095Zm0,13.035a5.72,5.72,0,1,0,5.72,5.72A5.722,5.722,0,0,0,244.605,404.13Zm0,13.035a5.72,5.72,0,1,0,5.72,5.72A5.722,5.722,0,0,0,244.605,417.165Zm0,13.036a5.72,5.72,0,1,0,5.72,5.72A5.722,5.722,0,0,0,244.605,430.2Zm0,13.035a5.72,5.72,0,1,0,5.72,5.72A5.722,5.722,0,0,0,244.605,443.236Zm0,52.141a5.72,5.72,0,1,0,5.72,5.72A5.722,5.722,0,0,0,244.605,495.377Zm0,26.071a5.719,5.719,0,1,0,5.72,5.72A5.722,5.722,0,0,0,244.605,521.449Zm0,13.035a5.72,5.72,0,1,0,5.72,5.719A5.721,5.721,0,0,0,244.605,534.484Zm0,13.033a5.72,5.72,0,1,0,5.72,5.72A5.722,5.722,0,0,0,244.605,547.517Zm0,13.036a5.72,5.72,0,1,0,5.72,5.72A5.722,5.722,0,0,0,244.605,560.553Zm0,13.035a5.72,5.72,0,1,0,5.72,5.72A5.722,5.722,0,0,0,244.605,573.589Zm0,13.035a5.72,5.72,0,1,0,5.72,5.72A5.722,5.722,0,0,0,244.605,586.623Zm12.931-338.916a5.72,5.72,0,1,0,5.72,5.72A5.721,5.721,0,0,0,257.536,247.707Zm0,13.035a5.72,5.72,0,1,0,5.72,5.72A5.72,5.72,0,0,0,257.536,260.742Zm0,52.141a5.72,5.72,0,1,0,5.72,5.72A5.72,5.72,0,0,0,257.536,312.884Zm0,13.035a5.72,5.72,0,1,0,5.72,5.72A5.721,5.721,0,0,0,257.536,325.919Zm0,13.035a5.72,5.72,0,1,0,5.72,5.72A5.721,5.721,0,0,0,257.536,338.954Zm0,13.036a5.72,5.72,0,1,0,5.72,5.72A5.721,5.721,0,0,0,257.536,351.99Zm0,13.033a5.72,5.72,0,1,0,5.72,5.72A5.721,5.721,0,0,0,257.536,365.023Zm0,13.037a5.72,5.72,0,1,0,5.72,5.72A5.721,5.721,0,0,0,257.536,378.06Zm0,13.035a5.72,5.72,0,1,0,5.72,5.72A5.721,5.721,0,0,0,257.536,391.095Zm0,13.035a5.72,5.72,0,1,0,5.72,5.72A5.721,5.721,0,0,0,257.536,404.13Zm0,13.035a5.72,5.72,0,1,0,5.72,5.72A5.721,5.721,0,0,0,257.536,417.165Zm0,13.036a5.72,5.72,0,1,0,5.72,5.72A5.721,5.721,0,0,0,257.536,430.2Zm0,65.176a5.72,5.72,0,1,0,5.72,5.72A5.721,5.721,0,0,0,257.536,495.377Zm0,26.071a5.719,5.719,0,1,0,5.72,5.72A5.721,5.721,0,0,0,257.536,521.449Zm0,13.035a5.72,5.72,0,1,0,5.72,5.719A5.719,5.719,0,0,0,257.536,534.484Zm0,13.033a5.72,5.72,0,1,0,5.72,5.72A5.721,5.721,0,0,0,257.536,547.517Zm0,13.036a5.72,5.72,0,1,0,5.72,5.72A5.721,5.721,0,0,0,257.536,560.553Zm0,13.035a5.72,5.72,0,1,0,5.72,5.72A5.721,5.721,0,0,0,257.536,573.589Zm0,13.035a5.72,5.72,0,1,0,5.72,5.72A5.721,5.721,0,0,0,257.536,586.623Zm0,13.036a5.72,5.72,0,1,0,5.72,5.72A5.721,5.721,0,0,0,257.536,599.66Zm0,13.035a5.72,5.72,0,1,0,5.72,5.72A5.721,5.721,0,0,0,257.536,612.695Zm0,13.035a5.719,5.719,0,1,0,5.72,5.72A5.721,5.721,0,0,0,257.536,625.73Zm0,13.036a5.72,5.72,0,1,0,5.72,5.719A5.719,5.719,0,0,0,257.536,638.766Zm0,13.034a5.72,5.72,0,1,0,5.72,5.72A5.721,5.721,0,0,0,257.536,651.8Zm0,13.035a5.72,5.72,0,1,0,5.72,5.72A5.721,5.721,0,0,0,257.536,664.835Zm0,13.036a5.72,5.72,0,1,0,5.72,5.72A5.721,5.721,0,0,0,257.536,677.871Zm0,13.035a5.72,5.72,0,1,0,5.72,5.72A5.721,5.721,0,0,0,257.536,690.906Zm0,13.035a5.72,5.72,0,1,0,5.72,5.72A5.721,5.721,0,0,0,257.536,703.941Zm12.931-456.233a5.72,5.72,0,1,0,5.72,5.72A5.721,5.721,0,0,0,270.467,247.707Zm0,26.07a5.72,5.72,0,1,0,5.72,5.72A5.721,5.721,0,0,0,270.467,273.777Zm0,13.035a5.72,5.72,0,1,0,5.72,5.72A5.721,5.721,0,0,0,270.467,286.812Zm0,39.106a5.72,5.72,0,1,0,5.72,5.72A5.721,5.721,0,0,0,270.467,325.919Zm0,13.035a5.72,5.72,0,1,0,5.72,5.72A5.721,5.721,0,0,0,270.467,338.954Zm0,13.036a5.72,5.72,0,1,0,5.72,5.72A5.721,5.721,0,0,0,270.467,351.99Zm0,13.033a5.72,5.72,0,1,0,5.72,5.72A5.721,5.721,0,0,0,270.467,365.023Zm0,13.037a5.72,5.72,0,1,0,5.72,5.72A5.721,5.721,0,0,0,270.467,378.06Zm0,13.035a5.72,5.72,0,1,0,5.72,5.72A5.721,5.721,0,0,0,270.467,391.095Zm0,13.035a5.72,5.72,0,1,0,5.72,5.72A5.721,5.721,0,0,0,270.467,404.13Zm0,13.035a5.72,5.72,0,1,0,5.72,5.72A5.721,5.721,0,0,0,270.467,417.165Zm0,104.284a5.719,5.719,0,1,0,5.72,5.72A5.721,5.721,0,0,0,270.467,521.449Zm0,13.035a5.72,5.72,0,1,0,5.72,5.719A5.719,5.719,0,0,0,270.467,534.484Zm0,13.033a5.72,5.72,0,1,0,5.72,5.72A5.721,5.721,0,0,0,270.467,547.517Zm0,13.036a5.72,5.72,0,1,0,5.72,5.72A5.721,5.721,0,0,0,270.467,560.553Zm0,13.035a5.72,5.72,0,1,0,5.72,5.72A5.721,5.721,0,0,0,270.467,573.589Zm0,13.035a5.72,5.72,0,1,0,5.72,5.72A5.721,5.721,0,0,0,270.467,586.623Zm0,13.036a5.72,5.72,0,1,0,5.72,5.72A5.721,5.721,0,0,0,270.467,599.66Zm0,13.035a5.72,5.72,0,1,0,5.72,5.72A5.721,5.721,0,0,0,270.467,612.695Zm0,13.035a5.719,5.719,0,1,0,5.72,5.72A5.721,5.721,0,0,0,270.467,625.73Zm0,13.036a5.72,5.72,0,1,0,5.72,5.719A5.719,5.719,0,0,0,270.467,638.766Zm0,13.034a5.72,5.72,0,1,0,5.72,5.72A5.721,5.721,0,0,0,270.467,651.8Zm0,13.035a5.72,5.72,0,1,0,5.72,5.72A5.721,5.721,0,0,0,270.467,664.835Zm0,13.036a5.72,5.72,0,1,0,5.72,5.72A5.721,5.721,0,0,0,270.467,677.871Zm0,13.035a5.72,5.72,0,1,0,5.72,5.72A5.721,5.721,0,0,0,270.467,690.906Zm0,13.035a5.72,5.72,0,1,0,5.72,5.72A5.721,5.721,0,0,0,270.467,703.941Zm0,13.036a5.72,5.72,0,1,0,5.72,5.72A5.721,5.721,0,0,0,270.467,716.977ZM283.4,260.742a5.72,5.72,0,1,0,5.72,5.72A5.72,5.72,0,0,0,283.4,260.742Zm0,13.035a5.72,5.72,0,1,0,5.72,5.72A5.721,5.721,0,0,0,283.4,273.777Zm0,13.035a5.72,5.72,0,1,0,5.72,5.72A5.721,5.721,0,0,0,283.4,286.812Zm0,91.248a5.72,5.72,0,1,0,5.72,5.72A5.721,5.721,0,0,0,283.4,378.06Zm0,13.035a5.72,5.72,0,1,0,5.72,5.72A5.721,5.721,0,0,0,283.4,391.095Zm0,13.035a5.72,5.72,0,1,0,5.72,5.72A5.721,5.721,0,0,0,283.4,404.13Zm0,13.035a5.72,5.72,0,1,0,5.72,5.72A5.721,5.721,0,0,0,283.4,417.165Zm0,104.284a5.719,5.719,0,1,0,5.72,5.72A5.721,5.721,0,0,0,283.4,521.449Zm0,13.035a5.72,5.72,0,1,0,5.72,5.719A5.719,5.719,0,0,0,283.4,534.484Zm0,13.033a5.72,5.72,0,1,0,5.72,5.72A5.721,5.721,0,0,0,283.4,547.517Zm0,13.036a5.72,5.72,0,1,0,5.72,5.72A5.721,5.721,0,0,0,283.4,560.553Zm0,13.035a5.72,5.72,0,1,0,5.72,5.72A5.721,5.721,0,0,0,283.4,573.589Zm0,13.035a5.72,5.72,0,1,0,5.72,5.72A5.721,5.721,0,0,0,283.4,586.623Zm0,13.036a5.72,5.72,0,1,0,5.72,5.72A5.721,5.721,0,0,0,283.4,599.66Zm0,13.035a5.72,5.72,0,1,0,5.72,5.72A5.721,5.721,0,0,0,283.4,612.695Zm0,13.035a5.719,5.719,0,1,0,5.72,5.72A5.721,5.721,0,0,0,283.4,625.73Zm0,13.036a5.72,5.72,0,1,0,5.72,5.719A5.719,5.719,0,0,0,283.4,638.766Zm0,13.034a5.72,5.72,0,1,0,5.72,5.72A5.721,5.721,0,0,0,283.4,651.8Zm0,52.141a5.72,5.72,0,1,0,5.72,5.72A5.721,5.721,0,0,0,283.4,703.941Zm12.931-456.233a5.72,5.72,0,1,0,5.719,5.72A5.722,5.722,0,0,0,296.327,247.707Zm0,13.035a5.72,5.72,0,1,0,5.719,5.72A5.721,5.721,0,0,0,296.327,260.742Zm0,13.035a5.72,5.72,0,1,0,5.719,5.72A5.722,5.722,0,0,0,296.327,273.777Zm0,13.035a5.72,5.72,0,1,0,5.719,5.72A5.722,5.722,0,0,0,296.327,286.812Zm0,13.037a5.72,5.72,0,1,0,5.719,5.72A5.722,5.722,0,0,0,296.327,299.849Zm0,13.035a5.72,5.72,0,1,0,5.719,5.72A5.721,5.721,0,0,0,296.327,312.884Zm0,78.211a5.72,5.72,0,1,0,5.719,5.72A5.722,5.722,0,0,0,296.327,391.095Zm0,13.035a5.72,5.72,0,1,0,5.719,5.72A5.722,5.722,0,0,0,296.327,404.13Zm0,117.319a5.719,5.719,0,1,0,5.719,5.72A5.722,5.722,0,0,0,296.327,521.449Zm0,13.035a5.72,5.72,0,1,0,5.719,5.719A5.721,5.721,0,0,0,296.327,534.484Zm0,13.033a5.72,5.72,0,1,0,5.719,5.72A5.722,5.722,0,0,0,296.327,547.517Zm0,13.036a5.72,5.72,0,1,0,5.719,5.72A5.722,5.722,0,0,0,296.327,560.553Zm0,13.035a5.72,5.72,0,1,0,5.719,5.72A5.722,5.722,0,0,0,296.327,573.589Zm0,13.035a5.72,5.72,0,1,0,5.719,5.72A5.722,5.722,0,0,0,296.327,586.623Zm0,13.036a5.72,5.72,0,1,0,5.719,5.72A5.722,5.722,0,0,0,296.327,599.66Zm0,13.035a5.72,5.72,0,1,0,5.719,5.72A5.722,5.722,0,0,0,296.327,612.695Zm0,13.035a5.719,5.719,0,1,0,5.719,5.72A5.722,5.722,0,0,0,296.327,625.73Zm0,13.036a5.72,5.72,0,1,0,5.719,5.719A5.721,5.721,0,0,0,296.327,638.766Zm12.931-391.059a5.72,5.72,0,1,0,5.719,5.72A5.721,5.721,0,0,0,309.258,247.707Zm0,13.035a5.72,5.72,0,1,0,5.719,5.72A5.72,5.72,0,0,0,309.258,260.742Zm0,13.035a5.72,5.72,0,1,0,5.719,5.72A5.721,5.721,0,0,0,309.258,273.777Zm0,13.035a5.72,5.72,0,1,0,5.719,5.72A5.721,5.721,0,0,0,309.258,286.812Zm0,13.037a5.72,5.72,0,1,0,5.719,5.72A5.721,5.721,0,0,0,309.258,299.849Zm0,13.035a5.72,5.72,0,1,0,5.719,5.72A5.72,5.72,0,0,0,309.258,312.884Zm0,13.035a5.72,5.72,0,1,0,5.719,5.72A5.721,5.721,0,0,0,309.258,325.919Zm0,13.035a5.72,5.72,0,1,0,5.719,5.72A5.721,5.721,0,0,0,309.258,338.954Zm0,13.036a5.72,5.72,0,1,0,5.719,5.72A5.721,5.721,0,0,0,309.258,351.99Zm0,182.494a5.72,5.72,0,1,0,5.719,5.719A5.72,5.72,0,0,0,309.258,534.484Zm0,13.033a5.72,5.72,0,1,0,5.719,5.72A5.721,5.721,0,0,0,309.258,547.517Zm0,13.036a5.72,5.72,0,1,0,5.719,5.72A5.721,5.721,0,0,0,309.258,560.553Zm0,13.035a5.72,5.72,0,1,0,5.719,5.72A5.721,5.721,0,0,0,309.258,573.589Zm0,13.035a5.72,5.72,0,1,0,5.719,5.72A5.721,5.721,0,0,0,309.258,586.623Zm0,13.036a5.72,5.72,0,1,0,5.719,5.72A5.721,5.721,0,0,0,309.258,599.66Zm0,13.035a5.72,5.72,0,1,0,5.719,5.72A5.721,5.721,0,0,0,309.258,612.695Zm0,13.035a5.719,5.719,0,1,0,5.719,5.72A5.721,5.721,0,0,0,309.258,625.73Zm12.931-378.022a5.72,5.72,0,1,0,5.72,5.72A5.721,5.721,0,0,0,322.189,247.707Zm0,13.035a5.72,5.72,0,1,0,5.72,5.72A5.72,5.72,0,0,0,322.189,260.742Zm0,13.035a5.72,5.72,0,1,0,5.72,5.72A5.721,5.721,0,0,0,322.189,273.777Zm0,13.035a5.72,5.72,0,1,0,5.72,5.72A5.721,5.721,0,0,0,322.189,286.812Zm0,13.037a5.72,5.72,0,1,0,5.72,5.72A5.72,5.72,0,0,0,322.189,299.849Zm0,13.035a5.72,5.72,0,1,0,5.72,5.72A5.72,5.72,0,0,0,322.189,312.884Zm0,13.035a5.72,5.72,0,1,0,5.72,5.72A5.721,5.721,0,0,0,322.189,325.919Zm0,13.035a5.72,5.72,0,1,0,5.72,5.72A5.721,5.721,0,0,0,322.189,338.954Zm0,13.036a5.72,5.72,0,1,0,5.72,5.72A5.72,5.72,0,0,0,322.189,351.99Zm0,13.033a5.72,5.72,0,1,0,5.72,5.72A5.721,5.721,0,0,0,322.189,365.023Zm0,182.494a5.72,5.72,0,1,0,5.72,5.72A5.721,5.721,0,0,0,322.189,547.517Zm0,13.036a5.72,5.72,0,1,0,5.72,5.72A5.721,5.721,0,0,0,322.189,560.553Zm0,13.035a5.72,5.72,0,1,0,5.72,5.72A5.72,5.72,0,0,0,322.189,573.589Zm0,13.035a5.72,5.72,0,1,0,5.72,5.72A5.72,5.72,0,0,0,322.189,586.623Zm0,13.036a5.72,5.72,0,1,0,5.72,5.72A5.721,5.721,0,0,0,322.189,599.66Zm0,13.035a5.72,5.72,0,1,0,5.72,5.72A5.721,5.721,0,0,0,322.189,612.695ZM335.12,234.671a5.72,5.72,0,1,0,5.72,5.72A5.721,5.721,0,0,0,335.12,234.671Zm0,13.036a5.72,5.72,0,1,0,5.72,5.72A5.721,5.721,0,0,0,335.12,247.707Zm0,13.035a5.72,5.72,0,1,0,5.72,5.72A5.72,5.72,0,0,0,335.12,260.742Zm0,13.035a5.72,5.72,0,1,0,5.72,5.72A5.721,5.721,0,0,0,335.12,273.777Zm0,13.035a5.72,5.72,0,1,0,5.72,5.72A5.721,5.721,0,0,0,335.12,286.812Zm0,13.037a5.72,5.72,0,1,0,5.72,5.72A5.721,5.721,0,0,0,335.12,299.849Zm0,13.035a5.72,5.72,0,1,0,5.72,5.72A5.72,5.72,0,0,0,335.12,312.884Zm0,13.035a5.72,5.72,0,1,0,5.72,5.72A5.721,5.721,0,0,0,335.12,325.919Zm0,13.035a5.72,5.72,0,1,0,5.72,5.72A5.721,5.721,0,0,0,335.12,338.954Zm0,221.6a5.72,5.72,0,1,0,5.72,5.72A5.721,5.721,0,0,0,335.12,560.553Zm0,13.035a5.72,5.72,0,1,0,5.72,5.72A5.721,5.721,0,0,0,335.12,573.589Zm0,13.035a5.72,5.72,0,1,0,5.72,5.72A5.721,5.721,0,0,0,335.12,586.623Zm0,13.036a5.72,5.72,0,1,0,5.72,5.72A5.721,5.721,0,0,0,335.12,599.66ZM348.05,234.671a5.72,5.72,0,1,0,5.72,5.72A5.721,5.721,0,0,0,348.05,234.671Zm0,13.036a5.72,5.72,0,1,0,5.72,5.72A5.721,5.721,0,0,0,348.05,247.707Zm0,13.035a5.72,5.72,0,1,0,5.72,5.72A5.72,5.72,0,0,0,348.05,260.742Zm0,13.035a5.72,5.72,0,1,0,5.72,5.72A5.721,5.721,0,0,0,348.05,273.777Zm0,13.035a5.72,5.72,0,1,0,5.72,5.72A5.721,5.721,0,0,0,348.05,286.812Zm0,13.037a5.72,5.72,0,1,0,5.72,5.72A5.721,5.721,0,0,0,348.05,299.849Zm0,13.035a5.72,5.72,0,1,0,5.72,5.72A5.72,5.72,0,0,0,348.05,312.884Zm0,13.035a5.72,5.72,0,1,0,5.72,5.72A5.721,5.721,0,0,0,348.05,325.919Zm0,234.635a5.72,5.72,0,1,0,5.72,5.72A5.721,5.721,0,0,0,348.05,560.553Zm0,13.035a5.72,5.72,0,1,0,5.72,5.72A5.72,5.72,0,0,0,348.05,573.589Zm12.932-338.917a5.72,5.72,0,1,0,5.72,5.72A5.722,5.722,0,0,0,360.982,234.671Zm0,13.036a5.72,5.72,0,1,0,5.72,5.72A5.722,5.722,0,0,0,360.982,247.707Zm0,13.035a5.72,5.72,0,1,0,5.72,5.72A5.721,5.721,0,0,0,360.982,260.742Zm0,13.035a5.72,5.72,0,1,0,5.72,5.72A5.722,5.722,0,0,0,360.982,273.777Zm0,13.035a5.72,5.72,0,1,0,5.72,5.72A5.722,5.722,0,0,0,360.982,286.812Zm0,13.037a5.72,5.72,0,1,0,5.72,5.72A5.722,5.722,0,0,0,360.982,299.849Zm0,13.035a5.72,5.72,0,1,0,5.72,5.72A5.721,5.721,0,0,0,360.982,312.884Zm0,13.035a5.72,5.72,0,1,0,5.72,5.72A5.722,5.722,0,0,0,360.982,325.919Zm12.931-91.248a5.72,5.72,0,1,0,5.719,5.72A5.721,5.721,0,0,0,373.913,234.671Zm0,13.036a5.72,5.72,0,1,0,5.719,5.72A5.721,5.721,0,0,0,373.913,247.707Zm0,13.035a5.72,5.72,0,1,0,5.719,5.72A5.72,5.72,0,0,0,373.913,260.742Zm0,13.035a5.72,5.72,0,1,0,5.719,5.72A5.721,5.721,0,0,0,373.913,273.777Zm0,13.035a5.72,5.72,0,1,0,5.719,5.72A5.721,5.721,0,0,0,373.913,286.812Zm0,13.037a5.72,5.72,0,1,0,5.719,5.72A5.721,5.721,0,0,0,373.913,299.849Zm0,13.035a5.72,5.72,0,1,0,5.719,5.72A5.72,5.72,0,0,0,373.913,312.884Zm0,26.07a5.72,5.72,0,1,0,5.719,5.72A5.721,5.721,0,0,0,373.913,338.954Zm12.931-91.246a5.72,5.72,0,1,0,5.72,5.72A5.721,5.721,0,0,0,386.844,247.707Zm0,13.035a5.72,5.72,0,1,0,5.72,5.72A5.72,5.72,0,0,0,386.844,260.742Zm0,13.035a5.72,5.72,0,1,0,5.72,5.72A5.721,5.721,0,0,0,386.844,273.777Zm0,13.035a5.72,5.72,0,1,0,5.72,5.72A5.721,5.721,0,0,0,386.844,286.812Zm0,13.037a5.72,5.72,0,1,0,5.72,5.72A5.721,5.721,0,0,0,386.844,299.849Zm0,39.1a5.72,5.72,0,1,0,5.72,5.72A5.721,5.721,0,0,0,386.844,338.954Zm0,143.387a5.72,5.72,0,1,0,5.72,5.72A5.721,5.721,0,0,0,386.844,482.341Zm0,13.036a5.72,5.72,0,1,0,5.72,5.72A5.721,5.721,0,0,0,386.844,495.377Zm0,13.035a5.719,5.719,0,1,0,5.72,5.72A5.721,5.721,0,0,0,386.844,508.412Zm12.929-260.7a5.72,5.72,0,1,0,5.72,5.72A5.721,5.721,0,0,0,399.774,247.707Zm0,221.6a5.72,5.72,0,1,0,5.72,5.72A5.721,5.721,0,0,0,399.774,469.306Zm0,13.035a5.72,5.72,0,1,0,5.72,5.72A5.721,5.721,0,0,0,399.774,482.341Zm0,13.036a5.72,5.72,0,1,0,5.72,5.72A5.721,5.721,0,0,0,399.774,495.377Zm0,13.035a5.719,5.719,0,1,0,5.72,5.72A5.721,5.721,0,0,0,399.774,508.412Zm0,13.036a5.719,5.719,0,1,0,5.72,5.72A5.721,5.721,0,0,0,399.774,521.449ZM412.7,378.06a5.72,5.72,0,1,0,5.72,5.72A5.721,5.721,0,0,0,412.7,378.06Zm0,13.035a5.72,5.72,0,1,0,5.72,5.72A5.721,5.721,0,0,0,412.7,391.095Zm0,39.106a5.72,5.72,0,1,0,5.72,5.72A5.721,5.721,0,0,0,412.7,430.2Zm0,13.035a5.72,5.72,0,1,0,5.72,5.72A5.721,5.721,0,0,0,412.7,443.236Zm0,13.035a5.72,5.72,0,1,0,5.72,5.72A5.72,5.72,0,0,0,412.7,456.271Zm0,13.035a5.72,5.72,0,1,0,5.72,5.72A5.721,5.721,0,0,0,412.7,469.306Zm0,13.035a5.72,5.72,0,1,0,5.72,5.72A5.721,5.721,0,0,0,412.7,482.341Zm0,13.036a5.72,5.72,0,1,0,5.72,5.72A5.721,5.721,0,0,0,412.7,495.377Zm0,13.035a5.719,5.719,0,1,0,5.72,5.72A5.721,5.721,0,0,0,412.7,508.412Zm0,13.036a5.719,5.719,0,1,0,5.72,5.72A5.721,5.721,0,0,0,412.7,521.449Zm0,13.035a5.72,5.72,0,1,0,5.72,5.719A5.719,5.719,0,0,0,412.7,534.484Zm12.933-169.46a5.72,5.72,0,1,0,5.719,5.72A5.721,5.721,0,0,0,425.637,365.023Zm0,13.037a5.72,5.72,0,1,0,5.719,5.72A5.721,5.721,0,0,0,425.637,378.06Zm0,13.035a5.72,5.72,0,1,0,5.719,5.72A5.721,5.721,0,0,0,425.637,391.095Zm0,13.035a5.72,5.72,0,1,0,5.719,5.72A5.721,5.721,0,0,0,425.637,404.13Zm0,13.035a5.72,5.72,0,1,0,5.719,5.72A5.721,5.721,0,0,0,425.637,417.165Zm0,13.036a5.72,5.72,0,1,0,5.719,5.72A5.721,5.721,0,0,0,425.637,430.2Zm0,13.035a5.72,5.72,0,1,0,5.719,5.72A5.721,5.721,0,0,0,425.637,443.236Zm0,13.035a5.72,5.72,0,1,0,5.719,5.72A5.72,5.72,0,0,0,425.637,456.271Zm0,13.035a5.72,5.72,0,1,0,5.719,5.72A5.721,5.721,0,0,0,425.637,469.306Zm0,13.035a5.72,5.72,0,1,0,5.719,5.72A5.721,5.721,0,0,0,425.637,482.341Zm0,13.036a5.72,5.72,0,1,0,5.719,5.72A5.721,5.721,0,0,0,425.637,495.377Zm0,13.035a5.719,5.719,0,1,0,5.719,5.72A5.721,5.721,0,0,0,425.637,508.412Zm0,13.036a5.719,5.719,0,1,0,5.719,5.72A5.721,5.721,0,0,0,425.637,521.449Zm0,13.035a5.72,5.72,0,1,0,5.719,5.719A5.72,5.72,0,0,0,425.637,534.484Zm12.929-143.389a5.72,5.72,0,1,0,5.72,5.72A5.721,5.721,0,0,0,438.567,391.095Zm0,13.035a5.72,5.72,0,1,0,5.72,5.72A5.721,5.721,0,0,0,438.567,404.13Zm0,13.035a5.72,5.72,0,1,0,5.72,5.72A5.721,5.721,0,0,0,438.567,417.165Zm0,13.036a5.72,5.72,0,1,0,5.72,5.72A5.721,5.721,0,0,0,438.567,430.2Zm0,13.035a5.72,5.72,0,1,0,5.72,5.72A5.721,5.721,0,0,0,438.567,443.236Zm0,13.035a5.72,5.72,0,1,0,5.72,5.72A5.72,5.72,0,0,0,438.567,456.271Zm0,13.035a5.72,5.72,0,1,0,5.72,5.72A5.721,5.721,0,0,0,438.567,469.306Zm0,13.035a5.72,5.72,0,1,0,5.72,5.72A5.721,5.721,0,0,0,438.567,482.341Zm0,13.036a5.72,5.72,0,1,0,5.72,5.72A5.721,5.721,0,0,0,438.567,495.377Zm0,13.035a5.719,5.719,0,1,0,5.72,5.72A5.721,5.721,0,0,0,438.567,508.412Zm0,13.036a5.719,5.719,0,1,0,5.72,5.72A5.721,5.721,0,0,0,438.567,521.449Zm0,13.035a5.72,5.72,0,1,0,5.72,5.719A5.719,5.719,0,0,0,438.567,534.484ZM451.5,351.99a5.72,5.72,0,1,0,5.72,5.72A5.721,5.721,0,0,0,451.5,351.99Zm0,13.033a5.72,5.72,0,1,0,5.72,5.72A5.721,5.721,0,0,0,451.5,365.023Zm0,26.071a5.72,5.72,0,1,0,5.72,5.72A5.721,5.721,0,0,0,451.5,391.095Zm0,13.035a5.72,5.72,0,1,0,5.72,5.72A5.721,5.721,0,0,0,451.5,404.13Zm0,13.035a5.72,5.72,0,1,0,5.72,5.72A5.721,5.721,0,0,0,451.5,417.165Zm0,26.071a5.72,5.72,0,1,0,5.72,5.72A5.721,5.721,0,0,0,451.5,443.236Zm0,13.035a5.72,5.72,0,1,0,5.72,5.72A5.72,5.72,0,0,0,451.5,456.271Zm0,13.035a5.72,5.72,0,1,0,5.72,5.72A5.721,5.721,0,0,0,451.5,469.306Zm0,13.035a5.72,5.72,0,1,0,5.72,5.72A5.721,5.721,0,0,0,451.5,482.341Zm0,13.036a5.72,5.72,0,1,0,5.72,5.72A5.721,5.721,0,0,0,451.5,495.377Zm0,13.035a5.719,5.719,0,1,0,5.72,5.72A5.721,5.721,0,0,0,451.5,508.412Zm0,13.036a5.719,5.719,0,1,0,5.72,5.72A5.721,5.721,0,0,0,451.5,521.449Zm0,13.035a5.72,5.72,0,1,0,5.72,5.719A5.719,5.719,0,0,0,451.5,534.484Zm0,13.033a5.72,5.72,0,1,0,5.72,5.72A5.721,5.721,0,0,0,451.5,547.517Zm12.93-286.775a5.72,5.72,0,1,0,5.72,5.72A5.719,5.719,0,0,0,464.427,260.742Zm0,13.035a5.72,5.72,0,1,0,5.72,5.72A5.72,5.72,0,0,0,464.427,273.777Zm0,52.141a5.72,5.72,0,1,0,5.72,5.72A5.72,5.72,0,0,0,464.427,325.919Zm0,13.035a5.72,5.72,0,1,0,5.72,5.72A5.72,5.72,0,0,0,464.427,338.954Zm0,13.036a5.72,5.72,0,1,0,5.72,5.72A5.72,5.72,0,0,0,464.427,351.99Zm0,13.033a5.72,5.72,0,1,0,5.72,5.72A5.72,5.72,0,0,0,464.427,365.023Zm0,13.037a5.72,5.72,0,1,0,5.72,5.72A5.72,5.72,0,0,0,464.427,378.06Zm0,13.035a5.72,5.72,0,1,0,5.72,5.72A5.72,5.72,0,0,0,464.427,391.095Zm0,13.035a5.72,5.72,0,1,0,5.72,5.72A5.72,5.72,0,0,0,464.427,404.13Zm0,13.035a5.72,5.72,0,1,0,5.72,5.72A5.72,5.72,0,0,0,464.427,417.165Zm0,13.036a5.72,5.72,0,1,0,5.72,5.72A5.72,5.72,0,0,0,464.427,430.2Zm0,26.07a5.72,5.72,0,1,0,5.72,5.72A5.719,5.719,0,0,0,464.427,456.271Zm0,13.035a5.72,5.72,0,1,0,5.72,5.72A5.72,5.72,0,0,0,464.427,469.306Zm0,13.035a5.72,5.72,0,1,0,5.72,5.72A5.72,5.72,0,0,0,464.427,482.341Zm0,13.036a5.72,5.72,0,1,0,5.72,5.72A5.72,5.72,0,0,0,464.427,495.377Zm0,13.035a5.719,5.719,0,1,0,5.72,5.72A5.72,5.72,0,0,0,464.427,508.412Zm0,13.036a5.719,5.719,0,1,0,5.72,5.72A5.72,5.72,0,0,0,464.427,521.449Zm0,13.035a5.72,5.72,0,1,0,5.72,5.719A5.719,5.719,0,0,0,464.427,534.484Zm0,13.033a5.72,5.72,0,1,0,5.72,5.72A5.72,5.72,0,0,0,464.427,547.517Zm0,13.036a5.72,5.72,0,1,0,5.72,5.72A5.72,5.72,0,0,0,464.427,560.553Zm0,13.035a5.72,5.72,0,1,0,5.72,5.72A5.72,5.72,0,0,0,464.427,573.589Zm0,13.035a5.72,5.72,0,1,0,5.72,5.72A5.72,5.72,0,0,0,464.427,586.623Zm0,13.036a5.72,5.72,0,1,0,5.72,5.72A5.72,5.72,0,0,0,464.427,599.66Zm0,13.035a5.72,5.72,0,1,0,5.72,5.72A5.72,5.72,0,0,0,464.427,612.695ZM477.36,260.742a5.72,5.72,0,1,0,5.72,5.72A5.72,5.72,0,0,0,477.36,260.742Zm0,13.035a5.72,5.72,0,1,0,5.72,5.72A5.721,5.721,0,0,0,477.36,273.777Zm0,39.106a5.72,5.72,0,1,0,5.72,5.72A5.72,5.72,0,0,0,477.36,312.884Zm0,13.035a5.72,5.72,0,1,0,5.72,5.72A5.721,5.721,0,0,0,477.36,325.919Zm0,13.035a5.72,5.72,0,1,0,5.72,5.72A5.721,5.721,0,0,0,477.36,338.954Zm0,39.106a5.72,5.72,0,1,0,5.72,5.72A5.721,5.721,0,0,0,477.36,378.06Zm0,13.035a5.72,5.72,0,1,0,5.72,5.72A5.721,5.721,0,0,0,477.36,391.095Zm0,13.035a5.72,5.72,0,1,0,5.72,5.72A5.721,5.721,0,0,0,477.36,404.13Zm0,13.035a5.72,5.72,0,1,0,5.72,5.72A5.721,5.721,0,0,0,477.36,417.165Zm0,13.036a5.72,5.72,0,1,0,5.72,5.72A5.721,5.721,0,0,0,477.36,430.2Zm0,26.07a5.72,5.72,0,1,0,5.72,5.72A5.72,5.72,0,0,0,477.36,456.271Zm0,13.035a5.72,5.72,0,1,0,5.72,5.72A5.721,5.721,0,0,0,477.36,469.306Zm0,13.035a5.72,5.72,0,1,0,5.72,5.72A5.721,5.721,0,0,0,477.36,482.341Zm0,13.036a5.72,5.72,0,1,0,5.72,5.72A5.721,5.721,0,0,0,477.36,495.377Zm0,13.035a5.719,5.719,0,1,0,5.72,5.72A5.721,5.721,0,0,0,477.36,508.412Zm0,13.036a5.719,5.719,0,1,0,5.72,5.72A5.721,5.721,0,0,0,477.36,521.449Zm0,13.035a5.72,5.72,0,1,0,5.72,5.719A5.719,5.719,0,0,0,477.36,534.484Zm0,13.033a5.72,5.72,0,1,0,5.72,5.72A5.721,5.721,0,0,0,477.36,547.517Zm0,13.036a5.72,5.72,0,1,0,5.72,5.72A5.721,5.721,0,0,0,477.36,560.553Zm0,13.035a5.72,5.72,0,1,0,5.72,5.72A5.721,5.721,0,0,0,477.36,573.589Zm0,13.035a5.72,5.72,0,1,0,5.72,5.72A5.721,5.721,0,0,0,477.36,586.623Zm0,13.036a5.72,5.72,0,1,0,5.72,5.72A5.721,5.721,0,0,0,477.36,599.66Zm0,13.035a5.72,5.72,0,1,0,5.72,5.72A5.721,5.721,0,0,0,477.36,612.695Zm0,13.035a5.719,5.719,0,1,0,5.72,5.72A5.721,5.721,0,0,0,477.36,625.73Zm0,13.036a5.72,5.72,0,1,0,5.72,5.719A5.719,5.719,0,0,0,477.36,638.766Zm12.931-378.024a5.72,5.72,0,1,0,5.719,5.72A5.721,5.721,0,0,0,490.291,260.742Zm0,13.035a5.72,5.72,0,1,0,5.719,5.72A5.722,5.722,0,0,0,490.291,273.777Zm0,39.106a5.72,5.72,0,1,0,5.719,5.72A5.721,5.721,0,0,0,490.291,312.884Zm0,13.035a5.72,5.72,0,1,0,5.719,5.72A5.722,5.722,0,0,0,490.291,325.919Zm0,13.035a5.72,5.72,0,1,0,5.719,5.72A5.722,5.722,0,0,0,490.291,338.954Zm0,13.036a5.72,5.72,0,1,0,5.719,5.72A5.722,5.722,0,0,0,490.291,351.99Zm0,13.033a5.72,5.72,0,1,0,5.719,5.72A5.722,5.722,0,0,0,490.291,365.023Zm0,13.037a5.72,5.72,0,1,0,5.719,5.72A5.722,5.722,0,0,0,490.291,378.06Zm0,13.035a5.72,5.72,0,1,0,5.719,5.72A5.722,5.722,0,0,0,490.291,391.095Zm0,13.035a5.72,5.72,0,1,0,5.719,5.72A5.722,5.722,0,0,0,490.291,404.13Zm0,13.035a5.72,5.72,0,1,0,5.719,5.72A5.722,5.722,0,0,0,490.291,417.165Zm0,13.036a5.72,5.72,0,1,0,5.719,5.72A5.722,5.722,0,0,0,490.291,430.2Zm0,26.07a5.72,5.72,0,1,0,5.719,5.72A5.721,5.721,0,0,0,490.291,456.271Zm0,13.035a5.72,5.72,0,1,0,5.719,5.72A5.722,5.722,0,0,0,490.291,469.306Zm0,13.035a5.72,5.72,0,1,0,5.719,5.72A5.722,5.722,0,0,0,490.291,482.341Zm0,13.036a5.72,5.72,0,1,0,5.719,5.72A5.722,5.722,0,0,0,490.291,495.377Zm0,13.035a5.719,5.719,0,1,0,5.719,5.72A5.722,5.722,0,0,0,490.291,508.412Zm0,13.036a5.719,5.719,0,1,0,5.719,5.72A5.722,5.722,0,0,0,490.291,521.449Zm0,13.035a5.72,5.72,0,1,0,5.719,5.719A5.721,5.721,0,0,0,490.291,534.484Zm0,13.033a5.72,5.72,0,1,0,5.719,5.72A5.722,5.722,0,0,0,490.291,547.517Zm0,13.036a5.72,5.72,0,1,0,5.719,5.72A5.722,5.722,0,0,0,490.291,560.553Zm0,13.035a5.72,5.72,0,1,0,5.719,5.72A5.722,5.722,0,0,0,490.291,573.589Zm0,13.035a5.72,5.72,0,1,0,5.719,5.72A5.722,5.722,0,0,0,490.291,586.623Zm0,13.036a5.72,5.72,0,1,0,5.719,5.72A5.722,5.722,0,0,0,490.291,599.66Zm0,13.035a5.72,5.72,0,1,0,5.719,5.72A5.722,5.722,0,0,0,490.291,612.695Zm0,13.035a5.719,5.719,0,1,0,5.719,5.72A5.722,5.722,0,0,0,490.291,625.73Zm0,13.036a5.72,5.72,0,1,0,5.719,5.719A5.721,5.721,0,0,0,490.291,638.766Zm12.93-378.024a5.72,5.72,0,1,0,5.72,5.72A5.72,5.72,0,0,0,503.22,260.742Zm0,13.035a5.72,5.72,0,1,0,5.72,5.72A5.721,5.721,0,0,0,503.22,273.777Zm0,39.106a5.72,5.72,0,1,0,5.72,5.72A5.72,5.72,0,0,0,503.22,312.884Zm0,13.035a5.72,5.72,0,1,0,5.72,5.72A5.721,5.721,0,0,0,503.22,325.919Zm0,13.035a5.72,5.72,0,1,0,5.72,5.72A5.721,5.721,0,0,0,503.22,338.954Zm0,13.036a5.72,5.72,0,1,0,5.72,5.72A5.721,5.721,0,0,0,503.22,351.99Zm0,13.033a5.72,5.72,0,1,0,5.72,5.72A5.721,5.721,0,0,0,503.22,365.023Zm0,13.037a5.72,5.72,0,1,0,5.72,5.72A5.721,5.721,0,0,0,503.22,378.06Zm0,13.035a5.72,5.72,0,1,0,5.72,5.72A5.721,5.721,0,0,0,503.22,391.095Zm0,13.035a5.72,5.72,0,1,0,5.72,5.72A5.721,5.721,0,0,0,503.22,404.13Zm0,26.071a5.72,5.72,0,1,0,5.72,5.72A5.721,5.721,0,0,0,503.22,430.2Zm0,26.07a5.72,5.72,0,1,0,5.72,5.72A5.72,5.72,0,0,0,503.22,456.271Zm0,13.035a5.72,5.72,0,1,0,5.72,5.72A5.721,5.721,0,0,0,503.22,469.306Zm0,13.035a5.72,5.72,0,1,0,5.72,5.72A5.721,5.721,0,0,0,503.22,482.341Zm0,13.036a5.72,5.72,0,1,0,5.72,5.72A5.721,5.721,0,0,0,503.22,495.377Zm0,13.035a5.719,5.719,0,1,0,5.72,5.72A5.721,5.721,0,0,0,503.22,508.412Zm0,13.036a5.719,5.719,0,1,0,5.72,5.72A5.721,5.721,0,0,0,503.22,521.449Zm0,13.035a5.72,5.72,0,1,0,5.72,5.719A5.72,5.72,0,0,0,503.22,534.484Zm0,13.033a5.72,5.72,0,1,0,5.72,5.72A5.721,5.721,0,0,0,503.22,547.517Zm0,13.036a5.72,5.72,0,1,0,5.72,5.72A5.721,5.721,0,0,0,503.22,560.553Zm0,13.035a5.72,5.72,0,1,0,5.72,5.72A5.721,5.721,0,0,0,503.22,573.589Zm0,13.035a5.72,5.72,0,1,0,5.72,5.72A5.721,5.721,0,0,0,503.22,586.623Zm0,13.036a5.72,5.72,0,1,0,5.72,5.72A5.721,5.721,0,0,0,503.22,599.66Zm0,13.035a5.72,5.72,0,1,0,5.72,5.72A5.721,5.721,0,0,0,503.22,612.695Zm0,13.035a5.719,5.719,0,1,0,5.72,5.72A5.721,5.721,0,0,0,503.22,625.73Zm12.932-299.811a5.72,5.72,0,1,0,5.72,5.72A5.721,5.721,0,0,0,516.153,325.919Zm0,13.035a5.72,5.72,0,1,0,5.72,5.72A5.721,5.721,0,0,0,516.153,338.954Zm0,13.036a5.72,5.72,0,1,0,5.72,5.72A5.721,5.721,0,0,0,516.153,351.99Zm0,13.033a5.72,5.72,0,1,0,5.72,5.72A5.721,5.721,0,0,0,516.153,365.023Zm0,13.037a5.72,5.72,0,1,0,5.72,5.72A5.721,5.721,0,0,0,516.153,378.06Zm0,13.035a5.72,5.72,0,1,0,5.72,5.72A5.721,5.721,0,0,0,516.153,391.095Zm0,13.035a5.72,5.72,0,1,0,5.72,5.72A5.721,5.721,0,0,0,516.153,404.13Zm0,26.071a5.72,5.72,0,1,0,5.72,5.72A5.721,5.721,0,0,0,516.153,430.2Zm0,13.035a5.72,5.72,0,1,0,5.72,5.72A5.721,5.721,0,0,0,516.153,443.236Zm0,13.035a5.72,5.72,0,1,0,5.72,5.72A5.72,5.72,0,0,0,516.153,456.271Zm0,13.035a5.72,5.72,0,1,0,5.72,5.72A5.721,5.721,0,0,0,516.153,469.306Zm0,13.035a5.72,5.72,0,1,0,5.72,5.72A5.721,5.721,0,0,0,516.153,482.341Zm0,13.036a5.72,5.72,0,1,0,5.72,5.72A5.721,5.721,0,0,0,516.153,495.377Zm0,13.035a5.719,5.719,0,1,0,5.72,5.72A5.721,5.721,0,0,0,516.153,508.412Zm0,13.036a5.719,5.719,0,1,0,5.72,5.72A5.721,5.721,0,0,0,516.153,521.449Zm0,13.035a5.72,5.72,0,1,0,5.72,5.719A5.719,5.719,0,0,0,516.153,534.484Zm0,13.033a5.72,5.72,0,1,0,5.72,5.72A5.721,5.721,0,0,0,516.153,547.517Zm0,13.036a5.72,5.72,0,1,0,5.72,5.72A5.721,5.721,0,0,0,516.153,560.553Zm0,13.035a5.72,5.72,0,1,0,5.72,5.72A5.721,5.721,0,0,0,516.153,573.589Zm0,13.035a5.72,5.72,0,1,0,5.72,5.72A5.721,5.721,0,0,0,516.153,586.623Zm0,13.036a5.72,5.72,0,1,0,5.72,5.72A5.721,5.721,0,0,0,516.153,599.66Zm0,13.035a5.72,5.72,0,1,0,5.72,5.72A5.721,5.721,0,0,0,516.153,612.695Zm12.93-286.776a5.72,5.72,0,1,0,5.72,5.72A5.722,5.722,0,0,0,529.082,325.919Zm0,13.035a5.72,5.72,0,1,0,5.72,5.72A5.722,5.722,0,0,0,529.082,338.954Zm0,13.036a5.72,5.72,0,1,0,5.72,5.72A5.721,5.721,0,0,0,529.082,351.99Zm0,13.033a5.72,5.72,0,1,0,5.72,5.72A5.722,5.722,0,0,0,529.082,365.023Zm0,13.037a5.72,5.72,0,1,0,5.72,5.72A5.721,5.721,0,0,0,529.082,378.06Zm0,13.035a5.72,5.72,0,1,0,5.72,5.72A5.721,5.721,0,0,0,529.082,391.095Zm0,13.035a5.72,5.72,0,1,0,5.72,5.72A5.722,5.722,0,0,0,529.082,404.13Zm0,13.035a5.72,5.72,0,1,0,5.72,5.72A5.722,5.722,0,0,0,529.082,417.165Zm0,13.036a5.72,5.72,0,1,0,5.72,5.72A5.722,5.722,0,0,0,529.082,430.2Zm0,13.035a5.72,5.72,0,1,0,5.72,5.72A5.722,5.722,0,0,0,529.082,443.236Zm0,13.035a5.72,5.72,0,1,0,5.72,5.72A5.72,5.72,0,0,0,529.082,456.271Zm0,13.035a5.72,5.72,0,1,0,5.72,5.72A5.722,5.722,0,0,0,529.082,469.306Zm0,13.035a5.72,5.72,0,1,0,5.72,5.72A5.722,5.722,0,0,0,529.082,482.341Zm0,13.036a5.72,5.72,0,1,0,5.72,5.72A5.722,5.722,0,0,0,529.082,495.377Zm0,13.035a5.719,5.719,0,1,0,5.72,5.72A5.721,5.721,0,0,0,529.082,508.412Zm0,13.036a5.719,5.719,0,1,0,5.72,5.72A5.722,5.722,0,0,0,529.082,521.449Zm0,13.035a5.72,5.72,0,1,0,5.72,5.719A5.72,5.72,0,0,0,529.082,534.484Zm0,13.033a5.72,5.72,0,1,0,5.72,5.72A5.722,5.722,0,0,0,529.082,547.517Zm0,13.036a5.72,5.72,0,1,0,5.72,5.72A5.722,5.722,0,0,0,529.082,560.553Zm0,13.035a5.72,5.72,0,1,0,5.72,5.72A5.721,5.721,0,0,0,529.082,573.589Zm0,13.035a5.72,5.72,0,1,0,5.72,5.72A5.721,5.721,0,0,0,529.082,586.623Zm12.932-247.67a5.72,5.72,0,1,0,5.719,5.72A5.72,5.72,0,0,0,542.015,338.954Zm0,13.036a5.72,5.72,0,1,0,5.719,5.72A5.72,5.72,0,0,0,542.015,351.99Zm0,13.033a5.72,5.72,0,1,0,5.719,5.72A5.72,5.72,0,0,0,542.015,365.023Zm0,13.037a5.72,5.72,0,1,0,5.719,5.72A5.72,5.72,0,0,0,542.015,378.06Zm0,13.035a5.72,5.72,0,1,0,5.719,5.72A5.72,5.72,0,0,0,542.015,391.095Zm0,13.035a5.72,5.72,0,1,0,5.719,5.72A5.72,5.72,0,0,0,542.015,404.13Zm0,13.035a5.72,5.72,0,1,0,5.719,5.72A5.72,5.72,0,0,0,542.015,417.165Zm0,13.036a5.72,5.72,0,1,0,5.719,5.72A5.72,5.72,0,0,0,542.015,430.2Zm0,13.035a5.72,5.72,0,1,0,5.719,5.72A5.72,5.72,0,0,0,542.015,443.236Zm0,13.035a5.72,5.72,0,1,0,5.719,5.72A5.719,5.719,0,0,0,542.015,456.271Zm0,13.035a5.72,5.72,0,1,0,5.719,5.72A5.72,5.72,0,0,0,542.015,469.306Zm0,13.035a5.72,5.72,0,1,0,5.719,5.72A5.72,5.72,0,0,0,542.015,482.341Zm0,13.036a5.72,5.72,0,1,0,5.719,5.72A5.72,5.72,0,0,0,542.015,495.377Zm0,13.035a5.719,5.719,0,1,0,5.719,5.72A5.72,5.72,0,0,0,542.015,508.412Zm0,13.036a5.719,5.719,0,1,0,5.719,5.72A5.72,5.72,0,0,0,542.015,521.449Zm0,13.035a5.72,5.72,0,1,0,5.719,5.719A5.718,5.718,0,0,0,542.015,534.484Zm0,52.14a5.72,5.72,0,1,0,5.719,5.72A5.72,5.72,0,0,0,542.015,586.623Zm0,13.036a5.72,5.72,0,1,0,5.719,5.72A5.72,5.72,0,0,0,542.015,599.66Zm0,13.035a5.72,5.72,0,1,0,5.719,5.72A5.72,5.72,0,0,0,542.015,612.695Zm12.931-351.952a5.72,5.72,0,1,0,5.717,5.72A5.721,5.721,0,0,0,554.946,260.742Zm0,65.176a5.72,5.72,0,1,0,5.717,5.72A5.722,5.722,0,0,0,554.946,325.919Zm0,13.035a5.72,5.72,0,1,0,5.717,5.72A5.722,5.722,0,0,0,554.946,338.954Zm0,13.036a5.72,5.72,0,1,0,5.717,5.72A5.722,5.722,0,0,0,554.946,351.99Zm0,13.033a5.72,5.72,0,1,0,5.717,5.72A5.722,5.722,0,0,0,554.946,365.023Zm0,13.037a5.72,5.72,0,1,0,5.717,5.72A5.722,5.722,0,0,0,554.946,378.06Zm0,13.035a5.72,5.72,0,1,0,5.717,5.72A5.722,5.722,0,0,0,554.946,391.095Zm0,13.035a5.72,5.72,0,1,0,5.717,5.72A5.722,5.722,0,0,0,554.946,404.13Zm0,39.106a5.72,5.72,0,1,0,5.717,5.72A5.722,5.722,0,0,0,554.946,443.236Zm0,13.035a5.72,5.72,0,1,0,5.717,5.72A5.721,5.721,0,0,0,554.946,456.271Zm0,13.035a5.72,5.72,0,1,0,5.717,5.72A5.722,5.722,0,0,0,554.946,469.306Zm0,13.035a5.72,5.72,0,1,0,5.717,5.72A5.722,5.722,0,0,0,554.946,482.341Zm0,13.036a5.72,5.72,0,1,0,5.717,5.72A5.722,5.722,0,0,0,554.946,495.377Zm0,26.071a5.719,5.719,0,1,0,5.717,5.72A5.722,5.722,0,0,0,554.946,521.449Zm12.93-260.706a5.72,5.72,0,1,0,5.72,5.72A5.721,5.721,0,0,0,567.875,260.742Zm0,26.07a5.72,5.72,0,1,0,5.72,5.72A5.722,5.722,0,0,0,567.875,286.812Zm0,13.037a5.72,5.72,0,1,0,5.72,5.72A5.721,5.721,0,0,0,567.875,299.849Zm0,26.07a5.72,5.72,0,1,0,5.72,5.72A5.722,5.722,0,0,0,567.875,325.919Zm0,13.035a5.72,5.72,0,1,0,5.72,5.72A5.722,5.722,0,0,0,567.875,338.954Zm0,13.036a5.72,5.72,0,1,0,5.72,5.72A5.721,5.721,0,0,0,567.875,351.99Zm0,13.033a5.72,5.72,0,1,0,5.72,5.72A5.722,5.722,0,0,0,567.875,365.023Zm0,13.037a5.72,5.72,0,1,0,5.72,5.72A5.721,5.721,0,0,0,567.875,378.06Zm0,13.035a5.72,5.72,0,1,0,5.72,5.72A5.721,5.721,0,0,0,567.875,391.095Zm0,13.035a5.72,5.72,0,1,0,5.72,5.72A5.722,5.722,0,0,0,567.875,404.13Zm0,13.035a5.72,5.72,0,1,0,5.72,5.72A5.722,5.722,0,0,0,567.875,417.165Zm0,13.036a5.72,5.72,0,1,0,5.72,5.72A5.722,5.722,0,0,0,567.875,430.2Zm0,13.035a5.72,5.72,0,1,0,5.72,5.72A5.722,5.722,0,0,0,567.875,443.236Zm0,13.035a5.72,5.72,0,1,0,5.72,5.72A5.72,5.72,0,0,0,567.875,456.271Zm0,13.035a5.72,5.72,0,1,0,5.72,5.72A5.722,5.722,0,0,0,567.875,469.306Zm0,13.035a5.72,5.72,0,1,0,5.72,5.72A5.722,5.722,0,0,0,567.875,482.341Zm0,13.036a5.72,5.72,0,1,0,5.72,5.72A5.722,5.722,0,0,0,567.875,495.377Zm12.932-234.635a5.72,5.72,0,1,0,5.719,5.72A5.719,5.719,0,0,0,580.808,260.742Zm0,26.07a5.72,5.72,0,1,0,5.719,5.72A5.72,5.72,0,0,0,580.808,286.812Zm0,26.071a5.72,5.72,0,1,0,5.719,5.72A5.719,5.719,0,0,0,580.808,312.884Zm0,13.035a5.72,5.72,0,1,0,5.719,5.72A5.72,5.72,0,0,0,580.808,325.919Zm0,13.035a5.72,5.72,0,1,0,5.719,5.72A5.72,5.72,0,0,0,580.808,338.954Zm0,13.036a5.72,5.72,0,1,0,5.719,5.72A5.72,5.72,0,0,0,580.808,351.99Zm0,13.033a5.72,5.72,0,1,0,5.719,5.72A5.72,5.72,0,0,0,580.808,365.023Zm0,13.037a5.72,5.72,0,1,0,5.719,5.72A5.72,5.72,0,0,0,580.808,378.06Zm0,13.035a5.72,5.72,0,1,0,5.719,5.72A5.72,5.72,0,0,0,580.808,391.095Zm0,13.035a5.72,5.72,0,1,0,5.719,5.72A5.72,5.72,0,0,0,580.808,404.13Zm0,13.035a5.72,5.72,0,1,0,5.719,5.72A5.72,5.72,0,0,0,580.808,417.165Zm0,13.036a5.72,5.72,0,1,0,5.719,5.72A5.72,5.72,0,0,0,580.808,430.2Zm0,13.035a5.72,5.72,0,1,0,5.719,5.72A5.72,5.72,0,0,0,580.808,443.236Zm0,13.035a5.72,5.72,0,1,0,5.719,5.72A5.719,5.719,0,0,0,580.808,456.271Zm0,13.035a5.72,5.72,0,1,0,5.719,5.72A5.72,5.72,0,0,0,580.808,469.306Zm12.929-182.494a5.72,5.72,0,1,0,5.72,5.72A5.722,5.722,0,0,0,593.737,286.812Zm0,26.071a5.72,5.72,0,1,0,5.72,5.72A5.721,5.721,0,0,0,593.737,312.884Zm0,13.035a5.72,5.72,0,1,0,5.72,5.72A5.722,5.722,0,0,0,593.737,325.919Zm0,13.035a5.72,5.72,0,1,0,5.72,5.72A5.722,5.722,0,0,0,593.737,338.954Zm0,13.036a5.72,5.72,0,1,0,5.72,5.72A5.722,5.722,0,0,0,593.737,351.99Zm0,13.033a5.72,5.72,0,1,0,5.72,5.72A5.722,5.722,0,0,0,593.737,365.023Zm0,13.037a5.72,5.72,0,1,0,5.72,5.72A5.722,5.722,0,0,0,593.737,378.06Zm0,13.035a5.72,5.72,0,1,0,5.72,5.72A5.722,5.722,0,0,0,593.737,391.095Zm0,13.035a5.72,5.72,0,1,0,5.72,5.72A5.722,5.722,0,0,0,593.737,404.13Zm0,13.035a5.72,5.72,0,1,0,5.72,5.72A5.722,5.722,0,0,0,593.737,417.165Zm0,13.036a5.72,5.72,0,1,0,5.72,5.72A5.722,5.722,0,0,0,593.737,430.2Zm0,13.035a5.72,5.72,0,1,0,5.72,5.72A5.722,5.722,0,0,0,593.737,443.236Zm0,13.035a5.72,5.72,0,1,0,5.72,5.72A5.721,5.721,0,0,0,593.737,456.271Zm0,13.035a5.72,5.72,0,1,0,5.72,5.72A5.722,5.722,0,0,0,593.737,469.306Zm12.931-169.457a5.72,5.72,0,1,0,5.72,5.72A5.721,5.721,0,0,0,606.668,299.849Zm0,13.035a5.72,5.72,0,1,0,5.72,5.72A5.72,5.72,0,0,0,606.668,312.884Zm0,13.035a5.72,5.72,0,1,0,5.72,5.72A5.721,5.721,0,0,0,606.668,325.919Zm0,13.035a5.72,5.72,0,1,0,5.72,5.72A5.721,5.721,0,0,0,606.668,338.954Zm0,13.036a5.72,5.72,0,1,0,5.72,5.72A5.721,5.721,0,0,0,606.668,351.99Zm0,13.033a5.72,5.72,0,1,0,5.72,5.72A5.721,5.721,0,0,0,606.668,365.023Zm0,13.037a5.72,5.72,0,1,0,5.72,5.72A5.721,5.721,0,0,0,606.668,378.06Zm0,13.035a5.72,5.72,0,1,0,5.72,5.72A5.721,5.721,0,0,0,606.668,391.095Zm0,13.035a5.72,5.72,0,1,0,5.72,5.72A5.721,5.721,0,0,0,606.668,404.13Zm0,13.035a5.72,5.72,0,1,0,5.72,5.72A5.721,5.721,0,0,0,606.668,417.165Zm0,13.036a5.72,5.72,0,1,0,5.72,5.72A5.721,5.721,0,0,0,606.668,430.2Zm0,13.035a5.72,5.72,0,1,0,5.72,5.72A5.721,5.721,0,0,0,606.668,443.236Zm0,13.035a5.72,5.72,0,1,0,5.72,5.72A5.72,5.72,0,0,0,606.668,456.271Zm0,13.035a5.72,5.72,0,1,0,5.72,5.72A5.721,5.721,0,0,0,606.668,469.306Zm0,13.035a5.72,5.72,0,1,0,5.72,5.72A5.721,5.721,0,0,0,606.668,482.341Zm0,13.036a5.72,5.72,0,1,0,5.72,5.72A5.721,5.721,0,0,0,606.668,495.377ZM619.6,299.849a5.72,5.72,0,1,0,5.719,5.72A5.72,5.72,0,0,0,619.6,299.849Zm0,13.035a5.72,5.72,0,1,0,5.719,5.72A5.719,5.719,0,0,0,619.6,312.884Zm0,13.035a5.72,5.72,0,1,0,5.719,5.72A5.72,5.72,0,0,0,619.6,325.919Zm0,13.035a5.72,5.72,0,1,0,5.719,5.72A5.72,5.72,0,0,0,619.6,338.954Zm0,13.036a5.72,5.72,0,1,0,5.719,5.72A5.72,5.72,0,0,0,619.6,351.99Zm0,13.033a5.72,5.72,0,1,0,5.719,5.72A5.72,5.72,0,0,0,619.6,365.023Zm0,13.037a5.72,5.72,0,1,0,5.719,5.72A5.72,5.72,0,0,0,619.6,378.06Zm0,13.035a5.72,5.72,0,1,0,5.719,5.72A5.72,5.72,0,0,0,619.6,391.095Zm0,13.035a5.72,5.72,0,1,0,5.719,5.72A5.72,5.72,0,0,0,619.6,404.13Zm0,13.035a5.72,5.72,0,1,0,5.719,5.72A5.72,5.72,0,0,0,619.6,417.165Zm0,13.036a5.72,5.72,0,1,0,5.719,5.72A5.72,5.72,0,0,0,619.6,430.2Zm0,13.035a5.72,5.72,0,1,0,5.719,5.72A5.72,5.72,0,0,0,619.6,443.236Zm0,13.035a5.72,5.72,0,1,0,5.719,5.72A5.719,5.719,0,0,0,619.6,456.271Zm0,13.035a5.72,5.72,0,1,0,5.719,5.72A5.72,5.72,0,0,0,619.6,469.306Zm0,13.035a5.72,5.72,0,1,0,5.719,5.72A5.72,5.72,0,0,0,619.6,482.341Zm0,13.036a5.72,5.72,0,1,0,5.719,5.72A5.72,5.72,0,0,0,619.6,495.377Zm0,13.035a5.719,5.719,0,1,0,5.719,5.72A5.72,5.72,0,0,0,619.6,508.412Zm0,13.036a5.719,5.719,0,1,0,5.719,5.72A5.72,5.72,0,0,0,619.6,521.449Zm12.929-221.6a5.72,5.72,0,1,0,5.72,5.72A5.721,5.721,0,0,0,632.53,299.849Zm0,13.035a5.72,5.72,0,1,0,5.72,5.72A5.721,5.721,0,0,0,632.53,312.884Zm0,13.035a5.72,5.72,0,1,0,5.72,5.72A5.722,5.722,0,0,0,632.53,325.919Zm0,13.035a5.72,5.72,0,1,0,5.72,5.72A5.722,5.722,0,0,0,632.53,338.954Zm0,13.036a5.72,5.72,0,1,0,5.72,5.72A5.721,5.721,0,0,0,632.53,351.99Zm0,13.033a5.72,5.72,0,1,0,5.72,5.72A5.722,5.722,0,0,0,632.53,365.023Zm0,13.037a5.72,5.72,0,1,0,5.72,5.72A5.721,5.721,0,0,0,632.53,378.06Zm0,13.035a5.72,5.72,0,1,0,5.72,5.72A5.721,5.721,0,0,0,632.53,391.095Zm0,13.035a5.72,5.72,0,1,0,5.72,5.72A5.722,5.722,0,0,0,632.53,404.13Zm0,13.035a5.72,5.72,0,1,0,5.72,5.72A5.722,5.722,0,0,0,632.53,417.165Zm0,13.036a5.72,5.72,0,1,0,5.72,5.72A5.722,5.722,0,0,0,632.53,430.2Zm0,13.035a5.72,5.72,0,1,0,5.72,5.72A5.722,5.722,0,0,0,632.53,443.236Zm0,13.035a5.72,5.72,0,1,0,5.72,5.72A5.72,5.72,0,0,0,632.53,456.271Zm0,13.035a5.72,5.72,0,1,0,5.72,5.72A5.722,5.722,0,0,0,632.53,469.306Zm0,13.035a5.72,5.72,0,1,0,5.72,5.72A5.722,5.722,0,0,0,632.53,482.341Zm0,13.036a5.72,5.72,0,1,0,5.72,5.72A5.722,5.722,0,0,0,632.53,495.377Zm0,39.106a5.72,5.72,0,1,0,5.72,5.719A5.72,5.72,0,0,0,632.53,534.484Zm12.931-247.671a5.72,5.72,0,1,0,5.72,5.72A5.721,5.721,0,0,0,645.461,286.812Zm0,13.037a5.72,5.72,0,1,0,5.72,5.72A5.721,5.721,0,0,0,645.461,299.849Zm0,13.035a5.72,5.72,0,1,0,5.72,5.72A5.72,5.72,0,0,0,645.461,312.884Zm0,13.035a5.72,5.72,0,1,0,5.72,5.72A5.721,5.721,0,0,0,645.461,325.919Zm0,13.035a5.72,5.72,0,1,0,5.72,5.72A5.721,5.721,0,0,0,645.461,338.954Zm0,13.036a5.72,5.72,0,1,0,5.72,5.72A5.721,5.721,0,0,0,645.461,351.99Zm0,13.033a5.72,5.72,0,1,0,5.72,5.72A5.721,5.721,0,0,0,645.461,365.023Zm0,13.037a5.72,5.72,0,1,0,5.72,5.72A5.721,5.721,0,0,0,645.461,378.06Zm0,13.035a5.72,5.72,0,1,0,5.72,5.72A5.721,5.721,0,0,0,645.461,391.095Zm0,13.035a5.72,5.72,0,1,0,5.72,5.72A5.721,5.721,0,0,0,645.461,404.13Zm0,13.035a5.72,5.72,0,1,0,5.72,5.72A5.721,5.721,0,0,0,645.461,417.165Zm0,13.036a5.72,5.72,0,1,0,5.72,5.72A5.721,5.721,0,0,0,645.461,430.2Zm0,13.035a5.72,5.72,0,1,0,5.72,5.72A5.721,5.721,0,0,0,645.461,443.236Zm0,13.035a5.72,5.72,0,1,0,5.72,5.72A5.72,5.72,0,0,0,645.461,456.271Zm0,13.035a5.72,5.72,0,1,0,5.72,5.72A5.721,5.721,0,0,0,645.461,469.306Zm0,13.035a5.72,5.72,0,1,0,5.72,5.72A5.721,5.721,0,0,0,645.461,482.341Zm12.929-221.6a5.72,5.72,0,1,0,5.72,5.72A5.721,5.721,0,0,0,658.391,260.742Zm0,26.07a5.72,5.72,0,1,0,5.72,5.72A5.722,5.722,0,0,0,658.391,286.812Zm0,13.037a5.72,5.72,0,1,0,5.72,5.72A5.722,5.722,0,0,0,658.391,299.849Zm0,13.035a5.72,5.72,0,1,0,5.72,5.72A5.721,5.721,0,0,0,658.391,312.884Zm0,13.035a5.72,5.72,0,1,0,5.72,5.72A5.722,5.722,0,0,0,658.391,325.919Zm0,13.035a5.72,5.72,0,1,0,5.72,5.72A5.722,5.722,0,0,0,658.391,338.954Zm0,13.036a5.72,5.72,0,1,0,5.72,5.72A5.722,5.722,0,0,0,658.391,351.99Zm0,13.033a5.72,5.72,0,1,0,5.72,5.72A5.722,5.722,0,0,0,658.391,365.023Zm0,13.037a5.72,5.72,0,1,0,5.72,5.72A5.722,5.722,0,0,0,658.391,378.06Zm0,13.035a5.72,5.72,0,1,0,5.72,5.72A5.722,5.722,0,0,0,658.391,391.095Zm0,13.035a5.72,5.72,0,1,0,5.72,5.72A5.722,5.722,0,0,0,658.391,404.13Zm0,13.035a5.72,5.72,0,1,0,5.72,5.72A5.722,5.722,0,0,0,658.391,417.165Zm0,13.036a5.72,5.72,0,1,0,5.72,5.72A5.722,5.722,0,0,0,658.391,430.2Zm0,13.035a5.72,5.72,0,1,0,5.72,5.72A5.722,5.722,0,0,0,658.391,443.236Zm0,13.035a5.72,5.72,0,1,0,5.72,5.72A5.721,5.721,0,0,0,658.391,456.271Zm0,13.035a5.72,5.72,0,1,0,5.72,5.72A5.722,5.722,0,0,0,658.391,469.306Zm0,13.035a5.72,5.72,0,1,0,5.72,5.72A5.722,5.722,0,0,0,658.391,482.341Zm0,13.036a5.72,5.72,0,1,0,5.72,5.72A5.722,5.722,0,0,0,658.391,495.377Zm12.933-234.635a5.72,5.72,0,1,0,5.72,5.72A5.72,5.72,0,0,0,671.323,260.742Zm0,13.035a5.72,5.72,0,1,0,5.72,5.72A5.721,5.721,0,0,0,671.323,273.777Zm0,13.035a5.72,5.72,0,1,0,5.72,5.72A5.721,5.721,0,0,0,671.323,286.812Zm0,13.037a5.72,5.72,0,1,0,5.72,5.72A5.721,5.721,0,0,0,671.323,299.849Zm0,13.035a5.72,5.72,0,1,0,5.72,5.72A5.72,5.72,0,0,0,671.323,312.884Zm0,13.035a5.72,5.72,0,1,0,5.72,5.72A5.721,5.721,0,0,0,671.323,325.919Zm0,13.035a5.72,5.72,0,1,0,5.72,5.72A5.721,5.721,0,0,0,671.323,338.954Zm0,13.036a5.72,5.72,0,1,0,5.72,5.72A5.721,5.721,0,0,0,671.323,351.99Zm0,13.033a5.72,5.72,0,1,0,5.72,5.72A5.721,5.721,0,0,0,671.323,365.023Zm0,13.037a5.72,5.72,0,1,0,5.72,5.72A5.721,5.721,0,0,0,671.323,378.06Zm0,13.035a5.72,5.72,0,1,0,5.72,5.72A5.721,5.721,0,0,0,671.323,391.095Zm0,13.035a5.72,5.72,0,1,0,5.72,5.72A5.721,5.721,0,0,0,671.323,404.13Zm0,13.035a5.72,5.72,0,1,0,5.72,5.72A5.721,5.721,0,0,0,671.323,417.165Zm0,13.036a5.72,5.72,0,1,0,5.72,5.72A5.721,5.721,0,0,0,671.323,430.2Zm0,13.035a5.72,5.72,0,1,0,5.72,5.72A5.721,5.721,0,0,0,671.323,443.236Zm0,13.035a5.72,5.72,0,1,0,5.72,5.72A5.72,5.72,0,0,0,671.323,456.271Zm0,13.035a5.72,5.72,0,1,0,5.72,5.72A5.721,5.721,0,0,0,671.323,469.306Zm0,13.035a5.72,5.72,0,1,0,5.72,5.72A5.721,5.721,0,0,0,671.323,482.341Zm0,13.036a5.72,5.72,0,1,0,5.72,5.72A5.721,5.721,0,0,0,671.323,495.377Zm0,13.035a5.719,5.719,0,1,0,5.72,5.72A5.721,5.721,0,0,0,671.323,508.412Zm0,26.071a5.72,5.72,0,1,0,5.72,5.719A5.719,5.719,0,0,0,671.323,534.484Zm0,13.033a5.72,5.72,0,1,0,5.72,5.72A5.721,5.721,0,0,0,671.323,547.517Zm12.931-273.74a5.72,5.72,0,1,0,5.72,5.72A5.721,5.721,0,0,0,684.254,273.777Zm0,13.035a5.72,5.72,0,1,0,5.72,5.72A5.721,5.721,0,0,0,684.254,286.812Zm0,13.037a5.72,5.72,0,1,0,5.72,5.72A5.721,5.721,0,0,0,684.254,299.849Zm0,13.035a5.72,5.72,0,1,0,5.72,5.72A5.72,5.72,0,0,0,684.254,312.884Zm0,13.035a5.72,5.72,0,1,0,5.72,5.72A5.721,5.721,0,0,0,684.254,325.919Zm0,13.035a5.72,5.72,0,1,0,5.72,5.72A5.721,5.721,0,0,0,684.254,338.954Zm0,13.036a5.72,5.72,0,1,0,5.72,5.72A5.721,5.721,0,0,0,684.254,351.99Zm0,13.033a5.72,5.72,0,1,0,5.72,5.72A5.721,5.721,0,0,0,684.254,365.023Zm0,13.037a5.72,5.72,0,1,0,5.72,5.72A5.721,5.721,0,0,0,684.254,378.06Zm0,13.035a5.72,5.72,0,1,0,5.72,5.72A5.721,5.721,0,0,0,684.254,391.095Zm0,13.035a5.72,5.72,0,1,0,5.72,5.72A5.721,5.721,0,0,0,684.254,404.13Zm0,13.035a5.72,5.72,0,1,0,5.72,5.72A5.721,5.721,0,0,0,684.254,417.165Zm0,13.036a5.72,5.72,0,1,0,5.72,5.72A5.721,5.721,0,0,0,684.254,430.2Zm0,13.035a5.72,5.72,0,1,0,5.72,5.72A5.721,5.721,0,0,0,684.254,443.236Zm0,13.035a5.72,5.72,0,1,0,5.72,5.72A5.72,5.72,0,0,0,684.254,456.271Zm0,13.035a5.72,5.72,0,1,0,5.72,5.72A5.721,5.721,0,0,0,684.254,469.306Zm0,13.035a5.72,5.72,0,1,0,5.72,5.72A5.721,5.721,0,0,0,684.254,482.341Zm0,13.036a5.72,5.72,0,1,0,5.72,5.72A5.721,5.721,0,0,0,684.254,495.377Zm0,13.035a5.719,5.719,0,1,0,5.72,5.72A5.721,5.721,0,0,0,684.254,508.412Zm0,13.036a5.719,5.719,0,1,0,5.72,5.72A5.721,5.721,0,0,0,684.254,521.449Zm0,26.068a5.72,5.72,0,1,0,5.72,5.72A5.721,5.721,0,0,0,684.254,547.517Zm0,13.036a5.72,5.72,0,1,0,5.72,5.72A5.721,5.721,0,0,0,684.254,560.553Zm12.929-273.741a5.72,5.72,0,1,0,5.72,5.72A5.72,5.72,0,0,0,697.183,286.812Zm0,13.037a5.72,5.72,0,1,0,5.72,5.72A5.72,5.72,0,0,0,697.183,299.849Zm0,13.035a5.72,5.72,0,1,0,5.72,5.72A5.719,5.719,0,0,0,697.183,312.884Zm0,13.035a5.72,5.72,0,1,0,5.72,5.72A5.72,5.72,0,0,0,697.183,325.919Zm0,13.035a5.72,5.72,0,1,0,5.72,5.72A5.72,5.72,0,0,0,697.183,338.954Zm0,13.036a5.72,5.72,0,1,0,5.72,5.72A5.72,5.72,0,0,0,697.183,351.99Zm0,13.033a5.72,5.72,0,1,0,5.72,5.72A5.72,5.72,0,0,0,697.183,365.023Zm0,13.037a5.72,5.72,0,1,0,5.72,5.72A5.72,5.72,0,0,0,697.183,378.06Zm0,13.035a5.72,5.72,0,1,0,5.72,5.72A5.72,5.72,0,0,0,697.183,391.095Zm0,13.035a5.72,5.72,0,1,0,5.72,5.72A5.72,5.72,0,0,0,697.183,404.13Zm0,13.035a5.72,5.72,0,1,0,5.72,5.72A5.72,5.72,0,0,0,697.183,417.165Zm0,13.036a5.72,5.72,0,1,0,5.72,5.72A5.72,5.72,0,0,0,697.183,430.2Zm0,13.035a5.72,5.72,0,1,0,5.72,5.72A5.72,5.72,0,0,0,697.183,443.236Zm0,13.035a5.72,5.72,0,1,0,5.72,5.72A5.719,5.719,0,0,0,697.183,456.271Zm0,13.035a5.72,5.72,0,1,0,5.72,5.72A5.72,5.72,0,0,0,697.183,469.306Zm0,13.035a5.72,5.72,0,1,0,5.72,5.72A5.72,5.72,0,0,0,697.183,482.341Zm0,26.071a5.719,5.719,0,1,0,5.72,5.72A5.72,5.72,0,0,0,697.183,508.412Zm0,39.1a5.72,5.72,0,1,0,5.72,5.72A5.72,5.72,0,0,0,697.183,547.517Zm0,13.036a5.72,5.72,0,1,0,5.72,5.72A5.72,5.72,0,0,0,697.183,560.553Zm12.932-273.741a5.72,5.72,0,1,0,5.72,5.72A5.721,5.721,0,0,0,710.116,286.812Zm0,13.037a5.72,5.72,0,1,0,5.72,5.72A5.721,5.721,0,0,0,710.116,299.849Zm0,13.035a5.72,5.72,0,1,0,5.72,5.72A5.72,5.72,0,0,0,710.116,312.884Zm0,13.035a5.72,5.72,0,1,0,5.72,5.72A5.721,5.721,0,0,0,710.116,325.919Zm0,13.035a5.72,5.72,0,1,0,5.72,5.72A5.721,5.721,0,0,0,710.116,338.954Zm0,13.036a5.72,5.72,0,1,0,5.72,5.72A5.721,5.721,0,0,0,710.116,351.99Zm0,13.033a5.72,5.72,0,1,0,5.72,5.72A5.721,5.721,0,0,0,710.116,365.023Zm0,13.037a5.72,5.72,0,1,0,5.72,5.72A5.721,5.721,0,0,0,710.116,378.06Zm0,13.035a5.72,5.72,0,1,0,5.72,5.72A5.721,5.721,0,0,0,710.116,391.095Zm0,13.035a5.72,5.72,0,1,0,5.72,5.72A5.721,5.721,0,0,0,710.116,404.13Zm0,13.035a5.72,5.72,0,1,0,5.72,5.72A5.721,5.721,0,0,0,710.116,417.165Zm0,13.036a5.72,5.72,0,1,0,5.72,5.72A5.721,5.721,0,0,0,710.116,430.2Zm0,13.035a5.72,5.72,0,1,0,5.72,5.72A5.721,5.721,0,0,0,710.116,443.236Zm0,13.035a5.72,5.72,0,1,0,5.72,5.72A5.72,5.72,0,0,0,710.116,456.271Zm0,13.035a5.72,5.72,0,1,0,5.72,5.72A5.721,5.721,0,0,0,710.116,469.306Zm0,13.035a5.72,5.72,0,1,0,5.72,5.72A5.721,5.721,0,0,0,710.116,482.341Zm0,52.143a5.72,5.72,0,1,0,5.72,5.719A5.719,5.719,0,0,0,710.116,534.484Zm0,13.033a5.72,5.72,0,1,0,5.72,5.72A5.721,5.721,0,0,0,710.116,547.517Zm0,26.071a5.72,5.72,0,1,0,5.72,5.72A5.721,5.721,0,0,0,710.116,573.589Zm0,39.106a5.72,5.72,0,1,0,5.72,5.72A5.721,5.721,0,0,0,710.116,612.695Zm0,13.035a5.719,5.719,0,1,0,5.72,5.72A5.721,5.721,0,0,0,710.116,625.73Zm0,13.036a5.72,5.72,0,1,0,5.72,5.719A5.719,5.719,0,0,0,710.116,638.766Zm12.93-338.917a5.72,5.72,0,1,0,5.72,5.72A5.721,5.721,0,0,0,723.045,299.849Zm0,13.035a5.72,5.72,0,1,0,5.72,5.72A5.721,5.721,0,0,0,723.045,312.884Zm0,13.035a5.72,5.72,0,1,0,5.72,5.72A5.722,5.722,0,0,0,723.045,325.919Zm0,13.035a5.72,5.72,0,1,0,5.72,5.72A5.722,5.722,0,0,0,723.045,338.954Zm0,13.036a5.72,5.72,0,1,0,5.72,5.72A5.721,5.721,0,0,0,723.045,351.99Zm0,13.033a5.72,5.72,0,1,0,5.72,5.72A5.722,5.722,0,0,0,723.045,365.023Zm0,13.037a5.72,5.72,0,1,0,5.72,5.72A5.721,5.721,0,0,0,723.045,378.06Zm0,13.035a5.72,5.72,0,1,0,5.72,5.72A5.721,5.721,0,0,0,723.045,391.095Zm0,13.035a5.72,5.72,0,1,0,5.72,5.72A5.722,5.722,0,0,0,723.045,404.13Zm0,13.035a5.72,5.72,0,1,0,5.72,5.72A5.722,5.722,0,0,0,723.045,417.165Zm0,13.036a5.72,5.72,0,1,0,5.72,5.72A5.722,5.722,0,0,0,723.045,430.2Zm0,13.035a5.72,5.72,0,1,0,5.72,5.72A5.722,5.722,0,0,0,723.045,443.236Zm0,13.035a5.72,5.72,0,1,0,5.72,5.72A5.72,5.72,0,0,0,723.045,456.271Zm0,13.035a5.72,5.72,0,1,0,5.72,5.72A5.722,5.722,0,0,0,723.045,469.306Zm0,13.035a5.72,5.72,0,1,0,5.72,5.72A5.722,5.722,0,0,0,723.045,482.341Zm0,13.036a5.72,5.72,0,1,0,5.72,5.72A5.722,5.722,0,0,0,723.045,495.377Zm0,13.035a5.719,5.719,0,1,0,5.72,5.72A5.721,5.721,0,0,0,723.045,508.412Zm0,13.036a5.719,5.719,0,1,0,5.72,5.72A5.722,5.722,0,0,0,723.045,521.449Zm0,26.068a5.72,5.72,0,1,0,5.72,5.72A5.722,5.722,0,0,0,723.045,547.517Zm0,13.036a5.72,5.72,0,1,0,5.72,5.72A5.722,5.722,0,0,0,723.045,560.553Zm0,39.106a5.72,5.72,0,1,0,5.72,5.72A5.722,5.722,0,0,0,723.045,599.66Zm0,13.035a5.72,5.72,0,1,0,5.72,5.72A5.722,5.722,0,0,0,723.045,612.695Zm0,13.035a5.719,5.719,0,1,0,5.72,5.72A5.722,5.722,0,0,0,723.045,625.73Zm0,13.036a5.72,5.72,0,1,0,5.72,5.719A5.72,5.72,0,0,0,723.045,638.766Zm12.931-338.917a5.72,5.72,0,1,0,5.72,5.72A5.719,5.719,0,0,0,735.976,299.849Zm0,13.035a5.72,5.72,0,1,0,5.72,5.72A5.718,5.718,0,0,0,735.976,312.884Zm0,13.035a5.72,5.72,0,1,0,5.72,5.72A5.719,5.719,0,0,0,735.976,325.919Zm0,13.035a5.72,5.72,0,1,0,5.72,5.72A5.719,5.719,0,0,0,735.976,338.954Zm0,13.036a5.72,5.72,0,1,0,5.72,5.72A5.719,5.719,0,0,0,735.976,351.99Zm0,13.033a5.72,5.72,0,1,0,5.72,5.72A5.719,5.719,0,0,0,735.976,365.023Zm0,13.037a5.72,5.72,0,1,0,5.72,5.72A5.719,5.719,0,0,0,735.976,378.06Zm0,13.035a5.72,5.72,0,1,0,5.72,5.72A5.719,5.719,0,0,0,735.976,391.095Zm0,13.035a5.72,5.72,0,1,0,5.72,5.72A5.719,5.719,0,0,0,735.976,404.13Zm0,13.035a5.72,5.72,0,1,0,5.72,5.72A5.719,5.719,0,0,0,735.976,417.165Zm0,13.036a5.72,5.72,0,1,0,5.72,5.72A5.719,5.719,0,0,0,735.976,430.2Zm0,13.035a5.72,5.72,0,1,0,5.72,5.72A5.719,5.719,0,0,0,735.976,443.236Zm0,65.176a5.719,5.719,0,1,0,5.72,5.72A5.719,5.719,0,0,0,735.976,508.412Zm0,13.036a5.719,5.719,0,1,0,5.72,5.72A5.719,5.719,0,0,0,735.976,521.449Zm0,13.035a5.72,5.72,0,1,0,5.72,5.719A5.718,5.718,0,0,0,735.976,534.484Zm0,13.033a5.72,5.72,0,1,0,5.72,5.72A5.719,5.719,0,0,0,735.976,547.517Zm0,39.106a5.72,5.72,0,1,0,5.72,5.72A5.719,5.719,0,0,0,735.976,586.623Zm0,13.036a5.72,5.72,0,1,0,5.72,5.72A5.719,5.719,0,0,0,735.976,599.66Zm0,13.035a5.72,5.72,0,1,0,5.72,5.72A5.719,5.719,0,0,0,735.976,612.695Zm0,13.035a5.719,5.719,0,1,0,5.72,5.72A5.719,5.719,0,0,0,735.976,625.73Zm0,13.036a5.72,5.72,0,1,0,5.72,5.719A5.718,5.718,0,0,0,735.976,638.766Zm12.933-325.883a5.72,5.72,0,1,0,5.72,5.72A5.72,5.72,0,0,0,748.909,312.884Zm0,13.035a5.72,5.72,0,1,0,5.72,5.72A5.721,5.721,0,0,0,748.909,325.919Zm0,13.035a5.72,5.72,0,1,0,5.72,5.72A5.721,5.721,0,0,0,748.909,338.954Zm0,13.036a5.72,5.72,0,1,0,5.72,5.72A5.721,5.721,0,0,0,748.909,351.99Zm0,13.033a5.72,5.72,0,1,0,5.72,5.72A5.721,5.721,0,0,0,748.909,365.023Zm0,13.037a5.72,5.72,0,1,0,5.72,5.72A5.721,5.721,0,0,0,748.909,378.06Zm0,13.035a5.72,5.72,0,1,0,5.72,5.72A5.721,5.721,0,0,0,748.909,391.095Zm0,13.035a5.72,5.72,0,1,0,5.72,5.72A5.721,5.721,0,0,0,748.909,404.13Zm0,13.035a5.72,5.72,0,1,0,5.72,5.72A5.721,5.721,0,0,0,748.909,417.165Zm0,26.071a5.72,5.72,0,1,0,5.72,5.72A5.721,5.721,0,0,0,748.909,443.236Zm0,13.035a5.72,5.72,0,1,0,5.72,5.72A5.72,5.72,0,0,0,748.909,456.271Zm0,91.246a5.72,5.72,0,1,0,5.72,5.72A5.721,5.721,0,0,0,748.909,547.517Zm0,26.071a5.72,5.72,0,1,0,5.72,5.72A5.721,5.721,0,0,0,748.909,573.589Zm0,13.035a5.72,5.72,0,1,0,5.72,5.72A5.721,5.721,0,0,0,748.909,586.623Zm0,13.036a5.72,5.72,0,1,0,5.72,5.72A5.721,5.721,0,0,0,748.909,599.66Zm0,13.035a5.72,5.72,0,1,0,5.72,5.72A5.721,5.721,0,0,0,748.909,612.695Zm0,13.035a5.719,5.719,0,1,0,5.72,5.72A5.721,5.721,0,0,0,748.909,625.73Zm0,13.036a5.72,5.72,0,1,0,5.72,5.719A5.719,5.719,0,0,0,748.909,638.766Zm12.929-351.954a5.72,5.72,0,1,0,5.72,5.72A5.722,5.722,0,0,0,761.838,286.812Zm0,26.071a5.72,5.72,0,1,0,5.72,5.72A5.721,5.721,0,0,0,761.838,312.884Zm0,13.035a5.72,5.72,0,1,0,5.72,5.72A5.722,5.722,0,0,0,761.838,325.919Zm0,13.035a5.72,5.72,0,1,0,5.72,5.72A5.722,5.722,0,0,0,761.838,338.954Zm0,13.036a5.72,5.72,0,1,0,5.72,5.72A5.722,5.722,0,0,0,761.838,351.99Zm0,13.033a5.72,5.72,0,1,0,5.72,5.72A5.722,5.722,0,0,0,761.838,365.023Zm0,13.037a5.72,5.72,0,1,0,5.72,5.72A5.722,5.722,0,0,0,761.838,378.06Zm0,13.035a5.72,5.72,0,1,0,5.72,5.72A5.722,5.722,0,0,0,761.838,391.095Zm0,13.035a5.72,5.72,0,1,0,5.72,5.72A5.722,5.722,0,0,0,761.838,404.13Zm0,13.035a5.72,5.72,0,1,0,5.72,5.72A5.722,5.722,0,0,0,761.838,417.165Zm0,26.071a5.72,5.72,0,1,0,5.72,5.72A5.722,5.722,0,0,0,761.838,443.236Zm0,104.281a5.72,5.72,0,1,0,5.72,5.72A5.722,5.722,0,0,0,761.838,547.517Zm0,13.036a5.72,5.72,0,1,0,5.72,5.72A5.722,5.722,0,0,0,761.838,560.553Zm0,26.07a5.72,5.72,0,1,0,5.72,5.72A5.722,5.722,0,0,0,761.838,586.623Zm0,13.036a5.72,5.72,0,1,0,5.72,5.72A5.722,5.722,0,0,0,761.838,599.66Zm0,13.035a5.72,5.72,0,1,0,5.72,5.72A5.722,5.722,0,0,0,761.838,612.695Zm0,13.035a5.719,5.719,0,1,0,5.72,5.72A5.722,5.722,0,0,0,761.838,625.73Zm0,13.036a5.72,5.72,0,1,0,5.72,5.719A5.72,5.72,0,0,0,761.838,638.766Zm12.931-351.954a5.72,5.72,0,1,0,5.72,5.72A5.719,5.719,0,0,0,774.769,286.812Zm0,13.037a5.72,5.72,0,1,0,5.72,5.72A5.719,5.719,0,0,0,774.769,299.849Zm0,13.035a5.72,5.72,0,1,0,5.72,5.72A5.718,5.718,0,0,0,774.769,312.884Zm0,13.035a5.72,5.72,0,1,0,5.72,5.72A5.719,5.719,0,0,0,774.769,325.919Zm0,13.035a5.72,5.72,0,1,0,5.72,5.72A5.719,5.719,0,0,0,774.769,338.954Zm0,13.036a5.72,5.72,0,1,0,5.72,5.72A5.719,5.719,0,0,0,774.769,351.99Zm0,13.033a5.72,5.72,0,1,0,5.72,5.72A5.719,5.719,0,0,0,774.769,365.023Zm0,13.037a5.72,5.72,0,1,0,5.72,5.72A5.719,5.719,0,0,0,774.769,378.06Zm0,13.035a5.72,5.72,0,1,0,5.72,5.72A5.719,5.719,0,0,0,774.769,391.095Zm0,13.035a5.72,5.72,0,1,0,5.72,5.72A5.719,5.719,0,0,0,774.769,404.13Zm0,13.035a5.72,5.72,0,1,0,5.72,5.72A5.719,5.719,0,0,0,774.769,417.165Zm0,13.036a5.72,5.72,0,1,0,5.72,5.72A5.719,5.719,0,0,0,774.769,430.2Zm0,13.035a5.72,5.72,0,1,0,5.72,5.72A5.719,5.719,0,0,0,774.769,443.236Zm0,117.317a5.72,5.72,0,1,0,5.72,5.72A5.719,5.719,0,0,0,774.769,560.553Zm0,13.035a5.72,5.72,0,1,0,5.72,5.72A5.719,5.719,0,0,0,774.769,573.589Zm0,13.035a5.72,5.72,0,1,0,5.72,5.72A5.719,5.719,0,0,0,774.769,586.623Zm0,13.036a5.72,5.72,0,1,0,5.72,5.72A5.719,5.719,0,0,0,774.769,599.66Zm0,13.035a5.72,5.72,0,1,0,5.72,5.72A5.719,5.719,0,0,0,774.769,612.695Zm0,13.035a5.719,5.719,0,1,0,5.72,5.72A5.719,5.719,0,0,0,774.769,625.73Zm0,13.036a5.72,5.72,0,1,0,5.72,5.719A5.718,5.718,0,0,0,774.769,638.766Zm0,13.034a5.72,5.72,0,1,0,5.72,5.72A5.719,5.719,0,0,0,774.769,651.8ZM787.7,286.812a5.72,5.72,0,1,0,5.719,5.72A5.722,5.722,0,0,0,787.7,286.812Zm0,26.071a5.72,5.72,0,1,0,5.719,5.72A5.721,5.721,0,0,0,787.7,312.884Zm0,13.035a5.72,5.72,0,1,0,5.719,5.72A5.722,5.722,0,0,0,787.7,325.919Zm0,13.035a5.72,5.72,0,1,0,5.719,5.72A5.722,5.722,0,0,0,787.7,338.954Zm0,13.036a5.72,5.72,0,1,0,5.719,5.72A5.722,5.722,0,0,0,787.7,351.99Zm0,13.033a5.72,5.72,0,1,0,5.719,5.72A5.722,5.722,0,0,0,787.7,365.023Zm0,52.141a5.72,5.72,0,1,0,5.719,5.72A5.722,5.722,0,0,0,787.7,417.165Zm0,143.389a5.72,5.72,0,1,0,5.719,5.72A5.722,5.722,0,0,0,787.7,560.553Zm0,13.035a5.72,5.72,0,1,0,5.719,5.72A5.722,5.722,0,0,0,787.7,573.589Zm0,26.071a5.72,5.72,0,1,0,5.719,5.72A5.722,5.722,0,0,0,787.7,599.66Zm0,13.035a5.72,5.72,0,1,0,5.719,5.72A5.722,5.722,0,0,0,787.7,612.695Zm0,13.035a5.719,5.719,0,1,0,5.719,5.72A5.722,5.722,0,0,0,787.7,625.73Zm0,13.036a5.72,5.72,0,1,0,5.719,5.719A5.72,5.72,0,0,0,787.7,638.766Zm0,13.034a5.72,5.72,0,1,0,5.719,5.72A5.722,5.722,0,0,0,787.7,651.8Zm0,26.071a5.72,5.72,0,1,0,5.719,5.72A5.722,5.722,0,0,0,787.7,677.871Zm12.931-364.987a5.72,5.72,0,1,0,5.72,5.72A5.721,5.721,0,0,0,800.631,312.884Zm0,13.035a5.72,5.72,0,1,0,5.72,5.72A5.722,5.722,0,0,0,800.631,325.919Zm0,13.035a5.72,5.72,0,1,0,5.72,5.72A5.722,5.722,0,0,0,800.631,338.954Zm0,13.036a5.72,5.72,0,1,0,5.72,5.72A5.722,5.722,0,0,0,800.631,351.99Zm0,208.563a5.72,5.72,0,1,0,5.72,5.72A5.722,5.722,0,0,0,800.631,560.553Zm0,52.141a5.72,5.72,0,1,0,5.72,5.72A5.722,5.722,0,0,0,800.631,612.695Zm0,13.035a5.719,5.719,0,1,0,5.72,5.72A5.722,5.722,0,0,0,800.631,625.73Zm0,13.036a5.72,5.72,0,1,0,5.72,5.719A5.72,5.72,0,0,0,800.631,638.766Zm0,13.034a5.72,5.72,0,1,0,5.72,5.72A5.722,5.722,0,0,0,800.631,651.8Zm12.932-338.916a5.72,5.72,0,1,0,5.719,5.72A5.719,5.719,0,0,0,813.564,312.884Zm0,13.035a5.72,5.72,0,1,0,5.719,5.72A5.72,5.72,0,0,0,813.564,325.919Zm0,13.035a5.72,5.72,0,1,0,5.719,5.72A5.72,5.72,0,0,0,813.564,338.954Zm0,13.036a5.72,5.72,0,1,0,5.719,5.72A5.72,5.72,0,0,0,813.564,351.99Zm0,13.033a5.72,5.72,0,1,0,5.719,5.72A5.72,5.72,0,0,0,813.564,365.023Zm0,13.037a5.72,5.72,0,1,0,5.719,5.72A5.72,5.72,0,0,0,813.564,378.06Zm0,13.035a5.72,5.72,0,1,0,5.719,5.72A5.72,5.72,0,0,0,813.564,391.095Zm0,13.035a5.72,5.72,0,1,0,5.719,5.72A5.72,5.72,0,0,0,813.564,404.13Zm0,156.424a5.72,5.72,0,1,0,5.719,5.72A5.72,5.72,0,0,0,813.564,560.553Zm12.93-234.635a5.72,5.72,0,1,0,5.72,5.72A5.722,5.722,0,0,0,826.493,325.919Zm0,13.035a5.72,5.72,0,1,0,5.72,5.72A5.722,5.722,0,0,0,826.493,338.954Zm0,13.036a5.72,5.72,0,1,0,5.72,5.72A5.722,5.722,0,0,0,826.493,351.99Zm0,13.033a5.72,5.72,0,1,0,5.72,5.72A5.722,5.722,0,0,0,826.493,365.023Zm0,13.037a5.72,5.72,0,1,0,5.72,5.72A5.722,5.722,0,0,0,826.493,378.06Zm0,195.529a5.72,5.72,0,1,0,5.72,5.72A5.722,5.722,0,0,0,826.493,573.589Zm12.931-260.7a5.72,5.72,0,1,0,5.72,5.72A5.72,5.72,0,0,0,839.424,312.884Zm0,13.035a5.72,5.72,0,1,0,5.72,5.72A5.721,5.721,0,0,0,839.424,325.919Zm0,13.035a5.72,5.72,0,1,0,5.72,5.72A5.721,5.721,0,0,0,839.424,338.954Zm0,13.036a5.72,5.72,0,1,0,5.72,5.72A5.721,5.721,0,0,0,839.424,351.99Zm0,325.881a5.72,5.72,0,1,0,5.72,5.72A5.721,5.721,0,0,0,839.424,677.871Zm12.929-364.987a5.72,5.72,0,1,0,5.72,5.72A5.721,5.721,0,0,0,852.354,312.884Zm0,13.035a5.72,5.72,0,1,0,5.72,5.72A5.722,5.722,0,0,0,852.354,325.919Zm0,13.035a5.72,5.72,0,1,0,5.72,5.72A5.722,5.722,0,0,0,852.354,338.954Zm0,13.036a5.72,5.72,0,1,0,5.72,5.72A5.722,5.722,0,0,0,852.354,351.99Zm0,299.81a5.72,5.72,0,1,0,5.72,5.72A5.722,5.722,0,0,0,852.354,651.8Zm0,13.035a5.72,5.72,0,1,0,5.72,5.72A5.722,5.722,0,0,0,852.354,664.835Zm12.932-351.951a5.72,5.72,0,1,0,5.72,5.72A5.721,5.721,0,0,0,865.286,312.884Zm0,13.035a5.72,5.72,0,1,0,5.72,5.72A5.722,5.722,0,0,0,865.286,325.919Zm0,13.035a5.72,5.72,0,1,0,5.72,5.72A5.722,5.722,0,0,0,865.286,338.954Zm0,312.846a5.72,5.72,0,1,0,5.72,5.72A5.722,5.722,0,0,0,865.286,651.8Zm12.931-325.881a5.72,5.72,0,1,0,5.72,5.72A5.72,5.72,0,0,0,878.217,325.919Zm0,13.035a5.72,5.72,0,1,0,5.72,5.72A5.721,5.721,0,0,0,878.217,338.954Zm12.929,11.441a5.72,5.72,0,1,0-5.719-5.72A5.721,5.721,0,0,0,891.147,350.394Zm0,1.6a5.72,5.72,0,1,0,5.72,5.72A5.72,5.72,0,0,0,891.147,351.99Z" transform="translate(-19.058 -234.671)" fill="#f0f0f0"/>
</svg>
