<svg xmlns="http://www.w3.org/2000/svg" xmlns:xlink="http://www.w3.org/1999/xlink" version="1.1">
    <!-- для css -->
    <symbol id="cloud-computing" viewBox="0 0 64 64">
        <path d="M48.7919998,22.6142502c-0.4766006,0-0.9570999,0.0224991-1.4336014,0.0664005           c-2.7841988-7.0195007-9.6025848-11.6797009-17.2167988-11.6797009c-9.6581993,0-17.5868988,7.3096008-18.4403992,16.8076           C5.1699009,28.2822495,0.0010008,33.7431488,0.0010008,40.3867493c0,6.9550018,5.6629996,12.6123009,12.6240005,12.6123009           h36.1669998c8.3857002,0,15.2070007-6.8154984,15.2070007-15.1924019           C63.9990005,29.4296494,57.1777,22.6142502,48.7919998,22.6142502z M48.7919998,51.0009499H12.625001           c-5.8594003,0-10.6260004-4.7616997-10.6260004-10.6142006c0-5.8516006,4.7665997-10.6132984,10.6406002-10.6132984           c0.5362139,0,0.9765997-0.4229012,0.9990997-0.9580002c0.3603001-8.8691998,7.6093006-15.8164005,16.5028992-15.8164005           c7.0342159,0,13.3076,4.4589996,15.6093998,11.0946999c0.1581993,0.4550991,0.6268997,0.7313995,1.089817,0.6620998           c0.6444817-0.0946999,1.3007812-0.1434994,1.9511833-0.1434994c7.2831993,0,13.2089996,5.9188995,13.2089996,13.1942978           S56.0751991,51.0009499,48.7919998,51.0009499z"/>
        <path fill="currentColor"
              d="M32.4968147,25.40415l0.7804871-0.6707001c0.4189987-0.3603992,0.4667969-0.9913006,0.1075134-1.4102001           c-0.3604164-0.419899-0.9922142-0.4657993-1.4102154-0.107399l-2.8262005,2.4277           c-0.4188995,0.3603992-0.4667988,0.9911995-0.107399,1.4101982l2.4277,2.8271008           c0.1982994,0.2304993,0.4776001,0.3486004,0.7588005,0.3486004c0.2314987,0,0.4628983-0.0790997,0.6513977-0.2411995           c0.4189148-0.3603001,0.4668007-0.9912014,0.1074028-1.4101009l-1.0659008-1.2411003           c3.7255001,0.3786011,6.6420994,3.5335007,6.6420994,7.3573017c0,4.0780983-3.3174019,7.3964996-7.3955002,7.3964996           s-7.3955002-3.3184013-7.3955002-7.3964996c0-0.5527-0.4473-1-1-1c-0.5527992,0-1,0.4473-1,1           c0,5.1815987,4.2147999,9.3964996,9.3955002,9.3964996c5.1805992,0,9.3955002-4.214901,9.3955002-9.3964996           C40.5625,29.9661503,37.0483017,26.0535507,32.4968147,25.40415z"/>
    </symbol>
    <view id="arrow-ciew" viewBox="0 0 35 30"/>
    <view id="mail-view" viewBox="50 0 24 18"/>
    <view id="icon-name-view" viewBox="100 0 18 23"/>
    <view id="icon-phone-view" viewBox="150 0 14 27"/>
    <view id="icon-mail-view" viewBox="200 0 24 18"/>
    <view id="search-view" viewBox="250 0 28 29"/>
    <view id="search2-view" viewBox="300 0 18 19"/>

    <use xlink:href="#arrow" style="stroke: #001E3F;" width="35" height="30" x="0" y="0"/>
    <use xlink:href="#mail" style="fill:#003265;" width="24" height="18" x="50" y="0"/>
    <use xlink:href="#icon-name" style="fill:#003265;" width="18" height="23" x="100" y="0"/>
    <use xlink:href="#icon-phone" style="fill:#003265;" width="14" height="27" x="150" y="0"/>
    <use xlink:href="#icon-mail" style="fill:#003265;" width="24" height="18" x="200" y="0"/>
    <use xlink:href="#search" style="stroke:#C2C2C2; " width="28" height="29" x="250" y="0"/>
    <use xlink:href="#search2" style="stroke:#C2C2C2; " width="18" height="19" x="300" y="0"/>

    <!-- для html -->
    <symbol viewBox="0 0 117 26" id="logo">
        <g transform="translate(-601.652 -70)">
            <g transform="translate(601.652 70)">
                <g transform="translate(0 0.284)">
                    <path d="M133.293,494.7h-1.555v4.585h-.506V494.7h-1.555v-.477h3.616v.477Z"
                          transform="translate(-120.269 -494.226)"/>
                    <path d="M153.438,494.227v5.062h-.506v-2.365h-2.748v2.365h-.506v-5.062h.506v2.22h2.748v-2.22Z"
                          transform="translate(-131.232 -494.227)"/>
                    <path d="M171.464,494.227v5.062h-.507v-5.062Z" transform="translate(-142.898 -494.227)"/>
                    <path d="M188.8,494.227v5.062h-.434l-2.821-4.122v4.122h-.507v-5.062h.434l2.821,4.122v-4.122Z"
                          transform="translate(-150.616 -494.227)"/>
                    <path d="M209.2,499.289l-2.372-2.452v2.452h-.506v-5.062h.506v2.314l2.3-2.314h.665l-2.43,2.458,2.5,2.6Z"
                          transform="translate(-162.282 -494.227)"/>
                    <path d="M243.052,494.7H241.5v4.585h-.506V494.7h-1.555v-.477h3.616v.477Z"
                          transform="translate(-239.437 -484.226)"/>
                    <path d="M261.36,497.264h-1.417v2.025h-.507v-5.062h2.025a1.516,1.516,0,0,1,.427,2.972l1.237,2.09h-.579Zm-1.417-.477h1.518a1.042,1.042,0,0,0,0-2.083h-1.518Z"
                          transform="translate(-250.4 -484.226)"/>
                    <path d="M281.882,498.045h-2.4l-.47,1.244h-.535l1.946-5.062h.52l1.945,5.062h-.535Zm-.181-.478-1.02-2.712-1.02,2.712Z"
                          transform="translate(-260.837 -484.227)"/>
                    <path d="M298.316,494.227h.549l1.576,4.39,1.577-4.39h.549l-1.866,5.062h-.521Z"
                          transform="translate(-271.713 -484.227)"/>
                    <path d="M322.529,498.812v.478h-2.965v-5.062h2.929v.477H320.07V496.5h2.242v.478H320.07v1.837h2.459Z"
                          transform="translate(-283.361 -484.227)"/>
                    <path d="M341.265,498.812v.478h-2.82v-5.062h.506v4.585Z" transform="translate(-293.711 -484.227)"/>
                    <path d="M373.74,494.7h-1.555v4.585h-.506V494.7h-1.555v-.477h3.616v.477Z"
                          transform="translate(-354.078 -474.226)"/>
                    <path d="M393.089,498.812v.478h-2.965v-5.062h2.929v.477H390.63V496.5h2.242v.478H390.63v1.837h2.459Z"
                          transform="translate(-365.041 -474.227)"/>
                    <path d="M408.283,496.652a2.581,2.581,0,0,1,2.655-2.618,2.492,2.492,0,0,1,2.191,1.244l-.448.26a1.943,1.943,0,0,0-1.743-1.012,2.126,2.126,0,1,0,0,4.252,1.942,1.942,0,0,0,1.743-1.013l.448.254a2.481,2.481,0,0,1-2.191,1.252A2.582,2.582,0,0,1,408.283,496.652Z"
                          transform="translate(-374.995 -474.121)"/>
                    <path d="M435,494.227v5.062H434.5v-2.365H431.75v2.365h-.506v-5.062h.506v2.22H434.5v-2.22Z"
                          transform="translate(-387.582 -474.227)"/>
                </g>
                <g transform="translate(56.347)">
                    <path d="M159.532,332.747H129.358v7.574h8.853v18.152h7.869V340.321h13.452Z"
                          transform="translate(-129.358 -332.747)"/>
                    <path d="M233.7,398.065h5.986v7.013h7.869v-7.013h5.433V390.49H233.7Z"
                          transform="translate(-213.524 -379.323)"/>
                    <path d="M304.94,332.747v7.574h9.169v18.152h8.141V340.321h8.582v-7.574Z"
                          transform="translate(-270.983 -332.747)"/>
                </g>
            </g>
        </g>
    </symbol>

    <symbol viewBox="0 0 35 30" id="arrow">
        <g transform="translate(0 0.707)">
            <line x1="34" transform="translate(0 14)" stroke-width="2"/>
            <line x1="14" y1="14" transform="translate(20)" stroke-width="2"/>
            <line x1="14" y2="14" transform="translate(20 14)" stroke-width="2"/>
        </g>
    </symbol>

    <symbol viewBox="0 0 21 21" id="facebook">
        <path d="M10.05,0A10.05,10.05,0,1,0,20.1,10.05,10.05,10.05,0,0,0,10.05,0Zm3.741,5.529a6.21,6.21,0,0,0-2.381.2c-.443.549-.263,1.721-.3,2.679h2.58c-.069.89-.279,1.639-.3,2.58H11.211c-.231,2.017-.033,4.465-.1,6.647H8.433V10.986H6.251c-.088-.467.052-1.6,0-2.58H8.334c-.345-3.864,1.39-6.132,5.457-5.258Z"/>
    </symbol>
    <symbol viewBox="0 0 31 31" id="in">
        <g transform="translate(0 0)">
            <path d="M7.316.585C9.712.443,12.4.555,14.9.555h7.553c2.724,0,4.437.38,5.935,1.619a6.685,6.685,0,0,1,2.338,5.216c.1,2.618,0,5.032,0,7.554V22.5c0,2.748-.35,4.473-1.619,5.935a6.867,6.867,0,0,1-5.216,2.308c-2.482.1-5.021.03-7.524.03-2.564,0-5.05.014-7.553,0C6.2,30.755,4.377,30.41,2.91,29.181A6.777,6.777,0,0,1,.542,23.995c-.117-2.4-.03-5.055-.03-7.523V8.917a14.259,14.259,0,0,1,.3-3.477A6.257,6.257,0,0,1,4.2,1.274,8.542,8.542,0,0,1,7.316.585Zm1.2,4.406A5.776,5.776,0,0,0,5.428,7.509a9.741,9.741,0,0,0-.959,4.616c-.067,1.93-.085,3.766,0,5.545.1,2.14,0,3.722.479,5.1a5.711,5.711,0,0,0,2.518,3.088,9.864,9.864,0,0,0,4.616.959c1.928.054,3.666.085,5.545,0a19.264,19.264,0,0,0,5.1-.479,5.65,5.65,0,0,0,3.087-2.518c1.281-2.219,1-6.7.959-10.161a17.479,17.479,0,0,0-.479-5.1,5.7,5.7,0,0,0-2.518-3.088,10,10,0,0,0-4.616-.959c-1.819-.073-3.857-.077-5.485,0C11.58,4.611,9.937,4.494,8.515,4.991Z"
                  transform="translate(-0.481 -0.513)" fill-rule="evenodd"/>
            <path d="M46.1,40.378c2.111-.1,4.622-.042,6.774,0,2.45.048,3.995.4,4.946,1.948.737,1.2.719,3.592.719,5.635,0,1.729.057,4.241-.09,6.235-.148,2.01-.8,3.3-2.4,3.957-1.45.6-3.8.479-5.845.479a48.059,48.059,0,0,1-6.2-.15,3.808,3.808,0,0,1-3.447-2.877c-.448-1.559-.3-4.055-.3-6.055a29.358,29.358,0,0,1,.27-6.055c.585-2.353,2.372-3.117,5.515-3.117C46.061,40.378,46.081,40.379,46.1,40.378Zm8.033,3.747a1.371,1.371,0,0,0,2.578-.57,1.289,1.289,0,0,0-1.469-1.349A1.327,1.327,0,0,0,54.134,44.125Zm-9.052,1.589a4.951,4.951,0,0,0-1.049,1.739,5.825,5.825,0,0,0,1.409,6.174,5.531,5.531,0,0,0,4.017,1.589A5.672,5.672,0,0,0,53.415,53.6a5.478,5.478,0,0,0,1.709-3.9,5.894,5.894,0,0,0-1.468-4.047,5.746,5.746,0,0,0-8.573.06Z"
                  transform="translate(-34.26 -34.342)" fill-rule="evenodd"/>
            <path d="M79.949,76.738a3.764,3.764,0,0,1,2.847.989A3.731,3.731,0,1,1,76.5,80.454a3.752,3.752,0,0,1,3.447-3.716Z"
                  transform="translate(-65.08 -65.276)" fill-rule="evenodd"/>
        </g>
    </symbol>
    <symbol viewBox="0 0 31 31" id="li">
        <path d="M4.339,1.688a52.841,52.841,0,0,1,6.474-.049H26.823a11.35,11.35,0,0,1,3.014.148A3.337,3.337,0,0,1,31.814,4.01a16.9,16.9,0,0,1,.049,3.212V26.494a13.886,13.886,0,0,1-.1,3.113,3.2,3.2,0,0,1-2.224,2.125,17.309,17.309,0,0,1-3.212.049H6.908a11.669,11.669,0,0,1-3.064-.148,3.11,3.11,0,0,1-2.026-2.075,13.414,13.414,0,0,1-.1-3.163V6.925a10.33,10.33,0,0,1,.247-3.41A2.958,2.958,0,0,1,4.339,1.688ZM5.821,7.963a2.738,2.738,0,0,0,3.014,3.163,2.682,2.682,0,0,0,2.372-2.471A2.636,2.636,0,0,0,8.391,5.74,2.6,2.6,0,0,0,5.821,7.963Zm21.5,10.131A5.244,5.244,0,0,0,22.474,13.4c-2.08-.158-3.228,1.052-4.151,1.977V13.745c-1.417-.115-3.047-.017-4.546-.049v13.54h4.546v-4.3a20.591,20.591,0,0,1,.049-4.3c.624-2.377,4.176-1.92,4.448.445.286,2.488-.217,5.671,0,8.154h4.5C27.145,24.217,27.549,20.726,27.317,18.094ZM6.266,13.844V27.236h4.5V13.7H6.315C6.258,13.7,6.262,13.774,6.266,13.844Z"
              transform="translate(-1.678 -1.556)" fill-rule="evenodd"/>
    </symbol>

    <symbol viewBox="0 0 84 80" id="triangle">
        <g transform="translate(0 32.467) rotate(-30)">
            <path d="M29.091,0,64.934,54.283,0,50.384Z" stroke="none"/>
            <path d="M 29.20478820800781 3.802318572998047 L 3.350135803222656 48.58152389526367 L 61.06112289428711 52.04657363891602 L 29.20478820800781 3.802318572998047 M 29.09074401855469 -3.814697265625e-06 L 64.93436431884766 54.2827262878418 L 0 50.38397598266602 L 29.09074401855469 -3.814697265625e-06 Z"
                  stroke="none" fill="#fff"/>
        </g>
    </symbol>

    <symbol viewBox="0 0 24 18" id="mail">
        <g transform="translate(-0.5 -0.5)">
            <g transform="translate(3.519 10.444)">
                <line y1="5.037" x2="6.296" transform="translate(0)" fill="none" stroke="#003265" stroke-linecap="round"
                      stroke-linejoin="round" stroke-miterlimit="10" stroke-width="1"/>
                <line x2="6.296" y2="5.037" transform="translate(11.333)" fill="none" stroke="#003265"
                      stroke-linecap="round" stroke-linejoin="round" stroke-miterlimit="10" stroke-width="1"/>
            </g>
            <path d="M10.012,10.011l6.926,6.926a2.885,2.885,0,0,0,3.778,0l6.926-6.926"
                  transform="translate(-6.493 -6.493)" fill="none" stroke="#003265" stroke-linecap="round"
                  stroke-linejoin="round" stroke-miterlimit="10" stroke-width="1"/>
            <path d="M22.463,18H2.2A1.2,1.2,0,0,1,1,16.8V2.2A1.2,1.2,0,0,1,2.2,1h20.26a1.2,1.2,0,0,1,1.2,1.2V16.8A1.2,1.2,0,0,1,22.463,18Z"
                  fill="none" stroke="#003265" stroke-linecap="round" stroke-linejoin="round" stroke-miterlimit="10"
                  stroke-width="1"/>
        </g>
    </symbol>

    <symbol viewBox="0 0 18 30" id="logo_footer">
        <path d="M4.985,29.138A15.264,15.264,0,0,0,23.027,39.53l-6-10.392Z" transform="translate(-4.985 -9.643)"/>
        <path d="M23.056,8.744A15.263,15.263,0,0,0,5.028,19.159l12,.008Z" transform="translate(-4.988 -8.356)"/>
    </symbol>

    <symbol viewBox="0 0 28 29" id="search">
        <g transform="translate(-181 -114)">
            <g transform="translate(181 114)" fill="transparent" stroke-width="4">
                <circle cx="11.5" cy="11.5" r="11.5" stroke="none"/>
                <circle cx="11.5" cy="11.5" r="9.5" fill="none"/>
            </g>
            <line x1="9" y1="9" transform="translate(198.5 132.5)" fill="none" stroke-width="4"/>
        </g>
    </symbol>

    <symbol viewBox="0 0 19 20" id="search2">
        <g transform="translate(-180.664 -113.5)">
            <g transform="translate(181 114)">
                <g transform="translate(-0.336 -0.5)" fill="none"
                   stroke-width="4">
                    <circle cx="8" cy="8" r="8" stroke="none"/>
                    <circle cx="8" cy="8" r="6" fill="none"/>
                </g>
                <line x1="6.055" y1="6.055" transform="translate(11.773 12.445)"
                      fill="none"  stroke-width="4"/>
            </g>
        </g>
    </symbol>

    <symbol viewBox="0 0 100 140" id="icon--profit-1">
        <g id="plane_" transform="translate(0.564 0.326)">
            <line x1="18" y2="19" transform="translate(0.162 31.381)" fill="none" stroke-linejoin="round"
                  stroke-miterlimit="10" stroke-width="2"/>
            <line x1="17" y2="18" transform="translate(50.162 84.381)" fill="none" stroke-linejoin="round"
                  stroke-miterlimit="10" stroke-width="2"/>
            <path d="M27.631,28.191,8.907,25.071l-3.12,6.24,12.48,6.242" transform="translate(5.218 29.919)" fill="none"
                  stroke-linejoin="round" stroke-miterlimit="10" stroke-width="2"/>
            <path d="M25.047,30.728l3.12,18.722-6.24,3.12-6.24-12.48" transform="translate(17.163 36.744)" fill="none"
                  stroke-linejoin="round" stroke-miterlimit="10" stroke-width="2"/>
            <path d="M58.738,17.607,6.707,6.687v6.24L29.1,25.409l10.92,10.92" transform="translate(6.328 7.739)"
                  fill="none" stroke-linejoin="round" stroke-miterlimit="10" stroke-width="2"/>
            <path d="M45.015,16.126,55.937,68.157H49.695L37.213,45.77,26.293,34.846"
                  transform="translate(29.959 19.127)" fill="none" stroke-linejoin="round" stroke-miterlimit="10"
                  stroke-width="2"/>
            <path d="M11.04,77.03c3.111,3.111,16.919-7.557,23.4-14.042L76.568,20.861c6.143-6.143,12.244-15.84,9.362-18.722S73.351,5.358,67.208,11.5L25.084,53.625C18.6,60.11,7.929,73.918,11.04,77.03Z"
                  transform="translate(10.885 1.364)" fill="none" stroke-linejoin="round" stroke-miterlimit="10"
                  stroke-width="2"/>
            <line x1="8" y2="9" transform="translate(53.162 69.381)" fill="none" stroke-linejoin="round"
                  stroke-miterlimit="10" stroke-width="2"/>
            <line x1="12" y2="12" transform="translate(35.162 0.381)" fill="none" stroke-linejoin="round"
                  stroke-miterlimit="10" stroke-width="2"/>
        </g>
    </symbol>
    <symbol viewBox="0 0 110 113" id="icon--profit-2">
        <g id="worldwide" transform="translate(1.001 1.198)">
            <g id="Group_12" data-name="Group 12" transform="translate(14.352 22.806)">
                <g id="Group_11" data-name="Group 11" transform="translate(0 0)">
                    <line id="Line_11" data-name="Line 11" x2="72.791" transform="translate(0 36.401)" fill="none"
                          stroke-linecap="round" stroke-linejoin="round" stroke-miterlimit="10" stroke-width="2"/>
                    <line id="Line_12" data-name="Line 12" y2="36.433" transform="translate(36.395 0.005)" fill="none"
                          stroke-linecap="round" stroke-linejoin="round" stroke-miterlimit="10" stroke-width="2"/>
                    <path id="Path_6" data-name="Path 6" d="M8.947,48.593a36.4,36.4,0,1,1,72.8.056"
                          transform="translate(-8.947 -12.155)" fill="none" stroke-linecap="round"
                          stroke-linejoin="round" stroke-miterlimit="10" stroke-width="2"/>
                    <path id="Path_7" data-name="Path 7" d="M34.8,12.155s-19.513,7.792-19.513,36.4"
                          transform="translate(1.597 -12.155)" fill="none" stroke-linecap="round"
                          stroke-linejoin="round" stroke-miterlimit="10" stroke-width="2"/>
                    <path id="Path_8" data-name="Path 8" d="M15.291,25.829" transform="translate(1.597 10.572)"
                          fill="none" stroke-linecap="round" stroke-linejoin="round" stroke-miterlimit="10"
                          stroke-width="2"/>
                    <path id="Path_9" data-name="Path 9" d="M22.621,12.155s19.513,7.792,19.513,36.4"
                          transform="translate(13.78 -12.155)" fill="none" stroke-linecap="round"
                          stroke-linejoin="round" stroke-miterlimit="10" stroke-width="2"/>
                    <path id="Path_10" data-name="Path 10" d="M29.95,25.829" transform="translate(25.961 10.572)"
                          fill="none" stroke-linecap="round" stroke-linejoin="round" stroke-miterlimit="10"
                          stroke-width="2"/>
                    <path id="Path_11" data-name="Path 11" d="M38.418,26.545C18.317,26.545,13.113,16,13.113,16"
                          transform="translate(-2.023 -5.76)" fill="none" stroke-linecap="round" stroke-linejoin="round"
                          stroke-miterlimit="10" stroke-width="2"/>
                    <path id="Path_12" data-name="Path 12" d="M47.928,16s-5.2,10.542-25.305,10.542"
                          transform="translate(13.783 -5.761)" fill="none" stroke-linecap="round"
                          stroke-linejoin="round" stroke-miterlimit="10" stroke-width="2"/>
                    <path id="Path_13" data-name="Path 13" d="M28.528,18.774" transform="translate(23.597 -1.154)"
                          fill="#36b5d0" stroke-miterlimit="10" stroke-width="2"/>
                    <line id="Line_13" data-name="Line 13" y1="36.435" transform="translate(36.406 36.401)" fill="none"
                          stroke-linecap="round" stroke-linejoin="round" stroke-miterlimit="10" stroke-width="2"/>
                    <path id="Path_14" data-name="Path 14" d="M81.747,25.843a36.4,36.4,0,1,1-72.8,0"
                          transform="translate(-8.945 10.595)" fill="none" stroke-linecap="round"
                          stroke-linejoin="round" stroke-miterlimit="10" stroke-width="2"/>
                    <path id="Path_15" data-name="Path 15" d="M22.621,62.244s19.513-7.792,19.513-36.4"
                          transform="translate(13.78 10.595)" fill="none" stroke-linecap="round" stroke-linejoin="round"
                          stroke-miterlimit="10" stroke-width="2"/>
                    <path id="Path_16" data-name="Path 16" d="M29.95,25.843" transform="translate(25.961 10.595)"
                          fill="none" stroke-linecap="round" stroke-linejoin="round" stroke-miterlimit="10"
                          stroke-width="2"/>
                    <path id="Path_17" data-name="Path 17" d="M34.8,62.244s-19.513-7.792-19.513-36.4"
                          transform="translate(1.597 10.595)" fill="none" stroke-linecap="round" stroke-linejoin="round"
                          stroke-miterlimit="10" stroke-width="2"/>
                    <path id="Path_18" data-name="Path 18" d="M15.291,25.843" transform="translate(1.597 10.595)"
                          fill="none" stroke-linecap="round" stroke-linejoin="round" stroke-miterlimit="10"
                          stroke-width="2"/>
                    <path id="Path_19" data-name="Path 19" d="M47.928,42.251s-5.2-10.542-25.305-10.542"
                          transform="translate(13.783 20.344)" fill="none" stroke-linecap="round"
                          stroke-linejoin="round" stroke-miterlimit="10" stroke-width="2"/>
                    <path id="Path_20" data-name="Path 20" d="M13.112,42.251s5.207-10.542,25.305-10.542"
                          transform="translate(-2.025 20.344)" fill="none" stroke-linecap="round"
                          stroke-linejoin="round" stroke-miterlimit="10" stroke-width="2"/>
                    <path id="Path_21" data-name="Path 21" d="M16.713,32.9" transform="translate(3.96 22.321)"
                          fill="#36b5d0" stroke-miterlimit="10" stroke-width="2"/>
                </g>
            </g>
            <g id="Group_16" data-name="Group 16" transform="translate(0 0)">
                <g id="Group_13" data-name="Group 13">
                    <path id="Path_22" data-name="Path 22"
                          d="M46.506,4.707c-3.511,7.872-11.769,8.2-21.214,14.268A47.835,47.835,0,0,0,8.433,38.808,51.626,51.626,0,0,0,7.2,79.766"
                          transform="translate(-3.556 -1.728)" fill="none" stroke-linecap="round" stroke-miterlimit="10"
                          stroke-width="2"/>
                    <path id="Path_23" data-name="Path 23" d="M17.224,5.542,25.78,3.588l1.951,8.553"
                          transform="translate(19.161 -3.588)" fill="none" stroke-linecap="round" stroke-miterlimit="10"
                          stroke-width="2"/>
                </g>
                <g id="Group_14" data-name="Group 14" transform="translate(2.343 87.924)">
                    <path id="Path_24" data-name="Path 24"
                          d="M5.779,41.122c8.572-.894,12.983,6.1,22.963,11.239a47.888,47.888,0,0,0,25.606,4.688A51.626,51.626,0,0,0,90.434,37.637"
                          transform="translate(-2.204 -34.922)" fill="none" stroke-linecap="round"
                          stroke-miterlimit="10" stroke-width="2"/>
                    <path id="Path_25" data-name="Path 25" d="M10.4,49.014,4.436,42.585l6.431-5.968"
                          transform="translate(-4.436 -36.617)" fill="none" stroke-linecap="round"
                          stroke-miterlimit="10" stroke-width="2"/>
                </g>
                <g id="Group_15" data-name="Group 15" transform="translate(58.022 9.059)">
                    <path id="Path_26" data-name="Path 26"
                          d="M70.7,78.557c-5.061-6.975-1.217-14.292-1.749-25.5a47.912,47.912,0,0,0-8.745-24.517A51.62,51.62,0,0,0,25.352,6.991"
                          transform="translate(-25.352 -6.991)" fill="none" stroke-linecap="round"
                          stroke-miterlimit="10" stroke-width="2"/>
                    <path id="Path_27" data-name="Path 27" d="M50.8,31.932l-2.585,8.383-8.383-2.588"
                          transform="translate(-1.284 34.462)" fill="none" stroke-linecap="round" stroke-miterlimit="10"
                          stroke-width="2"/>
                </g>
            </g>
        </g>
    </symbol>
    <symbol viewBox="0 0 82 112" id="icon--profit-3">
        <g id="pass" transform="translate(1 1)">
            <path id="Path_28" data-name="Path 28"
                  d="M75.459,98.4H4.179A2.679,2.679,0,0,1,1.5,95.725V4.179A2.679,2.679,0,0,1,4.179,1.5h71.28a2.678,2.678,0,0,1,2.679,2.679V95.725A2.678,2.678,0,0,1,75.459,98.4Z"
                  transform="translate(-1.5 -1.5)" fill="none" stroke-linecap="round" stroke-linejoin="round"
                  stroke-miterlimit="10" stroke-width="2"/>
            <g id="Group_17" data-name="Group 17" transform="translate(17.925 12.132)">
                <line id="Line_14" data-name="Line 14" x2="46.968" transform="translate(0 23.487)" fill="none"
                      stroke-linecap="round" stroke-linejoin="round" stroke-miterlimit="10" stroke-width="2"/>
                <line id="Line_15" data-name="Line 15" y2="23.51" transform="translate(23.484 0.003)" fill="none"
                      stroke-linecap="round" stroke-linejoin="round" stroke-miterlimit="10" stroke-width="2"/>
                <path id="Path_29" data-name="Path 29" d="M19.884,37.456a23.488,23.488,0,1,1,46.975.035"
                      transform="translate(-19.884 -13.943)" fill="none" stroke-linecap="round" stroke-linejoin="round"
                      stroke-miterlimit="10" stroke-width="2"/>
                <path id="Path_30" data-name="Path 30" d="M43.65,13.943S31.061,18.969,31.061,37.43"
                      transform="translate(-20.163 -13.943)" fill="none" stroke-linecap="round" stroke-linejoin="round"
                      stroke-miterlimit="10" stroke-width="2"/>
                <path id="Path_31" data-name="Path 31" d="M31.061,38.032" transform="translate(-20.163 -14.545)"
                      fill="none" stroke-linecap="round" stroke-linejoin="round" stroke-miterlimit="10"
                      stroke-width="2"/>
                <path id="Path_32" data-name="Path 32" d="M43.973,13.943s12.59,5.026,12.59,23.487"
                      transform="translate(-20.486 -13.943)" fill="none" stroke-linecap="round" stroke-linejoin="round"
                      stroke-miterlimit="10" stroke-width="2"/>
                <path id="Path_33" data-name="Path 33" d="M56.885,38.032" transform="translate(-20.808 -14.545)"
                      fill="none" stroke-linecap="round" stroke-linejoin="round" stroke-miterlimit="10"
                      stroke-width="2"/>
                <path id="Path_34" data-name="Path 34" d="M43.552,27.524c-12.97,0-16.329-6.8-16.329-6.8"
                      transform="translate(-20.067 -14.112)" fill="none" stroke-linecap="round" stroke-linejoin="round"
                      stroke-miterlimit="10" stroke-width="2"/>
                <path id="Path_35" data-name="Path 35" d="M60.3,20.722s-3.359,6.8-16.329,6.8"
                      transform="translate(-20.486 -14.112)" fill="none" stroke-linecap="round" stroke-linejoin="round"
                      stroke-miterlimit="10" stroke-width="2"/>
                <path id="Path_36" data-name="Path 36" d="M54.379,25.6" transform="translate(-20.746 -14.234)"
                      fill="#8baada"/>
                <line id="Line_16" data-name="Line 16" y1="23.509" transform="translate(23.491 23.487)" fill="none"
                      stroke-linecap="round" stroke-linejoin="round" stroke-miterlimit="10" stroke-width="2"/>
                <path id="Path_37" data-name="Path 37" d="M66.859,38.058a23.488,23.488,0,0,1-46.975,0"
                      transform="translate(-19.884 -14.545)" fill="none" stroke-linecap="round" stroke-linejoin="round"
                      stroke-miterlimit="10" stroke-width="2"/>
                <path id="Path_38" data-name="Path 38" d="M43.973,61.544s12.59-5.026,12.59-23.487"
                      transform="translate(-20.486 -14.545)" fill="none" stroke-linecap="round" stroke-linejoin="round"
                      stroke-miterlimit="10" stroke-width="2"/>
                <path id="Path_39" data-name="Path 39" d="M56.885,38.058" transform="translate(-20.808 -14.545)"
                      fill="none" stroke-linecap="round" stroke-linejoin="round" stroke-miterlimit="10"
                      stroke-width="2"/>
                <path id="Path_40" data-name="Path 40" d="M43.65,61.544S31.061,56.518,31.061,38.057"
                      transform="translate(-20.163 -14.545)" fill="none" stroke-linecap="round" stroke-linejoin="round"
                      stroke-miterlimit="10" stroke-width="2"/>
                <path id="Path_41" data-name="Path 41" d="M31.061,38.058" transform="translate(-20.163 -14.545)"
                      fill="none" stroke-linecap="round" stroke-linejoin="round" stroke-miterlimit="10"
                      stroke-width="2"/>
                <path id="Path_42" data-name="Path 42" d="M60.3,55.194s-3.359-6.8-16.329-6.8"
                      transform="translate(-20.486 -14.804)" fill="none" stroke-linecap="round" stroke-linejoin="round"
                      stroke-miterlimit="10" stroke-width="2"/>
                <path id="Path_43" data-name="Path 43" d="M27.223,55.194s3.359-6.8,16.329-6.8"
                      transform="translate(-20.067 -14.804)" fill="none" stroke-linecap="round" stroke-linejoin="round"
                      stroke-miterlimit="10" stroke-width="2"/>
                <path id="Path_44" data-name="Path 44" d="M33.566,50.485" transform="translate(-20.226 -14.856)"
                      fill="#8baada"/>
            </g>
            <g id="Group_18" data-name="Group 18" transform="translate(18.985 69.621)">
                <path id="Path_45" data-name="Path 45"
                      d="M25.959,73.125H20.971V88.272h2.447V82.454h2.541a4.575,4.575,0,0,0,3.429-1.286,5.2,5.2,0,0,0,0-6.752A4.566,4.566,0,0,0,25.959,73.125Zm1.659,6.619a1.936,1.936,0,0,1-1.659.739H23.417V75.1h2.541a1.914,1.914,0,0,1,1.662.752A3.225,3.225,0,0,1,28.2,77.81,3.115,3.115,0,0,1,27.619,79.744Z"
                      transform="translate(-20.971 -72.911)" fill="#fff"/>
                <path id="Path_46" data-name="Path 46"
                      d="M36.26,73.125,31.714,88.272h2.547l1.064-3.729h4.117L40.5,88.272h2.546l-4.5-15.147Zm-.357,9.4,1.494-5.2,1.477,5.2Z"
                      transform="translate(-21.239 -72.911)" fill="#fff"/>
                <path id="Path_47" data-name="Path 47"
                      d="M50.039,79.679a5.969,5.969,0,0,1-2.08-1.143,1.927,1.927,0,0,1-.581-1.452,2.315,2.315,0,0,1,.555-1.6,1.936,1.936,0,0,1,1.552-.623,2.075,2.075,0,0,1,1.666.732,2.928,2.928,0,0,1,.642,1.971v.2h2.312l.074-.222v-.03a4.388,4.388,0,0,0-1.251-3.293A4.61,4.61,0,0,0,49.5,72.905a4.692,4.692,0,0,0-3.289,1.182A3.933,3.933,0,0,0,44.921,77.1a3.724,3.724,0,0,0,1.178,2.87,8.566,8.566,0,0,0,3.256,1.711,4.916,4.916,0,0,1,1.96,1.138,2.249,2.249,0,0,1,.529,1.538,2.123,2.123,0,0,1-.592,1.59,2.263,2.263,0,0,1-1.657.587,2.571,2.571,0,0,1-1.838-.687,2.742,2.742,0,0,1-.733-2.1v-.194H44.7l-.074.221v.029a4.081,4.081,0,0,0,1.461,3.472,5.464,5.464,0,0,0,3.506,1.2,5.024,5.024,0,0,0,3.386-1.117,3.8,3.8,0,0,0,1.31-3.021,3.95,3.95,0,0,0-1.113-2.894A7.76,7.76,0,0,0,50.039,79.679Z"
                      transform="translate(-21.562 -72.905)" fill="#fff"/>
                <path id="Path_48" data-name="Path 48"
                      d="M65.617,81.448a7.755,7.755,0,0,0-3.142-1.769,5.988,5.988,0,0,1-2.08-1.143,1.934,1.934,0,0,1-.581-1.452,2.32,2.32,0,0,1,.556-1.6,1.931,1.931,0,0,1,1.55-.623,2.073,2.073,0,0,1,1.666.732,2.929,2.929,0,0,1,.644,1.971v.2h2.31l.074-.222,0-.03a4.389,4.389,0,0,0-1.253-3.293,4.608,4.608,0,0,0-3.422-1.315,4.687,4.687,0,0,0-3.289,1.182A3.934,3.934,0,0,0,57.356,77.1a3.721,3.721,0,0,0,1.179,2.87,8.556,8.556,0,0,0,3.257,1.711,4.916,4.916,0,0,1,1.96,1.138,2.247,2.247,0,0,1,.527,1.538,2.122,2.122,0,0,1-.59,1.59,2.266,2.266,0,0,1-1.657.587,2.573,2.573,0,0,1-1.84-.687,2.75,2.75,0,0,1-.733-2.1v-.194H57.138l-.074.221v.029a4.089,4.089,0,0,0,1.461,3.472,5.469,5.469,0,0,0,3.508,1.2,5.024,5.024,0,0,0,3.386-1.117,3.8,3.8,0,0,0,1.308-3.021A3.949,3.949,0,0,0,65.617,81.448Z"
                      transform="translate(-21.873 -72.905)" fill="#fff"/>
            </g>
            <path id="Path_49" data-name="Path 49"
                  d="M14.334,98.724v9.9a2.617,2.617,0,0,0,2.617,2.616H88.358a2.617,2.617,0,0,0,2.617-2.616V16.951a2.617,2.617,0,0,0-2.617-2.616h-9.9"
                  transform="translate(-1.821 -1.821)" fill="none" stroke-linecap="round" stroke-linejoin="round"
                  stroke-miterlimit="10" stroke-width="2"/>
            <line id="Line_17" data-name="Line 17" y2="27.675" transform="translate(6.186 0)" fill="none"
                  stroke-linecap="round" stroke-linejoin="round" stroke-miterlimit="10" stroke-width="2"/>
            <line id="Line_18" data-name="Line 18" y2="27.675" transform="translate(6.186 69.229)" fill="none"
                  stroke-linecap="round" stroke-linejoin="round" stroke-miterlimit="10" stroke-width="2"/>
        </g>
    </symbol>
    <symbol viewBox="0 0 78 123" id="icon--profit-4">
        <g id="speaking" transform="translate(1 1)">
            <g id="Group_19" data-name="Group 19" transform="translate(0 0)">
                <path id="Path_50" data-name="Path 50" d="M70.312,69.85a37.519,37.519,0,1,0-42.615,0"
                      transform="translate(-11.486 -1.456)" fill="none" stroke-miterlimit="10" stroke-width="2"/>
                <ellipse id="Ellipse_1" data-name="Ellipse 1" cx="7.4" cy="7.4" rx="7.4" ry="7.4"
                         transform="translate(30.12 21.063)" fill="none" stroke-miterlimit="10" stroke-width="2"/>
                <line id="Line_19" data-name="Line 19" y2="12.711" transform="translate(37.519 42.271)" fill="none"
                      stroke-miterlimit="10" stroke-width="2"/>
                <path id="Path_51" data-name="Path 51" d="M35.625,55.356V73.077h23.7V55.356"
                      transform="translate(-9.956 1.961)" fill="none" stroke-miterlimit="10" stroke-width="2"/>
                <path id="Path_52" data-name="Path 52" d="M26.732,73.974v-22.9c0-5.45,2.914-9.868,8.364-9.868H60.981"
                      transform="translate(-10.519 1.064)" fill="none" stroke-miterlimit="10" stroke-width="2"/>
                <path id="Path_53" data-name="Path 53" d="M58.939,41.207h0c5.452,0,8.365,4.417,8.365,9.868v22.9"
                      transform="translate(-8.477 1.064)" fill="none" stroke-miterlimit="10" stroke-width="2"/>
            </g>
            <path id="Path_54" data-name="Path 54"
                  d="M33.017,92.411H27.029L22.115,80.373a.991.991,0,0,1,.919-1.365h50.6a.991.991,0,0,1,.918,1.365L69.643,92.411H63.654"
                  transform="translate(-10.817 3.461)" fill="none" stroke-miterlimit="10" stroke-width="2"/>
            <path id="Path_55" data-name="Path 55"
                  d="M63,117.1V87.141a.669.669,0,0,0-.672-.673H33.036a.671.671,0,0,0-.673.673v29.965"
                  transform="translate(-10.162 3.934)" fill="none" stroke-miterlimit="10" stroke-width="2"/>
        </g>
    </symbol>
    <symbol viewBox="0 0 66 66" id="fb">
        <path d="M33.039,0A33.039,33.039,0,1,0,66.078,33.039,33.039,33.039,0,0,0,33.039,0Zm12.3,18.177c-2.717.108-6.044-.391-7.828.652-1.458,1.8-.864,5.659-.979,8.807h8.481c-.228,2.926-.917,5.388-.979,8.481H36.859c-.76,6.631-.108,14.678-.326,21.854H27.726V36.117H20.55c-.29-1.536.17-5.245,0-8.481H27.4c-1.135-12.7,4.57-20.161,17.94-17.287Z"
              fill="#0253a1"/>
    </symbol>
    <symbol viewBox="0 0 71 50" id="you">
        <path d="M71.051,23.255A83,83,0,0,0,69.892,9.348c-.825-4.247-2.989-6.99-7.164-7.9a50.007,50.007,0,0,0-6.743-.79C53.643.481,51.211.323,48.819.287,43.924.211,38.776-.156,33.913.076,31.233.2,28.831.066,26.38.181,21.454.414,16.648.434,12,.866a15.467,15.467,0,0,0-6.11,1.422A9.222,9.222,0,0,0,2.147,6.081a18.338,18.338,0,0,0-1.422,6.11A103.217,103.217,0,0,0,.04,26.625a92.517,92.517,0,0,0,1.105,13.96c.8,4.1,3.13,6.929,7.27,7.8s8.992.951,13.96,1.105c7.642.24,14.868.456,22.23.106,4.952-.236,9.739-.253,14.381-.685a16.55,16.55,0,0,0,6.163-1.37,8.507,8.507,0,0,0,3.74-3.793,19.039,19.039,0,0,0,1.476-6.057A109.59,109.59,0,0,0,71.051,23.255ZM28.433,35.528V14.246c6.2,3.513,12.315,7.1,18.491,10.641C40.8,28.479,34.622,32.007,28.433,35.528Z"
              transform="translate(-0.001 0)" fill="red" fill-rule="evenodd"/>
    </symbol>

    <symbol viewBox="0 0 18 23" id="icon-name">
        <g id="Ellipse_5" data-name="Ellipse 5" transform="translate(4)" fill="#fff" stroke="#001e3f" stroke-width="1">
            <circle cx="4.5" cy="4.5" r="4.5" stroke="none"/>
            <circle cx="4.5" cy="4.5" r="4" fill="none"/>
        </g>
        <g id="Rectangle_36" data-name="Rectangle 36" transform="translate(0 11)" fill="#fff" stroke="#001e3f"
           stroke-width="1">
            <path d="M5,0h7a5,5,0,0,1,5,5v7a0,0,0,0,1,0,0H0a0,0,0,0,1,0,0V5A5,5,0,0,1,5,0Z" stroke="none"/>
            <path d="M5,.5h7A4.5,4.5,0,0,1,16.5,5v6a.5.5,0,0,1-.5.5H1A.5.5,0,0,1,.5,11V5A4.5,4.5,0,0,1,5,.5Z"
                  fill="none"/>
        </g>
    </symbol>
    <symbol viewBox="0 0 14 27" id="icon-phone">
        <g id="Rectangle_37" data-name="Rectangle 37" fill="#fff" stroke="#001e3f" stroke-width="1">
            <rect width="14" height="27" rx="2" stroke="none"/>
            <rect x="0.5" y="0.5" width="13" height="26" rx="1.5" fill="none"/>
        </g>
    </symbol>
    <symbol viewBox="0 0 24 18" id="icon-mail">
        <g id="mail_2_" transform="translate(0.5 0.5)">
            <g id="Group_20" data-name="Group 20" transform="translate(2.501 9.379)">
                <line id="Line_24" data-name="Line 24" y1="5.002" x2="6.253" transform="translate(0)" fill="none"
                      stroke="#001e3f" stroke-linecap="round" stroke-linejoin="round" stroke-miterlimit="10"
                      stroke-width="1"/>
                <line id="Line_25" data-name="Line 25" x2="6.253" y2="5.002" transform="translate(11.255)" fill="none"
                      stroke="#001e3f" stroke-linecap="round" stroke-linejoin="round" stroke-miterlimit="10"
                      stroke-width="1"/>
            </g>
            <path id="Path_56" data-name="Path 56" d="M10.012,10.011l6.878,6.878a2.866,2.866,0,0,0,3.752,0l6.878-6.878"
                  transform="translate(-7.511 -7.51)" fill="none" stroke="#001e3f" stroke-linecap="round"
                  stroke-linejoin="round" stroke-miterlimit="10" stroke-width="1"/>
            <path id="Path_57" data-name="Path 57"
                  d="M22.315,17.883H2.2A1.2,1.2,0,0,1,1,16.688V2.195A1.2,1.2,0,0,1,2.2,1h20.12a1.2,1.2,0,0,1,1.2,1.195V16.688A1.2,1.2,0,0,1,22.315,17.883Z"
                  transform="translate(-1 -1)" fill="none" stroke="#001e3f" stroke-linecap="round"
                  stroke-linejoin="round" stroke-miterlimit="10" stroke-width="1"/>
        </g>
    </symbol>
</svg>