<svg id="Layer_1" xmlns="http://www.w3.org/2000/svg" viewBox="0 0 512 512"><path d="M384,209.455c-6.435,0-11.636,5.201-11.636,11.636c0,53.818-40.809,98.234-93.091,104.041v-34.223 c0-6.435-5.201-11.636-11.636-11.636c-32.081,0-58.182-26.1-58.182-58.182c0-32.081,26.1-58.182,58.182-58.182 c32.081,0,58.182,26.1,58.182,58.182c0,16.524-7.063,32.326-19.398,43.369c-4.783,4.282-5.19,11.636-0.908,16.431 s11.66,5.19,16.431,0.908c17.245-15.441,27.148-37.574,27.148-60.707c0-44.905-36.55-81.455-81.455-81.455 s-81.455,36.55-81.455,81.455c0,40.972,30.394,74.961,69.818,80.628v59.008c0,6.435,5.201,11.636,11.636,11.636 c6.435,0,11.636-5.201,11.636-11.636v-12.23c65.14-5.9,116.364-60.753,116.364-127.406 C395.636,214.656,390.435,209.455,384,209.455z"/><path d="M267.636,174.545c-25.67,0-46.545,20.876-46.545,46.545c0,6.435,5.201,11.636,11.636,11.636 c6.435,0,11.636-5.201,11.636-11.636c0-12.835,10.438-23.273,23.273-23.273c6.435,0,11.636-5.201,11.636-11.636 S274.071,174.545,267.636,174.545z"/><path d="M453.818,0c-32.081,0-58.182,26.1-58.182,58.182c0,10.449,2.991,20.119,7.831,28.602l-47.558,41.612 c-50.071-47.697-129.617-46.964-178.781,2.188c-4.55,4.55-4.55,11.904,0,16.454s11.904,4.55,16.454,0 c40.832-40.832,107.299-40.82,147.991-0.128l5.399,5.562c2.281,2.351,5.318,3.537,8.355,3.537c2.723,0,5.469-0.954,7.657-2.874 l55.796-48.815c9.763,7.447,21.818,12.044,35.037,12.044c32.081,0,58.182-26.1,58.182-58.182C512,26.1,485.9,0,453.818,0z M453.818,93.091c-19.247,0-34.909-15.663-34.909-34.909c0-19.247,15.663-34.909,34.909-34.909 c19.247,0,34.909,15.663,34.909,34.909S473.065,93.091,453.818,93.091z"/><path d="M267.636,395.636c-32.081,0-58.182,26.1-58.182,58.182c0,32.081,26.1,58.182,58.182,58.182 c32.081,0,58.182-26.1,58.182-58.182C325.818,421.737,299.718,395.636,267.636,395.636z M267.636,488.727 c-19.247,0-34.909-15.663-34.909-34.909c0-19.247,15.663-34.909,34.909-34.909c19.247,0,34.909,15.663,34.909,34.909 C302.545,473.065,286.883,488.727,267.636,488.727z"/><path d="M151.273,209.455H91.439c-5.201-20.026-23.261-34.909-44.893-34.909C20.876,174.545,0,195.421,0,221.091 c0,25.67,20.876,46.545,46.545,46.545c21.632,0,39.692-14.883,44.893-34.909h59.834c6.435,0,11.636-5.201,11.636-11.636 C162.909,214.656,157.708,209.455,151.273,209.455z M46.545,244.364c-12.835,0-23.273-10.438-23.273-23.273 c0-12.835,10.438-23.273,23.273-23.273s23.273,10.438,23.273,23.273C69.818,233.926,59.38,244.364,46.545,244.364z"/></svg>