<svg id="Layer_1" xmlns="http://www.w3.org/2000/svg" viewBox="0 0 496.467 496.467"><path d="M129.221,386.938c-5.049,0-10.075-1.922-13.926-5.766c-7.696-7.696-7.696-20.157,0-27.845	L353.311,115.31c7.696-7.696,20.157-7.696,27.845,0s7.696,20.157,0,27.845L143.139,381.172	C139.296,385.016,134.262,386.938,129.221,386.938z"/><circle cx="404.59" cy="91.829" r="72.129" fill="#fff"/><path d="M404.63,183.65c-24.521,0-47.569-9.555-64.922-26.892c-35.801-35.801-35.801-94.043,0-129.859	C357.061,9.563,380.125,0.008,404.63,0.008c24.537,0,47.584,9.555,64.937,26.892c17.337,17.337,26.892,40.401,26.892,64.922	s-9.555,47.584-26.908,64.937C452.206,174.096,429.158,183.65,404.63,183.65z M404.63,39.385c-13.997,0-27.168,5.443-37.077,15.352	c-20.433,20.448-20.433,53.721,0,74.169c9.909,9.893,23.064,15.352,37.077,15.352c14.013,0,27.168-5.459,37.077-15.352	c9.909-9.909,15.368-23.079,15.368-37.092c0-13.997-5.459-27.168-15.368-37.077C431.797,44.828,418.651,39.385,404.63,39.385z"/><path d="M142.816,455.633c-28.168,28.184-73.83,28.184-101.983,0c-28.184-28.168-28.184-73.83,0-101.983	c28.152-28.184,73.815-28.184,101.983,0C171,381.802,171,427.465,142.816,455.633z" fill="#fff"/><path d="M91.821,496.467c-24.521,0-47.569-9.555-64.922-26.908C9.563,452.222,0.008,429.158,0.008,404.638	c0-24.521,9.555-47.569,26.892-64.922c17.353-17.337,40.401-26.892,64.922-26.892s47.584,9.555,64.922,26.908	c17.337,17.337,26.892,40.385,26.892,64.906c0,24.521-9.555,47.584-26.892,64.922C139.406,486.912,116.342,496.467,91.821,496.467z M91.821,352.201c-13.997,0-27.152,5.459-37.061,15.368c-9.925,9.909-15.368,23.064-15.368,37.061	c0,13.997,5.443,27.168,15.352,37.077c9.925,9.909,23.079,15.368,37.077,15.368s27.168-5.459,37.077-15.368	c9.909-9.909,15.352-23.079,15.352-37.077c0-13.997-5.443-27.152-15.352-37.061C118.989,357.66,105.819,352.201,91.821,352.201z"/><path d="M367.23,386.938c-5.049,0-10.075-1.922-13.926-5.766L115.295,143.155	c-7.696-7.696-7.696-20.157,0-27.845s20.157-7.696,27.845,0l238.017,238.017c7.696,7.696,7.696,20.157,0,27.845	C377.313,385.016,372.263,386.938,367.23,386.938z"/><circle cx="404.59" cy="404.669" r="72.121" fill="#fff"/><path d="M404.63,496.467c-24.505,0-47.569-9.555-64.922-26.892c-17.337-17.353-26.908-40.417-26.908-64.937	c0-24.521,9.57-47.569,26.908-64.906c17.353-17.353,40.417-26.908,64.922-26.908c24.537,0,47.584,9.555,64.937,26.908	c17.337,17.337,26.892,40.385,26.892,64.906c0,24.521-9.555,47.584-26.908,64.937C452.214,486.912,429.174,496.467,404.63,496.467z M404.63,352.201c-13.997,0-27.168,5.459-37.077,15.368c-9.893,9.909-15.368,23.064-15.368,37.061	c0,14.013,5.474,27.183,15.368,37.092c9.909,9.893,23.079,15.352,37.077,15.352c14.013,0,27.168-5.459,37.077-15.352	c9.909-9.909,15.368-23.079,15.368-37.092c0-13.997-5.459-27.152-15.368-37.061C431.797,357.66,418.651,352.201,404.63,352.201z"/><path d="M40.834,142.832C12.65,114.649,12.65,68.986,40.802,40.818c28.184-28.168,73.846-28.168,102.014,0	c28.184,28.184,28.184,73.846,0,102.014C114.649,171,68.986,171,40.834,142.832z" fill="#fff"/><path d="M91.821,183.65c-24.521,0-47.569-9.555-64.922-26.892C-8.909,120.958-8.909,62.692,26.892,26.892	C44.229,9.555,67.293,0,91.813,0s47.584,9.555,64.937,26.892c35.801,35.816,35.801,94.058,0,129.859	C139.406,174.096,116.342,183.65,91.821,183.65z M91.821,39.385c-13.997,0-27.183,5.443-37.077,15.352	c-20.448,20.448-20.433,53.721,0,74.169c9.925,9.893,23.079,15.352,37.077,15.352c14.013,0,27.183-5.459,37.092-15.352	c20.433-20.448,20.433-53.721,0-74.169C119.005,44.835,105.834,39.385,91.821,39.385z"/></svg>