<svg height="512pt" viewBox="0 0 512 512" width="512pt" xmlns="http://www.w3.org/2000/svg"><path d="m456.835938 80.332031h-25.167969v-25.167969c0-30.417968-24.746094-55.164062-55.167969-55.164062h-321.332031c-30.421875 0-55.167969 24.746094-55.167969 55.164062v401.667969c0 30.421875 24.746094 55.167969 55.167969 55.167969h401.667969c30.417968 0 55.164062-24.746094 55.164062-55.167969v-321.332031c0-30.417969-24.746094-55.167969-55.164062-55.167969zm25.164062 376.5c0 13.878907-11.289062 25.167969-25.164062 25.167969h-401.667969c-13.878907 0-25.167969-11.289062-25.167969-25.167969v-401.667969c0-13.875 11.289062-25.164062 25.167969-25.164062h321.332031c13.878906 0 25.167969 11.289062 25.167969 25.164062v361.5c0 8.285157 6.714843 15 15 15 8.285156 0 15-6.714843 15-15v-306.332031h25.167969c13.875 0 25.164062 11.289063 25.164062 25.167969zm0 0"/><path d="m79.269531 214.765625h112.464844c8.285156 0 15-6.714844 15-15v-112.464844c0-8.285156-6.714844-15-15-15h-112.464844c-8.285156 0-15 6.714844-15 15v112.464844c0 8.285156 6.714844 15 15 15zm15-112.464844h82.464844v82.464844h-82.464844zm0 0"/><path d="m368.46875 72.300781h-112.46875c-8.285156 0-15 6.714844-15 15 0 8.285157 6.714844 15 15 15h112.46875c8.28125 0 15-6.714843 15-15 0-8.285156-6.71875-15-15-15zm0 0"/><path d="m368.46875 184.765625h-112.46875c-8.285156 0-15 6.71875-15 15 0 8.285156 6.714844 15 15 15h112.46875c8.28125 0 15-6.714844 15-15s-6.71875-15-15-15zm0 0"/><path d="m368.46875 128.53125h-112.46875c-8.285156 0-15 6.71875-15 15 0 8.285156 6.714844 15 15 15h112.46875c8.28125 0 15-6.714844 15-15 0-8.28125-6.71875-15-15-15zm0 0"/><path d="m368.46875 241h-289.199219c-8.285156 0-15 6.714844-15 15s6.714844 15 15 15h289.199219c8.28125 0 15-6.714844 15-15s-6.71875-15-15-15zm0 0"/><path d="m199.769531 297.234375h-120.5c-8.285156 0-15 6.714844-15 15 0 8.28125 6.714844 15 15 15h120.5c8.28125 0 15-6.71875 15-15 0-8.285156-6.71875-15-15-15zm0 0"/><path d="m368.46875 297.234375h-120.5c-8.285156 0-15 6.714844-15 15 0 8.28125 6.714844 15 15 15h120.5c8.28125 0 15-6.71875 15-15 0-8.285156-6.71875-15-15-15zm0 0"/><path d="m199.769531 353.46875h-120.5c-8.285156 0-15 6.714844-15 15 0 8.28125 6.714844 15 15 15h120.5c8.28125 0 15-6.71875 15-15 0-8.285156-6.71875-15-15-15zm0 0"/><path d="m368.46875 353.46875h-120.5c-8.285156 0-15 6.714844-15 15 0 8.28125 6.714844 15 15 15h120.5c8.28125 0 15-6.71875 15-15 0-8.285156-6.71875-15-15-15zm0 0"/><path d="m199.769531 409.699219h-120.5c-8.285156 0-15 6.714843-15 15 0 8.285156 6.714844 15 15 15h120.5c8.28125 0 15-6.714844 15-15 0-8.285157-6.71875-15-15-15zm0 0"/><path d="m368.46875 409.699219h-120.5c-8.285156 0-15 6.714843-15 15 0 8.285156 6.714844 15 15 15h120.5c8.28125 0 15-6.714844 15-15 0-8.285157-6.71875-15-15-15zm0 0"/></svg>